<?xml version="1.0" encoding="UTF-8" standalone="no"?><!DOCTYPE svg PUBLIC "-//W3C//DTD SVG 1.1//EN" "http://www.w3.org/Graphics/SVG/1.1/DTD/svg11.dtd"><svg width="100%" height="100%" viewBox="0 0 480 480" version="1.1" xmlns="http://www.w3.org/2000/svg" xmlns:xlink="http://www.w3.org/1999/xlink" xml:space="preserve" xmlns:serif="http://www.serif.com/" style="fill-rule:evenodd;clip-rule:evenodd;stroke-linejoin:round;stroke-miterlimit:1.41421;"><path d="M417.6,441.6l-19.2,0l0,-19.2l19.2,0l0,19.2Zm-24,0l-19.2,0l0,-19.2l19.2,0l0,19.2Zm-24,0l-19.2,0l0,-19.2l19.2,0l0,19.2Zm-24,0l-19.2,0l0,-19.2l19.2,0l0,19.2Zm-24,0l-19.2,0l0,-19.2l19.2,0l0,19.2Zm-264,0l-19.2,0l0,-19.2l19.2,0l0,19.2Zm168,0l-19.2,0l0,-19.2l19.2,0l0,19.2Zm-24,0l-19.2,0l0,-19.2l19.2,0l0,19.2Zm-24,0l-19.2,0l0,-19.2l19.2,0l0,19.2Zm-24,0l-19.2,0l0,-19.2l19.2,0l0,19.2Zm-24,0l-19.2,0l0,-16.8l19.2,0l0,16.8Zm-31.2,-16.8l7.2,0l0,16.8l-19.2,0l0,-19.2l12,0l0,2.4Zm-16.8,16.8l-19.2,0l0,-19.2l19.2,0l0,19.2Zm151.2,0l-2.4,0l0,-19.2l2.4,0l0,19.2Zm64.8,0l-9.6,0l0,-19.2l9.6,0l0,19.2Zm144,-9.6l-19.2,0l0,-9.6l19.2,0l0,9.6Zm-72,-14.4l-19.2,0l0,-19.2l19.2,0l0,19.2Zm-24,0l-19.2,0l0,-19.2l19.2,0l0,19.2Zm-24,0l-19.2,0l0,-19.2l19.2,0l0,19.2Zm-72,-2.4l-16.8,0l0,2.4l-2.4,0l0,-19.2l19.2,0l0,16.8Zm-24,2.4l-19.2,0l0,-19.2l19.2,0l0,19.2Zm-24,0l-19.2,0l0,-19.2l19.2,0l0,19.2Zm-24,0l-19.2,0l0,-19.2l19.2,0l0,19.2Zm-24,0l-19.2,0l0,-19.2l19.2,0l0,19.2Zm-24,0l-19.2,0l0,-19.2l19.2,0l0,19.2Zm-24,0l-19.2,0l0,-19.2l19.2,0l0,19.2Zm-24,0l-19.2,0l0,-19.2l19.2,0l0,19.2Zm-24,0l-19.2,0l0,-19.2l19.2,0l0,19.2Zm360,0l-19.2,0l0,-19.2l19.2,0l0,19.2Zm24,0l-19.2,0l0,-19.2l19.2,0l0,19.2Zm-48,0l-19.2,0l0,-19.2l19.2,0l0,19.2Zm-96,0l-9.6,0l0,-2.4l-9.6,0l0,-16.8l19.2,0l0,19.2Zm-24,-2.4l-19.2,0l0,-16.8l19.2,0l0,16.8Zm72,-21.6l-19.2,0l0,-7.2l19.2,0l0,7.2Zm-43.2,-7.2l19.2,0l0,7.2l-19.2,0l0,-7.2Zm-24,0l19.2,0l0,7.2l-19.2,0l0,-7.2Zm-24,0l19.2,0l0,7.2l-19.2,0l0,-7.2Zm-28.8,7.2l-19.2,0l0,-19.2l19.2,0l0,19.2Zm-24,0l-19.2,0l0,-19.2l19.2,0l0,19.2Zm-24,0l-19.2,0l0,-19.2l19.2,0l0,19.2Zm-24,0l-19.2,0l0,-19.2l19.2,0l0,19.2Zm-24,0l-19.2,0l0,-19.2l19.2,0l0,19.2Zm-24,0l-19.2,0l0,-19.2l19.2,0l0,19.2Zm-24,0l-19.2,0l0,-19.2l19.2,0l0,19.2Zm-24,0l-19.2,0l0,-19.2l19.2,0l0,19.2Zm384,0l-19.2,0l0,-19.2l19.2,0l0,19.2Zm-192,0l-19.2,0l0,-19.2l19.2,0l0,19.2Zm168,0l-19.2,0l0,-19.2l19.2,0l0,19.2Zm-24,0l-19.2,0l0,-19.2l19.2,0l0,19.2Zm-24,0l-19.2,0l0,-19.2l19.2,0l0,19.2Zm-96,-14.4l-19.2,0l0,-4.8l19.2,0l0,4.8Zm24,0l-19.2,0l0,-4.8l19.2,0l0,4.8Zm24,0l-19.2,0l0,-4.8l19.2,0l0,4.8Zm24,0l-19.2,0l0,-4.8l19.2,0l0,4.8Zm0,-9.6l-19.2,0l0,-14.4l19.2,0l0,14.4Zm-24,0l-19.2,0l0,-14.4l19.2,0l0,14.4Zm-24,0l-19.2,0l0,-14.4l19.2,0l0,14.4Zm-24,0l-19.2,0l0,-14.4l19.2,0l0,14.4Zm168,0l-19.2,0l0,-14.4l19.2,0l0,14.4Zm-240,0l-19.2,0l0,-4.8l9.6,0l0,-12l-9.6,0l0,-2.4l19.2,0l0,19.2Zm-24,0l-19.2,0l0,-4.8l19.2,0l0,4.8Zm192,0l-19.2,0l0,-14.4l19.2,0l0,14.4Zm-240,0l-19.2,0l0,-9.6l19.2,0l0,9.6Zm-24,0l-19.2,0l0,-9.6l19.2,0l0,9.6Zm-24,0l-19.2,0l0,-9.6l19.2,0l0,9.6Zm168,0l-19.2,0l0,-14.4l19.2,0l0,14.4Zm168,0l-19.2,0l0,-14.4l19.2,0l0,14.4Zm-24,0l-19.2,0l0,-14.4l19.2,0l0,14.4Zm-336,0l-19.2,0l0,-19.2l19.2,0l0,19.2Zm96,0l-19.2,0l0,-9.6l4.8,0l0,-9.6l14.4,0l0,19.2Zm69.6,-14.4l2.4,0l0,14.4l-9.6,0l0,-19.2l7.2,0l0,4.8Zm-45.6,-2.4l-19.2,0l0,-2.4l19.2,0l0,2.4Zm24,-7.2l-19.2,0l0,-19.2l19.2,0l0,19.2Zm-24,0l-19.2,0l0,-19.2l19.2,0l0,19.2Zm-24,0l-14.4,0l0,-19.2l14.4,0l0,19.2Zm-96,0l-19.2,0l0,-4.8l19.2,0l0,4.8Zm165.6,0l-7.2,0l0,-19.2l7.2,0l0,19.2Zm-21.6,-24l-19.2,0l0,-19.2l19.2,0l0,19.2Zm-24,0l-19.2,0l0,-19.2l19.2,0l0,19.2Zm-24,0l-19.2,0l0,-19.2l19.2,0l0,19.2Zm-24,0l-19.2,0l0,-19.2l19.2,0l0,19.2Zm-48,0l-9.6,0l0,-16.8l-9.6,0l0,-2.4l19.2,0l0,19.2Zm24,0l-19.2,0l0,-19.2l19.2,0l0,19.2Zm117.6,0l-7.2,0l0,-9.6l-9.6,0l0,-9.6l16.8,0l0,19.2Zm-165.6,-16.8l-19.2,0l0,-2.4l19.2,0l0,2.4Zm105.6,-26.4l0,19.2l-4.8,0l0,-19.2l4.8,0Zm-9.6,19.2l-19.2,0l0,-19.2l19.2,0l0,19.2Zm-24,0l-19.2,0l0,-19.2l19.2,0l0,19.2Zm-24,0l-19.2,0l0,-19.2l19.2,0l0,19.2Zm-48,0l-19.2,0l0,-19.2l19.2,0l0,19.2Zm24,0l-19.2,0l0,-19.2l19.2,0l0,19.2Zm144,-9.6l-2.4,0l0,9.6l-4.8,0l0,-19.2l7.2,0l0,9.6Zm96,0l-19.2,0l0,-9.6l19.2,0l0,9.6Zm24,0l-19.2,0l0,-9.6l19.2,0l0,9.6Zm24,0l-19.2,0l0,-9.6l19.2,0l0,9.6Zm24,0l-19.2,0l0,-9.6l19.2,0l0,9.6Zm24,0l-19.2,0l0,-9.6l19.2,0l0,9.6Zm24,0l-19.2,0l0,-9.6l19.2,0l0,9.6Zm-144,0l-14.4,0l0,-9.6l14.4,0l0,9.6Zm-192,-14.4l-19.2,0l0,-19.2l19.2,0l0,19.2Zm-24,0l-19.2,0l0,-19.2l19.2,0l0,19.2Zm-24,0l-19.2,0l0,-19.2l19.2,0l0,19.2Zm384,0l-19.2,0l0,-19.2l19.2,0l0,19.2Zm-24,0l-19.2,0l0,-19.2l19.2,0l0,19.2Zm-24,0l-19.2,0l0,-19.2l19.2,0l0,19.2Zm-24,0l-19.2,0l0,-19.2l19.2,0l0,19.2Zm-24,0l-19.2,0l0,-19.2l19.2,0l0,19.2Zm-24,0l-19.2,0l0,-19.2l19.2,0l0,19.2Zm-168,0l-19.2,0l0,-7.2l19.2,0l0,7.2Zm24,-4.8l-14.4,0l0,4.8l-4.8,0l0,-19.2l19.2,0l0,14.4Zm-50.4,-2.4l2.4,0l0,7.2l-19.2,0l0,-19.2l16.8,0l0,12Zm98.4,7.2l-7.2,0l0,-4.8l-12,0l0,-14.4l19.2,0l0,19.2Zm72,0l-14.4,0l0,-19.2l14.4,0l0,19.2Zm-98.4,-4.8l-16.8,0l0,-14.4l16.8,0l0,14.4Zm194.4,-19.2l-19.2,0l0,-19.2l19.2,0l0,19.2Zm24,0l-19.2,0l0,-19.2l19.2,0l0,19.2Zm24,0l-19.2,0l0,-19.2l19.2,0l0,19.2Zm-384,0l-19.2,0l0,-9.6l14.4,0l0,-9.6l4.8,0l0,19.2Zm72,0l-19.2,0l0,-19.2l19.2,0l0,19.2Zm216,0l-19.2,0l0,-19.2l19.2,0l0,19.2Zm-192,0l-19.2,0l0,-19.2l19.2,0l0,19.2Zm24,0l-19.2,0l0,-19.2l19.2,0l0,19.2Zm24,0l-19.2,0l0,-19.2l19.2,0l0,19.2Zm24,0l-19.2,0l0,-19.2l14.4,0l0,9.6l4.8,0l0,9.6Zm-144,0l-19.2,0l0,-19.2l19.2,0l0,19.2Zm240,0l-19.2,0l0,-9.6l19.2,0l0,9.6Zm-216,0l-19.2,0l0,-19.2l19.2,0l0,19.2Zm264,0l-19.2,0l0,-19.2l19.2,0l0,19.2Zm-72,0l-14.4,0l0,-7.2l-4.8,0l0,-2.4l19.2,0l0,9.6Zm-48,-7.2l-19.2,0l0,-2.4l19.2,0l0,2.4Zm24,0l-19.2,0l0,-2.4l19.2,0l0,2.4Zm-216,-16.8l-4.8,0l0,-19.2l4.8,0l0,19.2Zm360,0l-19.2,0l0,-7.2l19.2,0l0,7.2Zm-24,0l-19.2,0l0,-7.2l19.2,0l0,7.2Zm-24,0l-19.2,0l0,-19.2l19.2,0l0,19.2Zm-24,0l-19.2,0l0,-19.2l19.2,0l0,19.2Zm-124.8,-19.2l0,19.2l-14.4,0l0,-19.2l14.4,0Zm-19.2,19.2l-19.2,0l0,-19.2l19.2,0l0,19.2Zm-24,0l-19.2,0l0,-19.2l19.2,0l0,19.2Zm-24,0l-19.2,0l0,-19.2l19.2,0l0,19.2Zm-24,0l-19.2,0l0,-2.4l4.8,0l0,-16.8l14.4,0l0,19.2Zm-24,0l-19.2,0l0,-19.2l19.2,0l0,19.2Zm-24,0l-19.2,0l0,-19.2l19.2,0l0,19.2Zm360,0l-19.2,0l0,-7.2l19.2,0l0,7.2Zm-96,-24l-19.2,0l0,-19.2l19.2,0l0,19.2Zm24,0l-19.2,0l0,-19.2l19.2,0l0,19.2Zm-148.8,0l-14.4,0l0,-19.2l14.4,0l0,19.2Zm-43.2,0l-19.2,0l0,-19.2l19.2,0l0,19.2Zm-88.8,-7.2l16.8,0l0,7.2l-19.2,0l0,-19.2l2.4,0l0,12Zm-7.2,7.2l-19.2,0l0,-19.2l19.2,0l0,19.2Zm-24,0l-4.8,0l0,-19.2l4.8,0l0,19.2Zm144,0l-19.2,0l0,-19.2l19.2,0l0,19.2Zm-48,0l-19.2,0l0,-19.2l19.2,0l0,19.2Zm-24,0l-14.4,0l0,-2.4l-4.8,0l0,-4.8l9.6,0l0,-12l9.6,0l0,19.2Zm192,-14.4l-19.2,0l0,-4.8l19.2,0l0,4.8Zm96,2.4l-19.2,0l0,-7.2l19.2,0l0,7.2Zm24,0l-19.2,0l0,-7.2l19.2,0l0,7.2Zm-48,0l-19.2,0l0,-7.2l19.2,0l0,7.2Zm-144,-2.4l-4.8,0l0,-4.8l4.8,0l0,4.8Zm24,0l-19.2,0l0,-4.8l19.2,0l0,4.8Zm24,0l-19.2,0l0,-4.8l19.2,0l0,4.8Zm38.4,-28.8l0,19.2l-9.6,0l0,-19.2l9.6,0Zm-14.4,19.2l-19.2,0l0,-19.2l19.2,0l0,19.2Zm-24,0l-19.2,0l0,-19.2l19.2,0l0,19.2Zm-24,0l-19.2,0l0,-19.2l19.2,0l0,19.2Zm-24,0l-19.2,0l0,-19.2l19.2,0l0,19.2Zm-48,0l-19.2,0l0,-19.2l19.2,0l0,19.2Zm-144,0l-4.8,0l0,-19.2l4.8,0l0,19.2Zm24,0l-19.2,0l0,-19.2l19.2,0l0,19.2Zm96,0l-19.2,0l0,-19.2l19.2,0l0,19.2Zm-88.8,-19.2l0,19.2l-2.4,0l0,-19.2l2.4,0Zm136.8,19.2l-19.2,0l0,-19.2l19.2,0l0,19.2Zm216,0l-19.2,0l0,-19.2l19.2,0l0,19.2Zm-288,0l-19.2,0l0,-19.2l19.2,0l0,19.2Zm264,0l-9.6,0l0,-19.2l9.6,0l0,19.2Zm-288,0l-9.6,0l0,-19.2l9.6,0l0,19.2Zm168,-24l-19.2,0l0,-7.2l19.2,0l0,7.2Zm24,0l-19.2,0l0,-7.2l19.2,0l0,7.2Zm14.4,-7.2l0,7.2l-9.6,0l0,-7.2l9.6,0Zm105.6,7.2l-19.2,0l0,-19.2l19.2,0l0,19.2Zm-336,0l-19.2,0l0,-19.2l19.2,0l0,19.2Zm24,0l-19.2,0l0,-19.2l19.2,0l0,19.2Zm-48,0l-19.2,0l0,-19.2l19.2,0l0,19.2Zm96,0l-19.2,0l0,-7.2l19.2,0l0,7.2Zm-120,0l-4.8,0l0,-19.2l4.8,0l0,19.2Zm144,0l-19.2,0l0,-7.2l19.2,0l0,7.2Zm24,0l-19.2,0l0,-7.2l19.2,0l0,7.2Zm24,0l-19.2,0l0,-7.2l19.2,0l0,7.2Zm-105.6,-7.2l9.6,0l0,7.2l-19.2,0l0,-19.2l9.6,0l0,12Zm129.6,7.2l-19.2,0l0,-7.2l19.2,0l0,7.2Zm144,0l-9.6,0l0,-16.8l-9.6,0l0,-2.4l19.2,0l0,19.2Zm-48,-16.8l-14.4,0l0,-2.4l14.4,0l0,2.4Zm24,0l-19.2,0l0,-2.4l19.2,0l0,2.4Zm-288,-7.2l-19.2,0l0,-2.4l7.2,0l0,-16.8l12,0l0,19.2Zm-24,0l-19.2,0l0,-19.2l19.2,0l0,19.2Zm48,0l-19.2,0l0,-19.2l19.2,0l0,19.2Zm312,0l-19.2,0l0,-19.2l19.2,0l0,19.2Zm-24,0l-19.2,0l0,-19.2l19.2,0l0,19.2Zm-360,0l-4.8,0l0,-19.2l4.8,0l0,19.2Zm312,0l-14.4,0l0,-14.4l-4.8,0l0,-4.8l19.2,0l0,19.2Zm24,0l-19.2,0l0,-19.2l19.2,0l0,19.2Zm-240,-14.4l-9.6,0l0,14.4l-9.6,0l0,-19.2l19.2,0l0,4.8Zm72,0l-19.2,0l0,-4.8l19.2,0l0,4.8Zm48,0l-19.2,0l0,-4.8l19.2,0l0,4.8Zm24,0l-19.2,0l0,-4.8l19.2,0l0,4.8Zm24,0l-19.2,0l0,-4.8l19.2,0l0,4.8Zm24,0l-19.2,0l0,-4.8l19.2,0l0,4.8Zm-96,0l-19.2,0l0,-4.8l19.2,0l0,4.8Zm-72,0l-19.2,0l0,-4.8l19.2,0l0,4.8Zm24,0l-19.2,0l0,-4.8l19.2,0l0,4.8Zm48,-9.6l-19.2,0l0,-19.2l19.2,0l0,19.2Zm-24,0l-19.2,0l0,-19.2l19.2,0l0,19.2Zm-24,0l-19.2,0l0,-19.2l19.2,0l0,19.2Zm-24,0l-19.2,0l0,-19.2l19.2,0l0,19.2Zm-24,0l-19.2,0l0,-19.2l19.2,0l0,19.2Zm-24,0l-19.2,0l0,-19.2l19.2,0l0,19.2Zm288,0l-19.2,0l0,-19.2l19.2,0l0,19.2Zm-48,-7.2l-2.4,0l0,7.2l-16.8,0l0,-19.2l19.2,0l0,12Zm-24,7.2l-19.2,0l0,-19.2l19.2,0l0,19.2Zm-24,0l-19.2,0l0,-19.2l19.2,0l0,19.2Zm-24,0l-19.2,0l0,-19.2l19.2,0l0,19.2Zm-24,0l-19.2,0l0,-19.2l19.2,0l0,19.2Zm-216,0l-4.8,0l0,-16.8l-14.4,0l0,-2.4l19.2,0l0,19.2Zm24,0l-19.2,0l0,-19.2l19.2,0l0,19.2Zm360,0l-19.2,0l0,-19.2l19.2,0l0,19.2Zm-48,0l-2.4,0l0,-7.2l-16.8,0l0,-12l19.2,0l0,19.2Zm-288,0l-12,0l0,-9.6l-7.2,0l0,-9.6l19.2,0l0,19.2Zm-48,-24l-19.2,0l0,-19.2l19.2,0l0,19.2Zm360,0l-19.2,0l0,-14.4l19.2,0l0,14.4Zm24,0l-19.2,0l0,-14.4l19.2,0l0,14.4Zm-48,0l-19.2,0l0,-2.4l7.2,0l0,-12l12,0l0,14.4Zm-192,0l-19.2,0l0,-19.2l19.2,0l0,19.2Zm124.8,-2.4l19.2,0l0,2.4l-19.2,0l0,-2.4Zm-24,0l19.2,0l0,2.4l-19.2,0l0,-2.4Zm-24,0l19.2,0l0,2.4l-19.2,0l0,-2.4Zm-24,0l19.2,0l0,2.4l-19.2,0l0,-2.4Zm-24,0l19.2,0l0,2.4l-19.2,0l0,-2.4Zm-12,0l7.2,0l0,2.4l-19.2,0l0,-19.2l12,0l0,16.8Zm132,0l19.2,0l0,2.4l-19.2,0l0,-2.4Zm-172.8,2.4l-19.2,0l0,-19.2l19.2,0l0,19.2Zm-24,0l-19.2,0l0,-19.2l19.2,0l0,19.2Zm-72,0l-19.2,0l0,-19.2l19.2,0l0,19.2Zm12,-19.2l0,19.2l-7.2,0l0,-19.2l7.2,0Zm36,19.2l-19.2,0l0,-19.2l19.2,0l0,19.2Zm-24,0l-4.8,0l0,-19.2l4.8,0l0,19.2Zm-24,-24l-19.2,0l0,-19.2l19.2,0l0,19.2Zm-24,0l-19.2,0l0,-19.2l19.2,0l0,19.2Zm160.8,-19.2l0,19.2l-12,0l0,-19.2l12,0Zm-40.8,19.2l-19.2,0l0,-19.2l19.2,0l0,19.2Zm-24,0l-19.2,0l0,-19.2l19.2,0l0,19.2Zm-24,0l-19.2,0l0,-19.2l19.2,0l0,19.2Zm-36,-19.2l0,19.2l-7.2,0l0,-19.2l7.2,0Zm108,19.2l-19.2,0l0,-19.2l19.2,0l0,19.2Zm-96,0l-4.8,0l0,-19.2l4.8,0l0,19.2Z" style="fill:#666;"/><clipPath id="_clip1"><path d="M417.6,441.6l-19.2,0l0,-19.2l19.2,0l0,19.2Zm-24,0l-19.2,0l0,-19.2l19.2,0l0,19.2Zm-24,0l-19.2,0l0,-19.2l19.2,0l0,19.2Zm-24,0l-19.2,0l0,-19.2l19.2,0l0,19.2Zm-24,0l-19.2,0l0,-19.2l19.2,0l0,19.2Zm-264,0l-19.2,0l0,-19.2l19.2,0l0,19.2Zm168,0l-19.2,0l0,-19.2l19.2,0l0,19.2Zm-24,0l-19.2,0l0,-19.2l19.2,0l0,19.2Zm-24,0l-19.2,0l0,-19.2l19.2,0l0,19.2Zm-24,0l-19.2,0l0,-19.2l19.2,0l0,19.2Zm-24,0l-19.2,0l0,-16.8l19.2,0l0,16.8Zm-31.2,-16.8l7.2,0l0,16.8l-19.2,0l0,-19.2l12,0l0,2.4Zm-16.8,16.8l-19.2,0l0,-19.2l19.2,0l0,19.2Zm151.2,0l-2.4,0l0,-19.2l2.4,0l0,19.2Zm64.8,0l-9.6,0l0,-19.2l9.6,0l0,19.2Zm144,-9.6l-19.2,0l0,-9.6l19.2,0l0,9.6Zm-72,-14.4l-19.2,0l0,-19.2l19.2,0l0,19.2Zm-24,0l-19.2,0l0,-19.2l19.2,0l0,19.2Zm-24,0l-19.2,0l0,-19.2l19.2,0l0,19.2Zm-72,-2.4l-16.8,0l0,2.4l-2.4,0l0,-19.2l19.2,0l0,16.8Zm-24,2.4l-19.2,0l0,-19.2l19.2,0l0,19.2Zm-24,0l-19.2,0l0,-19.2l19.2,0l0,19.2Zm-24,0l-19.2,0l0,-19.2l19.2,0l0,19.2Zm-24,0l-19.2,0l0,-19.2l19.2,0l0,19.2Zm-24,0l-19.2,0l0,-19.2l19.2,0l0,19.2Zm-24,0l-19.2,0l0,-19.2l19.2,0l0,19.2Zm-24,0l-19.2,0l0,-19.2l19.2,0l0,19.2Zm-24,0l-19.2,0l0,-19.2l19.2,0l0,19.2Zm360,0l-19.2,0l0,-19.2l19.2,0l0,19.2Zm24,0l-19.2,0l0,-19.2l19.2,0l0,19.2Zm-48,0l-19.2,0l0,-19.2l19.2,0l0,19.2Zm-96,0l-9.6,0l0,-2.4l-9.6,0l0,-16.8l19.2,0l0,19.2Zm-24,-2.4l-19.2,0l0,-16.8l19.2,0l0,16.8Zm72,-21.6l-19.2,0l0,-7.2l19.2,0l0,7.2Zm-43.2,-7.2l19.2,0l0,7.2l-19.2,0l0,-7.2Zm-24,0l19.2,0l0,7.2l-19.2,0l0,-7.2Zm-24,0l19.2,0l0,7.2l-19.2,0l0,-7.2Zm-28.8,7.2l-19.2,0l0,-19.2l19.2,0l0,19.2Zm-24,0l-19.2,0l0,-19.2l19.2,0l0,19.2Zm-24,0l-19.2,0l0,-19.2l19.2,0l0,19.2Zm-24,0l-19.2,0l0,-19.2l19.2,0l0,19.2Zm-24,0l-19.2,0l0,-19.2l19.2,0l0,19.2Zm-24,0l-19.2,0l0,-19.2l19.2,0l0,19.2Zm-24,0l-19.2,0l0,-19.2l19.2,0l0,19.2Zm-24,0l-19.2,0l0,-19.2l19.2,0l0,19.2Zm384,0l-19.2,0l0,-19.2l19.2,0l0,19.2Zm-192,0l-19.2,0l0,-19.2l19.2,0l0,19.2Zm168,0l-19.2,0l0,-19.2l19.2,0l0,19.2Zm-24,0l-19.2,0l0,-19.2l19.2,0l0,19.2Zm-24,0l-19.2,0l0,-19.2l19.2,0l0,19.2Zm-96,-14.4l-19.2,0l0,-4.8l19.2,0l0,4.8Zm24,0l-19.2,0l0,-4.8l19.2,0l0,4.8Zm24,0l-19.2,0l0,-4.8l19.2,0l0,4.8Zm24,0l-19.2,0l0,-4.8l19.2,0l0,4.8Zm0,-9.6l-19.2,0l0,-14.4l19.2,0l0,14.4Zm-24,0l-19.2,0l0,-14.4l19.2,0l0,14.4Zm-24,0l-19.2,0l0,-14.4l19.2,0l0,14.4Zm-24,0l-19.2,0l0,-14.4l19.2,0l0,14.4Zm168,0l-19.2,0l0,-14.4l19.2,0l0,14.4Zm-240,0l-19.2,0l0,-4.8l9.6,0l0,-12l-9.6,0l0,-2.4l19.2,0l0,19.2Zm-24,0l-19.2,0l0,-4.8l19.2,0l0,4.8Zm192,0l-19.2,0l0,-14.4l19.2,0l0,14.4Zm-240,0l-19.2,0l0,-9.6l19.2,0l0,9.6Zm-24,0l-19.2,0l0,-9.6l19.2,0l0,9.6Zm-24,0l-19.2,0l0,-9.6l19.2,0l0,9.6Zm168,0l-19.2,0l0,-14.4l19.2,0l0,14.4Zm168,0l-19.2,0l0,-14.4l19.2,0l0,14.4Zm-24,0l-19.2,0l0,-14.4l19.2,0l0,14.4Zm-336,0l-19.2,0l0,-19.2l19.2,0l0,19.2Zm96,0l-19.2,0l0,-9.6l4.8,0l0,-9.6l14.4,0l0,19.2Zm69.6,-14.4l2.4,0l0,14.4l-9.6,0l0,-19.2l7.2,0l0,4.8Zm-45.6,-2.4l-19.2,0l0,-2.4l19.2,0l0,2.4Zm24,-7.2l-19.2,0l0,-19.2l19.2,0l0,19.2Zm-24,0l-19.2,0l0,-19.2l19.2,0l0,19.2Zm-24,0l-14.4,0l0,-19.2l14.4,0l0,19.2Zm-96,0l-19.2,0l0,-4.8l19.2,0l0,4.8Zm165.6,0l-7.2,0l0,-19.2l7.2,0l0,19.2Zm-21.6,-24l-19.2,0l0,-19.2l19.2,0l0,19.2Zm-24,0l-19.2,0l0,-19.2l19.2,0l0,19.2Zm-24,0l-19.2,0l0,-19.2l19.2,0l0,19.2Zm-24,0l-19.2,0l0,-19.2l19.2,0l0,19.2Zm-48,0l-9.6,0l0,-16.8l-9.6,0l0,-2.4l19.2,0l0,19.2Zm24,0l-19.2,0l0,-19.2l19.2,0l0,19.2Zm117.6,0l-7.2,0l0,-9.6l-9.6,0l0,-9.6l16.8,0l0,19.2Zm-165.6,-16.8l-19.2,0l0,-2.4l19.2,0l0,2.4Zm105.6,-26.4l0,19.2l-4.8,0l0,-19.2l4.8,0Zm-9.6,19.2l-19.2,0l0,-19.2l19.2,0l0,19.2Zm-24,0l-19.2,0l0,-19.2l19.2,0l0,19.2Zm-24,0l-19.2,0l0,-19.2l19.2,0l0,19.2Zm-48,0l-19.2,0l0,-19.2l19.2,0l0,19.2Zm24,0l-19.2,0l0,-19.2l19.2,0l0,19.2Zm144,-9.6l-2.4,0l0,9.6l-4.8,0l0,-19.2l7.2,0l0,9.6Zm96,0l-19.2,0l0,-9.6l19.2,0l0,9.6Zm24,0l-19.2,0l0,-9.6l19.2,0l0,9.6Zm24,0l-19.2,0l0,-9.6l19.2,0l0,9.6Zm24,0l-19.2,0l0,-9.6l19.2,0l0,9.6Zm24,0l-19.2,0l0,-9.6l19.2,0l0,9.6Zm24,0l-19.2,0l0,-9.6l19.2,0l0,9.6Zm-144,0l-14.4,0l0,-9.6l14.4,0l0,9.6Zm-192,-14.4l-19.2,0l0,-19.2l19.2,0l0,19.2Zm-24,0l-19.2,0l0,-19.2l19.2,0l0,19.2Zm-24,0l-19.2,0l0,-19.2l19.2,0l0,19.2Zm384,0l-19.2,0l0,-19.2l19.2,0l0,19.2Zm-24,0l-19.2,0l0,-19.2l19.2,0l0,19.2Zm-24,0l-19.2,0l0,-19.2l19.2,0l0,19.2Zm-24,0l-19.2,0l0,-19.2l19.2,0l0,19.2Zm-24,0l-19.2,0l0,-19.2l19.2,0l0,19.2Zm-24,0l-19.2,0l0,-19.2l19.2,0l0,19.2Zm-168,0l-19.2,0l0,-7.2l19.2,0l0,7.2Zm24,-4.8l-14.4,0l0,4.8l-4.8,0l0,-19.2l19.2,0l0,14.4Zm-50.4,-2.4l2.4,0l0,7.2l-19.2,0l0,-19.2l16.8,0l0,12Zm98.4,7.2l-7.2,0l0,-4.8l-12,0l0,-14.4l19.2,0l0,19.2Zm72,0l-14.4,0l0,-19.2l14.4,0l0,19.2Zm-98.4,-4.8l-16.8,0l0,-14.4l16.8,0l0,14.4Zm194.4,-19.2l-19.2,0l0,-19.2l19.2,0l0,19.2Zm24,0l-19.2,0l0,-19.2l19.2,0l0,19.2Zm24,0l-19.2,0l0,-19.2l19.2,0l0,19.2Zm-384,0l-19.2,0l0,-9.6l14.4,0l0,-9.6l4.8,0l0,19.2Zm72,0l-19.2,0l0,-19.2l19.2,0l0,19.2Zm216,0l-19.2,0l0,-19.2l19.2,0l0,19.2Zm-192,0l-19.2,0l0,-19.2l19.2,0l0,19.2Zm24,0l-19.2,0l0,-19.2l19.2,0l0,19.2Zm24,0l-19.2,0l0,-19.2l19.2,0l0,19.2Zm24,0l-19.2,0l0,-19.2l14.4,0l0,9.6l4.8,0l0,9.6Zm-144,0l-19.2,0l0,-19.2l19.2,0l0,19.2Zm240,0l-19.2,0l0,-9.6l19.2,0l0,9.6Zm-216,0l-19.2,0l0,-19.2l19.2,0l0,19.2Zm264,0l-19.2,0l0,-19.2l19.2,0l0,19.2Zm-72,0l-14.4,0l0,-7.2l-4.8,0l0,-2.4l19.2,0l0,9.6Zm-48,-7.2l-19.2,0l0,-2.4l19.2,0l0,2.4Zm24,0l-19.2,0l0,-2.4l19.2,0l0,2.4Zm-216,-16.8l-4.8,0l0,-19.2l4.8,0l0,19.2Zm360,0l-19.2,0l0,-7.2l19.2,0l0,7.2Zm-24,0l-19.2,0l0,-7.2l19.2,0l0,7.2Zm-24,0l-19.2,0l0,-19.2l19.2,0l0,19.2Zm-24,0l-19.2,0l0,-19.2l19.2,0l0,19.2Zm-124.8,-19.2l0,19.2l-14.4,0l0,-19.2l14.4,0Zm-19.2,19.2l-19.2,0l0,-19.2l19.2,0l0,19.2Zm-24,0l-19.2,0l0,-19.2l19.2,0l0,19.2Zm-24,0l-19.2,0l0,-19.2l19.2,0l0,19.2Zm-24,0l-19.2,0l0,-2.4l4.8,0l0,-16.8l14.4,0l0,19.2Zm-24,0l-19.2,0l0,-19.2l19.2,0l0,19.2Zm-24,0l-19.2,0l0,-19.2l19.2,0l0,19.2Zm360,0l-19.2,0l0,-7.2l19.2,0l0,7.2Zm-96,-24l-19.2,0l0,-19.2l19.2,0l0,19.2Zm24,0l-19.2,0l0,-19.2l19.2,0l0,19.2Zm-148.8,0l-14.4,0l0,-19.2l14.4,0l0,19.2Zm-43.2,0l-19.2,0l0,-19.2l19.2,0l0,19.2Zm-88.8,-7.2l16.8,0l0,7.2l-19.2,0l0,-19.2l2.4,0l0,12Zm-7.2,7.2l-19.2,0l0,-19.2l19.2,0l0,19.2Zm-24,0l-4.8,0l0,-19.2l4.8,0l0,19.2Zm144,0l-19.2,0l0,-19.2l19.2,0l0,19.2Zm-48,0l-19.2,0l0,-19.2l19.2,0l0,19.2Zm-24,0l-14.4,0l0,-2.4l-4.8,0l0,-4.8l9.6,0l0,-12l9.6,0l0,19.2Zm192,-14.4l-19.2,0l0,-4.8l19.2,0l0,4.8Zm96,2.4l-19.2,0l0,-7.2l19.2,0l0,7.2Zm24,0l-19.2,0l0,-7.2l19.2,0l0,7.2Zm-48,0l-19.2,0l0,-7.2l19.2,0l0,7.2Zm-144,-2.4l-4.8,0l0,-4.8l4.8,0l0,4.8Zm24,0l-19.2,0l0,-4.8l19.2,0l0,4.8Zm24,0l-19.2,0l0,-4.8l19.2,0l0,4.8Zm38.4,-28.8l0,19.2l-9.6,0l0,-19.2l9.6,0Zm-14.4,19.2l-19.2,0l0,-19.2l19.2,0l0,19.2Zm-24,0l-19.2,0l0,-19.2l19.2,0l0,19.2Zm-24,0l-19.2,0l0,-19.2l19.2,0l0,19.2Zm-24,0l-19.2,0l0,-19.2l19.2,0l0,19.2Zm-48,0l-19.2,0l0,-19.2l19.2,0l0,19.2Zm-144,0l-4.8,0l0,-19.2l4.8,0l0,19.2Zm24,0l-19.2,0l0,-19.2l19.2,0l0,19.2Zm96,0l-19.2,0l0,-19.2l19.2,0l0,19.2Zm-88.8,-19.2l0,19.2l-2.4,0l0,-19.2l2.4,0Zm136.8,19.2l-19.2,0l0,-19.2l19.2,0l0,19.2Zm216,0l-19.2,0l0,-19.2l19.2,0l0,19.2Zm-288,0l-19.2,0l0,-19.2l19.2,0l0,19.2Zm264,0l-9.6,0l0,-19.2l9.6,0l0,19.2Zm-288,0l-9.6,0l0,-19.2l9.6,0l0,19.2Zm168,-24l-19.2,0l0,-7.2l19.2,0l0,7.2Zm24,0l-19.2,0l0,-7.2l19.2,0l0,7.2Zm14.4,-7.2l0,7.2l-9.6,0l0,-7.2l9.6,0Zm105.6,7.2l-19.2,0l0,-19.2l19.2,0l0,19.2Zm-336,0l-19.2,0l0,-19.2l19.2,0l0,19.2Zm24,0l-19.2,0l0,-19.2l19.2,0l0,19.2Zm-48,0l-19.2,0l0,-19.2l19.2,0l0,19.2Zm96,0l-19.2,0l0,-7.2l19.2,0l0,7.2Zm-120,0l-4.8,0l0,-19.2l4.8,0l0,19.2Zm144,0l-19.2,0l0,-7.2l19.2,0l0,7.2Zm24,0l-19.2,0l0,-7.2l19.2,0l0,7.2Zm24,0l-19.2,0l0,-7.2l19.2,0l0,7.2Zm-105.6,-7.2l9.6,0l0,7.2l-19.2,0l0,-19.2l9.6,0l0,12Zm129.6,7.2l-19.2,0l0,-7.2l19.2,0l0,7.2Zm144,0l-9.6,0l0,-16.8l-9.6,0l0,-2.4l19.2,0l0,19.2Zm-48,-16.8l-14.4,0l0,-2.4l14.4,0l0,2.4Zm24,0l-19.2,0l0,-2.4l19.2,0l0,2.4Zm-288,-7.2l-19.2,0l0,-2.4l7.2,0l0,-16.8l12,0l0,19.2Zm-24,0l-19.2,0l0,-19.2l19.2,0l0,19.2Zm48,0l-19.2,0l0,-19.2l19.2,0l0,19.2Zm312,0l-19.2,0l0,-19.2l19.2,0l0,19.2Zm-24,0l-19.2,0l0,-19.2l19.2,0l0,19.2Zm-360,0l-4.8,0l0,-19.2l4.8,0l0,19.2Zm312,0l-14.4,0l0,-14.4l-4.8,0l0,-4.8l19.2,0l0,19.2Zm24,0l-19.2,0l0,-19.2l19.2,0l0,19.2Zm-240,-14.4l-9.6,0l0,14.4l-9.6,0l0,-19.2l19.2,0l0,4.8Zm72,0l-19.2,0l0,-4.8l19.2,0l0,4.8Zm48,0l-19.2,0l0,-4.8l19.2,0l0,4.8Zm24,0l-19.2,0l0,-4.8l19.2,0l0,4.8Zm24,0l-19.2,0l0,-4.8l19.2,0l0,4.8Zm24,0l-19.2,0l0,-4.8l19.2,0l0,4.8Zm-96,0l-19.2,0l0,-4.8l19.2,0l0,4.8Zm-72,0l-19.2,0l0,-4.8l19.2,0l0,4.8Zm24,0l-19.2,0l0,-4.8l19.2,0l0,4.8Zm48,-9.6l-19.2,0l0,-19.2l19.2,0l0,19.2Zm-24,0l-19.2,0l0,-19.2l19.2,0l0,19.2Zm-24,0l-19.2,0l0,-19.2l19.2,0l0,19.2Zm-24,0l-19.2,0l0,-19.2l19.2,0l0,19.2Zm-24,0l-19.2,0l0,-19.2l19.2,0l0,19.2Zm-24,0l-19.2,0l0,-19.2l19.2,0l0,19.2Zm288,0l-19.2,0l0,-19.2l19.2,0l0,19.2Zm-48,-7.2l-2.4,0l0,7.2l-16.8,0l0,-19.2l19.2,0l0,12Zm-24,7.2l-19.2,0l0,-19.2l19.2,0l0,19.2Zm-24,0l-19.2,0l0,-19.2l19.2,0l0,19.2Zm-24,0l-19.2,0l0,-19.2l19.2,0l0,19.2Zm-24,0l-19.2,0l0,-19.2l19.2,0l0,19.2Zm-216,0l-4.8,0l0,-16.8l-14.4,0l0,-2.4l19.2,0l0,19.2Zm24,0l-19.2,0l0,-19.2l19.2,0l0,19.2Zm360,0l-19.2,0l0,-19.2l19.2,0l0,19.2Zm-48,0l-2.4,0l0,-7.2l-16.8,0l0,-12l19.2,0l0,19.2Zm-288,0l-12,0l0,-9.6l-7.2,0l0,-9.6l19.2,0l0,19.2Zm-48,-24l-19.2,0l0,-19.2l19.2,0l0,19.2Zm360,0l-19.2,0l0,-14.4l19.2,0l0,14.4Zm24,0l-19.2,0l0,-14.4l19.2,0l0,14.4Zm-48,0l-19.2,0l0,-2.4l7.2,0l0,-12l12,0l0,14.4Zm-192,0l-19.2,0l0,-19.2l19.2,0l0,19.2Zm124.8,-2.4l19.2,0l0,2.4l-19.2,0l0,-2.4Zm-24,0l19.2,0l0,2.4l-19.2,0l0,-2.4Zm-24,0l19.2,0l0,2.4l-19.2,0l0,-2.4Zm-24,0l19.2,0l0,2.4l-19.2,0l0,-2.4Zm-24,0l19.2,0l0,2.4l-19.2,0l0,-2.4Zm-12,0l7.2,0l0,2.4l-19.2,0l0,-19.2l12,0l0,16.8Zm132,0l19.2,0l0,2.4l-19.2,0l0,-2.4Zm-172.8,2.4l-19.2,0l0,-19.2l19.2,0l0,19.2Zm-24,0l-19.2,0l0,-19.2l19.2,0l0,19.2Zm-72,0l-19.2,0l0,-19.2l19.2,0l0,19.2Zm12,-19.2l0,19.2l-7.2,0l0,-19.2l7.2,0Zm36,19.2l-19.2,0l0,-19.2l19.2,0l0,19.2Zm-24,0l-4.8,0l0,-19.2l4.8,0l0,19.2Zm-24,-24l-19.2,0l0,-19.2l19.2,0l0,19.2Zm-24,0l-19.2,0l0,-19.2l19.2,0l0,19.2Zm160.8,-19.2l0,19.2l-12,0l0,-19.2l12,0Zm-40.8,19.2l-19.2,0l0,-19.2l19.2,0l0,19.2Zm-24,0l-19.2,0l0,-19.2l19.2,0l0,19.2Zm-24,0l-19.2,0l0,-19.2l19.2,0l0,19.2Zm-36,-19.2l0,19.2l-7.2,0l0,-19.2l7.2,0Zm108,19.2l-19.2,0l0,-19.2l19.2,0l0,19.2Zm-96,0l-4.8,0l0,-19.2l4.8,0l0,19.2Z"/></clipPath><g clip-path="url(#_clip1)"><rect x="64.8" y="19.2" width="206.4" height="276" style="fill:#666;"/><rect x="122.4" y="300" width="184.8" height="141.6" style="fill:#2f2f2f;"/><rect x="309.6" y="146.4" width="146.4" height="158.4" style="fill:#2f2f2f;"/><rect x="112.8" y="182.4" width="300" height="172.8" style="fill:#9a9a9a;"/><rect x="285.6" y="48" width="192" height="105.6" style="fill:#4b4b4b;"/><rect x="232.8" y="338.4" width="158.4" height="100.8" style="fill:#666;"/><rect x="-13.2" y="259.2" width="151.2" height="105.6" style="fill:#666;"/><rect x="-7.2" y="345.6" width="175.2" height="74.4" style="fill:#737373;"/><rect x="26.4" y="64.8" width="122.4" height="64.8" style="fill:#737373;"/><rect x="9.6" y="148.8" width="105.6" height="33.6" style="fill:#808080;"/><rect x="261.6" y="16.8" width="192" height="31.2" style="fill:#8d8d8d;"/><rect x="163.2" y="2.4" width="38.4" height="511.2" style="fill:#9a9a9a;"/></g></svg>