<?xml version="1.0" encoding="UTF-8" standalone="no"?><!DOCTYPE svg PUBLIC "-//W3C//DTD SVG 1.1//EN" "http://www.w3.org/Graphics/SVG/1.1/DTD/svg11.dtd"><svg width="100%" height="100%" viewBox="0 0 480 480" version="1.1" xmlns="http://www.w3.org/2000/svg" xmlns:xlink="http://www.w3.org/1999/xlink" xml:space="preserve" xmlns:serif="http://www.serif.com/" style="fill-rule:evenodd;clip-rule:evenodd;stroke-linejoin:round;stroke-miterlimit:1.41421;"><rect x="121.2" y="24" width="237.6" height="432" style="fill:#cdcdcd;"/><path d="M244.299,444l-0.782,0l0,-0.782l0.782,0l0,0.782Zm-46.897,0l-0.781,0l0,-0.782l0.781,0l0,0.782Zm7.816,0l-0.781,0l0,-0.782l0.781,0l0,0.782Zm7.816,0l-0.781,0l0,-0.782l0.781,0l0,0.782Zm7.817,0l-0.782,0l0,-0.782l0.782,0l0,0.782Zm7.816,0l-0.782,0l0,-0.782l0.782,0l0,0.782Zm7.816,0l-0.782,0l0,-0.782l0.782,0l0,0.782Zm70.345,0l-0.782,0l0,-0.782l0.782,0l0,0.782Zm-148.506,0l-0.782,0l0,-0.782l0.782,0l0,0.782Zm93.793,0l-0.782,0l0,-0.782l0.782,0l0,0.782Zm15.632,0l-0.781,0l0,-0.782l0.781,0l0,0.782Zm7.816,0l-0.781,0l0,-0.782l0.781,0l0,0.782Zm7.816,0l-0.781,0l0,-0.782l0.781,0l0,0.782Zm7.816,0l-0.781,0l0,-0.782l0.781,0l0,0.782Zm7.816,0l-0.781,0l0,-0.782l0.781,0l0,0.782Zm-132.873,0l-0.782,0l0,-0.782l0.782,0l0,0.782Zm23.448,0l-0.781,0l0,-0.782l0.781,0l0,0.782Zm70.345,0l-0.782,0l0,-0.782l0.782,0l0,0.782Zm-78.161,0l-0.781,0l0,-0.782l0.781,0l0,0.782Zm132.874,0l-0.782,0l0,-0.782l0.782,0l0,0.782Zm7.816,0l-0.782,0l0,-0.782l0.782,0l0,0.782Zm-148.506,0l-0.782,0l0,-0.782l0.782,0l0,0.782Zm-15.632,-7.816l-0.782,0l0,-0.782l0.782,0l0,0.782Zm125.057,0l-0.781,0l0,-0.782l0.781,0l0,0.782Zm-54.712,0l-0.782,0l0,-0.782l0.782,0l0,0.782Zm-15.633,0l-0.781,0l0,-0.782l0.781,0l0,0.782Zm-7.816,0l-0.781,0l0,-0.782l0.781,0l0,0.782Zm-7.816,0l-0.781,0l0,-0.782l0.781,0l0,0.782Zm-7.816,0l-0.781,0l0,-0.782l0.781,0l0,0.782Zm-7.816,0l-0.781,0l0,-0.782l0.781,0l0,0.782Zm-15.632,0l-0.782,0l0,-0.782l0.782,0l0,0.782Zm70.345,0l-0.782,0l0,-0.782l0.782,0l0,0.782Zm7.816,0l-0.782,0l0,-0.782l0.782,0l0,0.782Zm-23.448,0l-0.782,0l0,-0.782l0.782,0l0,0.782Zm39.08,0l-0.782,0l0,-0.782l0.782,0l0,0.782Zm7.816,0l-0.781,0l0,-0.782l0.781,0l0,0.782Zm7.816,0l-0.781,0l0,-0.782l0.781,0l0,0.782Zm23.448,0l-0.781,0l0,-0.782l0.781,0l0,0.782Zm-46.896,0l-0.782,0l0,-0.782l0.782,0l0,0.782Zm62.529,0l-0.782,0l0,-0.782l0.782,0l0,0.782Zm7.816,0l-0.782,0l0,-0.782l0.782,0l0,0.782Zm-31.265,0l-0.781,0l0,-0.782l0.781,0l0,0.782Zm-117.241,0l-0.782,0l0,-0.782l0.782,0l0,0.782Zm132.874,0l-0.782,0l0,-0.782l0.782,0l0,0.782Zm-140.69,-7.816l-0.782,0l0,-0.782l0.782,0l0,0.782Zm-7.816,0l-0.782,0l0,-0.782l0.782,0l0,0.782Zm78.161,0l-0.782,0l0,-0.782l0.782,0l0,0.782Zm-62.529,0l-0.782,0l0,-0.782l0.782,0l0,0.782Zm148.506,0l-0.782,0l0,-0.782l0.782,0l0,0.782Zm-117.242,0l-0.781,0l0,-0.782l0.781,0l0,0.782Zm23.449,0l-0.782,0l0,-0.782l0.782,0l0,0.782Zm-7.816,0l-0.782,0l0,-0.782l0.782,0l0,0.782Zm-7.817,0l-0.781,0l0,-0.782l0.781,0l0,0.782Zm39.081,0l-0.782,0l0,-0.782l0.782,0l0,0.782Zm-54.713,0l-0.781,0l0,-0.782l0.781,0l0,0.782Zm-7.816,0l-0.781,0l0,-0.782l0.781,0l0,0.782Zm-7.816,0l-0.781,0l0,-0.782l0.781,0l0,0.782Zm62.529,0l-0.782,0l0,-0.782l0.782,0l0,0.782Zm15.632,0l-0.782,0l0,-0.782l0.782,0l0,0.782Zm7.816,0l-0.781,0l0,-0.782l0.781,0l0,0.782Zm7.816,0l-0.781,0l0,-0.782l0.781,0l0,0.782Zm7.816,0l-0.781,0l0,-0.782l0.781,0l0,0.782Zm15.632,0l-0.781,0l0,-0.782l0.781,0l0,0.782Zm7.817,0l-0.782,0l0,-0.782l0.782,0l0,0.782Zm-15.633,0l-0.781,0l0,-0.782l0.781,0l0,0.782Zm23.449,0l-0.782,0l0,-0.782l0.782,0l0,0.782Zm-93.793,-7.816l-0.782,0l0,-0.782l0.782,0l0,0.782Zm-7.817,0l-0.781,0l0,-0.782l0.781,0l0,0.782Zm-7.816,0l-0.781,0l0,-0.782l0.781,0l0,0.782Zm-23.448,0l-0.781,0l0,-0.782l0.781,0l0,0.782Zm-7.816,0l-0.782,0l0,-0.782l0.782,0l0,0.782Zm-7.816,0l-0.782,0l0,-0.782l0.782,0l0,0.782Zm-7.816,0l-0.782,0l0,-0.782l0.782,0l0,0.782Zm39.08,0l-0.781,0l0,-0.782l0.781,0l0,0.782Zm-7.816,0l-0.781,0l0,-0.782l0.781,0l0,0.782Zm109.425,0l-0.781,0l0,-0.782l0.781,0l0,0.782Zm-46.896,0l-0.782,0l0,-0.782l0.782,0l0,0.782Zm70.345,0l-0.782,0l0,-0.782l0.782,0l0,0.782Zm-7.816,0l-0.782,0l0,-0.782l0.782,0l0,0.782Zm-7.816,0l-0.782,0l0,-0.782l0.782,0l0,0.782Zm-15.633,0l-0.781,0l0,-0.782l0.781,0l0,0.782Zm-7.816,0l-0.781,0l0,-0.782l0.781,0l0,0.782Zm-7.816,0l-0.781,0l0,-0.782l0.781,0l0,0.782Zm-7.816,0l-0.781,0l0,-0.782l0.781,0l0,0.782Zm-7.816,0l-0.782,0l0,-0.782l0.782,0l0,0.782Zm-15.632,0l-0.782,0l0,-0.782l0.782,0l0,0.782Zm-7.816,0l-0.782,0l0,-0.782l0.782,0l0,0.782Zm-7.816,0l-0.782,0l0,-0.782l0.782,0l0,0.782Zm15.632,-7.816l-0.782,0l0,-0.782l0.782,0l0,0.782Zm7.816,0l-0.782,0l0,-0.782l0.782,0l0,0.782Zm7.816,0l-0.782,0l0,-0.782l0.782,0l0,0.782Zm7.816,0l-0.781,0l0,-0.782l0.781,0l0,0.782Zm7.816,0l-0.781,0l0,-0.782l0.781,0l0,0.782Zm7.816,0l-0.781,0l0,-0.782l0.781,0l0,0.782Zm7.816,0l-0.781,0l0,-0.782l0.781,0l0,0.782Zm7.816,0l-0.781,0l0,-0.782l0.781,0l0,0.782Zm7.817,0l-0.782,0l0,-0.782l0.782,0l0,0.782Zm15.632,0l-0.782,0l0,-0.782l0.782,0l0,0.782Zm-156.322,0l-0.782,0l0,-0.782l0.782,0l0,0.782Zm-7.816,0l-0.782,0l0,-0.782l0.782,0l0,0.782Zm156.322,0l-0.782,0l0,-0.782l0.782,0l0,0.782Zm-132.874,0l-0.781,0l0,-0.782l0.781,0l0,0.782Zm-7.816,0l-0.782,0l0,-0.782l0.782,0l0,0.782Zm15.632,0l-0.781,0l0,-0.782l0.781,0l0,0.782Zm7.816,0l-0.781,0l0,-0.782l0.781,0l0,0.782Zm7.816,0l-0.781,0l0,-0.782l0.781,0l0,0.782Zm7.816,0l-0.781,0l0,-0.782l0.781,0l0,0.782Zm7.817,0l-0.782,0l0,-0.782l0.782,0l0,0.782Zm7.816,0l-0.782,0l0,-0.782l0.782,0l0,0.782Zm7.816,0l-0.782,0l0,-0.782l0.782,0l0,0.782Zm31.264,-7.816l-0.781,0l0,-0.782l0.781,0l0,0.782Zm-7.816,0l-0.782,0l0,-0.782l0.782,0l0,0.782Zm-7.816,0l-0.782,0l0,-0.782l0.782,0l0,0.782Zm-7.816,0l-0.782,0l0,-0.782l0.782,0l0,0.782Zm-7.816,0l-0.782,0l0,-0.782l0.782,0l0,0.782Zm-7.816,0l-0.782,0l0,-0.782l0.782,0l0,0.782Zm-7.816,0l-0.782,0l0,-0.782l0.782,0l0,0.782Zm-15.633,0l-0.781,0l0,-0.782l0.781,0l0,0.782Zm-15.632,0l-0.781,0l0,-0.782l0.781,0l0,0.782Zm-7.816,0l-0.781,0l0,-0.782l0.781,0l0,0.782Zm-7.816,0l-0.782,0l0,-0.782l0.782,0l0,0.782Zm23.448,0l-0.781,0l0,-0.782l0.781,0l0,0.782Zm93.793,0l-0.781,0l0,-0.782l0.781,0l0,0.782Zm-125.057,0l-0.782,0l0,-0.782l0.782,0l0,0.782Zm-7.816,0l-0.782,0l0,-0.782l0.782,0l0,0.782Zm54.712,0l-0.781,0l0,-0.782l0.781,0l0,0.782Zm109.426,0l-0.782,0l0,-0.782l0.782,0l0,0.782Zm-7.816,0l-0.782,0l0,-0.782l0.782,0l0,0.782Zm-7.816,0l-0.782,0l0,-0.782l0.782,0l0,0.782Zm-7.817,0l-0.781,0l0,-0.782l0.781,0l0,0.782Zm-15.632,0l-0.781,0l0,-0.782l0.781,0l0,0.782Zm-7.816,0l-0.781,0l0,-0.782l0.781,0l0,0.782Zm-31.264,-7.817l-0.782,0l0,-0.781l0.782,0l0,0.781Zm46.896,0l-0.781,0l0,-0.781l0.781,0l0,0.781Zm15.633,0l-0.782,0l0,-0.781l0.782,0l0,0.781Zm7.816,0l-0.782,0l0,-0.781l0.782,0l0,0.781Zm-148.506,0l-0.782,0l0,-0.781l0.782,0l0,0.781Zm132.873,0l-0.781,0l0,-0.781l0.781,0l0,0.781Zm-125.057,0l-0.782,0l0,-0.781l0.782,0l0,0.781Zm15.632,0l-0.781,0l0,-0.781l0.781,0l0,0.781Zm7.816,0l-0.781,0l0,-0.781l0.781,0l0,0.781Zm7.816,0l-0.781,0l0,-0.781l0.781,0l0,0.781Zm7.816,0l-0.781,0l0,-0.781l0.781,0l0,0.781Zm-54.712,0l-0.782,0l0,-0.781l0.782,0l0,0.781Zm62.529,0l-0.782,0l0,-0.781l0.782,0l0,0.781Zm101.609,0l-0.782,0l0,-0.781l0.782,0l0,0.781Zm-85.977,0l-0.782,0l0,-0.781l0.782,0l0,0.781Zm-7.816,0l-0.782,0l0,-0.781l0.782,0l0,0.781Zm54.712,0l-0.781,0l0,-0.781l0.781,0l0,0.781Zm-7.816,0l-0.781,0l0,-0.781l0.781,0l0,0.781Zm-7.816,0l-0.781,0l0,-0.781l0.781,0l0,0.781Zm-7.816,0l-0.782,0l0,-0.781l0.782,0l0,0.781Zm-7.816,0l-0.782,0l0,-0.781l0.782,0l0,0.781Zm-70.345,0l-0.781,0l0,-0.781l0.781,0l0,0.781Zm78.161,-7.816l-0.782,0l0,-0.781l0.782,0l0,0.781Zm31.264,0l-0.781,0l0,-0.781l0.781,0l0,0.781Zm-39.08,0l-0.782,0l0,-0.781l0.782,0l0,0.781Zm-7.816,0l-0.782,0l0,-0.781l0.782,0l0,0.781Zm-7.816,0l-0.782,0l0,-0.781l0.782,0l0,0.781Zm-15.632,0l-0.782,0l0,-0.781l0.782,0l0,0.781Zm-7.817,0l-0.781,0l0,-0.781l0.781,0l0,0.781Zm-7.816,0l-0.781,0l0,-0.781l0.781,0l0,0.781Zm-7.816,0l-0.781,0l0,-0.781l0.781,0l0,0.781Zm-7.816,0l-0.781,0l0,-0.781l0.781,0l0,0.781Zm-7.816,0l-0.781,0l0,-0.781l0.781,0l0,0.781Zm-7.816,0l-0.782,0l0,-0.781l0.782,0l0,0.781Zm-7.816,0l-0.782,0l0,-0.781l0.782,0l0,0.781Zm-7.816,0l-0.782,0l0,-0.781l0.782,0l0,0.781Zm70.345,0l-0.782,0l0,-0.781l0.782,0l0,0.781Zm93.793,0l-0.782,0l0,-0.781l0.782,0l0,0.781Zm-7.816,0l-0.782,0l0,-0.781l0.782,0l0,0.781Zm-7.816,0l-0.782,0l0,-0.781l0.782,0l0,0.781Zm-7.817,0l-0.781,0l0,-0.781l0.781,0l0,0.781Zm-15.632,0l-0.781,0l0,-0.781l0.781,0l0,0.781Zm-7.816,0l-0.781,0l0,-0.781l0.781,0l0,0.781Zm-7.816,0l-0.781,0l0,-0.781l0.781,0l0,0.781Zm-23.448,-7.816l-0.782,0l0,-0.781l0.782,0l0,0.781Zm-7.816,0l-0.782,0l0,-0.781l0.782,0l0,0.781Zm-7.816,0l-0.782,0l0,-0.781l0.782,0l0,0.781Zm-7.816,0l-0.782,0l0,-0.781l0.782,0l0,0.781Zm-7.817,0l-0.781,0l0,-0.781l0.781,0l0,0.781Zm-7.816,0l-0.781,0l0,-0.781l0.781,0l0,0.781Zm-15.632,0l-0.781,0l0,-0.781l0.781,0l0,0.781Zm-7.816,0l-0.781,0l0,-0.781l0.781,0l0,0.781Zm-7.816,0l-0.782,0l0,-0.781l0.782,0l0,0.781Zm-7.816,0l-0.782,0l0,-0.781l0.782,0l0,0.781Zm93.793,0l-0.782,0l0,-0.781l0.782,0l0,0.781Zm7.816,0l-0.781,0l0,-0.781l0.781,0l0,0.781Zm7.816,0l-0.781,0l0,-0.781l0.781,0l0,0.781Zm7.816,0l-0.781,0l0,-0.781l0.781,0l0,0.781Zm15.632,0l-0.781,0l0,-0.781l0.781,0l0,0.781Zm-7.816,0l-0.781,0l0,-0.781l0.781,0l0,0.781Zm15.633,0l-0.782,0l0,-0.781l0.782,0l0,0.781Zm7.816,0l-0.782,0l0,-0.781l0.782,0l0,0.781Zm7.816,0l-0.782,0l0,-0.781l0.782,0l0,0.781Zm-164.138,0l-0.782,0l0,-0.781l0.782,0l0,0.781Zm39.08,0l-0.781,0l0,-0.781l0.781,0l0,0.781Zm54.713,0l-0.782,0l0,-0.781l0.782,0l0,0.781Zm-93.793,-7.816l-0.782,0l0,-0.781l0.782,0l0,0.781Zm7.816,0l-0.782,0l0,-0.781l0.782,0l0,0.781Zm7.816,0l-0.782,0l0,-0.781l0.782,0l0,0.781Zm7.816,0l-0.781,0l0,-0.781l0.781,0l0,0.781Zm7.816,0l-0.781,0l0,-0.781l0.781,0l0,0.781Zm15.632,0l-0.781,0l0,-0.781l0.781,0l0,0.781Zm-7.816,0l-0.781,0l0,-0.781l0.781,0l0,0.781Zm15.632,0l-0.781,0l0,-0.781l0.781,0l0,0.781Zm7.817,0l-0.782,0l0,-0.781l0.782,0l0,0.781Zm7.816,0l-0.782,0l0,-0.781l0.782,0l0,0.781Zm7.816,0l-0.782,0l0,-0.781l0.782,0l0,0.781Zm7.816,0l-0.782,0l0,-0.781l0.782,0l0,0.781Zm78.161,0l-0.782,0l0,-0.781l0.782,0l0,0.781Zm-7.816,0l-0.782,0l0,-0.781l0.782,0l0,0.781Zm-7.816,0l-0.782,0l0,-0.781l0.782,0l0,0.781Zm-7.817,0l-0.781,0l0,-0.781l0.781,0l0,0.781Zm-7.816,0l-0.781,0l0,-0.781l0.781,0l0,0.781Zm-7.816,0l-0.781,0l0,-0.781l0.781,0l0,0.781Zm-7.816,0l-0.781,0l0,-0.781l0.781,0l0,0.781Zm-7.816,0l-0.781,0l0,-0.781l0.781,0l0,0.781Zm-15.632,0l-0.782,0l0,-0.781l0.782,0l0,0.781Zm7.816,0l-0.782,0l0,-0.781l0.782,0l0,0.781Zm70.345,-8.598l5.471,0l0,0.782l-5.471,0l0,5.471l-0.782,0l0,-5.471l-5.471,0l0,-0.782l5.471,0l0,-5.471l0.782,0l0,5.471Zm-179.77,0l5.471,0l0,0.782l-5.471,0l0,5.471l-0.782,0l0,-5.471l-5.471,0l0,-0.782l5.471,0l0,-5.471l0.782,0l0,5.471Zm148.505,0l-0.781,0l0,-0.781l0.781,0l0,0.781Zm-62.528,0l-0.782,0l0,-0.781l0.782,0l0,0.781Zm85.977,0l-0.782,0l0,-0.781l0.782,0l0,0.781Zm-7.816,0l-0.782,0l0,-0.781l0.782,0l0,0.781Zm-7.816,0l-0.782,0l0,-0.781l0.782,0l0,0.781Zm-39.081,0l-0.781,0l0,-0.781l0.781,0l0,0.781Zm-39.08,0l-0.782,0l0,-0.781l0.782,0l0,0.781Zm62.528,0l-0.781,0l0,-0.781l0.781,0l0,0.781Zm-7.816,0l-0.781,0l0,-0.781l0.781,0l0,0.781Zm-7.816,0l-0.781,0l0,-0.781l0.781,0l0,0.781Zm-70.345,0l-0.781,0l0,-0.781l0.781,0l0,0.781Zm54.713,0l-0.782,0l0,-0.781l0.782,0l0,0.781Zm-46.897,0l-0.781,0l0,-0.781l0.781,0l0,0.781Zm-39.08,0l-0.782,0l0,-0.781l0.782,0l0,0.781Zm78.161,0l-0.782,0l0,-0.781l0.782,0l0,0.781Zm-7.816,0l-0.782,0l0,-0.781l0.782,0l0,0.781Zm-78.161,0l-0.782,0l0,-0.781l0.782,0l0,0.781Zm31.264,0l-0.781,0l0,-0.781l0.781,0l0,0.781Zm-15.632,0l-0.781,0l0,-0.781l0.781,0l0,0.781Zm39.081,0l-0.782,0l0,-0.781l0.782,0l0,0.781Zm-31.265,0l-0.781,0l0,-0.781l0.781,0l0,0.781Zm-31.264,0l-0.782,0l0,-0.781l0.782,0l0,0.781Zm15.632,-7.816l-0.782,0l0,-0.781l0.782,0l0,0.781Zm-7.816,0l-0.782,0l0,-0.781l0.782,0l0,0.781Zm109.425,0l-0.781,0l0,-0.781l0.781,0l0,0.781Zm-7.816,0l-0.781,0l0,-0.781l0.781,0l0,0.781Zm-109.425,0l-0.782,0l0,-0.781l0.782,0l0,0.781Zm132.873,0l-0.781,0l0,-0.781l0.781,0l0,0.781Zm-93.793,0l-0.781,0l0,-0.781l0.781,0l0,0.781Zm-7.816,0l-0.781,0l0,-0.781l0.781,0l0,0.781Zm-7.816,0l-0.781,0l0,-0.781l0.781,0l0,0.781Zm46.897,0l-0.782,0l0,-0.781l0.782,0l0,0.781Zm-23.449,0l-0.781,0l0,-0.781l0.781,0l0,0.781Zm54.713,0l-0.782,0l0,-0.781l0.782,0l0,0.781Zm-7.816,0l-0.782,0l0,-0.781l0.782,0l0,0.781Zm70.345,0l-0.782,0l0,-0.781l0.782,0l0,0.781Zm-7.816,0l-0.782,0l0,-0.781l0.782,0l0,0.781Zm-7.816,0l-0.782,0l0,-0.781l0.782,0l0,0.781Zm-85.977,0l-0.782,0l0,-0.781l0.782,0l0,0.781Zm-7.817,0l-0.781,0l0,-0.781l0.781,0l0,0.781Zm70.345,0l-0.781,0l0,-0.781l0.781,0l0,0.781Zm-39.08,0l-0.782,0l0,-0.781l0.782,0l0,0.781Zm-7.816,0l-0.782,0l0,-0.781l0.782,0l0,0.781Zm62.528,0l-0.781,0l0,-0.781l0.781,0l0,0.781Zm-39.08,-7.816l-0.782,0l0,-0.781l0.782,0l0,0.781Zm7.816,0l-0.781,0l0,-0.781l0.781,0l0,0.781Zm7.816,0l-0.781,0l0,-0.781l0.781,0l0,0.781Zm23.448,0l-0.781,0l0,-0.781l0.781,0l0,0.781Zm7.817,0l-0.782,0l0,-0.781l0.782,0l0,0.781Zm-15.633,0l-0.781,0l0,-0.781l0.781,0l0,0.781Zm23.449,0l-0.782,0l0,-0.781l0.782,0l0,0.781Zm7.816,0l-0.782,0l0,-0.781l0.782,0l0,0.781Zm-117.242,0l-0.781,0l0,-0.781l0.781,0l0,0.781Zm-39.08,0l-0.782,0l0,-0.781l0.782,0l0,0.781Zm54.713,0l-0.782,0l0,-0.781l0.782,0l0,0.781Zm-62.529,0l-0.782,0l0,-0.781l0.782,0l0,0.781Zm125.057,0l-0.781,0l0,-0.781l0.781,0l0,0.781Zm-109.425,0l-0.782,0l0,-0.781l0.782,0l0,0.781Zm7.816,0l-0.781,0l0,-0.781l0.781,0l0,0.781Zm7.816,0l-0.781,0l0,-0.781l0.781,0l0,0.781Zm7.816,0l-0.781,0l0,-0.781l0.781,0l0,0.781Zm54.713,0l-0.782,0l0,-0.781l0.782,0l0,0.781Zm-39.081,0l-0.781,0l0,-0.781l0.781,0l0,0.781Zm31.265,0l-0.782,0l0,-0.781l0.782,0l0,0.781Zm-15.632,0l-0.782,0l0,-0.781l0.782,0l0,0.781Zm7.816,0l-0.782,0l0,-0.781l0.782,0l0,0.781Zm-54.713,-7.816l-0.781,0l0,-0.781l0.781,0l0,0.781Zm7.816,0l-0.781,0l0,-0.781l0.781,0l0,0.781Zm54.713,0l-0.782,0l0,-0.781l0.782,0l0,0.781Zm-85.977,0l-0.782,0l0,-0.781l0.782,0l0,0.781Zm156.322,0l-0.782,0l0,-0.781l0.782,0l0,0.781Zm-140.69,0l-0.782,0l0,-0.781l0.782,0l0,0.781Zm23.448,0l-0.781,0l0,-0.781l0.781,0l0,0.781Zm101.609,0l-0.781,0l0,-0.781l0.781,0l0,0.781Zm-62.528,0l-0.782,0l0,-0.781l0.782,0l0,0.781Zm85.977,0l-0.782,0l0,-0.781l0.782,0l0,0.781Zm-31.265,0l-0.781,0l0,-0.781l0.781,0l0,0.781Zm15.633,0l-0.782,0l0,-0.781l0.782,0l0,0.781Zm-54.713,0l-0.782,0l0,-0.781l0.782,0l0,0.781Zm31.264,0l-0.781,0l0,-0.781l0.781,0l0,0.781Zm-7.816,0l-0.781,0l0,-0.781l0.781,0l0,0.781Zm-7.816,0l-0.781,0l0,-0.781l0.781,0l0,0.781Zm-101.609,0l-0.782,0l0,-0.781l0.782,0l0,0.781Zm93.793,0l-0.782,0l0,-0.781l0.782,0l0,0.781Zm-31.264,0l-0.782,0l0,-0.781l0.782,0l0,0.781Zm-7.816,0l-0.782,0l0,-0.781l0.782,0l0,0.781Zm-7.817,0l-0.781,0l0,-0.781l0.781,0l0,0.781Zm-7.816,0l-0.781,0l0,-0.781l0.781,0l0,0.781Zm0,-7.816l-0.781,0l0,-0.782l0.781,0l0,0.782Zm109.426,0l-0.782,0l0,-0.782l0.782,0l0,0.782Zm-7.816,0l-0.782,0l0,-0.782l0.782,0l0,0.782Zm-7.817,0l-0.781,0l0,-0.782l0.781,0l0,0.782Zm-15.632,0l-0.781,0l0,-0.782l0.781,0l0,0.782Zm-7.816,0l-0.781,0l0,-0.782l0.781,0l0,0.782Zm-7.816,0l-0.781,0l0,-0.782l0.781,0l0,0.782Zm-7.816,0l-0.782,0l0,-0.782l0.782,0l0,0.782Zm-7.816,0l-0.782,0l0,-0.782l0.782,0l0,0.782Zm-7.816,0l-0.782,0l0,-0.782l0.782,0l0,0.782Zm-85.977,0l-0.782,0l0,-0.782l0.782,0l0,0.782Zm78.161,0l-0.782,0l0,-0.782l0.782,0l0,0.782Zm85.977,0l-0.782,0l0,-0.782l0.782,0l0,0.782Zm-93.793,0l-0.782,0l0,-0.782l0.782,0l0,0.782Zm-7.816,0l-0.782,0l0,-0.782l0.782,0l0,0.782Zm-7.817,0l-0.781,0l0,-0.782l0.781,0l0,0.782Zm78.161,0l-0.781,0l0,-0.782l0.781,0l0,0.782Zm-93.793,0l-0.781,0l0,-0.782l0.781,0l0,0.782Zm-7.816,0l-0.781,0l0,-0.782l0.781,0l0,0.782Zm-7.816,0l-0.781,0l0,-0.782l0.781,0l0,0.782Zm-7.816,0l-0.782,0l0,-0.782l0.782,0l0,0.782Zm-7.816,0l-0.782,0l0,-0.782l0.782,0l0,0.782Zm15.632,-7.816l-0.781,0l0,-0.782l0.781,0l0,0.782Zm109.425,0l-0.781,0l0,-0.782l0.781,0l0,0.782Zm-101.609,0l-0.781,0l0,-0.782l0.781,0l0,0.782Zm-31.264,0l-0.782,0l0,-0.782l0.782,0l0,0.782Zm7.816,0l-0.782,0l0,-0.782l0.782,0l0,0.782Zm132.873,0l-0.781,0l0,-0.782l0.781,0l0,0.782Zm-78.16,0l-0.782,0l0,-0.782l0.782,0l0,0.782Zm101.609,0l-0.782,0l0,-0.782l0.782,0l0,0.782Zm-7.816,0l-0.782,0l0,-0.782l0.782,0l0,0.782Zm-7.816,0l-0.782,0l0,-0.782l0.782,0l0,0.782Zm-132.874,0l-0.782,0l0,-0.782l0.782,0l0,0.782Zm109.425,0l-0.781,0l0,-0.782l0.781,0l0,0.782Zm-7.816,0l-0.781,0l0,-0.782l0.781,0l0,0.782Zm-7.816,0l-0.781,0l0,-0.782l0.781,0l0,0.782Zm-7.816,0l-0.782,0l0,-0.782l0.782,0l0,0.782Zm-46.897,0l-0.781,0l0,-0.782l0.781,0l0,0.782Zm39.081,0l-0.782,0l0,-0.782l0.782,0l0,0.782Zm-7.816,0l-0.782,0l0,-0.782l0.782,0l0,0.782Zm-7.816,0l-0.782,0l0,-0.782l0.782,0l0,0.782Zm-7.816,0l-0.782,0l0,-0.782l0.782,0l0,0.782Zm-23.449,0l-0.781,0l0,-0.782l0.781,0l0,0.782Zm-7.816,0l-0.781,0l0,-0.782l0.781,0l0,0.782Zm78.161,-7.816l-0.781,0l0,-0.782l0.781,0l0,0.782Zm7.816,0l-0.781,0l0,-0.782l0.781,0l0,0.782Zm15.632,0l-0.781,0l0,-0.782l0.781,0l0,0.782Zm-78.16,0l-0.782,0l0,-0.782l0.782,0l0,0.782Zm-46.897,0l-0.782,0l0,-0.782l0.782,0l0,0.782Zm7.816,0l-0.781,0l0,-0.782l0.781,0l0,0.782Zm-15.632,0l-0.782,0l0,-0.782l0.782,0l0,0.782Zm148.506,0l-0.782,0l0,-0.782l0.782,0l0,0.782Zm-85.977,0l-0.782,0l0,-0.782l0.782,0l0,0.782Zm7.816,0l-0.782,0l0,-0.782l0.782,0l0,0.782Zm-78.161,0l-0.782,0l0,-0.782l0.782,0l0,0.782Zm85.977,0l-0.782,0l0,-0.782l0.782,0l0,0.782Zm7.816,0l-0.782,0l0,-0.782l0.782,0l0,0.782Zm15.632,0l-0.781,0l0,-0.782l0.781,0l0,0.782Zm-7.816,0l-0.782,0l0,-0.782l0.782,0l0,0.782Zm62.529,0l-0.782,0l0,-0.782l0.782,0l0,0.782Zm-31.265,0l-0.781,0l0,-0.782l0.781,0l0,0.782Zm15.633,0l-0.782,0l0,-0.782l0.782,0l0,0.782Zm-93.794,0l-0.781,0l0,-0.782l0.781,0l0,0.782Zm-23.448,0l-0.781,0l0,-0.782l0.781,0l0,0.782Zm7.816,0l-0.781,0l0,-0.782l0.781,0l0,0.782Zm7.816,0l-0.781,0l0,-0.782l0.781,0l0,0.782Zm-46.896,-7.816l-0.782,0l0,-0.782l0.782,0l0,0.782Zm70.345,0l-0.782,0l0,-0.782l0.782,0l0,0.782Zm93.793,0l-0.782,0l0,-0.782l0.782,0l0,0.782Zm-7.816,0l-0.782,0l0,-0.782l0.782,0l0,0.782Zm-7.816,0l-0.782,0l0,-0.782l0.782,0l0,0.782Zm-15.633,0l-0.781,0l0,-0.782l0.781,0l0,0.782Zm-7.816,0l-0.781,0l0,-0.782l0.781,0l0,0.782Zm-7.816,0l-0.781,0l0,-0.782l0.781,0l0,0.782Zm-7.816,0l-0.781,0l0,-0.782l0.781,0l0,0.782Zm-7.816,0l-0.782,0l0,-0.782l0.782,0l0,0.782Zm-7.816,0l-0.782,0l0,-0.782l0.782,0l0,0.782Zm-62.529,0l-0.781,0l0,-0.782l0.781,0l0,0.782Zm31.265,0l-0.782,0l0,-0.782l0.782,0l0,0.782Zm15.632,0l-0.782,0l0,-0.782l0.782,0l0,0.782Zm-62.529,0l-0.782,0l0,-0.782l0.782,0l0,0.782Zm125.057,0l-0.781,0l0,-0.782l0.781,0l0,0.782Zm-85.977,0l-0.781,0l0,-0.782l0.781,0l0,0.782Zm-7.816,0l-0.781,0l0,-0.782l0.781,0l0,0.782Zm-7.816,0l-0.781,0l0,-0.782l0.781,0l0,0.782Zm-15.632,0l-0.781,0l0,-0.782l0.781,0l0,0.782Zm-15.632,0l-0.782,0l0,-0.782l0.782,0l0,0.782Zm78.161,0l-0.782,0l0,-0.782l0.782,0l0,0.782Zm31.264,-7.816l-0.781,0l0,-0.782l0.781,0l0,0.782Zm-85.977,0l-0.781,0l0,-0.782l0.781,0l0,0.782Zm-23.448,0l-0.782,0l0,-0.782l0.782,0l0,0.782Zm15.632,0l-0.781,0l0,-0.782l0.781,0l0,0.782Zm-7.816,0l-0.782,0l0,-0.782l0.782,0l0,0.782Zm23.448,0l-0.781,0l0,-0.782l0.781,0l0,0.782Zm125.058,0l-0.782,0l0,-0.782l0.782,0l0,0.782Zm-7.816,0l-0.782,0l0,-0.782l0.782,0l0,0.782Zm-7.816,0l-0.782,0l0,-0.782l0.782,0l0,0.782Zm-62.529,0l-0.782,0l0,-0.782l0.782,0l0,0.782Zm7.816,0l-0.782,0l0,-0.782l0.782,0l0,0.782Zm39.08,0l-0.781,0l0,-0.782l0.781,0l0,0.782Zm7.816,0l-0.781,0l0,-0.782l0.781,0l0,0.782Zm-140.689,0l-0.782,0l0,-0.782l0.782,0l0,0.782Zm78.161,0l-0.782,0l0,-0.782l0.782,0l0,0.782Zm-7.816,0l-0.782,0l0,-0.782l0.782,0l0,0.782Zm-7.816,0l-0.782,0l0,-0.782l0.782,0l0,0.782Zm-7.817,0l-0.781,0l0,-0.782l0.781,0l0,0.782Zm-7.816,0l-0.781,0l0,-0.782l0.781,0l0,0.782Zm54.713,0l-0.782,0l0,-0.782l0.782,0l0,0.782Zm7.816,0l-0.781,0l0,-0.782l0.781,0l0,0.782Zm15.632,0l-0.781,0l0,-0.782l0.781,0l0,0.782Zm-93.793,-7.816l-0.781,0l0,-0.782l0.781,0l0,0.782Zm-7.816,0l-0.781,0l0,-0.782l0.781,0l0,0.782Zm-15.632,0l-0.782,0l0,-0.782l0.782,0l0,0.782Zm-7.816,0l-0.782,0l0,-0.782l0.782,0l0,0.782Zm39.08,0l-0.781,0l0,-0.782l0.781,0l0,0.782Zm62.529,0l-0.782,0l0,-0.782l0.782,0l0,0.782Zm-85.977,0l-0.782,0l0,-0.782l0.782,0l0,0.782Zm109.425,0l-0.781,0l0,-0.782l0.781,0l0,0.782Zm-31.264,0l-0.782,0l0,-0.782l0.782,0l0,0.782Zm-15.632,0l-0.782,0l0,-0.782l0.782,0l0,0.782Zm-7.816,0l-0.782,0l0,-0.782l0.782,0l0,0.782Zm-7.816,0l-0.782,0l0,-0.782l0.782,0l0,0.782Zm-7.817,0l-0.781,0l0,-0.782l0.781,0l0,0.782Zm-7.816,0l-0.781,0l0,-0.782l0.781,0l0,0.782Zm62.529,0l-0.781,0l0,-0.782l0.781,0l0,0.782Zm7.816,0l-0.781,0l0,-0.782l0.781,0l0,0.782Zm15.632,0l-0.781,0l0,-0.782l0.781,0l0,0.782Zm7.816,0l-0.781,0l0,-0.782l0.781,0l0,0.782Zm7.817,0l-0.782,0l0,-0.782l0.782,0l0,0.782Zm7.816,0l-0.782,0l0,-0.782l0.782,0l0,0.782Zm7.816,0l-0.782,0l0,-0.782l0.782,0l0,0.782Zm-78.161,0l-0.782,0l0,-0.782l0.782,0l0,0.782Zm85.977,-2.345l-0.782,0l0,-5.471l-5.471,0l0,-0.782l5.471,0l0,-5.471l0.782,0l0,5.471l5.471,0l0,0.782l-5.471,0l0,5.471Zm-179.77,0l-0.782,0l0,-5.471l-5.471,0l0,-0.782l5.471,0l0,-5.471l0.782,0l0,5.471l5.471,0l0,0.782l-5.471,0l0,5.471Zm7.816,-6.253l-0.782,0l0,-0.782l0.782,0l0,0.782Zm31.264,0l-0.781,0l0,-0.782l0.781,0l0,0.782Zm-15.632,0l-0.782,0l0,-0.782l0.782,0l0,0.782Zm148.506,0l-0.782,0l0,-0.782l0.782,0l0,0.782Zm-7.816,0l-0.782,0l0,-0.782l0.782,0l0,0.782Zm-7.816,0l-0.782,0l0,-0.782l0.782,0l0,0.782Zm-7.817,0l-0.781,0l0,-0.782l0.781,0l0,0.782Zm-54.712,0l-0.782,0l0,-0.782l0.782,0l0,0.782Zm46.896,0l-0.781,0l0,-0.782l0.781,0l0,0.782Zm-7.816,0l-0.781,0l0,-0.782l0.781,0l0,0.782Zm-7.816,0l-0.781,0l0,-0.782l0.781,0l0,0.782Zm-7.816,0l-0.781,0l0,-0.782l0.781,0l0,0.782Zm-7.816,0l-0.782,0l0,-0.782l0.782,0l0,0.782Zm-93.793,0l-0.782,0l0,-0.782l0.782,0l0,0.782Zm85.977,0l-0.782,0l0,-0.782l0.782,0l0,0.782Zm-70.345,0l-0.781,0l0,-0.782l0.781,0l0,0.782Zm54.713,0l-0.782,0l0,-0.782l0.782,0l0,0.782Zm-7.816,0l-0.782,0l0,-0.782l0.782,0l0,0.782Zm-7.816,0l-0.782,0l0,-0.782l0.782,0l0,0.782Zm-15.633,0l-0.781,0l0,-0.782l0.781,0l0,0.782Zm-7.816,0l-0.781,0l0,-0.782l0.781,0l0,0.782Zm15.632,0l-0.781,0l0,-0.782l0.781,0l0,0.782Zm78.161,-7.816l-0.781,0l0,-0.782l0.781,0l0,0.782Zm31.265,0l-0.782,0l0,-0.782l0.782,0l0,0.782Zm-7.816,0l-0.782,0l0,-0.782l0.782,0l0,0.782Zm-7.816,0l-0.782,0l0,-0.782l0.782,0l0,0.782Zm-7.817,0l-0.781,0l0,-0.782l0.781,0l0,0.782Zm-15.632,0l-0.781,0l0,-0.782l0.781,0l0,0.782Zm-7.816,0l-0.781,0l0,-0.782l0.781,0l0,0.782Zm-7.816,0l-0.781,0l0,-0.782l0.781,0l0,0.782Zm-7.816,0l-0.782,0l0,-0.782l0.782,0l0,0.782Zm-7.816,0l-0.782,0l0,-0.782l0.782,0l0,0.782Zm-7.816,0l-0.782,0l0,-0.782l0.782,0l0,0.782Zm-7.816,0l-0.782,0l0,-0.782l0.782,0l0,0.782Zm-78.161,0l-0.782,0l0,-0.782l0.782,0l0,0.782Zm70.345,0l-0.782,0l0,-0.782l0.782,0l0,0.782Zm-7.816,0l-0.782,0l0,-0.782l0.782,0l0,0.782Zm-54.713,0l-0.782,0l0,-0.782l0.782,0l0,0.782Zm46.896,0l-0.781,0l0,-0.782l0.781,0l0,0.782Zm-7.816,0l-0.781,0l0,-0.782l0.781,0l0,0.782Zm-7.816,0l-0.781,0l0,-0.782l0.781,0l0,0.782Zm-7.816,0l-0.781,0l0,-0.782l0.781,0l0,0.782Zm-7.816,0l-0.781,0l0,-0.782l0.781,0l0,0.782Zm-7.816,0l-0.782,0l0,-0.782l0.782,0l0,0.782Zm-7.816,-7.816l-0.782,0l0,-0.782l0.782,0l0,0.782Zm7.816,0l-0.782,0l0,-0.782l0.782,0l0,0.782Zm7.816,0l-0.781,0l0,-0.782l0.781,0l0,0.782Zm7.816,0l-0.781,0l0,-0.782l0.781,0l0,0.782Zm7.816,0l-0.781,0l0,-0.782l0.781,0l0,0.782Zm54.713,0l-0.782,0l0,-0.782l0.782,0l0,0.782Zm-39.081,0l-0.781,0l0,-0.782l0.781,0l0,0.782Zm7.817,0l-0.782,0l0,-0.782l0.782,0l0,0.782Zm7.816,0l-0.782,0l0,-0.782l0.782,0l0,0.782Zm7.816,0l-0.782,0l0,-0.782l0.782,0l0,0.782Zm7.816,0l-0.782,0l0,-0.782l0.782,0l0,0.782Zm15.632,0l-0.782,0l0,-0.782l0.782,0l0,0.782Zm7.816,0l-0.781,0l0,-0.782l0.781,0l0,0.782Zm7.816,0l-0.781,0l0,-0.782l0.781,0l0,0.782Zm7.816,0l-0.781,0l0,-0.782l0.781,0l0,0.782Zm15.632,0l-0.781,0l0,-0.782l0.781,0l0,0.782Zm7.817,0l-0.782,0l0,-0.782l0.782,0l0,0.782Zm-15.633,0l-0.781,0l0,-0.782l0.781,0l0,0.782Zm23.449,0l-0.782,0l0,-0.782l0.782,0l0,0.782Zm7.816,0l-0.782,0l0,-0.782l0.782,0l0,0.782Zm-117.242,0l-0.781,0l0,-0.782l0.781,0l0,0.782Zm-46.896,0l-0.782,0l0,-0.782l0.782,0l0,0.782Zm93.793,-7.816l-0.782,0l0,-0.782l0.782,0l0,0.782Zm-93.793,0l-0.782,0l0,-0.782l0.782,0l0,0.782Zm164.138,0l-0.782,0l0,-0.782l0.782,0l0,0.782Zm-7.816,0l-0.782,0l0,-0.782l0.782,0l0,0.782Zm-7.816,0l-0.782,0l0,-0.782l0.782,0l0,0.782Zm-15.633,0l-0.781,0l0,-0.782l0.781,0l0,0.782Zm-7.816,0l-0.781,0l0,-0.782l0.781,0l0,0.782Zm-7.816,0l-0.781,0l0,-0.782l0.781,0l0,0.782Zm-7.816,0l-0.781,0l0,-0.782l0.781,0l0,0.782Zm-7.816,0l-0.782,0l0,-0.782l0.782,0l0,0.782Zm-15.632,0l-0.782,0l0,-0.782l0.782,0l0,0.782Zm-7.816,0l-0.782,0l0,-0.782l0.782,0l0,0.782Zm-7.816,0l-0.782,0l0,-0.782l0.782,0l0,0.782Zm-7.816,0l-0.782,0l0,-0.782l0.782,0l0,0.782Zm-7.817,0l-0.781,0l0,-0.782l0.781,0l0,0.782Zm-7.816,0l-0.781,0l0,-0.782l0.781,0l0,0.782Zm-23.448,0l-0.781,0l0,-0.782l0.781,0l0,0.782Zm-7.816,0l-0.782,0l0,-0.782l0.782,0l0,0.782Zm-7.816,0l-0.782,0l0,-0.782l0.782,0l0,0.782Zm31.264,0l-0.781,0l0,-0.782l0.781,0l0,0.782Zm-7.816,0l-0.781,0l0,-0.782l0.781,0l0,0.782Zm109.425,0l-0.781,0l0,-0.782l0.781,0l0,0.782Zm-117.241,-7.816l-0.781,0l0,-0.782l0.781,0l0,0.782Zm-7.816,0l-0.782,0l0,-0.782l0.782,0l0,0.782Zm-7.816,0l-0.782,0l0,-0.782l0.782,0l0,0.782Zm-7.816,0l-0.782,0l0,-0.782l0.782,0l0,0.782Zm164.138,0l-0.782,0l0,-0.782l0.782,0l0,0.782Zm-46.897,0l-0.781,0l0,-0.782l0.781,0l0,0.782Zm23.448,0l-0.781,0l0,-0.782l0.781,0l0,0.782Zm15.633,0l-0.782,0l0,-0.782l0.782,0l0,0.782Zm-31.265,0l-0.781,0l0,-0.782l0.781,0l0,0.782Zm23.449,0l-0.782,0l0,-0.782l0.782,0l0,0.782Zm-62.529,0l-0.782,0l0,-0.782l0.782,0l0,0.782Zm46.896,0l-0.781,0l0,-0.782l0.781,0l0,0.782Zm-23.448,0l-0.781,0l0,-0.782l0.781,0l0,0.782Zm-7.816,0l-0.782,0l0,-0.782l0.782,0l0,0.782Zm-7.816,0l-0.782,0l0,-0.782l0.782,0l0,0.782Zm-15.632,0l-0.782,0l0,-0.782l0.782,0l0,0.782Zm-7.816,0l-0.782,0l0,-0.782l0.782,0l0,0.782Zm-7.816,0l-0.782,0l0,-0.782l0.782,0l0,0.782Zm-7.817,0l-0.781,0l0,-0.782l0.781,0l0,0.782Zm-7.816,0l-0.781,0l0,-0.782l0.781,0l0,0.782Zm-7.816,0l-0.781,0l0,-0.782l0.781,0l0,0.782Zm-7.816,0l-0.781,0l0,-0.782l0.781,0l0,0.782Zm78.161,-7.817l-0.781,0l0,-0.781l0.781,0l0,0.781Zm-7.816,0l-0.782,0l0,-0.781l0.782,0l0,0.781Zm-7.816,0l-0.782,0l0,-0.781l0.782,0l0,0.781Zm-7.816,0l-0.782,0l0,-0.781l0.782,0l0,0.781Zm-15.632,0l-0.782,0l0,-0.781l0.782,0l0,0.781Zm-7.816,0l-0.782,0l0,-0.781l0.782,0l0,0.781Zm-15.633,0l-0.781,0l0,-0.781l0.781,0l0,0.781Zm-7.816,0l-0.781,0l0,-0.781l0.781,0l0,0.781Zm-7.816,0l-0.781,0l0,-0.781l0.781,0l0,0.781Zm-7.816,0l-0.781,0l0,-0.781l0.781,0l0,0.781Zm-7.816,0l-0.782,0l0,-0.781l0.782,0l0,0.781Zm62.529,0l-0.782,0l0,-0.781l0.782,0l0,0.781Zm54.712,0l-0.781,0l0,-0.781l0.781,0l0,0.781Zm-125.057,0l-0.782,0l0,-0.781l0.782,0l0,0.781Zm-7.816,0l-0.782,0l0,-0.781l0.782,0l0,0.781Zm54.712,0l-0.781,0l0,-0.781l0.781,0l0,0.781Zm109.426,0l-0.782,0l0,-0.781l0.782,0l0,0.781Zm-7.816,0l-0.782,0l0,-0.781l0.782,0l0,0.781Zm-7.816,0l-0.782,0l0,-0.781l0.782,0l0,0.781Zm-7.817,0l-0.781,0l0,-0.781l0.781,0l0,0.781Zm-15.632,0l-0.781,0l0,-0.781l0.781,0l0,0.781Zm-7.816,0l-0.781,0l0,-0.781l0.781,0l0,0.781Zm-39.08,-7.816l-0.782,0l0,-0.781l0.782,0l0,0.781Zm-70.345,0l-0.782,0l0,-0.781l0.782,0l0,0.781Zm15.632,0l-0.781,0l0,-0.781l0.781,0l0,0.781Zm15.632,0l-0.781,0l0,-0.781l0.781,0l0,0.781Zm7.816,0l-0.781,0l0,-0.781l0.781,0l0,0.781Zm85.977,0l-0.781,0l0,-0.781l0.781,0l0,0.781Zm-31.264,0l-0.782,0l0,-0.781l0.782,0l0,0.781Zm46.897,0l-0.782,0l0,-0.781l0.782,0l0,0.781Zm-117.242,0l-0.781,0l0,-0.781l0.781,0l0,0.781Zm-15.632,0l-0.782,0l0,-0.781l0.782,0l0,0.781Zm140.69,0l-0.782,0l0,-0.781l0.782,0l0,0.781Zm-15.633,0l-0.781,0l0,-0.781l0.781,0l0,0.781Zm-78.16,0l-0.782,0l0,-0.781l0.782,0l0,0.781Zm101.609,0l-0.782,0l0,-0.781l0.782,0l0,0.781Zm-93.793,0l-0.782,0l0,-0.781l0.782,0l0,0.781Zm54.712,0l-0.781,0l0,-0.781l0.781,0l0,0.781Zm-7.816,0l-0.781,0l0,-0.781l0.781,0l0,0.781Zm-7.816,0l-0.781,0l0,-0.781l0.781,0l0,0.781Zm-15.632,0l-0.782,0l0,-0.781l0.782,0l0,0.781Zm-7.816,0l-0.782,0l0,-0.781l0.782,0l0,0.781Zm-85.977,0l-0.782,0l0,-0.781l0.782,0l0,0.781Zm54.712,0l-0.781,0l0,-0.781l0.781,0l0,0.781Zm-7.816,-7.816l-0.781,0l0,-0.781l0.781,0l0,0.781Zm62.529,0l-0.781,0l0,-0.781l0.781,0l0,0.781Zm-46.896,0l-0.782,0l0,-0.781l0.782,0l0,0.781Zm15.632,0l-0.782,0l0,-0.781l0.782,0l0,0.781Zm7.816,0l-0.782,0l0,-0.781l0.782,0l0,0.781Zm7.816,0l-0.782,0l0,-0.781l0.782,0l0,0.781Zm-39.081,0l-0.781,0l0,-0.781l0.781,0l0,0.781Zm46.897,0l-0.782,0l0,-0.781l0.782,0l0,0.781Zm15.632,0l-0.781,0l0,-0.781l0.781,0l0,0.781Zm7.816,0l-0.781,0l0,-0.781l0.781,0l0,0.781Zm7.816,0l-0.781,0l0,-0.781l0.781,0l0,0.781Zm7.816,0l-0.781,0l0,-0.781l0.781,0l0,0.781Zm7.817,0l-0.782,0l0,-0.781l0.782,0l0,0.781Zm7.816,0l-0.782,0l0,-0.781l0.782,0l0,0.781Zm7.816,0l-0.782,0l0,-0.781l0.782,0l0,0.781Zm-93.793,0l-0.782,0l0,-0.781l0.782,0l0,0.781Zm-70.345,0l-0.782,0l0,-0.781l0.782,0l0,0.781Zm7.816,0l-0.782,0l0,-0.781l0.782,0l0,0.781Zm7.816,0l-0.782,0l0,-0.781l0.782,0l0,0.781Zm7.816,0l-0.781,0l0,-0.781l0.781,0l0,0.781Zm7.816,0l-0.781,0l0,-0.781l0.781,0l0,0.781Zm7.816,0l-0.781,0l0,-0.781l0.781,0l0,0.781Zm85.977,-7.816l-0.781,0l0,-0.781l0.781,0l0,0.781Zm-7.816,0l-0.781,0l0,-0.781l0.781,0l0,0.781Zm-7.816,0l-0.781,0l0,-0.781l0.781,0l0,0.781Zm-15.632,0l-0.782,0l0,-0.781l0.782,0l0,0.781Zm-7.816,0l-0.782,0l0,-0.781l0.782,0l0,0.781Zm-15.632,0l-0.782,0l0,-0.781l0.782,0l0,0.781Zm7.816,0l-0.782,0l0,-0.781l0.782,0l0,0.781Zm62.528,0l-0.781,0l0,-0.781l0.781,0l0,0.781Zm-7.816,0l-0.781,0l0,-0.781l0.781,0l0,0.781Zm-70.344,0l-0.782,0l0,-0.781l0.782,0l0,0.781Zm-7.817,0l-0.781,0l0,-0.781l0.781,0l0,0.781Zm-7.816,0l-0.781,0l0,-0.781l0.781,0l0,0.781Zm-15.632,0l-0.781,0l0,-0.781l0.781,0l0,0.781Zm-7.816,0l-0.781,0l0,-0.781l0.781,0l0,0.781Zm78.161,0l-0.782,0l0,-0.781l0.782,0l0,0.781Zm-85.977,0l-0.782,0l0,-0.781l0.782,0l0,0.781Zm-15.632,0l-0.782,0l0,-0.781l0.782,0l0,0.781Zm39.08,0l-0.781,0l0,-0.781l0.781,0l0,0.781Zm125.058,0l-0.782,0l0,-0.781l0.782,0l0,0.781Zm-156.322,0l-0.782,0l0,-0.781l0.782,0l0,0.781Zm148.506,0l-0.782,0l0,-0.781l0.782,0l0,0.781Zm-7.816,0l-0.782,0l0,-0.781l0.782,0l0,0.781Zm-109.426,-7.816l-0.781,0l0,-0.781l0.781,0l0,0.781Zm117.242,0l-0.782,0l0,-0.781l0.782,0l0,0.781Zm-93.793,0l-0.782,0l0,-0.781l0.782,0l0,0.781Zm7.816,0l-0.782,0l0,-0.781l0.782,0l0,0.781Zm7.816,0l-0.782,0l0,-0.781l0.782,0l0,0.781Zm7.816,0l-0.782,0l0,-0.781l0.782,0l0,0.781Zm78.161,0l-0.782,0l0,-0.781l0.782,0l0,0.781Zm-15.632,0l-0.782,0l0,-0.781l0.782,0l0,0.781Zm-7.817,0l-0.781,0l0,-0.781l0.781,0l0,0.781Zm-7.816,0l-0.781,0l0,-0.781l0.781,0l0,0.781Zm-7.816,0l-0.781,0l0,-0.781l0.781,0l0,0.781Zm-7.816,0l-0.781,0l0,-0.781l0.781,0l0,0.781Zm-7.816,0l-0.781,0l0,-0.781l0.781,0l0,0.781Zm-15.632,0l-0.782,0l0,-0.781l0.782,0l0,0.781Zm7.816,0l-0.782,0l0,-0.781l0.782,0l0,0.781Zm-101.609,0l-0.782,0l0,-0.781l0.782,0l0,0.781Zm7.816,0l-0.782,0l0,-0.781l0.782,0l0,0.781Zm7.816,0l-0.782,0l0,-0.781l0.782,0l0,0.781Zm7.816,0l-0.781,0l0,-0.781l0.781,0l0,0.781Zm7.816,0l-0.781,0l0,-0.781l0.781,0l0,0.781Zm15.632,0l-0.781,0l0,-0.781l0.781,0l0,0.781Zm7.816,0l-0.781,0l0,-0.781l0.781,0l0,0.781Zm-62.528,-8.598l5.471,0l0,0.782l-5.471,0l0,5.471l-0.782,0l0,-5.471l-5.471,0l0,-0.782l5.471,0l0,-5.471l0.782,0l0,5.471Zm179.77,0l5.471,0l0,0.782l-5.471,0l0,5.471l-0.782,0l0,-5.471l-5.471,0l0,-0.782l5.471,0l0,-5.471l0.782,0l0,5.471Zm-132.874,0l-0.781,0l0,-0.781l0.781,0l0,0.781Zm-7.816,0l-0.781,0l0,-0.781l0.781,0l0,0.781Zm-7.816,0l-0.781,0l0,-0.781l0.781,0l0,0.781Zm-7.816,0l-0.782,0l0,-0.781l0.782,0l0,0.781Zm148.506,0l-0.782,0l0,-0.781l0.782,0l0,0.781Zm-7.816,0l-0.782,0l0,-0.781l0.782,0l0,0.781Zm-7.816,0l-0.782,0l0,-0.781l0.782,0l0,0.781Zm-7.817,0l-0.781,0l0,-0.781l0.781,0l0,0.781Zm-140.689,0l-0.782,0l0,-0.781l0.782,0l0,0.781Zm132.873,0l-0.781,0l0,-0.781l0.781,0l0,0.781Zm-7.816,0l-0.781,0l0,-0.781l0.781,0l0,0.781Zm-7.816,0l-0.781,0l0,-0.781l0.781,0l0,0.781Zm-7.816,0l-0.781,0l0,-0.781l0.781,0l0,0.781Zm-7.816,0l-0.782,0l0,-0.781l0.782,0l0,0.781Zm-93.793,0l-0.782,0l0,-0.781l0.782,0l0,0.781Zm85.977,0l-0.782,0l0,-0.781l0.782,0l0,0.781Zm-7.816,0l-0.782,0l0,-0.781l0.782,0l0,0.781Zm-7.816,0l-0.782,0l0,-0.781l0.782,0l0,0.781Zm-7.816,0l-0.782,0l0,-0.781l0.782,0l0,0.781Zm-7.816,0l-0.782,0l0,-0.781l0.782,0l0,0.781Zm-7.817,0l-0.781,0l0,-0.781l0.781,0l0,0.781Zm-7.816,0l-0.781,0l0,-0.781l0.781,0l0,0.781Zm101.61,-7.816l-0.782,0l0,-0.781l0.782,0l0,0.781Zm-148.506,0l-0.782,0l0,-0.781l0.782,0l0,0.781Zm23.448,0l-0.781,0l0,-0.781l0.781,0l0,0.781Zm23.448,0l-0.781,0l0,-0.781l0.781,0l0,0.781Zm109.426,0l-0.782,0l0,-0.781l0.782,0l0,0.781Zm-54.713,0l-0.782,0l0,-0.781l0.782,0l0,0.781Zm39.08,0l-0.781,0l0,-0.781l0.781,0l0,0.781Zm-15.632,0l-0.781,0l0,-0.781l0.781,0l0,0.781Zm-7.816,0l-0.781,0l0,-0.781l0.781,0l0,0.781Zm-7.816,0l-0.781,0l0,-0.781l0.781,0l0,0.781Zm-93.793,0l-0.782,0l0,-0.781l0.782,0l0,0.781Zm78.161,0l-0.782,0l0,-0.781l0.782,0l0,0.781Zm-7.816,0l-0.782,0l0,-0.781l0.782,0l0,0.781Zm-7.816,0l-0.782,0l0,-0.781l0.782,0l0,0.781Zm-15.632,0l-0.782,0l0,-0.781l0.782,0l0,0.781Zm-7.817,0l-0.781,0l0,-0.781l0.781,0l0,0.781Zm-15.632,0l-0.781,0l0,-0.781l0.781,0l0,0.781Zm-7.816,0l-0.781,0l0,-0.781l0.781,0l0,0.781Zm-23.448,0l-0.782,0l0,-0.781l0.782,0l0,0.781Zm156.322,0l-0.782,0l0,-0.781l0.782,0l0,0.781Zm-31.265,0l-0.781,0l0,-0.781l0.781,0l0,0.781Zm-62.528,0l-0.782,0l0,-0.781l0.782,0l0,0.781Zm-7.816,-7.816l-0.782,0l0,-0.781l0.782,0l0,0.781Zm-7.817,0l-0.781,0l0,-0.781l0.781,0l0,0.781Zm39.081,0l-0.782,0l0,-0.781l0.782,0l0,0.781Zm-23.448,0l-0.782,0l0,-0.781l0.782,0l0,0.781Zm15.632,0l-0.782,0l0,-0.781l0.782,0l0,0.781Zm-7.816,0l-0.782,0l0,-0.781l0.782,0l0,0.781Zm62.528,0l-0.781,0l0,-0.781l0.781,0l0,0.781Zm15.633,0l-0.782,0l0,-0.781l0.782,0l0,0.781Zm-23.449,0l-0.781,0l0,-0.781l0.781,0l0,0.781Zm15.633,0l-0.782,0l0,-0.781l0.782,0l0,0.781Zm-109.426,0l-0.781,0l0,-0.781l0.781,0l0,0.781Zm-7.816,0l-0.781,0l0,-0.781l0.781,0l0,0.781Zm85.977,0l-0.781,0l0,-0.781l0.781,0l0,0.781Zm-7.816,0l-0.781,0l0,-0.781l0.781,0l0,0.781Zm-85.977,0l-0.781,0l0,-0.781l0.781,0l0,0.781Zm78.161,0l-0.782,0l0,-0.781l0.782,0l0,0.781Zm-85.977,0l-0.782,0l0,-0.781l0.782,0l0,0.781Zm-7.816,0l-0.782,0l0,-0.781l0.782,0l0,0.781Zm-7.816,0l-0.782,0l0,-0.781l0.782,0l0,0.781Zm46.896,0l-0.781,0l0,-0.781l0.781,0l0,0.781Zm117.242,0l-0.782,0l0,-0.781l0.782,0l0,0.781Zm-39.081,0l-0.781,0l0,-0.781l0.781,0l0,0.781Zm-85.977,-7.816l-0.781,0l0,-0.781l0.781,0l0,0.781Zm-7.816,0l-0.781,0l0,-0.781l0.781,0l0,0.781Zm109.425,0l-0.781,0l0,-0.781l0.781,0l0,0.781Zm-46.896,0l-0.782,0l0,-0.781l0.782,0l0,0.781Zm62.529,0l-0.782,0l0,-0.781l0.782,0l0,0.781Zm-7.816,0l-0.782,0l0,-0.781l0.782,0l0,0.781Zm-15.633,0l-0.781,0l0,-0.781l0.781,0l0,0.781Zm-7.816,0l-0.781,0l0,-0.781l0.781,0l0,0.781Zm-7.816,0l-0.781,0l0,-0.781l0.781,0l0,0.781Zm-7.816,0l-0.781,0l0,-0.781l0.781,0l0,0.781Zm-7.816,0l-0.782,0l0,-0.781l0.782,0l0,0.781Zm-15.632,0l-0.782,0l0,-0.781l0.782,0l0,0.781Zm-7.816,0l-0.782,0l0,-0.781l0.782,0l0,0.781Zm-7.816,0l-0.782,0l0,-0.781l0.782,0l0,0.781Zm-7.816,0l-0.782,0l0,-0.781l0.782,0l0,0.781Zm-15.633,0l-0.781,0l0,-0.781l0.781,0l0,0.781Zm-23.448,0l-0.781,0l0,-0.781l0.781,0l0,0.781Zm-7.816,0l-0.782,0l0,-0.781l0.782,0l0,0.781Zm-7.816,0l-0.782,0l0,-0.781l0.782,0l0,0.781Zm-7.816,0l-0.782,0l0,-0.781l0.782,0l0,0.781Zm164.138,0l-0.782,0l0,-0.781l0.782,0l0,0.781Zm-109.426,0l-0.781,0l0,-0.781l0.781,0l0,0.781Zm93.794,-7.816l-0.782,0l0,-0.782l0.782,0l0,0.782Zm-7.817,0l-0.781,0l0,-0.782l0.781,0l0,0.782Zm-7.816,0l-0.781,0l0,-0.782l0.781,0l0,0.782Zm23.449,0l-0.782,0l0,-0.782l0.782,0l0,0.782Zm7.816,0l-0.782,0l0,-0.782l0.782,0l0,0.782Zm-164.138,0l-0.782,0l0,-0.782l0.782,0l0,0.782Zm7.816,0l-0.782,0l0,-0.782l0.782,0l0,0.782Zm7.816,0l-0.782,0l0,-0.782l0.782,0l0,0.782Zm7.816,0l-0.781,0l0,-0.782l0.781,0l0,0.782Zm7.816,0l-0.781,0l0,-0.782l0.781,0l0,0.782Zm7.816,0l-0.781,0l0,-0.782l0.781,0l0,0.782Zm7.816,0l-0.781,0l0,-0.782l0.781,0l0,0.782Zm78.161,0l-0.781,0l0,-0.782l0.781,0l0,0.782Zm-31.264,0l-0.782,0l0,-0.782l0.782,0l0,0.782Zm-39.081,0l-0.781,0l0,-0.782l0.781,0l0,0.782Zm7.817,0l-0.782,0l0,-0.782l0.782,0l0,0.782Zm7.816,0l-0.782,0l0,-0.782l0.782,0l0,0.782Zm7.816,0l-0.782,0l0,-0.782l0.782,0l0,0.782Zm7.816,0l-0.782,0l0,-0.782l0.782,0l0,0.782Zm15.632,0l-0.782,0l0,-0.782l0.782,0l0,0.782Zm7.816,0l-0.781,0l0,-0.782l0.781,0l0,0.782Zm7.816,0l-0.781,0l0,-0.782l0.781,0l0,0.782Zm-109.425,-7.816l-0.782,0l0,-0.782l0.782,0l0,0.782Zm15.632,0l-0.781,0l0,-0.782l0.781,0l0,0.782Zm7.816,0l-0.781,0l0,-0.782l0.781,0l0,0.782Zm7.816,0l-0.781,0l0,-0.782l0.781,0l0,0.782Zm7.816,0l-0.781,0l0,-0.782l0.781,0l0,0.782Zm15.633,0l-0.782,0l0,-0.782l0.782,0l0,0.782Zm7.816,0l-0.782,0l0,-0.782l0.782,0l0,0.782Zm7.816,0l-0.782,0l0,-0.782l0.782,0l0,0.782Zm7.816,0l-0.782,0l0,-0.782l0.782,0l0,0.782Zm7.816,0l-0.782,0l0,-0.782l0.782,0l0,0.782Zm15.632,0l-0.781,0l0,-0.782l0.781,0l0,0.782Zm7.816,0l-0.781,0l0,-0.782l0.781,0l0,0.782Zm-15.632,0l-0.782,0l0,-0.782l0.782,0l0,0.782Zm23.448,0l-0.781,0l0,-0.782l0.781,0l0,0.782Zm15.632,0l-0.781,0l0,-0.782l0.781,0l0,0.782Zm7.817,0l-0.782,0l0,-0.782l0.782,0l0,0.782Zm7.816,0l-0.782,0l0,-0.782l0.782,0l0,0.782Zm7.816,0l-0.782,0l0,-0.782l0.782,0l0,0.782Zm-109.426,0l-0.781,0l0,-0.782l0.781,0l0,0.782Zm-54.712,0l-0.782,0l0,-0.782l0.782,0l0,0.782Zm132.873,0l-0.781,0l0,-0.782l0.781,0l0,0.782Zm-117.241,0l-0.782,0l0,-0.782l0.782,0l0,0.782Zm101.609,-7.816l-0.781,0l0,-0.782l0.781,0l0,0.782Zm-7.816,0l-0.781,0l0,-0.782l0.781,0l0,0.782Zm-7.816,0l-0.782,0l0,-0.782l0.782,0l0,0.782Zm-7.816,0l-0.782,0l0,-0.782l0.782,0l0,0.782Zm-7.816,0l-0.782,0l0,-0.782l0.782,0l0,0.782Zm-85.977,0l-0.782,0l0,-0.782l0.782,0l0,0.782Zm78.161,0l-0.782,0l0,-0.782l0.782,0l0,0.782Zm-70.345,0l-0.782,0l0,-0.782l0.782,0l0,0.782Zm15.632,0l-0.781,0l0,-0.782l0.781,0l0,0.782Zm-7.816,0l-0.782,0l0,-0.782l0.782,0l0,0.782Zm15.632,0l-0.781,0l0,-0.782l0.781,0l0,0.782Zm7.816,0l-0.781,0l0,-0.782l0.781,0l0,0.782Zm7.816,0l-0.781,0l0,-0.782l0.781,0l0,0.782Zm7.816,0l-0.781,0l0,-0.782l0.781,0l0,0.782Zm7.817,0l-0.782,0l0,-0.782l0.782,0l0,0.782Zm78.16,0l-0.781,0l0,-0.782l0.781,0l0,0.782Zm15.633,0l-0.782,0l0,-0.782l0.782,0l0,0.782Zm-85.977,0l-0.782,0l0,-0.782l0.782,0l0,0.782Zm93.793,0l-0.782,0l0,-0.782l0.782,0l0,0.782Zm-31.265,0l-0.781,0l0,-0.782l0.781,0l0,0.782Zm-7.816,0l-0.781,0l0,-0.782l0.781,0l0,0.782Zm23.449,0l-0.782,0l0,-0.782l0.782,0l0,0.782Zm0,-7.816l-0.782,0l0,-0.782l0.782,0l0,0.782Zm-117.242,0l-0.781,0l0,-0.782l0.781,0l0,0.782Zm-7.816,0l-0.781,0l0,-0.782l0.781,0l0,0.782Zm-15.632,0l-0.782,0l0,-0.782l0.782,0l0,0.782Zm-7.816,0l-0.782,0l0,-0.782l0.782,0l0,0.782Zm70.345,0l-0.782,0l0,-0.782l0.782,0l0,0.782Zm-7.816,0l-0.782,0l0,-0.782l0.782,0l0,0.782Zm15.632,0l-0.782,0l0,-0.782l0.782,0l0,0.782Zm7.816,0l-0.782,0l0,-0.782l0.782,0l0,0.782Zm-31.265,0l-0.781,0l0,-0.782l0.781,0l0,0.782Zm109.426,0l-0.782,0l0,-0.782l0.782,0l0,0.782Zm-70.345,0l-0.782,0l0,-0.782l0.782,0l0,0.782Zm-46.897,0l-0.781,0l0,-0.782l0.781,0l0,0.782Zm-7.816,0l-0.781,0l0,-0.782l0.781,0l0,0.782Zm62.529,0l-0.782,0l0,-0.782l0.782,0l0,0.782Zm15.632,0l-0.781,0l0,-0.782l0.781,0l0,0.782Zm-101.609,0l-0.782,0l0,-0.782l0.782,0l0,0.782Zm117.241,0l-0.781,0l0,-0.782l0.781,0l0,0.782Zm7.816,0l-0.781,0l0,-0.782l0.781,0l0,0.782Zm15.633,0l-0.782,0l0,-0.782l0.782,0l0,0.782Zm-46.897,0l-0.781,0l0,-0.782l0.781,0l0,0.782Zm15.632,0l-0.781,0l0,-0.782l0.781,0l0,0.782Zm-46.896,-7.816l-0.782,0l0,-0.782l0.782,0l0,0.782Zm-7.816,0l-0.782,0l0,-0.782l0.782,0l0,0.782Zm-7.816,0l-0.782,0l0,-0.782l0.782,0l0,0.782Zm-15.633,0l-0.781,0l0,-0.782l0.781,0l0,0.782Zm62.529,0l-0.781,0l0,-0.782l0.781,0l0,0.782Zm-54.713,0l-0.781,0l0,-0.782l0.781,0l0,0.782Zm-23.448,0l-0.781,0l0,-0.782l0.781,0l0,0.782Zm-15.632,0l-0.782,0l0,-0.782l0.782,0l0,0.782Zm-7.816,0l-0.782,0l0,-0.782l0.782,0l0,0.782Zm156.322,0l-0.782,0l0,-0.782l0.782,0l0,0.782Zm-140.69,0l-0.781,0l0,-0.782l0.781,0l0,0.782Zm-23.448,0l-0.782,0l0,-0.782l0.782,0l0,0.782Zm117.241,0l-0.781,0l0,-0.782l0.781,0l0,0.782Zm-78.161,0l-0.781,0l0,-0.782l0.781,0l0,0.782Zm117.242,0l-0.782,0l0,-0.782l0.782,0l0,0.782Zm-7.816,0l-0.782,0l0,-0.782l0.782,0l0,0.782Zm-15.633,0l-0.781,0l0,-0.782l0.781,0l0,0.782Zm7.816,0l-0.781,0l0,-0.782l0.781,0l0,0.782Zm-15.632,0l-0.781,0l0,-0.782l0.781,0l0,0.782Zm-23.448,0l-0.782,0l0,-0.782l0.782,0l0,0.782Zm-7.816,0l-0.782,0l0,-0.782l0.782,0l0,0.782Zm-7.816,0l-0.782,0l0,-0.782l0.782,0l0,0.782Zm23.448,-7.816l-0.781,0l0,-0.782l0.781,0l0,0.782Zm-54.713,0l-0.781,0l0,-0.782l0.781,0l0,0.782Zm23.449,0l-0.782,0l0,-0.782l0.782,0l0,0.782Zm7.816,0l-0.782,0l0,-0.782l0.782,0l0,0.782Zm78.161,0l-0.782,0l0,-0.782l0.782,0l0,0.782Zm-125.058,0l-0.781,0l0,-0.782l0.781,0l0,0.782Zm78.161,0l-0.781,0l0,-0.782l0.781,0l0,0.782Zm7.816,0l-0.781,0l0,-0.782l0.781,0l0,0.782Zm7.816,0l-0.781,0l0,-0.782l0.781,0l0,0.782Zm7.816,0l-0.781,0l0,-0.782l0.781,0l0,0.782Zm-93.793,0l-0.781,0l0,-0.782l0.781,0l0,0.782Zm-15.632,0l-0.781,0l0,-0.782l0.781,0l0,0.782Zm117.242,0l-0.782,0l0,-0.782l0.782,0l0,0.782Zm-132.874,0l-0.782,0l0,-0.782l0.782,0l0,0.782Zm-7.816,0l-0.782,0l0,-0.782l0.782,0l0,0.782Zm-7.816,0l-0.782,0l0,-0.782l0.782,0l0,0.782Zm93.793,0l-0.782,0l0,-0.782l0.782,0l0,0.782Zm7.816,0l-0.782,0l0,-0.782l0.782,0l0,0.782Zm54.713,0l-0.782,0l0,-0.782l0.782,0l0,0.782Zm-132.874,0l-0.781,0l0,-0.782l0.781,0l0,0.782Zm39.081,0l-0.782,0l0,-0.782l0.782,0l0,0.782Zm7.816,0l-0.782,0l0,-0.782l0.782,0l0,0.782Zm-78.161,-2.345l-0.782,0l0,-5.472l-5.471,0l0,-0.781l5.471,0l0,-5.471l0.782,0l0,5.471l5.471,0l0,0.781l-5.471,0l0,5.472Zm179.77,0l-0.782,0l0,-5.472l-5.471,0l0,-0.781l5.471,0l0,-5.471l0.782,0l0,5.471l5.471,0l0,0.781l-5.471,0l0,5.472Zm-171.954,-14.069l-0.782,0l0,-0.782l0.782,0l0,0.782Zm132.873,0l-0.781,0l0,-0.782l0.781,0l0,0.782Zm-7.816,0l-0.781,0l0,-0.782l0.781,0l0,0.782Zm-7.816,0l-0.781,0l0,-0.782l0.781,0l0,0.782Zm23.448,0l-0.781,0l0,-0.782l0.781,0l0,0.782Zm7.817,0l-0.782,0l0,-0.782l0.782,0l0,0.782Zm-39.081,0l-0.781,0l0,-0.782l0.781,0l0,0.782Zm46.897,0l-0.782,0l0,-0.782l0.782,0l0,0.782Zm-132.874,0l-0.781,0l0,-0.782l0.781,0l0,0.782Zm7.816,0l-0.781,0l0,-0.782l0.781,0l0,0.782Zm7.816,0l-0.781,0l0,-0.782l0.781,0l0,0.782Zm7.816,0l-0.781,0l0,-0.782l0.781,0l0,0.782Zm7.816,0l-0.781,0l0,-0.782l0.781,0l0,0.782Zm109.426,0l-0.782,0l0,-0.782l0.782,0l0,0.782Zm-93.793,0l-0.782,0l0,-0.782l0.782,0l0,0.782Zm7.816,0l-0.782,0l0,-0.782l0.782,0l0,0.782Zm7.816,0l-0.782,0l0,-0.782l0.782,0l0,0.782Zm7.816,0l-0.782,0l0,-0.782l0.782,0l0,0.782Zm-31.264,0l-0.782,0l0,-0.782l0.782,0l0,0.782Zm39.08,0l-0.782,0l0,-0.782l0.782,0l0,0.782Zm-85.977,0l-0.782,0l0,-0.782l0.782,0l0,0.782Zm-7.816,0l-0.782,0l0,-0.782l0.782,0l0,0.782Zm85.977,-7.816l-0.782,0l0,-0.782l0.782,0l0,0.782Zm-7.816,0l-0.782,0l0,-0.782l0.782,0l0,0.782Zm-70.345,0l-0.782,0l0,-0.782l0.782,0l0,0.782Zm7.816,0l-0.781,0l0,-0.782l0.781,0l0,0.782Zm7.816,0l-0.781,0l0,-0.782l0.781,0l0,0.782Zm39.081,0l-0.782,0l0,-0.782l0.782,0l0,0.782Zm-23.449,0l-0.781,0l0,-0.782l0.781,0l0,0.782Zm31.265,0l-0.782,0l0,-0.782l0.782,0l0,0.782Zm-23.449,0l-0.781,0l0,-0.782l0.781,0l0,0.782Zm7.817,0l-0.782,0l0,-0.782l0.782,0l0,0.782Zm70.344,0l-0.781,0l0,-0.782l0.781,0l0,0.782Zm-125.057,0l-0.782,0l0,-0.782l0.782,0l0,0.782Zm132.873,0l-0.781,0l0,-0.782l0.781,0l0,0.782Zm23.449,0l-0.782,0l0,-0.782l0.782,0l0,0.782Zm-7.816,0l-0.782,0l0,-0.782l0.782,0l0,0.782Zm-7.816,0l-0.782,0l0,-0.782l0.782,0l0,0.782Zm-23.449,0l-0.781,0l0,-0.782l0.781,0l0,0.782Zm-7.816,0l-0.781,0l0,-0.782l0.781,0l0,0.782Zm-7.816,0l-0.781,0l0,-0.782l0.781,0l0,0.782Zm-7.816,0l-0.782,0l0,-0.782l0.782,0l0,0.782Zm-62.529,0l-0.781,0l0,-0.782l0.781,0l0,0.782Zm-39.08,0l-0.782,0l0,-0.782l0.782,0l0,0.782Zm156.322,-7.816l-0.782,0l0,-0.782l0.782,0l0,0.782Zm7.816,0l-0.782,0l0,-0.782l0.782,0l0,0.782Zm-117.242,0l-0.781,0l0,-0.782l0.781,0l0,0.782Zm-46.896,0l-0.782,0l0,-0.782l0.782,0l0,0.782Zm23.448,0l-0.781,0l0,-0.782l0.781,0l0,0.782Zm7.816,0l-0.781,0l0,-0.782l0.781,0l0,0.782Zm7.816,0l-0.781,0l0,-0.782l0.781,0l0,0.782Zm-31.264,0l-0.782,0l0,-0.782l0.782,0l0,0.782Zm85.977,0l-0.782,0l0,-0.782l0.782,0l0,0.782Zm-39.081,0l-0.781,0l0,-0.782l0.781,0l0,0.782Zm15.633,0l-0.782,0l0,-0.782l0.782,0l0,0.782Zm7.816,0l-0.782,0l0,-0.782l0.782,0l0,0.782Zm7.816,0l-0.782,0l0,-0.782l0.782,0l0,0.782Zm31.264,0l-0.781,0l0,-0.782l0.781,0l0,0.782Zm-7.816,0l-0.781,0l0,-0.782l0.781,0l0,0.782Zm15.632,0l-0.781,0l0,-0.782l0.781,0l0,0.782Zm15.632,0l-0.781,0l0,-0.782l0.781,0l0,0.782Zm-78.16,0l-0.782,0l0,-0.782l0.782,0l0,0.782Zm70.344,0l-0.781,0l0,-0.782l0.781,0l0,0.782Zm-31.264,0l-0.782,0l0,-0.782l0.782,0l0,0.782Zm-85.977,0l-0.782,0l0,-0.782l0.782,0l0,0.782Zm132.874,0l-0.782,0l0,-0.782l0.782,0l0,0.782Zm-101.61,-7.816l-0.781,0l0,-0.782l0.781,0l0,0.782Zm7.816,0l-0.781,0l0,-0.782l0.781,0l0,0.782Zm-46.896,0l-0.782,0l0,-0.782l0.782,0l0,0.782Zm31.264,0l-0.781,0l0,-0.782l0.781,0l0,0.782Zm-7.816,0l-0.781,0l0,-0.782l0.781,0l0,0.782Zm109.425,0l-0.781,0l0,-0.782l0.781,0l0,0.782Zm-46.896,0l-0.782,0l0,-0.782l0.782,0l0,0.782Zm-93.793,0l-0.782,0l0,-0.782l0.782,0l0,0.782Zm132.873,0l-0.781,0l0,-0.782l0.781,0l0,0.782Zm31.265,0l-0.782,0l0,-0.782l0.782,0l0,0.782Zm-7.816,0l-0.782,0l0,-0.782l0.782,0l0,0.782Zm-7.816,0l-0.782,0l0,-0.782l0.782,0l0,0.782Zm-23.449,0l-0.781,0l0,-0.782l0.781,0l0,0.782Zm-7.816,0l-0.781,0l0,-0.782l0.781,0l0,0.782Zm-7.816,0l-0.781,0l0,-0.782l0.781,0l0,0.782Zm-7.816,0l-0.782,0l0,-0.782l0.782,0l0,0.782Zm-15.632,0l-0.782,0l0,-0.782l0.782,0l0,0.782Zm-7.816,0l-0.782,0l0,-0.782l0.782,0l0,0.782Zm-7.816,0l-0.782,0l0,-0.782l0.782,0l0,0.782Zm-7.816,0l-0.782,0l0,-0.782l0.782,0l0,0.782Zm-46.897,0l-0.782,0l0,-0.782l0.782,0l0,0.782Zm7.816,0l-0.781,0l0,-0.782l0.781,0l0,0.782Zm39.081,-7.817l-0.782,0l0,-0.781l0.782,0l0,0.781Zm-39.081,0l-0.781,0l0,-0.781l0.781,0l0,0.781Zm140.69,0l-0.782,0l0,-0.781l0.782,0l0,0.781Zm-125.058,0l-0.781,0l0,-0.781l0.781,0l0,0.781Zm7.816,0l-0.781,0l0,-0.781l0.781,0l0,0.781Zm7.816,0l-0.781,0l0,-0.781l0.781,0l0,0.781Zm46.897,0l-0.782,0l0,-0.781l0.782,0l0,0.781Zm54.713,0l-0.782,0l0,-0.781l0.782,0l0,0.781Zm-7.816,0l-0.782,0l0,-0.781l0.782,0l0,0.781Zm-117.242,0l-0.781,0l0,-0.781l0.781,0l0,0.781Zm101.609,0l-0.781,0l0,-0.781l0.781,0l0,0.781Zm-7.816,0l-0.781,0l0,-0.781l0.781,0l0,0.781Zm-7.816,0l-0.781,0l0,-0.781l0.781,0l0,0.781Zm23.448,0l-0.781,0l0,-0.781l0.781,0l0,0.781Zm-31.264,0l-0.781,0l0,-0.781l0.781,0l0,0.781Zm-15.632,0l-0.782,0l0,-0.781l0.782,0l0,0.781Zm-7.816,0l-0.782,0l0,-0.781l0.782,0l0,0.781Zm-7.816,0l-0.782,0l0,-0.781l0.782,0l0,0.781Zm-7.816,0l-0.782,0l0,-0.781l0.782,0l0,0.781Zm-70.345,0l-0.782,0l0,-0.781l0.782,0l0,0.781Zm7.816,0l-0.782,0l0,-0.781l0.782,0l0,0.781Zm7.816,0l-0.782,0l0,-0.781l0.782,0l0,0.781Zm109.425,-7.816l-0.781,0l0,-0.781l0.781,0l0,0.781Zm-7.816,0l-0.781,0l0,-0.781l0.781,0l0,0.781Zm-93.793,0l-0.781,0l0,-0.781l0.781,0l0,0.781Zm7.816,0l-0.781,0l0,-0.781l0.781,0l0,0.781Zm7.816,0l-0.781,0l0,-0.781l0.781,0l0,0.781Zm62.529,0l-0.782,0l0,-0.781l0.782,0l0,0.781Zm-54.713,0l-0.781,0l0,-0.781l0.781,0l0,0.781Zm15.633,0l-0.782,0l0,-0.781l0.782,0l0,0.781Zm7.816,0l-0.782,0l0,-0.781l0.782,0l0,0.781Zm7.816,0l-0.782,0l0,-0.781l0.782,0l0,0.781Zm78.161,0l-0.782,0l0,-0.781l0.782,0l0,0.781Zm-140.69,0l-0.782,0l0,-0.781l0.782,0l0,0.781Zm78.161,0l-0.782,0l0,-0.781l0.782,0l0,0.781Zm39.08,0l-0.781,0l0,-0.781l0.781,0l0,0.781Zm-125.057,0l-0.782,0l0,-0.781l0.782,0l0,0.781Zm-7.816,0l-0.782,0l0,-0.781l0.782,0l0,0.781Zm109.425,0l-0.781,0l0,-0.781l0.781,0l0,0.781Zm-54.713,0l-0.781,0l0,-0.781l0.781,0l0,0.781Zm31.265,0l-0.782,0l0,-0.781l0.782,0l0,0.781Zm78.161,0l-0.782,0l0,-0.781l0.782,0l0,0.781Zm-15.632,0l-0.782,0l0,-0.781l0.782,0l0,0.781Zm-7.817,0l-0.781,0l0,-0.781l0.781,0l0,0.781Zm7.817,-7.816l-0.782,0l0,-0.781l0.782,0l0,0.781Zm-31.265,0l-0.781,0l0,-0.781l0.781,0l0,0.781Zm-46.896,0l-0.782,0l0,-0.781l0.782,0l0,0.781Zm-7.816,0l-0.782,0l0,-0.781l0.782,0l0,0.781Zm-15.633,0l-0.781,0l0,-0.781l0.781,0l0,0.781Zm46.897,0l-0.782,0l0,-0.781l0.782,0l0,0.781Zm46.896,0l-0.781,0l0,-0.781l0.781,0l0,0.781Zm15.633,0l-0.782,0l0,-0.781l0.782,0l0,0.781Zm-101.61,0l-0.781,0l0,-0.781l0.781,0l0,0.781Zm78.161,0l-0.781,0l0,-0.781l0.781,0l0,0.781Zm-93.793,0l-0.781,0l0,-0.781l0.781,0l0,0.781Zm125.058,0l-0.782,0l0,-0.781l0.782,0l0,0.781Zm-132.874,0l-0.781,0l0,-0.781l0.781,0l0,0.781Zm-15.632,0l-0.782,0l0,-0.781l0.782,0l0,0.781Zm7.816,0l-0.781,0l0,-0.781l0.781,0l0,0.781Zm-15.632,0l-0.782,0l0,-0.781l0.782,0l0,0.781Zm70.345,0l-0.782,0l0,-0.781l0.782,0l0,0.781Zm46.896,0l-0.781,0l0,-0.781l0.781,0l0,0.781Zm-125.057,0l-0.782,0l0,-0.781l0.782,0l0,0.781Zm85.977,0l-0.782,0l0,-0.781l0.782,0l0,0.781Zm15.632,0l-0.782,0l0,-0.781l0.782,0l0,0.781Zm7.816,0l-0.781,0l0,-0.781l0.781,0l0,0.781Zm-93.793,-7.816l-0.782,0l0,-0.781l0.782,0l0,0.781Zm46.897,0l-0.782,0l0,-0.781l0.782,0l0,0.781Zm46.896,0l-0.781,0l0,-0.781l0.781,0l0,0.781Zm7.816,0l-0.781,0l0,-0.781l0.781,0l0,0.781Zm-62.529,0l-0.781,0l0,-0.781l0.781,0l0,0.781Zm-7.816,0l-0.781,0l0,-0.781l0.781,0l0,0.781Zm-7.816,0l-0.781,0l0,-0.781l0.781,0l0,0.781Zm-7.816,0l-0.781,0l0,-0.781l0.781,0l0,0.781Zm-7.816,0l-0.781,0l0,-0.781l0.781,0l0,0.781Zm-23.448,0l-0.782,0l0,-0.781l0.782,0l0,0.781Zm70.345,0l-0.782,0l0,-0.781l0.782,0l0,0.781Zm93.793,0l-0.782,0l0,-0.781l0.782,0l0,0.781Zm-7.816,0l-0.782,0l0,-0.781l0.782,0l0,0.781Zm-7.816,0l-0.782,0l0,-0.781l0.782,0l0,0.781Zm-7.817,0l-0.781,0l0,-0.781l0.781,0l0,0.781Zm-7.816,0l-0.781,0l0,-0.781l0.781,0l0,0.781Zm-125.057,0l-0.782,0l0,-0.781l0.782,0l0,0.781Zm117.241,0l-0.781,0l0,-0.781l0.781,0l0,0.781Zm-23.448,0l-0.782,0l0,-0.781l0.782,0l0,0.781Zm-7.816,0l-0.782,0l0,-0.781l0.782,0l0,0.781Zm-7.816,0l-0.782,0l0,-0.781l0.782,0l0,0.781Zm-7.816,0l-0.782,0l0,-0.781l0.782,0l0,0.781Zm31.264,-7.816l-0.781,0l0,-0.782l0.781,0l0,0.782Zm7.816,0l-0.781,0l0,-0.782l0.781,0l0,0.782Zm-109.425,0l-0.782,0l0,-0.782l0.782,0l0,0.782Zm93.793,0l-0.782,0l0,-0.782l0.782,0l0,0.782Zm-7.816,0l-0.782,0l0,-0.782l0.782,0l0,0.782Zm62.529,0l-0.782,0l0,-0.782l0.782,0l0,0.782Zm-15.633,0l-0.781,0l0,-0.782l0.781,0l0,0.782Zm-117.241,0l-0.781,0l0,-0.782l0.781,0l0,0.782Zm23.448,0l-0.781,0l0,-0.782l0.781,0l0,0.782Zm7.816,0l-0.781,0l0,-0.782l0.781,0l0,0.782Zm15.633,0l-0.782,0l0,-0.782l0.782,0l0,0.782Zm7.816,0l-0.782,0l0,-0.782l0.782,0l0,0.782Zm85.977,0l-0.782,0l0,-0.782l0.782,0l0,0.782Zm-125.058,0l-0.781,0l0,-0.782l0.781,0l0,0.782Zm-39.08,0l-0.782,0l0,-0.782l0.782,0l0,0.782Zm148.506,0l-0.782,0l0,-0.782l0.782,0l0,0.782Zm-117.242,0l-0.781,0l0,-0.782l0.781,0l0,0.782Zm31.265,0l-0.782,0l0,-0.782l0.782,0l0,0.782Zm-46.897,0l-0.782,0l0,-0.782l0.782,0l0,0.782Zm109.425,0l-0.781,0l0,-0.782l0.781,0l0,0.782Zm7.816,0l-0.781,0l0,-0.782l0.781,0l0,0.782Zm-46.896,0l-0.782,0l0,-0.782l0.782,0l0,0.782Zm0,-7.816l-0.782,0l0,-0.782l0.782,0l0,0.782Zm-78.161,0l-0.782,0l0,-0.782l0.782,0l0,0.782Zm148.506,0l-0.782,0l0,-0.782l0.782,0l0,0.782Zm-156.322,0l-0.782,0l0,-0.782l0.782,0l0,0.782Zm164.138,0l-0.782,0l0,-0.782l0.782,0l0,0.782Zm-148.506,0l-0.782,0l0,-0.782l0.782,0l0,0.782Zm54.713,0l-0.782,0l0,-0.782l0.782,0l0,0.782Zm54.712,0l-0.781,0l0,-0.782l0.781,0l0,0.782Zm-62.528,0l-0.782,0l0,-0.782l0.782,0l0,0.782Zm-7.817,0l-0.781,0l0,-0.782l0.781,0l0,0.782Zm-23.448,0l-0.781,0l0,-0.782l0.781,0l0,0.782Zm-7.816,0l-0.781,0l0,-0.782l0.781,0l0,0.782Zm78.161,0l-0.782,0l0,-0.782l0.782,0l0,0.782Zm-7.816,0l-0.782,0l0,-0.782l0.782,0l0,0.782Zm-54.713,0l-0.781,0l0,-0.782l0.781,0l0,0.782Zm78.161,0l-0.781,0l0,-0.782l0.781,0l0,0.782Zm-70.345,0l-0.781,0l0,-0.782l0.781,0l0,0.782Zm85.977,0l-0.781,0l0,-0.782l0.781,0l0,0.782Zm-54.712,0l-0.782,0l0,-0.782l0.782,0l0,0.782Zm62.528,0l-0.781,0l0,-0.782l0.781,0l0,0.782Zm7.817,0l-0.782,0l0,-0.782l0.782,0l0,0.782Zm-39.081,0l-0.781,0l0,-0.782l0.781,0l0,0.782Zm62.529,-2.345l-0.782,0l0,-5.471l-5.471,0l0,-0.782l5.471,0l0,-5.471l0.782,0l0,5.471l5.471,0l0,0.782l-5.471,0l0,5.471Zm-179.77,0l-0.782,0l0,-5.471l-5.471,0l0,-0.782l5.471,0l0,-5.471l0.782,0l0,5.471l5.471,0l0,0.782l-5.471,0l0,5.471Z"/></svg>