<?xml version="1.0" encoding="UTF-8" standalone="no"?><!DOCTYPE svg PUBLIC "-//W3C//DTD SVG 1.1//EN" "http://www.w3.org/Graphics/SVG/1.1/DTD/svg11.dtd"><svg width="100%" height="100%" viewBox="0 0 480 480" version="1.1" xmlns="http://www.w3.org/2000/svg" xmlns:xlink="http://www.w3.org/1999/xlink" xml:space="preserve" xmlns:serif="http://www.serif.com/" style="fill-rule:evenodd;clip-rule:evenodd;stroke-linejoin:round;stroke-miterlimit:1.41421;"><path d="M450,361.017l-7.119,7.119c-39.013,0 -225.131,0 -225.131,0l0,-4.089l-34.621,0l0,4.089l-17.311,0l0,-4.089l-34.62,0l0,4.089l-17.311,0l0,-4.089l-34.621,0l0,4.089l-17.31,0l0,-4.089l-24.837,0l0,-2.29l24.837,0l0,-18.326l-24.837,0l0,-2.291l24.837,0l0,-18.325l-24.837,0l0,-2.291l24.837,0l0,-18.326l-24.837,0c0,0 0,-125.239 0,-172.537l17.796,-17.797c69.043,0 318.434,0 380.848,0l14.237,14.238c0,47.591 0,200.108 0,234.915Zm-336.113,0.74l0,-18.326l-34.621,0l0,18.326l34.621,0Zm51.931,0l0,-18.326l-34.62,0l0,18.326l34.62,0Zm51.932,0l0,-18.326l-34.621,0l0,18.326l34.621,0Zm-103.863,-20.617l0,-18.325l-34.621,0l0,18.325l34.621,0Zm51.931,0l0,-18.325l-34.62,0l0,18.325l34.62,0Zm51.932,0l0,-18.325l-34.621,0l0,18.325l34.621,0Zm-103.863,-20.616l0,-18.326l-34.621,0l0,18.326l34.621,0Zm51.931,0l0,-18.326l-34.62,0l0,18.326l34.62,0Zm51.932,0c0,0 0,-6.057 0,-11.207l-7.119,-7.119c-10.133,0 -27.502,0 -27.502,0l0,18.326l34.621,0Z" style="fill:#4b4b4b;"/><clipPath id="_clip1"><path d="M450,361.017l-7.119,7.119c-39.013,0 -225.131,0 -225.131,0l0,-4.089l-34.621,0l0,4.089l-17.311,0l0,-4.089l-34.62,0l0,4.089l-17.311,0l0,-4.089l-34.621,0l0,4.089l-17.31,0l0,-4.089l-24.837,0l0,-2.29l24.837,0l0,-18.326l-24.837,0l0,-2.291l24.837,0l0,-18.325l-24.837,0l0,-2.291l24.837,0l0,-18.326l-24.837,0c0,0 0,-125.239 0,-172.537l17.796,-17.797c69.043,0 318.434,0 380.848,0l14.237,14.238c0,47.591 0,200.108 0,234.915Zm-336.113,0.74l0,-18.326l-34.621,0l0,18.326l34.621,0Zm51.931,0l0,-18.326l-34.62,0l0,18.326l34.62,0Zm51.932,0l0,-18.326l-34.621,0l0,18.326l34.621,0Zm-103.863,-20.617l0,-18.325l-34.621,0l0,18.325l34.621,0Zm51.931,0l0,-18.325l-34.62,0l0,18.325l34.62,0Zm51.932,0l0,-18.325l-34.621,0l0,18.325l34.621,0Zm-103.863,-20.616l0,-18.326l-34.621,0l0,18.326l34.621,0Zm51.931,0l0,-18.326l-34.62,0l0,18.326l34.62,0Zm51.932,0c0,0 0,-6.057 0,-11.207l-7.119,-7.119c-10.133,0 -27.502,0 -27.502,0l0,18.326l34.621,0Z"/></clipPath><g clip-path="url(#_clip1)"><path d="M37.119,118.983l293.288,0l0,113.898l-14.949,0l0,7.119l3.559,0l0,-2.847l53.39,0l0,19.932l-7.831,0l0,2.847l7.831,0l0,98.949l-31.322,0l0,4.983l98.237,0l0,4.272l-402.203,0l0,-249.153Zm394.373,163.729l7.83,0l0,76.169l-7.83,0l0,-76.169Zm-58.373,-45.559l10.678,0l0,121.728l-10.678,0l0,-121.728Zm13.525,77.593l39.153,0l0,39.152l-39.153,0l0,-39.152Zm0,-39.153l39.153,0l0,35.593l-39.153,0l0,-35.593Zm0.712,-88.983l53.39,0l0,46.271l-4.983,0l0,42.712l-4.271,0l0,-42.712l-44.136,0l0,-46.271Zm-0.712,50.543l39.153,0l0,34.881l-39.153,0l0,-34.881Zm-13.525,-111.051l10.678,0l0,106.779l-10.678,0l0,-106.779Zm-37.017,0l28.474,0l0,106.779l-28.474,0l0,-106.779Zm51.254,0l53.39,0l0,53.39l-53.39,0l0,-53.39Z" style="fill:#808080;"/></g><path d="M222.203,244.983l-14.237,14.237c-39.586,0 -148.068,0 -148.068,0l0,-19.22l-22.779,0l0,-9.254l28.474,0l0,18.864l38.441,0l0,-18.864l118.169,0c0,0 0,7.118 0,14.237Zm-28.474,4.627l0,-9.61l-42.712,0l0,9.61l42.712,0Z" style="fill:#9a9a9a;"/><path d="M58.475,126.102l0,106.779l-14.238,0c0,0 0,-75.779 0,-99.661l7.119,-7.118c3.559,0 7.119,0 7.119,0Zm234.915,0l0,106.779l-24.915,0l0,-106.779l24.915,0Zm28.474,0l0,106.779l-24.915,0l0,-106.779l24.915,0Zm-99.661,0l0,106.779l-24.915,0l0,-106.779l24.915,0Zm42.712,0l0,106.779l-39.152,0l0,-106.779l39.152,0Zm-160.169,0l0,106.779l-39.153,0l0,-106.779l39.153,0Zm46.271,0l0,106.779l-39.153,0l0,-106.779l39.153,0Zm42.712,0l0,106.779l-39.153,0l0,-106.779l39.153,0Z" style="fill:#a7a7a7;"/><rect x="207.966" y="240" width="28.475" height="14.237" style="fill:#b4b4b4;"/><rect x="108.305" y="254.237" width="35.593" height="4.983" style="fill:#b4b4b4;"/><path d="M329.63,353.898l-7.766,0l0,-26.034l7.766,0l0,26.034Zm11.649,0l-7.766,0l0,-26.034l7.766,0l0,26.034Zm11.649,0l-7.766,0l0,-26.034l7.766,0l0,26.034Zm11.648,0l-7.766,0l0,-26.034l7.766,0l0,26.034Zm-34.946,-29.288l-7.766,0l0,-26.034l7.766,0l0,26.034Zm11.649,0l-7.766,0l0,-26.034l7.766,0l0,26.034Zm11.649,0l-7.766,0l0,-26.034l7.766,0l0,26.034Zm11.648,0l-7.766,0l0,-26.034l7.766,0l0,26.034Zm-34.946,-29.288l-7.766,0l0,-26.034l7.766,0l0,26.034Zm11.649,0l-7.766,0l0,-26.034l7.766,0l0,26.034Zm11.649,0l-7.766,0l0,-26.034l7.766,0l0,26.034Zm11.648,0l-7.766,0l0,-26.034l7.766,0l0,26.034Zm-34.946,-29.288l-7.766,0l0,-26.034l7.766,0l0,26.034Zm11.649,0l-7.766,0l0,-26.034l7.766,0l0,26.034Zm11.649,0l-7.766,0l0,-26.034l7.766,0l0,26.034Zm11.648,0l-7.766,0l0,-26.034l7.766,0l0,26.034Z" style="fill:#b4b4b4;"/><path d="M341.279,232.881l-5.177,0l0,-4.067l5.177,0l0,4.067Zm7.766,0l-5.178,0l0,-4.067l5.178,0l0,4.067Zm7.765,0l-5.177,0l0,-4.067l5.177,0l0,4.067Zm7.766,0l-5.177,0l0,-4.067l5.177,0l0,4.067Zm-23.297,-4.576l-5.177,0l0,-4.068l5.177,0l0,4.068Zm7.766,0l-5.178,0l0,-4.068l5.178,0l0,4.068Zm7.765,0l-5.177,0l0,-4.068l5.177,0l0,4.068Zm7.766,0l-5.177,0l0,-4.068l5.177,0l0,4.068Zm-23.297,-4.576l-5.177,0l0,-4.068l5.177,0l0,4.068Zm7.766,0l-5.178,0l0,-4.068l5.178,0l0,4.068Zm7.765,0l-5.177,0l0,-4.068l5.177,0l0,4.068Zm7.766,0l-5.177,0l0,-4.068l5.177,0l0,4.068Zm-23.297,-4.576l-5.177,0l0,-4.068l5.177,0l0,4.068Zm7.766,0l-5.178,0l0,-4.068l5.178,0l0,4.068Zm7.765,0l-5.177,0l0,-4.068l5.177,0l0,4.068Zm7.766,0l-5.177,0l0,-4.068l5.177,0l0,4.068Z" style="fill:#b4b4b4;"/><path d="M341.279,211.525l-5.177,0l0,-4.067l5.177,0l0,4.067Zm7.766,0l-5.178,0l0,-4.067l5.178,0l0,4.067Zm7.765,0l-5.177,0l0,-4.067l5.177,0l0,4.067Zm7.766,0l-5.177,0l0,-4.067l5.177,0l0,4.067Zm-23.297,-4.576l-5.177,0l0,-4.068l5.177,0l0,4.068Zm7.766,0l-5.178,0l0,-4.068l5.178,0l0,4.068Zm7.765,0l-5.177,0l0,-4.068l5.177,0l0,4.068Zm7.766,0l-5.177,0l0,-4.068l5.177,0l0,4.068Zm-23.297,-4.576l-5.177,0l0,-4.068l5.177,0l0,4.068Zm7.766,0l-5.178,0l0,-4.068l5.178,0l0,4.068Zm7.765,0l-5.177,0l0,-4.068l5.177,0l0,4.068Zm7.766,0l-5.177,0l0,-4.068l5.177,0l0,4.068Zm-23.297,-4.576l-5.177,0l0,-4.068l5.177,0l0,4.068Zm7.766,0l-5.178,0l0,-4.068l5.178,0l0,4.068Zm7.765,0l-5.177,0l0,-4.068l5.177,0l0,4.068Zm7.766,0l-5.177,0l0,-4.068l5.177,0l0,4.068Z" style="fill:#b4b4b4;"/><path d="M342.096,149.14l0,-8.801l4.659,0l0,8.801l-4.659,0Zm0,13.202l0,-8.801l4.659,0l0,8.801l-4.659,0Zm0,13.202l0,-8.801l4.659,0l0,8.801l-4.659,0Zm0,13.202l0,-8.801l4.659,0l0,8.801l-4.659,0Zm5.241,-39.606l0,-8.801l4.659,0l0,8.801l-4.659,0Zm0,13.202l0,-8.801l4.659,0l0,8.801l-4.659,0Zm0,13.202l0,-8.801l4.659,0l0,8.801l-4.659,0Zm0,13.202l0,-8.801l4.659,0l0,8.801l-4.659,0Zm5.241,-39.606l0,-8.801l4.659,0l0,8.801l-4.659,0Zm0,13.202l0,-8.801l4.659,0l0,8.801l-4.659,0Zm0,13.202l0,-8.801l4.659,0l0,8.801l-4.659,0Zm0,13.202l0,-8.801l4.659,0l0,8.801l-4.659,0Zm5.241,-39.606l0,-8.801l4.659,0l0,8.801l-4.659,0Zm0,13.202l0,-8.801l4.659,0l0,8.801l-4.659,0Zm0,13.202l0,-8.801l4.659,0l0,8.801l-4.659,0Zm0,13.202l0,-8.801l4.659,0l0,8.801l-4.659,0Z" style="fill:#b4b4b4;"/><rect x="222.203" y="268.475" width="3.559" height="99.661" style="fill:#b4b4b4;"/><path d="M257.797,286.271l0,-3.559l-35.594,0l0,3.559l35.594,0Z" style="fill:#b4b4b4;"/><rect x="229.322" y="247.119" width="3.559" height="35.593" style="fill:#b4b4b4;"/><rect x="251.441" y="282.712" width="1.271" height="35.593" style="fill:#b4b4b4;"/><rect x="65.593" y="133.22" width="28.475" height="32.034" style="fill:#b4b4b4;"/><rect x="111.864" y="175.932" width="24.915" height="49.831" style="fill:#b4b4b4;"/><rect x="229.322" y="289.831" width="17.797" height="28.475" style="fill:#b4b4b4;"/><rect x="229.322" y="325.424" width="17.797" height="14.237" style="fill:#b4b4b4;"/><rect x="229.322" y="346.78" width="17.797" height="21.356" style="fill:#b4b4b4;"/><path d="M314.746,247.119c0,0 -19.421,0 -34.678,0l-18,18c0,33.716 0,103.017 0,103.017l52.678,0l0,-121.017Z" style="fill:#b4b4b4;"/><path d="M307.627,254.237c0,0 -13.26,0 -23.593,0l-12,12c0,29.26 0,101.899 0,101.899l35.593,0l0,-113.899Z" style="fill:#808080;"/><rect x="30" y="268.475" width="173.695" height="18.508" style="fill:#595959;"/></svg>