<?xml version="1.0" encoding="UTF-8" standalone="no"?><!DOCTYPE svg PUBLIC "-//W3C//DTD SVG 1.1//EN" "http://www.w3.org/Graphics/SVG/1.1/DTD/svg11.dtd"><svg width="100%" height="100%" viewBox="0 0 480 480" version="1.1" xmlns="http://www.w3.org/2000/svg" xmlns:xlink="http://www.w3.org/1999/xlink" xml:space="preserve" xmlns:serif="http://www.serif.com/" style="fill-rule:evenodd;clip-rule:evenodd;stroke-linejoin:round;stroke-miterlimit:1.41421;"><path d="M242.4,443.858l0,-6.116l40,0l0,6.116l-40,0Zm216,0l-40,0l0,-6.116l40,0l0,6.116Zm-44,0l-40,0l0,-6.116l40,0l0,6.116Zm-88,0l-40,0l0,-6.116l40,0l0,6.116Zm44,0l-40,0l0,-6.116l40,0l0,6.116Zm88,-7.645l-40,0l0,-6.115l40,0l0,6.115Zm-44,0l-40,0l0,-6.115l40,0l0,6.115Zm-44,0l-40,0l0,-6.115l40,0l0,6.115Zm-44,0l-40,0l0,-6.115l40,0l0,6.115Zm-44,0l-40,0l0,-6.115l40,0l0,6.115Zm0,-7.644l-40,0l0,-6.116l40,0l0,6.116Zm44,0l-40,0l0,-6.116l40,0l0,6.116Zm88,0l-40,0l0,-6.116l40,0l0,6.116Zm-44,0l-40,0l0,-6.116l40,0l0,6.116Zm88,0l-40,0l0,-6.116l40,0l0,6.116Zm-216,-7.645l0,-6.115l40,0l0,6.115l-40,0Zm128,0l-40,0l0,-6.115l40,0l0,6.115Zm88,0l-40,0l0,-6.115l40,0l0,6.115Zm-44,0l-40,0l0,-6.115l40,0l0,6.115Zm-88,0l-40,0l0,-6.115l40,0l0,6.115Zm-84,-7.644l0,-6.116l40,0l0,6.116l-40,0Zm216,0l-40,0l0,-6.116l40,0l0,6.116Zm-44,0l-40,0l0,-6.116l40,0l0,6.116Zm-88,0l-40,0l0,-6.116l40,0l0,6.116Zm44,0l-40,0l0,-6.116l40,0l0,6.116Zm-88,-7.644l-40,0l0,-6.116l40,0l0,6.116Zm88,0l-40,0l0,-6.116l40,0l0,6.116Zm44,0l-40,0l0,-6.116l40,0l0,6.116Zm44,0l-40,0l0,-6.116l40,0l0,6.116Zm-132,0l-40,0l0,-6.116l40,0l0,6.116Zm88,-7.645l-40,0l0,-6.115l40,0l0,6.115Zm-132,0l-40,0l0,-6.115l40,0l0,6.115Zm176,0l-40,0l0,-6.115l40,0l0,6.115Zm-132,0l-40,0l0,-6.115l40,0l0,6.115Zm44,0l-40,0l0,-6.115l40,0l0,6.115Zm-128,-7.644l0,-6.116l40,0l0,6.116l-40,0Zm172,0l-40,0l0,-6.116l40,0l0,6.116Zm44,0l-40,0l0,-6.116l40,0l0,6.116Zm-132,0l-40,0l0,-6.116l40,0l0,6.116Zm44,0l-40,0l0,-6.116l40,0l0,6.116Zm-88,-7.645l-40,0l0,-6.115l40,0l0,6.115Zm132,0l-40,0l0,-6.115l40,0l0,6.115Zm-88,0l-40,0l0,-6.115l40,0l0,6.115Zm44,0l-40,0l0,-6.115l40,0l0,6.115Zm88,0l-40,0l0,-6.115l40,0l0,6.115Zm-44,-7.644l-40,0l0,-6.116l40,0l0,6.116Zm-132,0l-40,0l0,-6.116l40,0l0,6.116Zm176,0l-40,0l0,-6.116l40,0l0,6.116Zm-132,0l-40,0l0,-6.116l40,0l0,6.116Zm44,0l-40,0l0,-6.116l40,0l0,6.116Zm-88,-7.645l-40,0l0,-6.115l40,0l0,6.115Zm132,0l-40,0l0,-6.115l40,0l0,6.115Zm-88,0l-40,0l0,-6.115l40,0l0,6.115Zm132,0l-40,0l0,-6.115l40,0l0,6.115Zm-88,0l-40,0l0,-6.115l40,0l0,6.115Zm0,-7.644l-40,0l0,-6.116l40,0l0,6.116Zm-88,0l-40,0l0,-6.116l40,0l0,6.116Zm92,0l0,-6.116l40,0l0,6.116l-40,0Zm-48,0l-40,0l0,-6.116l40,0l0,6.116Zm132,0l-40,0l0,-6.116l40,0l0,6.116Zm-176,-7.645l-40,0l0,-6.115l40,0l0,6.115Zm88,0l-40,0l0,-6.115l40,0l0,6.115Zm44,0l-40,0l0,-6.115l40,0l0,6.115Zm-88,0l-40,0l0,-6.115l40,0l0,6.115Zm132,0l-40,0l0,-6.115l40,0l0,6.115Zm-176,-7.644l-40,0l0,-6.116l40,0l0,6.116Zm176,0l-40,0l0,-6.116l40,0l0,6.116Zm-88,0l-40,0l0,-6.116l40,0l0,6.116Zm-44,0l-40,0l0,-6.116l40,0l0,6.116Zm88,0l-40,0l0,-6.116l40,0l0,6.116Zm0,-7.644l-40,0l0,-6.116l40,0l0,6.116Zm-44,0l-40,0l0,-6.116l40,0l0,6.116Zm-44,0l-40,0l0,-6.116l40,0l0,6.116Zm132,0l-40,0l0,-6.116l40,0l0,6.116Zm-176,0l-40,0l0,-6.116l40,0l0,6.116Zm88,-7.645l-40,0l0,-6.115l40,0l0,6.115Zm-88,0l-40,0l0,-6.115l40,0l0,6.115Zm132,0l-40,0l0,-6.115l40,0l0,6.115Zm44,0l-40,0l0,-6.115l40,0l0,6.115Zm-132,0l-40,0l0,-6.115l40,0l0,6.115Zm0,-7.644l-40,0l0,-6.116l40,0l0,6.116Zm88,0l-40,0l0,-6.116l40,0l0,6.116Zm-132,0l-40,0l0,-6.116l40,0l0,6.116Zm88,0l-40,0l0,-6.116l40,0l0,6.116Zm48,0l0,-6.116l40,0l0,6.116l-40,0Zm-48,-7.645l-40,0l0,-6.115l40,0l0,6.115Zm44,0l-40,0l0,-6.115l40,0l0,6.115Zm-132,0l-40,0l0,-6.115l40,0l0,6.115Zm44,0l-40,0l0,-6.115l40,0l0,6.115Zm132,0l-40,0l0,-6.115l40,0l0,6.115Zm-128,-7.644l0,-6.116l40,0l0,6.116l-40,0Zm-4,0l-40,0l0,-6.116l40,0l0,6.116Zm-44,0l-40,0l0,-6.116l40,0l0,6.116Zm132,0l-40,0l0,-6.116l40,0l0,6.116Zm44,0l-40,0l0,-6.116l40,0l0,6.116Zm-264,-30.116l0,24l-144,0l0,-24l144,0Zm144,0l0,19.2l-96,0l0,-19.2l96,0Zm120,0l0,19.2l-96,0l0,-19.2l96,0Zm-120,-100.8l0,96l-96,0l0,-96l96,0Zm120,76.8l0,19.2l-96,0l0,-19.2l96,0Zm-340.729,0l-6.115,0l0,-40l6.115,0l0,40Zm38.222,0l-6.115,0l0,-40l6.115,0l0,40Zm-99.377,0l-6.116,0l0,-40l6.116,0l0,40Zm30.577,0l-6.115,0l0,-40l6.115,0l0,40Zm38.223,0l-6.116,0l0,-40l6.116,0l0,40Zm7.644,0l-6.116,0l0,-40l6.116,0l0,40Zm7.644,0l-6.115,0l0,-40l6.115,0l0,40Zm7.645,0l-6.116,0l0,-40l6.116,0l0,40Zm-38.222,0l-6.116,0l0,-40l6.116,0l0,40Zm53.511,0l-6.116,0l0,-40l6.116,0l0,40Zm-91.734,0l-6.115,0l0,-40l6.115,0l0,40Zm99.378,0l-6.115,0l0,-40l6.115,0l0,40Zm7.645,0l-6.116,0l0,-40l6.116,0l0,40Zm7.644,0l-6.115,0l0,-40l6.115,0l0,40Zm7.645,0l-6.116,0l0,-40l6.116,0l0,40Zm-129.956,0l-6.116,0l0,-40l6.116,0l0,40Zm15.289,0l-6.116,0l0,-40l6.116,0l0,40Zm15.289,0l-6.116,0l0,-40l6.116,0l0,40Zm7.644,0l-6.115,0l0,-40l6.115,0l0,40Zm356.018,-24l0,19.2l-96,0l0,-19.2l96,0Zm0,-24l0,19.2l-96,0l0,-19.2l96,0Zm-401.884,4l-6.116,0l0,-40l6.116,0l0,40Zm30.577,0l-6.115,0l0,-40l6.115,0l0,40Zm30.578,0l-6.115,0l0,-40l6.115,0l0,40Zm7.645,0l-6.116,0l0,-40l6.116,0l0,40Zm7.644,0l-6.116,0l0,-40l6.116,0l0,40Zm7.644,0l-6.115,0l0,-40l6.115,0l0,40Zm15.289,0l-6.115,0l0,-40l6.115,0l0,40Zm7.645,0l-6.116,0l0,-40l6.116,0l0,40Zm-61.156,0l-6.115,0l0,-40l6.115,0l0,40Zm-30.578,0l-6.115,0l0,-40l6.115,0l0,40Zm38.223,0l-6.116,0l0,-40l6.116,0l0,40Zm-15.289,0l-6.116,0l0,-40l6.116,0l0,40Zm-15.289,0l-6.116,0l0,-40l6.116,0l0,40Zm-15.289,0l-6.116,0l0,-40l6.116,0l0,40Zm129.956,0l-6.116,0l0,-40l6.116,0l0,40Zm-7.645,0l-6.115,0l0,-40l6.115,0l0,40Zm-15.289,0l-6.115,0l0,-40l6.115,0l0,40Zm7.645,0l-6.116,0l0,-40l6.116,0l0,40Zm-30.578,0l-6.116,0l0,-40l6.116,0l0,40Zm310.151,-28l0,19.2l-96,0l0,-19.2l96,0Zm0,-24l0,19.2l-96,0l0,-19.2l96,0Zm-120,-81.6l0,96l-96,0l0,-96l96,0Zm-182.507,89.6l-6.115,0l0,-40l6.115,0l0,40Zm22.934,0l-6.116,0l0,-40l6.116,0l0,40Zm-7.645,0l-6.115,0l0,-40l6.115,0l0,40Zm-7.644,0l-6.116,0l0,-40l6.116,0l0,40Zm-76.445,0l-6.115,0l0,-40l6.115,0l0,40Zm61.156,0l-6.116,0l0,-40l6.116,0l0,40Zm-7.645,0l-6.115,0l0,-40l6.115,0l0,40Zm-7.644,0l-6.116,0l0,-40l6.116,0l0,40Zm-7.644,0l-6.116,0l0,-40l6.116,0l0,40Zm-7.645,0l-6.115,0l0,-40l6.115,0l0,40Zm-61.155,0l-6.116,0l0,-40l6.116,0l0,40Zm38.222,0l-6.116,0l0,-40l6.116,0l0,40Zm7.644,0l-6.115,0l0,-40l6.115,0l0,40Zm-30.578,0l-6.115,0l0,-40l6.115,0l0,40Zm38.223,0l-6.116,0l0,-40l6.116,0l0,40Zm-30.578,0l-6.116,0l0,-40l6.116,0l0,40Zm-15.289,0l-6.116,0l0,-40l6.116,0l0,40Zm129.956,0l-6.116,0l0,-40l6.116,0l0,40Zm-7.645,0l-6.115,0l0,-40l6.115,0l0,40Zm271.929,-108.8l0,96l-96,0l0,-96l96,0Zm-317.796,64.8l-6.115,0l0,-40l6.115,0l0,40Zm7.645,0l-6.116,0l0,-40l6.116,0l0,40Zm7.644,0l-6.115,0l0,-40l6.115,0l0,40Zm-30.577,0l-6.116,0l0,-40l6.116,0l0,40Zm7.644,0l-6.116,0l0,-40l6.116,0l0,40Zm-76.444,0l-6.116,0l0,-40l6.116,0l0,40Zm30.577,0l-6.115,0l0,-40l6.115,0l0,40Zm30.578,0l-6.115,0l0,-40l6.115,0l0,40Zm-7.644,0l-6.116,0l0,-40l6.116,0l0,40Zm76.444,0l-6.115,0l0,-40l6.115,0l0,40Zm7.645,0l-6.116,0l0,-40l6.116,0l0,40Zm-129.956,0l-6.116,0l0,-40l6.116,0l0,40Zm99.378,0l-6.116,0l0,-40l6.116,0l0,40Zm-84.089,0l-6.116,0l0,-40l6.116,0l0,40Zm15.289,0l-6.116,0l0,-40l6.116,0l0,40Zm-22.934,0l-6.115,0l0,-40l6.115,0l0,40Zm30.578,0l-6.115,0l0,-40l6.115,0l0,40Zm68.8,0l-6.115,0l0,-40l6.115,0l0,40Zm7.645,0l-6.116,0l0,-40l6.116,0l0,40Zm-122.311,-44l-6.116,0l0,-40l6.116,0l0,40Zm76.444,0l-6.116,0l0,-40l6.116,0l0,40Zm-7.644,0l-6.116,0l0,-40l6.116,0l0,40Zm-7.645,0l-6.115,0l0,-40l6.115,0l0,40Zm76.445,0l-6.116,0l0,-40l6.116,0l0,40Zm-107.023,0l-6.115,0l0,-40l6.115,0l0,40Zm-22.933,0l-6.116,0l0,-40l6.116,0l0,40Zm15.289,0l-6.116,0l0,-40l6.116,0l0,40Zm15.289,0l-6.116,0l0,-40l6.116,0l0,40Zm15.289,0l-6.116,0l0,-40l6.116,0l0,40Zm61.155,0l-6.115,0l0,-40l6.115,0l0,40Zm7.645,0l-6.116,0l0,-40l6.116,0l0,40Zm-107.023,0l-6.115,0l0,-40l6.115,0l0,40Zm30.578,0l-6.115,0l0,-40l6.115,0l0,40Zm84.089,0l-6.115,0l0,-40l6.115,0l0,40Zm-22.933,0l-6.116,0l0,-40l6.116,0l0,40Zm-7.645,0l-6.115,0l0,-40l6.115,0l0,40Zm-7.644,0l-6.116,0l0,-40l6.116,0l0,40Zm-7.645,0l-6.115,0l0,-40l6.115,0l0,40Zm197.796,-40l0,33.6l-96,0l0,-33.6l96,0Zm120,0l0,14.4l-96,0l0,-14.4l96,0Z" style="fill:#9a9a9a;"/><clipPath id="_clip1"><path d="M242.4,443.858l0,-6.116l40,0l0,6.116l-40,0Zm216,0l-40,0l0,-6.116l40,0l0,6.116Zm-44,0l-40,0l0,-6.116l40,0l0,6.116Zm-88,0l-40,0l0,-6.116l40,0l0,6.116Zm44,0l-40,0l0,-6.116l40,0l0,6.116Zm88,-7.645l-40,0l0,-6.115l40,0l0,6.115Zm-44,0l-40,0l0,-6.115l40,0l0,6.115Zm-44,0l-40,0l0,-6.115l40,0l0,6.115Zm-44,0l-40,0l0,-6.115l40,0l0,6.115Zm-44,0l-40,0l0,-6.115l40,0l0,6.115Zm0,-7.644l-40,0l0,-6.116l40,0l0,6.116Zm44,0l-40,0l0,-6.116l40,0l0,6.116Zm88,0l-40,0l0,-6.116l40,0l0,6.116Zm-44,0l-40,0l0,-6.116l40,0l0,6.116Zm88,0l-40,0l0,-6.116l40,0l0,6.116Zm-216,-7.645l0,-6.115l40,0l0,6.115l-40,0Zm128,0l-40,0l0,-6.115l40,0l0,6.115Zm88,0l-40,0l0,-6.115l40,0l0,6.115Zm-44,0l-40,0l0,-6.115l40,0l0,6.115Zm-88,0l-40,0l0,-6.115l40,0l0,6.115Zm-84,-7.644l0,-6.116l40,0l0,6.116l-40,0Zm216,0l-40,0l0,-6.116l40,0l0,6.116Zm-44,0l-40,0l0,-6.116l40,0l0,6.116Zm-88,0l-40,0l0,-6.116l40,0l0,6.116Zm44,0l-40,0l0,-6.116l40,0l0,6.116Zm-88,-7.644l-40,0l0,-6.116l40,0l0,6.116Zm88,0l-40,0l0,-6.116l40,0l0,6.116Zm44,0l-40,0l0,-6.116l40,0l0,6.116Zm44,0l-40,0l0,-6.116l40,0l0,6.116Zm-132,0l-40,0l0,-6.116l40,0l0,6.116Zm88,-7.645l-40,0l0,-6.115l40,0l0,6.115Zm-132,0l-40,0l0,-6.115l40,0l0,6.115Zm176,0l-40,0l0,-6.115l40,0l0,6.115Zm-132,0l-40,0l0,-6.115l40,0l0,6.115Zm44,0l-40,0l0,-6.115l40,0l0,6.115Zm-128,-7.644l0,-6.116l40,0l0,6.116l-40,0Zm172,0l-40,0l0,-6.116l40,0l0,6.116Zm44,0l-40,0l0,-6.116l40,0l0,6.116Zm-132,0l-40,0l0,-6.116l40,0l0,6.116Zm44,0l-40,0l0,-6.116l40,0l0,6.116Zm-88,-7.645l-40,0l0,-6.115l40,0l0,6.115Zm132,0l-40,0l0,-6.115l40,0l0,6.115Zm-88,0l-40,0l0,-6.115l40,0l0,6.115Zm44,0l-40,0l0,-6.115l40,0l0,6.115Zm88,0l-40,0l0,-6.115l40,0l0,6.115Zm-44,-7.644l-40,0l0,-6.116l40,0l0,6.116Zm-132,0l-40,0l0,-6.116l40,0l0,6.116Zm176,0l-40,0l0,-6.116l40,0l0,6.116Zm-132,0l-40,0l0,-6.116l40,0l0,6.116Zm44,0l-40,0l0,-6.116l40,0l0,6.116Zm-88,-7.645l-40,0l0,-6.115l40,0l0,6.115Zm132,0l-40,0l0,-6.115l40,0l0,6.115Zm-88,0l-40,0l0,-6.115l40,0l0,6.115Zm132,0l-40,0l0,-6.115l40,0l0,6.115Zm-88,0l-40,0l0,-6.115l40,0l0,6.115Zm0,-7.644l-40,0l0,-6.116l40,0l0,6.116Zm-88,0l-40,0l0,-6.116l40,0l0,6.116Zm92,0l0,-6.116l40,0l0,6.116l-40,0Zm-48,0l-40,0l0,-6.116l40,0l0,6.116Zm132,0l-40,0l0,-6.116l40,0l0,6.116Zm-176,-7.645l-40,0l0,-6.115l40,0l0,6.115Zm88,0l-40,0l0,-6.115l40,0l0,6.115Zm44,0l-40,0l0,-6.115l40,0l0,6.115Zm-88,0l-40,0l0,-6.115l40,0l0,6.115Zm132,0l-40,0l0,-6.115l40,0l0,6.115Zm-176,-7.644l-40,0l0,-6.116l40,0l0,6.116Zm176,0l-40,0l0,-6.116l40,0l0,6.116Zm-88,0l-40,0l0,-6.116l40,0l0,6.116Zm-44,0l-40,0l0,-6.116l40,0l0,6.116Zm88,0l-40,0l0,-6.116l40,0l0,6.116Zm0,-7.644l-40,0l0,-6.116l40,0l0,6.116Zm-44,0l-40,0l0,-6.116l40,0l0,6.116Zm-44,0l-40,0l0,-6.116l40,0l0,6.116Zm132,0l-40,0l0,-6.116l40,0l0,6.116Zm-176,0l-40,0l0,-6.116l40,0l0,6.116Zm88,-7.645l-40,0l0,-6.115l40,0l0,6.115Zm-88,0l-40,0l0,-6.115l40,0l0,6.115Zm132,0l-40,0l0,-6.115l40,0l0,6.115Zm44,0l-40,0l0,-6.115l40,0l0,6.115Zm-132,0l-40,0l0,-6.115l40,0l0,6.115Zm0,-7.644l-40,0l0,-6.116l40,0l0,6.116Zm88,0l-40,0l0,-6.116l40,0l0,6.116Zm-132,0l-40,0l0,-6.116l40,0l0,6.116Zm88,0l-40,0l0,-6.116l40,0l0,6.116Zm48,0l0,-6.116l40,0l0,6.116l-40,0Zm-48,-7.645l-40,0l0,-6.115l40,0l0,6.115Zm44,0l-40,0l0,-6.115l40,0l0,6.115Zm-132,0l-40,0l0,-6.115l40,0l0,6.115Zm44,0l-40,0l0,-6.115l40,0l0,6.115Zm132,0l-40,0l0,-6.115l40,0l0,6.115Zm-128,-7.644l0,-6.116l40,0l0,6.116l-40,0Zm-4,0l-40,0l0,-6.116l40,0l0,6.116Zm-44,0l-40,0l0,-6.116l40,0l0,6.116Zm132,0l-40,0l0,-6.116l40,0l0,6.116Zm44,0l-40,0l0,-6.116l40,0l0,6.116Zm-264,-30.116l0,24l-144,0l0,-24l144,0Zm144,0l0,19.2l-96,0l0,-19.2l96,0Zm120,0l0,19.2l-96,0l0,-19.2l96,0Zm-120,-100.8l0,96l-96,0l0,-96l96,0Zm120,76.8l0,19.2l-96,0l0,-19.2l96,0Zm-340.729,0l-6.115,0l0,-40l6.115,0l0,40Zm38.222,0l-6.115,0l0,-40l6.115,0l0,40Zm-99.377,0l-6.116,0l0,-40l6.116,0l0,40Zm30.577,0l-6.115,0l0,-40l6.115,0l0,40Zm38.223,0l-6.116,0l0,-40l6.116,0l0,40Zm7.644,0l-6.116,0l0,-40l6.116,0l0,40Zm7.644,0l-6.115,0l0,-40l6.115,0l0,40Zm7.645,0l-6.116,0l0,-40l6.116,0l0,40Zm-38.222,0l-6.116,0l0,-40l6.116,0l0,40Zm53.511,0l-6.116,0l0,-40l6.116,0l0,40Zm-91.734,0l-6.115,0l0,-40l6.115,0l0,40Zm99.378,0l-6.115,0l0,-40l6.115,0l0,40Zm7.645,0l-6.116,0l0,-40l6.116,0l0,40Zm7.644,0l-6.115,0l0,-40l6.115,0l0,40Zm7.645,0l-6.116,0l0,-40l6.116,0l0,40Zm-129.956,0l-6.116,0l0,-40l6.116,0l0,40Zm15.289,0l-6.116,0l0,-40l6.116,0l0,40Zm15.289,0l-6.116,0l0,-40l6.116,0l0,40Zm7.644,0l-6.115,0l0,-40l6.115,0l0,40Zm356.018,-24l0,19.2l-96,0l0,-19.2l96,0Zm0,-24l0,19.2l-96,0l0,-19.2l96,0Zm-401.884,4l-6.116,0l0,-40l6.116,0l0,40Zm30.577,0l-6.115,0l0,-40l6.115,0l0,40Zm30.578,0l-6.115,0l0,-40l6.115,0l0,40Zm7.645,0l-6.116,0l0,-40l6.116,0l0,40Zm7.644,0l-6.116,0l0,-40l6.116,0l0,40Zm7.644,0l-6.115,0l0,-40l6.115,0l0,40Zm15.289,0l-6.115,0l0,-40l6.115,0l0,40Zm7.645,0l-6.116,0l0,-40l6.116,0l0,40Zm-61.156,0l-6.115,0l0,-40l6.115,0l0,40Zm-30.578,0l-6.115,0l0,-40l6.115,0l0,40Zm38.223,0l-6.116,0l0,-40l6.116,0l0,40Zm-15.289,0l-6.116,0l0,-40l6.116,0l0,40Zm-15.289,0l-6.116,0l0,-40l6.116,0l0,40Zm-15.289,0l-6.116,0l0,-40l6.116,0l0,40Zm129.956,0l-6.116,0l0,-40l6.116,0l0,40Zm-7.645,0l-6.115,0l0,-40l6.115,0l0,40Zm-15.289,0l-6.115,0l0,-40l6.115,0l0,40Zm7.645,0l-6.116,0l0,-40l6.116,0l0,40Zm-30.578,0l-6.116,0l0,-40l6.116,0l0,40Zm310.151,-28l0,19.2l-96,0l0,-19.2l96,0Zm0,-24l0,19.2l-96,0l0,-19.2l96,0Zm-120,-81.6l0,96l-96,0l0,-96l96,0Zm-182.507,89.6l-6.115,0l0,-40l6.115,0l0,40Zm22.934,0l-6.116,0l0,-40l6.116,0l0,40Zm-7.645,0l-6.115,0l0,-40l6.115,0l0,40Zm-7.644,0l-6.116,0l0,-40l6.116,0l0,40Zm-76.445,0l-6.115,0l0,-40l6.115,0l0,40Zm61.156,0l-6.116,0l0,-40l6.116,0l0,40Zm-7.645,0l-6.115,0l0,-40l6.115,0l0,40Zm-7.644,0l-6.116,0l0,-40l6.116,0l0,40Zm-7.644,0l-6.116,0l0,-40l6.116,0l0,40Zm-7.645,0l-6.115,0l0,-40l6.115,0l0,40Zm-61.155,0l-6.116,0l0,-40l6.116,0l0,40Zm38.222,0l-6.116,0l0,-40l6.116,0l0,40Zm7.644,0l-6.115,0l0,-40l6.115,0l0,40Zm-30.578,0l-6.115,0l0,-40l6.115,0l0,40Zm38.223,0l-6.116,0l0,-40l6.116,0l0,40Zm-30.578,0l-6.116,0l0,-40l6.116,0l0,40Zm-15.289,0l-6.116,0l0,-40l6.116,0l0,40Zm129.956,0l-6.116,0l0,-40l6.116,0l0,40Zm-7.645,0l-6.115,0l0,-40l6.115,0l0,40Zm271.929,-108.8l0,96l-96,0l0,-96l96,0Zm-317.796,64.8l-6.115,0l0,-40l6.115,0l0,40Zm7.645,0l-6.116,0l0,-40l6.116,0l0,40Zm7.644,0l-6.115,0l0,-40l6.115,0l0,40Zm-30.577,0l-6.116,0l0,-40l6.116,0l0,40Zm7.644,0l-6.116,0l0,-40l6.116,0l0,40Zm-76.444,0l-6.116,0l0,-40l6.116,0l0,40Zm30.577,0l-6.115,0l0,-40l6.115,0l0,40Zm30.578,0l-6.115,0l0,-40l6.115,0l0,40Zm-7.644,0l-6.116,0l0,-40l6.116,0l0,40Zm76.444,0l-6.115,0l0,-40l6.115,0l0,40Zm7.645,0l-6.116,0l0,-40l6.116,0l0,40Zm-129.956,0l-6.116,0l0,-40l6.116,0l0,40Zm99.378,0l-6.116,0l0,-40l6.116,0l0,40Zm-84.089,0l-6.116,0l0,-40l6.116,0l0,40Zm15.289,0l-6.116,0l0,-40l6.116,0l0,40Zm-22.934,0l-6.115,0l0,-40l6.115,0l0,40Zm30.578,0l-6.115,0l0,-40l6.115,0l0,40Zm68.8,0l-6.115,0l0,-40l6.115,0l0,40Zm7.645,0l-6.116,0l0,-40l6.116,0l0,40Zm-122.311,-44l-6.116,0l0,-40l6.116,0l0,40Zm76.444,0l-6.116,0l0,-40l6.116,0l0,40Zm-7.644,0l-6.116,0l0,-40l6.116,0l0,40Zm-7.645,0l-6.115,0l0,-40l6.115,0l0,40Zm76.445,0l-6.116,0l0,-40l6.116,0l0,40Zm-107.023,0l-6.115,0l0,-40l6.115,0l0,40Zm-22.933,0l-6.116,0l0,-40l6.116,0l0,40Zm15.289,0l-6.116,0l0,-40l6.116,0l0,40Zm15.289,0l-6.116,0l0,-40l6.116,0l0,40Zm15.289,0l-6.116,0l0,-40l6.116,0l0,40Zm61.155,0l-6.115,0l0,-40l6.115,0l0,40Zm7.645,0l-6.116,0l0,-40l6.116,0l0,40Zm-107.023,0l-6.115,0l0,-40l6.115,0l0,40Zm30.578,0l-6.115,0l0,-40l6.115,0l0,40Zm84.089,0l-6.115,0l0,-40l6.115,0l0,40Zm-22.933,0l-6.116,0l0,-40l6.116,0l0,40Zm-7.645,0l-6.115,0l0,-40l6.115,0l0,40Zm-7.644,0l-6.116,0l0,-40l6.116,0l0,40Zm-7.645,0l-6.115,0l0,-40l6.115,0l0,40Zm197.796,-40l0,33.6l-96,0l0,-33.6l96,0Zm120,0l0,14.4l-96,0l0,-14.4l96,0Z"/></clipPath><g clip-path="url(#_clip1)"><rect x="67.2" y="52.8" width="369.6" height="352.836" style="fill:#666;"/><rect x="105.6" y="86.4" width="192" height="292.8" style="fill:#c3c3c3;"/><rect x="201.6" y="139.2" width="244.8" height="201.6" style="fill:#676767;"/><rect x="220.8" y="192" width="206.4" height="96" style="fill:#8e8e8e;"/></g></svg>