<?xml version="1.0" encoding="UTF-8" standalone="no"?><!DOCTYPE svg PUBLIC "-//W3C//DTD SVG 1.1//EN" "http://www.w3.org/Graphics/SVG/1.1/DTD/svg11.dtd"><svg width="100%" height="100%" viewBox="0 0 2048 2048" version="1.1" xmlns="http://www.w3.org/2000/svg" xmlns:xlink="http://www.w3.org/1999/xlink" xml:space="preserve" xmlns:serif="http://www.serif.com/" style="fill-rule:evenodd;clip-rule:evenodd;stroke-linecap:round;stroke-linejoin:round;stroke-miterlimit:1.5;"><path d="M238.095,200.476l0,571.429l190.476,190.476l0,76.19l76.191,76.191l0,304.762l-76.191,76.19l0,342.857l76.191,76.191l1257.14,0l0,-1523.81l-304.762,-304.762l-1104.76,0l-114.286,114.286" style="fill:#595959;"/><g><clipPath id="_clip1"><path d="M238.095,200.476l0,571.429l190.476,190.476l0,76.19l76.191,76.191l0,304.762l-76.191,76.19l0,342.857l76.191,76.191l1257.14,0l0,-1523.81l-304.762,-304.762l-1104.76,0l-114.286,114.286"/></clipPath><g clip-path="url(#_clip1)"><path d="M200,581.429l133.333,0l285.715,285.714l0,285.714l-152.381,152.381l0,209.524l95.238,95.238l0,342.857l-342.857,-19.047l-19.048,-1352.38l0,-0.001Z" style="fill:#4d4d4d;stroke:#454545;stroke-width:8px;"/><path d="M238.095,495.434l98.403,0l324.399,324.4l0,333.461l87.896,87.896l533.719,0l198.899,-198.899l280.494,0" style="fill:none;stroke:#454545;stroke-width:8px;"/><path d="M238.095,435.629l105.652,0l375.144,375.143l0,189.704l1043.01,0" style="fill:none;stroke:#454545;stroke-width:8px;"/><path d="M409.524,495.434l0,-218.767l57.143,-57.143l476.19,0l57.143,-57.143l0,-95.238" style="fill:none;stroke:#454545;stroke-width:8px;"/><path d="M428.571,517.343l980.065,0l22.911,-22.912l0,-84.431l19.048,-19.048l311.31,0" style="fill:none;stroke:#454545;stroke-width:8px;"/><path d="M1434.26,454.148l327.644,0" style="fill:none;stroke:#454545;stroke-width:8px;"/><path d="M466.667,238.571l-38.096,38.096l0,114.285l114.286,0l76.191,-76.19l0,-76.191l-152.381,0" style="fill:#666;"/><path d="M415.849,390.952l992.787,0l25.625,-25.625l50.565,-50.565l234.726,0" style="fill:none;stroke:#454545;stroke-width:8px;"/></g></g><path d="M276.19,390.952l-76.19,-76.19l0,-190.476l114.286,-114.286l495.238,0l114.286,114.286l0,76.19l-457.143,0l-76.191,76.191l0,76.19l-38.095,38.095l-76.191,0Z" style="fill:#666;"/><g><clipPath id="_clip2"><path d="M276.19,390.952l-76.19,-76.19l0,-190.476l114.286,-114.286l495.238,0l114.286,114.286l0,76.19l-457.143,0l-76.191,76.191l0,76.19l-38.095,38.095l-76.191,0Z"/></clipPath><g clip-path="url(#_clip2)"><path d="M200,238.571l38.095,0l152.381,-152.381l314.286,0l76.19,-76.19" style="fill:none;stroke:#595959;stroke-width:8px;"/><path d="M409.524,124.286l295.238,0" style="fill:none;stroke:#595959;stroke-width:8px;"/><path d="M923.81,162.381l-514.286,0l-114.286,114.286l-95.238,0" style="fill:none;stroke:#595959;stroke-width:8px;"/></g></g><path d="M1800,1495.71l0,419.048l-114.286,114.286l-228.571,0l-76.191,-76.191l-190.476,0l-76.19,-76.19l0,-76.191l76.19,-76.19l342.857,0l114.286,-114.286l0,-76.19l38.095,-38.096l114.286,0Z" style="fill:#666;"/><clipPath id="_clip3"><path d="M1800,1495.71l0,419.048l-114.286,114.286l-228.571,0l-76.191,-76.191l-190.476,0l-76.19,-76.19l0,-76.191l76.19,-76.19l342.857,0l114.286,-114.286l0,-76.19l38.095,-38.096l114.286,0Z"/></clipPath><g clip-path="url(#_clip3)"><path d="M1323.81,2029.05l57.142,-38.096l190.477,0l76.19,-76.19l0,-228.572l76.191,-76.19l133.333,0" style="fill:none;stroke:#595959;stroke-width:8px;"/></g><g><circle cx="828.128" cy="898.833" r="71.456" style="fill:#404040;stroke:#515151;stroke-width:8px;"/><circle cx="1018.6" cy="898.833" r="71.456" style="fill:#404040;stroke:#515151;stroke-width:8px;"/><circle cx="1209.08" cy="898.833" r="71.456" style="fill:#404040;stroke:#515151;stroke-width:8px;"/><circle cx="1399.56" cy="898.833" r="71.456" style="fill:#404040;stroke:#515151;stroke-width:8px;"/><circle cx="1590.03" cy="898.833" r="71.456" style="fill:#404040;stroke:#515151;stroke-width:8px;"/></g><g><rect x="428.571" y="410" width="8.636" height="84.431" style="fill:#404040;"/><rect x="447.619" y="410" width="8.636" height="84.431" style="fill:#404040;"/><rect x="466.667" y="410" width="8.636" height="84.431" style="fill:#404040;"/><rect x="485.714" y="410" width="8.636" height="84.431" style="fill:#404040;"/><rect x="504.762" y="410" width="8.636" height="84.431" style="fill:#404040;"/><rect x="523.81" y="410" width="8.636" height="84.431" style="fill:#404040;"/><rect x="542.857" y="410" width="8.636" height="84.431" style="fill:#404040;"/><rect x="561.905" y="410" width="8.636" height="84.431" style="fill:#404040;"/><rect x="580.952" y="410" width="8.636" height="84.431" style="fill:#404040;"/><rect x="600" y="410" width="8.636" height="84.431" style="fill:#404040;"/><rect x="619.048" y="410" width="8.636" height="84.431" style="fill:#404040;"/><rect x="638.095" y="410" width="8.636" height="84.431" style="fill:#404040;"/><rect x="657.143" y="410" width="8.636" height="84.431" style="fill:#404040;"/><rect x="676.19" y="410" width="8.636" height="84.431" style="fill:#404040;"/><rect x="695.238" y="410" width="8.636" height="84.431" style="fill:#404040;"/><rect x="714.286" y="410" width="8.636" height="84.431" style="fill:#404040;"/><rect x="733.333" y="410" width="8.636" height="84.431" style="fill:#404040;"/><rect x="752.381" y="410" width="8.636" height="84.431" style="fill:#404040;"/><rect x="771.429" y="410" width="8.636" height="84.431" style="fill:#404040;"/><rect x="790.476" y="410" width="8.636" height="84.431" style="fill:#404040;"/><rect x="809.524" y="410" width="8.636" height="84.431" style="fill:#404040;"/><rect x="828.571" y="410" width="8.636" height="84.431" style="fill:#404040;"/><rect x="847.619" y="410" width="8.636" height="84.431" style="fill:#404040;"/><rect x="866.667" y="410" width="8.636" height="84.431" style="fill:#404040;"/><rect x="866.667" y="410" width="8.636" height="84.431" style="fill:#404040;"/><rect x="885.714" y="410" width="8.636" height="84.431" style="fill:#404040;"/><rect x="904.762" y="410" width="8.636" height="84.431" style="fill:#404040;"/><rect x="923.81" y="410" width="8.636" height="84.431" style="fill:#404040;"/><rect x="942.857" y="410" width="8.636" height="84.431" style="fill:#404040;"/><rect x="961.905" y="410" width="8.636" height="84.431" style="fill:#404040;"/><rect x="980.952" y="410" width="8.636" height="84.431" style="fill:#404040;"/><rect x="1000" y="410" width="8.636" height="84.431" style="fill:#404040;"/><rect x="1019.05" y="410" width="8.636" height="84.431" style="fill:#404040;"/><rect x="1038.1" y="410" width="8.636" height="84.431" style="fill:#404040;"/><rect x="1057.14" y="410" width="8.636" height="84.431" style="fill:#404040;"/><rect x="1076.19" y="410" width="8.636" height="84.431" style="fill:#404040;"/><rect x="1095.24" y="410" width="8.636" height="84.431" style="fill:#404040;"/><rect x="1114.29" y="410" width="8.636" height="84.431" style="fill:#404040;"/><rect x="1133.33" y="410" width="8.636" height="84.431" style="fill:#404040;"/><rect x="1152.38" y="410" width="8.636" height="84.431" style="fill:#404040;"/><rect x="1171.43" y="410" width="8.636" height="84.431" style="fill:#404040;"/><rect x="1190.48" y="410" width="8.636" height="84.431" style="fill:#404040;"/><rect x="1209.52" y="410" width="8.636" height="84.431" style="fill:#404040;"/><rect x="1228.57" y="410" width="8.636" height="84.431" style="fill:#404040;"/><rect x="1247.62" y="410" width="8.636" height="84.431" style="fill:#404040;"/><rect x="1266.67" y="410" width="8.636" height="84.431" style="fill:#404040;"/><rect x="1285.71" y="410" width="8.636" height="84.431" style="fill:#404040;"/><rect x="1304.76" y="410" width="8.636" height="84.431" style="fill:#404040;"/><rect x="1323.81" y="410" width="8.636" height="84.431" style="fill:#404040;"/><rect x="1342.86" y="410" width="8.636" height="84.431" style="fill:#404040;"/><rect x="1361.9" y="410" width="8.636" height="84.431" style="fill:#404040;"/><rect x="1380.95" y="410" width="8.636" height="84.431" style="fill:#404040;"/><rect x="1400" y="410" width="8.636" height="84.431" style="fill:#404040;"/><rect x="1400" y="410" width="8.636" height="84.431" style="fill:#404040;"/></g><path d="M671.141,1039.74l483.718,0l92.756,92.755l135.233,0" style="fill:none;stroke:#454545;stroke-width:8px;"/><path d="M752.381,1248.1l48.509,48.509l313.396,0l76.19,76.19l0,46.73l-380.952,0l-114.286,0l-160,160" style="fill:none;stroke:#454545;stroke-width:8px;"/><path d="M1114.29,1419.52l76.19,76.19l152.381,0l152.381,152.381" style="fill:none;stroke:#454545;stroke-width:8px;"/><g><circle cx="1495.24" cy="1648.1" r="133.333" style="fill:#737373;"/><circle cx="1495.24" cy="1648.1" r="76.19" style="fill:#737373;stroke:#515151;stroke-width:8px;"/></g><path d="M1609.52,2029.05l76.19,-76.191l0,-228.571l76.191,-76.191l38.095,0" style="fill:none;stroke:#595959;stroke-width:8px;"/></svg>