<?xml version="1.0" encoding="UTF-8" standalone="no"?><!DOCTYPE svg PUBLIC "-//W3C//DTD SVG 1.1//EN" "http://www.w3.org/Graphics/SVG/1.1/DTD/svg11.dtd"><svg width="100%" height="100%" viewBox="0 0 2048 2048" version="1.1" xmlns="http://www.w3.org/2000/svg" xmlns:xlink="http://www.w3.org/1999/xlink" xml:space="preserve" xmlns:serif="http://www.serif.com/" style="fill-rule:evenodd;clip-rule:evenodd;stroke-linecap:round;stroke-linejoin:round;stroke-miterlimit:1.5;"><g><path d="M91.701,1558.92l0,91.702l61.135,61.134l183.403,0l30.567,30.567l1192.12,0l244.538,-244.537l0,-275.104l213.97,-213.971l0,-336.238l-397.373,0l-152.836,-152.836l-275.105,0l-61.134,-61.135l-703.045,0l-152.836,0l-183.403,183.403l0,917.015" style="fill:#6e6e6e;"/><path d="M0,550.209l0,947.582l61.134,61.134l336.239,0l213.97,213.971l91.702,0l0,-458.508l-30.567,-30.567l0,-213.97l30.567,-30.567l0,-213.971l-61.135,-61.134l0,-30.567l-122.268,-122.269l-30.567,0l-61.135,-61.134l-213.97,0l-61.134,-61.134l-91.702,0l-61.134,61.134Z" style="fill:#767676;"/><g><clipPath id="_clip1"><path d="M0,550.209l0,947.582l61.134,61.134l336.239,0l213.97,213.971l91.702,0l0,-458.508l-30.567,-30.567l0,-213.97l30.567,-30.567l0,-213.971l-61.135,-61.134l0,-30.567l-122.268,-122.269l-30.567,0l-61.135,-61.134l-213.97,0l-61.134,-61.134l-91.702,0l-61.134,61.134Z"/></clipPath><g clip-path="url(#_clip1)"><path d="M-30.567,580.776l458.507,0l305.672,305.672" style="fill:none;stroke:#737373;stroke-width:4px;"/><path d="M-30.567,611.343l458.507,0l305.672,305.672" style="fill:none;stroke:#737373;stroke-width:4px;"/><path d="M-30.567,641.91l458.507,0l305.672,305.672" style="fill:none;stroke:#737373;stroke-width:4px;"/><path d="M-30.567,672.478l458.507,0l305.672,305.671" style="fill:none;stroke:#737373;stroke-width:4px;"/><path d="M-30.567,703.045l458.507,0l305.672,305.671" style="fill:none;stroke:#737373;stroke-width:4px;"/><path d="M-30.567,733.612l458.507,0l305.672,305.672" style="fill:none;stroke:#737373;stroke-width:4px;"/><path d="M-30.567,764.179l458.507,0l305.672,305.672" style="fill:none;stroke:#737373;stroke-width:4px;"/><path d="M-30.567,794.746l458.507,0l305.672,305.672" style="fill:none;stroke:#737373;stroke-width:4px;"/><path d="M-30.567,825.313l458.507,0l305.672,305.672" style="fill:none;stroke:#737373;stroke-width:4px;"/><path d="M-30.567,855.881l458.507,0l305.672,305.671" style="fill:none;stroke:#737373;stroke-width:4px;"/><path d="M-30.567,886.448l458.507,0l305.672,305.671" style="fill:none;stroke:#737373;stroke-width:4px;"/><path d="M-30.567,917.015l458.507,0l305.672,305.672" style="fill:none;stroke:#737373;stroke-width:4px;"/><path d="M-30.567,947.582l458.507,0l305.672,305.672" style="fill:none;stroke:#737373;stroke-width:4px;"/><path d="M-30.567,978.149l458.507,0l305.672,305.672" style="fill:none;stroke:#737373;stroke-width:4px;"/><path d="M-30.567,1008.72l458.507,0l305.672,305.672" style="fill:none;stroke:#737373;stroke-width:4px;"/><path d="M-30.567,1039.28l458.507,0l305.672,305.671" style="fill:none;stroke:#737373;stroke-width:4px;"/><path d="M-30.567,1069.85l458.507,0l305.672,305.671" style="fill:none;stroke:#737373;stroke-width:4px;"/><path d="M-30.567,1100.42l458.507,0l305.672,305.672" style="fill:none;stroke:#737373;stroke-width:4px;"/><path d="M-30.567,1130.99l458.507,0l305.672,305.672" style="fill:none;stroke:#737373;stroke-width:4px;"/><path d="M-30.567,1161.55l458.507,0l305.672,305.672" style="fill:none;stroke:#737373;stroke-width:4px;"/><path d="M-30.567,1192.12l458.507,0l305.672,305.672" style="fill:none;stroke:#737373;stroke-width:4px;"/><path d="M-30.567,1222.69l458.507,0l305.672,305.671" style="fill:none;stroke:#737373;stroke-width:4px;"/><path d="M-30.567,1253.25l458.507,0l305.672,305.671" style="fill:none;stroke:#737373;stroke-width:4px;"/><path d="M-30.567,1283.82l458.507,0l305.672,305.672" style="fill:none;stroke:#737373;stroke-width:4px;"/><path d="M-30.567,1314.39l458.507,0l305.672,305.672" style="fill:none;stroke:#737373;stroke-width:4px;"/><path d="M-30.567,1344.95l458.507,0l305.672,305.672" style="fill:none;stroke:#737373;stroke-width:4px;"/><path d="M-30.567,1375.52l458.507,0l305.672,305.672" style="fill:none;stroke:#737373;stroke-width:4px;"/><path d="M-30.567,1406.09l458.507,0l305.672,305.671" style="fill:none;stroke:#737373;stroke-width:4px;"/><path d="M-30.567,1436.66l458.507,0l305.672,305.671" style="fill:none;stroke:#737373;stroke-width:4px;"/><path d="M-30.567,1467.22l458.507,0l305.672,305.672" style="fill:none;stroke:#737373;stroke-width:4px;"/></g></g><path d="M825.313,1314.39l947.583,0l61.134,-61.134l0,-336.239l213.97,-213.97l0,-91.702l-458.507,0l-30.568,30.567l-213.97,0l-30.567,-30.567l-213.97,0l-61.134,61.135l-30.568,0l-122.268,122.268l0,30.567l-61.135,61.135l0,213.97l-61.134,61.134l0,91.702l61.134,61.134" style="fill:#767676;"/><g><clipPath id="_clip2"><path d="M825.313,1314.39l947.583,0l61.134,-61.134l0,-336.239l213.97,-213.97l0,-91.702l-458.507,0l-30.568,30.567l-213.97,0l-30.567,-30.567l-213.97,0l-61.134,61.135l-30.568,0l-122.268,122.268l0,30.567l-61.135,61.135l0,213.97l-61.134,61.134l0,91.702l61.134,61.134"/></clipPath><g clip-path="url(#_clip2)"><path d="M855.881,1344.95l0,-458.507l305.671,-305.672" style="fill:none;stroke:#737373;stroke-width:4px;"/><path d="M886.448,1344.95l0,-458.507l305.671,-305.672" style="fill:none;stroke:#737373;stroke-width:4px;"/><path d="M917.015,1344.95l0,-458.507l305.672,-305.672" style="fill:none;stroke:#737373;stroke-width:4px;"/><path d="M947.582,1344.95l0,-458.507l305.672,-305.672" style="fill:none;stroke:#737373;stroke-width:4px;"/><path d="M978.149,1344.95l0,-458.507l305.672,-305.672" style="fill:none;stroke:#737373;stroke-width:4px;"/><path d="M1008.72,1344.95l0,-458.507l305.672,-305.672" style="fill:none;stroke:#737373;stroke-width:4px;"/><path d="M1039.28,1344.95l0,-458.507l305.671,-305.672" style="fill:none;stroke:#737373;stroke-width:4px;"/><path d="M1069.85,1344.95l0,-458.507l305.671,-305.672" style="fill:none;stroke:#737373;stroke-width:4px;"/><path d="M1100.42,1344.95l0,-458.507l305.672,-305.672" style="fill:none;stroke:#737373;stroke-width:4px;"/><path d="M1130.99,1344.95l0,-458.507l305.672,-305.672" style="fill:none;stroke:#737373;stroke-width:4px;"/><path d="M1161.55,1344.95l0,-458.507l305.672,-305.672" style="fill:none;stroke:#737373;stroke-width:4px;"/><path d="M1192.12,1344.95l0,-458.507l305.672,-305.672" style="fill:none;stroke:#737373;stroke-width:4px;"/><path d="M1222.69,1344.95l0,-458.507l305.671,-305.672" style="fill:none;stroke:#737373;stroke-width:4px;"/><path d="M1253.25,1344.95l0,-458.507l305.671,-305.672" style="fill:none;stroke:#737373;stroke-width:4px;"/><path d="M1283.82,1344.95l0,-458.507l305.672,-305.672" style="fill:none;stroke:#737373;stroke-width:4px;"/><path d="M1314.39,1344.95l0,-458.507l305.672,-305.672" style="fill:none;stroke:#737373;stroke-width:4px;"/><path d="M1344.95,1344.95l0,-458.507l305.672,-305.672" style="fill:none;stroke:#737373;stroke-width:4px;"/><path d="M1375.52,1344.95l0,-458.507l305.672,-305.672" style="fill:none;stroke:#737373;stroke-width:4px;"/><path d="M1406.09,1344.95l0,-458.507l305.671,-305.672" style="fill:none;stroke:#737373;stroke-width:4px;"/><path d="M1436.66,1344.95l0,-458.507l305.671,-305.672" style="fill:none;stroke:#737373;stroke-width:4px;"/><path d="M1467.22,1344.95l0,-458.507l305.672,-305.672" style="fill:none;stroke:#737373;stroke-width:4px;"/><path d="M1497.79,1344.95l0,-458.507l305.672,-305.672" style="fill:none;stroke:#737373;stroke-width:4px;"/><path d="M1528.36,1344.95l0,-458.507l305.672,-305.672" style="fill:none;stroke:#737373;stroke-width:4px;"/><path d="M1558.92,1344.95l0,-458.507l305.672,-305.672" style="fill:none;stroke:#737373;stroke-width:4px;"/><path d="M1589.49,1344.95l0,-458.507l305.671,-305.672" style="fill:none;stroke:#737373;stroke-width:4px;"/><path d="M1620.06,1344.95l0,-458.507l305.671,-305.672" style="fill:none;stroke:#737373;stroke-width:4px;"/><path d="M1650.63,1344.95l0,-458.507l305.672,-305.672" style="fill:none;stroke:#737373;stroke-width:4px;"/><path d="M1681.19,1344.95l0,-458.507l305.672,-305.672" style="fill:none;stroke:#737373;stroke-width:4px;"/><path d="M1711.76,1344.95l0,-458.507l305.672,-305.672" style="fill:none;stroke:#737373;stroke-width:4px;"/><path d="M1742.33,1344.95l0,-458.507l305.672,-305.672" style="fill:none;stroke:#737373;stroke-width:4px;"/></g></g><path d="M703.045,1283.82l30.567,30.567l30.567,0l-30.567,-30.567l0,-122.269l61.134,-61.134l0,-213.97l61.135,-61.135l0,-30.567l152.835,-152.836l30.568,0l61.134,-61.134l213.97,0l30.567,-30.567l0,-244.537l-30.567,-30.568l-580.776,0l-91.702,91.702l-122.268,0l-61.135,61.134l0,122.269l30.568,30.567l30.567,0l213.97,213.97l0,275.105l-30.567,30.567l0,183.403" style="fill:#767676;"/><g><clipPath id="_clip3"><path d="M703.045,1283.82l30.567,30.567l30.567,0l-30.567,-30.567l0,-122.269l61.134,-61.134l0,-213.97l61.135,-61.135l0,-30.567l152.835,-152.836l30.568,0l61.134,-61.134l213.97,0l30.567,-30.567l0,-244.537l-30.567,-30.568l-580.776,0l-91.702,91.702l-122.268,0l-61.135,61.134l0,122.269l30.568,30.567l30.567,0l213.97,213.97l0,275.105l-30.567,30.567l0,183.403"/></clipPath><g clip-path="url(#_clip3)"><path d="M458.507,489.075l91.702,0l213.97,213.97l0,336.239l30.567,30.567" style="fill:none;stroke:#737373;stroke-width:4px;"/><path d="M458.507,458.507l122.269,0l213.97,213.971l213.97,0" style="fill:none;stroke:#737373;stroke-width:4px;"/><path d="M611.343,366.806l30.567,30.567l397.374,0l91.701,-91.701l213.97,0" style="fill:none;stroke:#737373;stroke-width:4px;"/><path d="M550.209,366.806l122.269,122.269l366.806,0l30.567,30.567l213.97,0l61.134,-61.135" style="fill:none;stroke:#737373;stroke-width:4px;"/></g></g><path d="M733.612,1344.95l0,427.941l764.179,0l61.134,-61.135l0,-152.836l61.135,-61.134l122.268,0l30.568,-30.567l0,-122.269l-1039.28,0" style="fill:#767676;"/><g><clipPath id="_clip4"><path d="M733.612,1344.95l0,427.941l764.179,0l61.134,-61.135l0,-152.836l61.135,-61.134l122.268,0l30.568,-30.567l0,-122.269l-1039.28,0"/></clipPath><g clip-path="url(#_clip4)"><path d="M1803.46,1436.66l-427.941,0l-61.134,61.134l-91.701,0l-30.568,30.567l0,183.403l30.568,30.567l0,61.135" style="fill:none;stroke:#737373;stroke-width:4px;"/><path d="M1772.9,1451.94l-382.09,0l-61.134,61.135l-91.702,0l-30.567,30.567l0,168.119l30.567,30.567l106.985,0l15.284,15.284l0,15.284" style="fill:none;stroke:#737373;stroke-width:4px;"/></g></g><rect x="764.179" y="1375.52" width="366.806" height="366.806" style="fill:#767676;"/><clipPath id="_clip5"><rect x="764.179" y="1375.52" width="366.806" height="366.806"/></clipPath><g clip-path="url(#_clip5)"><g><path d="M1017.82,1164.48c2.982,-2.982 2.982,-7.825 0,-10.807l-10.808,-10.807c-2.982,-2.982 -7.824,-2.982 -10.807,0l-464.682,464.683c-2.983,2.982 -2.983,7.824 0,10.807l10.807,10.807c2.982,2.982 7.825,2.982 10.807,0l464.683,-464.683Z" style="fill:#6b6b6b;"/><path d="M1061.05,1207.71c2.982,-2.983 2.982,-7.825 0,-10.807l-10.807,-10.808c-2.982,-2.982 -7.825,-2.982 -10.807,0l-464.683,464.683c-2.982,2.982 -2.982,7.825 0,10.807l10.807,10.807c2.983,2.983 7.825,2.983 10.807,0l464.683,-464.682Z" style="fill:#6b6b6b;"/><path d="M1104.27,1250.93c2.982,-2.982 2.982,-7.825 0,-10.807l-10.808,-10.807c-2.982,-2.982 -7.824,-2.982 -10.807,0l-464.682,464.683c-2.983,2.982 -2.983,7.824 0,10.807l10.807,10.807c2.982,2.982 7.825,2.982 10.807,0l464.683,-464.683Z" style="fill:#6b6b6b;"/><path d="M1147.5,1294.16c2.982,-2.983 2.982,-7.825 0,-10.808l-10.807,-10.807c-2.982,-2.982 -7.825,-2.982 -10.807,0l-464.683,464.683c-2.982,2.982 -2.982,7.825 0,10.807l10.807,10.807c2.983,2.983 7.825,2.983 10.807,0l464.683,-464.682Z" style="fill:#6b6b6b;"/><path d="M1190.73,1337.39c2.982,-2.982 2.982,-7.825 0,-10.807l-10.808,-10.807c-2.982,-2.982 -7.824,-2.982 -10.807,0l-464.682,464.683c-2.983,2.982 -2.983,7.824 0,10.807l10.807,10.807c2.982,2.982 7.825,2.982 10.807,0l464.683,-464.683Z" style="fill:#6b6b6b;"/><path d="M1233.96,1380.62c2.982,-2.983 2.982,-7.825 0,-10.808l-10.807,-10.807c-2.982,-2.982 -7.825,-2.982 -10.807,0l-464.683,464.683c-2.982,2.982 -2.982,7.825 0,10.807l10.807,10.807c2.983,2.983 7.825,2.983 10.807,0l464.683,-464.682Z" style="fill:#6b6b6b;"/><path d="M1277.19,1423.85c2.982,-2.982 2.982,-7.825 0,-10.807l-10.808,-10.807c-2.982,-2.982 -7.824,-2.982 -10.807,0l-464.682,464.683c-2.983,2.982 -2.983,7.824 0,10.807l10.807,10.807c2.982,2.982 7.825,2.982 10.807,0l464.683,-464.683Z" style="fill:#6b6b6b;"/><path d="M1320.42,1467.08c2.982,-2.983 2.982,-7.825 0,-10.808l-10.807,-10.807c-2.982,-2.982 -7.825,-2.982 -10.807,0l-464.683,464.683c-2.982,2.982 -2.982,7.825 0,10.807l10.807,10.807c2.983,2.983 7.825,2.983 10.807,0l464.683,-464.682Z" style="fill:#6b6b6b;"/><path d="M1363.64,1510.31c2.982,-2.982 2.982,-7.825 0,-10.807l-10.808,-10.807c-2.982,-2.982 -7.824,-2.982 -10.807,0l-464.682,464.683c-2.983,2.982 -2.983,7.824 0,10.807l10.807,10.807c2.982,2.982 7.825,2.982 10.807,0l464.683,-464.683Z" style="fill:#6b6b6b;"/></g></g><path d="M764.179,1360.24l366.806,0l15.284,15.283l0,366.806l-15.284,15.284l-366.806,0l-15.283,-15.284l0,-366.806l15.283,-15.283" style="fill:none;stroke:#737373;stroke-width:4px;"/><g><circle cx="1176.84" cy="1390.81" r="15.284" style="fill:#767676;stroke:#737373;stroke-width:4px;"/><circle cx="1237.97" cy="1390.81" r="15.284" style="fill:#767676;stroke:#737373;stroke-width:4px;"/><circle cx="1299.1" cy="1390.81" r="15.284" style="fill:#767676;stroke:#737373;stroke-width:4px;"/><circle cx="1360.24" cy="1390.81" r="15.284" style="fill:#767676;stroke:#737373;stroke-width:4px;"/><circle cx="1421.37" cy="1390.81" r="15.284" style="fill:#767676;stroke:#737373;stroke-width:4px;"/><circle cx="1482.51" cy="1390.81" r="15.284" style="fill:#767676;stroke:#737373;stroke-width:4px;"/><circle cx="1543.64" cy="1390.81" r="15.284" style="fill:#767676;stroke:#737373;stroke-width:4px;"/><circle cx="1604.78" cy="1390.81" r="15.284" style="fill:#767676;stroke:#737373;stroke-width:4px;"/><circle cx="1665.91" cy="1390.81" r="15.284" style="fill:#767676;stroke:#737373;stroke-width:4px;"/><circle cx="1727.05" cy="1390.81" r="15.284" style="fill:#767676;stroke:#737373;stroke-width:4px;"/></g></g></svg>