<?xml version="1.0" encoding="UTF-8" standalone="no"?><!DOCTYPE svg PUBLIC "-//W3C//DTD SVG 1.1//EN" "http://www.w3.org/Graphics/SVG/1.1/DTD/svg11.dtd"><svg width="100%" height="100%" viewBox="0 0 2048 2048" version="1.1" xmlns="http://www.w3.org/2000/svg" xmlns:xlink="http://www.w3.org/1999/xlink" xml:space="preserve" style="fill-rule:evenodd;clip-rule:evenodd;stroke-linecap:round;stroke-linejoin:round;stroke-miterlimit:1.5;"><g><path d="M2026.44,776.084l0,-64.673l-194.021,-194.022l-129.347,0l-75.453,75.453" style="fill:#7b7b7b;"/><path d="M312.589,689.853l75.453,0l64.674,64.673l204.8,0l107.789,-107.789l388.042,0l-43.115,204.8l-614.4,86.231l-215.579,-150.905" style="fill:#7b7b7b;"/><path d="M948.547,1509.05l107.79,0l150.905,-150.906l668.295,0l53.895,-53.894l-797.643,0l-183.242,204.8Z" style="fill:#7b7b7b;"/><path d="M0,776.084l107.789,-107.789l215.579,0l107.79,107.789l215.579,0l107.789,-107.789l323.369,0l107.789,-107.79l646.737,0l215.579,215.579l0,431.158l-107.789,107.79l-754.527,0l-215.579,215.579l-107.789,0l21.558,-21.558l-43.116,0l-21.558,21.558l-819.2,0l0,-754.527Z" style="fill:#808080;"/><clipPath id="_clip1"><path d="M0,776.084l107.789,-107.789l215.579,0l107.79,107.789l215.579,0l107.789,-107.789l323.369,0l107.789,-107.79l646.737,0l215.579,215.579l0,431.158l-107.789,107.79l-754.527,0l-215.579,215.579l-107.789,0l21.558,-21.558l-43.116,0l-21.558,21.558l-819.2,0l0,-754.527Z"/></clipPath><g clip-path="url(#_clip1)"><path d="M840.758,1509.05l301.81,-301.811l43.116,0l-301.81,301.811l-43.116,0" style="fill:url(#_Linear2);"/><path d="M862.316,1552.17l0,-21.557l323.368,-323.369l646.737,0l107.79,-107.789l0,-431.158" style="fill:none;stroke:#7e7e7e;stroke-width:8px;"/><path d="M1379.7,560.505l0,388.042l86.232,86.232l452.716,0l0,-344.926l-86.232,-86.232l-194.021,0l-43.116,-43.116" style="fill:none;stroke:#7e7e7e;stroke-width:8px;"/><path d="M819.2,1530.61l323.368,-323.369l0,-43.116l129.348,-129.347l0,-323.368l-129.348,-129.348" style="fill:none;stroke:#7e7e7e;stroke-width:8px;"/><g><path d="M1401.26,883.874c0,-59.491 48.299,-107.79 107.79,-107.79c59.49,0 107.789,48.299 107.789,107.79c0,59.49 -48.299,107.789 -107.789,107.789c-59.491,0 -107.79,-48.299 -107.79,-107.789Z" style="fill:url(#_Radial3);stroke:#7e7e7e;stroke-width:8px;"/><path d="M1401.26,722.189c0,29.746 24.15,53.895 53.895,53.895c29.745,0 53.895,-24.149 53.895,-53.895c0,-29.745 -24.15,-53.894 -53.895,-53.894c-29.745,0 -53.895,24.149 -53.895,53.894Z" style="fill:url(#_Radial4);stroke:#7e7e7e;stroke-width:8px;"/><path d="M1509.05,722.189c0,29.746 24.149,53.895 53.894,53.895c29.746,0 53.895,-24.149 53.895,-53.895c0,-29.745 -24.149,-53.894 -53.895,-53.894c-29.745,0 -53.894,24.149 -53.894,53.894Z" style="fill:url(#_Radial5);stroke:#7e7e7e;stroke-width:8px;"/></g><g><path d="M786.863,689.853c-5.949,0 -10.779,4.83 -10.779,10.779l0,21.557c0,5.95 4.83,10.779 10.779,10.779l280.253,0c5.949,0 10.779,-4.829 10.779,-10.779l0,-21.557c0,-5.949 -4.83,-10.779 -10.779,-10.779l-280.253,0Z" style="fill:url(#_Linear6);"/><path d="M786.863,754.526c-5.949,0 -10.779,4.83 -10.779,10.779l0,21.558c0,5.949 4.83,10.779 10.779,10.779l280.253,0c5.949,0 10.779,-4.83 10.779,-10.779l0,-21.558c0,-5.949 -4.83,-10.779 -10.779,-10.779l-280.253,0Z" style="fill:url(#_Linear7);"/><path d="M786.863,819.2c-5.949,0 -10.779,4.83 -10.779,10.779l0,21.558c0,5.949 4.83,10.779 10.779,10.779l280.253,0c5.949,0 10.779,-4.83 10.779,-10.779l0,-21.558c0,-5.949 -4.83,-10.779 -10.779,-10.779l-280.253,0Z" style="fill:url(#_Linear8);"/><path d="M786.863,883.874c-5.949,0 -10.779,4.83 -10.779,10.779l0,21.558c0,5.949 4.83,10.778 10.779,10.778l280.253,0c5.949,0 10.779,-4.829 10.779,-10.778l0,-21.558c0,-5.949 -4.83,-10.779 -10.779,-10.779l-280.253,0Z" style="fill:url(#_Linear9);"/><path d="M786.863,948.547c-5.949,0 -10.779,4.83 -10.779,10.779l0,21.558c0,5.949 4.83,10.779 10.779,10.779l280.253,0c5.949,0 10.779,-4.83 10.779,-10.779l0,-21.558c0,-5.949 -4.83,-10.779 -10.779,-10.779l-280.253,0Z" style="fill:url(#_Linear10);"/><path d="M786.863,1013.22c-5.949,0 -10.779,4.83 -10.779,10.779l0,21.558c0,5.949 4.83,10.779 10.779,10.779l280.253,0c5.949,0 10.779,-4.83 10.779,-10.779l0,-21.558c0,-5.949 -4.83,-10.779 -10.779,-10.779l-280.253,0Z" style="fill:url(#_Linear11);"/><path d="M786.863,1077.89c-5.949,0 -10.779,4.83 -10.779,10.779l0,21.558c0,5.949 4.83,10.779 10.779,10.779l280.253,0c5.949,0 10.779,-4.83 10.779,-10.779l0,-21.558c0,-5.949 -4.83,-10.779 -10.779,-10.779l-280.253,0Z" style="fill:url(#_Linear12);"/><path d="M786.863,1142.57c-5.949,0 -10.779,4.83 -10.779,10.779l0,21.558c0,5.949 4.83,10.779 10.779,10.779l280.253,0c5.949,0 10.779,-4.83 10.779,-10.779l0,-21.558c0,-5.949 -4.83,-10.779 -10.779,-10.779l-280.253,0Z" style="fill:url(#_Linear13);"/></g><path d="M1121.01,625.179l64.673,64.674l0,194.021l-86.231,86.231l0,215.579l-21.558,21.558l-301.811,0l-64.673,-64.674l0,-215.579l21.557,-21.557l0,-161.685l-64.673,-64.673" style="fill:none;stroke:#7e7e7e;stroke-width:8px;"/><path d="M711.411,1099.45l21.557,-21.558l0,-64.674l-21.557,-21.558" style="fill:none;stroke:#7e7e7e;stroke-width:8px;"/><path d="M1918.65,732.968l-86.232,86.232l0,150.905l-21.558,21.558l-107.789,0l-43.116,43.116" style="fill:none;stroke:#7e7e7e;stroke-width:8px;"/><path d="M1164.13,905.432l0,-86.232l21.558,-21.558" style="fill:none;stroke:#7e7e7e;stroke-width:8px;"/><path d="M711.411,926.989l0,-86.231l-21.558,-21.558l-172.464,0l-43.115,-43.116" style="fill:none;stroke:#7e7e7e;stroke-width:8px;"/><path d="M0,1422.82l64.674,0l21.558,21.558l0,21.558l43.115,43.116l150.906,0l21.558,-21.558l86.231,0l21.558,21.558l86.232,0l21.557,21.558" style="fill:none;stroke:#7e7e7e;stroke-width:8px;"/><path d="M215.579,1509.05l21.558,-21.558l0,-64.674l43.116,-43.116l301.81,0l43.116,-43.116l0,-344.926l64.674,-64.674l21.558,0" style="fill:none;stroke:#7e7e7e;stroke-width:8px;"/><path d="M43.116,862.316l43.116,-43.116l237.136,0l21.558,-21.558l43.116,0l21.558,-21.558l-86.232,-86.231l-150.905,0l-43.116,43.115l-64.673,0l-21.558,-21.557" style="fill:none;stroke:#7e7e7e;stroke-width:8px;"/></g><g><g><path d="M1088.67,932.379c0,-2.975 2.415,-5.39 5.389,-5.39c2.975,0 5.39,2.415 5.39,5.39c0,2.974 -2.415,5.389 -5.39,5.389c-2.974,0 -5.389,-2.415 -5.389,-5.389Z" style="fill:#7b7b7b;"/><path d="M1088.67,910.821c0,-2.974 2.415,-5.389 5.389,-5.389c2.975,0 5.39,2.415 5.39,5.389c0,2.975 -2.415,5.39 -5.39,5.39c-2.974,0 -5.389,-2.415 -5.389,-5.39Z" style="fill:#7b7b7b;"/><path d="M1110.23,910.821c0,-2.974 2.415,-5.389 5.389,-5.389c2.975,0 5.39,2.415 5.39,5.389c0,2.975 -2.415,5.39 -5.39,5.39c-2.974,0 -5.389,-2.415 -5.389,-5.39Z" style="fill:#7b7b7b;"/><path d="M1088.67,889.263c0,-2.974 2.415,-5.389 5.389,-5.389c2.975,0 5.39,2.415 5.39,5.389c0,2.975 -2.415,5.39 -5.39,5.39c-2.974,0 -5.389,-2.415 -5.389,-5.39Z" style="fill:#7b7b7b;"/><path d="M1110.23,889.263c0,-2.974 2.415,-5.389 5.389,-5.389c2.975,0 5.39,2.415 5.39,5.389c0,2.975 -2.415,5.39 -5.39,5.39c-2.974,0 -5.389,-2.415 -5.389,-5.39Z" style="fill:#7b7b7b;"/><path d="M1131.79,889.263c0,-2.974 2.415,-5.389 5.39,-5.389c2.974,0 5.389,2.415 5.389,5.389c0,2.975 -2.415,5.39 -5.389,5.39c-2.975,0 -5.39,-2.415 -5.39,-5.39Z" style="fill:#7b7b7b;"/><path d="M1088.67,867.705c0,-2.974 2.415,-5.389 5.389,-5.389c2.975,0 5.39,2.415 5.39,5.389c0,2.975 -2.415,5.39 -5.39,5.39c-2.974,0 -5.389,-2.415 -5.389,-5.39Z" style="fill:#7b7b7b;"/><path d="M1110.23,867.705c0,-2.974 2.415,-5.389 5.389,-5.389c2.975,0 5.39,2.415 5.39,5.389c0,2.975 -2.415,5.39 -5.39,5.39c-2.974,0 -5.389,-2.415 -5.389,-5.39Z" style="fill:#7b7b7b;"/><path d="M1131.79,867.705c0,-2.974 2.415,-5.389 5.39,-5.389c2.974,0 5.389,2.415 5.389,5.389c0,2.975 -2.415,5.39 -5.389,5.39c-2.975,0 -5.39,-2.415 -5.39,-5.39Z" style="fill:#7b7b7b;"/><path d="M1088.67,846.147c0,-2.974 2.415,-5.389 5.389,-5.389c2.975,0 5.39,2.415 5.39,5.389c0,2.975 -2.415,5.39 -5.39,5.39c-2.974,0 -5.389,-2.415 -5.389,-5.39Z" style="fill:#7b7b7b;"/><path d="M1110.23,846.147c0,-2.974 2.415,-5.389 5.389,-5.389c2.975,0 5.39,2.415 5.39,5.389c0,2.975 -2.415,5.39 -5.39,5.39c-2.974,0 -5.389,-2.415 -5.389,-5.39Z" style="fill:#7b7b7b;"/><path d="M1131.79,846.147c0,-2.974 2.415,-5.389 5.39,-5.389c2.974,0 5.389,2.415 5.389,5.389c0,2.975 -2.415,5.39 -5.389,5.39c-2.975,0 -5.39,-2.415 -5.39,-5.39Z" style="fill:#7b7b7b;"/><path d="M1088.67,824.589c0,-2.974 2.415,-5.389 5.389,-5.389c2.975,0 5.39,2.415 5.39,5.389c0,2.975 -2.415,5.39 -5.39,5.39c-2.974,0 -5.389,-2.415 -5.389,-5.39Z" style="fill:#7b7b7b;"/><path d="M1110.23,824.589c0,-2.974 2.415,-5.389 5.389,-5.389c2.975,0 5.39,2.415 5.39,5.389c0,2.975 -2.415,5.39 -5.39,5.39c-2.974,0 -5.389,-2.415 -5.389,-5.39Z" style="fill:#7b7b7b;"/><path d="M1131.79,824.589c0,-2.974 2.415,-5.389 5.39,-5.389c2.974,0 5.389,2.415 5.389,5.389c0,2.975 -2.415,5.39 -5.389,5.39c-2.975,0 -5.39,-2.415 -5.39,-5.39Z" style="fill:#7b7b7b;"/><path d="M1088.67,803.032c0,-2.975 2.415,-5.39 5.389,-5.39c2.975,0 5.39,2.415 5.39,5.39c0,2.974 -2.415,5.389 -5.39,5.389c-2.974,0 -5.389,-2.415 -5.389,-5.389Z" style="fill:#7b7b7b;"/><path d="M1110.23,803.032c0,-2.975 2.415,-5.39 5.389,-5.39c2.975,0 5.39,2.415 5.39,5.39c0,2.974 -2.415,5.389 -5.39,5.389c-2.974,0 -5.389,-2.415 -5.389,-5.389Z" style="fill:#7b7b7b;"/><path d="M1131.79,803.032c0,-2.975 2.415,-5.39 5.39,-5.39c2.974,0 5.389,2.415 5.389,5.39c0,2.974 -2.415,5.389 -5.389,5.389c-2.975,0 -5.39,-2.415 -5.39,-5.389Z" style="fill:#7b7b7b;"/><path d="M1088.67,781.474c0,-2.975 2.415,-5.39 5.389,-5.39c2.975,0 5.39,2.415 5.39,5.39c0,2.974 -2.415,5.389 -5.39,5.389c-2.974,0 -5.389,-2.415 -5.389,-5.389Z" style="fill:#7b7b7b;"/><path d="M1110.23,781.474c0,-2.975 2.415,-5.39 5.389,-5.39c2.975,0 5.39,2.415 5.39,5.39c0,2.974 -2.415,5.389 -5.39,5.389c-2.974,0 -5.389,-2.415 -5.389,-5.389Z" style="fill:#7b7b7b;"/><path d="M1131.79,781.474c0,-2.975 2.415,-5.39 5.39,-5.39c2.974,0 5.389,2.415 5.389,5.39c0,2.974 -2.415,5.389 -5.389,5.389c-2.975,0 -5.39,-2.415 -5.39,-5.389Z" style="fill:#7b7b7b;"/><path d="M1088.67,759.916c0,-2.975 2.415,-5.39 5.389,-5.39c2.975,0 5.39,2.415 5.39,5.39c0,2.974 -2.415,5.389 -5.39,5.389c-2.974,0 -5.389,-2.415 -5.389,-5.389Z" style="fill:#7b7b7b;"/><path d="M1110.23,759.916c0,-2.975 2.415,-5.39 5.389,-5.39c2.975,0 5.39,2.415 5.39,5.39c0,2.974 -2.415,5.389 -5.39,5.389c-2.974,0 -5.389,-2.415 -5.389,-5.389Z" style="fill:#7b7b7b;"/><path d="M1131.79,759.916c0,-2.975 2.415,-5.39 5.39,-5.39c2.974,0 5.389,2.415 5.389,5.39c0,2.974 -2.415,5.389 -5.389,5.389c-2.975,0 -5.39,-2.415 -5.39,-5.389Z" style="fill:#7b7b7b;"/><path d="M1088.67,738.358c0,-2.975 2.415,-5.39 5.389,-5.39c2.975,0 5.39,2.415 5.39,5.39c0,2.974 -2.415,5.389 -5.39,5.389c-2.974,0 -5.389,-2.415 -5.389,-5.389Z" style="fill:#7b7b7b;"/><path d="M1110.23,738.358c0,-2.975 2.415,-5.39 5.389,-5.39c2.975,0 5.39,2.415 5.39,5.39c0,2.974 -2.415,5.389 -5.39,5.389c-2.974,0 -5.389,-2.415 -5.389,-5.389Z" style="fill:#7b7b7b;"/><path d="M1131.79,738.358c0,-2.975 2.415,-5.39 5.39,-5.39c2.974,0 5.389,2.415 5.389,5.39c0,2.974 -2.415,5.389 -5.389,5.389c-2.975,0 -5.39,-2.415 -5.39,-5.389Z" style="fill:#7b7b7b;"/><path d="M1088.67,716.8c0,-2.975 2.415,-5.389 5.389,-5.389c2.975,0 5.39,2.414 5.39,5.389c0,2.975 -2.415,5.389 -5.39,5.389c-2.974,0 -5.389,-2.414 -5.389,-5.389Z" style="fill:#7b7b7b;"/><path d="M1110.23,716.8c0,-2.975 2.415,-5.389 5.389,-5.389c2.975,0 5.39,2.414 5.39,5.389c0,2.975 -2.415,5.389 -5.39,5.389c-2.974,0 -5.389,-2.414 -5.389,-5.389Z" style="fill:#7b7b7b;"/><path d="M1131.79,716.8c0,-2.975 2.415,-5.389 5.39,-5.389c2.974,0 5.389,2.414 5.389,5.389c0,2.975 -2.415,5.389 -5.389,5.389c-2.975,0 -5.39,-2.414 -5.39,-5.389Z" style="fill:#7b7b7b;"/><path d="M1088.67,695.242c0,-2.974 2.415,-5.389 5.389,-5.389c2.975,0 5.39,2.415 5.39,5.389c0,2.975 -2.415,5.39 -5.39,5.39c-2.974,0 -5.389,-2.415 -5.389,-5.39Z" style="fill:#7b7b7b;"/><path d="M1110.23,695.242c0,-2.974 2.415,-5.389 5.389,-5.389c2.975,0 5.39,2.415 5.39,5.389c0,2.975 -2.415,5.39 -5.39,5.39c-2.974,0 -5.389,-2.415 -5.389,-5.39Z" style="fill:#7b7b7b;"/><path d="M1131.79,695.242c0,-2.974 2.415,-5.389 5.39,-5.389c2.974,0 5.389,2.415 5.389,5.389c0,2.975 -2.415,5.39 -5.389,5.39c-2.975,0 -5.39,-2.415 -5.39,-5.39Z" style="fill:#7b7b7b;"/></g><g><path d="M1907.87,781.474c0,2.974 -2.415,5.389 -5.39,5.389c-2.974,0 -5.389,-2.415 -5.389,-5.389c0,-2.975 2.415,-5.39 5.389,-5.39c2.975,0 5.39,2.415 5.39,5.39Z" style="fill:#7b7b7b;"/><path d="M1907.87,803.032c0,2.974 -2.415,5.389 -5.39,5.389c-2.974,0 -5.389,-2.415 -5.389,-5.389c0,-2.975 2.415,-5.39 5.389,-5.39c2.975,0 5.39,2.415 5.39,5.39Z" style="fill:#7b7b7b;"/><path d="M1886.32,803.032c0,2.974 -2.415,5.389 -5.39,5.389c-2.974,0 -5.389,-2.415 -5.389,-5.389c0,-2.975 2.415,-5.39 5.389,-5.39c2.975,0 5.39,2.415 5.39,5.39Z" style="fill:#7b7b7b;"/><path d="M1907.87,824.589c0,2.975 -2.415,5.39 -5.39,5.39c-2.974,0 -5.389,-2.415 -5.389,-5.39c0,-2.974 2.415,-5.389 5.389,-5.389c2.975,0 5.39,2.415 5.39,5.389Z" style="fill:#7b7b7b;"/><path d="M1886.32,824.589c0,2.975 -2.415,5.39 -5.39,5.39c-2.974,0 -5.389,-2.415 -5.389,-5.39c0,-2.974 2.415,-5.389 5.389,-5.389c2.975,0 5.39,2.415 5.39,5.389Z" style="fill:#7b7b7b;"/><path d="M1864.76,824.589c0,2.975 -2.415,5.39 -5.39,5.39c-2.974,0 -5.389,-2.415 -5.389,-5.39c0,-2.974 2.415,-5.389 5.389,-5.389c2.975,0 5.39,2.415 5.39,5.389Z" style="fill:#7b7b7b;"/><path d="M1907.87,846.147c0,2.975 -2.415,5.39 -5.39,5.39c-2.974,0 -5.389,-2.415 -5.389,-5.39c0,-2.974 2.415,-5.389 5.389,-5.389c2.975,0 5.39,2.415 5.39,5.389Z" style="fill:#7b7b7b;"/><path d="M1886.32,846.147c0,2.975 -2.415,5.39 -5.39,5.39c-2.974,0 -5.389,-2.415 -5.389,-5.39c0,-2.974 2.415,-5.389 5.389,-5.389c2.975,0 5.39,2.415 5.39,5.389Z" style="fill:#7b7b7b;"/><path d="M1864.76,846.147c0,2.975 -2.415,5.39 -5.39,5.39c-2.974,0 -5.389,-2.415 -5.389,-5.39c0,-2.974 2.415,-5.389 5.389,-5.389c2.975,0 5.39,2.415 5.39,5.389Z" style="fill:#7b7b7b;"/><path d="M1907.87,867.705c0,2.975 -2.415,5.39 -5.39,5.39c-2.974,0 -5.389,-2.415 -5.389,-5.39c0,-2.974 2.415,-5.389 5.389,-5.389c2.975,0 5.39,2.415 5.39,5.389Z" style="fill:#7b7b7b;"/><path d="M1886.32,867.705c0,2.975 -2.415,5.39 -5.39,5.39c-2.974,0 -5.389,-2.415 -5.389,-5.39c0,-2.974 2.415,-5.389 5.389,-5.389c2.975,0 5.39,2.415 5.39,5.389Z" style="fill:#7b7b7b;"/><path d="M1864.76,867.705c0,2.975 -2.415,5.39 -5.39,5.39c-2.974,0 -5.389,-2.415 -5.389,-5.39c0,-2.974 2.415,-5.389 5.389,-5.389c2.975,0 5.39,2.415 5.39,5.389Z" style="fill:#7b7b7b;"/><path d="M1907.87,889.263c0,2.975 -2.415,5.39 -5.39,5.39c-2.974,0 -5.389,-2.415 -5.389,-5.39c0,-2.974 2.415,-5.389 5.389,-5.389c2.975,0 5.39,2.415 5.39,5.389Z" style="fill:#7b7b7b;"/><path d="M1886.32,889.263c0,2.975 -2.415,5.39 -5.39,5.39c-2.974,0 -5.389,-2.415 -5.389,-5.39c0,-2.974 2.415,-5.389 5.389,-5.389c2.975,0 5.39,2.415 5.39,5.389Z" style="fill:#7b7b7b;"/><path d="M1864.76,889.263c0,2.975 -2.415,5.39 -5.39,5.39c-2.974,0 -5.389,-2.415 -5.389,-5.39c0,-2.974 2.415,-5.389 5.389,-5.389c2.975,0 5.39,2.415 5.39,5.389Z" style="fill:#7b7b7b;"/><path d="M1907.87,910.821c0,2.975 -2.415,5.39 -5.39,5.39c-2.974,0 -5.389,-2.415 -5.389,-5.39c0,-2.974 2.415,-5.389 5.389,-5.389c2.975,0 5.39,2.415 5.39,5.389Z" style="fill:#7b7b7b;"/><path d="M1886.32,910.821c0,2.975 -2.415,5.39 -5.39,5.39c-2.974,0 -5.389,-2.415 -5.389,-5.39c0,-2.974 2.415,-5.389 5.389,-5.389c2.975,0 5.39,2.415 5.39,5.389Z" style="fill:#7b7b7b;"/><path d="M1864.76,910.821c0,2.975 -2.415,5.39 -5.39,5.39c-2.974,0 -5.389,-2.415 -5.389,-5.39c0,-2.974 2.415,-5.389 5.389,-5.389c2.975,0 5.39,2.415 5.39,5.389Z" style="fill:#7b7b7b;"/><path d="M1907.87,932.379c0,2.974 -2.415,5.389 -5.39,5.389c-2.974,0 -5.389,-2.415 -5.389,-5.389c0,-2.975 2.415,-5.39 5.389,-5.39c2.975,0 5.39,2.415 5.39,5.39Z" style="fill:#7b7b7b;"/><path d="M1886.32,932.379c0,2.974 -2.415,5.389 -5.39,5.389c-2.974,0 -5.389,-2.415 -5.389,-5.389c0,-2.975 2.415,-5.39 5.389,-5.39c2.975,0 5.39,2.415 5.39,5.39Z" style="fill:#7b7b7b;"/><path d="M1864.76,932.379c0,2.974 -2.415,5.389 -5.39,5.389c-2.974,0 -5.389,-2.415 -5.389,-5.389c0,-2.975 2.415,-5.39 5.389,-5.39c2.975,0 5.39,2.415 5.39,5.39Z" style="fill:#7b7b7b;"/><path d="M1907.87,953.937c0,2.974 -2.415,5.389 -5.39,5.389c-2.974,0 -5.389,-2.415 -5.389,-5.389c0,-2.975 2.415,-5.39 5.389,-5.39c2.975,0 5.39,2.415 5.39,5.39Z" style="fill:#7b7b7b;"/><path d="M1886.32,953.937c0,2.974 -2.415,5.389 -5.39,5.389c-2.974,0 -5.389,-2.415 -5.389,-5.389c0,-2.975 2.415,-5.39 5.389,-5.39c2.975,0 5.39,2.415 5.39,5.39Z" style="fill:#7b7b7b;"/><path d="M1864.76,953.937c0,2.974 -2.415,5.389 -5.39,5.389c-2.974,0 -5.389,-2.415 -5.389,-5.389c0,-2.975 2.415,-5.39 5.389,-5.39c2.975,0 5.39,2.415 5.39,5.39Z" style="fill:#7b7b7b;"/><path d="M1907.87,975.495c0,2.974 -2.415,5.389 -5.39,5.389c-2.974,0 -5.389,-2.415 -5.389,-5.389c0,-2.975 2.415,-5.39 5.389,-5.39c2.975,0 5.39,2.415 5.39,5.39Z" style="fill:#7b7b7b;"/><path d="M1886.32,975.495c0,2.974 -2.415,5.389 -5.39,5.389c-2.974,0 -5.389,-2.415 -5.389,-5.389c0,-2.975 2.415,-5.39 5.389,-5.39c2.975,0 5.39,2.415 5.39,5.39Z" style="fill:#7b7b7b;"/><path d="M1864.76,975.495c0,2.974 -2.415,5.389 -5.39,5.389c-2.974,0 -5.389,-2.415 -5.389,-5.389c0,-2.975 2.415,-5.39 5.389,-5.39c2.975,0 5.39,2.415 5.39,5.39Z" style="fill:#7b7b7b;"/><path d="M1907.87,997.053c0,2.974 -2.415,5.389 -5.39,5.389c-2.974,0 -5.389,-2.415 -5.389,-5.389c0,-2.975 2.415,-5.39 5.389,-5.39c2.975,0 5.39,2.415 5.39,5.39Z" style="fill:#7b7b7b;"/><path d="M1886.32,997.053c0,2.974 -2.415,5.389 -5.39,5.389c-2.974,0 -5.389,-2.415 -5.389,-5.389c0,-2.975 2.415,-5.39 5.389,-5.39c2.975,0 5.39,2.415 5.39,5.39Z" style="fill:#7b7b7b;"/><path d="M1864.76,997.053c0,2.974 -2.415,5.389 -5.39,5.389c-2.974,0 -5.389,-2.415 -5.389,-5.389c0,-2.975 2.415,-5.39 5.389,-5.39c2.975,0 5.39,2.415 5.39,5.39Z" style="fill:#7b7b7b;"/><path d="M1907.87,1018.61c0,2.974 -2.415,5.389 -5.39,5.389c-2.974,0 -5.389,-2.415 -5.389,-5.389c0,-2.975 2.415,-5.39 5.389,-5.39c2.975,0 5.39,2.415 5.39,5.39Z" style="fill:#7b7b7b;"/><path d="M1886.32,1018.61c0,2.974 -2.415,5.389 -5.39,5.389c-2.974,0 -5.389,-2.415 -5.389,-5.389c0,-2.975 2.415,-5.39 5.389,-5.39c2.975,0 5.39,2.415 5.39,5.39Z" style="fill:#7b7b7b;"/><path d="M1864.76,1018.61c0,2.974 -2.415,5.389 -5.39,5.389c-2.974,0 -5.389,-2.415 -5.389,-5.389c0,-2.975 2.415,-5.39 5.389,-5.39c2.975,0 5.39,2.415 5.39,5.39Z" style="fill:#7b7b7b;"/></g><g><path d="M1250.36,1034.78l-21.558,0l0,21.558l-21.558,0l0,-21.558l-21.558,0l0,-21.558l21.558,0l0,-21.558l21.558,0l0,21.558l21.558,0l0,21.558Z" style="fill:#7e7e7e;"/><path d="M1250.36,937.768l-21.558,0l0,21.558l-21.558,0l0,-21.558l-21.558,0l0,-21.557l21.558,0l0,-21.558l21.558,0l0,21.558l21.558,0l0,21.557Z" style="fill:#7e7e7e;"/></g></g><path d="M620.867,1358.15c14.278,0 25.87,-11.591 25.87,-25.869l0,-465.651c0,-14.277 -11.592,-25.869 -25.87,-25.869l-487.208,0c-14.278,0 -25.87,11.592 -25.87,25.869l0,465.651c0,14.278 11.592,25.869 25.87,25.869l487.208,0Z" style="fill:url(#_Linear14);"/><path d="M107.789,1271.92l43.116,-43.116l0,-258.695l-43.116,-43.116" style="fill:#808080;"/><path d="M0,829.979l53.895,0l43.116,43.116l0,64.673l43.115,43.116l0,237.137l-43.115,43.116l0,64.674l-43.116,43.115l-53.895,0l0,-75.452l21.558,0l21.558,-21.558l0,-64.674l-21.558,-21.558l-21.558,0l0,-355.705Zm0,183.242l21.558,0l21.558,-21.558l0,-64.674l-21.558,-21.557l-21.558,0l0,107.789Z" style="fill:#838383;"/><path d="M0,1271.92l10.779,0l10.779,-10.779l0,-43.116l-10.779,-10.779l-10.779,0l0,64.674Z" style="fill:#838383;"/><path d="M0,991.663l10.779,0l10.779,-10.779l0,-43.116l-10.779,-10.779l-10.779,0l0,64.674Z" style="fill:#838383;"/><g><path d="M102.4,1099.45c0,-2.975 2.415,-5.39 5.389,-5.39c2.975,0 5.39,2.415 5.39,5.39c0,2.974 -2.415,5.389 -5.39,5.389c-2.974,0 -5.389,-2.415 -5.389,-5.389Z" style="fill:#7e7e7e;"/><path d="M102.4,1083.28c0,-2.974 2.415,-5.389 5.389,-5.389c2.975,0 5.39,2.415 5.39,5.389c0,2.975 -2.415,5.39 -5.39,5.39c-2.974,0 -5.389,-2.415 -5.389,-5.39Z" style="fill:#7e7e7e;"/><path d="M102.4,1228.8c0,-2.975 2.415,-5.389 5.389,-5.389c2.975,0 5.39,2.414 5.39,5.389c0,2.975 -2.415,5.389 -5.39,5.389c-2.974,0 -5.389,-2.414 -5.389,-5.389Z" style="fill:#7e7e7e;"/><path d="M102.4,1067.12c0,-2.975 2.415,-5.39 5.389,-5.39c2.975,0 5.39,2.415 5.39,5.39c0,2.974 -2.415,5.389 -5.39,5.389c-2.974,0 -5.389,-2.415 -5.389,-5.389Z" style="fill:#7e7e7e;"/><path d="M102.4,1212.63c0,-2.975 2.415,-5.39 5.389,-5.39c2.975,0 5.39,2.415 5.39,5.39c0,2.974 -2.415,5.389 -5.39,5.389c-2.974,0 -5.389,-2.415 -5.389,-5.389Z" style="fill:#7e7e7e;"/><path d="M102.4,1050.95c0,-2.974 2.415,-5.389 5.389,-5.389c2.975,0 5.39,2.415 5.39,5.389c0,2.975 -2.415,5.39 -5.39,5.39c-2.974,0 -5.389,-2.415 -5.389,-5.39Z" style="fill:#7e7e7e;"/><path d="M102.4,1196.46c0,-2.974 2.415,-5.389 5.389,-5.389c2.975,0 5.39,2.415 5.39,5.389c0,2.975 -2.415,5.39 -5.39,5.39c-2.974,0 -5.389,-2.415 -5.389,-5.39Z" style="fill:#7e7e7e;"/><path d="M102.4,1034.78c0,-2.975 2.415,-5.39 5.389,-5.39c2.975,0 5.39,2.415 5.39,5.39c0,2.974 -2.415,5.389 -5.39,5.389c-2.974,0 -5.389,-2.415 -5.389,-5.389Z" style="fill:#7e7e7e;"/><path d="M102.4,1180.3c0,-2.975 2.415,-5.39 5.389,-5.39c2.975,0 5.39,2.415 5.39,5.39c0,2.974 -2.415,5.389 -5.39,5.389c-2.974,0 -5.389,-2.415 -5.389,-5.389Z" style="fill:#7e7e7e;"/><path d="M102.4,1018.61c0,-2.975 2.415,-5.39 5.389,-5.39c2.975,0 5.39,2.415 5.39,5.39c0,2.974 -2.415,5.389 -5.39,5.389c-2.974,0 -5.389,-2.415 -5.389,-5.389Z" style="fill:#7e7e7e;"/><path d="M102.4,1164.13c0,-2.974 2.415,-5.389 5.389,-5.389c2.975,0 5.39,2.415 5.39,5.389c0,2.975 -2.415,5.39 -5.39,5.39c-2.974,0 -5.389,-2.415 -5.389,-5.39Z" style="fill:#7e7e7e;"/><path d="M102.4,1002.44c0,-2.974 2.415,-5.389 5.389,-5.389c2.975,0 5.39,2.415 5.39,5.389c0,2.975 -2.415,5.39 -5.39,5.39c-2.974,0 -5.389,-2.415 -5.389,-5.39Z" style="fill:#7e7e7e;"/><path d="M102.4,1147.96c0,-2.975 2.415,-5.39 5.389,-5.39c2.975,0 5.39,2.415 5.39,5.39c0,2.974 -2.415,5.389 -5.39,5.389c-2.974,0 -5.389,-2.415 -5.389,-5.389Z" style="fill:#7e7e7e;"/><path d="M102.4,1131.79c0,-2.974 2.415,-5.389 5.389,-5.389c2.975,0 5.39,2.415 5.39,5.389c0,2.975 -2.415,5.39 -5.39,5.39c-2.974,0 -5.389,-2.415 -5.389,-5.39Z" style="fill:#7e7e7e;"/><path d="M102.4,1115.62c0,-2.974 2.415,-5.389 5.389,-5.389c2.975,0 5.39,2.415 5.39,5.389c0,2.975 -2.415,5.39 -5.39,5.39c-2.974,0 -5.389,-2.415 -5.389,-5.39Z" style="fill:#7e7e7e;"/></g><g><path d="M86.232,1099.45c0,-2.975 2.415,-5.39 5.389,-5.39c2.975,0 5.39,2.415 5.39,5.39c0,2.974 -2.415,5.389 -5.39,5.389c-2.974,0 -5.389,-2.415 -5.389,-5.389Z" style="fill:#7e7e7e;"/><path d="M86.232,1083.28c0,-2.974 2.415,-5.389 5.389,-5.389c2.975,0 5.39,2.415 5.39,5.389c0,2.975 -2.415,5.39 -5.39,5.39c-2.974,0 -5.389,-2.415 -5.389,-5.39Z" style="fill:#7e7e7e;"/><path d="M86.232,1067.12c0,-2.975 2.415,-5.39 5.389,-5.39c2.975,0 5.39,2.415 5.39,5.39c0,2.974 -2.415,5.389 -5.39,5.389c-2.974,0 -5.389,-2.415 -5.389,-5.389Z" style="fill:#7e7e7e;"/><path d="M86.232,1212.63c0,-2.975 2.415,-5.39 5.389,-5.39c2.975,0 5.39,2.415 5.39,5.39c0,2.974 -2.415,5.389 -5.39,5.389c-2.974,0 -5.389,-2.415 -5.389,-5.389Z" style="fill:#7e7e7e;"/><path d="M86.232,1050.95c0,-2.974 2.415,-5.389 5.389,-5.389c2.975,0 5.39,2.415 5.39,5.389c0,2.975 -2.415,5.39 -5.39,5.39c-2.974,0 -5.389,-2.415 -5.389,-5.39Z" style="fill:#7e7e7e;"/><path d="M86.232,1196.46c0,-2.974 2.415,-5.389 5.389,-5.389c2.975,0 5.39,2.415 5.39,5.389c0,2.975 -2.415,5.39 -5.39,5.39c-2.974,0 -5.389,-2.415 -5.389,-5.39Z" style="fill:#7e7e7e;"/><path d="M86.232,1034.78c0,-2.975 2.415,-5.39 5.389,-5.39c2.975,0 5.39,2.415 5.39,5.39c0,2.974 -2.415,5.389 -5.39,5.389c-2.974,0 -5.389,-2.415 -5.389,-5.389Z" style="fill:#7e7e7e;"/><path d="M86.232,1180.3c0,-2.975 2.415,-5.39 5.389,-5.39c2.975,0 5.39,2.415 5.39,5.39c0,2.974 -2.415,5.389 -5.39,5.389c-2.974,0 -5.389,-2.415 -5.389,-5.389Z" style="fill:#7e7e7e;"/><path d="M86.232,1018.61c0,-2.975 2.415,-5.39 5.389,-5.39c2.975,0 5.39,2.415 5.39,5.39c0,2.974 -2.415,5.389 -5.39,5.389c-2.974,0 -5.389,-2.415 -5.389,-5.389Z" style="fill:#7e7e7e;"/><path d="M86.232,1164.13c0,-2.974 2.415,-5.389 5.389,-5.389c2.975,0 5.39,2.415 5.39,5.389c0,2.975 -2.415,5.39 -5.39,5.39c-2.974,0 -5.389,-2.415 -5.389,-5.39Z" style="fill:#7e7e7e;"/><path d="M86.232,1002.44c0,-2.974 2.415,-5.389 5.389,-5.389c2.975,0 5.39,2.415 5.39,5.389c0,2.975 -2.415,5.39 -5.39,5.39c-2.974,0 -5.389,-2.415 -5.389,-5.39Z" style="fill:#7e7e7e;"/><path d="M86.232,1147.96c0,-2.975 2.415,-5.39 5.389,-5.39c2.975,0 5.39,2.415 5.39,5.39c0,2.974 -2.415,5.389 -5.39,5.389c-2.974,0 -5.389,-2.415 -5.389,-5.389Z" style="fill:#7e7e7e;"/><path d="M86.232,986.274c0,-2.975 2.415,-5.39 5.389,-5.39c2.975,0 5.39,2.415 5.39,5.39c0,2.974 -2.415,5.389 -5.39,5.389c-2.974,0 -5.389,-2.415 -5.389,-5.389Z" style="fill:#7e7e7e;"/><path d="M86.232,1131.79c0,-2.974 2.415,-5.389 5.389,-5.389c2.975,0 5.39,2.415 5.39,5.389c0,2.975 -2.415,5.39 -5.39,5.39c-2.974,0 -5.389,-2.415 -5.389,-5.39Z" style="fill:#7e7e7e;"/><path d="M86.232,1115.62c0,-2.974 2.415,-5.389 5.389,-5.389c2.975,0 5.39,2.415 5.39,5.389c0,2.975 -2.415,5.39 -5.39,5.39c-2.974,0 -5.389,-2.415 -5.389,-5.39Z" style="fill:#7e7e7e;"/></g><g><path d="M70.063,1099.45c0,-2.975 2.415,-5.39 5.39,-5.39c2.974,0 5.389,2.415 5.389,5.39c0,2.974 -2.415,5.389 -5.389,5.389c-2.975,0 -5.39,-2.415 -5.39,-5.389Z" style="fill:#7e7e7e;"/><path d="M70.063,1083.28c0,-2.974 2.415,-5.389 5.39,-5.389c2.974,0 5.389,2.415 5.389,5.389c0,2.975 -2.415,5.39 -5.389,5.39c-2.975,0 -5.39,-2.415 -5.39,-5.39Z" style="fill:#7e7e7e;"/><path d="M70.063,1067.12c0,-2.975 2.415,-5.39 5.39,-5.39c2.974,0 5.389,2.415 5.389,5.39c0,2.974 -2.415,5.389 -5.389,5.389c-2.975,0 -5.39,-2.415 -5.39,-5.389Z" style="fill:#7e7e7e;"/><path d="M70.063,1050.95c0,-2.974 2.415,-5.389 5.39,-5.389c2.974,0 5.389,2.415 5.389,5.389c0,2.975 -2.415,5.39 -5.389,5.39c-2.975,0 -5.39,-2.415 -5.39,-5.39Z" style="fill:#7e7e7e;"/><path d="M70.063,1196.46c0,-2.974 2.415,-5.389 5.39,-5.389c2.974,0 5.389,2.415 5.389,5.389c0,2.975 -2.415,5.39 -5.389,5.39c-2.975,0 -5.39,-2.415 -5.39,-5.39Z" style="fill:#7e7e7e;"/><path d="M70.063,1034.78c0,-2.975 2.415,-5.39 5.39,-5.39c2.974,0 5.389,2.415 5.389,5.39c0,2.974 -2.415,5.389 -5.389,5.389c-2.975,0 -5.39,-2.415 -5.39,-5.389Z" style="fill:#7e7e7e;"/><path d="M70.063,1180.3c0,-2.975 2.415,-5.39 5.39,-5.39c2.974,0 5.389,2.415 5.389,5.39c0,2.974 -2.415,5.389 -5.389,5.389c-2.975,0 -5.39,-2.415 -5.39,-5.389Z" style="fill:#7e7e7e;"/><path d="M70.063,1018.61c0,-2.975 2.415,-5.39 5.39,-5.39c2.974,0 5.389,2.415 5.389,5.39c0,2.974 -2.415,5.389 -5.389,5.389c-2.975,0 -5.39,-2.415 -5.39,-5.389Z" style="fill:#7e7e7e;"/><path d="M70.063,1164.13c0,-2.974 2.415,-5.389 5.39,-5.389c2.974,0 5.389,2.415 5.389,5.389c0,2.975 -2.415,5.39 -5.389,5.39c-2.975,0 -5.39,-2.415 -5.39,-5.39Z" style="fill:#7e7e7e;"/><path d="M70.063,1002.44c0,-2.974 2.415,-5.389 5.39,-5.389c2.974,0 5.389,2.415 5.389,5.389c0,2.975 -2.415,5.39 -5.389,5.39c-2.975,0 -5.39,-2.415 -5.39,-5.39Z" style="fill:#7e7e7e;"/><path d="M70.063,1147.96c0,-2.975 2.415,-5.39 5.39,-5.39c2.974,0 5.389,2.415 5.389,5.39c0,2.974 -2.415,5.389 -5.389,5.389c-2.975,0 -5.39,-2.415 -5.39,-5.389Z" style="fill:#7e7e7e;"/><path d="M70.063,986.274c0,-2.975 2.415,-5.39 5.39,-5.39c2.974,0 5.389,2.415 5.389,5.39c0,2.974 -2.415,5.389 -5.389,5.389c-2.975,0 -5.39,-2.415 -5.39,-5.389Z" style="fill:#7e7e7e;"/><path d="M70.063,1131.79c0,-2.974 2.415,-5.389 5.39,-5.389c2.974,0 5.389,2.415 5.389,5.389c0,2.975 -2.415,5.39 -5.389,5.39c-2.975,0 -5.39,-2.415 -5.39,-5.39Z" style="fill:#7e7e7e;"/><path d="M70.063,970.105c0,-2.974 2.415,-5.389 5.39,-5.389c2.974,0 5.389,2.415 5.389,5.389c0,2.975 -2.415,5.39 -5.389,5.39c-2.975,0 -5.39,-2.415 -5.39,-5.39Z" style="fill:#7e7e7e;"/><path d="M70.063,1115.62c0,-2.974 2.415,-5.389 5.39,-5.389c2.974,0 5.389,2.415 5.389,5.389c0,2.975 -2.415,5.39 -5.389,5.39c-2.975,0 -5.39,-2.415 -5.39,-5.39Z" style="fill:#7e7e7e;"/></g></g><defs><linearGradient id="_Linear2" x1="0" y1="0" x2="1" y2="0" gradientUnits="userSpaceOnUse" gradientTransform="matrix(292.109,-292.109,292.109,292.109,840.758,1509.05)"><stop offset="0%" style="stop-color:#737373;stop-opacity:1"/><stop offset="100%" style="stop-color:#808080;stop-opacity:1"/></linearGradient><radialGradient id="_Radial3" cx="0" cy="0" r="1" gradientUnits="userSpaceOnUse" gradientTransform="matrix(6.6002e-15,-107.789,107.789,6.6002e-15,1509.05,883.874)"><stop offset="0%" style="stop-color:#888;stop-opacity:1"/><stop offset="100%" style="stop-color:#7e7e7e;stop-opacity:1"/></radialGradient><radialGradient id="_Radial4" cx="0" cy="0" r="1" gradientUnits="userSpaceOnUse" gradientTransform="matrix(-3.3001e-15,53.8947,53.8947,3.3001e-15,1455.16,722.189)"><stop offset="0%" style="stop-color:#888;stop-opacity:1"/><stop offset="100%" style="stop-color:#7e7e7e;stop-opacity:1"/></radialGradient><radialGradient id="_Radial5" cx="0" cy="0" r="1" gradientUnits="userSpaceOnUse" gradientTransform="matrix(-3.3001e-15,53.8947,53.8947,3.3001e-15,1562.95,722.189)"><stop offset="0%" style="stop-color:#888;stop-opacity:1"/><stop offset="100%" style="stop-color:#7e7e7e;stop-opacity:1"/></radialGradient><linearGradient id="_Linear6" x1="0" y1="0" x2="1" y2="0" gradientUnits="userSpaceOnUse" gradientTransform="matrix(301.811,3.15544e-30,3.15544e-30,301.811,776.084,711.411)"><stop offset="0%" style="stop-color:#808080;stop-opacity:1"/><stop offset="13%" style="stop-color:#808080;stop-opacity:1"/><stop offset="24%" style="stop-color:#808080;stop-opacity:1"/><stop offset="100%" style="stop-color:#737373;stop-opacity:1"/></linearGradient><linearGradient id="_Linear7" x1="0" y1="0" x2="1" y2="0" gradientUnits="userSpaceOnUse" gradientTransform="matrix(301.811,3.15544e-30,3.15544e-30,301.811,776.084,776.084)"><stop offset="0%" style="stop-color:#808080;stop-opacity:1"/><stop offset="13%" style="stop-color:#808080;stop-opacity:1"/><stop offset="24%" style="stop-color:#808080;stop-opacity:1"/><stop offset="100%" style="stop-color:#737373;stop-opacity:1"/></linearGradient><linearGradient id="_Linear8" x1="0" y1="0" x2="1" y2="0" gradientUnits="userSpaceOnUse" gradientTransform="matrix(301.811,3.15544e-30,3.15544e-30,301.811,776.084,840.758)"><stop offset="0%" style="stop-color:#808080;stop-opacity:1"/><stop offset="13%" style="stop-color:#808080;stop-opacity:1"/><stop offset="24%" style="stop-color:#808080;stop-opacity:1"/><stop offset="100%" style="stop-color:#737373;stop-opacity:1"/></linearGradient><linearGradient id="_Linear9" x1="0" y1="0" x2="1" y2="0" gradientUnits="userSpaceOnUse" gradientTransform="matrix(301.811,3.15544e-30,3.15544e-30,301.811,776.084,905.432)"><stop offset="0%" style="stop-color:#808080;stop-opacity:1"/><stop offset="13%" style="stop-color:#808080;stop-opacity:1"/><stop offset="24%" style="stop-color:#808080;stop-opacity:1"/><stop offset="100%" style="stop-color:#737373;stop-opacity:1"/></linearGradient><linearGradient id="_Linear10" x1="0" y1="0" x2="1" y2="0" gradientUnits="userSpaceOnUse" gradientTransform="matrix(301.811,3.15544e-30,3.15544e-30,301.811,776.084,970.105)"><stop offset="0%" style="stop-color:#808080;stop-opacity:1"/><stop offset="13%" style="stop-color:#808080;stop-opacity:1"/><stop offset="24%" style="stop-color:#808080;stop-opacity:1"/><stop offset="100%" style="stop-color:#737373;stop-opacity:1"/></linearGradient><linearGradient id="_Linear11" x1="0" y1="0" x2="1" y2="0" gradientUnits="userSpaceOnUse" gradientTransform="matrix(301.811,3.15544e-30,3.15544e-30,301.811,776.084,1034.78)"><stop offset="0%" style="stop-color:#808080;stop-opacity:1"/><stop offset="13%" style="stop-color:#808080;stop-opacity:1"/><stop offset="24%" style="stop-color:#808080;stop-opacity:1"/><stop offset="100%" style="stop-color:#737373;stop-opacity:1"/></linearGradient><linearGradient id="_Linear12" x1="0" y1="0" x2="1" y2="0" gradientUnits="userSpaceOnUse" gradientTransform="matrix(301.811,3.15544e-30,3.15544e-30,301.811,776.084,1099.45)"><stop offset="0%" style="stop-color:#808080;stop-opacity:1"/><stop offset="13%" style="stop-color:#808080;stop-opacity:1"/><stop offset="24%" style="stop-color:#808080;stop-opacity:1"/><stop offset="100%" style="stop-color:#737373;stop-opacity:1"/></linearGradient><linearGradient id="_Linear13" x1="0" y1="0" x2="1" y2="0" gradientUnits="userSpaceOnUse" gradientTransform="matrix(301.811,3.15544e-30,3.15544e-30,301.811,776.084,1164.13)"><stop offset="0%" style="stop-color:#808080;stop-opacity:1"/><stop offset="13%" style="stop-color:#808080;stop-opacity:1"/><stop offset="24%" style="stop-color:#808080;stop-opacity:1"/><stop offset="100%" style="stop-color:#737373;stop-opacity:1"/></linearGradient><linearGradient id="_Linear14" x1="0" y1="0" x2="1" y2="0" gradientUnits="userSpaceOnUse" gradientTransform="matrix(-538.947,2.54768e-13,-2.54768e-13,-3621.73,646.737,1099.45)"><stop offset="0%" style="stop-color:#808080;stop-opacity:1"/><stop offset="13%" style="stop-color:#808080;stop-opacity:1"/><stop offset="24%" style="stop-color:#808080;stop-opacity:1"/><stop offset="100%" style="stop-color:#737373;stop-opacity:1"/></linearGradient></defs></svg>