<?xml version="1.0" encoding="UTF-8" standalone="no"?><!DOCTYPE svg PUBLIC "-//W3C//DTD SVG 1.1//EN" "http://www.w3.org/Graphics/SVG/1.1/DTD/svg11.dtd"><svg width="100%" height="100%" viewBox="0 0 2000 2000" version="1.1" xmlns="http://www.w3.org/2000/svg" xmlns:xlink="http://www.w3.org/1999/xlink" xml:space="preserve" style="fill-rule:evenodd;clip-rule:evenodd;stroke-linejoin:round;stroke-miterlimit:1.41421;"><g><path d="M1500,500l-1000,0l0,1000c0,0 453.803,0 750,0l250,-250c0,-296.198 0,-750 0,-750Z" style="fill:#d0d0d0;"/><g><rect x="550" y="550" width="150" height="25" style="fill:#a9a9a9;"/><rect x="550" y="600" width="150" height="25" style="fill:#a9a9a9;"/><rect x="550" y="650" width="150" height="25" style="fill:#a9a9a9;"/></g><g><rect x="650" y="1300" width="25" height="150" style="fill:#a9a9a9;"/><rect x="600" y="1300" width="25" height="150" style="fill:#a9a9a9;"/><rect x="550" y="1300" width="25" height="150" style="fill:#a9a9a9;"/></g><g><rect x="850" y="1300" width="25" height="150" style="fill:#a9a9a9;"/><rect x="800" y="1300" width="25" height="150" style="fill:#a9a9a9;"/><rect x="750" y="1300" width="25" height="150" style="fill:#a9a9a9;"/></g><g><rect x="1425" y="550" width="25" height="25" style="fill:#5b5b5b;"/><rect x="1375" y="550" width="25" height="25" style="fill:#5b5b5b;"/><rect x="1425" y="600" width="25" height="25" style="fill:#5b5b5b;"/><rect x="1375" y="600" width="25" height="25" style="fill:#5b5b5b;"/><rect x="1425" y="650" width="25" height="25" style="fill:#5b5b5b;"/><rect x="1375" y="650" width="25" height="25" style="fill:#5b5b5b;"/><rect x="1425" y="700" width="25" height="25" style="fill:#5b5b5b;"/><rect x="1425" y="750" width="25" height="25" style="fill:#5b5b5b;"/></g><path d="M1250,850l-100,-100c-145.915,0 -400,0 -400,0l0,500l500,0c0,0 0,-254.085 0,-400Zm-25,350l-450,0l0,25l450,0l0,-25Z" style="fill:#f7f7f7;"/></g></svg>