<?xml version="1.0" encoding="UTF-8" standalone="no"?><!DOCTYPE svg PUBLIC "-//W3C//DTD SVG 1.1//EN" "http://www.w3.org/Graphics/SVG/1.1/DTD/svg11.dtd"><svg width="100%" height="100%" viewBox="0 0 2000 2000" version="1.1" xmlns="http://www.w3.org/2000/svg" xmlns:xlink="http://www.w3.org/1999/xlink" xml:space="preserve" style="fill-rule:evenodd;clip-rule:evenodd;stroke-linejoin:round;stroke-miterlimit:1.41421;"><g><path d="M1500,500l-1000,0l0,1000c0,0 453.803,0 750,0l250,-250c0,-296.198 0,-750 0,-750Z" style="fill:#8d8d8d;"/><path d="M1300,1000l0,-25l25,0l0,25l-25,0Zm25,50l-25,0l0,-25l25,0l0,25Zm0,50l-25,0l0,-25l25,0l0,25Zm50,0l-25,0l0,-25l25,0l0,25Zm-50,50l-25,0l0,-25l25,0l0,25Zm50,0l-25,0l0,-25l25,0l0,25Zm-50,50l-25,0l0,-25l25,0l0,25Zm50,0l-25,0l0,-25l25,0l0,25Z" style="fill:#4b4b4b;"/><path d="M650,1300l25,0l0,150l-25,0l0,-150Zm-50,0l25,0l0,150l-25,0l0,-150Zm-50,0l25,0l0,150l-25,0l0,-150Zm300,0l25,0l0,150l-25,0l0,-150Zm-50,0l25,0l0,150l-25,0l0,-150Zm-25,0l0,150l-25,0l0,-150l25,0Zm-75,-625l-150,0l0,-25l150,0l0,25Zm0,-50l-150,0l0,-25l150,0l0,25Zm0,-50l-150,0l0,-25l150,0l0,25Z" style="fill:#737373;"/><path d="M1250,850l-100,-100c-145.915,0 -400,0 -400,0l0,500l500,0c0,0 0,-254.085 0,-400Zm-25,350l-450,0l0,25l450,0l0,-25Z" style="fill:#7b7b7b;"/></g></svg>