<?xml version="1.0" encoding="UTF-8" standalone="no"?><!DOCTYPE svg PUBLIC "-//W3C//DTD SVG 1.1//EN" "http://www.w3.org/Graphics/SVG/1.1/DTD/svg11.dtd"><svg width="100%" height="100%" viewBox="0 0 2000 2000" version="1.1" xmlns="http://www.w3.org/2000/svg" xmlns:xlink="http://www.w3.org/1999/xlink" xml:space="preserve" style="fill-rule:evenodd;clip-rule:evenodd;stroke-linejoin:round;stroke-miterlimit:1.41421;"><g><path d="M638.71,1030.08l0.225,0.258l0.187,0.285l0.146,0.308l0.104,0.325l0.058,0.336l0.011,0.341l-0.035,0.34l-0.08,0.331l-0.126,0.318l-0.167,0.297l-0.206,0.272l-0.241,0.241l-0.272,0.207l-0.298,0.167l-0.317,0.125l-0.332,0.081l-0.339,0.035l-0.341,-0.012l-0.336,-0.058l-0.325,-0.103l-0.309,-0.147l-0.285,-0.187l-0.257,-0.224l-24.746,-24.746l-74.362,0l-24.745,24.746l-0.257,0.224l-0.286,0.187l-0.308,0.147l-0.325,0.103l-0.336,0.058l-0.341,0.012l-0.34,-0.035l-0.331,-0.081l-0.318,-0.125l-0.297,-0.167l-0.272,-0.207l-0.241,-0.241l-0.206,-0.272l-0.168,-0.297l-0.125,-0.318l-0.081,-0.331l-0.034,-0.34l0.011,-0.341l0.058,-0.336l0.103,-0.325l0.147,-0.308l0.187,-0.285l0.224,-0.258l26.21,-26.21l78.505,0l26.209,26.21Z" style="fill:#9a9a9a;"/><path d="M2000,1031.85l0,38.217l-2000,0l0,-38.217l2000,0m-1936.31,-25.478l-63.694,0l0,-127.388l63.694,0l0,127.388m700.637,0l-127.388,0l0,-127.388l127.388,0l0,127.388m-573.248,0l-63.694,0l0,-127.388l63.694,0l0,127.388m191.083,0l-63.695,0l0,-127.388l63.695,0l0,127.388m127.388,0l-63.694,0l0,-127.388l63.694,0l0,127.388m407.643,0l-127.388,0l0,-127.388l127.388,0l0,127.388m152.867,0l-127.389,0l0,-127.388l127.389,0l0,127.388m242.038,0l-165.605,0l0,-127.388l165.605,0l0,127.388m50.955,0l-12.739,0l0,-127.388l12.739,0l0,127.388m25.478,0l-12.739,0l0,-127.388l12.739,0l0,127.388m50.955,0l-38.216,0l0,-127.388l38.216,0l0,127.388m63.695,0l-25.478,0l0,-127.388l25.478,0l0,127.388m63.694,0l-38.217,0l0,-127.388l38.217,0l0,127.388m63.694,0l-38.216,0l0,-127.388l38.216,0l0,127.388m140.128,0l-101.911,0l0,-127.388l101.911,0l0,127.388m63.694,0l-25.478,0l0,-127.388l25.478,0l0,127.388m101.911,0l-50.956,0l0,-127.388l50.956,0l0,127.388m63.694,0l-12.739,0l0,-127.388l12.739,0l0,127.388" style="fill:#808080;"/><path d="M76.433,1044.59l127.389,0l0,12.739l-127.389,0l0,-12.739Zm471.338,0l12.739,0l0,12.739l-12.739,0l0,-12.739Zm25.477,0l12.739,0l0,12.739l-12.739,0l0,-12.739Zm38.217,0l12.739,0l0,12.739l-12.739,0l0,-12.739Zm50.955,0l114.65,0l0,12.739l-114.65,0l0,-12.739Zm127.389,0l38.216,0l0,12.739l-38.216,0l0,-12.739Zm229.299,0l50.956,0l0,12.739l-50.956,0l0,-12.739Zm63.695,0l63.694,0l0,12.739l-63.694,0l0,-12.739Zm382.165,0l12.739,0l0,12.739l-12.739,0l0,-12.739Zm31.847,0l76.433,0l0,12.739l-76.433,0l0,-12.739Zm108.281,0l63.694,0l0,12.739l-63.694,0l0,-12.739Zm146.496,0l63.695,0l0,12.739l-63.695,0l0,-12.739Zm114.65,0l44.586,0l0,12.739l-44.586,0l0,-12.739Zm-1802.55,0l0,12.739l-50.955,0l0,-12.739l50.955,0Z" style="fill:#c2c2c2;"/><g><path d="M639.443,1187.21l-641.943,0l0,-94.172l641.943,0l0,94.172Zm-636.943,-89.172l0,84.172l631.943,0l0,-84.172l-631.943,0Z" style="fill:#9b9b9b;"/><path d="M588.487,1187.21l-336.21,0l0,-55.955l336.21,0l0,55.955Zm-331.21,-50.955l0,45.955l326.21,0l0,-45.955l-326.21,0Z" style="fill:#9b9b9b;"/><path d="M1149,1161.74l-514.554,0l0,-68.695l514.554,0l0,68.695Zm-509.554,-63.695l0,58.695l504.554,0l0,-58.695l-504.554,0Z" style="fill:#9b9b9b;"/><path d="M715.876,1129.89l-30.478,0l0,-36.848l30.478,0l0,36.848Zm-25.478,-31.848l0,26.848l20.478,0l0,-26.848l-20.478,0Z" style="fill:#9b9b9b;"/><path d="M766.831,1129.89l-30.477,0l0,-36.848l30.477,0l0,36.848Zm-25.477,-31.848l0,26.848l20.477,0l0,-26.848l-20.477,0Z" style="fill:#9b9b9b;"/><path d="M1276.38,1113.96l-132.388,0l0,-20.924l132.388,0l0,20.924Zm-127.388,-15.924l0,10.924l122.388,0l0,-10.924l-122.388,0Z" style="fill:#9b9b9b;"/><path d="M1403.77,1161.74l-259.777,0l0,-68.695l259.777,0l0,68.695Zm-254.777,-63.695l0,58.695l249.777,0l0,-58.695l-249.777,0Z" style="fill:#9b9b9b;"/><path d="M231.799,1187.21l-17.738,0l0,-55.955l17.738,0l0,55.955Zm-12.738,-50.955l0,45.955l7.738,0l0,-45.955l-7.738,0Z" style="fill:#9b9b9b;"/><path d="M206.322,1187.21l-17.739,0l0,-55.955l17.739,0l0,55.955Zm-12.739,-50.955l0,45.955l7.739,0l0,-45.955l-7.739,0Z" style="fill:#9b9b9b;"/><path d="M180.844,1187.21l-94.172,0l0,-30.477l94.172,0l0,30.477Zm-89.172,-25.477l0,20.477l84.172,0l0,-20.477l-84.172,0Z" style="fill:#9b9b9b;"/><path d="M1913.33,1187.21l-1278.88,0l0,-94.172l1278.88,0l0,94.172Zm-1273.88,-89.172l0,84.172l1268.88,0l0,-84.172l-1268.88,0Z" style="fill:#9b9b9b;"/><path d="M1452.23,1108.28l63.695,0l0,63.695l-63.695,0l0,-63.695Zm76.433,0l63.695,0l0,63.695l-63.695,0l0,-63.695Zm76.434,0l63.694,0l0,63.695l-63.694,0l0,-63.695Zm76.433,0l63.694,0l0,63.695l-63.694,0l0,-63.695Zm76.433,0l63.694,0l0,63.695l-63.694,0l0,-63.695Zm140.127,0l0,63.695l-63.694,0l0,-63.695l63.694,0Z" style="fill:#c1c1c1;"/></g><path d="M536.067,876.481l74.362,0l25.478,-25.478l128.424,0l0.957,0.19l0.811,0.542l0.542,0.811l0.19,0.957l-0.19,0.957l-0.542,0.811l-0.811,0.542l-0.957,0.19l-126.353,0l-25.478,25.478l-78.504,0l-25.477,-25.478l-508.519,0l-0.957,-0.19l-0.811,-0.542l-0.542,-0.811l-0.19,-0.957l0.19,-0.957l0.542,-0.811l0.811,-0.542l0.957,-0.19l510.59,0l25.477,25.478Z" style="fill:#9a9a9a;"/><path d="M613.965,932.436l-81.433,0l0,-30.477l81.433,0l0,30.477Zm-76.433,-25.477l0,20.477l71.433,0l0,-20.477l-71.433,0Z" style="fill:#9a9a9a;"/><path d="M613.965,983.392l-81.433,0l0,-30.478l81.433,0l0,30.478Zm-76.433,-25.478l0,20.478l71.433,0l0,-20.478l-71.433,0Z" style="fill:#9a9a9a;"/><path d="M803.583,863.742l267.516,0l12.739,12.739l48.884,0l12.739,-12.739l166.641,0l0.957,0.19l0.811,0.542l0.542,0.811l0.19,0.957l-0.19,0.957l-0.542,0.811l-0.811,0.542l-0.957,0.19l-164.57,0l-12.739,12.739l-53.026,0l-12.739,-12.739l-267.516,0l-38.216,-38.217l-126.353,0l-0.957,-0.19l-0.811,-0.542l-0.542,-0.811l-0.19,-0.957l0.19,-0.956l0.542,-0.811l0.811,-0.542l0.957,-0.191l128.424,0l38.216,38.217Z" style="fill:#9a9a9a;"/><path d="M2002.5,1122.06l-64.426,64.426l-0.218,0.193l-0.238,0.167l-0.256,0.138l-0.27,0.107l-0.281,0.076l-0.287,0.042l-0.291,0.008l-0.29,-0.025l-0.284,-0.059l-0.276,-0.091l-0.264,-0.123l-0.247,-0.153l-0.228,-0.18l-0.206,-0.206l-0.18,-0.228l-0.153,-0.247l-0.123,-0.264l-0.091,-0.276l-0.059,-0.284l-0.025,-0.29l0.008,-0.291l0.042,-0.287l0.076,-0.281l0.107,-0.27l0.138,-0.256l0.167,-0.238l0.193,-0.217l62.962,-62.962l0,-21.943l-61.194,0l-0.29,-0.017l-0.287,-0.05l-0.278,-0.083l-0.267,-0.116l-0.252,-0.145l-0.233,-0.174l-0.212,-0.199l-0.187,-0.223l-0.159,-0.243l-0.131,-0.259l-0.099,-0.274l-0.067,-0.282l-0.034,-0.289l0,-0.291l0.034,-0.289l0.067,-0.283l0.099,-0.273l0.131,-0.26l0.159,-0.243l0.187,-0.222l0.212,-0.2l0.233,-0.173l0.252,-0.146l0.267,-0.115l0.278,-0.083l0.287,-0.051l0.29,-0.017l66.194,0l0,29.014Z" style="fill:#9a9a9a;"/><path d="M1970.65,1134.79l-32.579,32.579l-0.152,0.14l-0.164,0.127l-0.173,0.113l-0.181,0.098l-0.189,0.083l-0.196,0.067l-0.2,0.051l-0.204,0.034l-0.206,0.017l-0.207,0l-0.205,-0.017l-0.204,-0.034l-0.201,-0.051l-0.195,-0.067l-0.189,-0.083l-0.182,-0.098l-0.173,-0.113l-0.163,-0.127l-0.152,-0.14l-0.14,-0.152l-0.127,-0.163l-0.113,-0.173l-0.098,-0.182l-0.083,-0.189l-0.067,-0.196l-0.051,-0.2l-0.034,-0.204l-0.017,-0.206l0,-0.206l0.017,-0.206l0.034,-0.204l0.051,-0.2l0.067,-0.196l0.083,-0.189l0.098,-0.182l0.113,-0.173l0.127,-0.163l0.14,-0.152l31.115,-31.115l0,-9.203l-29.347,0l-0.207,-0.008l-0.205,-0.026l-0.202,-0.042l-0.198,-0.059l-0.192,-0.075l-0.186,-0.091l-0.178,-0.106l-0.168,-0.12l-0.157,-0.134l-0.147,-0.146l-0.133,-0.157l-0.12,-0.168l-0.106,-0.178l-0.091,-0.186l-0.075,-0.192l-0.059,-0.198l-0.042,-0.202l-0.026,-0.205l-0.008,-0.207l0.008,-0.206l0.026,-0.205l0.042,-0.203l0.059,-0.198l0.075,-0.192l0.091,-0.186l0.106,-0.177l0.12,-0.168l0.133,-0.158l0.147,-0.146l0.157,-0.134l0.168,-0.12l0.178,-0.106l0.186,-0.09l0.192,-0.075l0.198,-0.059l0.202,-0.043l0.205,-0.025l0.207,-0.009l34.347,0l0,16.275Z" style="fill:#9a9a9a;"/><path d="M1363.39,812.809l0.221,0.04l0.216,0.06l0.21,0.079l0.202,0.097l0.193,0.115l0.181,0.132l0.169,0.148l0.155,0.162l0.14,0.175l0.123,0.187l0.107,0.198l0.088,0.206l0.069,0.214l0.05,0.218l0.03,0.223l0.01,0.224l0,50.955l-0.01,0.224l-0.03,0.222l-0.05,0.219l-0.069,0.213l-0.088,0.207l-0.107,0.197l-0.123,0.188l-0.14,0.175l-0.155,0.162l-0.169,0.148l-0.181,0.131l-0.193,0.116l-0.202,0.097l-0.21,0.079l-0.216,0.059l-0.221,0.04l-0.224,0.021l-0.224,0l-0.223,-0.021l-0.221,-0.04l-0.216,-0.059l-0.21,-0.079l-0.202,-0.097l-0.193,-0.116l-0.181,-0.131l-0.169,-0.148l-0.155,-0.162l-0.14,-0.175l-0.124,-0.188l-0.106,-0.197l-0.088,-0.207l-0.07,-0.213l-0.049,-0.219l-0.031,-0.222l-0.01,-0.224l0,-50.955l0.01,-0.224l0.031,-0.223l0.049,-0.218l0.07,-0.214l0.088,-0.206l0.106,-0.198l0.124,-0.187l0.14,-0.175l0.155,-0.162l0.169,-0.148l0.181,-0.132l0.193,-0.115l0.202,-0.097l0.21,-0.079l0.216,-0.06l0.221,-0.04l0.223,-0.02l0.224,0l0.224,0.02Z" style="fill:#9a9a9a;"/><path d="M1388.76,838.274l0.222,0.031l0.219,0.049l0.213,0.07l0.207,0.088l0.197,0.106l0.187,0.124l0.176,0.14l0.162,0.155l0.148,0.169l0.131,0.181l0.116,0.193l0.097,0.202l0.079,0.21l0.059,0.216l0.04,0.221l0.021,0.223l0,0.224l-0.021,0.224l-0.04,0.221l-0.059,0.216l-0.079,0.21l-0.097,0.202l-0.116,0.193l-0.131,0.181l-0.148,0.169l-0.162,0.155l-0.176,0.14l-0.187,0.123l-0.197,0.107l-0.207,0.088l-0.213,0.069l-0.219,0.05l-0.222,0.03l-0.224,0.01l-50.955,0l-0.224,-0.01l-0.223,-0.03l-0.218,-0.05l-0.214,-0.069l-0.206,-0.088l-0.198,-0.107l-0.187,-0.123l-0.175,-0.14l-0.162,-0.155l-0.148,-0.169l-0.132,-0.181l-0.115,-0.193l-0.097,-0.202l-0.079,-0.21l-0.06,-0.216l-0.04,-0.221l-0.02,-0.224l0,-0.224l0.02,-0.223l0.04,-0.221l0.06,-0.216l0.079,-0.21l0.097,-0.202l0.115,-0.193l0.132,-0.181l0.148,-0.169l0.162,-0.155l0.175,-0.14l0.187,-0.124l0.198,-0.106l0.206,-0.088l0.214,-0.07l0.218,-0.049l0.223,-0.031l0.224,-0.01l50.955,0l0.224,0.01Z" style="fill:#9a9a9a;"/><path d="M1426.86,838.267l0.112,0.007l0.111,0.013l0.111,0.018l0.11,0.022l0.109,0.027l0.107,0.033l0.106,0.037l0.104,0.042l0.102,0.046l0.1,0.051l0.098,0.055l0.095,0.06l0.092,0.064l0.089,0.068l0.086,0.072l0.083,0.075l0.08,0.08l0.075,0.082l0.072,0.087l0.068,0.089l0.064,0.092l0.06,0.095l0.055,0.098l0.051,0.1l0.046,0.102l0.042,0.104l0.037,0.106l0.032,0.107l0.028,0.109l0.022,0.11l0.018,0.111l0.013,0.111l0.007,0.112l0.003,0.112l-0.003,0.112l-0.007,0.112l-0.013,0.112l-0.018,0.111l-0.022,0.11l-0.028,0.108l-0.032,0.108l-0.037,0.106l-0.042,0.104l-0.046,0.102l-0.051,0.1l-0.055,0.098l-0.06,0.095l-0.064,0.092l-0.068,0.089l-0.072,0.086l-0.075,0.083l-0.08,0.079l-0.083,0.076l-0.086,0.072l-0.089,0.068l-0.092,0.064l-0.095,0.059l-0.098,0.056l-0.1,0.051l-0.102,0.046l-0.104,0.042l-0.106,0.037l-0.107,0.032l-0.109,0.028l-0.11,0.022l-0.111,0.018l-0.111,0.012l-0.112,0.008l-0.112,0.002l-12.739,0l-0.112,-0.002l-0.112,-0.008l-0.112,-0.012l-0.111,-0.018l-0.11,-0.022l-0.108,-0.028l-0.108,-0.032l-0.106,-0.037l-0.104,-0.042l-0.102,-0.046l-0.1,-0.051l-0.098,-0.056l-0.095,-0.059l-0.092,-0.064l-0.089,-0.068l-0.086,-0.072l-0.083,-0.076l-0.079,-0.079l-0.076,-0.083l-0.072,-0.086l-0.068,-0.089l-0.064,-0.092l-0.059,-0.095l-0.056,-0.098l-0.051,-0.1l-0.046,-0.102l-0.042,-0.104l-0.037,-0.106l-0.032,-0.108l-0.028,-0.108l-0.022,-0.11l-0.018,-0.111l-0.012,-0.112l-0.008,-0.112l-0.002,-0.112l0.002,-0.112l0.008,-0.112l0.012,-0.111l0.018,-0.111l0.022,-0.11l0.028,-0.109l0.032,-0.107l0.037,-0.106l0.042,-0.104l0.046,-0.102l0.051,-0.1l0.056,-0.098l0.059,-0.095l0.064,-0.092l0.068,-0.089l0.072,-0.087l0.076,-0.082l0.079,-0.08l0.083,-0.075l0.086,-0.072l0.089,-0.068l0.092,-0.064l0.095,-0.06l0.098,-0.055l0.1,-0.051l0.102,-0.046l0.104,-0.042l0.106,-0.037l0.108,-0.033l0.108,-0.027l0.11,-0.022l0.111,-0.018l0.112,-0.013l0.112,-0.007l0.112,-0.003l12.739,0l0.112,0.003Z" style="fill:#9a9a9a;"/><path d="M1452.34,838.267l0.112,0.007l0.112,0.013l0.111,0.018l0.11,0.022l0.108,0.027l0.108,0.033l0.106,0.037l0.104,0.042l0.102,0.046l0.1,0.051l0.098,0.055l0.095,0.06l0.092,0.064l0.089,0.068l0.086,0.072l0.083,0.075l0.079,0.08l0.076,0.082l0.072,0.087l0.068,0.089l0.064,0.092l0.059,0.095l0.056,0.098l0.051,0.1l0.046,0.102l0.042,0.104l0.037,0.106l0.032,0.107l0.028,0.109l0.022,0.11l0.018,0.111l0.012,0.111l0.008,0.112l0.002,0.112l-0.002,0.112l-0.008,0.112l-0.012,0.112l-0.018,0.111l-0.022,0.11l-0.028,0.108l-0.032,0.108l-0.037,0.106l-0.042,0.104l-0.046,0.102l-0.051,0.1l-0.056,0.098l-0.059,0.095l-0.064,0.092l-0.068,0.089l-0.072,0.086l-0.076,0.083l-0.079,0.079l-0.083,0.076l-0.086,0.072l-0.089,0.068l-0.092,0.064l-0.095,0.059l-0.098,0.056l-0.1,0.051l-0.102,0.046l-0.104,0.042l-0.106,0.037l-0.108,0.032l-0.108,0.028l-0.11,0.022l-0.111,0.018l-0.112,0.012l-0.112,0.008l-0.112,0.002l-12.739,0l-0.112,-0.002l-0.112,-0.008l-0.111,-0.012l-0.111,-0.018l-0.11,-0.022l-0.109,-0.028l-0.107,-0.032l-0.106,-0.037l-0.104,-0.042l-0.102,-0.046l-0.1,-0.051l-0.098,-0.056l-0.095,-0.059l-0.092,-0.064l-0.089,-0.068l-0.086,-0.072l-0.083,-0.076l-0.08,-0.079l-0.075,-0.083l-0.072,-0.086l-0.068,-0.089l-0.064,-0.092l-0.06,-0.095l-0.055,-0.098l-0.051,-0.1l-0.046,-0.102l-0.042,-0.104l-0.037,-0.106l-0.032,-0.108l-0.028,-0.108l-0.022,-0.11l-0.018,-0.111l-0.012,-0.112l-0.008,-0.112l-0.003,-0.112l0.003,-0.112l0.008,-0.112l0.012,-0.111l0.018,-0.111l0.022,-0.11l0.028,-0.109l0.032,-0.107l0.037,-0.106l0.042,-0.104l0.046,-0.102l0.051,-0.1l0.055,-0.098l0.06,-0.095l0.064,-0.092l0.068,-0.089l0.072,-0.087l0.075,-0.082l0.08,-0.08l0.083,-0.075l0.086,-0.072l0.089,-0.068l0.092,-0.064l0.095,-0.06l0.098,-0.055l0.1,-0.051l0.102,-0.046l0.104,-0.042l0.106,-0.037l0.107,-0.033l0.109,-0.027l0.11,-0.022l0.111,-0.018l0.111,-0.013l0.112,-0.007l0.112,-0.003l12.739,0l0.112,0.003Z" style="fill:#9a9a9a;"/><path d="M1477.82,838.267l0.112,0.007l0.112,0.013l0.11,0.018l0.11,0.022l0.109,0.027l0.108,0.033l0.105,0.037l0.105,0.042l0.102,0.046l0.1,0.051l0.097,0.055l0.095,0.06l0.092,0.064l0.09,0.068l0.086,0.072l0.083,0.075l0.079,0.08l0.076,0.082l0.072,0.087l0.068,0.089l0.063,0.092l0.06,0.095l0.055,0.098l0.051,0.1l0.047,0.102l0.042,0.104l0.037,0.106l0.032,0.107l0.027,0.109l0.023,0.11l0.017,0.111l0.013,0.111l0.007,0.112l0.003,0.112l-0.003,0.112l-0.007,0.112l-0.013,0.112l-0.017,0.111l-0.023,0.11l-0.027,0.108l-0.032,0.108l-0.037,0.106l-0.042,0.104l-0.047,0.102l-0.051,0.1l-0.055,0.098l-0.06,0.095l-0.063,0.092l-0.068,0.089l-0.072,0.086l-0.076,0.083l-0.079,0.079l-0.083,0.076l-0.086,0.072l-0.09,0.068l-0.092,0.064l-0.095,0.059l-0.097,0.056l-0.1,0.051l-0.102,0.046l-0.105,0.042l-0.105,0.037l-0.108,0.032l-0.109,0.028l-0.11,0.022l-0.11,0.018l-0.112,0.012l-0.112,0.008l-0.112,0.002l-12.739,0l-0.112,-0.002l-0.112,-0.008l-0.111,-0.012l-0.111,-0.018l-0.11,-0.022l-0.109,-0.028l-0.107,-0.032l-0.106,-0.037l-0.104,-0.042l-0.103,-0.046l-0.1,-0.051l-0.097,-0.056l-0.095,-0.059l-0.092,-0.064l-0.09,-0.068l-0.086,-0.072l-0.083,-0.076l-0.079,-0.079l-0.076,-0.083l-0.071,-0.086l-0.068,-0.089l-0.064,-0.092l-0.06,-0.095l-0.055,-0.098l-0.051,-0.1l-0.047,-0.102l-0.041,-0.104l-0.037,-0.106l-0.033,-0.108l-0.027,-0.108l-0.023,-0.11l-0.017,-0.111l-0.013,-0.112l-0.007,-0.112l-0.003,-0.112l0.003,-0.112l0.007,-0.112l0.013,-0.111l0.017,-0.111l0.023,-0.11l0.027,-0.109l0.033,-0.107l0.037,-0.106l0.041,-0.104l0.047,-0.102l0.051,-0.1l0.055,-0.098l0.06,-0.095l0.064,-0.092l0.068,-0.089l0.071,-0.087l0.076,-0.082l0.079,-0.08l0.083,-0.075l0.086,-0.072l0.09,-0.068l0.092,-0.064l0.095,-0.06l0.097,-0.055l0.1,-0.051l0.103,-0.046l0.104,-0.042l0.106,-0.037l0.107,-0.033l0.109,-0.027l0.11,-0.022l0.111,-0.018l0.111,-0.013l0.112,-0.007l0.112,-0.003l12.739,0l0.112,0.003Z" style="fill:#9a9a9a;"/><path d="M1503.3,838.267l0.112,0.007l0.111,0.013l0.111,0.018l0.11,0.022l0.109,0.027l0.107,0.033l0.106,0.037l0.104,0.042l0.102,0.046l0.1,0.051l0.098,0.055l0.095,0.06l0.092,0.064l0.089,0.068l0.087,0.072l0.082,0.075l0.08,0.08l0.075,0.082l0.072,0.087l0.068,0.089l0.064,0.092l0.06,0.095l0.055,0.098l0.051,0.1l0.047,0.102l0.041,0.104l0.037,0.106l0.033,0.107l0.027,0.109l0.023,0.11l0.017,0.111l0.013,0.111l0.007,0.112l0.003,0.112l-0.003,0.112l-0.007,0.112l-0.013,0.112l-0.017,0.111l-0.023,0.11l-0.027,0.108l-0.033,0.108l-0.037,0.106l-0.041,0.104l-0.047,0.102l-0.051,0.1l-0.055,0.098l-0.06,0.095l-0.064,0.092l-0.068,0.089l-0.072,0.086l-0.075,0.083l-0.08,0.079l-0.082,0.076l-0.087,0.072l-0.089,0.068l-0.092,0.064l-0.095,0.059l-0.098,0.056l-0.1,0.051l-0.102,0.046l-0.104,0.042l-0.106,0.037l-0.107,0.032l-0.109,0.028l-0.11,0.022l-0.111,0.018l-0.111,0.012l-0.112,0.008l-0.112,0.002l-12.739,0l-0.112,-0.002l-0.112,-0.008l-0.112,-0.012l-0.111,-0.018l-0.109,-0.022l-0.109,-0.028l-0.108,-0.032l-0.106,-0.037l-0.104,-0.042l-0.102,-0.046l-0.1,-0.051l-0.097,-0.056l-0.095,-0.059l-0.093,-0.064l-0.089,-0.068l-0.086,-0.072l-0.083,-0.076l-0.079,-0.079l-0.076,-0.083l-0.072,-0.086l-0.068,-0.089l-0.064,-0.092l-0.059,-0.095l-0.056,-0.098l-0.051,-0.1l-0.046,-0.102l-0.042,-0.104l-0.037,-0.106l-0.032,-0.108l-0.027,-0.108l-0.023,-0.11l-0.018,-0.111l-0.012,-0.112l-0.008,-0.112l-0.002,-0.112l0.002,-0.112l0.008,-0.112l0.012,-0.111l0.018,-0.111l0.023,-0.11l0.027,-0.109l0.032,-0.107l0.037,-0.106l0.042,-0.104l0.046,-0.102l0.051,-0.1l0.056,-0.098l0.059,-0.095l0.064,-0.092l0.068,-0.089l0.072,-0.087l0.076,-0.082l0.079,-0.08l0.083,-0.075l0.086,-0.072l0.089,-0.068l0.093,-0.064l0.095,-0.06l0.097,-0.055l0.1,-0.051l0.102,-0.046l0.104,-0.042l0.106,-0.037l0.108,-0.033l0.109,-0.027l0.109,-0.022l0.111,-0.018l0.112,-0.013l0.112,-0.007l0.112,-0.003l12.739,0l0.112,0.003Z" style="fill:#9a9a9a;"/></g></svg>