<?xml version="1.0" encoding="UTF-8" standalone="no"?><!DOCTYPE svg PUBLIC "-//W3C//DTD SVG 1.1//EN" "http://www.w3.org/Graphics/SVG/1.1/DTD/svg11.dtd"><svg width="100%" height="100%" viewBox="0 0 2000 2000" version="1.1" xmlns="http://www.w3.org/2000/svg" xmlns:xlink="http://www.w3.org/1999/xlink" xml:space="preserve" style="fill-rule:evenodd;clip-rule:evenodd;stroke-linejoin:round;stroke-miterlimit:1.41421;"><path d="M1270,580l60,0l0,60l-60,0l0,60l120,0l0,60l-120,0l0,240l120,0l0,60l-120,0l0,120l240,0l0,60l-240,0l0,60l300,0l0,60l-300,0l0,240l-600,0l0,-420l60,0l0,-120l-120,0l0,-60l60,0l0,-240l-120,0l0,-60l120,0l0,-60l-60,0l0,-60l60,0l0,-180l600,0l0,180Zm-120,978c-9.935,0 -18,-8.065 -18,-18c0,-9.935 8.065,-18 18,-18c9.935,0 18,8.065 18,18c0,9.935 -8.065,18 -18,18Zm60,0c-9.935,0 -18,-8.065 -18,-18c0,-9.935 8.065,-18 18,-18c9.935,0 18,8.065 18,18c0,9.935 -8.065,18 -18,18Zm0,-60c-9.935,0 -18,-8.065 -18,-18c0,-9.935 8.065,-18 18,-18c9.935,0 18,8.065 18,18c0,9.935 -8.065,18 -18,18Zm-60,0c-9.935,0 -18,-8.065 -18,-18c0,-9.935 8.065,-18 18,-18c9.935,0 18,8.065 18,18c0,9.935 -8.065,18 -18,18Zm60,-138l-480,0l0,60l480,0l0,-60Zm0,-120l-480,0l0,60l480,0l0,-60Zm0,-180l-60,0l0,120l60,0l0,-120Zm-120,0l-60,0l0,120l60,0l0,-120Zm-120,0l-60,0l0,120l60,0l0,-120Zm-120,0l-60,0l0,120l60,0l0,-120Z" style="fill:#464646;"/><g><clipPath id="_clip1"><path d="M1270,580l60,0l0,60l-60,0l0,60l120,0l0,60l-120,0l0,240l120,0l0,60l-120,0l0,120l240,0l0,60l-240,0l0,60l300,0l0,60l-300,0l0,240l-600,0l0,-420l60,0l0,-120l-120,0l0,-60l60,0l0,-240l-120,0l0,-60l120,0l0,-60l-60,0l0,-60l60,0l0,-180l600,0l0,180Zm-1200,1020l-600,0l0,-1200l600,0l0,1200Zm2400,-1020l-240,0l0,60l-180,0l0,60l420,0l0,900l-600,0c0,0 0,-544.56 0,-900l300,-300l300,0l0,180Zm-1320,978c-9.935,0 -18,-8.065 -18,-18c0,-9.935 8.065,-18 18,-18c9.935,0 18,8.065 18,18c0,9.935 -8.065,18 -18,18Zm60,0c-9.935,0 -18,-8.065 -18,-18c0,-9.935 8.065,-18 18,-18c9.935,0 18,8.065 18,18c0,9.935 -8.065,18 -18,18Zm720,0c-9.935,0 -18,-8.065 -18,-18c0,-9.935 8.065,-18 18,-18c9.935,0 18,8.065 18,18c0,9.935 -8.065,18 -18,18Zm480,0c-9.935,0 -18,-8.065 -18,-18c0,-9.935 8.065,-18 18,-18c9.935,0 18,8.065 18,18c0,9.935 -8.065,18 -18,18Zm-2880,-6c-6.625,0 -12,-5.375 -12,-12c0,-6.625 5.375,-12 12,-12c6.625,0 12,5.375 12,12c0,6.625 -5.375,12 -12,12Zm420,-12c-33.116,0 -60,-26.885 -60,-60c0,-33.115 26.885,-60 60,-60c33.116,0 60,26.885 60,60c0,33.115 -26.885,60 -60,60Zm1260,-42c-9.935,0 -18,-8.065 -18,-18c0,-9.935 8.065,-18 18,-18c9.935,0 18,8.065 18,18c0,9.935 -8.065,18 -18,18Zm-60,0c-9.935,0 -18,-8.065 -18,-18c0,-9.935 8.065,-18 18,-18c9.935,0 18,8.065 18,18c0,9.935 -8.065,18 -18,18Zm-1620,-66c-6.625,0 -12,-5.375 -12,-12c0,-6.625 5.375,-12 12,-12c6.625,0 12,5.375 12,12c0,6.625 -5.375,12 -12,12Zm1680,-72l-480,0l0,60l480,0l0,-60Zm1200,-360l-120,0l0,420l120,0l0,-420Zm-180,0l-120,0l0,420l120,0l0,-420Zm-180,0l-120,0l0,420l120,0l0,-420Zm-2520,312c-6.625,0 -12,-5.375 -12,-12c0,-6.625 5.375,-12 12,-12c6.625,0 12,5.375 12,12c0,6.625 -5.375,12 -12,12Zm1680,-72l-480,0l0,60l480,0l0,-60Zm0,-180l-60,0l0,120l60,0l0,-120Zm-120,0l-60,0l0,120l60,0l0,-120Zm-120,0l-60,0l0,120l60,0l0,-120Zm-120,0l-60,0l0,120l60,0l0,-120Zm1320,-180l-60,0l0,60l60,0l0,-60Zm120,0l-60,0l0,60l60,0l0,-60Zm120,0l-60,0l0,60l60,0l0,-60Zm-360,0l-60,0l0,60l60,0l0,-60Zm-2430,-379.999l-50,0l0,399.999l399.999,0l0,-399.999l-49.999,0l0,49.999l-49.999,0l0,-49.999l-200.002,0l0,49.999l-49.999,0l0,-49.999l0,0Zm2370,259.999l-60,0l0,60l60,0l0,-60Zm120,0l-60,0l0,60l60,0l0,-60Zm120,0l-60,0l0,60l60,0l0,-60Zm120,0l-60,0l0,60l60,0l0,-60Zm-2530.01,-109.999l0,99.999l-99.999,0l0,-99.999l99.999,0Zm2590.01,-172.001c-9.935,0 -18,-8.065 -18,-18c0,-9.935 8.065,-18 18,-18c9.935,0 18,8.065 18,18c0,9.935 -8.065,18 -18,18Zm-2880,-6c-6.625,0 -12,-5.374 -12,-12c0,-6.626 5.375,-12 12,-12c6.625,0 12,5.374 12,12c0,6.626 -5.375,12 -12,12Zm480,0c-6.625,0 -12,-5.374 -12,-12c0,-6.626 5.375,-12 12,-12c6.625,0 12,5.374 12,12c0,6.626 -5.375,12 -12,12Z"/></clipPath><g clip-path="url(#_clip1)"><rect x="820" y="550" width="300" height="300" style="fill:#c8c8c8;"/><rect x="920.001" y="650.001" width="100.001" height="100.001" style="fill:#f7f7f7;"/></g></g></svg>