<?xml version="1.0" encoding="UTF-8" standalone="no"?><!DOCTYPE svg PUBLIC "-//W3C//DTD SVG 1.1//EN" "http://www.w3.org/Graphics/SVG/1.1/DTD/svg11.dtd"><svg width="100%" height="100%" viewBox="0 0 2000 2000" version="1.1" xmlns="http://www.w3.org/2000/svg" xmlns:xlink="http://www.w3.org/1999/xlink" xml:space="preserve" style="fill-rule:evenodd;clip-rule:evenodd;stroke-linejoin:round;stroke-miterlimit:1.41421;"><g><path d="M152.5,982.5l-105,0l0,-45l105,0l0,45Zm-100,-40l0,35l95,0l0,-35l-95,0Z" style="fill:#7d7d7d;"/><path d="M272.5,982.5l-105,0l0,-45l105,0l0,45Zm-100,-40l0,35l95,0l0,-35l-95,0Z" style="fill:#7d7d7d;"/><path d="M512.5,982.5l-105,0l0,-45l105,0l0,45Zm-100,-40l0,35l95,0l0,-35l-95,0Z" style="fill:#7d7d7d;"/><path d="M632.5,982.5l-105,0l0,-45l105,0l0,45Zm-100,-40l0,35l95,0l0,-35l-95,0Z" style="fill:#7d7d7d;"/><path d="M992.5,982.5l-105,0l0,-45l105,0l0,45Zm-100,-40l0,35l95,0l0,-35l-95,0Z" style="fill:#7d7d7d;"/><path d="M1112.5,982.5l-105,0l0,-45l105,0l0,45Zm-100,-40l0,35l95,0l0,-35l-95,0Z" style="fill:#7d7d7d;"/><path d="M1352.5,982.5l-105,0l0,-45l105,0l0,45Zm-100,-40l0,35l95,0l0,-35l-95,0Z" style="fill:#7d7d7d;"/><path d="M1472.5,982.5l-105,0l0,-45l105,0l0,45Zm-100,-40l0,35l95,0l0,-35l-95,0Z" style="fill:#7d7d7d;"/><path d="M1592.5,982.5l-105,0l0,-45l105,0l0,45Zm-100,-40l0,35l95,0l0,-35l-95,0Z" style="fill:#7d7d7d;"/><path d="M1712.5,982.5l-105,0l0,-45l105,0l0,45Zm-100,-40l0,35l95,0l0,-35l-95,0Z" style="fill:#7d7d7d;"/><path d="M1952.5,982.5l-105,0l0,-45l105,0l0,45Zm-100,-40l0,35l95,0l0,-35l-95,0Z" style="fill:#7d7d7d;"/><path d="M412.5,1052.5l-365,0l0,-45l365,0l0,45Zm-360,-40l0,35l355,0l0,-35l-355,0Z" style="fill:#7d7d7d;"/><path d="M752.5,1052.5l-155,0l0,-45l155,0l0,45Zm-150,-40l0,35l145,0l0,-35l-145,0Z" style="fill:#7d7d7d;"/><path d="M852.5,1052.5l-75,0l0,-45l75,0l0,45Zm-70,-40l0,35l65,0l0,-35l-65,0Z" style="fill:#7d7d7d;"/><path d="M1950.96,1007.69l0.811,0.542l0.542,0.811l0.19,0.957l-0.19,0.957l-0.542,0.811l-0.811,0.542l-0.957,0.19l-1028.96,0l-39.268,39.268l-0.811,0.542l-0.957,0.19l-0.957,-0.19l-0.811,-0.542l-0.542,-0.811l-0.19,-0.957l0.19,-0.957l0.542,-0.811l40.732,-40.732l1031.04,0l0.957,0.19Z" style="fill:#7d7d7d;"/><path d="M651.114,937.762l0.393,0.243l0.341,0.311l0.278,0.368l0.205,0.413l0.126,0.444l0.043,0.459l0,37.5l126.464,0l40,-40l51.036,0l0.459,0.043l0.444,0.126l0.413,0.205l0.368,0.278l0.311,0.341l0.243,0.393l0.167,0.43l0.084,0.453l0,0.462l-0.084,0.453l-0.167,0.43l-0.243,0.393l-0.311,0.341l-0.368,0.278l-0.413,0.205l-0.444,0.126l-0.459,0.043l-48.964,0l-40,40l-133.536,0l0,-42.5l0.043,-0.459l0.126,-0.444l0.205,-0.413l0.278,-0.368l0.341,-0.311l0.393,-0.243l0.43,-0.167l0.453,-0.084l0.462,0l0.453,0.084l0.43,0.167Z" style="fill:#7d7d7d;"/><path d="M290.196,937.508l0.195,0.023l0.193,0.038l0.189,0.053l0.184,0.068l0.178,0.082l0.171,0.096l0.163,0.109l0.155,0.122l0.144,0.133l0.133,0.144l0.122,0.155l0.109,0.163l0.096,0.171l0.082,0.178l0.068,0.184l0.053,0.189l0.038,0.193l0.023,0.195l0.008,0.196l0,40l-0.008,0.196l-0.023,0.195l-0.038,0.193l-0.053,0.189l-0.068,0.184l-0.082,0.178l-0.096,0.171l-0.109,0.163l-0.122,0.155l-0.133,0.144l-0.144,0.133l-0.155,0.122l-0.163,0.109l-0.171,0.096l-0.178,0.082l-0.184,0.068l-0.189,0.053l-0.193,0.038l-0.195,0.023l-0.196,0.008l-0.196,-0.008l-0.195,-0.023l-0.193,-0.038l-0.189,-0.053l-0.184,-0.068l-0.178,-0.082l-0.171,-0.096l-0.163,-0.109l-0.155,-0.122l-0.144,-0.133l-0.133,-0.144l-0.122,-0.155l-0.109,-0.163l-0.096,-0.171l-0.082,-0.178l-0.068,-0.184l-0.053,-0.189l-0.038,-0.193l-0.023,-0.195l-0.008,-0.196l0,-40l0.008,-0.196l0.023,-0.195l0.038,-0.193l0.053,-0.189l0.068,-0.184l0.082,-0.178l0.096,-0.171l0.109,-0.163l0.122,-0.155l0.133,-0.144l0.144,-0.133l0.155,-0.122l0.163,-0.109l0.171,-0.096l0.178,-0.082l0.184,-0.068l0.189,-0.053l0.193,-0.038l0.195,-0.023l0.196,-0.008l0.196,0.008Z" style="fill:#7d7d7d;"/><path d="M310.196,937.508l0.195,0.023l0.193,0.038l0.189,0.053l0.184,0.068l0.178,0.082l0.171,0.096l0.163,0.109l0.155,0.122l0.144,0.133l0.133,0.144l0.122,0.155l0.109,0.163l0.096,0.171l0.082,0.178l0.068,0.184l0.053,0.189l0.038,0.193l0.023,0.195l0.008,0.196l0,40l-0.008,0.196l-0.023,0.195l-0.038,0.193l-0.053,0.189l-0.068,0.184l-0.082,0.178l-0.096,0.171l-0.109,0.163l-0.122,0.155l-0.133,0.144l-0.144,0.133l-0.155,0.122l-0.163,0.109l-0.171,0.096l-0.178,0.082l-0.184,0.068l-0.189,0.053l-0.193,0.038l-0.195,0.023l-0.196,0.008l-0.196,-0.008l-0.195,-0.023l-0.193,-0.038l-0.189,-0.053l-0.184,-0.068l-0.178,-0.082l-0.171,-0.096l-0.163,-0.109l-0.155,-0.122l-0.144,-0.133l-0.133,-0.144l-0.122,-0.155l-0.109,-0.163l-0.096,-0.171l-0.082,-0.178l-0.068,-0.184l-0.053,-0.189l-0.038,-0.193l-0.023,-0.195l-0.008,-0.196l0,-40l0.008,-0.196l0.023,-0.195l0.038,-0.193l0.053,-0.189l0.068,-0.184l0.082,-0.178l0.096,-0.171l0.109,-0.163l0.122,-0.155l0.133,-0.144l0.144,-0.133l0.155,-0.122l0.163,-0.109l0.171,-0.096l0.178,-0.082l0.184,-0.068l0.189,-0.053l0.193,-0.038l0.195,-0.023l0.196,-0.008l0.196,0.008Z" style="fill:#7d7d7d;"/><path d="M330.196,937.508l0.195,0.023l0.193,0.038l0.189,0.053l0.184,0.068l0.178,0.082l0.171,0.096l0.163,0.109l0.155,0.122l0.144,0.133l0.133,0.144l0.122,0.155l0.109,0.163l0.096,0.171l0.082,0.178l0.068,0.184l0.053,0.189l0.038,0.193l0.023,0.195l0.008,0.196l0,40l-0.008,0.196l-0.023,0.195l-0.038,0.193l-0.053,0.189l-0.068,0.184l-0.082,0.178l-0.096,0.171l-0.109,0.163l-0.122,0.155l-0.133,0.144l-0.144,0.133l-0.155,0.122l-0.163,0.109l-0.171,0.096l-0.178,0.082l-0.184,0.068l-0.189,0.053l-0.193,0.038l-0.195,0.023l-0.196,0.008l-0.196,-0.008l-0.195,-0.023l-0.193,-0.038l-0.189,-0.053l-0.184,-0.068l-0.178,-0.082l-0.171,-0.096l-0.163,-0.109l-0.155,-0.122l-0.144,-0.133l-0.133,-0.144l-0.122,-0.155l-0.109,-0.163l-0.096,-0.171l-0.082,-0.178l-0.068,-0.184l-0.053,-0.189l-0.038,-0.193l-0.023,-0.195l-0.008,-0.196l0,-40l0.008,-0.196l0.023,-0.195l0.038,-0.193l0.053,-0.189l0.068,-0.184l0.082,-0.178l0.096,-0.171l0.109,-0.163l0.122,-0.155l0.133,-0.144l0.144,-0.133l0.155,-0.122l0.163,-0.109l0.171,-0.096l0.178,-0.082l0.184,-0.068l0.189,-0.053l0.193,-0.038l0.195,-0.023l0.196,-0.008l0.196,0.008Z" style="fill:#7d7d7d;"/><path d="M350.196,937.508l0.195,0.023l0.193,0.038l0.189,0.053l0.184,0.068l0.178,0.082l0.171,0.096l0.163,0.109l0.155,0.122l0.144,0.133l0.133,0.144l0.122,0.155l0.109,0.163l0.096,0.171l0.082,0.178l0.068,0.184l0.053,0.189l0.038,0.193l0.023,0.195l0.008,0.196l0,40l-0.008,0.196l-0.023,0.195l-0.038,0.193l-0.053,0.189l-0.068,0.184l-0.082,0.178l-0.096,0.171l-0.109,0.163l-0.122,0.155l-0.133,0.144l-0.144,0.133l-0.155,0.122l-0.163,0.109l-0.171,0.096l-0.178,0.082l-0.184,0.068l-0.189,0.053l-0.193,0.038l-0.195,0.023l-0.196,0.008l-0.196,-0.008l-0.195,-0.023l-0.193,-0.038l-0.189,-0.053l-0.184,-0.068l-0.178,-0.082l-0.171,-0.096l-0.163,-0.109l-0.155,-0.122l-0.144,-0.133l-0.133,-0.144l-0.122,-0.155l-0.109,-0.163l-0.096,-0.171l-0.082,-0.178l-0.068,-0.184l-0.053,-0.189l-0.038,-0.193l-0.023,-0.195l-0.008,-0.196l0,-40l0.008,-0.196l0.023,-0.195l0.038,-0.193l0.053,-0.189l0.068,-0.184l0.082,-0.178l0.096,-0.171l0.109,-0.163l0.122,-0.155l0.133,-0.144l0.144,-0.133l0.155,-0.122l0.163,-0.109l0.171,-0.096l0.178,-0.082l0.184,-0.068l0.189,-0.053l0.193,-0.038l0.195,-0.023l0.196,-0.008l0.196,0.008Z" style="fill:#7d7d7d;"/><path d="M370.196,937.508l0.195,0.023l0.193,0.038l0.189,0.053l0.184,0.068l0.178,0.082l0.171,0.096l0.163,0.109l0.155,0.122l0.144,0.133l0.133,0.144l0.122,0.155l0.109,0.163l0.096,0.171l0.082,0.178l0.068,0.184l0.053,0.189l0.038,0.193l0.023,0.195l0.008,0.196l0,40l-0.008,0.196l-0.023,0.195l-0.038,0.193l-0.053,0.189l-0.068,0.184l-0.082,0.178l-0.096,0.171l-0.109,0.163l-0.122,0.155l-0.133,0.144l-0.144,0.133l-0.155,0.122l-0.163,0.109l-0.171,0.096l-0.178,0.082l-0.184,0.068l-0.189,0.053l-0.193,0.038l-0.195,0.023l-0.196,0.008l-0.196,-0.008l-0.195,-0.023l-0.193,-0.038l-0.189,-0.053l-0.184,-0.068l-0.178,-0.082l-0.171,-0.096l-0.163,-0.109l-0.155,-0.122l-0.144,-0.133l-0.133,-0.144l-0.122,-0.155l-0.109,-0.163l-0.096,-0.171l-0.082,-0.178l-0.068,-0.184l-0.053,-0.189l-0.038,-0.193l-0.023,-0.195l-0.008,-0.196l0,-40l0.008,-0.196l0.023,-0.195l0.038,-0.193l0.053,-0.189l0.068,-0.184l0.082,-0.178l0.096,-0.171l0.109,-0.163l0.122,-0.155l0.133,-0.144l0.144,-0.133l0.155,-0.122l0.163,-0.109l0.171,-0.096l0.178,-0.082l0.184,-0.068l0.189,-0.053l0.193,-0.038l0.195,-0.023l0.196,-0.008l0.196,0.008Z" style="fill:#7d7d7d;"/><path d="M390.196,937.508l0.195,0.023l0.193,0.038l0.189,0.053l0.184,0.068l0.178,0.082l0.171,0.096l0.163,0.109l0.155,0.122l0.144,0.133l0.133,0.144l0.122,0.155l0.109,0.163l0.096,0.171l0.082,0.178l0.068,0.184l0.053,0.189l0.038,0.193l0.023,0.195l0.008,0.196l0,40l-0.008,0.196l-0.023,0.195l-0.038,0.193l-0.053,0.189l-0.068,0.184l-0.082,0.178l-0.096,0.171l-0.109,0.163l-0.122,0.155l-0.133,0.144l-0.144,0.133l-0.155,0.122l-0.163,0.109l-0.171,0.096l-0.178,0.082l-0.184,0.068l-0.189,0.053l-0.193,0.038l-0.195,0.023l-0.196,0.008l-0.196,-0.008l-0.195,-0.023l-0.193,-0.038l-0.189,-0.053l-0.184,-0.068l-0.178,-0.082l-0.171,-0.096l-0.163,-0.109l-0.155,-0.122l-0.144,-0.133l-0.133,-0.144l-0.122,-0.155l-0.109,-0.163l-0.096,-0.171l-0.082,-0.178l-0.068,-0.184l-0.053,-0.189l-0.038,-0.193l-0.023,-0.195l-0.008,-0.196l0,-40l0.008,-0.196l0.023,-0.195l0.038,-0.193l0.053,-0.189l0.068,-0.184l0.082,-0.178l0.096,-0.171l0.109,-0.163l0.122,-0.155l0.133,-0.144l0.144,-0.133l0.155,-0.122l0.163,-0.109l0.171,-0.096l0.178,-0.082l0.184,-0.068l0.189,-0.053l0.193,-0.038l0.195,-0.023l0.196,-0.008l0.196,0.008Z" style="fill:#7d7d7d;"/><path d="M650.957,917.69l0.811,0.542l0.542,0.811l0.19,0.957l-0.19,0.957l-0.542,0.811l-0.811,0.542l-0.957,0.19l-600,0l-0.957,-0.19l-0.811,-0.542l-0.542,-0.811l-0.19,-0.957l0.19,-0.957l0.542,-0.811l0.811,-0.542l0.957,-0.19l600,0l0.957,0.19Z" style="fill:#7d7d7d;"/><path d="M1498.96,1077.5l69.268,-69.268l0.811,-0.542l0.957,-0.19l0.957,0.19l0.811,0.542l0.542,0.811l0.19,0.957l-0.19,0.957l-0.542,0.811l-70.732,70.732l-252.072,0l-50,-50l-268.964,0l-0.957,-0.19l-0.811,-0.542l-0.542,-0.811l-0.19,-0.957l0.19,-0.957l0.542,-0.811l0.811,-0.542l0.957,-0.19l271.036,0l50,50l247.928,0Z" style="fill:#7d7d7d;"/></g></svg>