<?xml version="1.0" encoding="UTF-8" standalone="no"?><!DOCTYPE svg PUBLIC "-//W3C//DTD SVG 1.1//EN" "http://www.w3.org/Graphics/SVG/1.1/DTD/svg11.dtd"><svg width="100%" height="100%" viewBox="0 0 2000 2000" version="1.1" xmlns="http://www.w3.org/2000/svg" xmlns:xlink="http://www.w3.org/1999/xlink" xml:space="preserve" style="fill-rule:evenodd;clip-rule:evenodd;stroke-linejoin:round;stroke-miterlimit:1.41421;"><path d="M1312.5,1625l-625,0l0,-1250l625,0l0,1250Zm-562.5,-50c-6.902,0 -12.5,-5.598 -12.5,-12.5c0,-6.902 5.598,-12.5 12.5,-12.5c6.902,0 12.5,5.598 12.5,12.5c0,6.902 -5.598,12.5 -12.5,12.5Zm437.5,-12.5c-34.495,0 -62.5,-28.005 -62.5,-62.5c0,-34.495 28.005,-62.5 62.5,-62.5c34.495,0 62.5,28.005 62.5,62.5c0,34.495 -28.005,62.5 -62.5,62.5Zm-437.5,-112.5c-6.902,0 -12.5,-5.598 -12.5,-12.5c0,-6.902 5.598,-12.5 12.5,-12.5c6.902,0 12.5,5.598 12.5,12.5c0,6.902 -5.598,12.5 -12.5,12.5Zm0,-125c-6.902,0 -12.5,-5.598 -12.5,-12.5c0,-6.902 5.598,-12.5 12.5,-12.5c6.902,0 12.5,5.598 12.5,12.5c0,6.902 -5.598,12.5 -12.5,12.5Zm93.75,-845.833l-52.083,0l0,416.666l416.666,0l0,-416.666l-52.083,0l0,52.083l-52.083,0l0,-52.083l-208.334,0l0,52.083l-52.083,0l0,-52.083l0,0Zm208.328,156.25l0,104.166l-104.166,0l0,-104.166l104.166,0Zm-302.078,-185.417c-6.902,0 -12.5,-5.598 -12.5,-12.5c0,-6.902 5.598,-12.5 12.5,-12.5c6.902,0 12.5,5.598 12.5,12.5c0,6.902 -5.598,12.5 -12.5,12.5Zm500,0c-6.902,0 -12.5,-5.598 -12.5,-12.5c0,-6.902 5.598,-12.5 12.5,-12.5c6.902,0 12.5,5.598 12.5,12.5c0,6.902 -5.598,12.5 -12.5,12.5Z" style="fill:#464646;"/></svg>