<?xml version="1.0" encoding="UTF-8" standalone="no"?><!DOCTYPE svg PUBLIC "-//W3C//DTD SVG 1.1//EN" "http://www.w3.org/Graphics/SVG/1.1/DTD/svg11.dtd"><svg width="100%" height="100%" viewBox="0 0 2000 2000" version="1.1" xmlns="http://www.w3.org/2000/svg" xmlns:xlink="http://www.w3.org/1999/xlink" xml:space="preserve" style="fill-rule:evenodd;clip-rule:evenodd;stroke-linejoin:round;stroke-miterlimit:1.41421;"><path d="M1625,1625l-625,0l-625,-625l0,-625l93.75,0l0,31.25l1062.5,0l0,-31.25l93.75,0l0,1250Zm-1187.5,-1218.75l-31.25,0l0,93.75l31.25,0l0,-93.75Zm1156.25,0l-31.25,0l0,93.75l31.25,0l0,-93.75Z" style="fill:#9b9b9b;"/><clipPath id="_clip1"><path d="M1625,1625l-625,0l-625,-625l0,-625l93.75,0l0,31.25l1062.5,0l0,-31.25l93.75,0l0,1250Zm-1187.5,-1218.75l-31.25,0l0,93.75l31.25,0l0,-93.75Zm1156.25,0l-31.25,0l0,93.75l31.25,0l0,-93.75Z"/></clipPath><g clip-path="url(#_clip1)"><g><path d="M312.5,937.5l62.5,0l62.5,-62.5l1125,0l62.5,62.5l62.5,0l0,725l-1000,0l-375,-350l0,-375Z" style="fill:#868686;"/><path d="M1628.24,929.687l67.076,0l0,740.625l-1010.89,0l-379.734,-354.417l0,-386.208l67.077,0l62.5,-62.5l1131.47,0l62.5,62.5Zm-1187.5,-46.875l-62.5,62.5l-57.924,0l0,363.793l370.267,345.582l989.108,0l0,-709.375l-57.923,0l-62.5,-62.5l-1118.53,0Z" style="fill:#7b7b7b;"/></g></g></svg>