<?xml version="1.0" encoding="UTF-8" standalone="no"?><!DOCTYPE svg PUBLIC "-//W3C//DTD SVG 1.1//EN" "http://www.w3.org/Graphics/SVG/1.1/DTD/svg11.dtd"><svg width="100%" height="100%" viewBox="0 0 2000 2000" version="1.1" xmlns="http://www.w3.org/2000/svg" xmlns:xlink="http://www.w3.org/1999/xlink" xml:space="preserve" style="fill-rule:evenodd;clip-rule:evenodd;stroke-linejoin:round;stroke-miterlimit:1.41421;"><g><rect x="916.667" y="569.444" width="590.278" height="1055.56" style="fill:#8d8d8d;"/><clipPath id="_clip1"><rect x="916.667" y="569.444" width="590.278" height="1055.56"/></clipPath><g clip-path="url(#_clip1)"><path d="M1023.95,1555.56l-23.946,0l0,-110.48l23.946,0l0,110.48Zm28.736,0l-23.946,0l0,-110.48l23.946,0l0,110.48Zm28.736,0l-23.947,0l0,-110.48l23.947,0l0,110.48Zm28.735,0l-23.946,0l0,-110.48l23.946,0l0,110.48Zm28.736,0l-23.946,0l0,-110.48l23.946,0l0,110.48Zm-114.943,-125.211l-23.946,0l0,-110.48l23.946,0l0,110.48Zm28.736,0l-23.946,0l0,-110.48l23.946,0l0,110.48Zm28.736,0l-23.947,0l0,-110.48l23.947,0l0,110.48Zm28.735,0l-23.946,0l0,-110.48l23.946,0l0,110.48Zm28.736,0l-23.946,0l0,-110.48l23.946,0l0,110.48Zm-114.943,-125.21l-23.946,0l0,-110.48l23.946,0l0,110.48Zm28.736,0l-23.946,0l0,-110.48l23.946,0l0,110.48Zm28.736,0l-23.947,0l0,-110.48l23.947,0l0,110.48Zm28.735,0l-23.946,0l0,-110.48l23.946,0l0,110.48Zm28.736,0l-23.946,0l0,-110.48l23.946,0l0,110.48Zm-114.943,-125.211l-23.946,0l0,-110.48l23.946,0l0,110.48Zm28.736,0l-23.946,0l0,-110.48l23.946,0l0,110.48Zm28.736,0l-23.947,0l0,-110.48l23.947,0l0,110.48Zm28.735,0l-23.946,0l0,-110.48l23.946,0l0,110.48Zm28.736,0l-23.946,0l0,-110.48l23.946,0l0,110.48Zm319.444,-582.702c7.666,0 13.889,6.224 13.889,13.889c0,7.666 -6.223,13.889 -13.889,13.889c-7.665,0 -13.889,-6.223 -13.889,-13.889c0,-7.665 6.224,-13.889 13.889,-13.889Zm-500,0c7.666,0 13.889,6.224 13.889,13.889c0,7.666 -6.223,13.889 -13.889,13.889c-7.665,0 -13.889,-6.223 -13.889,-13.889c0,-7.665 6.224,-13.889 13.889,-13.889Zm250,0c7.666,0 13.889,6.224 13.889,13.889c0,7.666 -6.223,13.889 -13.889,13.889c-7.665,0 -13.889,-6.223 -13.889,-13.889c0,-7.665 6.224,-13.889 13.889,-13.889Z" style="fill:#747474;"/></g><path d="M583.333,1625l-69.444,0l-138.889,-138.889l0,-1111.11l69.444,0l0,69.444l208.334,0l0,-69.444l694.444,0l0,69.444l208.334,0l0,-69.444l69.444,0l0,1250l-138.889,0l0,-1041.67l-555.555,0l0,1041.67l-138.889,0l0,-69.444l-208.334,0l0,69.444Zm201.389,0l-194.444,0l0,-62.5l194.444,0l0,62.5Zm-138.889,-1187.5l-194.444,0l0,-62.5l194.444,0l0,62.5Zm902.778,0l-194.444,0l0,-62.5l194.444,0l0,62.5Z" style="fill:#737373;"/></g></svg>