<?xml version="1.0" encoding="UTF-8" standalone="no"?><!DOCTYPE svg PUBLIC "-//W3C//DTD SVG 1.1//EN" "http://www.w3.org/Graphics/SVG/1.1/DTD/svg11.dtd"><svg width="100%" height="100%" viewBox="0 0 2000 2000" version="1.1" xmlns="http://www.w3.org/2000/svg" xmlns:xlink="http://www.w3.org/1999/xlink" xml:space="preserve" style="fill-rule:evenodd;clip-rule:evenodd;stroke-linejoin:round;stroke-miterlimit:1.5;"><g><g><path d="M900,1295l-100,0l0,-100l100,0l0,100Zm110,0l-100,0l0,-100l100,0l0,100Zm110,0l-100,0l0,-100l100,0l0,100Zm110,0l-100,0l0,-100l100,0l0,100Zm110,0l-100,0l0,-100l100,0l0,100Zm110,0l-100,0l0,-100l100,0l0,100Zm-645,-95l0,90l90,0l0,-90l-90,0Zm110,0l0,90l90,0l0,-90l-90,0Zm110,0l0,90l90,0l0,-90l-90,0Zm110,0l0,90l90,0l0,-90l-90,0Zm110,0l0,90l90,0l0,-90l-90,0Zm110,0l0,90l90,0l0,-90l-90,0Z" style="fill:#434343;"/><path d="M1210,1275l-60,0l0,-60l60,0l0,60Zm-55,-55l0,50l50,0l0,-50l-50,0Z" style="fill:#434343;"/><path d="M1190,1255l-20,0l0,-20l20,0l0,20Zm-15,-15l0,10l10,0l0,-10l-10,0Z" style="fill:#434343;"/><path d="M895,1290l-90,-90" style="fill:none;stroke:#434343;stroke-width:5px;"/><path d="M915,1200l90,90" style="fill:none;stroke:#434343;stroke-width:5px;"/><path d="M1005,1200l-90,90" style="fill:none;stroke:#434343;stroke-width:5px;"/><path d="M1102.5,1290l-5,0l0,-72.5l-72.5,0l0,-5l77.5,0l0,77.5Z" style="fill:#434343;"/><path d="M1446.77,1288.23l-3.536,3.536l-90,-90l3.536,-3.536l90,90Z" style="fill:#434343;"/></g><g><path d="M782.5,1312.5l1097.5,0l0,5l-1102.5,0l0,-902.5l5,0l0,897.5Z" style="fill:#717171;"/><path d="M762.5,1313.96l18.536,18.536l1098.96,0l0,5l-1101.04,0l-21.464,-21.464l0,-901.036l5,0l0,898.964Z" style="fill:#717171;"/><path d="M722.5,1293.96l58.536,58.536l1098.96,0l0,5l-1101.04,0l-61.464,-61.464l0,-881.036l5,0l0,878.964Z" style="fill:#717171;"/><path d="M702.5,1313.96l78.536,78.536l197.928,0l20,-20l881.036,0l0,5l-878.964,0l-20,20l-202.072,0l-81.464,-81.464l0,-901.036l5,0l0,898.964Z" style="fill:#717171;"/></g></g><path d="M500,100l-400,0l0,400c0,0 181.521,0 300,0l100,-100c0,-118.479 0,-300 0,-300Z" style="fill:#d0d0d0;"/><clipPath id="_clip1"><path d="M500,100l-400,0l0,400c0,0 181.521,0 300,0l100,-100c0,-118.479 0,-300 0,-300Z"/></clipPath><g clip-path="url(#_clip1)"><g><rect x="120" y="120" width="60" height="10" style="fill:#a9a9a9;"/><rect x="120" y="140" width="60" height="10" style="fill:#a9a9a9;"/><rect x="120" y="160" width="60" height="10" style="fill:#a9a9a9;"/></g><g><path d="M170,480l0,-60l-10,0l0,60l10,0Z" style="fill:#a9a9a9;"/><path d="M150,480l0,-60l-10,0l0,60l10,0Z" style="fill:#a9a9a9;"/><path d="M130,480l0,-60l-10,0l0,60l10,0Z" style="fill:#a9a9a9;"/></g><g><path d="M250,480l0,-60l-10,0l0,60l10,0Z" style="fill:#a9a9a9;"/><path d="M230,480l0,-60l-10,0l0,60l10,0Z" style="fill:#a9a9a9;"/><path d="M210,480l0,-60l-10,0l0,60l10,0Z" style="fill:#a9a9a9;"/></g><g><rect x="470" y="120" width="10" height="10" style="fill:#5b5b5b;"/><rect x="450" y="120" width="10" height="10" style="fill:#5b5b5b;"/><rect x="470" y="140" width="10" height="10" style="fill:#5b5b5b;"/><rect x="450" y="140" width="10" height="10" style="fill:#5b5b5b;"/><rect x="470" y="160" width="10" height="10" style="fill:#5b5b5b;"/><rect x="450" y="160" width="10" height="10" style="fill:#5b5b5b;"/><rect x="470" y="180" width="10" height="10" style="fill:#5b5b5b;"/><rect x="470" y="200" width="10" height="10" style="fill:#5b5b5b;"/></g><path d="M400,240l-40,-40c-58.366,0 -160,0 -160,0l0,200l200,0c0,0 0,-101.634 0,-160Zm-10,140l-180,0l0,10l180,0l0,-10Z" style="fill:#f7f7f7;"/></g><g><g><path d="M600,605l0,-10l-500,0l0,10l500,0Z" style="fill:#d0d0d0;"/><path d="M600,625l0,-10l-500,0l0,10l500,0Z" style="fill:#d0d0d0;"/><path d="M450,645l0,-10l-150,0l0,10l150,0Z" style="fill:#d0d0d0;"/><path d="M600,645l0,-10l-120,0l0,10l120,0Z" style="fill:#d0d0d0;"/><path d="M600,665l0,-10l-300,0l0,10l300,0Z" style="fill:#d0d0d0;"/><path d="M580,685l0,-10l-280,0l0,10l280,0Z" style="fill:#d0d0d0;"/><path d="M530,705l0,-10l-220,0l0,10l220,0Z" style="fill:#d0d0d0;"/><path d="M600,725l0,-10l-250,0l0,10l250,0Z" style="fill:#d0d0d0;"/><path d="M530,745l0,-10l-230,0l0,10l230,0Z" style="fill:#d0d0d0;"/><path d="M580,765l0,-10l-280,0l0,10l280,0Z" style="fill:#d0d0d0;"/><path d="M500,785l0,-10l-200,0l0,10l200,0Z" style="fill:#d0d0d0;"/></g><path d="M140,785l0,-80l-40,0l0,-30l40,0l0,-10l-40,0l0,-30l190,0l0,150l-150,0Zm-30,-70l0,10l-10,0l0,-10l10,0Zm0,20l0,10l-10,0l0,-10l10,0Zm0,20l0,10l-10,0l0,-10l10,0Zm0,30l-10,0l0,-10l10,0l0,10Zm20,-70l0,10l-10,0l0,-10l10,0Zm0,20l0,10l-10,0l0,-10l10,0Zm0,20l0,10l-10,0l0,-10l10,0Zm0,20l0,10l-10,0l0,-10l10,0Zm140,0l0,-120l-120,0l0,120l120,0Zm-80,-125l0,-5l-30,0l0,5l30,0Zm40,0l0,-5l-30,0l0,5l30,0Zm40,0l0,-5l-30,0l0,5l30,0Zm13,125l0,-130l-6,0l0,130l6,0Z" style="fill:#d0d0d0;"/></g><path d="M1900,1900l-1130,0l0,-10l530,0l0,-10l580,0l0,-40l-660,0l0,-10l660,0l0,-260l-510,0l0,-10l510,0l0,-10l-510,0l0,-10l510,0l0,-240l20,0l0,600Zm-1120,-20l-10,0l0,-60l10,0l0,60Zm15,0l-10,0l0,-60l10,0l0,60Zm15,0l-10,0l0,-60l10,0l0,60Zm15,0l-10,0l0,-60l10,0l0,60Zm15,0l-10,0l0,-60l10,0l0,60Zm15,0l-10,0l0,-60l10,0l0,60Zm15,0l-10,0l0,-60l10,0l0,60Zm15,0l-10,0l0,-60l10,0l0,60Zm15,0l-10,0l0,-60l10,0l0,60Zm15,0l-10,0l0,-60l10,0l0,60Zm15,0l-10,0l0,-60l10,0l0,60Zm40,0l-20,0l0,-60l20,0l0,60Zm30,0l-20,0l0,-60l20,0l0,60Zm30,0l-20,0l0,-60l20,0l0,60Zm835,-410l5,0l0,60l-5,0l0,-60Zm-15,0l5,0l0,60l-5,0l0,-60Zm-15,0l5,0l0,60l-5,0l0,-60Zm-15,0l5,0l0,60l-5,0l0,-60Zm-15,0l5,0l0,60l-5,0l0,-60Zm-15,0l5,0l0,60l-5,0l0,-60Zm-15,0l5,0l0,60l-5,0l0,-60Zm-15,0l5,0l0,60l-5,0l0,-60Zm-15,0l5,0l0,60l-5,0l0,-60Zm-15,0l5,0l0,60l-5,0l0,-60Zm-15,0l5,0l0,60l-5,0l0,-60Zm-15,0l5,0l0,60l-5,0l0,-60Zm-15,0l5,0l0,60l-5,0l0,-60Zm-10,0l0,60l-5,0l0,-60l5,0Z" style="fill:#c8c8c8;"/><path d="M1630,1616l12,0l0,12l-12,0l0,12l24,0l0,12l-24,0l0,48l24,0l0,12l-24,0l0,24l48,0l0,12l-48,0l0,12l60,0l0,12l-60,0l0,48l-120,0l0,-84l12,0l0,-24l-24,0l0,-12l12,0l0,-48l-24,0l0,-12l24,0l0,-12l-12,0l0,-12l12,0l0,-36l120,0l0,36Zm-240,204l-120,0l0,-240l120,0l0,240Zm480,-204l-48,0l0,12l-36,0l0,12l84,0l0,180l-120,0c0,0 0,-108.912 0,-180l60,-60l60,0l0,36Zm-264,195.6c-1.987,0 -3.6,-1.613 -3.6,-3.6c0,-1.987 1.613,-3.6 3.6,-3.6c1.987,0 3.6,1.613 3.6,3.6c0,1.987 -1.613,3.6 -3.6,3.6Zm12,0c-1.987,0 -3.6,-1.613 -3.6,-3.6c0,-1.987 1.613,-3.6 3.6,-3.6c1.987,0 3.6,1.613 3.6,3.6c0,1.987 -1.613,3.6 -3.6,3.6Zm144,0c-1.987,0 -3.6,-1.613 -3.6,-3.6c0,-1.987 1.613,-3.6 3.6,-3.6c1.987,0 3.6,1.613 3.6,3.6c0,1.987 -1.613,3.6 -3.6,3.6Zm96,0c-1.987,0 -3.6,-1.613 -3.6,-3.6c0,-1.987 1.613,-3.6 3.6,-3.6c1.987,0 3.6,1.613 3.6,3.6c0,1.987 -1.613,3.6 -3.6,3.6Zm-576,-1.2c-1.325,0 -2.4,-1.075 -2.4,-2.4c0,-1.325 1.075,-2.4 2.4,-2.4c1.325,0 2.4,1.075 2.4,2.4c0,1.325 -1.075,2.4 -2.4,2.4Zm84,-2.4c-6.623,0 -12,-5.377 -12,-12c0,-6.623 5.377,-12 12,-12c6.623,0 12,5.377 12,12c0,6.623 -5.377,12 -12,12Zm252,-8.4c-1.987,0 -3.6,-1.613 -3.6,-3.6c0,-1.987 1.613,-3.6 3.6,-3.6c1.987,0 3.6,1.613 3.6,3.6c0,1.987 -1.613,3.6 -3.6,3.6Zm-12,0c-1.987,0 -3.6,-1.613 -3.6,-3.6c0,-1.987 1.613,-3.6 3.6,-3.6c1.987,0 3.6,1.613 3.6,3.6c0,1.987 -1.613,3.6 -3.6,3.6Zm-324,-13.2c-1.325,0 -2.4,-1.075 -2.4,-2.4c0,-1.325 1.075,-2.4 2.4,-2.4c1.325,0 2.4,1.075 2.4,2.4c0,1.325 -1.075,2.4 -2.4,2.4Zm336,-14.4l-96,0l0,12l96,0l0,-12Zm240,-72l-24,0l0,84l24,0l0,-84Zm-36,0l-24,0l0,84l24,0l0,-84Zm-36,0l-24,0l0,84l24,0l0,-84Zm-504,62.4c-1.325,0 -2.4,-1.075 -2.4,-2.4c0,-1.325 1.075,-2.4 2.4,-2.4c1.325,0 2.4,1.075 2.4,2.4c0,1.325 -1.075,2.4 -2.4,2.4Zm336,-14.4l-96,0l0,12l96,0l0,-12Zm0,-36l-12,0l0,24l12,0l0,-24Zm-24,0l-12,0l0,24l12,0l0,-24Zm-24,0l-12,0l0,24l12,0l0,-24Zm-24,0l-12,0l0,24l12,0l0,-24Zm264,-36l-12,0l0,12l12,0l0,-12Zm24,0l-12,0l0,12l12,0l0,-12Zm24,0l-12,0l0,12l12,0l0,-12Zm-72,0l-12,0l0,12l12,0l0,-12Zm-486,-76l-10,0l0,80l80,0l0,-80l-10,0l0,10l-10,0l0,-10l-40,0l0,10l-10,0l0,-10Zm474,52l-12,0l0,12l12,0l0,-12Zm24,0l-12,0l0,12l12,0l0,-12Zm24,0l-12,0l0,12l12,0l0,-12Zm24,0l-12,0l0,12l12,0l0,-12Zm-506,-22l0,20l-20,0l0,-20l20,0Zm518,-34.4c-1.987,0 -3.6,-1.613 -3.6,-3.6c0,-1.987 1.613,-3.6 3.6,-3.6c1.987,0 3.6,1.613 3.6,3.6c0,1.987 -1.613,3.6 -3.6,3.6Zm-576,-1.2c-1.325,0 -2.4,-1.075 -2.4,-2.4c0,-1.325 1.075,-2.4 2.4,-2.4c1.325,0 2.4,1.075 2.4,2.4c0,1.325 -1.075,2.4 -2.4,2.4Zm96,0c-1.325,0 -2.4,-1.075 -2.4,-2.4c0,-1.325 1.075,-2.4 2.4,-2.4c1.325,0 2.4,1.075 2.4,2.4c0,1.325 -1.075,2.4 -2.4,2.4Z" style="fill:#464646;"/><clipPath id="_clip2"><path d="M1630,1616l12,0l0,12l-12,0l0,12l24,0l0,12l-24,0l0,48l24,0l0,12l-24,0l0,24l48,0l0,12l-48,0l0,12l60,0l0,12l-60,0l0,48l-120,0l0,-84l12,0l0,-24l-24,0l0,-12l12,0l0,-48l-24,0l0,-12l24,0l0,-12l-12,0l0,-12l12,0l0,-36l120,0l0,36Zm-240,204l-120,0l0,-240l120,0l0,240Zm480,-204l-48,0l0,12l-36,0l0,12l84,0l0,180l-120,0c0,0 0,-108.912 0,-180l60,-60l60,0l0,36Zm-264,195.6c-1.987,0 -3.6,-1.613 -3.6,-3.6c0,-1.987 1.613,-3.6 3.6,-3.6c1.987,0 3.6,1.613 3.6,3.6c0,1.987 -1.613,3.6 -3.6,3.6Zm12,0c-1.987,0 -3.6,-1.613 -3.6,-3.6c0,-1.987 1.613,-3.6 3.6,-3.6c1.987,0 3.6,1.613 3.6,3.6c0,1.987 -1.613,3.6 -3.6,3.6Zm144,0c-1.987,0 -3.6,-1.613 -3.6,-3.6c0,-1.987 1.613,-3.6 3.6,-3.6c1.987,0 3.6,1.613 3.6,3.6c0,1.987 -1.613,3.6 -3.6,3.6Zm96,0c-1.987,0 -3.6,-1.613 -3.6,-3.6c0,-1.987 1.613,-3.6 3.6,-3.6c1.987,0 3.6,1.613 3.6,3.6c0,1.987 -1.613,3.6 -3.6,3.6Zm-576,-1.2c-1.325,0 -2.4,-1.075 -2.4,-2.4c0,-1.325 1.075,-2.4 2.4,-2.4c1.325,0 2.4,1.075 2.4,2.4c0,1.325 -1.075,2.4 -2.4,2.4Zm84,-2.4c-6.623,0 -12,-5.377 -12,-12c0,-6.623 5.377,-12 12,-12c6.623,0 12,5.377 12,12c0,6.623 -5.377,12 -12,12Zm252,-8.4c-1.987,0 -3.6,-1.613 -3.6,-3.6c0,-1.987 1.613,-3.6 3.6,-3.6c1.987,0 3.6,1.613 3.6,3.6c0,1.987 -1.613,3.6 -3.6,3.6Zm-12,0c-1.987,0 -3.6,-1.613 -3.6,-3.6c0,-1.987 1.613,-3.6 3.6,-3.6c1.987,0 3.6,1.613 3.6,3.6c0,1.987 -1.613,3.6 -3.6,3.6Zm-324,-13.2c-1.325,0 -2.4,-1.075 -2.4,-2.4c0,-1.325 1.075,-2.4 2.4,-2.4c1.325,0 2.4,1.075 2.4,2.4c0,1.325 -1.075,2.4 -2.4,2.4Zm336,-14.4l-96,0l0,12l96,0l0,-12Zm240,-72l-24,0l0,84l24,0l0,-84Zm-36,0l-24,0l0,84l24,0l0,-84Zm-36,0l-24,0l0,84l24,0l0,-84Zm-504,62.4c-1.325,0 -2.4,-1.075 -2.4,-2.4c0,-1.325 1.075,-2.4 2.4,-2.4c1.325,0 2.4,1.075 2.4,2.4c0,1.325 -1.075,2.4 -2.4,2.4Zm336,-14.4l-96,0l0,12l96,0l0,-12Zm0,-36l-12,0l0,24l12,0l0,-24Zm-24,0l-12,0l0,24l12,0l0,-24Zm-24,0l-12,0l0,24l12,0l0,-24Zm-24,0l-12,0l0,24l12,0l0,-24Zm264,-36l-12,0l0,12l12,0l0,-12Zm24,0l-12,0l0,12l12,0l0,-12Zm24,0l-12,0l0,12l12,0l0,-12Zm-72,0l-12,0l0,12l12,0l0,-12Zm-486,-76l-10,0l0,80l80,0l0,-80l-10,0l0,10l-10,0l0,-10l-40,0l0,10l-10,0l0,-10Zm474,52l-12,0l0,12l12,0l0,-12Zm24,0l-12,0l0,12l12,0l0,-12Zm24,0l-12,0l0,12l12,0l0,-12Zm24,0l-12,0l0,12l12,0l0,-12Zm-506,-22l0,20l-20,0l0,-20l20,0Zm518,-34.4c-1.987,0 -3.6,-1.613 -3.6,-3.6c0,-1.987 1.613,-3.6 3.6,-3.6c1.987,0 3.6,1.613 3.6,3.6c0,1.987 -1.613,3.6 -3.6,3.6Zm-576,-1.2c-1.325,0 -2.4,-1.075 -2.4,-2.4c0,-1.325 1.075,-2.4 2.4,-2.4c1.325,0 2.4,1.075 2.4,2.4c0,1.325 -1.075,2.4 -2.4,2.4Zm96,0c-1.325,0 -2.4,-1.075 -2.4,-2.4c0,-1.325 1.075,-2.4 2.4,-2.4c1.325,0 2.4,1.075 2.4,2.4c0,1.325 -1.075,2.4 -2.4,2.4Z"/></clipPath><g clip-path="url(#_clip2)"><rect x="1540" y="1610" width="60" height="60" style="fill:#c8c8c8;"/><rect x="1560" y="1630" width="20" height="20" style="fill:#f7f7f7;"/></g></svg>