<?xml version="1.0" encoding="UTF-8" standalone="no"?><!DOCTYPE svg PUBLIC "-//W3C//DTD SVG 1.1//EN" "http://www.w3.org/Graphics/SVG/1.1/DTD/svg11.dtd"><svg width="100%" height="100%" viewBox="0 0 2000 2000" version="1.1" xmlns="http://www.w3.org/2000/svg" xmlns:xlink="http://www.w3.org/1999/xlink" xml:space="preserve" style="fill-rule:evenodd;clip-rule:evenodd;stroke-linejoin:round;stroke-miterlimit:1.41421;"><path d="M700,1820l-60,-60c0,-41.765 0,-90 0,-90l15,0l0,-15l15,0l0,15l15,0l0,-15l15,0l0,15l15,0l0,-15l15,0l0,15l45,0l0,-15l15,0l0,15l15,0l0,-15l15,0l0,15l15,0l0,-15l15,0l0,15l15,0l0,-15l15,0l0,15l45,0l0,-15l15,0l0,15l300,0l0,150c0,0 -388.042,0 -540,0Zm-60,75l0,-45l90,0l0,45l-90,0Zm75,-15l0,-15l-60,0l0,15l60,0Zm30,15l0,-45l90,0l0,45l-90,0Zm75,-15l0,-15l-60,0l0,15l60,0Zm45,-90c0,0 0,-49.397 0,-75l-15,-15c-25.603,0 -75,0 -75,0l0,90l90,0Zm105,-15l0,-75l-75,0l-15,15c0,25.603 0,75 0,75c0,0 49.397,0 75,0l15,-15Zm-15,120l0,-45l90,0l0,45l-90,0Zm75,-15l0,-15l-60,0l0,15l60,0Zm45,-90l0,-90l-90,0c0,0 0,49.397 0,75l15,15l75,0Zm-15,105l0,-45l90,0l0,45l-90,0Zm75,-15l0,-15l-60,0l0,15l60,0Zm0,-90l0,-90l-9,0l0,90l9,0Zm15,0l0,-90l-9,0l0,90l9,0Zm15,0l0,-90l-9,0l0,90l9,0Zm0,105l0,-45l90,0l0,45l-90,0Zm15,-105l0,-90l-9,0l0,90l9,0Zm60,90l0,-15l-60,0l0,15l60,0Zm-45,-90l0,-90l-9,0l0,90l9,0Zm15,0l0,-90l-9,0l0,90l9,0Zm360,-120c0,82.787 -67.213,150 -150,150c-82.787,0 -150,-67.213 -150,-150c0,-82.787 67.213,-150 150,-150c82.787,0 150,67.213 150,150Zm-300,195l0,-15l630,0l0,15l-630,0Zm0,30l0,-15l330,0l0,15l-330,0Zm97.5,-222l0,-6l-90,0l0,6l90,0Zm97.5,-3c0,24.836 -20.164,45 -45,45c-24.836,0 -45,-20.164 -45,-45c0,-24.836 20.164,-45 45,-45c24.836,0 45,20.164 45,45Zm97.5,3l0,-6l-90,0l0,6l90,0Zm337.5,-3c0,82.787 -67.213,150 -150,150c-82.787,0 -150,-67.213 -150,-150c0,-82.787 67.213,-150 150,-150c82.787,0 150,67.213 150,150Zm-202.5,3l0,-6l-90,0l0,6l90,0Zm-82.5,222l0,-15l285,0l0,15l-285,0Zm180,-225c0,24.836 -20.164,45 -45,45c-24.836,0 -45,-20.164 -45,-45c0,-24.836 20.164,-45 45,-45c24.836,0 45,20.164 45,45Zm97.5,3l0,-6l-90,0l0,6l90,0Z" style="fill:#c5c5c5;"/><g><path d="M100,650l0,550l550,0l0,-91.667l-91.667,0l0,-91.666l91.667,0c0,0 0,-166.394 0,-275l-91.667,-91.667c-128.946,0 -348.333,0 -348.333,0l0,165l-91.667,0l0,-165l-18.333,0l0,0Zm18.333,174.167l91.667,0l0,183.333l-91.667,0l0,-183.333Zm9.167,-174.167c0,0 0,73.099 0,119.167l36.667,36.666c18.333,0 36.666,0 36.666,0l0,-155.833l-73.333,0l0,0Zm36.667,183.333l-36.667,36.667c0,48.615 0,128.333 0,128.333l73.333,0l0,-165c0,0 -18.333,0 -36.666,0Zm73.333,-165l0,256.667l-9.167,0l0,-256.667l9.167,0Zm0,275l0,55l-9.167,0l0,-55l9.167,0Zm229.167,36.667l0,36.667l-18.334,0l0,-36.667l18.334,0Zm36.666,-201.667l0,36.667c0,0 -9.166,0 -18.333,0l-18.333,-18.333c0,-9.167 0,-18.334 0,-18.334l36.666,0Zm0,293.334l0,18.333l-18.333,0l0,-18.333l18.333,0Zm0,-183.334l0,18.334l-18.333,0l0,-18.334l18.333,0Zm18.334,18.334l0,18.333l-18.334,0l0,-18.333l18.334,0Zm0,-220l0,36.666l-18.334,0l0,-36.666l18.334,0Zm45.833,339.166c0,0 0,33.279 0,55l18.333,18.334c24.308,0 64.167,0 64.167,0l0,-29.334l-9.167,0l0,-14.666l9.167,0l0,-29.334l-82.5,0Z" style="fill:#808080;"/><g><clipPath id="_clip1"><path d="M100,650l0,550l550,0l0,-91.667l-91.667,0l0,-91.666l91.667,0c0,0 0,-166.394 0,-275l-91.667,-91.667c-128.946,0 -348.333,0 -348.333,0l0,165l-91.667,0l0,-165l-18.333,0l0,0Zm18.333,174.167l91.667,0l0,183.333l-91.667,0l0,-183.333Zm9.167,-174.167c0,0 0,73.099 0,119.167l36.667,36.666c18.333,0 36.666,0 36.666,0l0,-155.833l-73.333,0l0,0Zm36.667,183.333l-36.667,36.667c0,48.615 0,128.333 0,128.333l73.333,0l0,-165c0,0 -18.333,0 -36.666,0Zm73.333,-165l0,256.667l-9.167,0l0,-256.667l9.167,0Zm0,275l0,55l-9.167,0l0,-55l9.167,0Zm229.167,36.667l0,36.667l-18.334,0l0,-36.667l18.334,0Zm36.666,-201.667l0,36.667c0,0 -9.166,0 -18.333,0l-18.333,-18.333c0,-9.167 0,-18.334 0,-18.334l36.666,0Zm0,293.334l0,18.333l-18.333,0l0,-18.333l18.333,0Zm0,-183.334l0,18.334l-18.333,0l0,-18.334l18.333,0Zm18.334,18.334l0,18.333l-18.334,0l0,-18.333l18.334,0Zm0,-220l0,36.666l-18.334,0l0,-36.666l18.334,0Zm45.833,339.166c0,0 0,33.279 0,55l18.333,18.334c24.308,0 64.167,0 64.167,0l0,-29.334l-9.167,0l0,-14.666l9.167,0l0,-29.334l-82.5,0Z"/></clipPath><g clip-path="url(#_clip1)"><rect x="448.333" y="1035" width="73.334" height="73.333" style="fill:#9c9c9c;"/><path d="M521.667,943.333l0,73.334l-73.334,0l0,-73.334l73.334,0Z" style="fill:#9c9c9c;"/><rect x="448.333" y="851.667" width="73.334" height="73.333" style="fill:#9c9c9c;"/><rect x="448.333" y="760" width="73.334" height="73.333" style="fill:#9c9c9c;"/><path d="M521.667,668.333l0,73.334l-73.334,0l0,-73.334l73.334,0Z" style="fill:#9c9c9c;"/><path d="M127.5,1108.33l0,-9.166l-9.167,0l0,9.166l9.167,0Zm0,18.334l0,-9.167l-9.167,0l0,9.167l9.167,0Zm0,36.666l0,-9.166l-9.167,0l0,9.166l9.167,0Zm0,-91.666l0,-55l-9.167,0l0,55l9.167,0Zm91.667,18.333l0,-9.167l-100.834,0l0,9.167l100.834,0Zm-73.334,36.667l0,-9.167l-9.166,0l0,9.167l9.166,0Zm0,18.333l0,-9.167l-9.166,0l0,9.167l9.166,0Zm0,18.333l0,-9.166l-9.166,0l0,9.166l9.166,0Zm0,9.167l-9.166,0l0,9.167l9.166,0l0,-9.167Zm0,-100.833l0,-55l-9.166,0l0,55l9.166,0Zm18.334,36.666l0,-9.166l-9.167,0l0,9.166l9.167,0Zm0,55l0,-9.166l-9.167,0l0,9.166l9.167,0Zm0,-91.666l0,-55l-9.167,0l0,55l9.167,0Zm18.333,36.666l0,-9.166l-9.167,0l0,9.166l9.167,0Zm0,18.334l0,-9.167l-9.167,0l0,9.167l9.167,0Zm0,18.333l0,-9.167l-9.167,0l0,9.167l9.167,0Zm0,18.333l0,-9.166l-9.167,0l0,9.166l9.167,0Zm0,18.334l0,-9.167l-9.167,0l0,9.167l9.167,0Zm0,-110l0,-55l-9.167,0l0,55l9.167,0Zm18.333,110l0,-9.167l-9.166,0l0,9.167l9.166,0Zm0,-18.334l0,-9.166l-9.166,0l0,9.166l9.166,0Zm0,-91.666l0,-55l-9.166,0l0,55l9.166,0Zm0,36.666l0,-9.166l-9.166,0l0,9.166l9.166,0Zm18.334,18.334l0,-9.167l-9.167,0l0,9.167l9.167,0Zm0,18.333l0,-9.167l-9.167,0l0,9.167l9.167,0Zm0,18.333l0,-9.166l-9.167,0l0,9.166l9.167,0Zm0,18.334l0,-9.167l-9.167,0l0,9.167l9.167,0Zm0,-110l0,-55l-9.167,0l0,55l9.167,0Zm0,36.666l0,-9.166l-9.167,0l0,9.166l9.167,0Zm18.333,18.334l0,-9.167l-9.167,0l0,9.167l9.167,0Zm0,18.333l0,-9.167l-9.167,0l0,9.167l9.167,0Zm1.833,36.667l0,-11l-11,0l0,11l11,0Zm-1.833,-110l0,-55l-9.167,0l0,55l9.167,0Zm0,18.333l0,-9.167l-9.167,0l0,9.167l9.167,0Zm0,18.333l0,-9.166l-9.167,0l0,9.166l9.167,0Z" style="fill:#dcdcdc;"/></g></g><g><path d="M672.917,560.232l-36.667,36.666l0,106.203l36.667,36.667l0,460.232l-9.167,0l0,-456.435l-36.667,-36.667l0,-113.797l36.667,-36.666l0,-438.102l9.167,0l0,441.899Z" style="fill:#5e5e5e;"/><path d="M691.25,318.102l0,531.666l18.333,18.333l0,132.131l-18.333,18.333l0,181.435l-9.167,0l0,-185.232l18.334,-18.333l0,-124.537l-18.334,-18.333l0,-531.667l-16.991,-16.99l6.482,-6.482l19.676,19.676Z" style="fill:#5e5e5e;"/><rect x="718.75" y="870" width="9.167" height="128.333" style="fill:#5e5e5e;"/><rect x="737.083" y="870" width="9.167" height="128.333" style="fill:#5e5e5e;"/><rect x="755.417" y="870" width="9.167" height="128.333" style="fill:#5e5e5e;"/><rect x="773.75" y="870" width="9.167" height="73.333" style="fill:#5e5e5e;"/><rect x="773.75" y="961.667" width="9.167" height="36.667" style="fill:#5e5e5e;"/><rect x="792.083" y="961.667" width="9.167" height="36.667" style="fill:#5e5e5e;"/><rect x="792.083" y="870" width="9.167" height="55" style="fill:#5e5e5e;"/><path d="M725.232,847.083l94.351,0l0,153.149l-18.333,18.333l0,55l-111.342,111.343l-6.482,-6.482l108.657,-108.658l0,-55l18.334,-18.333l0,-140.185l-88.982,0l-18.334,-18.333l-16.434,0l0,-9.167l20.231,0l18.334,18.333Z" style="fill:#5e5e5e;"/><rect x="718.75" y="1016.67" width="9.167" height="1.833" style="fill:#5e5e5e;"/><rect x="718.75" y="1020.33" width="9.167" height="1.833" style="fill:#5e5e5e;"/><rect x="718.75" y="1024" width="9.167" height="1.833" style="fill:#5e5e5e;"/><rect x="718.75" y="1027.67" width="9.167" height="1.833" style="fill:#5e5e5e;"/><rect x="718.75" y="1031.33" width="9.167" height="1.833" style="fill:#5e5e5e;"/><rect x="718.75" y="1035" width="9.167" height="1.833" style="fill:#5e5e5e;"/><rect x="718.75" y="1038.67" width="9.167" height="1.833" style="fill:#5e5e5e;"/><rect x="718.75" y="1042.33" width="9.167" height="1.833" style="fill:#5e5e5e;"/><rect x="718.75" y="1046" width="9.167" height="1.833" style="fill:#5e5e5e;"/><rect x="718.75" y="1049.67" width="9.167" height="1.833" style="fill:#5e5e5e;"/><rect x="718.75" y="1053.33" width="9.167" height="1.833" style="fill:#5e5e5e;"/><rect x="718.75" y="1057" width="9.167" height="1.833" style="fill:#5e5e5e;"/><rect x="718.75" y="1060.67" width="9.167" height="1.833" style="fill:#5e5e5e;"/><rect x="737.083" y="1016.67" width="9.167" height="1.833" style="fill:#5e5e5e;"/><rect x="737.083" y="1020.33" width="9.167" height="1.833" style="fill:#5e5e5e;"/><rect x="737.083" y="1024" width="9.167" height="1.833" style="fill:#5e5e5e;"/><rect x="737.083" y="1027.67" width="9.167" height="1.833" style="fill:#5e5e5e;"/><rect x="737.083" y="1031.33" width="9.167" height="1.833" style="fill:#5e5e5e;"/><rect x="737.083" y="1035" width="9.167" height="0.917" style="fill:#5e5e5e;"/><rect x="737.083" y="1036.83" width="9.167" height="0.917" style="fill:#5e5e5e;"/><rect x="737.083" y="1038.67" width="9.167" height="0.917" style="fill:#5e5e5e;"/><rect x="737.083" y="1040.5" width="9.167" height="0.917" style="fill:#5e5e5e;"/><path d="M773.75,1067.08l0,-45.833l-13.75,0l0,-9.167l22.917,0l0,64.167l-27.5,0l0,-41.25l9.166,0l0,32.083l9.167,0Z" style="fill:#5e5e5e;"/><rect x="718.75" y="1067.08" width="41.25" height="9.167" style="fill:#5e5e5e;"/></g><path d="M136.667,100l-36.667,0l0,513.333l495,0l55,-55l0,-311.666l-36.667,0l0,-110l-476.666,0l0,-36.667l0,0Zm513.333,143c0,0 0,-86.078 0,-124.667l-18.333,-18.333c-7.596,0 -14.667,0 -14.667,0l0,143l33,0Zm-495,-143l-9.167,0l0,33l9.167,0l0,-33Zm18.333,0l-9.166,0l0,33l9.166,0l0,-33Zm18.334,0l-9.167,0l0,33l9.167,0l0,-33Zm18.333,0l-9.167,0l0,33l9.167,0l0,-33Zm18.333,0l-9.166,0l0,33l9.166,0l0,-33Zm18.334,0l-9.167,0l0,33l9.167,0l0,-33Zm18.333,0l-9.167,0l0,33l9.167,0l0,-33Zm18.333,0l-9.166,0l0,33l9.166,0l0,-33Zm18.334,0l-9.167,0l0,33l9.167,0l0,-33Zm18.333,0l-9.167,0l0,33l9.167,0l0,-33Zm18.333,0l-9.166,0l0,33l9.166,0l0,-33Zm18.334,0l-9.167,0l0,33l9.167,0l0,-33Zm18.333,0l-9.167,0l0,33l9.167,0l0,-33Zm18.333,0l-9.166,0l0,33l9.166,0l0,-33Zm18.334,0l-9.167,0l0,33l9.167,0l0,-33Zm18.333,0l-9.167,0l0,33l9.167,0l0,-33Zm18.333,0l-9.166,0l0,33l9.166,0l0,-33Zm18.334,0l-9.167,0l0,33l9.167,0l0,-33Zm18.333,0l-9.167,0l0,33l9.167,0l0,-33Zm18.333,0l-9.166,0l0,33l9.166,0l0,-33Zm18.334,0l-9.167,0l0,33l9.167,0l0,-33Zm18.333,0l-9.167,0l0,33l9.167,0l0,-33Zm18.333,0l-9.166,0l0,33l9.166,0l0,-33Zm18.334,0l-9.167,0l0,33l9.167,0l0,-33Zm18.333,0l-9.167,0l0,33l9.167,0l0,-33Zm18.333,0l-9.166,0l0,33l9.166,0l0,-33Zm-238.333,476.667c111.303,0 201.667,-90.364 201.667,-201.667c0,-111.303 -90.364,-201.667 -201.667,-201.667c-111.303,0 -201.667,90.364 -201.667,201.667c0,111.303 90.364,201.667 201.667,201.667Zm0,-110c50.592,0 91.667,-41.075 91.667,-91.667c0,-50.592 -41.075,-91.667 -91.667,-91.667c-50.592,0 -91.667,41.075 -91.667,91.667c0,50.592 41.075,91.667 91.667,91.667Zm0,-18.334c40.474,0 73.333,-32.859 73.333,-73.333c0,-40.474 -32.859,-73.333 -73.333,-73.333c-40.474,0 -73.333,32.859 -73.333,73.333c0,40.474 32.859,73.333 73.333,73.333l0,0Z" style="fill:#5e5e5e;"/></g><g><path d="M801.036,1397.5l1000,0l100.732,100.732l-3.536,3.536l-99.268,-99.268l-1000,0l-100,-100l-598.964,0l0,-5l601.036,0l100,100Z" style="fill:#c1c1c1;"/><path d="M238.964,1342.5l-40.732,-40.732l3.536,-3.536l39.268,39.268l256.464,0l0,-37.5l5,0l0,42.5l-263.536,0Z" style="fill:#c1c1c1;"/><path d="M598.964,1337.5l39.268,-39.268l3.536,3.536l-40.732,40.732l-83.536,0l0,-42.5l5,0l0,37.5l76.464,0Z" style="fill:#c1c1c1;"/><path d="M1002.5,1400l-5,0l0,-17.5l-217.5,0l0,-5l222.5,0l0,22.5Z" style="fill:#c1c1c1;"/><path d="M1102.5,1400l-5,0l0,-17.5l-75,0l0,17.5l-5,0l0,-22.5l85,0l0,22.5Z" style="fill:#c1c1c1;"/><path d="M1142.5,1400l-5,0l0,-17.5l-15,0l0,17.5l-5,0l0,-22.5l25,0l0,22.5Z" style="fill:#c1c1c1;"/><path d="M1182.5,1400l-5,0l0,-17.5l-15,0l0,17.5l-5,0l0,-22.5l25,0l0,22.5Z" style="fill:#c1c1c1;"/><path d="M1261.77,1398.23l-3.536,3.536l-19.268,-19.268l-36.464,0l0,17.5l-5,0l0,-22.5l43.536,0l20.732,20.732Z" style="fill:#c1c1c1;"/><path d="M1261.04,1377.5l38.964,0l0,5l-41.036,0l-20,-20l-478.964,0l0,-5l481.036,0l20,20Z" style="fill:#c1c1c1;"/><rect x="1280" y="1367.5" width="20" height="5" style="fill:#c1c1c1;"/><path d="M1500,1372.5l-88.964,0l-10,10l-81.036,0l0,-5l78.965,0l10,-10l91.035,0l0,5Z" style="fill:#c1c1c1;"/><rect x="1320" y="1367.5" width="80" height="5" style="fill:#c1c1c1;"/><rect x="1410" y="1377.5" width="90" height="5" style="fill:#c1c1c1;"/><path d="M1900,802.5l-498.964,0l-98.536,98.536l0,370l-61.464,61.464l-511.036,0l0,-5l508.964,0l58.536,-58.536l0,-370l101.464,-101.464l501.036,0l0,5Z" style="fill:#c1c1c1;"/><path d="M741.036,1317.5l458.964,0l0,5l-461.036,0l-40,-40l-598.964,0l0,-5l601.036,0l40,40Z" style="fill:#c0c0c0;"/><path d="M221.768,1278.23l-3.536,3.536l-19.268,-19.268l-98.964,0l0,-5l101.036,0l20.732,20.732Z" style="fill:#c0c0c0;"/><path d="M602.5,1280l-5,0l0,-17.5l-176.464,0l-19.268,19.268l-3.536,-3.536l20.732,-20.732l183.536,0l0,22.5Z" style="fill:#c0c0c0;"/><path d="M741.036,1297.5l60,0l20.732,20.732l-3.536,3.536l-19.268,-19.268l-60,0l-40,-40l-98.964,0l0,-5l101.036,0l40,40Z" style="fill:#c0c0c0;"/></g><path d="M1800,900l-40,0l0,40l40,0l0,20l-40,0l0,40l40,0l0,160l-40,40l-460,0l0,-300l100,-100l400,0l0,100Zm-360,100l0,-40l-40,0l0,40l40,0Zm60,0l0,-40l-40,0l0,40l40,0Zm60,0l0,-40l-40,0l0,40l40,0Zm60,0l0,-40l-40,0l0,40l40,0Zm60,0l0,-40l-40,0l0,40l40,0Zm60,0l0,-40l-40,0l0,40l40,0Zm-300,-60l0,-40l-40,0l0,40l40,0Zm60,0l0,-40l-40,0l0,40l40,0Zm60,0l0,-40l-40,0l0,40l40,0Zm60,0l0,-40l-40,0l0,40l40,0Zm60,0l0,-40l-40,0l0,40l40,0Zm60,0l0,-40l-40,0l0,40l40,0Z" style="fill:#d6d6d6;fill-opacity:0.8;"/><path d="M1320,1160l5,0l0,25l-5,0l0,-25Zm10,0l5,0l0,25l-5,0l0,-25Zm10,0l5,0l0,25l-5,0l0,-25Zm10,0l5,0l0,25l-5,0l0,-25Zm10,0l5,0l0,25l-5,0l0,-25Zm10,0l5,0l0,25l-5,0l0,-25Zm10,0l5,0l0,25l-5,0l0,-25Zm10,0l5,0l0,25l-5,0l0,-25Zm10,0l5,0l0,25l-5,0l0,-25Zm10,0l5,0l0,25l-5,0l0,-25Zm10,0l5,0l0,25l-5,0l0,-25Zm10,0l5,0l0,25l-5,0l0,-25Zm10,0l5,0l0,25l-5,0l0,-25Zm10,0l5,0l0,25l-5,0l0,-25Zm10,0l5,0l0,25l-5,0l0,-25Zm10,0l5,0l0,25l-5,0l0,-25Zm10,0l5,0l0,25l-5,0l0,-25Zm10,0l5,0l0,25l-5,0l0,-25Zm10,0l5,0l0,25l-5,0l0,-25Zm10,0l5,0l0,25l-5,0l0,-25Zm10,0l5,0l0,25l-5,0l0,-25Zm10,0l5,0l0,25l-5,0l0,-25Zm10,0l5,0l0,25l-5,0l0,-25Zm10,0l5,0l0,25l-5,0l0,-25Zm10,0l5,0l0,25l-5,0l0,-25Zm10,0l5,0l0,25l-5,0l0,-25Zm10,0l5,0l0,25l-5,0l0,-25Zm10,0l5,0l0,25l-5,0l0,-25Zm10,0l5,0l0,25l-5,0l0,-25Zm10,0l5,0l0,25l-5,0l0,-25Zm10,0l5,0l0,25l-5,0l0,-25Zm10,0l5,0l0,25l-5,0l0,-25Zm10,0l5,0l0,25l-5,0l0,-25Zm10,0l5,0l0,25l-5,0l0,-25Zm10,0l5,0l0,25l-5,0l0,-25Zm10,0l5,0l0,25l-5,0l0,-25Zm10,0l5,0l0,25l-5,0l0,-25Zm10,0l5,0l0,25l-5,0l0,-25Zm10,0l5,0l0,25l-5,0l0,-25Zm10,0l5,0l0,25l-5,0l0,-25Zm10,0l5,0l0,25l-5,0l0,-25Zm10,0l5,0l0,25l-5,0l0,-25Zm10,0l5,0l0,25l-5,0l0,-25Zm15,0l0,25l-5,0l0,-25l5,0Z" style="fill:#a1a1a1;"/><path d="M950,1600l3.333,0l0,60l-3.333,0l0,-60Zm6.667,0l3.333,0l0,60l-3.333,0l0,-60Zm6.666,0l3.334,0l0,60l-3.334,0l0,-60Zm6.667,0l3.333,0l0,60l-3.333,0l0,-60Zm6.667,0l3.333,0l0,60l-3.333,0l0,-60Zm6.666,0l3.334,0l0,60l-3.334,0l0,-60Zm6.667,0l3.333,0l0,60l-3.333,0l0,-60Zm6.667,0l3.333,0l0,60l-3.333,0l0,-60Zm6.666,0l3.334,0l0,60l-3.334,0l0,-60Zm6.667,0l3.333,0l0,60l-3.333,0l0,-60Zm6.667,0l3.333,0l0,60l-3.333,0l0,-60Zm6.666,0l3.334,0l0,60l-3.334,0l0,-60Zm6.667,0l3.333,0l0,60l-3.333,0l0,-60Zm6.667,0l3.333,0l0,60l-3.333,0l0,-60Zm6.666,0l3.334,0l0,60l-3.334,0l0,-60Zm6.667,0l3.333,0l0,60l-3.333,0l0,-60Zm6.667,0l3.333,0l0,60l-3.333,0l0,-60Zm6.666,0l3.334,0l0,60l-3.334,0l0,-60Zm6.667,0l3.333,0l0,60l-3.333,0l0,-60Zm6.667,0l3.333,0l0,60l-3.333,0l0,-60Zm6.666,0l3.334,0l0,60l-3.334,0l0,-60Zm6.667,0l3.333,0l0,60l-3.333,0l0,-60Zm6.667,0l3.333,0l0,60l-3.333,0l0,-60Zm6.666,0l3.334,0l0,60l-3.334,0l0,-60Zm6.667,0l3.333,0l0,60l-3.333,0l0,-60Zm6.667,0l3.333,0l0,60l-3.333,0l0,-60Zm6.666,0l3.334,0l0,60l-3.334,0l0,-60Zm6.667,0l3.333,0l0,60l-3.333,0l0,-60Zm6.667,0l3.333,0l0,60l-3.333,0l0,-60Zm6.666,0l3.334,0l0,60l-3.334,0l0,-60Zm6.667,0l3.333,0l0,60l-3.333,0l0,-60Zm6.667,0l3.333,0l0,60l-3.333,0l0,-60Zm6.666,0l3.334,0l0,60l-3.334,0l0,-60Zm6.667,0l3.333,0l0,60l-3.333,0l0,-60Zm6.667,0l3.333,0l0,60l-3.333,0l0,-60Zm6.666,0l3.334,0l0,60l-3.334,0l0,-60Zm6.667,0l3.333,0l0,60l-3.333,0l0,-60Zm6.667,0l3.333,0l0,60l-3.333,0l0,-60Zm6.666,0l3.334,0l0,60l-3.334,0l0,-60Zm6.667,0l3.333,0l0,60l-3.333,0l0,-60Zm6.667,0l3.333,0l0,60l-3.333,0l0,-60Zm6.666,0l3.334,0l0,60l-3.334,0l0,-60Zm6.667,0l3.333,0l0,60l-3.333,0l0,-60Zm10,0l0,60l-3.333,0l0,-60l3.333,0Z" style="fill:#a1a1a1;"/><path d="M1755,1150l-435,0l0,-75l180,0l0,10l200,0l0,-10l55,0l0,15l-420,0l0,15l420,0l0,15l-420,0l0,15l420,0l0,15Zm-57,-75l0,8l-196,0l0,-8l196,0Z" style="fill:#a1a1a1;"/></svg>