<?xml version="1.0" encoding="UTF-8" standalone="no"?><!DOCTYPE svg PUBLIC "-//W3C//DTD SVG 1.1//EN" "http://www.w3.org/Graphics/SVG/1.1/DTD/svg11.dtd"><svg width="100%" height="100%" viewBox="0 0 2000 2000" version="1.1" xmlns="http://www.w3.org/2000/svg" xmlns:xlink="http://www.w3.org/1999/xlink" xml:space="preserve" style="fill-rule:evenodd;clip-rule:evenodd;stroke-linejoin:round;stroke-miterlimit:1.5;"><g><g><path d="M342.495,1657.51l-169.133,0l0,-169.133l169.133,0l0,169.133Zm186.046,0l-169.133,0l0,-169.133l169.133,0l0,169.133Zm186.047,0l-169.133,0l0,-169.133l169.133,0l0,169.133Zm186.046,0l-169.133,0l0,-169.133l169.133,0l0,169.133Zm186.047,0l-169.133,0l0,-169.133l169.133,0l0,169.133Zm186.046,0l-169.133,0l0,-169.133l169.133,0l0,169.133Zm-1090.91,-160.676l0,152.219l152.22,0l0,-152.219l-152.22,0Zm186.047,0l0,152.219l152.22,0l0,-152.219l-152.22,0Zm186.046,0l0,152.219l152.22,0l0,-152.219l-152.22,0Zm186.047,0l0,152.219l152.22,0l0,-152.219l-152.22,0Zm186.046,0l0,152.219l152.22,0l0,-152.219l-152.22,0Zm186.047,0l0,152.219l152.22,0l0,-152.219l-152.22,0Z" style="fill:#434343;"/><path d="M866.808,1623.68l-101.48,0l0,-101.48l101.48,0l0,101.48Zm-93.024,-93.023l0,84.567l84.567,0l0,-84.567l-84.567,0Z" style="fill:#434343;"/><path d="M832.981,1589.86l-33.827,0l0,-33.827l33.827,0l0,33.827Zm-25.37,-25.37l0,16.913l16.913,0l0,-16.913l-16.913,0Z" style="fill:#434343;"/><path d="M334.038,1649.06l-152.22,-152.219" style="fill:none;stroke:#434343;stroke-width:8.46px;"/><path d="M367.865,1496.84l152.22,152.219" style="fill:none;stroke:#434343;stroke-width:8.46px;"/><path d="M520.085,1496.84l-152.22,152.219" style="fill:none;stroke:#434343;stroke-width:8.46px;"/><path d="M684.989,1649.06l-8.456,0l0,-122.621l-122.622,0l0,-8.457l131.078,0l0,131.078Z" style="fill:#434343;"/><path d="M1267.26,1646.06l-5.98,5.98l-152.22,-152.22l5.98,-5.98l152.22,152.22Z" style="fill:#434343;"/></g><g><path d="M143.763,1687.11l1856.24,0l0,8.457l-1864.69,0l0,-1526.43l8.456,0l0,1517.97Z" style="fill:#717171;"/><path d="M109.937,1689.58l31.35,31.35l1858.71,0l0,8.457l-1862.22,0l-36.303,-36.303l0,-1523.95l8.457,0l0,1520.45l0.014,0Z" style="fill:#717171;"/><path d="M42.283,1655.75l99.004,99.004l1858.71,0l0,8.457l-1862.22,0l-103.956,-103.956l0,-1490.13l8.457,0l0,1486.62l0.013,0Z" style="fill:#717171;"/><path d="M8.457,1689.58l132.83,132.83l334.762,0l33.827,-33.826l1490.12,0l0,8.456l-1486.62,0l-33.827,33.827l-341.77,0l-137.783,-137.783l0,-1523.95l8.457,0l0,1520.45Z" style="fill:#717171;"/></g></g></svg>