<?xml version="1.0" encoding="UTF-8" standalone="no"?><!DOCTYPE svg PUBLIC "-//W3C//DTD SVG 1.1//EN" "http://www.w3.org/Graphics/SVG/1.1/DTD/svg11.dtd"><svg width="100%" height="100%" viewBox="0 0 2000 2000" version="1.1" xmlns="http://www.w3.org/2000/svg" xmlns:xlink="http://www.w3.org/1999/xlink" xml:space="preserve" style="fill-rule:evenodd;clip-rule:evenodd;stroke-linejoin:round;stroke-miterlimit:1.41421;"><path d="M823.529,352.941l-823.529,0l0,470.588l1882.35,0l117.647,-117.647l0,-235.294l-117.647,-117.647l-164.706,0l0,47.059l-894.118,0l0,-47.059Z" style="fill:#747474;"/><clipPath id="_clip1"><path d="M823.529,352.941l-823.529,0l0,470.588l1882.35,0l117.647,-117.647l0,-235.294l-117.647,-117.647l-164.706,0l0,47.059l-894.118,0l0,-47.059Z"/></clipPath><g clip-path="url(#_clip1)"><path d="M23.529,776.471l70.589,0l0,23.529l-70.589,0l0,-23.529Zm564.706,0l23.53,0l0,23.529l-23.53,0l0,-23.529Zm-564.706,-176.471l70.589,0l0,11.765l-70.589,0l0,-11.765Zm564.706,-35.294l23.53,0l0,47.059l-23.53,0l0,-47.059Zm-564.706,0l70.589,0l0,11.765l-70.589,0l0,-11.765Zm0,-188.235l23.53,0l0,23.529l-23.53,0l0,-23.529Zm47.059,0l23.53,0l0,23.529l-23.53,0l0,-23.529Zm541.177,0l0,23.529l-23.53,0l0,-23.529l23.53,0Z" style="fill:#9a9a9a;"/></g><g><g><path d="M541.176,1647.06l-305.882,0l-23.529,-23.53l-188.236,0l-23.529,-23.529l0,-282.353l541.176,0l0,94.118l23.53,23.529l0,188.235l-23.53,23.53Zm0,-352.941l-541.176,0l0,-211.765l588.235,0l0,164.706l-47.059,47.059Zm1294.12,0l-352.941,0l-23.529,-23.53l0,-70.588l-47.059,-47.059l0,-70.588l470.588,0l0,164.706l-47.059,47.059Zm47.059,-235.294l-470.588,0l-23.53,-23.53l-776.47,0l-23.53,23.53l-588.235,0l0,-211.765l1882.35,0l0,211.765Zm-494.118,-164.706l-23.529,-23.53c-129.839,0 -752.941,0 -752.941,0c0,0 0,77.486 0,117.647l23.529,23.53c129.839,0 752.941,0 752.941,0c0,0 0,-77.486 0,-117.647Z" style="fill:#808080;"/><path d="M541.176,1411.77l23.53,23.529l0,188.235l-23.53,23.53l-305.882,0l-23.529,-23.53l-188.236,0l-23.529,-23.529l0,-282.353l541.176,0l0,94.118Zm-536.176,-89.118l0,275.282l20.6,20.6l188.236,0l23.529,23.53l301.74,0l20.601,-20.601l0,-184.093l-23.53,-23.529l0,-91.189l-531.176,0Zm583.235,-75.588l-47.059,47.059l-541.176,0l0,-211.765l588.235,0l0,164.706Zm1294.12,0l-47.059,47.059l-352.941,0l-23.529,-23.53l0,-70.588l-47.059,-47.059l0,-70.588l470.588,0l0,164.706Zm-1877.35,-159.706l0,201.765l534.105,0l44.13,-44.13l0,-157.635l-578.235,0Zm1411.77,0l0,63.517l47.058,47.059l0,70.588l20.601,20.601l348.799,0l44.13,-44.13l0,-157.635l-460.588,0Zm465.588,-28.529l-470.588,0l-23.53,-23.53l-776.47,0l-23.53,23.53l-588.235,0l0,-211.765l1882.35,0l0,211.765Zm-1877.35,-206.765l0,201.764l581.164,0l23.53,-23.529l780.612,0l23.53,23.529l463.517,0l0,-201.764l-1872.35,0Zm1388.24,39.988l0,124.718l-760.012,0l-26.458,-26.459l0,-124.718l760.012,0l26.458,26.459Zm-781.47,-21.459l0,117.647l23.529,23.53l752.941,0l0,-117.647l-23.529,-23.53l-752.941,0Z" style="fill:#737373;"/></g><path d="M1011.76,988.235l-23.53,0l0,-94.117l23.53,0l0,94.117Zm35.294,0l-23.53,0l0,-94.117l23.53,0l0,94.117Zm35.294,0l-23.529,0l0,-94.117l23.529,0l0,94.117Zm70.588,0l-23.529,0l0,-94.117l23.529,0l0,94.117Zm35.294,0l-23.529,0l0,-94.117l23.529,0l0,94.117Zm35.294,0l-23.529,0l0,-94.117l23.529,0l0,94.117Zm35.295,0l-23.53,0l0,-94.117l23.53,0l0,94.117Zm35.294,0l-23.53,0l0,-94.117l23.53,0l0,94.117Zm35.294,0l-23.53,0l0,-94.117l23.53,0l0,94.117Zm35.294,0l-23.53,0l0,-94.117l23.53,0l0,94.117Zm-247.059,0l-23.529,0l0,-94.117l23.529,0l0,94.117Zm-458.823,0l-23.53,0l0,-94.117l23.53,0l0,94.117Zm35.294,0l-23.53,0l0,-94.117l23.53,0l0,94.117Zm35.294,0l-23.53,0l0,-94.117l23.53,0l0,94.117Zm35.294,0l-23.53,0l0,-94.117l23.53,0l0,94.117Zm35.294,0l-23.529,0l0,-94.117l23.529,0l0,94.117Zm35.294,0l-23.529,0l0,-94.117l23.529,0l0,94.117Zm35.294,0l-23.529,0l0,-94.117l23.529,0l0,94.117Zm35.294,0l-23.529,0l0,-94.117l23.529,0l0,94.117Zm35.294,0l-23.529,0l0,-94.117l23.529,0l0,94.117Zm35.295,0l-23.53,0l0,-94.117l23.53,0l0,94.117Zm16.764,-89.117l0,84.117l13.53,0l0,-84.117l-13.53,0Zm-176.47,0l0,84.117l13.529,0l0,-84.117l-13.529,0Zm211.764,0l0,84.117l13.53,0l0,-84.117l-13.53,0Zm-352.941,0l0,84.117l13.53,0l0,-84.117l-13.53,0Zm388.235,0l0,84.117l13.53,0l0,-84.117l-13.53,0Zm-211.764,0l0,84.117l13.529,0l0,-84.117l-13.529,0Zm247.059,0l0,84.117l13.529,0l0,-84.117l-13.529,0Zm-352.942,0l0,84.117l13.53,0l0,-84.117l-13.53,0Zm388.236,0l0,84.117l13.529,0l0,-84.117l-13.529,0Zm-247.059,0l0,84.117l13.529,0l0,-84.117l-13.529,0Zm-247.059,0l0,84.117l13.53,0l0,-84.117l-13.53,0Zm564.706,0l0,84.117l13.529,0l0,-84.117l-13.529,0Zm-282.353,0l0,84.117l13.529,0l0,-84.117l-13.529,0Zm247.059,0l0,84.117l13.529,0l0,-84.117l-13.529,0Zm70.588,0l0,84.117l13.529,0l0,-84.117l-13.529,0Zm-458.823,0l0,84.117l13.529,0l0,-84.117l-13.529,0Zm494.117,0l0,84.117l13.53,0l0,-84.117l-13.53,0Zm-317.647,0l0,84.117l13.53,0l0,-84.117l-13.53,0Zm352.941,0l0,84.117l13.53,0l0,-84.117l-13.53,0Zm-600,0l0,84.117l13.53,0l0,-84.117l-13.53,0Zm635.295,0l0,84.117l13.529,0l0,-84.117l-13.529,0Z" style="fill:#747474;"/></g><path d="M247.059,1620c1.948,0 3.529,1.581 3.529,3.529c0,1.948 -1.581,3.53 -3.529,3.53c-1.948,0 -3.53,-1.582 -3.53,-3.53c0,-1.948 1.582,-3.529 3.53,-3.529Zm282.353,0c1.948,0 3.529,1.581 3.529,3.529c0,1.948 -1.581,3.53 -3.529,3.53c-1.948,0 -3.53,-1.582 -3.53,-3.53c0,-1.948 1.582,-3.529 3.53,-3.529Zm-494.118,-35.294c1.948,0 3.53,1.581 3.53,3.529c0,1.948 -1.582,3.53 -3.53,3.53c-1.948,0 -3.529,-1.582 -3.529,-3.53c0,-1.948 1.581,-3.529 3.529,-3.529Zm494.118,-152.941c1.948,0 3.529,1.581 3.529,3.529c0,1.948 -1.581,3.53 -3.529,3.53c-1.948,0 -3.53,-1.582 -3.53,-3.53c0,-1.948 1.582,-3.529 3.53,-3.529Zm-494.118,-90.589l-11.765,0l0,-5.882l11.765,0l0,5.882Zm17.647,0l-11.765,0l0,-5.882l11.765,0l0,5.882Zm17.647,0l-11.764,0l0,-5.882l11.764,0l0,5.882Zm17.647,0l-11.764,0l0,-5.882l11.764,0l0,5.882Zm17.647,0l-11.764,0l0,-5.882l11.764,0l0,5.882Zm17.647,0l-11.764,0l0,-5.882l11.764,0l0,5.882Zm17.647,0l-11.764,0l0,-5.882l11.764,0l0,5.882Zm17.648,0l-11.765,0l0,-5.882l11.765,0l0,5.882Zm17.647,0l-11.765,0l0,-5.882l11.765,0l0,5.882Zm17.647,0l-11.765,0l0,-5.882l11.765,0l0,5.882Zm17.647,0l-11.765,0l0,-5.882l11.765,0l0,5.882Zm-188.236,-58.823l23.53,0l0,11.765l-23.53,0l0,-11.765Zm470.589,0l23.529,0l0,11.765l-23.529,0l0,-11.765Zm-470.589,-200l23.53,0l0,11.765l-23.53,0l0,-11.765Zm470.589,0l23.529,0l0,11.765l-23.529,0l0,-11.765Zm941.176,0l23.53,0l0,11.765l-23.53,0l0,-11.765Zm435.294,0l0,11.765l-23.529,0l0,-11.765l23.529,0Zm-47.059,-23.529l-294.117,0l0,-35.295l294.117,0l0,35.295Zm-1294.12,0l-470.588,0l0,-11.765l470.588,0l0,11.765Zm905.882,-11.765l23.53,0l0,11.765l-23.53,0l0,-11.765Zm411.765,0l23.529,0l0,11.765l-23.529,0l0,-11.765Zm-1705.88,-105.883l-11.764,0l0,-94.117l11.764,0l0,94.117Zm23.53,0l-11.765,0l0,-94.117l11.765,0l0,94.117Zm23.529,0l-11.764,0l0,-94.117l11.764,0l0,94.117Zm-117.647,-58.823l-11.764,0l0,-35.294l11.764,0l0,35.294Zm23.53,0l-11.765,0l0,-35.294l11.765,0l0,35.294Zm23.529,0l-11.765,0l0,-35.294l11.765,0l0,35.294Z" style="fill:#747474;"/></svg>