<?xml version="1.0" encoding="UTF-8" standalone="no"?><!DOCTYPE svg PUBLIC "-//W3C//DTD SVG 1.1//EN" "http://www.w3.org/Graphics/SVG/1.1/DTD/svg11.dtd"><svg width="100%" height="100%" viewBox="0 0 2000 2000" version="1.1" xmlns="http://www.w3.org/2000/svg" xmlns:xlink="http://www.w3.org/1999/xlink" xml:space="preserve" style="fill-rule:evenodd;clip-rule:evenodd;stroke-linejoin:round;stroke-miterlimit:1.41421;"><path d="M1200,720l40,0l0,40l-40,0l0,40l80,0l0,40l-80,0l0,160l80,0l0,40l-80,0l0,80l160,0l0,40l-160,0l0,40l200,0l0,40l-200,0l0,160l-400,0l0,-280l40,0l0,-80l-80,0l0,-40l40,0l0,-160l-80,0l0,-40l80,0l0,-40l-40,0l0,-40l40,0l0,-120l400,0l0,120Zm-800,680l-400,0l0,-800l400,0l0,800Zm1600,-680l-160,0l0,40l-120,0l0,40l280,0l0,600l-400,0c0,0 0,-363.04 0,-600l200,-200l200,0l0,120Zm-880,652c-6.623,0 -12,-5.377 -12,-12c0,-6.623 5.377,-12 12,-12c6.623,0 12,5.377 12,12c0,6.623 -5.377,12 -12,12Zm40,0c-6.623,0 -12,-5.377 -12,-12c0,-6.623 5.377,-12 12,-12c6.623,0 12,5.377 12,12c0,6.623 -5.377,12 -12,12Zm480,0c-6.623,0 -12,-5.377 -12,-12c0,-6.623 5.377,-12 12,-12c6.623,0 12,5.377 12,12c0,6.623 -5.377,12 -12,12Zm320,0c-6.623,0 -12,-5.377 -12,-12c0,-6.623 5.377,-12 12,-12c6.623,0 12,5.377 12,12c0,6.623 -5.377,12 -12,12Zm-1920,-4c-4.417,0 -8,-3.583 -8,-8c0,-4.417 3.583,-8 8,-8c4.417,0 8,3.583 8,8c0,4.417 -3.583,8 -8,8Zm280,-8c-22.077,0 -40,-17.923 -40,-40c0,-22.077 17.923,-40 40,-40c22.077,0 40,17.923 40,40c0,22.077 -17.923,40 -40,40Zm840,-28c-6.623,0 -12,-5.377 -12,-12c0,-6.623 5.377,-12 12,-12c6.623,0 12,5.377 12,12c0,6.623 -5.377,12 -12,12Zm-40,0c-6.623,0 -12,-5.377 -12,-12c0,-6.623 5.377,-12 12,-12c6.623,0 12,5.377 12,12c0,6.623 -5.377,12 -12,12Zm-1080,-44c-4.417,0 -8,-3.583 -8,-8c0,-4.417 3.583,-8 8,-8c4.417,0 8,3.583 8,8c0,4.417 -3.583,8 -8,8Zm1120,-48l-320,0l0,40l320,0l0,-40Zm800,-240l-80,0l0,280l80,0l0,-280Zm-120,0l-80,0l0,280l80,0l0,-280Zm-120,0l-80,0l0,280l80,0l0,-280Zm-1680,208c-4.417,0 -8,-3.583 -8,-8c0,-4.417 3.583,-8 8,-8c4.417,0 8,3.583 8,8c0,4.417 -3.583,8 -8,8Zm1120,-48l-320,0l0,40l320,0l0,-40Zm0,-120l-40,0l0,80l40,0l0,-80Zm-80,0l-40,0l0,80l40,0l0,-80Zm-80,0l-40,0l0,80l40,0l0,-80Zm-80,0l-40,0l0,80l40,0l0,-80Zm880,-120l-40,0l0,40l40,0l0,-40Zm80,0l-40,0l0,40l40,0l0,-40Zm80,0l-40,0l0,40l40,0l0,-40Zm-240,0l-40,0l0,40l40,0l0,-40Zm-1620,-253.333l-33.333,0l0,266.666l266.666,0l0,-266.666l-33.333,0l0,33.333l-33.333,0l0,-33.333l-133.334,0l0,33.333l-33.333,0l0,-33.333l0,0Zm1580,173.333l-40,0l0,40l40,0l0,-40Zm80,0l-40,0l0,40l40,0l0,-40Zm80,0l-40,0l0,40l40,0l0,-40Zm80,0l-40,0l0,40l40,0l0,-40Zm-1686.67,-73.333l0,66.666l-66.666,0l0,-66.666l66.666,0Zm1726.67,-114.667c-6.623,0 -12,-5.377 -12,-12c0,-6.623 5.377,-12 12,-12c6.623,0 12,5.377 12,12c0,6.623 -5.377,12 -12,12Zm-1920,-4c-4.417,0 -8,-3.583 -8,-8c0,-4.417 3.583,-8 8,-8c4.417,0 8,3.583 8,8c0,4.417 -3.583,8 -8,8Zm320,0c-4.417,0 -8,-3.583 -8,-8c0,-4.417 3.583,-8 8,-8c4.417,0 8,3.583 8,8c0,4.417 -3.583,8 -8,8Z" style="fill:#464646;"/><g><clipPath id="_clip1"><path d="M1200,720l40,0l0,40l-40,0l0,40l80,0l0,40l-80,0l0,160l80,0l0,40l-80,0l0,80l160,0l0,40l-160,0l0,40l200,0l0,40l-200,0l0,160l-400,0l0,-280l40,0l0,-80l-80,0l0,-40l40,0l0,-160l-80,0l0,-40l80,0l0,-40l-40,0l0,-40l40,0l0,-120l400,0l0,120Zm-800,680l-400,0l0,-800l400,0l0,800Zm1600,-680l-160,0l0,40l-120,0l0,40l280,0l0,600l-400,0c0,0 0,-363.04 0,-600l200,-200l200,0l0,120Zm-880,652c-6.623,0 -12,-5.377 -12,-12c0,-6.623 5.377,-12 12,-12c6.623,0 12,5.377 12,12c0,6.623 -5.377,12 -12,12Zm40,0c-6.623,0 -12,-5.377 -12,-12c0,-6.623 5.377,-12 12,-12c6.623,0 12,5.377 12,12c0,6.623 -5.377,12 -12,12Zm480,0c-6.623,0 -12,-5.377 -12,-12c0,-6.623 5.377,-12 12,-12c6.623,0 12,5.377 12,12c0,6.623 -5.377,12 -12,12Zm320,0c-6.623,0 -12,-5.377 -12,-12c0,-6.623 5.377,-12 12,-12c6.623,0 12,5.377 12,12c0,6.623 -5.377,12 -12,12Zm-1920,-4c-4.417,0 -8,-3.583 -8,-8c0,-4.417 3.583,-8 8,-8c4.417,0 8,3.583 8,8c0,4.417 -3.583,8 -8,8Zm280,-8c-22.077,0 -40,-17.923 -40,-40c0,-22.077 17.923,-40 40,-40c22.077,0 40,17.923 40,40c0,22.077 -17.923,40 -40,40Zm840,-28c-6.623,0 -12,-5.377 -12,-12c0,-6.623 5.377,-12 12,-12c6.623,0 12,5.377 12,12c0,6.623 -5.377,12 -12,12Zm-40,0c-6.623,0 -12,-5.377 -12,-12c0,-6.623 5.377,-12 12,-12c6.623,0 12,5.377 12,12c0,6.623 -5.377,12 -12,12Zm-1080,-44c-4.417,0 -8,-3.583 -8,-8c0,-4.417 3.583,-8 8,-8c4.417,0 8,3.583 8,8c0,4.417 -3.583,8 -8,8Zm1120,-48l-320,0l0,40l320,0l0,-40Zm800,-240l-80,0l0,280l80,0l0,-280Zm-120,0l-80,0l0,280l80,0l0,-280Zm-120,0l-80,0l0,280l80,0l0,-280Zm-1680,208c-4.417,0 -8,-3.583 -8,-8c0,-4.417 3.583,-8 8,-8c4.417,0 8,3.583 8,8c0,4.417 -3.583,8 -8,8Zm1120,-48l-320,0l0,40l320,0l0,-40Zm0,-120l-40,0l0,80l40,0l0,-80Zm-80,0l-40,0l0,80l40,0l0,-80Zm-80,0l-40,0l0,80l40,0l0,-80Zm-80,0l-40,0l0,80l40,0l0,-80Zm880,-120l-40,0l0,40l40,0l0,-40Zm80,0l-40,0l0,40l40,0l0,-40Zm80,0l-40,0l0,40l40,0l0,-40Zm-240,0l-40,0l0,40l40,0l0,-40Zm-1620,-253.333l-33.333,0l0,266.666l266.666,0l0,-266.666l-33.333,0l0,33.333l-33.333,0l0,-33.333l-133.334,0l0,33.333l-33.333,0l0,-33.333l0,0Zm1580,173.333l-40,0l0,40l40,0l0,-40Zm80,0l-40,0l0,40l40,0l0,-40Zm80,0l-40,0l0,40l40,0l0,-40Zm80,0l-40,0l0,40l40,0l0,-40Zm-1686.67,-73.333l0,66.666l-66.666,0l0,-66.666l66.666,0Zm1726.67,-114.667c-6.623,0 -12,-5.377 -12,-12c0,-6.623 5.377,-12 12,-12c6.623,0 12,5.377 12,12c0,6.623 -5.377,12 -12,12Zm-1920,-4c-4.417,0 -8,-3.583 -8,-8c0,-4.417 3.583,-8 8,-8c4.417,0 8,3.583 8,8c0,4.417 -3.583,8 -8,8Zm320,0c-4.417,0 -8,-3.583 -8,-8c0,-4.417 3.583,-8 8,-8c4.417,0 8,3.583 8,8c0,4.417 -3.583,8 -8,8Z"/></clipPath><g clip-path="url(#_clip1)"><rect x="900" y="700" width="200" height="200" style="fill:#c8c8c8;"/><rect x="966.667" y="766.667" width="66.667" height="66.667" style="fill:#f7f7f7;"/></g></g></svg>