<?xml version="1.0" encoding="UTF-8" standalone="no"?><!DOCTYPE svg PUBLIC "-//W3C//DTD SVG 1.1//EN" "http://www.w3.org/Graphics/SVG/1.1/DTD/svg11.dtd"><svg width="100%" height="100%" viewBox="0 0 2000 2000" version="1.1" xmlns="http://www.w3.org/2000/svg" xmlns:xlink="http://www.w3.org/1999/xlink" xml:space="preserve" style="fill-rule:evenodd;clip-rule:evenodd;stroke-linejoin:round;stroke-miterlimit:1.41421;"><path d="M1291.35,645.192l-1041.35,0l0,-5.769l1035.58,0l0,-109.615l-1035.58,0l0,-5.77l1041.35,0l0,121.154Z" style="fill:#4b4b4b;"/><path d="M1752.88,645.192l-351.924,0l0,-121.154l351.924,0l0,121.154Zm-346.154,-115.384l0,109.615l340.384,0l0,-109.615l-340.384,0Z" style="fill:#4b4b4b;"/><path d="M1268.27,610.577l-236.538,0l0,-51.923l236.538,0l0,51.923Zm-230.769,-46.154l0,40.385l225,0l0,-40.385l-225,0Z" style="fill:#4b4b4b;"/><path d="M979.808,610.577l-121.154,0l0,-51.923l121.154,0l0,51.923Zm-115.385,-46.154l0,40.385l109.615,0l0,-40.385l-109.615,0Z" style="fill:#4b4b4b;"/><path d="M829.808,610.577l-121.154,0l0,-51.923l121.154,0l0,51.923Zm-115.385,-46.154l0,40.385l109.615,0l0,-40.385l-109.615,0Z" style="fill:#4b4b4b;"/><path d="M633.654,610.577l-155.769,0l0,-51.923l155.769,0l0,51.923Zm-150,-46.154l0,40.385l144.231,0l0,-40.385l-144.231,0Z" style="fill:#4b4b4b;"/><path d="M449.038,610.577l-51.923,0l0,-51.923l51.923,0l0,51.923Zm-46.153,-46.154l0,40.385l40.384,0l0,-40.385l-40.384,0Z" style="fill:#4b4b4b;"/><path d="M1522.12,610.577l-98.077,0l0,-51.923l98.077,0l0,51.923Zm-92.307,-46.154l0,40.385l86.538,0l0,-40.385l-86.538,0Z" style="fill:#4b4b4b;"/><path d="M1568.27,610.577l-28.846,0l0,-51.923l28.846,0l0,51.923Zm-23.077,-46.154l0,40.385l17.308,0l0,-40.385l-17.308,0Z" style="fill:#4b4b4b;"/><path d="M1625.96,610.577l-40.384,0l0,-51.923l40.384,0l0,51.923Zm-34.615,-46.154l0,40.385l28.846,0l0,-40.385l-28.846,0Z" style="fill:#4b4b4b;"/><path d="M1060.58,783.654l-698.077,0l0,-28.846l698.077,0l0,28.846Zm-692.308,-23.077l0,17.308l686.539,0l0,-17.308l-686.539,0Z" style="fill:#4b4b4b;"/><path d="M1175.96,783.654l-86.539,0l0,-28.846l86.539,0l0,28.846Zm-80.77,-23.077l0,17.308l75,0l0,-17.308l-75,0Z" style="fill:#4b4b4b;"/><path d="M1291.35,783.654l-86.538,0l0,-28.846l86.538,0l0,28.846Zm-80.769,-23.077l0,17.308l75,0l0,-17.308l-75,0Z" style="fill:#4b4b4b;"/><path d="M1406.73,783.654l-86.539,0l0,-28.846l86.539,0l0,28.846Zm-80.769,-23.077l0,17.308l75,0l0,-17.308l-75,0Z" style="fill:#4b4b4b;"/><rect x="250" y="674.038" width="1038.46" height="5.769" style="fill:#4b4b4b;"/><path d="M1752.88,702.885l-349.039,0l0,-5.77l343.269,0l0,-17.307l-343.269,0l0,-5.77l349.039,0l0,28.847Z" style="fill:#4b4b4b;"/><rect x="1646.15" y="581.731" width="80.769" height="5.769" style="fill:#4b4b4b;"/><rect x="1634.62" y="489.423" width="115.385" height="5.769" style="fill:#4b4b4b;"/><rect x="1403.85" y="489.423" width="115.385" height="5.769" style="fill:#4b4b4b;"/><rect x="1173.08" y="489.423" width="115.385" height="5.769" style="fill:#4b4b4b;"/><rect x="942.308" y="489.423" width="115.385" height="5.769" style="fill:#4b4b4b;"/><rect x="711.538" y="489.423" width="115.385" height="5.769" style="fill:#4b4b4b;"/><rect x="480.769" y="489.423" width="115.385" height="5.769" style="fill:#4b4b4b;"/><rect x="250" y="489.423" width="115.385" height="5.769" style="fill:#4b4b4b;"/><path d="M599.038,1197.35l-24.766,24.766l-211.772,0l0,-236.538l236.538,0l0,211.772Zm-230.769,-206.003l0,225l203.613,0l21.387,-21.387l0,-203.613l-225,0Z" style="fill:#4b4b4b;"/><path d="M852.885,1222.12l-211.772,0l-24.767,-24.766l0,-208.887l2.885,0l0,-2.885l233.654,0l0,236.538Zm-209.382,-5.769l203.612,0l0,-225l-225,0l0,203.613l21.388,21.387Z" style="fill:#4b4b4b;"/><rect x="388.462" y="1008.65" width="184.615" height="5.769" style="fill:#4b4b4b;"/><rect x="388.462" y="1020.19" width="184.615" height="5.769" style="fill:#4b4b4b;"/><rect x="550" y="1031.73" width="23.077" height="5.769" style="fill:#4b4b4b;"/><rect x="503.846" y="1031.73" width="23.077" height="5.769" style="fill:#4b4b4b;"/><rect x="457.692" y="1031.73" width="23.077" height="5.769" style="fill:#4b4b4b;"/><rect x="388.462" y="1031.73" width="46.154" height="5.769" style="fill:#4b4b4b;"/><rect x="388.462" y="1043.27" width="46.154" height="5.769" style="fill:#4b4b4b;"/><rect x="388.462" y="1054.81" width="46.154" height="5.769" style="fill:#4b4b4b;"/><rect x="388.462" y="1066.35" width="125.769" height="5.769" style="fill:#4b4b4b;"/><rect x="388.462" y="1077.88" width="161.538" height="5.769" style="fill:#4b4b4b;"/><rect x="388.462" y="1089.42" width="80.769" height="5.769" style="fill:#4b4b4b;"/><rect x="388.462" y="1100.96" width="80.769" height="5.769" style="fill:#4b4b4b;"/><rect x="388.462" y="1112.5" width="103.846" height="5.769" style="fill:#4b4b4b;"/><rect x="388.462" y="1124.04" width="103.846" height="5.769" style="fill:#4b4b4b;"/><rect x="388.462" y="1135.58" width="207.692" height="5.769" style="fill:#4b4b4b;"/><rect x="388.462" y="1147.12" width="114.326" height="5.769" style="fill:#4b4b4b;"/><rect x="388.462" y="1158.65" width="114.326" height="5.769" style="fill:#4b4b4b;"/><rect x="388.462" y="1170.19" width="114.326" height="5.769" style="fill:#4b4b4b;"/><rect x="388.462" y="1181.73" width="138.462" height="5.769" style="fill:#4b4b4b;"/><rect x="388.462" y="1193.27" width="50.812" height="5.769" style="fill:#4b4b4b;"/><rect x="388.462" y="1204.81" width="50.812" height="5.769" style="fill:#4b4b4b;"/><rect x="388.462" y="1216.35" width="50.812" height="5.769" style="fill:#4b4b4b;"/><rect x="388.462" y="1227.88" width="50.812" height="5.769" style="fill:#4b4b4b;"/><rect x="388.462" y="1239.42" width="32.631" height="5.769" style="fill:#4b4b4b;"/><rect x="388.462" y="1250.96" width="32.631" height="5.769" style="fill:#4b4b4b;"/><rect x="388.462" y="1262.5" width="44.46" height="5.769" style="fill:#4b4b4b;"/><rect x="388.462" y="1274.04" width="44.46" height="5.769" style="fill:#4b4b4b;"/><rect x="388.462" y="1285.58" width="52.747" height="5.769" style="fill:#4b4b4b;"/><rect x="388.462" y="1297.12" width="92.308" height="5.769" style="fill:#4b4b4b;"/><rect x="388.462" y="1308.65" width="92.308" height="5.769" style="fill:#4b4b4b;"/><rect x="388.462" y="1320.19" width="184.615" height="5.769" style="fill:#4b4b4b;"/><rect x="388.462" y="1331.73" width="155.61" height="5.769" style="fill:#4b4b4b;"/><rect x="388.462" y="1343.27" width="155.61" height="5.769" style="fill:#4b4b4b;"/><rect x="388.462" y="1354.81" width="121.154" height="5.769" style="fill:#4b4b4b;"/><rect x="388.462" y="1366.35" width="121.154" height="5.769" style="fill:#4b4b4b;"/><rect x="388.462" y="1377.88" width="121.154" height="5.769" style="fill:#4b4b4b;"/><rect x="388.462" y="1389.42" width="161.538" height="5.769" style="fill:#4b4b4b;"/><rect x="388.462" y="1400.96" width="161.538" height="5.769" style="fill:#4b4b4b;"/><rect x="388.462" y="1412.5" width="92.308" height="5.769" style="fill:#4b4b4b;"/><rect x="388.462" y="1424.04" width="92.308" height="5.769" style="fill:#4b4b4b;"/><rect x="388.462" y="1435.58" width="92.308" height="5.769" style="fill:#4b4b4b;"/><rect x="388.462" y="1447.12" width="92.308" height="5.769" style="fill:#4b4b4b;"/><rect x="388.462" y="1458.65" width="46.154" height="5.769" style="fill:#4b4b4b;"/><rect x="388.462" y="1470.19" width="46.154" height="5.769" style="fill:#4b4b4b;"/><rect x="388.462" y="1481.73" width="46.154" height="5.769" style="fill:#4b4b4b;"/><rect x="388.462" y="1493.27" width="46.154" height="5.769" style="fill:#4b4b4b;"/><rect x="388.462" y="1504.81" width="59.28" height="5.769" style="fill:#4b4b4b;"/></svg>