<?xml version="1.0" encoding="UTF-8" standalone="no"?><!DOCTYPE svg PUBLIC "-//W3C//DTD SVG 1.1//EN" "http://www.w3.org/Graphics/SVG/1.1/DTD/svg11.dtd"><svg width="100%" height="100%" viewBox="0 0 2000 2000" version="1.1" xmlns="http://www.w3.org/2000/svg" xmlns:xlink="http://www.w3.org/1999/xlink" xml:space="preserve" style="fill-rule:evenodd;clip-rule:evenodd;stroke-linejoin:round;stroke-miterlimit:1.41421;"><path d="M826.014,330.155l0,20.271l-20.271,0l0,-20.271l20.271,0Zm0,111.487l-20.271,0l0,-20.27l20.271,0l0,20.27Zm30.405,-50.676l0,20.27l-20.27,0l0,-20.27l20.27,0Zm0,30.406l0,20.27l-20.27,0l0,-20.27l20.27,0Zm0,-91.217l0,20.271l-20.27,0l0,-20.271l20.27,0Zm30.405,60.811l0,20.27l-20.27,0l0,-20.27l20.27,0Zm0,30.406l0,20.27l-20.27,0l0,-20.27l20.27,0Zm0,-91.217l0,20.271l-20.27,0l0,-20.271l20.27,0Zm30.406,0l0,20.271l-20.271,0l0,-20.271l20.271,0Zm0,60.811l0,20.27l-20.271,0l0,-20.27l20.271,0Zm0,30.406l0,20.27l-20.271,0l0,-20.27l20.271,0Zm30.405,-91.217l0,20.271l-20.27,0l0,-20.271l20.27,0Zm30.406,-30.405l0,20.27l-20.271,0l0,-20.27l20.271,0Zm0,30.405l0,20.271l-20.271,0l0,-20.271l20.271,0Zm30.405,-30.405l0,20.27l-20.27,0l0,-20.27l20.27,0Zm0,30.405l0,20.271l-20.27,0l0,-20.271l20.27,0Zm30.405,-30.405l0,20.27l-20.27,0l0,-20.27l20.27,0Zm0,30.405l0,20.271l-20.27,0l0,-20.271l20.27,0Zm0,30.406l0,20.27l-20.27,0l0,-20.27l20.27,0Zm0,30.405l0,20.27l-20.27,0l0,-20.27l20.27,0Zm0,30.406l0,20.27l-20.27,0l0,-20.27l20.27,0Zm30.406,-91.217l0,20.271l-20.271,0l0,-20.271l20.271,0Zm0,60.811l0,20.27l-20.271,0l0,-20.27l20.271,0Zm0,-30.405l0,20.27l-20.271,0l0,-20.27l20.271,0Zm30.405,60.811l0,20.27l-20.27,0l0,-20.27l20.27,0Zm0,-91.217l0,20.271l-20.27,0l0,-20.271l20.27,0Zm0,60.811l0,20.27l-20.27,0l0,-20.27l20.27,0Zm30.406,-60.811l0,20.271l-20.271,0l0,-20.271l20.271,0Zm0,30.406l0,20.27l-20.271,0l0,-20.27l20.271,0Zm0,30.405l0,20.27l-20.271,0l0,-20.27l20.271,0Zm0,30.406l0,20.27l-20.271,0l0,-20.27l20.271,0Zm30.405,-91.217l0,20.271l-20.27,0l0,-20.271l20.27,0Zm0,30.406l0,20.27l-20.27,0l0,-20.27l20.27,0Zm0,30.405l0,20.27l-20.27,0l0,-20.27l20.27,0Zm0,30.406l0,20.27l-20.27,0l0,-20.27l20.27,0Zm30.405,-60.811l0,20.27l-20.27,0l0,-20.27l20.27,0Zm0,60.811l0,20.27l-20.27,0l0,-20.27l20.27,0Zm0,-91.217l0,20.271l-20.27,0l0,-20.271l20.27,0Zm30.406,30.406l0,20.27l-20.27,0l0,-20.27l20.27,0Zm30.405,-30.406l0,20.271l-20.27,0l0,-20.271l20.27,0Zm0,30.406l0,20.27l-20.27,0l0,-20.27l20.27,0Zm0,30.405l0,20.27l-20.27,0l0,-20.27l20.27,0Zm30.406,0l0,20.27l-20.271,0l0,-20.27l20.271,0Zm0,-91.216l0,20.27l-20.271,0l0,-20.27l20.271,0Zm0,30.405l0,20.271l-20.271,0l0,-20.271l20.271,0Zm0,30.406l0,20.27l-20.271,0l0,-20.27l20.271,0Zm30.405,30.405l0,20.27l-20.27,0l0,-20.27l20.27,0Zm30.405,0l0,20.27l-20.27,0l0,-20.27l20.27,0Zm0,30.406l0,20.27l-20.27,0l0,-20.27l20.27,0Zm30.406,0l0,20.27l-20.27,0l0,-20.27l20.27,0Zm0,-121.622l0,20.27l-20.27,0l0,-20.27l20.27,0Zm0,30.405l0,20.271l-20.27,0l0,-20.271l20.27,0Zm0,30.406l0,20.27l-20.27,0l0,-20.27l20.27,0Zm0,30.405l0,20.27l-20.27,0l0,-20.27l20.27,0Zm30.405,-30.405l0,20.27l-20.27,0l0,-20.27l20.27,0Zm0,30.405l0,20.27l-20.27,0l0,-20.27l20.27,0Zm30.406,30.406l0,20.27l-20.271,0l0,-20.27l20.271,0Zm0,-30.406l0,20.27l-20.271,0l0,-20.27l20.271,0Zm0,-30.405l0,20.27l-20.271,0l0,-20.27l20.271,0Zm0,-30.406l0,20.271l-20.271,0l0,-20.271l20.271,0Zm0,-30.405l0,20.27l-20.271,0l0,-20.27l20.271,0Zm30.405,0l0,20.27l-20.27,0l0,-20.27l20.27,0Zm0,30.405l0,20.271l-20.27,0l0,-20.271l20.27,0Zm30.405,0l0,20.271l-20.27,0l0,-20.271l20.27,0Zm0,30.406l0,20.27l-20.27,0l0,-20.27l20.27,0Zm0,60.811l0,20.27l-20.27,0l0,-20.27l20.27,0Zm0,-30.406l0,20.27l-20.27,0l0,-20.27l20.27,0Zm30.406,30.406l0,20.27l-20.27,0l0,-20.27l20.27,0Zm0,-91.217l0,20.271l-20.27,0l0,-20.271l20.27,0Zm0,30.406l0,20.27l-20.27,0l0,-20.27l20.27,0Zm30.405,-60.811l0,20.27l-20.27,0l0,-20.27l20.27,0Zm0,30.405l0,20.271l-20.27,0l0,-20.271l20.27,0Zm0,30.406l0,20.27l-20.27,0l0,-20.27l20.27,0Zm0,60.811l0,20.27l-20.27,0l0,-20.27l20.27,0Z" style="fill:#acacac;"/><path d="M355.743,1120.02l-20.27,0l0,-20.27l20.27,0l0,20.27Zm-30.405,0l-20.27,0l0,-20.27l20.27,0l0,20.27Zm-81.081,0l0,-20.27l20.27,0l0,20.27l-20.27,0Zm81.081,30.406l-20.27,0l0,-20.271l20.27,0l0,20.271Zm0,30.405l-20.27,0l0,-20.27l20.27,0l0,20.27Zm-60.811,0l-20.27,0l0,-20.27l20.27,0l0,20.27Zm91.216,30.405l-20.27,0l0,-20.27l20.27,0l0,20.27Zm-30.405,0l-20.27,0l0,-20.27l20.27,0l0,20.27Zm-30.406,0l-20.27,0l0,-20.27l20.27,0l0,20.27Zm30.406,30.406l-20.27,0l0,-20.27l20.27,0l0,20.27Zm-30.406,0l-20.27,0l0,-20.27l20.27,0l0,20.27Zm-30.405,0l-20.27,0l0,-20.27l20.27,0l0,20.27Zm91.216,30.405l-20.27,0l0,-20.27l20.27,0l0,20.27Zm-30.405,0l-20.27,0l0,-20.27l20.27,0l0,20.27Zm-30.406,0l-20.27,0l0,-20.27l20.27,0l0,20.27Zm-30.405,0l-20.27,0l0,-20.27l20.27,0l0,20.27Zm0,30.406l-20.27,0l0,-20.271l20.27,0l0,20.271Zm0,30.405l-20.27,0l0,-20.27l20.27,0l0,20.27Zm60.811,30.406l-20.27,0l0,-20.271l20.27,0l0,20.271Zm-30.406,0l-20.27,0l0,-20.271l20.27,0l0,20.271Zm-30.405,0l-20.27,0l0,-20.271l20.27,0l0,20.271Zm60.811,30.405l-20.27,0l0,-20.27l20.27,0l0,20.27Zm-30.406,0l-20.27,0l0,-20.27l20.27,0l0,20.27Zm-30.405,0l-20.27,0l0,-20.27l20.27,0l0,20.27Zm91.216,30.405l-20.27,0l0,-20.27l20.27,0l0,20.27Zm-30.405,0l-20.27,0l0,-20.27l20.27,0l0,20.27Zm30.405,30.406l-20.27,0l0,-20.271l20.27,0l0,20.271Zm-30.405,30.405l-20.27,0l0,-20.27l20.27,0l0,20.27Zm30.405,0l-20.27,0l0,-20.27l20.27,0l0,20.27Zm-30.405,30.406l-20.27,0l0,-20.271l20.27,0l0,20.271Zm30.405,30.405l-20.27,0l0,-20.27l20.27,0l0,20.27Zm-30.405,0l-20.27,0l0,-20.27l20.27,0l0,20.27Zm0,30.405l-20.27,0l0,-20.27l20.27,0l0,20.27Zm30.405,0l-20.27,0l0,-20.27l20.27,0l0,20.27Zm-60.811,30.406l-20.27,0l0,-20.271l20.27,0l0,20.271Zm30.406,0l-20.27,0l0,-20.271l20.27,0l0,20.271Zm0,30.405l-20.27,0l0,-20.27l20.27,0l0,20.27Zm-30.406,0l-20.27,0l0,-20.27l20.27,0l0,20.27Zm-30.405,0l-20.27,0l0,-20.27l20.27,0l0,20.27Zm30.405,30.406l-20.27,0l0,-20.271l20.27,0l0,20.271Zm-30.405,0l-20.27,0l0,-20.271l20.27,0l0,20.271Zm60.811,30.405l-20.27,0l0,-20.27l20.27,0l0,20.27Zm-60.811,0l-20.27,0l0,-20.27l20.27,0l0,20.27Zm0,30.405l-20.27,0l0,-20.27l20.27,0l0,20.27Zm60.811,0l-20.27,0l0,-20.27l20.27,0l0,20.27Zm-30.406,0l-20.27,0l0,-20.27l20.27,0l0,20.27Zm30.406,30.406l-20.27,0l0,-20.27l20.27,0l0,20.27Zm-30.406,0l-20.27,0l0,-20.27l20.27,0l0,20.27Zm-30.405,0l-20.27,0l0,-20.27l20.27,0l0,20.27Zm30.405,30.405l-20.27,0l0,-20.27l20.27,0l0,20.27Zm0,30.406l-20.27,0l0,-20.271l20.27,0l0,20.271Zm60.811,30.405l-20.27,0l0,-20.27l20.27,0l0,20.27Zm-30.405,0l-20.27,0l0,-20.27l20.27,0l0,20.27Zm-30.406,0l-20.27,0l0,-20.27l20.27,0l0,20.27Zm-30.405,0l-20.27,0l0,-20.27l20.27,0l0,20.27Z" style="fill:#acacac;"/><g><g><path d="M1756.18,1571.62l-438.575,0l0,-2.732l435.843,0l0,-468.634l2.732,0l0,471.366Z" style="fill:#595959;"/><path d="M1739.78,1516.16l-39.056,39.056l-383.124,0l0,-2.733l381.992,0l37.455,-37.455l0,-250.83l2.733,0l0,251.962Z" style="fill:#595959;"/><path d="M1739.78,1236.88l-2.733,0l0,-136.628l2.733,0l0,136.628Z" style="fill:#595959;"/><path d="M1739.78,1530.34l0,23.513l-2.733,0l0,-18.562l-19.528,19.528l-1.932,-1.932l23.029,-23.029l1.164,0.482Z" style="fill:#595959;"/><path d="M1438.4,1536.09l43.155,0l0,2.733l-44.287,0l-10.93,-10.931l-42.589,0l-10.93,10.931l-55.217,0l0,-2.733l54.085,0l10.93,-10.93l44.853,0l10.93,10.93Z" style="fill:#595959;"/><path d="M1646.08,1536.09l54.085,0l0,2.733l-55.217,0l-10.93,-10.931l-31.659,0l-10.931,10.931l-82.542,0l0,-2.733l81.411,0l10.93,-10.93l33.922,0l10.931,10.93Z" style="fill:#595959;"/></g><path d="M1015.74,959.75l12.15,0l0,12.15l-12.15,0l0,-12.15Zm14.175,0l12.15,0l0,12.15l-12.15,0l0,-12.15Zm14.175,0l12.15,0l0,12.15l-12.15,0l0,-12.15Zm-88.35,0l12.15,0l0,12.15l-12.15,0l0,-12.15Zm14.175,0l12.15,0l0,12.15l-12.15,0l0,-12.15Zm14.175,0l12.15,0l0,12.15l-12.15,0l0,-12.15Zm-88.35,0l12.15,0l0,12.15l-12.15,0l0,-12.15Zm14.175,0l12.15,0l0,12.15l-12.15,0l0,-12.15Zm14.175,0l12.15,0l0,12.15l-12.15,0l0,-12.15Zm-60,0l12.15,0l0,12.15l-12.15,0l0,-12.15Zm-14.175,0l12.15,0l0,12.15l-12.15,0l0,-12.15Zm-14.175,0l12.15,0l0,12.15l-12.15,0l0,-12.15Zm-60,0l12.15,0l0,12.15l-12.15,0l0,-12.15Zm28.35,0l12.15,0l0,12.15l-12.15,0l0,-12.15Zm-14.175,0l12.15,0l0,12.15l-12.15,0l0,-12.15Zm-60,0l12.15,0l0,12.15l-12.15,0l0,-12.15Zm14.175,0l12.15,0l0,12.15l-12.15,0l0,-12.15Zm-28.35,0l12.15,0l0,12.15l-12.15,0l0,-12.15Zm-45.825,0l12.15,0l0,12.15l-12.15,0l0,-12.15Zm14.175,0l12.15,0l0,12.15l-12.15,0l0,-12.15Zm-28.35,0l12.15,0l0,12.15l-12.15,0l0,-12.15Zm-31.65,0l12.15,0l0,12.15l-12.15,0l0,-12.15Zm-14.175,0l12.15,0l0,12.15l-12.15,0l0,-12.15Zm-14.175,0l12.15,0l0,12.15l-12.15,0l0,-12.15Zm-31.65,0l12.15,0l0,12.15l-12.15,0l0,-12.15Zm-14.175,0l12.15,0l0,12.15l-12.15,0l0,-12.15Zm-14.175,0l12.15,0l0,12.15l-12.15,0l0,-12.15Zm-31.65,0l12.15,0l0,12.15l-12.15,0l0,-12.15Zm-14.175,0l12.15,0l0,12.15l-12.15,0l0,-12.15Zm-14.175,0l12.15,0l0,12.15l-12.15,0l0,-12.15Zm-31.65,0l12.15,0l0,12.15l-12.15,0l0,-12.15Zm-14.175,0l12.15,0l0,12.15l-12.15,0l0,-12.15Zm-14.175,0l12.15,0l0,12.15l-12.15,0l0,-12.15Zm-31.65,0l12.15,0l0,12.15l-12.15,0l0,-12.15Zm-14.175,0l12.15,0l0,12.15l-12.15,0l0,-12.15Zm-14.175,0l12.15,0l0,12.15l-12.15,0l0,-12.15Zm389.97,10.53l8.91,0l0,-8.91l-8.91,0l0,8.91Zm180,0l8.91,0l0,-8.91l-8.91,0l0,8.91Zm-14.175,0l8.91,0l0,-8.91l-8.91,0l0,8.91Zm-225.825,0l8.91,0l0,-8.91l-8.91,0l0,8.91Zm-14.175,0l8.91,0l0,-8.91l-8.91,0l0,8.91Zm-14.175,0l8.91,0l0,-8.91l-8.91,0l0,8.91Zm194.175,0l8.91,0l0,-8.91l-8.91,0l0,8.91Zm-14.175,0l8.91,0l0,-8.91l-8.91,0l0,8.91Zm28.35,0l8.91,0l0,-8.91l-8.91,0l0,8.91Zm-240,0l8.91,0l0,-8.91l-8.91,0l0,8.91Zm-14.175,0l8.91,0l0,-8.91l-8.91,0l0,8.91Zm-14.175,0l8.91,0l0,-8.91l-8.91,0l0,8.91Zm420,0l8.91,0l0,-8.91l-8.91,0l0,8.91Zm-240,0l8.91,0l0,-8.91l-8.91,0l0,8.91Zm254.175,0l8.91,0l0,-8.91l-8.91,0l0,8.91Zm-465.825,0l8.91,0l0,-8.91l-8.91,0l0,8.91Zm-14.175,0l8.91,0l0,-8.91l-8.91,0l0,8.91Zm-14.175,0l8.91,0l0,-8.91l-8.91,0l0,8.91Zm508.35,0l8.91,0l0,-8.91l-8.91,0l0,8.91Zm-240,0l8.91,0l0,-8.91l-8.91,0l0,8.91Zm-14.175,0l8.91,0l0,-8.91l-8.91,0l0,8.91Zm-285.825,0l8.91,0l0,-8.91l-8.91,0l0,8.91Zm-14.175,0l8.91,0l0,-8.91l-8.91,0l0,8.91Zm-14.175,0l8.91,0l0,-8.91l-8.91,0l0,8.91Zm480,0l8.91,0l0,-8.91l-8.91,0l0,8.91Zm-60,0l8.91,0l0,-8.91l-8.91,0l0,8.91Zm74.175,0l8.91,0l0,-8.91l-8.91,0l0,8.91Zm-525.825,0l8.91,0l0,-8.91l-8.91,0l0,8.91Zm-14.175,0l8.91,0l0,-8.91l-8.91,0l0,8.91Zm-14.175,0l8.91,0l0,-8.91l-8.91,0l0,8.91Zm568.35,0l8.91,0l0,-8.91l-8.91,0l0,8.91Zm-254.175,0l8.91,0l0,-8.91l-8.91,0l0,8.91Zm-14.175,0l8.91,0l0,-8.91l-8.91,0l0,8.91Zm-331.65,0l8.91,0l0,-8.91l-8.91,0l0,8.91Zm-14.175,0l8.91,0l0,-8.91l-8.91,0l0,8.91Zm-14.175,0l8.91,0l0,-8.91l-8.91,0l0,8.91Zm672.555,3.645l12.15,0l0,12.15l-12.15,0l0,-12.15Zm-74.175,0l12.15,0l0,12.15l-12.15,0l0,-12.15Zm60,0l12.15,0l0,12.15l-12.15,0l0,-12.15Zm-271.65,0l12.15,0l0,12.15l-12.15,0l0,-12.15Zm-14.175,0l12.15,0l0,12.15l-12.15,0l0,-12.15Zm-14.175,0l12.15,0l0,12.15l-12.15,0l0,-12.15Zm-151.65,0l12.15,0l0,12.15l-12.15,0l0,-12.15Zm-14.175,0l12.15,0l0,12.15l-12.15,0l0,-12.15Zm-14.175,0l12.15,0l0,12.15l-12.15,0l0,-12.15Zm434.175,0l12.15,0l0,12.15l-12.15,0l0,-12.15Zm14.175,0l12.15,0l0,12.15l-12.15,0l0,-12.15Zm-88.35,0l12.15,0l0,12.15l-12.15,0l0,-12.15Zm148.35,0l12.15,0l0,12.15l-12.15,0l0,-12.15Zm-134.175,0l12.15,0l0,12.15l-12.15,0l0,-12.15Zm-74.175,0l12.15,0l0,12.15l-12.15,0l0,-12.15Zm-331.65,0l12.15,0l0,12.15l-12.15,0l0,-12.15Zm-14.175,0l12.15,0l0,12.15l-12.15,0l0,-12.15Zm-14.175,0l12.15,0l0,12.15l-12.15,0l0,-12.15Zm208.35,0l12.15,0l0,12.15l-12.15,0l0,-12.15Zm-14.175,0l12.15,0l0,12.15l-12.15,0l0,-12.15Zm-14.175,0l12.15,0l0,12.15l-12.15,0l0,-12.15Zm148.35,0l12.15,0l0,12.15l-12.15,0l0,-12.15Zm-14.175,0l12.15,0l0,12.15l-12.15,0l0,-12.15Zm-14.175,0l12.15,0l0,12.15l-12.15,0l0,-12.15Zm-331.65,0l12.15,0l0,12.15l-12.15,0l0,-12.15Zm-14.175,0l12.15,0l0,12.15l-12.15,0l0,-12.15Zm-14.175,0l12.15,0l0,12.15l-12.15,0l0,-12.15Zm434.175,0l12.15,0l0,12.15l-12.15,0l0,-12.15Zm14.175,0l12.15,0l0,12.15l-12.15,0l0,-12.15Zm60,0l12.15,0l0,12.15l-12.15,0l0,-12.15Zm-300,0l12.15,0l0,12.15l-12.15,0l0,-12.15Zm-14.175,0l12.15,0l0,12.15l-12.15,0l0,-12.15Zm-14.175,0l12.15,0l0,12.15l-12.15,0l0,-12.15Zm-211.65,0l12.15,0l0,12.15l-12.15,0l0,-12.15Zm-14.175,0l12.15,0l0,12.15l-12.15,0l0,-12.15Zm-14.175,0l12.15,0l0,12.15l-12.15,0l0,-12.15Zm481.62,10.53l8.91,0l0,-8.91l-8.91,0l0,8.91Zm-165.825,0l8.91,0l0,-8.91l-8.91,0l0,8.91Zm-14.175,0l8.91,0l0,-8.91l-8.91,0l0,8.91Zm328.35,0l8.91,0l0,-8.91l-8.91,0l0,8.91Zm45.825,0l8.91,0l0,-8.91l-8.91,0l0,8.91Zm14.175,0l8.91,0l0,-8.91l-8.91,0l0,8.91Zm-74.175,0l8.91,0l0,-8.91l-8.91,0l0,8.91Zm-14.175,0l8.91,0l0,-8.91l-8.91,0l0,8.91Zm-31.65,0l8.91,0l0,-8.91l-8.91,0l0,8.91Zm-420,0l8.91,0l0,-8.91l-8.91,0l0,8.91Zm-14.175,0l8.91,0l0,-8.91l-8.91,0l0,8.91Zm-14.175,0l8.91,0l0,-8.91l-8.91,0l0,8.91Zm268.35,0l8.91,0l0,-8.91l-8.91,0l0,8.91Zm-14.175,0l8.91,0l0,-8.91l-8.91,0l0,8.91Zm-14.175,0l8.91,0l0,-8.91l-8.91,0l0,8.91Zm-91.65,0l8.91,0l0,-8.91l-8.91,0l0,8.91Zm-14.175,0l8.91,0l0,-8.91l-8.91,0l0,8.91Zm-14.175,0l8.91,0l0,-8.91l-8.91,0l0,8.91Zm88.35,0l8.91,0l0,-8.91l-8.91,0l0,8.91Zm331.65,0l8.91,0l0,-8.91l-8.91,0l0,8.91Zm-105.825,0l8.91,0l0,-8.91l-8.91,0l0,8.91Zm-465.825,0l8.91,0l0,-8.91l-8.91,0l0,8.91Zm-14.175,0l8.91,0l0,-8.91l-8.91,0l0,8.91Zm-14.175,0l8.91,0l0,-8.91l-8.91,0l0,8.91Zm388.35,0l8.91,0l0,-8.91l-8.91,0l0,8.91Zm-14.175,0l8.91,0l0,-8.91l-8.91,0l0,8.91Zm-14.175,0l8.91,0l0,-8.91l-8.91,0l0,8.91Zm120,0l8.91,0l0,-8.91l-8.91,0l0,8.91Zm-31.65,0l8.91,0l0,-8.91l-8.91,0l0,8.91Zm-14.175,0l8.91,0l0,-8.91l-8.91,0l0,8.91Zm-285.825,0l8.91,0l0,-8.91l-8.91,0l0,8.91Zm-14.175,0l8.91,0l0,-8.91l-8.91,0l0,8.91Zm-14.175,0l8.91,0l0,-8.91l-8.91,0l0,8.91Zm-151.65,0l8.91,0l0,-8.91l-8.91,0l0,8.91Zm-14.175,0l8.91,0l0,-8.91l-8.91,0l0,8.91Zm-14.175,0l8.91,0l0,-8.91l-8.91,0l0,8.91Zm266.73,3.645l12.15,0l0,12.15l-12.15,0l0,-12.15Zm-14.175,0l12.15,0l0,12.15l-12.15,0l0,-12.15Zm-14.175,0l12.15,0l0,12.15l-12.15,0l0,-12.15Zm-91.65,0l12.15,0l0,12.15l-12.15,0l0,-12.15Zm-14.175,0l12.15,0l0,12.15l-12.15,0l0,-12.15Zm-14.175,0l12.15,0l0,12.15l-12.15,0l0,-12.15Zm374.175,0l12.15,0l0,12.15l-12.15,0l0,-12.15Zm134.175,0l12.15,0l0,12.15l-12.15,0l0,-12.15Zm-148.35,0l12.15,0l0,12.15l-12.15,0l0,-12.15Zm28.35,0l12.15,0l0,12.15l-12.15,0l0,-12.15Zm-120,0l12.15,0l0,12.15l-12.15,0l0,-12.15Zm-14.175,0l12.15,0l0,12.15l-12.15,0l0,-12.15Zm-45.825,0l12.15,0l0,12.15l-12.15,0l0,-12.15Zm-14.175,0l12.15,0l0,12.15l-12.15,0l0,-12.15Zm-14.175,0l12.15,0l0,12.15l-12.15,0l0,-12.15Zm148.35,0l12.15,0l0,12.15l-12.15,0l0,-12.15Zm-14.175,0l12.15,0l0,12.15l-12.15,0l0,-12.15Zm-14.175,0l12.15,0l0,12.15l-12.15,0l0,-12.15Zm-331.65,0l12.15,0l0,12.15l-12.15,0l0,-12.15Zm-14.175,0l12.15,0l0,12.15l-12.15,0l0,-12.15Zm-14.175,0l12.15,0l0,12.15l-12.15,0l0,-12.15Zm148.35,0l12.15,0l0,12.15l-12.15,0l0,-12.15Zm-14.175,0l12.15,0l0,12.15l-12.15,0l0,-12.15Zm-14.175,0l12.15,0l0,12.15l-12.15,0l0,-12.15Zm494.175,0l12.15,0l0,12.15l-12.15,0l0,-12.15Zm14.175,0l12.15,0l0,12.15l-12.15,0l0,-12.15Zm-88.35,0l12.15,0l0,12.15l-12.15,0l0,-12.15Zm-45.825,0l12.15,0l0,12.15l-12.15,0l0,-12.15Zm14.175,0l12.15,0l0,12.15l-12.15,0l0,-12.15Zm45.825,0l12.15,0l0,12.15l-12.15,0l0,-12.15Zm45.825,0l12.15,0l0,12.15l-12.15,0l0,-12.15Zm-120,0l12.15,0l0,12.15l-12.15,0l0,-12.15Zm-180,0l12.15,0l0,12.15l-12.15,0l0,-12.15Zm-331.65,0l12.15,0l0,12.15l-12.15,0l0,-12.15Zm-14.175,0l12.15,0l0,12.15l-12.15,0l0,-12.15Zm-14.175,0l12.15,0l0,12.15l-12.15,0l0,-12.15Zm329.97,10.53l8.91,0l0,-8.91l-8.91,0l0,8.91Zm-14.175,0l8.91,0l0,-8.91l-8.91,0l0,8.91Zm60,0l8.91,0l0,-8.91l-8.91,0l0,8.91Zm14.175,0l8.91,0l0,-8.91l-8.91,0l0,8.91Zm91.65,0l8.91,0l0,-8.91l-8.91,0l0,8.91Zm-240,0l8.91,0l0,-8.91l-8.91,0l0,8.91Zm268.35,0l8.91,0l0,-8.91l-8.91,0l0,8.91Zm-300,0l8.91,0l0,-8.91l-8.91,0l0,8.91Zm-28.35,0l8.91,0l0,-8.91l-8.91,0l0,8.91Zm-120,0l8.91,0l0,-8.91l-8.91,0l0,8.91Zm134.175,0l8.91,0l0,-8.91l-8.91,0l0,8.91Zm105.825,0l8.91,0l0,-8.91l-8.91,0l0,8.91Zm328.35,0l8.91,0l0,-8.91l-8.91,0l0,8.91Zm-540,0l8.91,0l0,-8.91l-8.91,0l0,8.91Zm-14.175,0l8.91,0l0,-8.91l-8.91,0l0,8.91Zm540,0l8.91,0l0,-8.91l-8.91,0l0,8.91Zm-345.825,0l8.91,0l0,-8.91l-8.91,0l0,8.91Zm180,0l8.91,0l0,-8.91l-8.91,0l0,8.91Zm-28.35,0l8.91,0l0,-8.91l-8.91,0l0,8.91Zm180,0l8.91,0l0,-8.91l-8.91,0l0,8.91Zm-451.65,0l8.91,0l0,-8.91l-8.91,0l0,8.91Zm-14.175,0l8.91,0l0,-8.91l-8.91,0l0,8.91Zm-105.825,0l8.91,0l0,-8.91l-8.91,0l0,8.91Zm-28.35,0l8.91,0l0,-8.91l-8.91,0l0,8.91Zm14.175,0l8.91,0l0,-8.91l-8.91,0l0,8.91Zm105.825,0l8.91,0l0,-8.91l-8.91,0l0,8.91Zm568.35,0l8.91,0l0,-8.91l-8.91,0l0,8.91Zm-434.175,0l8.91,0l0,-8.91l-8.91,0l0,8.91Zm405.825,0l8.91,0l0,-8.91l-8.91,0l0,8.91Zm-225.825,0l8.91,0l0,-8.91l-8.91,0l0,8.91Zm-74.175,0l8.91,0l0,-8.91l-8.91,0l0,8.91Zm180,0l8.91,0l0,-8.91l-8.91,0l0,8.91Zm28.35,0l8.91,0l0,-8.91l-8.91,0l0,8.91Zm-14.175,0l8.91,0l0,-8.91l-8.91,0l0,8.91Zm120,0l8.91,0l0,-8.91l-8.91,0l0,8.91Zm-180,0l8.91,0l0,-8.91l-8.91,0l0,8.91Zm464.205,601.62l27,0l0,27l-27,0l0,-27Zm140,0l90,0l0,90l-90,0l0,-90Zm-108.5,0l27,0l0,27l-27,0l0,-27Zm31.5,0l27,0l0,27l-27,0l0,-27Zm182,0l90,0l0,90l-90,0l0,-90Zm105,0l90,0l0,90l-90,0l0,-90Zm-283.4,23.4l19.8,0l0,-19.8l-19.8,0l0,19.8Zm-31.5,0l19.8,0l0,-19.8l-19.8,0l0,19.8Zm-31.5,0l19.8,0l0,-19.8l-19.8,0l0,19.8Zm148.4,54.6l66,0l0,-66l-66,0l0,66Zm105,0l66,0l0,-66l-66,0l0,66Zm105,0l66,0l0,-66l-66,0l0,66Zm-362,-46.5l27,0l0,27l-27,0l0,-27Zm63,0l27,0l0,27l-27,0l0,-27Zm-31.5,0l27,0l0,27l-27,0l0,-27Zm35.1,23.4l19.8,0l0,-19.8l-19.8,0l0,19.8Zm-63,0l19.8,0l0,-19.8l-19.8,0l0,19.8Zm31.5,0l19.8,0l0,-19.8l-19.8,0l0,19.8Zm-35.1,8.1l27,0l0,27l-27,0l0,-27Zm31.5,0l27,0l0,27l-27,0l0,-27Zm31.5,0l27,0l0,27l-27,0l0,-27Zm-59.4,23.4l19.8,0l0,-19.8l-19.8,0l0,19.8Zm63,0l19.8,0l0,-19.8l-19.8,0l0,19.8Zm-31.5,0l19.8,0l0,-19.8l-19.8,0l0,19.8Zm-75.1,13.6l60,0l0,60l-60,0l0,-60Zm-70,0l60,0l0,60l-60,0l0,-60Zm140,0l60,0l0,60l-60,0l0,-60Zm110,5l90,0l0,90l-90,0l0,-90Zm210,0l90,0l0,90l-90,0l0,-90Zm-105,0l90,0l0,90l-90,0l0,-90Zm-347,47l44,0l0,-44l-44,0l0,44Zm140,0l44,0l0,-44l-44,0l0,44Zm-70,0l44,0l0,-44l-44,0l0,44Zm394,31l66,0l0,-66l-66,0l0,66Zm-105,0l66,0l0,-66l-66,0l0,66Zm-105,0l66,0l0,-66l-66,0l0,66Zm-192,-13l60,0l0,60l-60,0l0,-60Zm70,0l60,0l0,60l-60,0l0,-60Zm-140,0l60,0l0,60l-60,0l0,-60Zm78,52l44,0l0,-44l-44,0l0,44Zm70,0l44,0l0,-44l-44,0l0,44Zm-140,0l44,0l0,-44l-44,0l0,44Zm452,-12l90,0l0,90l-90,0l0,-90Zm-210,0l90,0l0,90l-90,0l0,-90Zm105,0l90,0l0,90l-90,0l0,-90Zm12,78l66,0l0,-66l-66,0l0,66Zm-105,0l66,0l0,-66l-66,0l0,66Zm210,0l66,0l0,-66l-66,0l0,66Zm-472,-48l60,0l0,60l-60,0l0,-60Zm140,0l60,0l0,60l-60,0l0,-60Zm-70,0l60,0l0,60l-60,0l0,-60Zm8,52l44,0l0,-44l-44,0l0,44Zm-70,0l44,0l0,-44l-44,0l0,44Zm140,0l44,0l0,-44l-44,0l0,44Z" style="fill:#7e7e7e;"/></g><g><path d="M1658.24,308.714l0,300l100,100l0,201.036l-5,0l0,-198.964l-100,-100l0,-300l-98.535,-98.536l-898.965,0l0,-5l901.036,0l101.464,101.464Z" style="fill:#7e7e7e;"/><path d="M1455.74,102.25l-208.964,0l-90,90l-501.036,0l0,-5l498.965,0l90,-90l211.035,0l0,5Z" style="fill:#7e7e7e;"/><path d="M1638.24,308.714l0,301.036l-5,0l0,-298.964l-78.535,-78.536l-98.965,0l0,-5l101.036,0l81.464,81.464Z" style="fill:#7e7e7e;"/><path d="M1135.74,172.25l-480,0l0,-5l480,0l0,5Z" style="fill:#7e7e7e;"/></g></svg>