<?xml version="1.0" encoding="UTF-8" standalone="no"?><!DOCTYPE svg PUBLIC "-//W3C//DTD SVG 1.1//EN" "http://www.w3.org/Graphics/SVG/1.1/DTD/svg11.dtd"><svg width="100%" height="100%" viewBox="0 0 2000 2000" version="1.1" xmlns="http://www.w3.org/2000/svg" xmlns:xlink="http://www.w3.org/1999/xlink" xml:space="preserve" style="fill-rule:evenodd;clip-rule:evenodd;stroke-linejoin:round;stroke-miterlimit:1.41421;"><g><path d="M1109.38,742.188l-31.25,0l0,31.25l-15.625,0l0,312.5l15.625,-0.001l0,31.25l31.25,0l0,125l-156.25,156.251l-156.25,0l-31.25,31.249l-375,0l-31.25,-31.249l-31.25,0l0,-500.001l-15.625,-15.625l0,-187.5l15.625,-15.625l0,-62.5l156.25,-156.25l625,0l0,281.25Z" style="fill:#959595;"/><clipPath id="_clip1"><path d="M1109.38,742.188l-31.25,0l0,31.25l-15.625,0l0,312.5l15.625,-0.001l0,31.25l31.25,0l0,125l-156.25,156.251l-156.25,0l-31.25,31.249l-375,0l-31.25,-31.249l-31.25,0l0,-500.001l-15.625,-15.625l0,-187.5l15.625,-15.625l0,-62.5l156.25,-156.25l625,0l0,281.25Z"/></clipPath><g clip-path="url(#_clip1)"><path d="M484.375,695.313l78.125,-78.125l390.625,0l0,546.875l-78.125,78.124l-390.625,0l0,-546.875Z" style="fill:#b1b1b1;"/><path d="M523.438,476.563l15.625,0l0,93.75l-15.625,0l0,-93.75Zm31.25,0l15.625,0l0,93.75l-15.625,0l0,-93.75Zm31.25,0l15.625,0l0,93.75l-15.625,0l0,-93.75Zm31.25,0l15.625,0l0,93.75l-15.625,0l0,-93.75Zm31.25,0l15.625,0l0,93.75l-15.625,0l0,-93.75Zm31.25,0l15.625,0l0,93.75l-15.625,0l0,-93.75Zm31.25,0l15.625,0l0,93.75l-15.625,0l0,-93.75Zm31.25,0l15.625,0l0,93.75l-15.625,0l0,-93.75Zm31.25,0l15.625,0l0,93.75l-15.625,0l0,-93.75Zm31.25,0l15.625,0l0,93.75l-15.625,0l0,-93.75Zm31.25,0l15.625,0l0,93.75l-15.625,0l0,-93.75Zm31.25,0l15.625,0l0,93.75l-15.625,0l0,-93.75Zm46.875,0l0,93.75l-15.625,0l0,-93.75l15.625,0Z" style="fill:#a0a0a0;"/></g><path d="M1453.13,460.938l125,0l156.25,156.25l0,781.25l-437.5,-0.001l-156.25,-156.25l0,-109.375l31.25,-31.25l0,-62.5l31.25,-31.25l0,-203.125l-62.5,-62.5l0,-281.25l46.875,0l31.25,-31.25l203.125,0l31.25,31.25Zm-232.304,-26.25l-31.25,31.25l-43.946,0l0,274.179l62.5,62.5l0,207.268l-31.25,31.25l0,62.5l-31.25,31.25l0,105.232l153.321,153.321l430.429,0l0,-774.178l-153.321,-153.322l-125,0l-31.25,-31.25l-198.983,0Z" style="fill:#959595;"/><rect x="1328.13" y="1392.19" width="125" height="12.5" style="fill:#959595;"/><path d="M1703.13,1398.44l-125,-0.001l0,-31.25l125,0l0,31.25Zm-250,0l-125,0l0,-31.25l125,0l0,31.25Zm130,-26.25l0,21.25l115,0l0,-21.25l-115,0Zm-250,0l0,21.25l115,0l0,-21.25l-115,0Zm-67.5,-380l-62.5,0l0,-31.25l62.5,0l0,31.25Zm-57.5,-26.25l0,21.25l52.5,0l0,-21.25l-52.5,0Zm57.5,-20.625l-62.5,0l0,-31.25l62.5,0l0,31.25Zm-57.5,-26.25l0,21.25l52.5,0l0,-21.25l-52.5,0Zm57.5,-20.625l-62.5,0l0,-31.25l62.5,0l0,31.25Zm-57.5,-26.25l0,21.25l52.5,0l0,-21.25l-52.5,0Zm57.5,-20.625l-62.5,0l0,-31.25l62.5,0l0,31.25Zm-57.5,-26.25l0,21.25l52.5,0l0,-21.25l-52.5,0Zm-36.25,-130l-31.25,0l0,-203.125l31.25,0l0,203.125Zm-26.25,-198.125l0,193.125l21.25,0l0,-193.125l-21.25,0Z" style="fill:#959595;"/><path d="M1718.75,1554.69l15.625,-0.001l0,15.625l-15.625,0l0,-15.625Zm0,-62.5l15.625,0l0,15.625l-15.625,0l0,-15.625Zm-265.625,-62.5l-125,0l0,-31.25l125,0l0,31.25Zm250,0l-125,0l0,-35.937l125,0l0,35.937Zm31.25,-187.5l-46.875,0l0,-312.5l23.438,0l-0.001,-187.5l39.063,0l0,265.625l-15.625,0l0,234.375Zm-525,-250l-21.875,0l0,-31.25l21.875,0l0,31.25Zm-1.563,-46.875l-20.312,0l0,-31.25l20.312,0l0,31.25Zm-1.562,-46.875l-18.75,0l0,-31.25l18.75,0l0,31.25Zm0,-46.875l-18.75,0l0,-31.25l18.75,0l0,31.25Zm-62.5,-156.25l-18.75,0l0,-203.125l18.75,0l0,203.125Zm-846.875,-78.125l15.625,0l0,15.625l-15.625,0l0,-15.625Zm-31.25,0l0,15.625l-15.625,0l0,-15.625l15.625,0Z" style="fill:#959595;"/></g></svg>