<?xml version="1.0" encoding="UTF-8" standalone="no"?><!DOCTYPE svg PUBLIC "-//W3C//DTD SVG 1.1//EN" "http://www.w3.org/Graphics/SVG/1.1/DTD/svg11.dtd"><svg width="100%" height="100%" viewBox="0 0 2000 2000" version="1.1" xmlns="http://www.w3.org/2000/svg" xmlns:xlink="http://www.w3.org/1999/xlink" xml:space="preserve" xmlns:serif="http://www.serif.com/" style="fill-rule:evenodd;clip-rule:evenodd;stroke-linejoin:round;stroke-miterlimit:1.41421;"><path d="M974.141,836.592l67.04,67.039l222.785,0l0,-62.13l38.429,-38.428l347.046,0l0,105.467l100.559,100.559l0,179.448l-447.605,0l-33.52,-33.519l-155.746,0l-41.9,41.899l-301.676,0l-41.899,-41.899l-62.131,0l-138.987,-138.987l0,-95.65l0,0l0,-117.318l117.319,0l0,33.519l330.286,0Zm160.656,117.319l-43.337,0l217.877,217.877l177.415,0l-16.759,-16.76l-134.079,0l-201.117,-201.117Zm502.793,0l-479.091,0l184.358,184.357l134.078,0l33.519,33.52l222.786,0l0,-122.228l-95.65,-95.649Zm-905.028,-67.039l-88.707,0l0,33.519l-100.559,0l0,88.708l129.17,129.169l579.65,0l-184.358,-184.357l-268.156,0l-67.04,-67.039Zm-231.165,-83.799l0,251.396c0,0 -94.479,0 -167.598,0l-83.799,-83.799l0,-167.597l251.397,0Zm465.802,50.279l-323.344,0l0,16.76l95.65,0l67.039,67.039l837.989,0l88.707,88.708l0,-9.818l-95.65,-95.65l-603.352,0l-67.039,-67.039Zm-507.702,150.838l-33.519,0l0,16.76l33.519,0l0,-16.76Zm0,-33.52l-33.519,0l0,16.76l33.519,0l0,-16.76Zm0,-33.519l-33.519,0l0,16.76l33.519,0l0,-16.76Zm0,-33.52l-33.519,0l0,16.76l33.519,0l0,-16.76Zm167.598,-83.799l-83.799,0l0,83.799l83.799,0l0,-83.799Zm1005.59,0l-323.345,0l-28.611,28.611l0,55.188l351.956,0l0,-83.799Zm-1013.97,75.419l-67.039,0l0,-67.039l67.039,0l0,67.039Zm-159.218,-25.139l-33.519,0l0,16.76l33.519,0l0,-16.76Zm888.268,8.38l-16.759,0l0,-33.52l16.759,0l0,33.52Zm67.039,0l-16.759,0l0,-33.52l16.759,0l0,33.52Zm201.118,0l-16.76,0l0,-33.52l16.76,0l0,33.52Zm-234.637,0l-16.76,0l0,-33.52l16.76,0l0,33.52Zm67.039,0l-16.76,0l0,-33.52l16.76,0l0,33.52Zm33.52,0l-16.76,0l0,-33.52l16.76,0l0,33.52Zm33.519,0l-16.76,0l0,-33.52l16.76,0l0,33.52Zm33.52,0l-16.76,0l0,-33.52l16.76,0l0,33.52Zm33.519,0l-16.76,0l0,-33.52l16.76,0l0,33.52Zm-1122.9,-41.9l-33.519,0l0,16.76l33.519,0l0,-16.76Z" style="fill:#4a4a4a;"/></svg>