<?xml version="1.0" encoding="UTF-8" standalone="no"?><!DOCTYPE svg PUBLIC "-//W3C//DTD SVG 1.1//EN" "http://www.w3.org/Graphics/SVG/1.1/DTD/svg11.dtd"><svg width="100%" height="100%" viewBox="0 0 2000 2000" version="1.1" xmlns="http://www.w3.org/2000/svg" xmlns:xlink="http://www.w3.org/1999/xlink" xml:space="preserve" style="fill-rule:evenodd;clip-rule:evenodd;stroke-linejoin:round;stroke-miterlimit:1.41421;"><g><rect x="500" y="810" width="1000" height="20" style="fill:#d0d0d0;"/><rect x="500" y="850" width="1000" height="20" style="fill:#d0d0d0;"/><rect x="900" y="890" width="300" height="20" style="fill:#d0d0d0;"/><rect x="1260" y="890" width="240" height="20" style="fill:#d0d0d0;"/><rect x="900" y="930" width="600" height="20" style="fill:#d0d0d0;"/><rect x="900" y="970" width="560" height="20" style="fill:#d0d0d0;"/><rect x="920" y="1010" width="440" height="20" style="fill:#d0d0d0;"/><rect x="1000" y="1050" width="500" height="20" style="fill:#d0d0d0;"/><rect x="900" y="1090" width="460" height="20" style="fill:#d0d0d0;"/><rect x="900" y="1130" width="560" height="20" style="fill:#d0d0d0;"/><rect x="900" y="1170" width="400" height="20" style="fill:#d0d0d0;"/></g><path d="M580,1190l0,-160l-80,0l0,-60l80,0l0,-20l-80,0l0,-60l380,0l0,300l-300,0Zm-60,-140l0,20l-20,0l0,-20l20,0Zm0,40l0,20l-20,0l0,-20l20,0Zm0,40l0,20l-20,0l0,-20l20,0Zm0,60l-20,0l0,-20l20,0l0,20Zm40,-140l0,20l-20,0l0,-20l20,0Zm0,40l0,20l-20,0l0,-20l20,0Zm0,40l0,20l-20,0l0,-20l20,0Zm0,40l0,20l-20,0l0,-20l20,0Zm280,0l0,-240l-240,0l0,240l240,0Zm-160,-250l0,-10l-60,0l0,10l60,0Zm80,0l0,-10l-60,0l0,10l60,0Zm80,0l0,-10l-60,0l0,10l60,0Zm26,250l0,-260l-12,0l0,260l12,0Z" style="fill:#d0d0d0;"/></svg>