<?xml version="1.0" encoding="UTF-8" standalone="no"?><!DOCTYPE svg PUBLIC "-//W3C//DTD SVG 1.1//EN" "http://www.w3.org/Graphics/SVG/1.1/DTD/svg11.dtd"><svg width="100%" height="100%" viewBox="0 0 2000 2000" version="1.1" xmlns="http://www.w3.org/2000/svg" xmlns:xlink="http://www.w3.org/1999/xlink" xml:space="preserve" style="fill-rule:evenodd;clip-rule:evenodd;stroke-linejoin:round;stroke-miterlimit:1.41421;"><path d="M1312.5,562.5l-250,0l0,62.5l-187.5,0l0,62.5l437.5,0l0,937.5l-625,0c0,0 0,-567.25 0,-937.5l312.5,-312.5l312.5,0l0,187.5Zm-562.5,1018.75c-10.348,0 -18.75,-8.402 -18.75,-18.75c0,-10.348 8.402,-18.75 18.75,-18.75c10.348,0 18.75,8.402 18.75,18.75c0,10.348 -8.402,18.75 -18.75,18.75Zm500,0c-10.348,0 -18.75,-8.402 -18.75,-18.75c0,-10.348 8.402,-18.75 18.75,-18.75c10.348,0 18.75,8.402 18.75,18.75c0,10.348 -8.402,18.75 -18.75,18.75Zm0,-581.25l-125,0l0,437.5l125,0l0,-437.5Zm-187.5,0l-125,0l0,437.5l125,0l0,-437.5Zm-187.5,0l-125,0l0,437.5l125,0l0,-437.5Zm125,-125l-62.5,0l0,62.5l62.5,0l0,-62.5Zm125,0l-62.5,0l0,62.5l62.5,0l0,-62.5Zm125,0l-62.5,0l0,62.5l62.5,0l0,-62.5Zm-375,0l-62.5,0l0,62.5l62.5,0l0,-62.5Zm-62.5,-125l-62.5,0l0,62.5l62.5,0l0,-62.5Zm125,0l-62.5,0l0,62.5l62.5,0l0,-62.5Zm125,0l-62.5,0l0,62.5l62.5,0l0,-62.5Zm125,0l-62.5,0l0,62.5l62.5,0l0,-62.5Zm62.5,-293.75c-10.348,0 -18.75,-8.402 -18.75,-18.75c0,-10.348 8.402,-18.75 18.75,-18.75c10.348,0 18.75,8.402 18.75,18.75c0,10.348 -8.402,18.75 -18.75,18.75Z" style="fill:#464646;"/></svg>