<?xml version="1.0" encoding="UTF-8" standalone="no"?><!DOCTYPE svg PUBLIC "-//W3C//DTD SVG 1.1//EN" "http://www.w3.org/Graphics/SVG/1.1/DTD/svg11.dtd"><svg width="100%" height="100%" viewBox="0 0 2000 2000" version="1.1" xmlns="http://www.w3.org/2000/svg" xmlns:xlink="http://www.w3.org/1999/xlink" xml:space="preserve" style="fill-rule:evenodd;clip-rule:evenodd;stroke-linejoin:round;stroke-miterlimit:1.41421;"><path d="M2000,1530.97l-2000,0l0,-17.699l938.053,0l0,-17.699l1026.55,0l0,-70.796l-1168.14,0l0,-17.699l1168.14,0l0,-460.177l-902.655,0l0,-17.699l902.655,0l0,-17.7l-902.655,0l0,-17.699l902.655,0l0,-424.778l35.398,0l0,1061.95Zm-1982.3,-35.398l-17.699,0l0,-106.194l17.699,0l0,106.194Zm26.549,0l-17.699,0l0,-106.194l17.699,0l0,106.194Zm26.548,0l-17.699,0l0,-106.194l17.699,0l0,106.194Zm26.549,0l-17.699,0l0,-106.194l17.699,0l0,106.194Zm26.549,0l-17.699,0l0,-106.194l17.699,0l0,106.194Zm26.548,0l-17.699,0l0,-106.194l17.699,0l0,106.194Zm26.549,0l-17.699,0l0,-106.194l17.699,0l0,106.194Zm26.549,0l-17.699,0l0,-106.194l17.699,0l0,106.194Zm26.548,0l-17.699,0l0,-106.194l17.699,0l0,106.194Zm26.549,0l-17.699,0l0,-106.194l17.699,0l0,106.194Zm26.549,0l-17.699,0l0,-106.194l17.699,0l0,106.194Zm70.796,0l-35.398,0l0,-106.194l35.398,0l0,106.194Zm53.098,0l-35.399,0l0,-106.194l35.399,0l0,106.194Zm53.097,0l-35.398,0l0,-106.194l35.398,0l0,106.194Zm1477.88,-725.663l8.85,0l0,106.194l-8.85,0l0,-106.194Zm-26.549,0l8.85,0l0,106.194l-8.85,0l0,-106.194Zm-26.548,0l8.849,0l0,106.194l-8.849,0l0,-106.194Zm-26.549,0l8.85,0l0,106.194l-8.85,0l0,-106.194Zm-26.549,0l8.85,0l0,106.194l-8.85,0l0,-106.194Zm-26.548,0l8.849,0l0,106.194l-8.849,0l0,-106.194Zm-26.549,0l8.85,0l0,106.194l-8.85,0l0,-106.194Zm-26.549,0l8.85,0l0,106.194l-8.85,0l0,-106.194Zm-26.548,0l8.849,0l0,106.194l-8.849,0l0,-106.194Zm-26.549,0l8.85,0l0,106.194l-8.85,0l0,-106.194Zm-26.549,0l8.85,0l0,106.194l-8.85,0l0,-106.194Zm-26.548,0l8.849,0l0,106.194l-8.849,0l0,-106.194Zm-26.549,0l8.85,0l0,106.194l-8.85,0l0,-106.194Zm-17.699,0l0,106.194l-8.85,0l0,-106.194l8.85,0Z" style="fill:#c8c8c8;"/></svg>