<?xml version="1.0" encoding="UTF-8" standalone="no"?><!DOCTYPE svg PUBLIC "-//W3C//DTD SVG 1.1//EN" "http://www.w3.org/Graphics/SVG/1.1/DTD/svg11.dtd"><svg width="100%" height="100%" viewBox="0 0 2000 2000" version="1.1" xmlns="http://www.w3.org/2000/svg" xmlns:xlink="http://www.w3.org/1999/xlink" xml:space="preserve" style="fill-rule:evenodd;clip-rule:evenodd;stroke-linejoin:round;stroke-miterlimit:1.41421;"><path d="M469.512,1359.76l-219.512,0l0,-109.757l219.512,0l0,109.757Zm256.098,0l-219.512,0l0,-109.757l219.512,0l0,109.757Zm512.195,0l-219.512,0l0,-109.757l219.512,0l0,109.757Zm256.098,0l-219.512,0l0,-109.757l219.512,0l0,109.757Zm256.097,0l-219.512,0l0,-109.757l219.512,0l0,109.757Zm-1317.07,-73.171l-146.342,0l0,36.586l146.342,0l0,-36.586Zm256.096,0l-146.341,0l0,36.586l146.341,0l0,-36.586Zm512.197,0l-146.342,0l0,36.586l146.342,0l0,-36.586Zm256.096,0l-146.341,0l0,36.586l146.341,0l0,-36.586Zm256.098,0l-146.341,0l0,36.586l146.341,0l0,-36.586Zm0,-109.757l-1317.07,0l-146.341,-146.341c0,-101.865 0,-219.512 0,-219.512l36.586,0l0,-36.585l36.585,0l0,36.585l36.586,0l0,-36.585l36.584,0l0,36.585l36.587,0l0,-36.585l36.584,0l0,36.585l109.757,0l0,-36.585l36.584,0l0,36.585l36.587,0l0,-36.585l36.584,0l0,36.585l36.586,0l0,-36.585l36.585,0l0,36.585l36.586,0l0,-36.585l36.585,0l0,36.585l109.756,0l0,-36.585l36.585,0l0,36.585l731.708,0l0,365.853Zm-402.439,-292.683l-219.512,0l0,182.928l36.586,36.584l182.926,0l0,-219.512Zm-548.781,0l-182.926,0l0,219.512l219.512,0c0,0 0,-120.48 0,-182.926l-36.586,-36.586Zm292.684,0l-182.927,0l-36.586,36.586c0,62.446 0,182.926 0,182.926c0,0 120.48,0 182.927,0l36.586,-36.584l0,-182.928Zm402.438,0l-21.95,0l0,219.512l21.95,0l0,-219.512Zm36.586,0l-21.951,0l0,219.512l21.951,0l0,-219.512Zm36.585,0l-21.95,0l0,219.512l21.95,0l0,-219.512Zm36.586,0l-21.952,0l0,219.512l21.952,0l0,-219.512Zm36.585,0l-21.951,0l0,219.512l21.951,0l0,-219.512Zm36.586,0l-21.952,0l0,219.512l21.952,0l0,-219.512Zm-626.018,-97.559l-8.13,0l0,-146.342l8.13,0l0,146.342Zm16.262,0l-8.13,0l0,-146.342l8.13,0l0,146.342Zm16.26,0l-8.132,0l0,-146.342l8.132,0l0,146.342Zm16.259,0l-8.129,0l0,-146.342l8.129,0l0,146.342Zm16.261,0l-8.13,0l0,-146.342l8.13,0l0,146.342Zm16.261,0l-8.132,0l0,-146.342l8.132,0l0,146.342Zm16.258,0l-8.128,0l0,-146.342l8.128,0l0,146.342Zm16.262,0l-8.13,0l0,-146.342l8.13,0l0,146.342Zm16.26,0l-8.132,0l0,-146.342l8.132,0l0,146.342Zm16.259,0l-8.129,0l0,-146.342l8.129,0l0,146.342Zm16.261,0l-8.13,0l0,-146.342l8.13,0l0,146.342Zm16.26,0l-8.131,0l0,-146.342l8.131,0l0,146.342Zm16.259,0l-8.128,0l0,-146.342l8.128,0l0,146.342Zm16.262,0l-8.13,0l0,-146.342l8.13,0l0,146.342Zm16.26,0l-8.132,0l0,-146.342l8.132,0l0,146.342Zm16.259,0l-8.129,0l0,-146.342l8.129,0l0,146.342Zm16.261,0l-8.13,0l0,-146.342l8.13,0l0,146.342Zm16.26,0l-8.131,0l0,-146.342l8.131,0l0,146.342Zm16.259,0l-8.129,0l0,-146.342l8.129,0l0,146.342Zm16.262,0l-8.13,0l0,-146.342l8.13,0l0,146.342Zm16.26,0l-8.132,0l0,-146.342l8.132,0l0,146.342Zm16.258,0l-8.128,0l0,-146.342l8.128,0l0,146.342Zm16.262,0l-8.13,0l0,-146.342l8.13,0l0,146.342Zm16.26,0l-8.131,0l0,-146.342l8.131,0l0,146.342Zm16.259,0l-8.129,0l0,-146.342l8.129,0l0,146.342Zm16.262,0l-8.13,0l0,-146.342l8.13,0l0,146.342Zm16.26,0l-8.132,0l0,-146.342l8.132,0l0,146.342Zm16.258,0l-8.128,0l0,-146.342l8.128,0l0,146.342Zm16.262,0l-8.13,0l0,-146.342l8.13,0l0,146.342Zm16.26,0l-8.131,0l0,-146.342l8.131,0l0,146.342Zm16.259,0l-8.129,0l0,-146.342l8.129,0l0,146.342Zm16.262,0l-8.131,0l0,-146.342l8.131,0l0,146.342Zm16.26,0l-8.132,0l0,-146.342l8.132,0l0,146.342Zm16.258,0l-8.128,0l0,-146.342l8.128,0l0,146.342Zm16.262,0l-8.13,0l0,-146.342l8.13,0l0,146.342Zm16.26,0l-8.131,0l0,-146.342l8.131,0l0,146.342Zm16.259,0l-8.129,0l0,-146.342l8.129,0l0,146.342Zm16.261,0l-8.13,0l0,-146.342l8.13,0l0,146.342Zm16.261,0l-8.132,0l0,-146.342l8.132,0l0,146.342Zm16.258,0l-8.128,0l0,-146.342l8.128,0l0,146.342Zm16.262,0l-8.13,0l0,-146.342l8.13,0l0,146.342Zm16.26,0l-8.132,0l0,-146.342l8.132,0l0,146.342Zm16.259,0l-8.129,0l0,-146.342l8.129,0l0,146.342Zm16.261,0l-8.13,0l0,-146.342l8.13,0l0,146.342Z" style="fill:#c5c5c5;"/></svg>