<?xml version="1.0" encoding="UTF-8" standalone="no"?><!DOCTYPE svg PUBLIC "-//W3C//DTD SVG 1.1//EN" "http://www.w3.org/Graphics/SVG/1.1/DTD/svg11.dtd"><svg width="100%" height="100%" viewBox="0 0 2000 2000" version="1.1" xmlns="http://www.w3.org/2000/svg" xmlns:xlink="http://www.w3.org/1999/xlink" xml:space="preserve" style="fill-rule:evenodd;clip-rule:evenodd;stroke-linejoin:round;stroke-miterlimit:1.41421;"><g><path d="M779.049,1275.14l1110.02,0l111.815,111.815l-3.925,3.925l-110.19,-110.189l-1110.02,0l-111.002,-111.003l-664.863,0l0,-5.55l667.162,0l111.003,111.002Z" style="fill:#c1c1c1;"/><path d="M155.137,1214.09l-45.213,-45.213l3.925,-3.925l43.588,43.588l284.68,0l0,-41.626l5.55,0l0,47.176l-292.53,0Z" style="fill:#c1c1c1;"/><path d="M554.744,1208.54l43.589,-43.588l3.925,3.925l-45.214,45.213l-92.726,0l0,-47.176l5.55,0l0,41.626l84.876,0Z" style="fill:#c1c1c1;"/><path d="M1002.68,1277.91l-5.55,0l0,-19.425l-241.43,0l0,-5.55l246.98,0l0,24.975Z" style="fill:#c1c1c1;"/><path d="M1113.68,1277.91l-5.55,0l0,-19.425l-83.252,0l0,19.425l-5.55,0l0,-24.975l94.352,0l0,24.975Z" style="fill:#c1c1c1;"/><path d="M1158.08,1277.91l-5.55,0l0,-19.425l-16.651,0l0,19.425l-5.55,0l0,-24.975l27.751,0l0,24.975Z" style="fill:#c1c1c1;"/><path d="M1202.48,1277.91l-5.551,0l0,-19.425l-16.65,0l0,19.425l-5.55,0l0,-24.975l27.751,0l0,24.975Z" style="fill:#c1c1c1;"/><path d="M1290.47,1275.95l-3.925,3.925l-21.388,-21.388l-40.476,0l0,19.425l-5.55,0l0,-24.975l48.326,0l23.013,23.013Z" style="fill:#c1c1c1;"/><path d="M1289.66,1252.94l43.25,0l0,5.55l-45.55,0l-22.201,-22.2l-531.66,0l0,-5.55l533.96,0l22.201,22.2Z" style="fill:#c1c1c1;"/><rect x="1310.71" y="1241.84" width="22.2" height="5.55" style="fill:#c1c1c1;"/><path d="M1554.91,1247.39l-98.752,0l-11.1,11.1l-89.952,0l0,-5.55l87.653,0l11.1,-11.1l101.051,0l0,5.55Z" style="fill:#c1c1c1;"/><rect x="1355.11" y="1241.84" width="88.802" height="5.55" style="fill:#c1c1c1;"/><rect x="1455.01" y="1252.94" width="99.902" height="5.55" style="fill:#c1c1c1;"/><path d="M1998.92,614.674l-553.86,0l-109.377,109.377l0,410.708l-68.226,68.226l-567.261,0l0,-5.55l564.961,0l64.976,-64.976l0,-410.708l112.627,-112.627l556.16,0l0,5.55Z" style="fill:#c1c1c1;"/><path d="M712.447,1186.34l509.46,0l0,5.55l-511.76,0l-44.4,-44.401l-664.863,0l0,-5.55l667.162,0l44.401,44.401Z" style="fill:#c0c0c0;"/><path d="M136.049,1142.74l-3.925,3.925l-21.388,-21.388l-109.852,0l0,-5.55l112.152,0l23.013,23.013Z" style="fill:#c0c0c0;"/><path d="M558.669,1144.71l-5.55,0l0,-19.425l-195.878,0l-21.388,21.387l-3.925,-3.925l23.013,-23.012l203.728,0l0,24.975Z" style="fill:#c0c0c0;"/><path d="M712.447,1164.13l66.602,0l23.013,23.013l-3.926,3.925l-21.387,-21.388l-66.602,0l-44.4,-44.4l-109.853,0l0,-5.55l112.152,0l44.401,44.4Z" style="fill:#c0c0c0;"/></g><path d="M1887.92,722.901l-44.4,0l0,44.401l44.4,0l0,22.2l-44.4,0l0,44.401l44.4,0l0,177.603l-44.4,44.401l-510.61,0l0,-333.006l111.002,-111.002l444.008,0l0,111.002Zm-399.607,111.002l0,-44.401l-44.401,0l0,44.401l44.401,0Zm66.601,0l0,-44.401l-44.401,0l0,44.401l44.401,0Zm66.601,0l0,-44.401l-44.4,0l0,44.401l44.4,0Zm66.602,0l0,-44.401l-44.401,0l0,44.401l44.401,0Zm66.601,0l0,-44.401l-44.401,0l0,44.401l44.401,0Zm66.601,0l0,-44.401l-44.401,0l0,44.401l44.401,0Zm-333.006,-66.601l0,-44.401l-44.401,0l0,44.401l44.401,0Zm66.601,0l0,-44.401l-44.401,0l0,44.401l44.401,0Zm66.601,0l0,-44.401l-44.4,0l0,44.401l44.4,0Zm66.602,0l0,-44.401l-44.401,0l0,44.401l44.401,0Zm66.601,0l0,-44.401l-44.401,0l0,44.401l44.401,0Zm66.601,0l0,-44.401l-44.401,0l0,44.401l44.401,0Z" style="fill:#d6d6d6;fill-opacity:0.8;"/><path d="M1355.11,1011.51l5.551,0l0,27.751l-5.551,0l0,-27.751Zm11.101,0l5.55,0l0,27.751l-5.55,0l0,-27.751Zm11.1,0l5.55,0l0,27.751l-5.55,0l0,-27.751Zm11.1,0l5.55,0l0,27.751l-5.55,0l0,-27.751Zm11.1,0l5.55,0l0,27.751l-5.55,0l0,-27.751Zm11.1,0l5.551,0l0,27.751l-5.551,0l0,-27.751Zm11.101,0l5.55,0l0,27.751l-5.55,0l0,-27.751Zm11.1,0l5.55,0l0,27.751l-5.55,0l0,-27.751Zm11.1,0l5.55,0l0,27.751l-5.55,0l0,-27.751Zm11.1,0l5.55,0l0,27.751l-5.55,0l0,-27.751Zm11.1,0l5.551,0l0,27.751l-5.551,0l0,-27.751Zm11.101,0l5.55,0l0,27.751l-5.55,0l0,-27.751Zm11.1,0l5.55,0l0,27.751l-5.55,0l0,-27.751Zm11.1,0l5.55,0l0,27.751l-5.55,0l0,-27.751Zm11.1,0l5.55,0l0,27.751l-5.55,0l0,-27.751Zm11.101,0l5.55,0l0,27.751l-5.55,0l0,-27.751Zm11.1,0l5.55,0l0,27.751l-5.55,0l0,-27.751Zm11.1,0l5.55,0l0,27.751l-5.55,0l0,-27.751Zm11.1,0l5.55,0l0,27.751l-5.55,0l0,-27.751Zm11.1,0l5.55,0l0,27.751l-5.55,0l0,-27.751Zm11.101,0l5.55,0l0,27.751l-5.55,0l0,-27.751Zm11.1,0l5.55,0l0,27.751l-5.55,0l0,-27.751Zm11.1,0l5.55,0l0,27.751l-5.55,0l0,-27.751Zm11.1,0l5.55,0l0,27.751l-5.55,0l0,-27.751Zm11.1,0l5.551,0l0,27.751l-5.551,0l0,-27.751Zm11.101,0l5.55,0l0,27.751l-5.55,0l0,-27.751Zm11.1,0l5.55,0l0,27.751l-5.55,0l0,-27.751Zm11.1,0l5.55,0l0,27.751l-5.55,0l0,-27.751Zm11.1,0l5.55,0l0,27.751l-5.55,0l0,-27.751Zm11.1,0l5.551,0l0,27.751l-5.551,0l0,-27.751Zm11.101,0l5.55,0l0,27.751l-5.55,0l0,-27.751Zm11.1,0l5.55,0l0,27.751l-5.55,0l0,-27.751Zm11.1,0l5.55,0l0,27.751l-5.55,0l0,-27.751Zm11.1,0l5.55,0l0,27.751l-5.55,0l0,-27.751Zm11.1,0l5.551,0l0,27.751l-5.551,0l0,-27.751Zm11.101,0l5.55,0l0,27.751l-5.55,0l0,-27.751Zm11.1,0l5.55,0l0,27.751l-5.55,0l0,-27.751Zm11.1,0l5.55,0l0,27.751l-5.55,0l0,-27.751Zm11.1,0l5.55,0l0,27.751l-5.55,0l0,-27.751Zm11.101,0l5.55,0l0,27.751l-5.55,0l0,-27.751Zm11.1,0l5.55,0l0,27.751l-5.55,0l0,-27.751Zm11.1,0l5.55,0l0,27.751l-5.55,0l0,-27.751Zm11.1,0l5.55,0l0,27.751l-5.55,0l0,-27.751Zm16.65,0l0,27.751l-5.55,0l0,-27.751l5.55,0Z" style="fill:#a1a1a1;"/><path d="M1837.97,1000.41l-482.859,0l0,-83.251l199.804,0l0,11.1l222.004,0l0,-11.1l61.051,0l0,16.65l-466.208,0l0,16.65l466.208,0l0,16.651l-466.208,0l0,16.65l466.208,0l0,16.65Zm-63.271,-83.251l0,8.88l-217.564,0l0,-8.88l217.564,0Z" style="fill:#a1a1a1;"/></svg>