<?xml version="1.0" encoding="UTF-8" standalone="no"?><!DOCTYPE svg PUBLIC "-//W3C//DTD SVG 1.1//EN" "http://www.w3.org/Graphics/SVG/1.1/DTD/svg11.dtd"><svg width="100%" height="100%" viewBox="0 0 2000 2000" version="1.1" xmlns="http://www.w3.org/2000/svg" xmlns:xlink="http://www.w3.org/1999/xlink" xml:space="preserve" style="fill-rule:evenodd;clip-rule:evenodd;stroke-linejoin:round;stroke-miterlimit:1.41421;"><g><path d="M345.834,1000l0,1000l1000,0l0,-166.667l-166.668,0l0,-166.666l166.668,0c0,0 0,-302.534 0,-500l-166.668,-166.667c-234.447,0 -633.332,0 -633.332,0l0,300l-166.668,0l0,-300l-33.332,0l0,0Zm33.332,316.667l166.668,0l0,333.333l-166.668,0l0,-333.333l0,0Zm16.668,-316.667c0,0 0,132.907 0,216.667l66.667,66.666c33.333,0 66.665,0 66.665,0l0,-283.333l-133.332,0l0,0Zm66.667,333.333l-66.667,66.667c0,88.391 0,233.333 0,233.333l133.332,0l0,-300c0,0 -33.332,0 -66.665,0l0,0Zm133.333,-300l0,466.667l-16.668,0l0,-466.667l16.668,0Zm0,500l0,100l-16.668,0l0,-100l16.668,0Zm416.667,66.667l0,66.667l-33.335,0l0,-66.667l33.335,0Zm66.665,-366.667l0,66.667c0,0 -16.665,0 -33.332,0l-33.333,-33.333c0,-16.667 0,-33.334 0,-33.334l66.665,0Zm0,533.334l0,33.333l-33.332,0l0,-33.333l33.332,0Zm0,-333.334l0,33.334l-33.332,0l0,-33.334l33.332,0Zm33.335,33.334l0,33.333l-33.335,0l0,-33.333l33.335,0Zm0,-400l0,66.666l-33.335,0l0,-66.666l33.335,0Zm83.333,616.666c0,0 0,60.507 0,100l33.332,33.334c44.197,0 116.668,0 116.668,0l0,-53.334l-16.668,0l0,-26.666l16.668,0l0,-53.334l-150,0l0,0Z" style="fill:#808080;"/><g><clipPath id="_clip1"><path d="M345.834,1000l0,1000l1000,0l0,-166.667l-166.668,0l0,-166.666l166.668,0c0,0 0,-302.534 0,-500l-166.668,-166.667c-234.447,0 -633.332,0 -633.332,0l0,300l-166.668,0l0,-300l-33.332,0l0,0Zm33.332,316.667l166.668,0l0,333.333l-166.668,0l0,-333.333l0,0Zm16.668,-316.667c0,0 0,132.907 0,216.667l66.667,66.666c33.333,0 66.665,0 66.665,0l0,-283.333l-133.332,0l0,0Zm66.667,333.333l-66.667,66.667c0,88.391 0,233.333 0,233.333l133.332,0l0,-300c0,0 -33.332,0 -66.665,0l0,0Zm133.333,-300l0,466.667l-16.668,0l0,-466.667l16.668,0Zm0,500l0,100l-16.668,0l0,-100l16.668,0Zm416.667,66.667l0,66.667l-33.335,0l0,-66.667l33.335,0Zm66.665,-366.667l0,66.667c0,0 -16.665,0 -33.332,0l-33.333,-33.333c0,-16.667 0,-33.334 0,-33.334l66.665,0Zm0,533.334l0,33.333l-33.332,0l0,-33.333l33.332,0Zm0,-333.334l0,33.334l-33.332,0l0,-33.334l33.332,0Zm33.335,33.334l0,33.333l-33.335,0l0,-33.333l33.335,0Zm0,-400l0,66.666l-33.335,0l0,-66.666l33.335,0Zm83.333,616.666c0,0 0,60.507 0,100l33.332,33.334c44.197,0 116.668,0 116.668,0l0,-53.334l-16.668,0l0,-26.666l16.668,0l0,-53.334l-150,0l0,0Z"/></clipPath><g clip-path="url(#_clip1)"><rect x="979.166" y="1700" width="133.335" height="133.333" style="fill:#9c9c9c;"/><rect x="979.165" y="1533.33" width="133.335" height="133.334" style="fill:#9c9c9c;"/><rect x="979.166" y="1366.67" width="133.335" height="133.333" style="fill:#9c9c9c;"/><rect x="979.166" y="1200" width="133.335" height="133.333" style="fill:#9c9c9c;"/><rect x="979.165" y="1033.33" width="133.335" height="133.334" style="fill:#9c9c9c;"/><path d="M395.834,1833.33l0,-16.665l-16.668,0l0,16.665l16.668,0Zm0,33.335l0,-16.667l-16.668,0l0,16.667l16.668,0Zm0,66.665l0,-16.665l-16.668,0l0,16.665l16.668,0Zm0,-166.665l0,-100l-16.668,0l0,100l16.668,0Zm166.667,33.333l0,-16.668l-183.335,0l0,16.668l183.335,0Zm-133.335,66.667l0,-16.667l-16.665,0l0,16.667l16.665,0Zm0,33.333l0,-16.668l-16.665,0l0,16.668l16.665,0Zm0,33.332l0,-16.665l-16.665,0l0,16.665l16.665,0Zm0,16.668l-16.665,0l0,16.667l16.665,0l0,-16.667Zm0,-183.333l0,-100l-16.665,0l0,100l16.665,0Zm33.335,66.665l0,-16.665l-16.667,0l0,16.665l16.667,0Zm0,100l0,-16.665l-16.667,0l0,16.665l16.667,0Zm0,-166.665l0,-100l-16.667,0l0,100l16.667,0Zm33.333,66.665l0,-16.665l-16.668,0l0,16.665l16.668,0Zm0,33.335l0,-16.667l-16.668,0l0,16.667l16.668,0Zm0,33.333l0,-16.668l-16.668,0l0,16.668l16.668,0Zm0,33.332l0,-16.665l-16.668,0l0,16.665l16.668,0Zm0,33.335l0,-16.667l-16.668,0l0,16.667l16.668,0Zm0,-200l0,-100l-16.668,0l0,100l16.668,0Zm33.332,200l0,-16.667l-16.665,0l0,16.667l16.665,0Zm0,-33.335l0,-16.665l-16.665,0l0,16.665l16.665,0Zm0,-166.665l0,-100l-16.665,0l0,100l16.665,0Zm0,66.665l0,-16.665l-16.665,0l0,16.665l16.665,0Zm33.335,33.335l0,-16.667l-16.667,0l0,16.667l16.667,0Zm0,33.333l0,-16.668l-16.667,0l0,16.668l16.667,0Zm0,33.332l0,-16.665l-16.667,0l0,16.665l16.667,0Zm0,33.335l0,-16.667l-16.667,0l0,16.667l16.667,0Zm0,-200l0,-100l-16.667,0l0,100l16.667,0Zm0,66.665l0,-16.665l-16.667,0l0,16.665l16.667,0Zm33.333,33.335l0,-16.667l-16.668,0l0,16.667l16.668,0Zm0,33.333l0,-16.668l-16.668,0l0,16.668l16.668,0Zm3.332,66.667l0,-20l-20,0l0,20l20,0Zm-3.332,-200l0,-100l-16.668,0l0,100l16.668,0Zm0,33.333l0,-16.668l-16.668,0l0,16.668l16.668,0Zm0,33.332l0,-16.665l-16.668,0l0,16.665l16.668,0Z" style="fill:#dcdcdc;"/></g></g><g><path d="M1387.5,836.785l-66.667,66.666l0,193.096l66.667,66.668l0,836.785l-16.667,0l0,-829.882l-66.668,-66.667l0,-206.904l66.668,-66.665l0,-796.549l16.667,0l0,803.452Z" style="fill:#5e5e5e;"/><path d="M1420.83,396.549l0,966.666l33.332,33.332l0,240.238l-33.332,33.333l0,329.882l-16.668,0l0,-336.785l33.335,-33.333l0,-226.431l-33.335,-33.333l0,-966.667l-30.892,-30.891l11.785,-11.785l35.775,35.774Z" style="fill:#5e5e5e;"/><rect x="1470.83" y="1400" width="16.667" height="233.333" style="fill:#5e5e5e;"/><rect x="1504.17" y="1400" width="16.667" height="233.333" style="fill:#5e5e5e;"/><rect x="1537.5" y="1400" width="16.667" height="233.333" style="fill:#5e5e5e;"/><rect x="1570.83" y="1400" width="16.667" height="133.333" style="fill:#5e5e5e;"/><rect x="1570.83" y="1566.67" width="16.667" height="66.667" style="fill:#5e5e5e;"/><rect x="1604.17" y="1566.67" width="16.667" height="66.667" style="fill:#5e5e5e;"/><rect x="1604.17" y="1400" width="16.667" height="100" style="fill:#5e5e5e;"/><path d="M1482.62,1358.33l171.547,0l0,278.452l-33.332,33.333l0,100l-202.44,202.442l-11.786,-11.785l197.558,-197.56l0,-100l33.335,-33.333l0,-254.882l-161.786,0l-33.334,-33.333l-29.88,0l0,-16.667l36.784,0l33.334,33.333Z" style="fill:#5e5e5e;"/><rect x="1470.83" y="1666.67" width="16.667" height="3.333" style="fill:#5e5e5e;"/><rect x="1470.83" y="1673.33" width="16.667" height="3.333" style="fill:#5e5e5e;"/><rect x="1470.83" y="1680" width="16.667" height="3.333" style="fill:#5e5e5e;"/><rect x="1470.83" y="1686.67" width="16.667" height="3.333" style="fill:#5e5e5e;"/><rect x="1470.83" y="1693.33" width="16.667" height="3.333" style="fill:#5e5e5e;"/><rect x="1470.83" y="1700" width="16.667" height="3.333" style="fill:#5e5e5e;"/><rect x="1470.83" y="1706.67" width="16.667" height="3.333" style="fill:#5e5e5e;"/><rect x="1470.83" y="1713.33" width="16.667" height="3.333" style="fill:#5e5e5e;"/><rect x="1470.83" y="1720" width="16.667" height="3.333" style="fill:#5e5e5e;"/><rect x="1470.83" y="1726.67" width="16.667" height="3.333" style="fill:#5e5e5e;"/><rect x="1470.83" y="1733.33" width="16.667" height="3.333" style="fill:#5e5e5e;"/><rect x="1470.83" y="1740" width="16.667" height="3.333" style="fill:#5e5e5e;"/><rect x="1470.83" y="1746.67" width="16.667" height="3.333" style="fill:#5e5e5e;"/><rect x="1504.17" y="1666.67" width="16.667" height="3.333" style="fill:#5e5e5e;"/><rect x="1504.17" y="1673.33" width="16.667" height="3.333" style="fill:#5e5e5e;"/><rect x="1504.17" y="1680" width="16.667" height="3.333" style="fill:#5e5e5e;"/><rect x="1504.17" y="1686.67" width="16.667" height="3.333" style="fill:#5e5e5e;"/><rect x="1504.17" y="1693.33" width="16.667" height="3.333" style="fill:#5e5e5e;"/><rect x="1504.17" y="1700" width="16.667" height="1.667" style="fill:#5e5e5e;"/><rect x="1504.17" y="1703.33" width="16.667" height="1.667" style="fill:#5e5e5e;"/><rect x="1504.17" y="1706.67" width="16.667" height="1.667" style="fill:#5e5e5e;"/><rect x="1504.17" y="1710" width="16.667" height="1.667" style="fill:#5e5e5e;"/><path d="M1570.83,1758.33l0,-83.332l-25,0l0,-16.668l41.667,0l0,116.668l-50,0l0,-75l16.665,0l0,58.332l16.668,0Z" style="fill:#5e5e5e;"/><rect x="1470.83" y="1758.33" width="75" height="16.667" style="fill:#5e5e5e;"/></g></g></svg>