<?xml version="1.0" encoding="UTF-8" standalone="no"?><!DOCTYPE svg PUBLIC "-//W3C//DTD SVG 1.1//EN" "http://www.w3.org/Graphics/SVG/1.1/DTD/svg11.dtd"><svg width="100%" height="100%" viewBox="0 0 2000 2000" version="1.1" xmlns="http://www.w3.org/2000/svg" xmlns:xlink="http://www.w3.org/1999/xlink" xml:space="preserve" style="fill-rule:evenodd;clip-rule:evenodd;stroke-linejoin:round;stroke-miterlimit:1.41421;"><g><path d="M961.224,1755.1l0,204.082c0,0 -61.227,0 -104.081,0l-40.816,-40.817c0,-59.557 0,-163.265 0,-163.265l144.897,0Zm304.082,204.082l-204.082,0l0,-204.082l204.082,0l0,204.082Zm-244.898,0l-40.816,0l0,-204.082l40.816,0l0,204.082Zm-59.184,-448.98l0,204.082l-144.897,0c0,0 0,-103.708 0,-163.266l40.816,-40.816c42.854,0 104.081,0 104.081,0Zm59.184,204.082l-40.816,0l0,-204.082l40.816,0l0,204.082Zm244.898,-285.715l-40.816,40.817c-59.558,0 -163.266,0 -163.266,0l0,-204.082c0,0 103.708,0 163.266,0l40.816,40.816c0,35.568 0,86.882 0,122.449Zm-304.082,-408.163l0,204.082l-144.897,0l0,-204.082l144.897,0Zm59.184,204.082l-40.816,0l0,-204.082l40.816,0l0,204.082Zm244.898,-244.898l-204.082,0l0,-204.082l204.082,0l0,204.082Zm-304.082,-448.98l0,204.082l-144.897,0l0,-204.082l144.897,0Zm304.082,204.082l-204.082,0l0,-204.082c0,0 103.708,0 163.266,0l40.816,40.817c0,59.557 0,163.265 0,163.265Zm-244.898,0l-40.816,0l0,-204.082l40.816,0l0,204.082Zm-59.184,-448.98l0,204.082l-144.897,0l0,-204.082l144.897,0Zm59.184,204.082l-40.816,0l0,-204.082l40.816,0l0,204.082Zm-59.184,-448.98l0,204.082l-144.897,0c0,0 0,-103.708 0,-163.265l40.816,-40.817c42.854,0 104.081,0 104.081,0Zm59.184,204.082l-40.816,0l0,-204.082l40.816,0l0,204.082Z" style="fill:#d0d0d0;"/><clipPath id="_clip1"><path d="M961.224,1755.1l0,204.082c0,0 -61.227,0 -104.081,0l-40.816,-40.817c0,-59.557 0,-163.265 0,-163.265l144.897,0Zm304.082,204.082l-204.082,0l0,-204.082l204.082,0l0,204.082Zm-244.898,0l-40.816,0l0,-204.082l40.816,0l0,204.082Zm-59.184,-448.98l0,204.082l-144.897,0c0,0 0,-103.708 0,-163.266l40.816,-40.816c42.854,0 104.081,0 104.081,0Zm59.184,204.082l-40.816,0l0,-204.082l40.816,0l0,204.082Zm244.898,-285.715l-40.816,40.817c-59.558,0 -163.266,0 -163.266,0l0,-204.082c0,0 103.708,0 163.266,0l40.816,40.816c0,35.568 0,86.882 0,122.449Zm-304.082,-408.163l0,204.082l-144.897,0l0,-204.082l144.897,0Zm59.184,204.082l-40.816,0l0,-204.082l40.816,0l0,204.082Zm244.898,-244.898l-204.082,0l0,-204.082l204.082,0l0,204.082Zm-304.082,-448.98l0,204.082l-144.897,0l0,-204.082l144.897,0Zm304.082,204.082l-204.082,0l0,-204.082c0,0 103.708,0 163.266,0l40.816,40.817c0,59.557 0,163.265 0,163.265Zm-244.898,0l-40.816,0l0,-204.082l40.816,0l0,204.082Zm-59.184,-448.98l0,204.082l-144.897,0l0,-204.082l144.897,0Zm59.184,204.082l-40.816,0l0,-204.082l40.816,0l0,204.082Zm-59.184,-448.98l0,204.082l-144.897,0c0,0 0,-103.708 0,-163.265l40.816,-40.817c42.854,0 104.081,0 104.081,0Zm59.184,204.082l-40.816,0l0,-204.082l40.816,0l0,204.082Z"/></clipPath><g clip-path="url(#_clip1)"><path d="M1183.67,1836.74l0,40.816l-40.816,0l0,-40.816l40.816,0Zm-40.816,-979.592l40.816,0l0,40.816l-40.816,0l0,-40.816Zm-40.816,-204.082l40.816,0l0,40.817l-40.816,0l0,-40.817Zm81.632,-81.632l40.817,0l0,40.816l-40.817,0l0,-40.816Zm-326.53,-163.266l40.816,0l0,40.817l-40.816,0l0,-40.817Zm0,-81.632l40.816,0l0,40.816l-40.816,0l0,-40.816Z" style="fill:#464646;"/></g><path d="M778.01,1917.33l80.168,80.168l407.128,0l0,5l-409.199,0l-83.097,-83.097l0,-1837.77l5,0l0,1835.7Z" style="fill:#868686;"/><path d="M737.194,1917.33l80.9,80.9l-3.535,3.536l-82.365,-82.365l0,-1062.26l5,0l0,1060.19Z" style="fill:#868686;"/><rect x="732.194" y="448.98" width="5" height="204.082" style="fill:#868686;"/><path d="M737.194,408.163l-5,0l0,-119.949l-35.816,0l0,119.949l-5,0l0,-124.949l45.816,0l0,124.949Z" style="fill:#868686;"/><path d="M696.378,652.026l40.816,40.816l0,123.485l-5,0l0,-121.414l-40.816,-40.816l0,-205.117l5,0l0,203.046Z" style="fill:#868686;"/><path d="M737.194,247.398l-43.316,0l0,-5l38.316,0l0,-158.265l-38.316,0l0,-5l43.316,0l0,168.265Z" style="fill:#868686;"/><path d="M1063.72,447.944l39.352,39.352l122.449,0l83.097,83.097l0,452.515l-205.546,0l-39.352,39.352l0,162.23l-5,0l0,-164.301l42.281,-42.281l202.617,0l0,-445.444l-80.168,-80.168l-122.449,0l-42.281,-42.281l0,-409.199l5,0l0,407.128Z" style="fill:#868686;"/><path d="M1306.12,1063.72l-162.229,0l-39.352,39.352l0,121.414l-5,0l0,-123.485l42.281,-42.281l164.3,0l0,5Z" style="fill:#868686;"/><path d="M817.362,773.01l163.265,0l42.281,42.281l0,164.301l-5,0l0,-162.23l-39.352,-39.352l-163.265,0l-41.549,-41.548l3.536,-3.536l40.084,40.084Z" style="fill:#868686;"/><path d="M977.092,977.092l0,-158.265l-160.765,0l0,-5l165.765,0l0,168.265l-168.265,0l0,-124.949l5,0l0,119.949l158.265,0Z" style="fill:#868686;"/><path d="M940.543,858.911l-81.632,81.632l-3.536,-3.535l81.633,-81.633l3.535,3.536Z" style="fill:#868686;"/><path d="M940.543,937.008l-3.535,3.535l-81.633,-81.632l3.536,-3.536l81.632,81.633Z" style="fill:#868686;"/><path d="M1022.18,1267.07l-204.082,204.082l-3.535,-3.536l204.081,-204.082l3.536,3.536Z" style="fill:#868686;"/><path d="M1022.18,1467.62l-3.536,3.536l-204.081,-204.082l3.535,-3.536l204.082,204.082Z" style="fill:#868686;"/><path d="M1267.07,1103.81l-122.449,122.449l-3.536,-3.536l122.449,-122.449l3.536,3.536Z" style="fill:#868686;"/><path d="M1267.07,1185.44l-40.816,40.817l-3.536,-3.536l40.816,-40.816l3.536,3.535Z" style="fill:#868686;"/><path d="M1185.44,1103.81l-40.816,40.816l-3.536,-3.536l40.817,-40.816l3.535,3.536Z" style="fill:#868686;"/><path d="M1226.99,1711.79l81.632,0l0,288.214l-5,0l0,-283.214l-81.632,0l0,-204.082l-160.766,0l0,-5l165.766,0l0,204.082Z" style="fill:#868686;"/><path d="M1267.81,1670.97l38.316,0l0,5l-43.316,0l0,-165.765l5,0l0,160.765Z" style="fill:#868686;"/><rect x="1303.62" y="1102.04" width="5" height="163.265" style="fill:#868686;"/><rect x="1099.54" y="40.816" width="5" height="408.163" style="fill:#868686;"/><path d="M938.776,-2.5l0,5l-121.414,0l-40.084,40.084l-3.536,-3.535l41.549,-41.549l123.485,0Z" style="fill:#868686;"/><path d="M1181.17,1711.79l0,-158.266l-119.949,0l0,-5l124.949,0l0,168.266l-127.449,0l0,-124.949l5,0l0,119.949l117.449,0Z" style="fill:#868686;"/><path d="M1099.54,1675.97l0,-84.132l5,0l0,79.132l35.816,0l0,-79.132l5,0l0,84.132l-45.816,0Z" style="fill:#868686;"/></g></svg>