<?xml version="1.0" encoding="UTF-8" standalone="no"?><!DOCTYPE svg PUBLIC "-//W3C//DTD SVG 1.1//EN" "http://www.w3.org/Graphics/SVG/1.1/DTD/svg11.dtd"><svg width="100%" height="100%" viewBox="0 0 2048 2048" version="1.1" xmlns="http://www.w3.org/2000/svg" xmlns:xlink="http://www.w3.org/1999/xlink" xml:space="preserve" xmlns:serif="http://www.serif.com/" style="fill-rule:evenodd;clip-rule:evenodd;stroke-linecap:round;stroke-linejoin:round;stroke-miterlimit:1.5;"><path d="M25.886,813.685l0,67.358l500.695,500.696l264.493,0l0,-636.31l-765.188,68.256Z" style="fill:#595959;"/><path d="M46.116,794.906l0,65.46l73.071,0l28.924,28.924l0,41.864l216.17,216.17l37.297,0l40.722,40.722l131.3,0l0,-498.18l-527.484,105.04Z" style="fill:#737373;"/><path d="M13.241,402.899l0,430.012l122.5,0l333.008,333.008l0,70.169l73.143,73.143l1224.4,0l257.189,-257.189l0,-474.834l-72.697,-72.697l-1378.56,0l-101.612,-101.612l-457.366,0l-0.005,0Z" style="fill:#808080;"/><clipPath id="_clip1"><path d="M13.241,402.899l0,430.012l122.5,0l333.008,333.008l0,70.169l73.143,73.143l1224.4,0l257.189,-257.189l0,-474.834l-72.697,-72.697l-1378.56,0l-101.612,-101.612l-457.366,0l-0.005,0Z"/></clipPath><g clip-path="url(#_clip1)"><path d="M450.718,720l797.78,0l0,-108.79l-31.21,-31.21l-217.288,0l75.489,-75.489" style="fill:none;stroke:#595959;stroke-width:9.51px;"/></g><clipPath id="_clip2"><path d="M38.504,371.701l67.743,67.743l84.489,0l20.552,20.551l0,34.253l23.596,23.596l198.663,0l65.84,65.84l490.568,0l237.673,-237.673l-1189.12,25.69l-0.004,0Z"/></clipPath><g clip-path="url(#_clip2)"><path d="M13.241,402.899l0,430.012l122.5,0l333.008,333.008l0,70.169l73.143,73.143l1224.4,0l257.189,-257.189l0,-474.834l-72.697,-72.697l-1378.56,0l-101.612,-101.612l-457.366,0l-0.005,0Z" style="fill:#737373;"/></g><path d="M30.201,514.385l58.377,-58.377l80.83,0l23.351,23.351l0,46.702l257.757,257.757l0,124.837l-220.935,0l-93.403,-93.403l-68.256,0l-37.721,-37.721l0,-263.146Z" style="fill:#737373;"/><g><rect x="450" y="600" width="50" height="50" style="fill:#737373;"/><rect x="560" y="600" width="50" height="50" style="fill:#737373;"/><rect x="670" y="600" width="50" height="50" style="fill:#737373;"/><rect x="780" y="600" width="50" height="50" style="fill:#737373;"/><rect x="890" y="600" width="50" height="50" style="fill:#737373;"/><rect x="1000" y="600" width="50" height="50" style="fill:#737373;"/><rect x="1110" y="600" width="50" height="50" style="fill:#737373;"/><rect x="450" y="655" width="50" height="50" style="fill:#737373;"/><rect x="560" y="655" width="50" height="50" style="fill:#737373;"/><rect x="670" y="655" width="50" height="50" style="fill:#737373;"/><rect x="780" y="655" width="50" height="50" style="fill:#737373;"/><rect x="890" y="655" width="50" height="50" style="fill:#737373;"/><rect x="1000" y="655" width="50" height="50" style="fill:#737373;"/><rect x="1110" y="655" width="50" height="50" style="fill:#737373;"/><rect x="505" y="600" width="50" height="50" style="fill:#737373;"/><rect x="615" y="600" width="50" height="50" style="fill:#737373;"/><rect x="725" y="600" width="50" height="50" style="fill:#737373;"/><rect x="835" y="600" width="50" height="50" style="fill:#737373;"/><rect x="945" y="600" width="50" height="50" style="fill:#737373;"/><rect x="1055" y="600" width="50" height="50" style="fill:#737373;"/><rect x="1165" y="600" width="50" height="50" style="fill:#737373;"/><rect x="505" y="655" width="50" height="50" style="fill:#737373;"/><rect x="615" y="655" width="50" height="50" style="fill:#737373;"/><rect x="725" y="655" width="50" height="50" style="fill:#737373;"/><rect x="835" y="655" width="50" height="50" style="fill:#737373;"/><rect x="945" y="655" width="50" height="50" style="fill:#737373;"/><rect x="1055" y="655" width="50" height="50" style="fill:#737373;"/><rect x="1165" y="655" width="50" height="50" style="fill:#737373;"/></g><path d="M210.895,525.072l254.698,254.698l0,138.225l-225.229,0l242.068,242.068l0,65.253" style="fill:none;stroke:#595959;stroke-width:8.3px;"/><path d="M1780.35,888.242l-115.778,115.778l-397.555,0l-70.778,70.778l636.111,0l91.5,-91.5l-143.5,-95.056" style="fill:#737373;"/><path d="M1056.81,1015.66l-34.389,0l-43.409,43.408l-81.645,0l-151.989,154.514l91.386,0l90.423,-90.424l101.486,0l165.937,-165.937l350.151,0l113.751,-113.751l0,-148.381l148.982,-148.982l84.532,0l0,-41.484l-404.02,0l0,221.249l-146.698,146.697l-141.407,0l-143.091,143.091" style="fill:#737373;"/><path d="M1773.67,1011.26l201.253,0l33.212,-33.212l0,-357.43l-97.792,-97.793l-117.826,0l-18.847,18.847l0,469.588Z" style="fill:#595959;"/><path d="M620.159,1213.55l353.795,0l139.26,-139.26l719.823,0l84.685,-84.685" style="fill:none;stroke:#595959;stroke-width:8.3px;"/><path d="M365.163,1034.77l131.733,0l114.795,114.795" style="fill:none;stroke:#595959;stroke-width:8.3px;"/><circle cx="606.516" cy="1201.79" r="87.978" style="fill:#808080;stroke:#595959;stroke-width:8.3px;"/><path d="M1198.84,1071.47l67.748,-67.748l396.138,0l145.846,-145.846" style="fill:none;stroke:#595959;stroke-width:8.3px;"/><g><circle cx="1129.46" cy="1095.8" r="11.111" style="fill:#7e7e7e;"/><circle cx="1159.46" cy="1095.8" r="11.111" style="fill:#7e7e7e;"/><circle cx="1189.46" cy="1095.8" r="11.111" style="fill:#7e7e7e;"/><circle cx="1219.46" cy="1095.8" r="11.111" style="fill:#7e7e7e;"/><circle cx="1249.46" cy="1095.8" r="11.111" style="fill:#7e7e7e;"/><circle cx="1279.46" cy="1095.8" r="11.111" style="fill:#7e7e7e;"/><circle cx="1309.46" cy="1095.8" r="11.111" style="fill:#7e7e7e;"/><circle cx="1339.46" cy="1095.8" r="11.111" style="fill:#7e7e7e;"/><circle cx="1369.46" cy="1095.8" r="11.111" style="fill:#7e7e7e;"/></g><g><path d="M259.964,528.783c4.336,4.336 4.336,11.377 0,15.713c-4.336,4.336 -11.377,4.336 -15.714,0c-4.336,-4.336 -4.336,-11.377 0,-15.713c4.337,-4.337 11.378,-4.337 15.714,0Z" style="fill:#7e7e7e;"/><path d="M281.177,549.996c4.336,4.336 4.336,11.377 0,15.713c-4.336,4.337 -11.377,4.337 -15.713,0c-4.337,-4.336 -4.337,-11.377 0,-15.713c4.336,-4.337 11.377,-4.337 15.713,0Z" style="fill:#7e7e7e;"/><path d="M302.39,571.209c4.337,4.336 4.337,11.377 0,15.714c-4.336,4.336 -11.377,4.336 -15.713,0c-4.337,-4.337 -4.337,-11.378 0,-15.714c4.336,-4.336 11.377,-4.336 15.713,0Z" style="fill:#7e7e7e;"/><path d="M323.603,592.422c4.337,4.336 4.337,11.377 0,15.714c-4.336,4.336 -11.377,4.336 -15.713,0c-4.336,-4.337 -4.336,-11.378 0,-15.714c4.336,-4.336 11.377,-4.336 15.713,0Z" style="fill:#7e7e7e;"/><path d="M344.817,613.635c4.336,4.337 4.336,11.378 0,15.714c-4.337,4.336 -11.378,4.336 -15.714,0c-4.336,-4.336 -4.336,-11.377 0,-15.714c4.336,-4.336 11.377,-4.336 15.714,0Z" style="fill:#7e7e7e;"/><path d="M366.03,634.849c4.336,4.336 4.336,11.377 0,15.713c-4.336,4.336 -11.377,4.336 -15.714,0c-4.336,-4.336 -4.336,-11.377 0,-15.713c4.337,-4.337 11.378,-4.337 15.714,0Z" style="fill:#7e7e7e;"/><path d="M387.243,656.062c4.336,4.336 4.336,11.377 0,15.713c-4.336,4.337 -11.377,4.337 -15.713,0c-4.337,-4.336 -4.337,-11.377 0,-15.713c4.336,-4.337 11.377,-4.337 15.713,0Z" style="fill:#7e7e7e;"/><path d="M408.456,677.275c4.337,4.336 4.337,11.377 0,15.714c-4.336,4.336 -11.377,4.336 -15.713,0c-4.337,-4.337 -4.337,-11.378 0,-15.714c4.336,-4.336 11.377,-4.336 15.713,0Z" style="fill:#7e7e7e;"/><path d="M429.669,698.488c4.337,4.336 4.337,11.377 0,15.714c-4.336,4.336 -11.377,4.336 -15.713,0c-4.336,-4.337 -4.336,-11.378 0,-15.714c4.336,-4.336 11.377,-4.336 15.713,0Z" style="fill:#7e7e7e;"/></g><path d="M226.127,385.31l0,41.015l21.875,21.875l0,46.875l220.486,0l52.43,52.431l175.348,0l50.868,-50.868l0,-16.146l-16.059,-16.059l-163.976,0l-79.123,-79.123l-261.849,0Z" style="fill:#8c8c8c;"/><path d="M291.204,938.101l-44.433,-44.434l-55.122,-55.122l0,-54.253l18.88,-18.88l267.144,0l35.916,35.916l0,107.096l-29.676,29.677l-192.709,0Z" style="fill:#8c8c8c;"/><g><rect x="1785.21" y="601.379" width="14.222" height="400.889" style="fill:#616161;"/><rect x="1805.21" y="601.379" width="14.222" height="400.889" style="fill:#616161;"/><rect x="1825.21" y="601.379" width="14.222" height="400.889" style="fill:#616161;"/><rect x="1845.21" y="601.379" width="14.222" height="400.889" style="fill:#616161;"/><rect x="1865.21" y="601.379" width="14.222" height="400.889" style="fill:#616161;"/><rect x="1885.21" y="601.379" width="14.222" height="400.889" style="fill:#616161;"/><rect x="1905.21" y="601.379" width="14.222" height="400.889" style="fill:#616161;"/><rect x="1925.21" y="601.379" width="14.222" height="400.889" style="fill:#616161;"/><rect x="1945.21" y="601.379" width="14.222" height="400.889" style="fill:#616161;"/><rect x="1945.21" y="601.379" width="14.222" height="400.889" style="fill:#616161;"/></g><path d="M836.767,1211.38l87.111,-87.112l103.111,0l166.667,-166.666l350.666,0l114,-114l0,-148.667l123.889,-123.889" style="fill:none;stroke:#595959;stroke-width:8.3px;"/><path d="M743.433,1212.27l154.667,-154.666l80.889,0l139.111,-139.111l0,-195.111" style="fill:none;stroke:#595959;stroke-width:8.3px;"/><path d="M1022,1014l30,0l144,-144l144,0l144,-144l0,-221.489" style="fill:none;stroke:#595959;stroke-width:9.51px;stroke-linecap:butt;"/></svg>