<?xml version="1.0" encoding="UTF-8" standalone="no"?><!DOCTYPE svg PUBLIC "-//W3C//DTD SVG 1.1//EN" "http://www.w3.org/Graphics/SVG/1.1/DTD/svg11.dtd"><svg width="100%" height="100%" viewBox="0 0 2000 2000" version="1.1" xmlns="http://www.w3.org/2000/svg" xmlns:xlink="http://www.w3.org/1999/xlink" xml:space="preserve" style="fill-rule:evenodd;clip-rule:evenodd;stroke-linecap:round;stroke-linejoin:round;stroke-miterlimit:1.5;"><g><path d="M902.174,769.022l0,114.13l-19.022,19.022l-114.13,0l-19.022,-19.022l0,-114.13l19.022,-19.022l114.13,0l19.022,19.022Z" style="fill:url(#_Linear1);"/><clipPath id="_clip2"><path d="M902.174,769.022l0,114.13l-19.022,19.022l-114.13,0l-19.022,-19.022l0,-114.13l19.022,-19.022l114.13,0l19.022,19.022Z"/></clipPath><g clip-path="url(#_clip2)"><path d="M750,902.174l38.043,-38.044l76.087,0l38.044,38.044l-152.174,0" style="fill:url(#_Linear3);"/><path d="M902.174,902.174l-38.044,-38.044l0,-76.087l38.044,-38.043l0,152.174" style="fill:url(#_Linear4);"/><path d="M902.174,750l-38.044,38.043l-76.087,0l-38.043,-38.043l152.174,0" style="fill:url(#_Linear5);"/><path d="M750,750l38.043,38.043l0,76.087l-38.043,38.044l0,-152.174" style="fill:url(#_Linear6);"/><rect x="788.043" y="788.043" width="76.087" height="76.087" style="fill:#808080;stroke:#7d7d7d;stroke-width:1px;"/></g><path d="M1076.09,769.022l0,114.13l-19.022,19.022l-114.13,0l-19.022,-19.022l0,-114.13l19.022,-19.022l114.13,0l19.022,19.022Z" style="fill:url(#_Linear7);"/><clipPath id="_clip8"><path d="M1076.09,769.022l0,114.13l-19.022,19.022l-114.13,0l-19.022,-19.022l0,-114.13l19.022,-19.022l114.13,0l19.022,19.022Z"/></clipPath><g clip-path="url(#_clip8)"><path d="M923.913,902.174l38.044,-38.044l76.086,0l38.044,38.044l-152.174,0" style="fill:url(#_Linear9);"/><path d="M1076.09,902.174l-38.044,-38.044l0,-76.087l38.044,-38.043l0,152.174" style="fill:url(#_Linear10);"/><path d="M1076.09,750l-38.044,38.043l-76.086,0l-38.044,-38.043l152.174,0" style="fill:url(#_Linear11);"/><path d="M923.913,750l38.044,38.043l0,76.087l-38.044,38.044l0,-152.174" style="fill:url(#_Linear12);"/><rect x="961.957" y="788.043" width="76.087" height="76.087" style="fill:#808080;stroke:#7d7d7d;stroke-width:1px;"/></g><path d="M1250,769.022l0,114.13l-19.022,19.022l-114.13,0l-19.022,-19.022l0,-114.13l19.022,-19.022l114.13,0l19.022,19.022Z" style="fill:url(#_Linear13);"/><clipPath id="_clip14"><path d="M1250,769.022l0,114.13l-19.022,19.022l-114.13,0l-19.022,-19.022l0,-114.13l19.022,-19.022l114.13,0l19.022,19.022Z"/></clipPath><g clip-path="url(#_clip14)"><path d="M1097.83,902.174l38.044,-38.044l76.087,0l38.043,38.044l-152.174,0" style="fill:url(#_Linear15);"/><path d="M1250,902.174l-38.043,-38.044l0,-76.087l38.043,-38.043l0,152.174" style="fill:url(#_Linear16);"/><path d="M1250,750l-38.043,38.043l-76.087,0l-38.044,-38.043l152.174,0" style="fill:url(#_Linear17);"/><path d="M1097.83,750l38.044,38.043l0,76.087l-38.044,38.044l0,-152.174" style="fill:url(#_Linear18);"/><rect x="1135.87" y="788.043" width="76.087" height="76.087" style="fill:#808080;stroke:#7d7d7d;stroke-width:1px;"/></g><path d="M902.174,942.935l0,114.13l-19.022,19.022l-114.13,0l-19.022,-19.022l0,-114.13l19.022,-19.022l114.13,0l19.022,19.022Z" style="fill:url(#_Linear19);"/><clipPath id="_clip20"><path d="M902.174,942.935l0,114.13l-19.022,19.022l-114.13,0l-19.022,-19.022l0,-114.13l19.022,-19.022l114.13,0l19.022,19.022Z"/></clipPath><g clip-path="url(#_clip20)"><path d="M750,1076.09l38.043,-38.044l76.087,0l38.044,38.044l-152.174,0" style="fill:url(#_Linear21);"/><path d="M902.174,1076.09l-38.044,-38.044l0,-76.086l38.044,-38.044l0,152.174" style="fill:url(#_Linear22);"/><path d="M902.174,923.913l-38.044,38.044l-76.087,0l-38.043,-38.044l152.174,0" style="fill:url(#_Linear23);"/><path d="M750,923.913l38.043,38.044l0,76.086l-38.043,38.044l0,-152.174" style="fill:url(#_Linear24);"/><rect x="788.043" y="961.957" width="76.087" height="76.087" style="fill:#808080;stroke:#7d7d7d;stroke-width:1px;"/></g><path d="M1076.09,942.935l0,114.13l-19.022,19.022l-114.13,0l-19.022,-19.022l0,-114.13l19.022,-19.022l114.13,0l19.022,19.022Z" style="fill:url(#_Linear25);"/><clipPath id="_clip26"><path d="M1076.09,942.935l0,114.13l-19.022,19.022l-114.13,0l-19.022,-19.022l0,-114.13l19.022,-19.022l114.13,0l19.022,19.022Z"/></clipPath><g clip-path="url(#_clip26)"><path d="M923.913,1076.09l38.044,-38.044l76.086,0l38.044,38.044l-152.174,0" style="fill:url(#_Linear27);"/><path d="M1076.09,1076.09l-38.044,-38.044l0,-76.086l38.044,-38.044l0,152.174" style="fill:url(#_Linear28);"/><path d="M1076.09,923.913l-38.044,38.044l-76.086,0l-38.044,-38.044l152.174,0" style="fill:url(#_Linear29);"/><path d="M923.913,923.913l38.044,38.044l0,76.086l-38.044,38.044l0,-152.174" style="fill:url(#_Linear30);"/><rect x="961.957" y="961.957" width="76.087" height="76.087" style="fill:#808080;stroke:#7d7d7d;stroke-width:1px;"/></g><path d="M1250,942.935l0,114.13l-19.022,19.022l-114.13,0l-19.022,-19.022l0,-114.13l19.022,-19.022l114.13,0l19.022,19.022Z" style="fill:url(#_Linear31);"/><clipPath id="_clip32"><path d="M1250,942.935l0,114.13l-19.022,19.022l-114.13,0l-19.022,-19.022l0,-114.13l19.022,-19.022l114.13,0l19.022,19.022Z"/></clipPath><g clip-path="url(#_clip32)"><path d="M1097.83,1076.09l38.044,-38.044l76.087,0l38.043,38.044l-152.174,0" style="fill:url(#_Linear33);"/><path d="M1250,1076.09l-38.043,-38.044l0,-76.086l38.043,-38.044l0,152.174" style="fill:url(#_Linear34);"/><path d="M1250,923.913l-38.043,38.044l-76.087,0l-38.044,-38.044l152.174,0" style="fill:url(#_Linear35);"/><path d="M1097.83,923.913l38.044,38.044l0,76.086l-38.044,38.044l0,-152.174" style="fill:url(#_Linear36);"/><rect x="1135.87" y="961.957" width="76.087" height="76.087" style="fill:#808080;stroke:#7d7d7d;stroke-width:1px;"/></g><path d="M902.174,1116.85l0,114.13l-19.022,19.022l-114.13,0l-19.022,-19.022l0,-114.13l19.022,-19.022l114.13,0l19.022,19.022Z" style="fill:url(#_Linear37);"/><clipPath id="_clip38"><path d="M902.174,1116.85l0,114.13l-19.022,19.022l-114.13,0l-19.022,-19.022l0,-114.13l19.022,-19.022l114.13,0l19.022,19.022Z"/></clipPath><g clip-path="url(#_clip38)"><path d="M750,1250l38.043,-38.043l76.087,0l38.044,38.043l-152.174,0" style="fill:url(#_Linear39);"/><path d="M902.174,1250l-38.044,-38.043l0,-76.087l38.044,-38.044l0,152.174" style="fill:url(#_Linear40);"/><path d="M902.174,1097.83l-38.044,38.044l-76.087,0l-38.043,-38.044l152.174,0" style="fill:url(#_Linear41);"/><path d="M750,1097.83l38.043,38.044l0,76.087l-38.043,38.043l0,-152.174" style="fill:url(#_Linear42);"/><rect x="788.043" y="1135.87" width="76.087" height="76.087" style="fill:#808080;stroke:#7d7d7d;stroke-width:1px;"/></g><path d="M1076.09,1116.85l0,114.13l-19.022,19.022l-114.13,0l-19.022,-19.022l0,-114.13l19.022,-19.022l114.13,0l19.022,19.022Z" style="fill:url(#_Linear43);"/><clipPath id="_clip44"><path d="M1076.09,1116.85l0,114.13l-19.022,19.022l-114.13,0l-19.022,-19.022l0,-114.13l19.022,-19.022l114.13,0l19.022,19.022Z"/></clipPath><g clip-path="url(#_clip44)"><path d="M923.913,1250l38.044,-38.043l76.086,0l38.044,38.043l-152.174,0" style="fill:url(#_Linear45);"/><path d="M1076.09,1250l-38.044,-38.043l0,-76.087l38.044,-38.044l0,152.174" style="fill:url(#_Linear46);"/><path d="M1076.09,1097.83l-38.044,38.044l-76.086,0l-38.044,-38.044l152.174,0" style="fill:url(#_Linear47);"/><path d="M923.913,1097.83l38.044,38.044l0,76.087l-38.044,38.043l0,-152.174" style="fill:url(#_Linear48);"/><rect x="961.957" y="1135.87" width="76.087" height="76.087" style="fill:#808080;stroke:#7d7d7d;stroke-width:1px;"/></g><path d="M1250,1116.85l0,114.13l-19.022,19.022l-114.13,0l-19.022,-19.022l0,-114.13l19.022,-19.022l114.13,0l19.022,19.022Z" style="fill:url(#_Linear49);"/><clipPath id="_clip50"><path d="M1250,1116.85l0,114.13l-19.022,19.022l-114.13,0l-19.022,-19.022l0,-114.13l19.022,-19.022l114.13,0l19.022,19.022Z"/></clipPath><g clip-path="url(#_clip50)"><path d="M1097.83,1250l38.044,-38.043l76.087,0l38.043,38.043l-152.174,0" style="fill:url(#_Linear51);"/><path d="M1250,1250l-38.043,-38.043l0,-76.087l38.043,-38.044l0,152.174" style="fill:url(#_Linear52);"/><path d="M1250,1097.83l-38.043,38.044l-76.087,0l-38.044,-38.044l152.174,0" style="fill:url(#_Linear53);"/><path d="M1097.83,1097.83l38.044,38.044l0,76.087l-38.044,38.043l0,-152.174" style="fill:url(#_Linear54);"/><rect x="1135.87" y="1135.87" width="76.087" height="76.087" style="fill:#808080;stroke:#7d7d7d;stroke-width:1px;"/></g></g><defs><linearGradient id="_Linear1" x1="0" y1="0" x2="1" y2="0" gradientUnits="userSpaceOnUse" gradientTransform="matrix(2.32949e-15,-152.174,38.0435,9.31796e-15,829.891,902.174)"><stop offset="0%" style="stop-color:#737373;stop-opacity:1"/><stop offset="100%" style="stop-color:#808080;stop-opacity:1"/></linearGradient><linearGradient id="_Linear3" x1="0" y1="0" x2="1" y2="0" gradientUnits="userSpaceOnUse" gradientTransform="matrix(2.32949e-15,-38.0435,38.0435,2.32949e-15,826.087,902.174)"><stop offset="0%" style="stop-color:#737373;stop-opacity:1"/><stop offset="100%" style="stop-color:#808080;stop-opacity:1"/></linearGradient><linearGradient id="_Linear4" x1="0" y1="0" x2="1" y2="0" gradientUnits="userSpaceOnUse" gradientTransform="matrix(-38.0435,4.65898e-15,-4.65898e-15,-38.0435,902.174,822.283)"><stop offset="0%" style="stop-color:#737373;stop-opacity:1"/><stop offset="100%" style="stop-color:#808080;stop-opacity:1"/></linearGradient><linearGradient id="_Linear5" x1="0" y1="0" x2="1" y2="0" gradientUnits="userSpaceOnUse" gradientTransform="matrix(2.32949e-15,38.0435,-38.0435,2.32949e-15,822.283,750)"><stop offset="0%" style="stop-color:#737373;stop-opacity:1"/><stop offset="100%" style="stop-color:#808080;stop-opacity:1"/></linearGradient><linearGradient id="_Linear6" x1="0" y1="0" x2="1" y2="0" gradientUnits="userSpaceOnUse" gradientTransform="matrix(38.0435,0,0,38.0435,750,829.891)"><stop offset="0%" style="stop-color:#737373;stop-opacity:1"/><stop offset="100%" style="stop-color:#808080;stop-opacity:1"/></linearGradient><linearGradient id="_Linear7" x1="0" y1="0" x2="1" y2="0" gradientUnits="userSpaceOnUse" gradientTransform="matrix(2.32949e-15,-152.174,38.0435,9.31796e-15,1003.8,902.174)"><stop offset="0%" style="stop-color:#737373;stop-opacity:1"/><stop offset="100%" style="stop-color:#808080;stop-opacity:1"/></linearGradient><linearGradient id="_Linear9" x1="0" y1="0" x2="1" y2="0" gradientUnits="userSpaceOnUse" gradientTransform="matrix(2.32949e-15,-38.0435,38.0435,2.32949e-15,1000,902.174)"><stop offset="0%" style="stop-color:#737373;stop-opacity:1"/><stop offset="100%" style="stop-color:#808080;stop-opacity:1"/></linearGradient><linearGradient id="_Linear10" x1="0" y1="0" x2="1" y2="0" gradientUnits="userSpaceOnUse" gradientTransform="matrix(-38.0435,4.65898e-15,-4.65898e-15,-38.0435,1076.09,822.283)"><stop offset="0%" style="stop-color:#737373;stop-opacity:1"/><stop offset="100%" style="stop-color:#808080;stop-opacity:1"/></linearGradient><linearGradient id="_Linear11" x1="0" y1="0" x2="1" y2="0" gradientUnits="userSpaceOnUse" gradientTransform="matrix(2.32949e-15,38.0435,-38.0435,2.32949e-15,996.196,750)"><stop offset="0%" style="stop-color:#737373;stop-opacity:1"/><stop offset="100%" style="stop-color:#808080;stop-opacity:1"/></linearGradient><linearGradient id="_Linear12" x1="0" y1="0" x2="1" y2="0" gradientUnits="userSpaceOnUse" gradientTransform="matrix(38.0435,0,0,38.0435,923.913,829.891)"><stop offset="0%" style="stop-color:#737373;stop-opacity:1"/><stop offset="100%" style="stop-color:#808080;stop-opacity:1"/></linearGradient><linearGradient id="_Linear13" x1="0" y1="0" x2="1" y2="0" gradientUnits="userSpaceOnUse" gradientTransform="matrix(2.32949e-15,-152.174,38.0435,9.31796e-15,1177.72,902.174)"><stop offset="0%" style="stop-color:#737373;stop-opacity:1"/><stop offset="100%" style="stop-color:#808080;stop-opacity:1"/></linearGradient><linearGradient id="_Linear15" x1="0" y1="0" x2="1" y2="0" gradientUnits="userSpaceOnUse" gradientTransform="matrix(2.32949e-15,-38.0435,38.0435,2.32949e-15,1173.91,902.174)"><stop offset="0%" style="stop-color:#737373;stop-opacity:1"/><stop offset="100%" style="stop-color:#808080;stop-opacity:1"/></linearGradient><linearGradient id="_Linear16" x1="0" y1="0" x2="1" y2="0" gradientUnits="userSpaceOnUse" gradientTransform="matrix(-38.0435,4.65898e-15,-4.65898e-15,-38.0435,1250,822.283)"><stop offset="0%" style="stop-color:#737373;stop-opacity:1"/><stop offset="100%" style="stop-color:#808080;stop-opacity:1"/></linearGradient><linearGradient id="_Linear17" x1="0" y1="0" x2="1" y2="0" gradientUnits="userSpaceOnUse" gradientTransform="matrix(2.32949e-15,38.0435,-38.0435,2.32949e-15,1170.11,750)"><stop offset="0%" style="stop-color:#737373;stop-opacity:1"/><stop offset="100%" style="stop-color:#808080;stop-opacity:1"/></linearGradient><linearGradient id="_Linear18" x1="0" y1="0" x2="1" y2="0" gradientUnits="userSpaceOnUse" gradientTransform="matrix(38.0435,0,0,38.0435,1097.83,829.891)"><stop offset="0%" style="stop-color:#737373;stop-opacity:1"/><stop offset="100%" style="stop-color:#808080;stop-opacity:1"/></linearGradient><linearGradient id="_Linear19" x1="0" y1="0" x2="1" y2="0" gradientUnits="userSpaceOnUse" gradientTransform="matrix(2.32949e-15,-152.174,38.0435,9.31796e-15,829.891,1076.09)"><stop offset="0%" style="stop-color:#737373;stop-opacity:1"/><stop offset="100%" style="stop-color:#808080;stop-opacity:1"/></linearGradient><linearGradient id="_Linear21" x1="0" y1="0" x2="1" y2="0" gradientUnits="userSpaceOnUse" gradientTransform="matrix(2.32949e-15,-38.0435,38.0435,2.32949e-15,826.087,1076.09)"><stop offset="0%" style="stop-color:#737373;stop-opacity:1"/><stop offset="100%" style="stop-color:#808080;stop-opacity:1"/></linearGradient><linearGradient id="_Linear22" x1="0" y1="0" x2="1" y2="0" gradientUnits="userSpaceOnUse" gradientTransform="matrix(-38.0435,4.65898e-15,-4.65898e-15,-38.0435,902.174,996.196)"><stop offset="0%" style="stop-color:#737373;stop-opacity:1"/><stop offset="100%" style="stop-color:#808080;stop-opacity:1"/></linearGradient><linearGradient id="_Linear23" x1="0" y1="0" x2="1" y2="0" gradientUnits="userSpaceOnUse" gradientTransform="matrix(2.32949e-15,38.0435,-38.0435,2.32949e-15,822.283,923.913)"><stop offset="0%" style="stop-color:#737373;stop-opacity:1"/><stop offset="100%" style="stop-color:#808080;stop-opacity:1"/></linearGradient><linearGradient id="_Linear24" x1="0" y1="0" x2="1" y2="0" gradientUnits="userSpaceOnUse" gradientTransform="matrix(38.0435,0,0,38.0435,750,1003.8)"><stop offset="0%" style="stop-color:#737373;stop-opacity:1"/><stop offset="100%" style="stop-color:#808080;stop-opacity:1"/></linearGradient><linearGradient id="_Linear25" x1="0" y1="0" x2="1" y2="0" gradientUnits="userSpaceOnUse" gradientTransform="matrix(2.32949e-15,-152.174,38.0435,9.31796e-15,1003.8,1076.09)"><stop offset="0%" style="stop-color:#737373;stop-opacity:1"/><stop offset="100%" style="stop-color:#808080;stop-opacity:1"/></linearGradient><linearGradient id="_Linear27" x1="0" y1="0" x2="1" y2="0" gradientUnits="userSpaceOnUse" gradientTransform="matrix(2.32949e-15,-38.0435,38.0435,2.32949e-15,1000,1076.09)"><stop offset="0%" style="stop-color:#737373;stop-opacity:1"/><stop offset="100%" style="stop-color:#808080;stop-opacity:1"/></linearGradient><linearGradient id="_Linear28" x1="0" y1="0" x2="1" y2="0" gradientUnits="userSpaceOnUse" gradientTransform="matrix(-38.0435,4.65898e-15,-4.65898e-15,-38.0435,1076.09,996.196)"><stop offset="0%" style="stop-color:#737373;stop-opacity:1"/><stop offset="100%" style="stop-color:#808080;stop-opacity:1"/></linearGradient><linearGradient id="_Linear29" x1="0" y1="0" x2="1" y2="0" gradientUnits="userSpaceOnUse" gradientTransform="matrix(2.32949e-15,38.0435,-38.0435,2.32949e-15,996.196,923.913)"><stop offset="0%" style="stop-color:#737373;stop-opacity:1"/><stop offset="100%" style="stop-color:#808080;stop-opacity:1"/></linearGradient><linearGradient id="_Linear30" x1="0" y1="0" x2="1" y2="0" gradientUnits="userSpaceOnUse" gradientTransform="matrix(38.0435,0,0,38.0435,923.913,1003.8)"><stop offset="0%" style="stop-color:#737373;stop-opacity:1"/><stop offset="100%" style="stop-color:#808080;stop-opacity:1"/></linearGradient><linearGradient id="_Linear31" x1="0" y1="0" x2="1" y2="0" gradientUnits="userSpaceOnUse" gradientTransform="matrix(2.32949e-15,-152.174,38.0435,9.31796e-15,1177.72,1076.09)"><stop offset="0%" style="stop-color:#737373;stop-opacity:1"/><stop offset="100%" style="stop-color:#808080;stop-opacity:1"/></linearGradient><linearGradient id="_Linear33" x1="0" y1="0" x2="1" y2="0" gradientUnits="userSpaceOnUse" gradientTransform="matrix(2.32949e-15,-38.0435,38.0435,2.32949e-15,1173.91,1076.09)"><stop offset="0%" style="stop-color:#737373;stop-opacity:1"/><stop offset="100%" style="stop-color:#808080;stop-opacity:1"/></linearGradient><linearGradient id="_Linear34" x1="0" y1="0" x2="1" y2="0" gradientUnits="userSpaceOnUse" gradientTransform="matrix(-38.0435,4.65898e-15,-4.65898e-15,-38.0435,1250,996.196)"><stop offset="0%" style="stop-color:#737373;stop-opacity:1"/><stop offset="100%" style="stop-color:#808080;stop-opacity:1"/></linearGradient><linearGradient id="_Linear35" x1="0" y1="0" x2="1" y2="0" gradientUnits="userSpaceOnUse" gradientTransform="matrix(2.32949e-15,38.0435,-38.0435,2.32949e-15,1170.11,923.913)"><stop offset="0%" style="stop-color:#737373;stop-opacity:1"/><stop offset="100%" style="stop-color:#808080;stop-opacity:1"/></linearGradient><linearGradient id="_Linear36" x1="0" y1="0" x2="1" y2="0" gradientUnits="userSpaceOnUse" gradientTransform="matrix(38.0435,0,0,38.0435,1097.83,1003.8)"><stop offset="0%" style="stop-color:#737373;stop-opacity:1"/><stop offset="100%" style="stop-color:#808080;stop-opacity:1"/></linearGradient><linearGradient id="_Linear37" x1="0" y1="0" x2="1" y2="0" gradientUnits="userSpaceOnUse" gradientTransform="matrix(2.32949e-15,-152.174,38.0435,9.31796e-15,829.891,1250)"><stop offset="0%" style="stop-color:#737373;stop-opacity:1"/><stop offset="100%" style="stop-color:#808080;stop-opacity:1"/></linearGradient><linearGradient id="_Linear39" x1="0" y1="0" x2="1" y2="0" gradientUnits="userSpaceOnUse" gradientTransform="matrix(2.32949e-15,-38.0435,38.0435,2.32949e-15,826.087,1250)"><stop offset="0%" style="stop-color:#737373;stop-opacity:1"/><stop offset="100%" style="stop-color:#808080;stop-opacity:1"/></linearGradient><linearGradient id="_Linear40" x1="0" y1="0" x2="1" y2="0" gradientUnits="userSpaceOnUse" gradientTransform="matrix(-38.0435,4.65898e-15,-4.65898e-15,-38.0435,902.174,1170.11)"><stop offset="0%" style="stop-color:#737373;stop-opacity:1"/><stop offset="100%" style="stop-color:#808080;stop-opacity:1"/></linearGradient><linearGradient id="_Linear41" x1="0" y1="0" x2="1" y2="0" gradientUnits="userSpaceOnUse" gradientTransform="matrix(2.32949e-15,38.0435,-38.0435,2.32949e-15,822.283,1097.83)"><stop offset="0%" style="stop-color:#737373;stop-opacity:1"/><stop offset="100%" style="stop-color:#808080;stop-opacity:1"/></linearGradient><linearGradient id="_Linear42" x1="0" y1="0" x2="1" y2="0" gradientUnits="userSpaceOnUse" gradientTransform="matrix(38.0435,0,0,38.0435,750,1177.72)"><stop offset="0%" style="stop-color:#737373;stop-opacity:1"/><stop offset="100%" style="stop-color:#808080;stop-opacity:1"/></linearGradient><linearGradient id="_Linear43" x1="0" y1="0" x2="1" y2="0" gradientUnits="userSpaceOnUse" gradientTransform="matrix(2.32949e-15,-152.174,38.0435,9.31796e-15,1003.8,1250)"><stop offset="0%" style="stop-color:#737373;stop-opacity:1"/><stop offset="100%" style="stop-color:#808080;stop-opacity:1"/></linearGradient><linearGradient id="_Linear45" x1="0" y1="0" x2="1" y2="0" gradientUnits="userSpaceOnUse" gradientTransform="matrix(2.32949e-15,-38.0435,38.0435,2.32949e-15,1000,1250)"><stop offset="0%" style="stop-color:#737373;stop-opacity:1"/><stop offset="100%" style="stop-color:#808080;stop-opacity:1"/></linearGradient><linearGradient id="_Linear46" x1="0" y1="0" x2="1" y2="0" gradientUnits="userSpaceOnUse" gradientTransform="matrix(-38.0435,4.65898e-15,-4.65898e-15,-38.0435,1076.09,1170.11)"><stop offset="0%" style="stop-color:#737373;stop-opacity:1"/><stop offset="100%" style="stop-color:#808080;stop-opacity:1"/></linearGradient><linearGradient id="_Linear47" x1="0" y1="0" x2="1" y2="0" gradientUnits="userSpaceOnUse" gradientTransform="matrix(2.32949e-15,38.0435,-38.0435,2.32949e-15,996.196,1097.83)"><stop offset="0%" style="stop-color:#737373;stop-opacity:1"/><stop offset="100%" style="stop-color:#808080;stop-opacity:1"/></linearGradient><linearGradient id="_Linear48" x1="0" y1="0" x2="1" y2="0" gradientUnits="userSpaceOnUse" gradientTransform="matrix(38.0435,0,0,38.0435,923.913,1177.72)"><stop offset="0%" style="stop-color:#737373;stop-opacity:1"/><stop offset="100%" style="stop-color:#808080;stop-opacity:1"/></linearGradient><linearGradient id="_Linear49" x1="0" y1="0" x2="1" y2="0" gradientUnits="userSpaceOnUse" gradientTransform="matrix(2.32949e-15,-152.174,38.0435,9.31796e-15,1177.72,1250)"><stop offset="0%" style="stop-color:#737373;stop-opacity:1"/><stop offset="100%" style="stop-color:#808080;stop-opacity:1"/></linearGradient><linearGradient id="_Linear51" x1="0" y1="0" x2="1" y2="0" gradientUnits="userSpaceOnUse" gradientTransform="matrix(2.32949e-15,-38.0435,38.0435,2.32949e-15,1173.91,1250)"><stop offset="0%" style="stop-color:#737373;stop-opacity:1"/><stop offset="100%" style="stop-color:#808080;stop-opacity:1"/></linearGradient><linearGradient id="_Linear52" x1="0" y1="0" x2="1" y2="0" gradientUnits="userSpaceOnUse" gradientTransform="matrix(-38.0435,4.65898e-15,-4.65898e-15,-38.0435,1250,1170.11)"><stop offset="0%" style="stop-color:#737373;stop-opacity:1"/><stop offset="100%" style="stop-color:#808080;stop-opacity:1"/></linearGradient><linearGradient id="_Linear53" x1="0" y1="0" x2="1" y2="0" gradientUnits="userSpaceOnUse" gradientTransform="matrix(2.32949e-15,38.0435,-38.0435,2.32949e-15,1170.11,1097.83)"><stop offset="0%" style="stop-color:#737373;stop-opacity:1"/><stop offset="100%" style="stop-color:#808080;stop-opacity:1"/></linearGradient><linearGradient id="_Linear54" x1="0" y1="0" x2="1" y2="0" gradientUnits="userSpaceOnUse" gradientTransform="matrix(38.0435,0,0,38.0435,1097.83,1177.72)"><stop offset="0%" style="stop-color:#737373;stop-opacity:1"/><stop offset="100%" style="stop-color:#808080;stop-opacity:1"/></linearGradient></defs></svg>