<?xml version="1.0" encoding="UTF-8" standalone="no"?><!DOCTYPE svg PUBLIC "-//W3C//DTD SVG 1.1//EN" "http://www.w3.org/Graphics/SVG/1.1/DTD/svg11.dtd"><svg width="100%" height="100%" viewBox="0 0 2000 2000" version="1.1" xmlns="http://www.w3.org/2000/svg" xmlns:xlink="http://www.w3.org/1999/xlink" xml:space="preserve" style="fill-rule:evenodd;clip-rule:evenodd;stroke-linecap:round;stroke-linejoin:round;stroke-miterlimit:1.5;"><path d="M1500,1600l0,140l-100,100l-800,0l-100,-100l0,-140l1000,0Zm-1240,-1100l140,0l0,1000l-140,0l-100,-100l0,-800l100,-100Zm1480,0l100,100l0,800l-100,100l-140,0l0,-1000l140,0Zm-240,-240l0,140l-1000,0l0,-140l100,-100l800,0l100,100Z" style="fill:#636363;"/><path d="M400,280l-120,120l0,1200l120,120l1200,0l120,-120l0,-1200l-120,-120l-1200,0" style="fill:#666;"/><path d="M1143.43,800l309.117,-309.117l56.569,56.569l-309.117,309.117l0,286.862l309.117,309.117l-56.569,56.569l-309.117,-309.117l-286.862,0l-309.117,309.117l-56.569,-56.569l309.117,-309.117l0,-286.862l-309.117,-309.117l56.569,-56.569l309.117,309.117l286.862,0Z" style="fill:#616161;"/><path d="M880,1220c11.038,0 20,8.962 20,20c0,11.038 -8.962,20 -20,20c-11.038,0 -20,-8.962 -20,-20c0,-11.038 8.962,-20 20,-20Zm60,0c11.038,0 20,8.962 20,20c0,11.038 -8.962,20 -20,20c-11.038,0 -20,-8.962 -20,-20c0,-11.038 8.962,-20 20,-20Zm60,0c11.038,0 20,8.962 20,20c0,11.038 -8.962,20 -20,20c-11.038,0 -20,-8.962 -20,-20c0,-11.038 8.962,-20 20,-20Zm60,0c11.038,0 20,8.962 20,20c0,11.038 -8.962,20 -20,20c-11.038,0 -20,-8.962 -20,-20c0,-11.038 8.962,-20 20,-20Zm60,0c11.038,0 20,8.962 20,20c0,11.038 -8.962,20 -20,20c-11.038,0 -20,-8.962 -20,-20c0,-11.038 8.962,-20 20,-20Zm-240,-480c11.038,0 20,8.962 20,20c0,11.038 -8.962,20 -20,20c-11.038,0 -20,-8.962 -20,-20c0,-11.038 8.962,-20 20,-20Zm60,0c11.038,0 20,8.962 20,20c0,11.038 -8.962,20 -20,20c-11.038,0 -20,-8.962 -20,-20c0,-11.038 8.962,-20 20,-20Zm60,0c11.038,0 20,8.962 20,20c0,11.038 -8.962,20 -20,20c-11.038,0 -20,-8.962 -20,-20c0,-11.038 8.962,-20 20,-20Zm60,0c11.038,0 20,8.962 20,20c0,11.038 -8.962,20 -20,20c-11.038,0 -20,-8.962 -20,-20c0,-11.038 8.962,-20 20,-20Zm60,0c11.038,0 20,8.962 20,20c0,11.038 -8.962,20 -20,20c-11.038,0 -20,-8.962 -20,-20c0,-11.038 8.962,-20 20,-20Z" style="fill:#636363;"/><path d="M780,880c0,11.038 -8.962,20 -20,20c-11.038,0 -20,-8.962 -20,-20c0,-11.038 8.962,-20 20,-20c11.038,0 20,8.962 20,20Zm0,60c0,11.038 -8.962,20 -20,20c-11.038,0 -20,-8.962 -20,-20c0,-11.038 8.962,-20 20,-20c11.038,0 20,8.962 20,20Zm0,60c0,11.038 -8.962,20 -20,20c-11.038,0 -20,-8.962 -20,-20c0,-11.038 8.962,-20 20,-20c11.038,0 20,8.962 20,20Zm0,60c0,11.038 -8.962,20 -20,20c-11.038,0 -20,-8.962 -20,-20c0,-11.038 8.962,-20 20,-20c11.038,0 20,8.962 20,20Zm0,60c0,11.038 -8.962,20 -20,20c-11.038,0 -20,-8.962 -20,-20c0,-11.038 8.962,-20 20,-20c11.038,0 20,8.962 20,20Zm480,-240c0,11.038 -8.962,20 -20,20c-11.038,0 -20,-8.962 -20,-20c0,-11.038 8.962,-20 20,-20c11.038,0 20,8.962 20,20Zm0,60c0,11.038 -8.962,20 -20,20c-11.038,0 -20,-8.962 -20,-20c0,-11.038 8.962,-20 20,-20c11.038,0 20,8.962 20,20Zm0,60c0,11.038 -8.962,20 -20,20c-11.038,0 -20,-8.962 -20,-20c0,-11.038 8.962,-20 20,-20c11.038,0 20,8.962 20,20Zm0,60c0,11.038 -8.962,20 -20,20c-11.038,0 -20,-8.962 -20,-20c0,-11.038 8.962,-20 20,-20c11.038,0 20,8.962 20,20Zm0,60c0,11.038 -8.962,20 -20,20c-11.038,0 -20,-8.962 -20,-20c0,-11.038 8.962,-20 20,-20c11.038,0 20,8.962 20,20Z" style="fill:#636363;"/><path d="M400,500l0,100l100,100l0,600l-100,100l0,100" style="fill:none;stroke:#636363;stroke-width:8px;"/><path d="M1500,400l-100,0l-100,100l-600,0l-100,-100l-100,0" style="fill:none;stroke:#636363;stroke-width:8px;"/><path d="M1600,1500l0,-100l-100,-100l0,-600l100,-100l0,-100" style="fill:none;stroke:#636363;stroke-width:8px;"/><path d="M500,1600l100,0l100,-100l600,0l100,100l100,0" style="fill:none;stroke:#636363;stroke-width:8px;"/></svg>