<?xml version="1.0" encoding="UTF-8" standalone="no"?><!DOCTYPE svg PUBLIC "-//W3C//DTD SVG 1.1//EN" "http://www.w3.org/Graphics/SVG/1.1/DTD/svg11.dtd"><svg width="100%" height="100%" viewBox="0 0 2000 2000" version="1.1" xmlns="http://www.w3.org/2000/svg" xmlns:xlink="http://www.w3.org/1999/xlink" xml:space="preserve" style="fill-rule:evenodd;clip-rule:evenodd;stroke-linejoin:round;stroke-miterlimit:1.5;"><path d="M659.821,1408.24l-82.477,0l-82.478,-82.478l0,-82.478l-82.478,-82.477l-82.477,0l-82.478,-82.478l0,-82.478l-82.478,-82.477l-82.477,0l-82.478,-82.478l0,-82.478l74.23,-74.23l659.821,659.822l-74.23,74.23Z" style="fill:#868686;"/><path d="M483.667,416.795l58.32,58.32l116.641,0l58.321,-58.32l116.641,0l58.32,58.32l116.641,0l58.321,-58.32l116.641,0l58.32,58.32l116.641,0l291.603,291.603l93.313,0l116.641,116.641l-11.664,116.641l-956.457,0l-583.205,-583.205l174.962,0Z" style="fill:#868686;"/><clipPath id="_clip1"><path d="M483.667,416.795l58.32,58.32l116.641,0l58.321,-58.32l116.641,0l58.32,58.32l116.641,0l58.321,-58.32l116.641,0l58.32,58.32l116.641,0l291.603,291.603l93.313,0l116.641,116.641l-11.664,116.641l-956.457,0l-583.205,-583.205l174.962,0Z"/></clipPath><g clip-path="url(#_clip1)"><path d="M571.541,405.918l314.931,314.931l0,93.313l23.328,23.328l174.962,0l104.976,104.977" style="fill:none;stroke:#7b7b7b;stroke-width:5.83px;"/><path d="M887.68,670.489l279.938,0l25.037,25.036l0,93.313l23.328,23.328l0,71.193l-0.222,1.116l-0.632,0.946l-0.946,0.632l-1.116,0.222l-1.116,-0.222l-0.946,-0.632l-0.632,-0.946l-0.222,-1.116l0,-68.777l-23.329,-23.328l0,-93.313l-21.62,-21.62l-279.938,0l-69.985,-69.984l-45.448,0l-1.116,-0.222l-0.946,-0.633l-0.632,-0.946l-0.222,-1.116l0.222,-1.115l0.632,-0.946l0.946,-0.633l1.116,-0.222l47.864,0l69.985,69.985Z" style="fill:#797979;"/><path d="M979.785,475.115l116.641,116.641l326.595,0l221.618,221.618l209.953,0" style="fill:none;stroke:#7b7b7b;stroke-width:5.83px;"/><path d="M1283.05,591.756l174.962,174.962l69.984,0l291.603,291.603" style="fill:none;stroke:#7b7b7b;stroke-width:5.83px;"/></g><path d="M1755.05,924.183c0,-3.218 2.613,-5.832 5.832,-5.832c3.219,0 5.832,2.614 5.832,5.832c0,3.219 -2.613,5.832 -5.832,5.832c-3.219,0 -5.832,-2.613 -5.832,-5.832Zm-104.977,0c0,-3.218 2.613,-5.832 5.832,-5.832c3.219,0 5.832,2.614 5.832,5.832c0,3.219 -2.613,5.832 -5.832,5.832c-3.219,0 -5.832,-2.613 -5.832,-5.832Zm-244.946,0c0,-3.218 2.613,-5.832 5.832,-5.832c3.219,0 5.832,2.614 5.832,5.832c0,3.219 -2.613,5.832 -5.832,5.832c-3.219,0 -5.832,-2.613 -5.832,-5.832Zm-104.977,0c0,-3.218 2.613,-5.832 5.832,-5.832c3.219,0 5.832,2.614 5.832,5.832c0,3.219 -2.613,5.832 -5.832,5.832c-3.219,0 -5.832,-2.613 -5.832,-5.832Zm-244.946,0c0,-3.218 2.613,-5.832 5.832,-5.832c3.219,0 5.832,2.614 5.832,5.832c0,3.219 -2.613,5.832 -5.832,5.832c-3.219,0 -5.832,-2.613 -5.832,-5.832Zm-104.977,0c0,-3.218 2.613,-5.832 5.832,-5.832c3.219,0 5.832,2.614 5.832,5.832c0,3.219 -2.613,5.832 -5.832,5.832c-3.219,0 -5.832,-2.613 -5.832,-5.832Z" style="fill:#7b7b7b;"/><path d="M587.905,1384.18c2.276,-2.276 5.972,-2.276 8.248,0c2.276,2.276 2.276,5.972 0,8.248c-2.276,2.276 -5.972,2.276 -8.248,0c-2.276,-2.276 -2.276,-5.972 0,-8.248Zm-74.229,-74.23c2.276,-2.276 5.971,-2.276 8.247,0c2.276,2.276 2.276,5.972 0,8.248c-2.276,2.276 -5.971,2.276 -8.247,0c-2.277,-2.276 -2.277,-5.972 0,-8.248Zm-173.204,-173.203c2.276,-2.276 5.972,-2.276 8.248,0c2.276,2.276 2.276,5.972 0,8.248c-2.276,2.276 -5.972,2.276 -8.248,0c-2.276,-2.276 -2.276,-5.972 0,-8.248Zm-74.229,-74.23c2.276,-2.276 5.971,-2.276 8.247,0c2.276,2.276 2.276,5.972 0,8.248c-2.276,2.276 -5.971,2.276 -8.247,0c-2.277,-2.276 -2.277,-5.972 0,-8.248Zm-173.204,-173.203c2.276,-2.276 5.972,-2.276 8.248,0c2.276,2.276 2.276,5.972 0,8.248c-2.276,2.276 -5.972,2.276 -8.248,0c-2.276,-2.276 -2.276,-5.972 0,-8.248Zm-74.229,-74.23c2.276,-2.276 5.971,-2.276 8.247,0c2.276,2.276 2.276,5.972 0,8.248c-2.276,2.276 -5.971,2.276 -8.247,0c-2.276,-2.276 -2.276,-5.972 0,-8.248Z" style="fill:#7b7b7b;"/><path d="M455.365,446.814l83.671,83.67l0,81.285l82.477,82.477l81.285,0l83.671,83.671l0,81.285l82.477,82.477l197.926,0l58.32,-58.32l116.641,0l58.321,58.32l116.641,0l58.32,-58.32l116.641,0l58.321,58.32l116.641,0l58.32,-58.32l58.321,0l116.641,116.641l0,583.205l-58.321,58.321l-408.243,0l-58.321,-58.321l-116.641,0l-58.32,-58.32l-408.244,0l-116.641,-116.641l-116.641,0l-408.243,-408.244l-116.641,0l-116.641,-116.641l0,-466.564l58.32,-58.321l216.18,0l82.477,88.34l81.285,0Z" style="fill:#8d8d8d;"/><clipPath id="_clip2"><path d="M455.365,446.814l83.671,83.67l0,81.285l82.477,82.477l81.285,0l83.671,83.671l0,81.285l82.477,82.477l197.926,0l58.32,-58.32l116.641,0l58.321,58.32l116.641,0l58.32,-58.32l116.641,0l58.321,58.32l116.641,0l58.32,-58.32l58.321,0l116.641,116.641l0,583.205l-58.321,58.321l-408.243,0l-58.321,-58.321l-116.641,0l-58.32,-58.32l-408.244,0l-116.641,-116.641l-116.641,0l-408.243,-408.244l-116.641,0l-116.641,-116.641l0,-466.564l58.32,-58.321l216.18,0l82.477,88.34l81.285,0Z"/></clipPath><g clip-path="url(#_clip2)"><path d="M1078.54,1536.55l58.32,-58.321l116.641,0l58.321,58.321l116.641,0l58.32,-58.321l116.642,0l58.32,58.321l116.641,0l58.321,-58.321l116.641,0l58.32,58.321l0,104.977l-933.128,0l0,-104.977Z" style="fill:#868686;"/><clipPath id="_clip3"><path d="M1078.54,1536.55l58.32,-58.321l116.641,0l58.321,58.321l116.641,0l58.32,-58.321l116.642,0l58.32,58.321l116.641,0l58.321,-58.321l116.641,0l58.32,58.321l0,104.977l-933.128,0l0,-104.977Z"/></clipPath><g clip-path="url(#_clip3)"><path d="M1941.68,1495.72c0,-3.218 2.614,-5.832 5.833,-5.832c3.218,0 5.832,2.614 5.832,5.832c0,3.219 -2.614,5.832 -5.832,5.832c-3.219,0 -5.833,-2.613 -5.833,-5.832Zm-104.976,0c0,-3.218 2.613,-5.832 5.832,-5.832c3.218,0 5.832,2.614 5.832,5.832c0,3.219 -2.614,5.832 -5.832,5.832c-3.219,0 -5.832,-2.613 -5.832,-5.832Zm-244.947,0c0,-3.218 2.614,-5.832 5.832,-5.832c3.219,0 5.833,2.614 5.833,5.832c0,3.219 -2.614,5.832 -5.833,5.832c-3.218,0 -5.832,-2.613 -5.832,-5.832Zm-104.977,0c0,-3.218 2.614,-5.832 5.833,-5.832c3.218,0 5.832,2.614 5.832,5.832c0,3.219 -2.614,5.832 -5.832,5.832c-3.219,0 -5.833,-2.613 -5.833,-5.832Zm-244.946,0c0,-3.218 2.614,-5.832 5.832,-5.832c3.219,0 5.832,2.614 5.832,5.832c0,3.219 -2.613,5.832 -5.832,5.832c-3.218,0 -5.832,-2.613 -5.832,-5.832Zm-104.977,0c0,-3.218 2.614,-5.832 5.832,-5.832c3.219,0 5.832,2.614 5.832,5.832c0,3.219 -2.613,5.832 -5.832,5.832c-3.218,0 -5.832,-2.613 -5.832,-5.832Z" style="fill:#7b7b7b;"/></g><path d="M996.887,1524.88l0,-81.649l116.641,-116.641l886.472,0" style="fill:none;stroke:#7b7b7b;stroke-width:5.83px;"/><path d="M1183.51,1326.6l-23.328,-23.328l-559.877,0l-116.641,-116.641l-58.321,0" style="fill:none;stroke:#7b7b7b;stroke-width:5.83px;"/><path d="M646.964,1303.27l-373.251,-373.252l-209.954,0" style="fill:none;stroke:#7b7b7b;stroke-width:5.83px;"/><path d="M1918.35,906.687l-81.648,0l-58.321,58.321l-139.969,0l-139.969,-139.97" style="fill:none;stroke:#7b7b7b;stroke-width:5.83px;"/><path d="M227.056,930.015l-46.656,-46.656l0,-396.58l93.313,-93.312l116.641,0" style="fill:none;stroke:#7b7b7b;stroke-width:5.83px;"/><path d="M934.244,938.985l0.946,0.633l0.632,0.946l0.222,1.115l0,36.201l-25.036,25.036l-244.946,0l-21.62,21.62l0,184.21l21.62,21.62l104.977,0l23.328,23.328l207.538,0l11.664,-11.664l130.721,0l82.503,82.503l0.632,0.946l0.222,1.116l-0.222,1.116l-0.632,0.946l-0.946,0.632l-1.116,0.222l-1.116,-0.222l-0.946,-0.632l-80.795,-80.795l-125.889,0l-11.664,11.664l-212.37,0l-23.328,-23.328l-104.977,0l-25.036,-25.036l0,-189.042l25.036,-25.036l244.946,0l21.62,-21.62l0,-33.785l0.222,-1.115l0.632,-0.946l0.946,-0.633l1.116,-0.222l1.116,0.222Z" style="fill:#7b7b7b;"/><path d="M1283.05,1326.6l69.985,69.984l303.267,0l104.977,104.977l0,34.993" style="fill:none;stroke:#7b7b7b;stroke-width:5.83px;"/><path d="M-17.89,906.687l128.305,0l46.657,-46.656l0,-396.58l93.313,-93.313l69.984,0l-1.166,-48.989l-348.757,2.333l0,559.877l11.664,23.328" style="fill:#888;"/><path d="M950.231,1524.88l0,-81.649l93.313,-93.313l0,-23.328l-559.877,0l349.923,349.923l116.641,-151.633" style="fill:#888;"/><path d="M116.641,626.749l0,11.664l-104.977,0l0,-11.664l104.977,0Zm-104.977,-23.328l104.977,0l0,11.664l-104.977,0l0,-11.664Zm0,-23.329l104.977,0l0,11.664l-104.977,0l0,-11.664Zm0,-23.328l104.977,0l0,11.664l-104.977,0l0,-11.664Zm0,-23.328l104.977,0l0,11.664l-104.977,0l0,-11.664Zm0,-23.328l104.977,0l0,11.664l-104.977,0l0,-11.664Zm0,-23.329l104.977,0l0,11.665l-104.977,0l0,-11.665Zm0,-23.328l104.977,0l0,11.664l-104.977,0l0,-11.664Zm0,-23.328l104.977,0l0,11.664l-104.977,0l0,-11.664Z" style="fill:#797979;"/><path d="M1749.62,1233.28l-11.664,0l0,-104.977l11.664,0l0,104.977Zm23.329,-104.977l0,104.977l-11.664,0l0,-104.977l11.664,0Zm23.328,0l0,104.977l-11.664,0l0,-104.977l11.664,0Zm23.328,0l0,104.977l-11.664,0l0,-104.977l11.664,0Zm23.328,0l0,104.977l-11.664,0l0,-104.977l11.664,0Zm23.328,0l0,104.977l-11.664,0l0,-104.977l11.664,0Zm23.329,0l0,104.977l-11.664,0l0,-104.977l11.664,0Zm23.328,0l0,104.977l-11.664,0l0,-104.977l11.664,0Zm23.328,0l0,104.977l-11.664,0l0,-104.977l11.664,0Z" style="fill:#797979;"/><path d="M1962.79,1121.44l0,118.697l-13.836,13.836l-0.152,0.129l-0.147,0.135l-0.056,0.037l-0.051,0.043l-0.171,0.102l-0.168,0.11l-0.061,0.026l-0.057,0.035l-0.186,0.072l-0.183,0.08l-0.065,0.017l-0.062,0.024l-0.195,0.041l-0.194,0.049l-0.067,0.006l-0.065,0.013l-0.199,0.009l-0.2,0.016l-220.497,0l-14.78,-14.78l0,-118.697l14.78,-14.78l221.832,0l14.78,14.78Zm-17.45,-8.334l-216.492,0l-11.004,11.004l0,113.357l11.004,11.004l216.492,0l11.004,-11.004l0,-113.357l-11.004,-11.004Z" style="fill:#797979;"/></g><g><path d="M919.096,707.398l0,-5.888l52.989,0l0,5.888l-52.989,0Zm52.989,11.775l-52.989,0l0,-5.888l52.989,0l0,5.888Zm0,11.775l-52.989,0l0,-5.888l52.989,0l0,5.888Zm0,11.775l-52.989,0l0,-5.887l52.989,0l0,5.887Zm0,11.775l-52.989,0l0,-5.887l52.989,0l0,5.887Zm0,11.776l-52.989,0l0,-5.888l52.989,0l0,5.888Zm0,11.775l-52.989,0l0,-5.888l52.989,0l0,5.888Zm0,11.775l-52.989,0l0,-5.888l52.989,0l0,5.888Zm0,11.775l-52.989,0l0,-5.887l52.989,0l0,5.887Z" style="fill:#797979;"/><path d="M983.008,695.568l0,111.973l-7.461,7.46l-59.914,0l-6.983,-6.984l-0.065,-0.077l-0.069,-0.074l-0.018,-0.028l-0.022,-0.026l-0.052,-0.086l-0.055,-0.085l-0.013,-0.031l-0.018,-0.028l-0.036,-0.094l-0.041,-0.093l-0.008,-0.032l-0.012,-0.032l-0.021,-0.098l-0.025,-0.098l-0.002,-0.034l-0.007,-0.033l-0.004,-0.101l-0.009,-0.1l0,-111.299l7.46,-7.46l59.914,0l7.461,7.46Zm-66.027,-4.206l-5.554,5.554l0,109.277l5.554,5.555l57.219,0l5.554,-5.555l0,-109.277l-5.554,-5.554l-57.219,0Z" style="fill:#797979;"/></g><g><path d="M1012.41,707.398l0,-5.888l52.988,0l0,5.888l-52.988,0Zm52.988,11.775l-52.988,0l0,-5.888l52.988,0l0,5.888Zm0,11.775l-52.988,0l0,-5.888l52.988,0l0,5.888Zm0,11.775l-52.988,0l0,-5.887l52.988,0l0,5.887Zm0,11.775l-52.988,0l0,-5.887l52.988,0l0,5.887Zm0,11.776l-52.988,0l0,-5.888l52.988,0l0,5.888Zm0,11.775l-52.988,0l0,-5.888l52.988,0l0,5.888Zm0,11.775l-52.988,0l0,-5.888l52.988,0l0,5.888Zm0,11.775l-52.988,0l0,-5.887l52.988,0l0,5.887Z" style="fill:#797979;"/><path d="M1076.32,695.568l0,111.973l-7.46,7.46l-59.914,0l-6.983,-6.984l-0.066,-0.077l-0.068,-0.074l-0.018,-0.028l-0.022,-0.026l-0.052,-0.086l-0.055,-0.085l-0.013,-0.031l-0.018,-0.028l-0.036,-0.094l-0.041,-0.093l-0.008,-0.032l-0.012,-0.032l-0.021,-0.098l-0.025,-0.098l-0.003,-0.034l-0.006,-0.033l-0.005,-0.101l-0.008,-0.1l0,-111.299l7.46,-7.46l59.914,0l7.46,7.46Zm-66.026,-4.206l-5.554,5.554l0,109.277l5.554,5.555l57.218,0l5.555,-5.555l0,-109.277l-5.555,-5.554l-57.218,0Z" style="fill:#797979;"/></g><g><path d="M1105.72,707.398l0,-5.888l52.988,0l0,5.888l-52.988,0Zm52.988,11.775l-52.988,0l0,-5.888l52.988,0l0,5.888Zm0,11.775l-52.988,0l0,-5.888l52.988,0l0,5.888Zm0,11.775l-52.988,0l0,-5.887l52.988,0l0,5.887Zm0,11.775l-52.988,0l0,-5.887l52.988,0l0,5.887Zm0,11.776l-52.988,0l0,-5.888l52.988,0l0,5.888Zm0,11.775l-52.988,0l0,-5.888l52.988,0l0,5.888Zm0,11.775l-52.988,0l0,-5.888l52.988,0l0,5.888Zm0,11.775l-52.988,0l0,-5.887l52.988,0l0,5.887Z" style="fill:#797979;"/><path d="M1169.63,695.568l0,111.973l-7.46,7.46l-59.914,0l-6.984,-6.984l-0.065,-0.077l-0.068,-0.074l-0.019,-0.028l-0.021,-0.026l-0.052,-0.086l-0.055,-0.085l-0.014,-0.031l-0.017,-0.028l-0.037,-0.094l-0.04,-0.093l-0.008,-0.032l-0.013,-0.032l-0.02,-0.098l-0.025,-0.098l-0.003,-0.034l-0.007,-0.033l-0.004,-0.1l-0.008,-0.101l0,-111.299l7.46,-7.46l59.914,0l7.46,7.46Zm-66.026,-4.206l-5.555,5.554l0,109.277l5.555,5.555l57.218,0l5.555,-5.555l0,-109.277l-5.555,-5.554l-57.218,0Z" style="fill:#797979;"/></g><g><path d="M1105.72,707.398l0,-5.888l52.988,0l0,5.888l-52.988,0Zm52.988,11.775l-52.988,0l0,-5.888l52.988,0l0,5.888Zm0,11.775l-52.988,0l0,-5.888l52.988,0l0,5.888Zm0,11.775l-52.988,0l0,-5.887l52.988,0l0,5.887Zm0,11.775l-52.988,0l0,-5.887l52.988,0l0,5.887Zm0,11.776l-52.988,0l0,-5.888l52.988,0l0,5.888Zm0,11.775l-52.988,0l0,-5.888l52.988,0l0,5.888Zm0,11.775l-52.988,0l0,-5.888l52.988,0l0,5.888Zm0,11.775l-52.988,0l0,-5.887l52.988,0l0,5.887Z" style="fill:#797979;"/><path d="M1169.63,695.568l0,111.973l-7.46,7.46l-59.914,0l-6.984,-6.984l-0.065,-0.077l-0.068,-0.074l-0.019,-0.028l-0.021,-0.026l-0.052,-0.086l-0.055,-0.085l-0.014,-0.031l-0.017,-0.028l-0.037,-0.094l-0.04,-0.093l-0.008,-0.032l-0.013,-0.032l-0.02,-0.098l-0.025,-0.098l-0.003,-0.034l-0.007,-0.033l-0.004,-0.1l-0.008,-0.101l0,-111.299l7.46,-7.46l59.914,0l7.46,7.46Zm-66.026,-4.206l-5.555,5.554l0,109.277l5.555,5.555l57.218,0l5.555,-5.555l0,-109.277l-5.555,-5.554l-57.218,0Z" style="fill:#797979;"/></g><g><circle cx="122.473" cy="422.627" r="5.832" style="fill:#797979;"/><circle cx="122.473" cy="655.909" r="5.832" style="fill:#797979;"/><circle cx="250.778" cy="387.635" r="5.832" style="fill:#797979;"/><circle cx="169.129" cy="469.283" r="5.832" style="fill:#797979;"/><circle cx="110.809" cy="947.512" r="5.832" style="fill:#797979;"/><circle cx="262.442" cy="947.512" r="5.832" style="fill:#797979;"/><circle cx="449.068" cy="1169.13" r="5.832" style="fill:#797979;"/><circle cx="577.373" cy="1309.1" r="5.832" style="fill:#797979;"/><circle cx="1067.27" cy="1320.76" r="5.832" style="fill:#797979;"/><circle cx="962.288" cy="1507.39" r="5.832" style="fill:#797979;"/><circle cx="1277.22" cy="1344.09" r="5.832" style="fill:#797979;"/><circle cx="1125.59" cy="1344.09" r="5.832" style="fill:#797979;"/><circle cx="1650.47" cy="1414.08" r="5.832" style="fill:#797979;"/><circle cx="1370.53" cy="1414.08" r="5.832" style="fill:#797979;"/><circle cx="1729.2" cy="1236.2" r="2.916" style="fill:#797979;"/><circle cx="1729.2" cy="1125.39" r="2.916" style="fill:#797979;"/><circle cx="1944.99" cy="1125.39" r="2.916" style="fill:#797979;"/><circle cx="1944.99" cy="1236.2" r="2.916" style="fill:#797979;"/><circle cx="204.122" cy="877.527" r="5.832" style="fill:#797979;"/><circle cx="204.122" cy="702.565" r="5.832" style="fill:#797979;"/><circle cx="204.122" cy="807.542" r="5.832" style="fill:#797979;"/><circle cx="40.824" cy="889.191" r="5.832" style="fill:#797979;"/><circle cx="110.809" cy="889.191" r="5.832" style="fill:#797979;"/><circle cx="379.083" cy="434.291" r="5.832" style="fill:#797979;"/><circle cx="810.655" cy="620.917" r="5.832" style="fill:#797979;"/><circle cx="1195.57" cy="865.863" r="5.832" style="fill:#797979;"/><circle cx="880.64" cy="690.901" r="5.832" style="fill:#797979;"/><circle cx="994.365" cy="822.122" r="2.916" style="fill:#797979;"/><circle cx="994.365" cy="687.985" r="2.916" style="fill:#797979;"/><circle cx="1087.68" cy="687.985" r="2.916" style="fill:#797979;"/><circle cx="1087.68" cy="822.122" r="2.916" style="fill:#797979;"/><circle cx="1180.99" cy="822.122" r="2.916" style="fill:#797979;"/><circle cx="1180.99" cy="711.313" r="2.916" style="fill:#797979;"/><circle cx="901.052" cy="810.458" r="2.916" style="fill:#797979;"/><circle cx="1335.54" cy="609.253" r="5.832" style="fill:#797979;"/><circle cx="1475.51" cy="749.222" r="5.832" style="fill:#797979;"/><circle cx="1662.13" cy="830.871" r="5.832" style="fill:#797979;"/><circle cx="1778.78" cy="830.871" r="5.832" style="fill:#797979;"/><circle cx="1484.26" cy="897.939" r="2.916" style="fill:#797979;"/><circle cx="1542.58" cy="897.939" r="2.916" style="fill:#797979;"/><circle cx="1134.33" cy="897.939" r="2.916" style="fill:#797979;"/><circle cx="1227.65" cy="897.939" r="2.916" style="fill:#797979;"/><circle cx="694.014" cy="714.229" r="5.832" style="fill:#797979;"/><circle cx="763.999" cy="784.214" r="5.832" style="fill:#797979;"/><circle cx="451.984" cy="460.535" r="2.916" style="fill:#797979;"/><circle cx="521.969" cy="530.52" r="2.916" style="fill:#797979;"/><circle cx="282.854" cy="413.879" r="2.916" style="fill:#797979;"/><circle cx="667.77" cy="1218.7" r="2.916" style="fill:#797979;"/></g><g><ellipse cx="481.561" cy="543.434" rx="1.666" ry="1.881" style="fill:#797979;"/><ellipse cx="481.561" cy="614.909" rx="1.666" ry="1.881" style="fill:#797979;"/><ellipse cx="358.255" cy="614.909" rx="1.666" ry="1.881" style="fill:#797979;"/><ellipse cx="358.255" cy="543.434" rx="1.666" ry="1.881" style="fill:#797979;"/><path d="M469.897,545.315l6.665,0l0,67.713l-6.665,0l0,-67.713Zm-13.331,67.713l0,-67.713l6.666,0l0,67.713l-6.666,0Zm-13.33,0l0,-67.713l6.665,0l0,67.713l-6.665,0Zm-13.33,0l0,-67.713l6.665,0l0,67.713l-6.665,0Zm-13.331,0l0,-67.713l6.665,0l0,67.713l-6.665,0Zm-13.33,0l0,-67.713l6.665,0l0,67.713l-6.665,0Zm-13.331,0l0,-67.713l6.665,0l0,67.713l-6.665,0Zm-13.33,0l0,-67.713l6.665,0l0,67.713l-6.665,0Zm-13.331,0l0,-67.713l6.666,0l0,67.713l-6.666,0Z" style="fill:#797979;"/><path d="M491.856,541.007l0,76.329l-8.447,9.535l-127.003,0l-8.447,-9.535l0,-76.329l7.861,-8.873l0.013,-0.013l0.012,-0.015l0.106,-0.097l0.103,-0.1l0.016,-0.01l0.014,-0.013l0.12,-0.078l0.118,-0.081l0.017,-0.008l0.016,-0.01l0.132,-0.058l0.13,-0.06l0.018,-0.005l0.017,-0.008l0.139,-0.035l0.139,-0.038l0.018,-0.002l0.019,-0.004l0.143,-0.012l0.142,-0.015l0.019,0.002l0.019,-0.002l126.119,0l8.447,9.535Zm-139.969,74.84l6.287,7.096l123.468,0l6.286,-7.096l0,-73.351l-6.286,-7.096l-123.468,0l-6.287,7.096l0,73.351Z" style="fill:#797979;"/></g><g><ellipse cx="481.561" cy="660.075" rx="1.666" ry="1.881" style="fill:#797979;"/><ellipse cx="481.561" cy="731.55" rx="1.666" ry="1.881" style="fill:#797979;"/><ellipse cx="358.255" cy="731.55" rx="1.666" ry="1.881" style="fill:#797979;"/><ellipse cx="358.255" cy="660.075" rx="1.666" ry="1.881" style="fill:#797979;"/><path d="M469.897,661.956l6.665,0l0,67.713l-6.665,0l0,-67.713Zm-13.331,67.713l0,-67.713l6.666,0l0,67.713l-6.666,0Zm-13.33,0l0,-67.713l6.665,0l0,67.713l-6.665,0Zm-13.33,0l0,-67.713l6.665,0l0,67.713l-6.665,0Zm-13.331,0l0,-67.713l6.665,0l0,67.713l-6.665,0Zm-13.33,0l0,-67.713l6.665,0l0,67.713l-6.665,0Zm-13.331,0l0,-67.713l6.665,0l0,67.713l-6.665,0Zm-13.33,0l0,-67.713l6.665,0l0,67.713l-6.665,0Zm-13.331,0l0,-67.713l6.666,0l0,67.713l-6.666,0Z" style="fill:#797979;"/><path d="M491.856,657.648l0,76.329l-8.447,9.535l-127.003,0l-8.447,-9.535l0,-76.329l7.861,-8.873l0.013,-0.013l0.012,-0.015l0.106,-0.097l0.103,-0.1l0.016,-0.01l0.014,-0.013l0.12,-0.078l0.118,-0.081l0.017,-0.008l0.016,-0.01l0.132,-0.058l0.13,-0.06l0.018,-0.005l0.017,-0.008l0.139,-0.035l0.139,-0.038l0.018,-0.002l0.019,-0.004l0.143,-0.012l0.142,-0.015l0.019,0.002l0.019,-0.002l126.119,0l8.447,9.535Zm-139.969,74.84l6.287,7.096l123.468,0l6.286,-7.096l0,-73.351l-6.286,-7.096l-123.468,0l-6.287,7.096l0,73.351Z" style="fill:#797979;"/></g><g><ellipse cx="481.561" cy="776.716" rx="1.666" ry="1.881" style="fill:#797979;"/><ellipse cx="481.561" cy="848.191" rx="1.666" ry="1.881" style="fill:#797979;"/><ellipse cx="358.255" cy="848.191" rx="1.666" ry="1.881" style="fill:#797979;"/><ellipse cx="358.255" cy="776.716" rx="1.666" ry="1.881" style="fill:#797979;"/><path d="M469.897,778.597l6.665,0l0,67.713l-6.665,0l0,-67.713Zm-13.331,67.713l0,-67.713l6.666,0l0,67.713l-6.666,0Zm-13.33,0l0,-67.713l6.665,0l0,67.713l-6.665,0Zm-13.33,0l0,-67.713l6.665,0l0,67.713l-6.665,0Zm-13.331,0l0,-67.713l6.665,0l0,67.713l-6.665,0Zm-13.33,0l0,-67.713l6.665,0l0,67.713l-6.665,0Zm-13.331,0l0,-67.713l6.665,0l0,67.713l-6.665,0Zm-13.33,0l0,-67.713l6.665,0l0,67.713l-6.665,0Zm-13.331,0l0,-67.713l6.666,0l0,67.713l-6.666,0Z" style="fill:#797979;"/><path d="M491.856,774.289l0,76.329l-8.447,9.535l-127.003,0l-8.447,-9.535l0,-76.329l7.861,-8.873l0.013,-0.013l0.012,-0.015l0.106,-0.097l0.103,-0.1l0.016,-0.01l0.014,-0.013l0.12,-0.078l0.118,-0.081l0.017,-0.008l0.016,-0.01l0.132,-0.058l0.13,-0.06l0.018,-0.005l0.017,-0.008l0.139,-0.035l0.139,-0.038l0.018,-0.002l0.019,-0.004l0.143,-0.012l0.142,-0.015l0.019,0.002l0.019,-0.002l126.119,0l8.447,9.535Zm-139.969,74.84l6.287,7.096l123.468,0l6.286,-7.096l0,-73.351l-6.286,-7.096l-123.468,0l-6.287,7.096l0,73.351Z" style="fill:#797979;"/></g><g><ellipse cx="481.561" cy="893.357" rx="1.666" ry="1.881" style="fill:#797979;"/><ellipse cx="481.561" cy="964.832" rx="1.666" ry="1.881" style="fill:#797979;"/><ellipse cx="358.255" cy="964.832" rx="1.666" ry="1.881" style="fill:#797979;"/><ellipse cx="358.255" cy="893.357" rx="1.666" ry="1.881" style="fill:#797979;"/><path d="M469.897,895.238l6.665,0l0,67.713l-6.665,0l0,-67.713Zm-13.331,67.713l0,-67.713l6.666,0l0,67.713l-6.666,0Zm-13.33,0l0,-67.713l6.665,0l0,67.713l-6.665,0Zm-13.33,0l0,-67.713l6.665,0l0,67.713l-6.665,0Zm-13.331,0l0,-67.713l6.665,0l0,67.713l-6.665,0Zm-13.33,0l0,-67.713l6.665,0l0,67.713l-6.665,0Zm-13.331,0l0,-67.713l6.665,0l0,67.713l-6.665,0Zm-13.33,0l0,-67.713l6.665,0l0,67.713l-6.665,0Zm-13.331,0l0,-67.713l6.666,0l0,67.713l-6.666,0Z" style="fill:#797979;"/><path d="M491.856,890.93l0,76.329l-8.447,9.535l-127.003,0l-8.447,-9.535l0,-76.329l7.861,-8.873l0.013,-0.013l0.012,-0.015l0.106,-0.097l0.103,-0.1l0.016,-0.01l0.014,-0.013l0.12,-0.078l0.118,-0.081l0.017,-0.008l0.016,-0.01l0.132,-0.058l0.13,-0.06l0.018,-0.005l0.017,-0.008l0.139,-0.035l0.139,-0.038l0.018,-0.002l0.019,-0.004l0.143,-0.012l0.142,-0.015l0.019,0.002l0.019,-0.002l126.119,0l8.447,9.535Zm-139.969,74.84l6.287,7.096l123.468,0l6.286,-7.096l0,-73.351l-6.286,-7.096l-123.468,0l-6.287,7.096l0,73.351Z" style="fill:#797979;"/></g><path d="M664.854,1139.97c-6.438,0 -11.664,-5.226 -11.664,-11.664l0,-23.328c0,-6.438 5.226,-11.664 11.664,-11.664l781.495,0l0,46.656l-781.495,0Z" style="fill:url(#_Linear4);"/><path d="M664.854,1069.99c-6.438,0 -11.664,-5.227 -11.664,-11.664l0,-23.329c0,-6.437 5.226,-11.664 11.664,-11.664l781.495,0l0,46.657l-781.495,0Z" style="fill:url(#_Linear5);"/><path d="M664.854,1209.95c-6.438,0 -11.664,-5.227 -11.664,-11.664l0,-23.328c0,-6.438 5.226,-11.664 11.664,-11.665l781.495,0l0,46.657l-781.495,0Z" style="fill:url(#_Linear6);"/><path d="M1109.3,1008.75l373.251,0l25.036,25.036l0,116.641l68.277,68.277l138.761,0l1.116,0.222l0.946,0.632l0.632,0.946l0.222,1.116l-0.222,1.116l-0.632,0.946l-0.946,0.632l-1.116,0.222l-141.177,0l-71.693,-71.693l0,-116.641l-21.62,-21.62l-373.251,0l-11.664,-11.664l-185.418,0l-1.116,-0.222l-0.946,-0.632l-0.632,-0.946l-0.222,-1.116l0.222,-1.116l0.632,-0.946l0.946,-0.632l1.116,-0.222l187.834,0l11.664,11.664Z" style="fill:#7b7b7b;"/><circle cx="667.77" cy="1014.58" r="2.916" style="fill:#797979;"/><circle cx="1093.51" cy="1014.58" r="2.916" style="fill:#797979;"/><circle cx="1000.2" cy="1242.03" r="2.916" style="fill:#797979;"/><circle cx="1192.65" cy="1312.02" r="2.916" style="fill:#797979;"/><circle cx="1227.65" cy="1312.02" r="2.916" style="fill:#797979;"/><circle cx="1472.59" cy="1026.24" r="2.916" style="fill:#797979;"/><circle cx="1490.09" cy="1043.74" r="2.916" style="fill:#797979;"/><circle cx="1519.25" cy="1148.72" r="2.916" style="fill:#797979;"/><circle cx="1577.57" cy="1207.04" r="2.916" style="fill:#797979;"/><circle cx="1700.04" cy="1236.2" r="2.916" style="fill:#797979;"/><defs><linearGradient id="_Linear4" x1="0" y1="0" x2="1" y2="0" gradientUnits="userSpaceOnUse" gradientTransform="matrix(793.159,0,0,793.159,653.19,1116.64)"><stop offset="0" style="stop-color:#7b7b7b;stop-opacity:1"/><stop offset="1" style="stop-color:#8d8d8d;stop-opacity:1"/></linearGradient><linearGradient id="_Linear5" x1="0" y1="0" x2="1" y2="0" gradientUnits="userSpaceOnUse" gradientTransform="matrix(793.159,0,0,793.159,653.19,1116.64)"><stop offset="0" style="stop-color:#7b7b7b;stop-opacity:1"/><stop offset="1" style="stop-color:#8d8d8d;stop-opacity:1"/></linearGradient><linearGradient id="_Linear6" x1="0" y1="0" x2="1" y2="0" gradientUnits="userSpaceOnUse" gradientTransform="matrix(793.159,0,0,793.159,653.19,1116.64)"><stop offset="0" style="stop-color:#7b7b7b;stop-opacity:1"/><stop offset="1" style="stop-color:#8d8d8d;stop-opacity:1"/></linearGradient></defs></svg>