<?xml version="1.0" encoding="UTF-8" standalone="no"?><!DOCTYPE svg PUBLIC "-//W3C//DTD SVG 1.1//EN" "http://www.w3.org/Graphics/SVG/1.1/DTD/svg11.dtd"><svg width="100%" height="100%" viewBox="0 0 2000 2000" version="1.1" xmlns="http://www.w3.org/2000/svg" xmlns:xlink="http://www.w3.org/1999/xlink" xml:space="preserve" style="fill-rule:evenodd;clip-rule:evenodd;stroke-linecap:round;stroke-linejoin:round;stroke-miterlimit:1.5;"><g><path d="M754.743,995.627l10.004,0l0,150.054l-10.004,0l0,-150.054Zm-20.007,350.128l0,-350.128l10.004,0l0,350.128l-10.004,0Zm-20.008,-100.037l0,-250.091l10.004,0l0,250.091l-10.004,0Z" style="fill:#959595;"/><path d="M644.705,1235.71l0,100.037l-30.012,0l0,-140.052l10.005,-10.004l0,-120.044l-10.005,-10.003l0,-20.007l10.005,0l0,-20.008l-80.03,0l0,-110.041l-10.004,-10.003l-50.018,0l-20.007,-20.007l0,-140.052l100.037,-100.036l0,-400.147l200.073,-200.074l80.029,0l20.008,20.007l0,280.103l80.029,80.03l0,320.117l-40.014,40.015l0,260.096l-60.023,60.022l-60.022,0l-10.004,-10.005l-40.014,0l-30.011,30.012l0,60.022l-59.683,59.682" style="fill:#9a9a9a;"/><g><clipPath id="_clip1"><path d="M644.705,1235.71l0,100.037l-30.012,0l0,-140.052l10.005,-10.004l0,-120.044l-10.005,-10.003l0,-20.007l10.005,0l0,-20.008l-80.03,0l0,-110.041l-10.004,-10.003l-50.018,0l-20.007,-20.007l0,-140.052l100.037,-100.036l0,-400.147l200.073,-200.074l80.029,0l20.008,20.007l0,280.103l80.029,80.03l0,320.117l-40.014,40.015l0,260.096l-60.023,60.022l-60.022,0l-10.004,-10.005l-40.014,0l-30.011,30.012l0,60.022l-59.683,59.682"/></clipPath><g clip-path="url(#_clip1)"><path d="M565.676,815.561l-51.018,0l0,-20.008l20.007,0l0,-20.007l-20.007,0l0,-20.007l20.007,0l0,-20.008l-20.007,0l0,-20.007l20.007,0l0,-20.007l-20.007,0l0,-20.008l20.007,0l0,-20.007l-20.007,0l0,-320.118l10.003,0l0,-320.117l70.026,0l0,260.095l-11.004,0l0,10.004l51.019,0l0,20.007l-20.008,0l0,20.008l20.008,0l0,20.007l-20.008,0l0,20.007l20.008,0l0,20.008l-20.008,0l0,20.007l20.008,0l0,20.007l-20.008,0l0,20.008l20.008,0l0,320.117l-10.004,0l0,320.117l-70.026,0l0,-260.095l11.004,0l0,-10.003Zm49.018,210.076l0,-20.007l-40.014,0l0,20.007l40.014,0Zm-40.014,20.008l0,20.007l40.014,0l0,-20.007l-40.014,0Zm0,-400.147l0,80.029l40.014,0l0,-80.029l-40.014,0Zm0,-50.018l0,30.011l40.014,0l0,-80.03l-10.003,0l0,-10.003l-20.008,0l0,20.007l10.004,0l0,40.015l-20.007,0Zm20.007,-80.03l0,10.004l20.007,0l0,-10.004l-20.007,0Zm-11.004,-50.018l0,40.015l31.011,0l0,-40.015l-31.011,0Zm-9.003,500.183l0,20.008l40.014,0l0,-20.008l-40.014,0Zm0,-40.014l0,20.007l40.014,0l0,-20.007l-40.014,0Zm0,-40.015l0,20.007l40.014,0l0,-20.007l-40.014,0Zm0,-40.015l0,20.008l40.014,0l0,-20.008l-40.014,0Zm0,-30.01l0,10.003l40.014,0l0,-80.029l-40.014,0l0,30.011l20.007,0l0,40.015l-20.007,0Zm20.007,-510.188l0,140.052l10.004,0l0,-140.052l-10.004,0Zm-60.022,-270.099l0,20.007l40.015,0l0,-20.007l-40.015,0Zm0,40.015l0,20.007l40.015,0l0,-20.007l-40.015,0Zm0,40.014l0,20.008l40.015,0l0,-20.008l-40.015,0Zm0,40.015l0,20.007l40.015,0l0,-20.007l-40.015,0Zm0,80.03l0,20.007l40.015,0l0,-20.007l-40.015,0Zm0,-40.015l0,20.007l40.015,0l0,-20.007l-40.015,0Zm0,80.029l0,80.03l40.015,0l0,-30.011l-20.008,0l0,-40.015l20.008,0l0,-10.004l-40.015,0Zm0,200.074l0,80.029l10.004,0l0,10.004l20.007,0l0,-20.008l-10.004,0l0,-40.014l20.008,0l0,-30.011l-40.015,0Zm0,-20.008l40.015,0l0,-80.029l-40.015,0l0,80.029Zm0,180.067l31.011,0l0,-40.015l-31.011,0l0,40.015Zm10.004,20.007l0,140.051l10.003,0l0,-140.051l-10.003,0Zm-10.004,-80.03l0,10.004l20.007,0l0,-10.004l-20.007,0Z" style="fill:#8d8d8d;"/><path d="M554.668,595.479l80.03,0l40.014,-40.015l0,-100.037l-20.007,-20.007l0,-260.096l40.015,-40.014l0,-80.03l-166.061,172.063l26.009,368.136l0,0Z" style="fill:#989898;"/><g><clipPath id="_clip2"><path d="M554.668,595.479l80.03,0l40.014,-40.015l0,-100.037l-20.007,-20.007l0,-260.096l40.015,-40.014l0,-80.03l-166.061,172.063l26.009,368.136l0,0Z"/></clipPath><g clip-path="url(#_clip2)"><path d="M604.689,185.331l0,30.01l-10.003,10.004l0,210.077l80.029,80.029" style="fill:none;stroke:#8d8d8d;stroke-width:2.5px;"/><path d="M564.674,575.474l20.007,-20.007l50.018,0l10.004,-10.004l0,-50.018l-60.022,-60.022l0,-140.051l-30.012,-30.011" style="fill:none;stroke:#8d8d8d;stroke-width:2.5px;"/></g></g><path d="M554.668,595.479l80.03,0l40.014,-40.015l0,-100.037l-20.007,-20.007l0,-260.096l40.015,-40.014l0,-80.03l-166.061,172.063l26.009,368.136l0,0Z" style="fill:none;stroke:#8d8d8d;stroke-width:2.5px;"/><path d="M644.705,357.004l0,39.576c0,2.506 -2.063,4.569 -4.57,4.569c-0.802,0 -1.59,-0.211 -2.285,-0.612l-34.273,-19.788c-1.412,-0.815 -2.285,-2.327 -2.285,-3.957c0,-1.631 0.873,-3.142 2.285,-3.958l34.273,-19.787c0.695,-0.401 1.483,-0.613 2.285,-0.613c2.507,0 4.57,2.063 4.57,4.57Zm-41.128,-44.801c-1.412,-0.816 -2.285,-2.327 -2.285,-3.958c0,-1.631 0.873,-3.142 2.285,-3.957l34.273,-19.788c0.695,-0.401 1.483,-0.612 2.285,-0.612c2.507,0 4.57,2.063 4.57,4.57l0,39.575c0,2.507 -2.063,4.57 -4.57,4.57c-0.802,0 -1.59,-0.211 -2.285,-0.612l-34.273,-19.788Zm0,-68.547c-1.412,-0.815 -2.285,-2.326 -2.285,-3.957c0,-1.631 0.873,-3.142 2.285,-3.957l34.273,-19.788c0.695,-0.402 1.483,-0.613 2.285,-0.613c2.507,0 4.57,2.063 4.57,4.57l0,39.575c0,2.507 -2.063,4.571 -4.57,4.571c-0.802,0 -1.59,-0.212 -2.285,-0.613l-34.273,-19.788Zm-2.285,187.197l0,-39.576c0,-2.507 2.063,-4.569 4.569,-4.569c0.803,0 1.591,0.211 2.286,0.612l34.273,19.787c1.412,0.816 2.285,2.327 2.285,3.958c0,1.63 -0.873,3.142 -2.285,3.958l-34.273,19.787c-0.695,0.401 -1.483,0.612 -2.286,0.612c-2.506,0 -4.569,-2.062 -4.569,-4.569l0,0Zm0,-68.547l0,-39.575c0,-2.507 2.063,-4.57 4.569,-4.57c0.803,0 1.591,0.211 2.286,0.612l34.273,19.788c1.412,0.815 2.285,2.327 2.285,3.957c0,1.631 -0.873,3.143 -2.285,3.958l-34.273,19.788c-0.695,0.401 -1.483,0.612 -2.286,0.612c-2.506,0 -4.569,-2.063 -4.569,-4.57l0,0Zm0,-68.546l0,-39.575c0,-2.507 2.063,-4.571 4.569,-4.571c0.803,0 1.591,0.212 2.286,0.613l34.273,19.788c1.412,0.815 2.285,2.326 2.285,3.957c0,1.631 -0.873,3.142 -2.285,3.957l-34.273,19.789c-0.695,0.401 -1.483,0.612 -2.286,0.612c-2.506,0 -4.569,-2.063 -4.569,-4.57l0,0Z" style="fill:#737373;"/><path d="M784.754,863.578l0,40.015l-80.029,0l0,-20.008l20.007,0l0,-20.007l-20.007,0l0,-20.007l20.007,0l0,-20.008l-20.007,0l0,-20.007l20.007,0l0,-20.007l-20.007,0l0,-20.008l20.007,0l0,-20.007l-20.007,0l0,-320.118l10.003,0l0,-320.117l70.026,0l0,260.095l-11.004,0l0,240.089l11.004,0l0,10.004l-10.004,0l0,30.01l10.004,0l0,40.015l-60.022,0l0,40.015l40.015,0l0,140.051l20.007,0l0,0Zm-60.022,-740.271l0,20.007l40.015,0l0,-20.007l-40.015,0Zm0,40.015l0,20.007l40.015,0l0,-20.007l-40.015,0Zm0,40.015l0,20.007l40.015,0l0,-20.007l-40.015,0Zm0,40.014l0,20.008l40.015,0l0,-20.008l-40.015,0Zm0,40.015l0,20.007l40.015,0l0,-20.007l-40.015,0Zm0,40.015l0,20.007l40.015,0l0,-20.007l-40.015,0Zm0,40.014l0,80.03l40.015,0l0,-80.03l-40.015,0Zm0,100.037l0,80.03l40.015,0l0,-80.03l-40.015,0Zm0,100.037l0,80.029l10.004,0l0,10.003l30.011,0l0,-90.032l-40.015,0Zm10.004,180.066l0,140.051l10.004,0l0,-140.051l-10.004,0Zm-10.004,-80.029l0,10.003l20.008,0l0,-10.003l-20.008,0Z" style="fill:#959595;"/><path d="M1041.17,1098.76l-219.262,0l0,-19.259l85.985,0l0,-19.26l-85.985,0l0,-19.259l85.985,0l0,-19.26l-85.985,0l0,-19.259l85.985,0l0,-19.26l-85.985,0l0,-19.259l85.985,0l0,-19.26l-85.985,0l0,-308.15l42.993,0l0,-308.15l300.948,0l0,250.372l-47.292,0l0,9.63l219.262,0l0,19.259l-85.985,0l0,19.26l85.985,0l0,19.259l-85.985,0l0,19.26l85.985,0l0,19.259l-85.985,0l0,19.259l85.985,0l0,19.259l-85.985,0l0,19.26l85.985,0l0,308.15l-42.992,0l0,308.151l-300.949,0l0,-250.372l47.292,0l0,-9.63Zm210.664,202.224l0,-19.26l-171.971,0l0,19.26l171.971,0Zm-171.971,19.259l0,19.259l171.971,0l0,-19.259l-171.971,0Zm0,-385.188l0,77.037l171.971,0l0,-77.037l-171.971,0Zm0,-48.148l0,28.889l171.971,0l0,-77.038l-42.992,0l0,-9.63l-85.986,0l0,19.26l42.993,0l0,38.519l-85.986,0Zm85.986,-77.038l0,9.63l85.985,0l0,-9.63l-85.985,0Zm-47.292,-48.149l0,38.519l133.277,0l0,-38.519l-133.277,0Zm-38.694,481.486l0,19.259l171.971,0l0,-19.259l-171.971,0Zm0,-38.519l0,19.259l171.971,0l0,-19.259l-171.971,0Zm0,-38.519l0,19.259l171.971,0l0,-19.259l-171.971,0Zm0,-38.519l0,19.26l171.971,0l0,-19.26l-171.971,0Zm0,-28.889l0,9.63l171.971,0l0,-77.038l-171.971,0l0,28.889l85.986,0l0,38.519l-85.986,0Zm85.986,-491.115l0,134.816l42.993,0l0,-134.816l-42.993,0Zm-257.956,-260.002l0,19.26l171.97,0l0,-19.26l-171.97,0Zm0,38.519l0,19.26l171.97,0l0,-19.26l-171.97,0Zm0,38.519l0,19.259l171.97,0l0,-19.259l-171.97,0Zm0,38.518l0,19.26l171.97,0l0,-19.26l-171.97,0Zm0,77.038l0,19.26l171.97,0l0,-19.26l-171.97,0Zm0,-38.519l0,19.26l171.97,0l0,-19.26l-171.97,0Zm0,77.038l0,77.038l171.97,0l0,-28.889l-85.985,0l0,-38.519l85.985,0l0,-9.63l-171.97,0Zm0,192.594l0,77.038l42.993,0l0,9.629l85.985,0l0,-19.259l-42.993,0l0,-38.519l85.985,0l0,-28.889l-171.97,0Zm0,-19.259l171.97,0l0,-77.038l-171.97,0l0,77.038Zm0,173.335l133.277,0l0,-38.519l-133.277,0l0,38.519Zm42.993,19.258l0,134.817l42.992,0l0,-134.817l-42.992,0Zm-42.993,-77.037l0,9.63l85.985,0l0,-9.63l-85.985,0Z" style="fill:#8d8d8d;"/></g></g></g><path d="M1092.62,534.351l-15.267,0l0,-229.007l15.267,0l0,229.007Zm30.534,-534.351l0,534.351l-15.267,0l0,-534.351l15.267,0Zm30.535,152.672l0,381.679l-15.267,0l0,-381.679l15.267,0Z" style="fill:#959595;"/><path d="M1260.55,167.939l0,-152.672l45.802,0l0,213.741l-15.268,15.267l0,183.206l15.268,15.267l0,30.534l-15.268,0l0,30.535l122.138,0l0,167.939l15.267,15.267l76.336,0l30.534,30.534l0,213.741l-152.672,152.671l0,610.687l-305.343,305.344l-122.137,0l-30.535,-30.534l0,-427.481l-122.137,-122.138l0,-488.549l61.068,-61.069l0,-396.947l91.604,-91.603l91.603,0l15.267,15.268l61.068,0l45.802,-45.802l0,-91.603l91.085,-91.085" style="fill:#9a9a9a;"/><g><clipPath id="_clip3"><path d="M1260.55,167.939l0,-152.672l45.802,0l0,213.741l-15.268,15.267l0,183.206l15.268,15.267l0,30.534l-15.268,0l0,30.535l122.138,0l0,167.939l15.267,15.267l76.336,0l30.534,30.534l0,213.741l-152.672,152.671l0,610.687l-305.343,305.344l-122.137,0l-30.535,-30.534l0,-427.481l-122.137,-122.138l0,-488.549l61.068,-61.069l0,-396.947l91.604,-91.603l91.603,0l15.267,15.268l61.068,0l45.802,-45.802l0,-91.603l91.085,-91.085"/></clipPath><g clip-path="url(#_clip3)"><path d="M1381.16,809.16l77.862,0l0,30.535l-30.534,0l0,30.534l30.534,0l0,30.534l-30.534,0l0,30.535l30.534,0l0,30.534l-30.534,0l0,30.534l30.534,0l0,30.535l-30.534,0l0,30.534l30.534,0l0,488.55l-15.267,0l0,488.549l-106.87,0l0,-396.946l16.794,0l0,-15.267l-77.863,0l0,-30.535l30.535,0l0,-30.534l-30.535,0l0,-30.534l30.535,0l0,-30.535l-30.535,0l0,-30.534l30.535,0l0,-30.534l-30.535,0l0,-30.535l30.535,0l0,-30.534l-30.535,0l0,-488.55l15.267,0l0,-488.549l106.871,0l0,396.946l-16.794,0l0,15.267Zm-74.809,-320.61l0,30.534l61.068,0l0,-30.534l-61.068,0Zm61.068,-30.535l0,-30.534l-61.068,0l0,30.534l61.068,0Zm0,610.687l0,-122.137l-61.068,0l0,122.137l61.068,0Zm0,76.336l0,-45.801l-61.068,0l0,122.137l15.267,0l0,15.267l30.534,0l0,-30.534l-15.267,0l0,-61.069l30.534,0Zm-30.534,122.138l0,-15.268l-30.534,0l0,15.268l30.534,0Zm16.794,76.335l0,-61.068l-47.328,0l0,61.068l47.328,0Zm13.74,-763.358l0,-30.535l-61.068,0l0,30.535l61.068,0Zm0,61.068l0,-30.534l-61.068,0l0,30.534l61.068,0Zm0,61.069l0,-30.534l-61.068,0l0,30.534l61.068,0Zm0,61.069l0,-30.535l-61.068,0l0,30.535l61.068,0Zm0,45.801l0,-15.267l-61.068,0l0,122.138l61.068,0l0,-45.802l-30.534,0l0,-61.069l30.534,0Zm-30.534,778.626l0,-213.74l-15.267,0l0,213.74l15.267,0Zm91.603,412.214l0,-30.534l-61.069,0l0,30.534l61.069,0Zm0,-61.069l0,-30.534l-61.069,0l0,30.534l61.069,0Zm0,-61.068l0,-30.535l-61.069,0l0,30.535l61.069,0Zm0,-61.069l0,-30.534l-61.069,0l0,30.534l61.069,0Zm0,-122.138l0,-30.534l-61.069,0l0,30.534l61.069,0Zm0,61.069l0,-30.534l-61.069,0l0,30.534l61.069,0Zm0,-122.137l0,-122.138l-61.069,0l0,45.802l30.535,0l0,61.069l-30.535,0l0,15.267l61.069,0Zm0,-305.344l0,-122.137l-15.267,0l0,-15.267l-30.535,0l0,30.534l15.268,0l0,61.069l-30.535,0l0,45.801l61.069,0Zm0,30.535l-61.069,0l0,122.137l61.069,0l0,-122.137Zm0,-274.81l-47.328,0l0,61.069l47.328,0l0,-61.069Zm-15.267,-30.534l0,-213.74l-15.267,0l0,213.74l15.267,0Zm15.267,122.138l0,-15.268l-30.534,0l0,15.268l30.534,0Z" style="fill:#8d8d8d;"/><path d="M1397.96,1145.04l-122.138,0l-61.068,61.069l0,152.672l30.534,30.534l0,396.947l-61.069,61.068l0,122.138l253.435,-262.596l-39.694,-561.832l0,0Z" style="fill:#989898;"/><g><clipPath id="_clip4"><path d="M1397.96,1145.04l-122.138,0l-61.068,61.069l0,152.672l30.534,30.534l0,396.947l-61.069,61.068l0,122.138l253.435,-262.596l-39.694,-561.832l0,0Z"/></clipPath><g clip-path="url(#_clip4)"><path d="M1321.62,1770.99l0,-45.801l15.267,-15.267l0,-320.611l-122.137,-122.137" style="fill:none;stroke:#8d8d8d;stroke-width:3.82px;"/><path d="M1382.69,1175.57l-30.534,30.534l-76.336,0l-15.267,15.267l0,76.336l91.603,91.603l0,213.74l45.802,45.802" style="fill:none;stroke:#8d8d8d;stroke-width:3.82px;"/></g></g><path d="M1397.96,1145.04l-122.138,0l-61.068,61.069l0,152.672l30.534,30.534l0,396.947l-61.069,61.068l0,122.138l253.435,-262.596l-39.694,-561.832l0,0Z" style="fill:none;stroke:#8d8d8d;stroke-width:3.82px;"/><path d="M1260.55,1508.99l0,-60.399c0,-3.825 3.148,-6.974 6.974,-6.974c1.224,0 2.427,0.323 3.487,0.935l52.307,30.199c2.155,1.244 3.487,3.551 3.487,6.039c0,2.489 -1.332,4.796 -3.487,6.04l-52.307,30.199c-1.06,0.612 -2.263,0.935 -3.487,0.935c-3.826,0 -6.974,-3.149 -6.974,-6.974Zm62.768,68.373c2.155,1.245 3.487,3.552 3.487,6.04c0,2.489 -1.332,4.796 -3.487,6.04l-52.307,30.199c-1.06,0.612 -2.263,0.934 -3.487,0.934c-3.826,0 -6.974,-3.148 -6.974,-6.974l0,-60.398c0,-3.826 3.148,-6.974 6.974,-6.974c1.224,0 2.427,0.322 3.487,0.934l52.307,30.199Zm0,104.613c2.155,1.244 3.487,3.551 3.487,6.04c0,2.488 -1.332,4.795 -3.487,6.039l-52.307,30.199c-1.06,0.613 -2.263,0.935 -3.487,0.935c-3.826,0 -6.974,-3.148 -6.974,-6.974l0,-60.398c0,-3.826 3.148,-6.975 6.974,-6.975c1.224,0 2.427,0.323 3.487,0.935l52.307,30.199Zm3.487,-285.691l0,60.398c0,3.826 -3.149,6.974 -6.974,6.974c-1.225,0 -2.427,-0.322 -3.488,-0.934l-52.306,-30.199c-2.155,-1.244 -3.487,-3.551 -3.487,-6.04c0,-2.488 1.332,-4.795 3.487,-6.04l52.306,-30.199c1.061,-0.612 2.263,-0.934 3.488,-0.934c3.825,0 6.974,3.148 6.974,6.974l0,0Zm0,104.613l0,60.398c0,3.826 -3.149,6.974 -6.974,6.974c-1.225,0 -2.427,-0.322 -3.488,-0.934l-52.306,-30.199c-2.155,-1.245 -3.487,-3.552 -3.487,-6.04c0,-2.489 1.332,-4.796 3.487,-6.04l52.306,-30.199c1.061,-0.612 2.263,-0.934 3.488,-0.934c3.825,0 6.974,3.148 6.974,6.974l0,0Zm0,104.612l0,60.398c0,3.826 -3.149,6.975 -6.974,6.975c-1.225,0 -2.427,-0.323 -3.488,-0.935l-52.306,-30.199c-2.155,-1.244 -3.487,-3.551 -3.487,-6.04c0,-2.488 1.332,-4.795 3.487,-6.039l52.306,-30.2c1.061,-0.612 2.263,-0.934 3.488,-0.934c3.825,0 6.974,3.148 6.974,6.974l0,0Z" style="fill:#737373;"/><path d="M1046.82,735.878l0,-61.069l122.137,0l0,30.535l-30.534,0l0,30.534l30.534,0l0,30.534l-30.534,0l0,30.535l30.534,0l0,30.534l-30.534,0l0,30.534l30.534,0l0,30.535l-30.534,0l0,30.534l30.534,0l0,488.55l-15.267,0l0,488.549l-106.87,0l0,-396.946l16.793,0l0,-366.413l-16.793,0l0,-15.267l15.267,0l0,-45.801l-15.267,0l0,-61.069l91.603,0l0,-61.069l-61.069,0l0,-213.74l-30.534,0l0,0Zm91.603,1129.77l0,-30.534l-61.069,0l0,30.534l61.069,0Zm0,-61.069l0,-30.534l-61.069,0l0,30.534l61.069,0Zm0,-61.069l0,-30.534l-61.069,0l0,30.534l61.069,0Zm0,-61.068l0,-30.535l-61.069,0l0,30.535l61.069,0Zm0,-61.069l0,-30.534l-61.069,0l0,30.534l61.069,0Zm0,-61.069l0,-30.534l-61.069,0l0,30.534l61.069,0Zm0,-61.068l0,-122.138l-61.069,0l0,122.138l61.069,0Zm0,-152.672l0,-122.138l-61.069,0l0,122.138l61.069,0Zm0,-152.672l0,-122.137l-15.268,0l0,-15.267l-45.801,0l0,137.404l61.069,0Zm-15.268,-274.809l0,-213.74l-15.267,0l0,213.74l15.267,0Zm15.268,122.137l0,-15.267l-30.535,0l0,15.267l30.535,0Z" style="fill:#959595;"/><path d="M655.485,376.957l334.629,0l0,29.392l-131.227,0l0,29.393l131.227,0l0,29.393l-131.227,0l0,29.393l131.227,0l0,29.393l-131.227,0l0,29.393l131.227,0l0,29.393l-131.227,0l0,29.393l131.227,0l0,470.286l-65.614,0l0,470.286l-459.294,0l0,-382.108l72.175,0l0,-14.696l-334.629,0l0,-29.393l131.227,0l0,-29.393l-131.227,0l0,-29.393l131.227,0l0,-29.393l-131.227,0l0,-29.393l131.227,0l0,-29.392l-131.227,0l0,-29.393l131.227,0l0,-29.393l-131.227,0l0,-470.286l65.613,0l0,-470.286l459.295,0l0,382.107l-72.175,0l0,14.697Zm-321.506,-308.626l0,29.393l262.454,0l0,-29.393l-262.454,0Zm262.454,-29.393l0,-29.392l-262.454,0l0,29.392l262.454,0Zm0,587.858l0,-117.571l-262.454,0l0,117.571l262.454,0Zm0,73.482l0,-44.089l-262.454,0l0,117.571l65.613,0l0,14.697l131.227,0l0,-29.393l-65.613,0l0,-58.786l131.227,0Zm-131.227,117.572l0,-14.697l-131.227,0l0,14.697l131.227,0Zm72.175,73.482l0,-58.786l-203.402,0l0,58.786l203.402,0Zm59.052,-734.822l0,-29.393l-262.454,0l0,29.393l262.454,0Zm0,58.786l0,-29.393l-262.454,0l0,29.393l262.454,0Zm0,58.785l0,-29.392l-262.454,0l0,29.392l262.454,0Zm0,58.786l0,-29.393l-262.454,0l0,29.393l262.454,0Zm0,44.09l0,-14.697l-262.454,0l0,117.572l262.454,0l0,-44.09l-131.227,0l0,-58.785l131.227,0Zm-131.227,749.518l0,-205.75l-65.614,0l0,205.75l65.614,0Zm393.681,396.804l0,-29.393l-262.454,0l0,29.393l262.454,0Zm0,-58.786l0,-29.393l-262.454,0l0,29.393l262.454,0Zm0,-58.786l0,-29.393l-262.454,0l0,29.393l262.454,0Zm0,-58.785l0,-29.393l-262.454,0l0,29.393l262.454,0Zm0,-117.572l0,-29.393l-262.454,0l0,29.393l262.454,0Zm0,58.786l0,-29.393l-262.454,0l0,29.393l262.454,0Zm0,-117.572l0,-117.571l-262.454,0l0,44.089l131.227,0l0,58.786l-131.227,0l0,14.696l262.454,0Zm0,-293.928l0,-117.572l-65.614,0l0,-14.696l-131.227,0l0,29.392l65.614,0l0,58.786l-131.227,0l0,44.09l262.454,0Zm0,29.392l-262.454,0l0,117.572l262.454,0l0,-117.572Zm0,-264.536l-203.402,0l0,58.786l203.402,0l0,-58.786Zm-65.614,-29.392l0,-205.751l-65.613,0l0,205.751l65.613,0Zm65.614,117.571l0,-14.696l-131.227,0l0,14.696l131.227,0Z" style="fill:#8d8d8d;"/></g></g></svg>