<?xml version="1.0" encoding="UTF-8" standalone="no"?><!DOCTYPE svg PUBLIC "-//W3C//DTD SVG 1.1//EN" "http://www.w3.org/Graphics/SVG/1.1/DTD/svg11.dtd"><svg width="100%" height="100%" viewBox="0 0 2000 2000" version="1.1" xmlns="http://www.w3.org/2000/svg" xmlns:xlink="http://www.w3.org/1999/xlink" xml:space="preserve" style="fill-rule:evenodd;clip-rule:evenodd;stroke-linecap:round;stroke-linejoin:round;stroke-miterlimit:1.5;"><g><path d="M724,1164l832,0l0,423l115,0l0,176l-507,0l0,-160l-440,0l0,-439m403,-899l172,0l0,299l-172,0l0,-299"/><g><path d="M100,1475l0,200l50,50l550,0l100,100l200,0l0,-200l-300,0l0,-150l-600,0Z" style="fill:#595959;"/><path d="M500,125l50,0l50,50l0,75l-25,25l0,225l25,25l0,50l-25,25l0,75l25,25l0,225l150,150l750,0l150,-150l0,600l100,0l50,50l50,0l50,50l100,0l0,50l-250,250l-750,0l-250,-250l-500,0l-225,-225l125,-125l0,-50l100,-100l0,-50l-200,200l-25,0l0,-75l-25,-25l0,-750l50,-50l100,0l100,-100l0,-150l100,-100l100,0l50,50Zm775.633,1512.5c0,0 0,60.748 0,87.549c0,3.302 1.063,6.469 2.954,8.804c1.892,2.335 4.458,3.647 7.133,3.647c5.077,0 10.166,0 10.166,0c0,0 0,-60.748 0,-87.549c0,-3.302 -1.063,-6.469 -2.954,-8.804c-1.892,-2.335 -4.458,-3.647 -7.133,-3.647c-5.077,0 -10.166,0 -10.166,0Zm248.101,0c0,0 0,60.748 0,87.549c0,3.302 -1.063,6.469 -2.954,8.804c-1.892,2.335 -4.458,3.647 -7.133,3.647c-5.076,0 -10.166,0 -10.166,0c0,0 0,-60.748 0,-87.549c0,-3.302 1.063,-6.469 2.954,-8.804c1.892,-2.335 4.458,-3.647 7.133,-3.647c5.077,0 10.166,0 10.166,0Zm-298.734,0c0,0 0,60.748 0,87.549c0,3.302 1.063,6.469 2.954,8.804c1.892,2.335 4.458,3.647 7.133,3.647c5.077,0 10.166,0 10.166,0c0,0 0,-60.748 0,-87.549c0,-3.302 -1.063,-6.469 -2.954,-8.804c-1.892,-2.335 -4.458,-3.647 -7.133,-3.647c-5.076,0 -10.166,0 -10.166,0Zm202.532,0c0,0 0,60.748 0,87.549c0,3.302 1.062,6.469 2.954,8.804c1.892,2.335 4.458,3.647 7.133,3.647c5.076,0 10.166,0 10.166,0c0,0 0,-60.748 0,-87.549c0,-3.302 -1.063,-6.469 -2.955,-8.804c-1.891,-2.335 -4.457,-3.647 -7.132,-3.647c-5.077,0 -10.166,0 -10.166,0Zm-101.266,0c0,0 0,60.748 0,87.549c0,3.302 1.063,6.469 2.954,8.804c1.892,2.335 4.458,3.647 7.133,3.647c5.076,0 10.166,0 10.166,0c0,0 0,-60.748 0,-87.549c0,-3.302 -1.063,-6.469 -2.954,-8.804c-1.892,-2.335 -4.458,-3.647 -7.133,-3.647c-5.077,0 -10.166,0 -10.166,0Zm253.164,0c0,0 0,60.748 0,87.549c0,3.302 1.063,6.469 2.955,8.804c1.892,2.335 4.457,3.647 7.133,3.647c5.076,0 10.166,0 10.166,0c0,0 0,-60.748 0,-87.549c0,-3.302 -1.063,-6.469 -2.955,-8.804c-1.892,-2.335 -4.457,-3.647 -7.133,-3.647c-5.076,0 -10.166,0 -10.166,0Zm-101.265,0c0,0 0,60.748 0,87.549c0,3.302 1.062,6.469 2.954,8.804c1.892,2.335 4.457,3.647 7.133,3.647c5.076,0 10.166,0 10.166,0c0,0 0,-60.748 0,-87.549c0,-3.302 -1.063,-6.469 -2.955,-8.804c-1.891,-2.335 -4.457,-3.647 -7.132,-3.647c-5.077,0 -10.166,0 -10.166,0Zm50.632,0c0,0 0,60.748 0,87.549c0,3.302 1.063,6.469 2.955,8.804c1.892,2.335 4.457,3.647 7.133,3.647c5.076,0 10.166,0 10.166,0c0,0 0,-60.748 0,-87.549c0,-3.302 -1.063,-6.469 -2.955,-8.804c-1.892,-2.335 -4.457,-3.647 -7.133,-3.647c-5.076,0 -10.166,0 -10.166,0Zm-55.696,0c0,0 0,60.748 0,87.549c0,3.302 -1.062,6.469 -2.954,8.804c-1.892,2.335 -4.458,3.647 -7.133,3.647c-5.076,0 -10.166,0 -10.166,0c0,0 0,-60.748 0,-87.549c0,-3.302 1.063,-6.469 2.955,-8.804c1.891,-2.335 4.457,-3.647 7.132,-3.647c5.077,0 10.166,0 10.166,0Zm-50.633,0c0,0 0,60.748 0,87.549c0,3.302 -1.062,6.469 -2.954,8.804c-1.892,2.335 -4.458,3.647 -7.133,3.647c-5.076,0 -10.166,0 -10.166,0c0,0 0,-60.748 0,-87.549c0,-3.302 1.063,-6.469 2.955,-8.804c1.891,-2.335 4.457,-3.647 7.132,-3.647c5.077,0 10.166,0 10.166,0Zm-50.633,0c0,0 0,60.748 0,87.549c0,3.302 -1.062,6.469 -2.954,8.804c-1.892,2.335 -4.457,3.647 -7.133,3.647c-5.076,0 -10.166,0 -10.166,0c0,0 0,-60.748 0,-87.549c0,-3.302 1.063,-6.469 2.955,-8.804c1.891,-2.335 4.457,-3.647 7.132,-3.647c5.077,0 10.166,0 10.166,0Zm253.165,0c0,0 0,60.748 0,87.549c0,3.302 -1.063,6.469 -2.954,8.804c-1.892,2.335 -4.458,3.647 -7.133,3.647c-5.077,0 -10.166,0 -10.166,0c0,0 0,-60.748 0,-87.549c0,-3.302 1.063,-6.469 2.954,-8.804c1.892,-2.335 4.458,-3.647 7.133,-3.647c5.076,0 10.166,0 10.166,0Zm-50.633,0c0,0 0,60.748 0,87.549c0,3.302 -1.063,6.469 -2.954,8.804c-1.892,2.335 -4.458,3.647 -7.133,3.647c-5.077,0 -10.166,0 -10.166,0c0,0 0,-60.748 0,-87.549c0,-3.302 1.063,-6.469 2.954,-8.804c1.892,-2.335 4.458,-3.647 7.133,-3.647c5.077,0 10.166,0 10.166,0Zm-197.468,0c0,0 0,60.748 0,87.549c0,3.302 1.062,6.469 2.954,8.804c1.892,2.335 4.458,3.647 7.133,3.647c5.076,0 10.166,0 10.166,0c0,0 0,-60.748 0,-87.549c0,-3.302 -1.063,-6.469 -2.955,-8.804c-1.891,-2.335 -4.457,-3.647 -7.132,-3.647c-5.077,0 -10.166,0 -10.166,0Zm-106.329,0c0,0 0,60.748 0,87.549c0,3.302 -1.063,6.469 -2.955,8.804c-1.892,2.335 -4.457,3.647 -7.133,3.647c-5.076,0 -10.166,0 -10.166,0c0,0 0,-60.748 0,-87.549c0,-3.302 1.063,-6.469 2.955,-8.804c1.892,-2.335 4.457,-3.647 7.133,-3.647c5.076,0 10.166,0 10.166,0Zm50.633,0c0,0 0,60.748 0,87.549c0,3.302 -1.063,6.469 -2.955,8.804c-1.892,2.335 -4.457,3.647 -7.133,3.647c-5.076,0 -10.166,0 -10.166,0c0,0 0,-60.748 0,-87.549c0,-3.302 1.063,-6.469 2.955,-8.804c1.892,-2.335 4.457,-3.647 7.133,-3.647c5.076,0 10.166,0 10.166,0Zm178.797,-62.5l-750,0l0,25l750,0l0,-25Zm0,-50l-750,0l0,25l750,0l0,-25Zm0,-50l-750,0l0,25l750,0l0,-25Zm0,-50l-750,0l0,25l750,0l0,-25Zm0,-50l-750,0l0,25l750,0l0,-25Zm0,-50l-750,0l0,25l750,0l0,-25Zm0,-50l-750,0l0,25l750,0l0,-25Zm0,-50l-750,0l0,25l750,0l0,-25Zm0,-50l-750,0l0,25l750,0l0,-25Zm75,-975l25,25l0,275l-25,25l0,325l-125,125l0,50l-700,0l-100,-100l0,-75l25,-25l0,-400l-25,-25l0,-225l100,-100l250,0l25,25l200,0l25,-25l175,0l25,25l0,50l50,50l75,0Zm-356.226,289.873l-43.774,0l0,5.083c0,1.338 0.656,2.621 1.823,3.567c1.168,0.946 2.752,1.477 4.403,1.477l43.774,0l0,-5.083c0,-1.338 -0.656,-2.62 -1.823,-3.566c-1.165,-0.944 -2.743,-1.475 -4.403,-1.478Zm6.226,-12.658l-43.774,0c-1.659,0.003 -3.238,0.534 -4.403,1.477c-1.167,0.946 -1.823,2.229 -1.823,3.567c0,2.538 0,5.083 0,5.083c0,0 30.374,0 43.774,0c1.651,0 3.235,-0.532 4.403,-1.477c1.167,-0.946 1.823,-2.229 1.823,-3.567l0,-5.083Zm-6.226,-12.658l-43.774,0l0,5.083c0,1.338 0.656,2.62 1.823,3.566c1.168,0.946 2.752,1.478 4.403,1.478l43.774,0l0,-5.083c0,-1.338 -0.656,-2.621 -1.823,-3.567c-1.165,-0.943 -2.743,-1.474 -4.403,-1.477Zm6.226,-12.658l-43.774,0c-1.659,0.002 -3.238,0.533 -4.403,1.477c-1.167,0.946 -1.823,2.229 -1.823,3.566c0,2.539 0,5.083 0,5.083c0,0 30.374,0 43.774,0c1.651,0 3.235,-0.531 4.403,-1.477c1.167,-0.946 1.823,-2.229 1.823,-3.566l0,-5.083Zm-6.226,-12.658l-43.774,0l0,5.082c0,1.338 0.656,2.621 1.823,3.567c1.168,0.946 2.752,1.477 4.403,1.477l43.774,0l0,-5.083c0,-1.338 -0.656,-2.62 -1.823,-3.566c-1.165,-0.944 -2.743,-1.475 -4.403,-1.477Zm6.226,-12.659l-43.774,0c-1.659,0.003 -3.238,0.534 -4.403,1.478c-1.167,0.945 -1.823,2.228 -1.823,3.566c0,2.538 0,5.083 0,5.083c0,0 30.374,0 43.774,0c1.651,0 3.235,-0.532 4.403,-1.477c1.167,-0.946 1.823,-2.229 1.823,-3.567l0,-5.083Zm0,-2.531l0,-5.083c0,-1.338 -0.656,-2.621 -1.823,-3.567c-1.168,-0.946 -2.752,-1.477 -4.403,-1.477c-13.4,0 -43.774,0 -43.774,0c0,0 0,2.545 0,5.083c0,1.338 0.656,2.621 1.823,3.566c1.168,0.946 2.752,1.478 4.403,1.478l43.774,0Zm0,-22.785l-43.774,0c-1.659,0.002 -3.238,0.534 -4.403,1.477c-1.167,0.946 -1.823,2.229 -1.823,3.566c0,2.539 0,5.083 0,5.083c0,0 30.374,0 43.774,0c1.651,0 3.235,-0.531 4.403,-1.477c1.167,-0.946 1.823,-2.229 1.823,-3.566l0,-5.083Zm0,-2.532l0,-5.083c0,-1.337 -0.656,-2.62 -1.823,-3.566c-1.168,-0.946 -2.752,-1.477 -4.403,-1.477c-13.4,0 -43.774,0 -43.774,0c0,0 0,2.544 0,5.083c0,1.337 0.656,2.62 1.823,3.566c1.168,0.946 2.752,1.477 4.403,1.477l43.774,0Zm0,-22.785l-43.774,0c-1.659,0.003 -3.238,0.534 -4.403,1.478c-1.167,0.945 -1.823,2.228 -1.823,3.566c0,2.538 0,5.083 0,5.083c0,0 30.374,0 43.774,0c1.651,0 3.235,-0.531 4.403,-1.477c1.167,-0.946 1.823,-2.229 1.823,-3.567l0,-5.083Zm-6.226,-12.658l-43.774,0l0,5.083c0,1.338 0.656,2.621 1.823,3.566c1.168,0.946 2.752,1.478 4.403,1.478l43.774,0l0,-5.083c0,-1.338 -0.656,-2.621 -1.823,-3.567c-1.165,-0.943 -2.743,-1.474 -4.403,-1.477Zm6.226,-12.658l-43.774,0c-1.659,0.003 -3.238,0.534 -4.403,1.477c-1.167,0.946 -1.823,2.229 -1.823,3.567c0,2.538 0,5.082 0,5.082c0,0 30.374,0 43.774,0c1.651,0 3.235,-0.531 4.403,-1.477c1.167,-0.946 1.823,-2.228 1.823,-3.566l0,-5.083Zm-6.226,-12.658l-43.774,0l0,5.083c0,1.337 0.656,2.62 1.823,3.566c1.168,0.946 2.752,1.477 4.403,1.477l43.774,0l0,-5.083c0,-1.337 -0.656,-2.62 -1.823,-3.566c-1.165,-0.944 -2.743,-1.475 -4.403,-1.477Zm6.226,-12.659l-43.774,0c-1.659,0.003 -3.238,0.534 -4.403,1.478c-1.167,0.946 -1.823,2.228 -1.823,3.566c0,2.538 0,5.083 0,5.083c0,0 30.374,0 43.774,0c1.651,0 3.235,-0.531 4.403,-1.477c1.167,-0.946 1.823,-2.229 1.823,-3.567l0,-5.083Zm-6.226,-12.658l-43.774,0l0,5.083c0,1.338 0.656,2.621 1.823,3.567c1.168,0.945 2.752,1.477 4.403,1.477l43.774,0l0,-5.083c0,-1.338 -0.656,-2.621 -1.823,-3.567c-1.165,-0.943 -2.743,-1.474 -4.403,-1.477Zm6.226,-12.658l-43.774,0c-1.659,0.003 -3.238,0.534 -4.403,1.477c-1.167,0.946 -1.823,2.229 -1.823,3.567c0,2.538 0,5.083 0,5.083c0,0 30.374,0 43.774,0c1.651,0 3.235,-0.532 4.403,-1.478c1.167,-0.946 1.823,-2.228 1.823,-3.566l0,-5.083Z" style="fill:#666;"/><g><clipPath id="_clip1"><path d="M500,125l50,0l50,50l0,75l-25,25l0,225l25,25l0,50l-25,25l0,75l25,25l0,225l150,150l750,0l150,-150l0,600l100,0l50,50l50,0l50,50l100,0l0,50l-250,250l-750,0l-250,-250l-500,0l-225,-225l125,-125l0,-50l100,-100l0,-50l-200,200l-25,0l0,-75l-25,-25l0,-750l50,-50l100,0l100,-100l0,-150l100,-100l100,0l50,50Zm775.633,1512.5c0,0 0,60.748 0,87.549c0,3.302 1.063,6.469 2.954,8.804c1.892,2.335 4.458,3.647 7.133,3.647c5.077,0 10.166,0 10.166,0c0,0 0,-60.748 0,-87.549c0,-3.302 -1.063,-6.469 -2.954,-8.804c-1.892,-2.335 -4.458,-3.647 -7.133,-3.647c-5.077,0 -10.166,0 -10.166,0Zm248.101,0c0,0 0,60.748 0,87.549c0,3.302 -1.063,6.469 -2.954,8.804c-1.892,2.335 -4.458,3.647 -7.133,3.647c-5.076,0 -10.166,0 -10.166,0c0,0 0,-60.748 0,-87.549c0,-3.302 1.063,-6.469 2.954,-8.804c1.892,-2.335 4.458,-3.647 7.133,-3.647c5.077,0 10.166,0 10.166,0Zm-298.734,0c0,0 0,60.748 0,87.549c0,3.302 1.063,6.469 2.954,8.804c1.892,2.335 4.458,3.647 7.133,3.647c5.077,0 10.166,0 10.166,0c0,0 0,-60.748 0,-87.549c0,-3.302 -1.063,-6.469 -2.954,-8.804c-1.892,-2.335 -4.458,-3.647 -7.133,-3.647c-5.076,0 -10.166,0 -10.166,0Zm202.532,0c0,0 0,60.748 0,87.549c0,3.302 1.062,6.469 2.954,8.804c1.892,2.335 4.458,3.647 7.133,3.647c5.076,0 10.166,0 10.166,0c0,0 0,-60.748 0,-87.549c0,-3.302 -1.063,-6.469 -2.955,-8.804c-1.891,-2.335 -4.457,-3.647 -7.132,-3.647c-5.077,0 -10.166,0 -10.166,0Zm-101.266,0c0,0 0,60.748 0,87.549c0,3.302 1.063,6.469 2.954,8.804c1.892,2.335 4.458,3.647 7.133,3.647c5.076,0 10.166,0 10.166,0c0,0 0,-60.748 0,-87.549c0,-3.302 -1.063,-6.469 -2.954,-8.804c-1.892,-2.335 -4.458,-3.647 -7.133,-3.647c-5.077,0 -10.166,0 -10.166,0Zm253.164,0c0,0 0,60.748 0,87.549c0,3.302 1.063,6.469 2.955,8.804c1.892,2.335 4.457,3.647 7.133,3.647c5.076,0 10.166,0 10.166,0c0,0 0,-60.748 0,-87.549c0,-3.302 -1.063,-6.469 -2.955,-8.804c-1.892,-2.335 -4.457,-3.647 -7.133,-3.647c-5.076,0 -10.166,0 -10.166,0Zm-101.265,0c0,0 0,60.748 0,87.549c0,3.302 1.062,6.469 2.954,8.804c1.892,2.335 4.457,3.647 7.133,3.647c5.076,0 10.166,0 10.166,0c0,0 0,-60.748 0,-87.549c0,-3.302 -1.063,-6.469 -2.955,-8.804c-1.891,-2.335 -4.457,-3.647 -7.132,-3.647c-5.077,0 -10.166,0 -10.166,0Zm50.632,0c0,0 0,60.748 0,87.549c0,3.302 1.063,6.469 2.955,8.804c1.892,2.335 4.457,3.647 7.133,3.647c5.076,0 10.166,0 10.166,0c0,0 0,-60.748 0,-87.549c0,-3.302 -1.063,-6.469 -2.955,-8.804c-1.892,-2.335 -4.457,-3.647 -7.133,-3.647c-5.076,0 -10.166,0 -10.166,0Zm-55.696,0c0,0 0,60.748 0,87.549c0,3.302 -1.062,6.469 -2.954,8.804c-1.892,2.335 -4.458,3.647 -7.133,3.647c-5.076,0 -10.166,0 -10.166,0c0,0 0,-60.748 0,-87.549c0,-3.302 1.063,-6.469 2.955,-8.804c1.891,-2.335 4.457,-3.647 7.132,-3.647c5.077,0 10.166,0 10.166,0Zm-50.633,0c0,0 0,60.748 0,87.549c0,3.302 -1.062,6.469 -2.954,8.804c-1.892,2.335 -4.458,3.647 -7.133,3.647c-5.076,0 -10.166,0 -10.166,0c0,0 0,-60.748 0,-87.549c0,-3.302 1.063,-6.469 2.955,-8.804c1.891,-2.335 4.457,-3.647 7.132,-3.647c5.077,0 10.166,0 10.166,0Zm-50.633,0c0,0 0,60.748 0,87.549c0,3.302 -1.062,6.469 -2.954,8.804c-1.892,2.335 -4.457,3.647 -7.133,3.647c-5.076,0 -10.166,0 -10.166,0c0,0 0,-60.748 0,-87.549c0,-3.302 1.063,-6.469 2.955,-8.804c1.891,-2.335 4.457,-3.647 7.132,-3.647c5.077,0 10.166,0 10.166,0Zm253.165,0c0,0 0,60.748 0,87.549c0,3.302 -1.063,6.469 -2.954,8.804c-1.892,2.335 -4.458,3.647 -7.133,3.647c-5.077,0 -10.166,0 -10.166,0c0,0 0,-60.748 0,-87.549c0,-3.302 1.063,-6.469 2.954,-8.804c1.892,-2.335 4.458,-3.647 7.133,-3.647c5.076,0 10.166,0 10.166,0Zm-50.633,0c0,0 0,60.748 0,87.549c0,3.302 -1.063,6.469 -2.954,8.804c-1.892,2.335 -4.458,3.647 -7.133,3.647c-5.077,0 -10.166,0 -10.166,0c0,0 0,-60.748 0,-87.549c0,-3.302 1.063,-6.469 2.954,-8.804c1.892,-2.335 4.458,-3.647 7.133,-3.647c5.077,0 10.166,0 10.166,0Zm-197.468,0c0,0 0,60.748 0,87.549c0,3.302 1.062,6.469 2.954,8.804c1.892,2.335 4.458,3.647 7.133,3.647c5.076,0 10.166,0 10.166,0c0,0 0,-60.748 0,-87.549c0,-3.302 -1.063,-6.469 -2.955,-8.804c-1.891,-2.335 -4.457,-3.647 -7.132,-3.647c-5.077,0 -10.166,0 -10.166,0Zm-106.329,0c0,0 0,60.748 0,87.549c0,3.302 -1.063,6.469 -2.955,8.804c-1.892,2.335 -4.457,3.647 -7.133,3.647c-5.076,0 -10.166,0 -10.166,0c0,0 0,-60.748 0,-87.549c0,-3.302 1.063,-6.469 2.955,-8.804c1.892,-2.335 4.457,-3.647 7.133,-3.647c5.076,0 10.166,0 10.166,0Zm50.633,0c0,0 0,60.748 0,87.549c0,3.302 -1.063,6.469 -2.955,8.804c-1.892,2.335 -4.457,3.647 -7.133,3.647c-5.076,0 -10.166,0 -10.166,0c0,0 0,-60.748 0,-87.549c0,-3.302 1.063,-6.469 2.955,-8.804c1.892,-2.335 4.457,-3.647 7.133,-3.647c5.076,0 10.166,0 10.166,0Zm178.797,-62.5l-750,0l0,25l750,0l0,-25Zm0,-50l-750,0l0,25l750,0l0,-25Zm0,-50l-750,0l0,25l750,0l0,-25Zm0,-50l-750,0l0,25l750,0l0,-25Zm0,-50l-750,0l0,25l750,0l0,-25Zm0,-50l-750,0l0,25l750,0l0,-25Zm0,-50l-750,0l0,25l750,0l0,-25Zm0,-50l-750,0l0,25l750,0l0,-25Zm0,-50l-750,0l0,25l750,0l0,-25Zm75,-975l25,25l0,275l-25,25l0,325l-125,125l0,50l-700,0l-100,-100l0,-75l25,-25l0,-400l-25,-25l0,-225l100,-100l250,0l25,25l200,0l25,-25l175,0l25,25l0,50l50,50l75,0Zm-356.226,289.873l-43.774,0l0,5.083c0,1.338 0.656,2.621 1.823,3.567c1.168,0.946 2.752,1.477 4.403,1.477l43.774,0l0,-5.083c0,-1.338 -0.656,-2.62 -1.823,-3.566c-1.165,-0.944 -2.743,-1.475 -4.403,-1.478Zm6.226,-12.658l-43.774,0c-1.659,0.003 -3.238,0.534 -4.403,1.477c-1.167,0.946 -1.823,2.229 -1.823,3.567c0,2.538 0,5.083 0,5.083c0,0 30.374,0 43.774,0c1.651,0 3.235,-0.532 4.403,-1.477c1.167,-0.946 1.823,-2.229 1.823,-3.567l0,-5.083Zm-6.226,-12.658l-43.774,0l0,5.083c0,1.338 0.656,2.62 1.823,3.566c1.168,0.946 2.752,1.478 4.403,1.478l43.774,0l0,-5.083c0,-1.338 -0.656,-2.621 -1.823,-3.567c-1.165,-0.943 -2.743,-1.474 -4.403,-1.477Zm6.226,-12.658l-43.774,0c-1.659,0.002 -3.238,0.533 -4.403,1.477c-1.167,0.946 -1.823,2.229 -1.823,3.566c0,2.539 0,5.083 0,5.083c0,0 30.374,0 43.774,0c1.651,0 3.235,-0.531 4.403,-1.477c1.167,-0.946 1.823,-2.229 1.823,-3.566l0,-5.083Zm-6.226,-12.658l-43.774,0l0,5.082c0,1.338 0.656,2.621 1.823,3.567c1.168,0.946 2.752,1.477 4.403,1.477l43.774,0l0,-5.083c0,-1.338 -0.656,-2.62 -1.823,-3.566c-1.165,-0.944 -2.743,-1.475 -4.403,-1.477Zm6.226,-12.659l-43.774,0c-1.659,0.003 -3.238,0.534 -4.403,1.478c-1.167,0.945 -1.823,2.228 -1.823,3.566c0,2.538 0,5.083 0,5.083c0,0 30.374,0 43.774,0c1.651,0 3.235,-0.532 4.403,-1.477c1.167,-0.946 1.823,-2.229 1.823,-3.567l0,-5.083Zm0,-2.531l0,-5.083c0,-1.338 -0.656,-2.621 -1.823,-3.567c-1.168,-0.946 -2.752,-1.477 -4.403,-1.477c-13.4,0 -43.774,0 -43.774,0c0,0 0,2.545 0,5.083c0,1.338 0.656,2.621 1.823,3.566c1.168,0.946 2.752,1.478 4.403,1.478l43.774,0Zm0,-22.785l-43.774,0c-1.659,0.002 -3.238,0.534 -4.403,1.477c-1.167,0.946 -1.823,2.229 -1.823,3.566c0,2.539 0,5.083 0,5.083c0,0 30.374,0 43.774,0c1.651,0 3.235,-0.531 4.403,-1.477c1.167,-0.946 1.823,-2.229 1.823,-3.566l0,-5.083Zm0,-2.532l0,-5.083c0,-1.337 -0.656,-2.62 -1.823,-3.566c-1.168,-0.946 -2.752,-1.477 -4.403,-1.477c-13.4,0 -43.774,0 -43.774,0c0,0 0,2.544 0,5.083c0,1.337 0.656,2.62 1.823,3.566c1.168,0.946 2.752,1.477 4.403,1.477l43.774,0Zm0,-22.785l-43.774,0c-1.659,0.003 -3.238,0.534 -4.403,1.478c-1.167,0.945 -1.823,2.228 -1.823,3.566c0,2.538 0,5.083 0,5.083c0,0 30.374,0 43.774,0c1.651,0 3.235,-0.531 4.403,-1.477c1.167,-0.946 1.823,-2.229 1.823,-3.567l0,-5.083Zm-6.226,-12.658l-43.774,0l0,5.083c0,1.338 0.656,2.621 1.823,3.566c1.168,0.946 2.752,1.478 4.403,1.478l43.774,0l0,-5.083c0,-1.338 -0.656,-2.621 -1.823,-3.567c-1.165,-0.943 -2.743,-1.474 -4.403,-1.477Zm6.226,-12.658l-43.774,0c-1.659,0.003 -3.238,0.534 -4.403,1.477c-1.167,0.946 -1.823,2.229 -1.823,3.567c0,2.538 0,5.082 0,5.082c0,0 30.374,0 43.774,0c1.651,0 3.235,-0.531 4.403,-1.477c1.167,-0.946 1.823,-2.228 1.823,-3.566l0,-5.083Zm-6.226,-12.658l-43.774,0l0,5.083c0,1.337 0.656,2.62 1.823,3.566c1.168,0.946 2.752,1.477 4.403,1.477l43.774,0l0,-5.083c0,-1.337 -0.656,-2.62 -1.823,-3.566c-1.165,-0.944 -2.743,-1.475 -4.403,-1.477Zm6.226,-12.659l-43.774,0c-1.659,0.003 -3.238,0.534 -4.403,1.478c-1.167,0.946 -1.823,2.228 -1.823,3.566c0,2.538 0,5.083 0,5.083c0,0 30.374,0 43.774,0c1.651,0 3.235,-0.531 4.403,-1.477c1.167,-0.946 1.823,-2.229 1.823,-3.567l0,-5.083Zm-6.226,-12.658l-43.774,0l0,5.083c0,1.338 0.656,2.621 1.823,3.567c1.168,0.945 2.752,1.477 4.403,1.477l43.774,0l0,-5.083c0,-1.338 -0.656,-2.621 -1.823,-3.567c-1.165,-0.943 -2.743,-1.474 -4.403,-1.477Zm6.226,-12.658l-43.774,0c-1.659,0.003 -3.238,0.534 -4.403,1.477c-1.167,0.946 -1.823,2.229 -1.823,3.567c0,2.538 0,5.083 0,5.083c0,0 30.374,0 43.774,0c1.651,0 3.235,-0.532 4.403,-1.478c1.167,-0.946 1.823,-2.228 1.823,-3.566l0,-5.083Z"/></clipPath><g clip-path="url(#_clip1)"><g><path d="M725,500l50,50l325,0l25,25l0,400l25,25l225,0l25,25" style="fill:none;stroke:#616161;stroke-width:5px;"/><path d="M1325,1000l25,25" style="fill:none;stroke:#616161;stroke-width:5px;"/><path d="M1300,1000l25,25" style="fill:none;stroke:#616161;stroke-width:5px;"/><path d="M1225,1000l25,25" style="fill:none;stroke:#616161;stroke-width:5px;"/><path d="M1175,1000l0,25" style="fill:none;stroke:#616161;stroke-width:5px;"/><path d="M1187.5,1000l0,25" style="fill:none;stroke:#616161;stroke-width:5px;"/><path d="M1100,550l37.5,-37.5l0,-287.5l-25,-25l0,-150" style="fill:none;stroke:#616161;stroke-width:5px;"/><path d="M1125,525l12.5,12.5l162.5,0l25,25l225,0l25,25l25,0" style="fill:none;stroke:#616161;stroke-width:5px;"/></g><path d="M1550,575l0,350l-50,50l-350,0l0,-400l400,0Zm-850,0l400,0l0,400l-350,0l-50,-50l0,-350Zm400,-50l-400,0l0,-350l50,-50l350,0l0,400Zm450,-350l0,350l-400,0l0,-400l350,0l50,50Z" style="fill:#6b6b6b;"/><clipPath id="_clip2"><path d="M1550,575l0,350l-50,50l-350,0l0,-400l400,0Zm-850,0l400,0l0,400l-350,0l-50,-50l0,-350Zm400,-50l-400,0l0,-350l50,-50l350,0l0,400Zm450,-350l0,350l-400,0l0,-400l350,0l50,50Z"/></clipPath><g clip-path="url(#_clip2)"><path d="M1300,950l-125,0l0,-125l3.676,0l0,121.324l121.324,0l0,3.676Zm-225,0l-125,0l0,-3.676l121.324,0l0,-121.324l3.676,0l0,125Zm-172.059,-75l-5.882,0l0,-97.059l-97.059,0l0,-5.882l97.059,0l0,-97.059l5.882,0l0,97.059l97.059,0l0,5.882l-97.059,0l0,97.059Zm450,0l-5.882,0l0,-97.059l-97.059,0l0,-5.882l97.059,0l0,-97.059l5.882,0l0,97.059l97.059,0l0,5.882l-97.059,0l0,97.059Zm-624.265,-150l-3.676,0l0,-125l125,0l0,3.676l-121.324,0l0,121.324Zm796.324,0l-3.676,0l0,-121.324l-121.324,0l0,-3.676l125,0l0,125Zm0,-225l-125,0l0,-3.676l121.324,0l0,-121.324l3.676,0l0,125Zm-675,0l-125,0l0,-125l3.676,0l0,121.324l121.324,0l0,3.676Zm52.941,-177.941l97.059,0l0,5.882l-97.059,0l0,97.059l-5.882,0l0,-97.059l-97.059,0l0,-5.882l97.059,0l0,-97.059l5.882,0l0,97.059Zm450,0l97.059,0l0,5.882l-97.059,0l0,97.059l-5.882,0l0,-97.059l-97.059,0l0,-5.882l97.059,0l0,-97.059l5.882,0l0,97.059Zm-174.265,-47.059l-3.676,0l0,-125l125,0l0,3.676l-121.324,0l0,121.324Zm-103.676,0l-3.676,0l0,-121.324l-121.324,0l0,-3.676l125,0l0,125Z" style="fill:#4b4b4b;"/></g><path d="M700,1600l-175,0l0,-200l200,0l0,175l-25,25Zm-200,0l-175,0l-25,-25l0,-175l200,0l0,200Zm0,-225l-200,0l0,-100l100,-100l100,0l0,200Zm225,0l-200,0l0,-200l175,0l25,25l0,175Z" style="fill:#6b6b6b;"/><clipPath id="_clip3"><path d="M700,1600l-175,0l0,-200l200,0l0,175l-25,25Zm-200,0l-175,0l-25,-25l0,-175l200,0l0,200Zm0,-225l-200,0l0,-100l100,-100l100,0l0,200Zm225,0l-200,0l0,-200l175,0l25,25l0,175Z"/></clipPath><g clip-path="url(#_clip3)"><path d="M312.5,1475l0,-62.5l62.5,0l0,1.838l-60.662,0l0,60.662l-1.838,0Zm0,-112.5l0,-62.5l1.838,0l0,60.662l60.662,0l0,1.838l-62.5,0Zm37.5,-86.029l0,-2.942l48.529,0l0,-48.529l2.942,0l0,48.529l48.529,0l0,2.942l-48.529,0l0,48.529l-2.942,0l0,-48.529l-48.529,0Zm0,225l0,-2.942l48.529,0l0,-48.529l2.942,0l0,48.529l48.529,0l0,2.942l-48.529,0l0,48.529l-2.942,0l0,-48.529l-48.529,0Zm75,-312.133l0,-1.838l62.5,0l0,62.5l-1.838,0l0,-60.662l-60.662,0Zm0,398.162l0,-1.838l60.662,0l0,-60.662l1.838,0l0,62.5l-62.5,0Zm112.5,0l0,-62.5l1.838,0l0,60.662l60.662,0l0,1.838l-62.5,0Zm0,-337.5l0,-62.5l62.5,0l0,1.838l-60.662,0l0,60.662l-1.838,0Zm88.971,26.471l0,48.529l-2.942,0l0,-48.529l-48.529,0l0,-2.942l48.529,0l0,-48.529l2.942,0l0,48.529l48.529,0l0,2.942l-48.529,0Zm0,225l0,48.529l-2.942,0l0,-48.529l-48.529,0l0,-2.942l48.529,0l0,-48.529l2.942,0l0,48.529l48.529,0l0,2.942l-48.529,0Zm23.529,-87.133l0,-1.838l62.5,0l0,62.5l-1.838,0l0,-60.662l-60.662,0Zm0,-51.838l0,-1.838l60.662,0l0,-60.662l1.838,0l0,62.5l-62.5,0Z" style="fill:#4b4b4b;"/></g><g><path d="M187.5,1512.5l0,-37.5l12.5,-12.5l0,-25l-12.5,-12.5l0,-75l12.5,-12.5l37.5,0l0,175l-50,0Z" style="fill:#6b6b6b;"/><path d="M425,1125l12.5,12.5l37.5,0l0,-12.5l25,0l0,12.5l50,0l0,-12.5l25,0l0,12.5l37.5,0l12.5,-12.5l75,0l0,25l-12.5,12.5l-162.5,0l0,12.5l-25,0l0,-12.5l-112.5,0l-100,100l0,112.5l12.5,0l0,25l-12.5,0l0,162.5l-12.5,12.5l-25,0l-25,-25l-50,0l0,-50l25,0l25,-25l0,-25l-50,0l0,-25l50,0l0,-25l-50,0l0,-25l50,0l0,-25l-50,0l0,-50l175,-175l75,0Z" style="fill:#717171;"/><clipPath id="_clip4"><path d="M425,1125l12.5,12.5l37.5,0l0,-12.5l25,0l0,12.5l50,0l0,-12.5l25,0l0,12.5l37.5,0l12.5,-12.5l75,0l0,25l-12.5,12.5l-162.5,0l0,12.5l-25,0l0,-12.5l-112.5,0l-100,100l0,112.5l12.5,0l0,25l-12.5,0l0,162.5l-12.5,12.5l-25,0l-25,-25l-50,0l0,-50l25,0l25,-25l0,-25l-50,0l0,-25l50,0l0,-25l-50,0l0,-25l50,0l0,-25l-50,0l0,-50l175,-175l75,0Z"/></clipPath><g clip-path="url(#_clip4)"><path d="M262.5,1525c6.899,0 12.5,5.601 12.5,12.5c0,6.899 -5.601,12.5 -12.5,12.5c-6.899,0 -12.5,-5.601 -12.5,-12.5c0,-6.899 5.601,-12.5 12.5,-12.5Zm0,-50c6.899,0 12.5,5.601 12.5,12.5c0,6.899 -5.601,12.5 -12.5,12.5c-6.899,0 -12.5,-5.601 -12.5,-12.5c0,-6.899 5.601,-12.5 12.5,-12.5Zm0,-50c6.899,0 12.5,5.601 12.5,12.5c0,6.899 -5.601,12.5 -12.5,12.5c-6.899,0 -12.5,-5.601 -12.5,-12.5c0,-6.899 5.601,-12.5 12.5,-12.5Zm0,-50c6.899,0 12.5,5.601 12.5,12.5c0,6.899 -5.601,12.5 -12.5,12.5c-6.899,0 -12.5,-5.601 -12.5,-12.5c0,-6.899 5.601,-12.5 12.5,-12.5Zm0,-50c6.899,0 12.5,5.601 12.5,12.5c0,6.899 -5.601,12.5 -12.5,12.5c-6.899,0 -12.5,-5.601 -12.5,-12.5c0,-6.899 5.601,-12.5 12.5,-12.5Zm0,-50c6.899,0 12.5,5.601 12.5,12.5c0,6.899 -5.601,12.5 -12.5,12.5c-6.899,0 -12.5,-5.601 -12.5,-12.5c0,-6.899 5.601,-12.5 12.5,-12.5Z" style="fill:#595959;"/></g></g><g><path d="M550,-75l0,1000l50,50l0,75l25,25l75,0l50,50l100,0l0,50" style="fill:none;stroke:#616161;stroke-width:5px;"/><path d="M800,1075l25,25l50,0l0,75" style="fill:none;stroke:#616161;stroke-width:5px;"/><path d="M875,1125l50,0l25,25l75,0l0,25" style="fill:none;stroke:#616161;stroke-width:5px;"/></g><g><path d="M600,1675l50,-50l350,0l25,25l175,0l25,-25l275,0l25,-25l0,-500l100,-100l0,-75" style="fill:none;stroke:#616161;stroke-width:5px;"/><path d="M1525,1550l225,0l100,100l100,0l50,50" style="fill:none;stroke:#616161;stroke-width:5px;"/><path d="M1875,1650l0,25l75,75" style="fill:none;stroke:#616161;stroke-width:5px;"/><path d="M1600,1550l0,-125l-25,0l0,-375" style="fill:none;stroke:#616161;stroke-width:5px;"/><path d="M1600,1450l25,-25l0,-50l-50,-50" style="fill:none;stroke:#616161;stroke-width:5px;"/><path d="M1600,1350l0,-150l-25,-25" style="fill:none;stroke:#616161;stroke-width:5px;"/><path d="M1600,1200l0,-75l-25,-25" style="fill:none;stroke:#616161;stroke-width:5px;"/><path d="M1600,1275l-25,-25" style="fill:none;stroke:#616161;stroke-width:5px;"/><path d="M1100,1650l125,125l400,0l50,-50l0,-25l-25,0l0,-75l75,-75" style="fill:none;stroke:#616161;stroke-width:5px;"/><path d="M1675,1700l25,-25l0,-100" style="fill:none;stroke:#616161;stroke-width:5px;"/><path d="M1200,1750l150,0l25,25" style="fill:none;stroke:#616161;stroke-width:5px;"/><path d="M1450,1775l50,50l100,0l100,100" style="fill:none;stroke:#616161;stroke-width:5px;"/></g><g><path d="M750,625l125,0l0,125l-75,0l-50,-50l0,-75Z" style="fill:none;stroke:#616161;stroke-width:5px;"/><rect x="750" y="800" width="125" height="125" style="fill:none;stroke:#616161;stroke-width:5px;"/><path d="M925,925l0,-75l50,-50l75,0l0,75l-50,50l-75,0" style="fill:none;stroke:#616161;stroke-width:5px;"/><path d="M950,625l0,125l-25,0l0,-75" style="fill:none;stroke:#616161;stroke-width:5px;"/><path d="M975,625l0,125" style="fill:none;stroke:#616161;stroke-width:5px;"/><path d="M1000,750l0,-125" style="fill:none;stroke:#616161;stroke-width:5px;"/><path d="M1025,625l0,125l25,0" style="fill:none;stroke:#616161;stroke-width:5px;"/><path d="M1050,725l0,-50" style="fill:none;stroke:#616161;stroke-width:5px;"/><path d="M1050,650l0,-25" style="fill:none;stroke:#616161;stroke-width:5px;"/></g><path d="M1550,1975l-650,0l0,-120l30,-30l70,0l50,-50l100,0l50,50l200,0l150,150Zm-1550,-900l-25,0l0,-100l50,-50l0,-175l-50,50l0,-25l50,-50l0,-75l-50,50l0,-25l50,-50l0,-50l-50,50l0,-125l50,0l50,-50l0,-75l75,0l50,50l0,50l-50,0l-50,50l-50,0l0,50l50,0l0,25l-50,0l0,25l50,0l0,25l-50,0l0,25l50,0l0,25l-50,0l0,25l50,0l0,25l-50,0l0,50l25,0l0,25l-25,0l0,50l50,0l0,25l-50,0l0,125l-50,50Zm125,-200l25,0l0,-50l-50,0l0,-25l50,0l0,-50l-25,0l0,-25l25,0l0,-25l-25,0l0,-25l25,0l0,-25l-25,0l0,-25l25,0l0,-25l-25,0l0,-25l125,0l0,75l-25,0l0,-50l-50,0l0,25l25,0l0,25l-25,0l0,75l25,0l0,25l-25,0l0,125l25,0l0,25l-75,0l0,-25Zm125,0l0,25l-25,0l0,-25l25,0Zm-50,-75l50,0l0,50l-50,0l0,-50Zm25,-75l25,0l0,25l-25,0l0,-25Zm75,-350l-150,0l0,-200l350,-350l22.5,50l0,200l-122.5,122.5l0,77.5l-100,100Z" style="fill:#616161;"/><g><path d="M62.5,562.5l187.5,0l12.5,12.5l0,325l-12.5,12.5l-187.5,0l0,112.5l-75,75l0,25l75,-75l0,25l-75,75l0,25l37.5,0l50,-50" style="fill:none;stroke:#616161;stroke-width:5px;"/><path d="M62.5,537.5l62.5,0l12.5,12.5l112.5,0l25,25l0,325l-25,25l-150,0l-25,25l0,150" style="fill:none;stroke:#616161;stroke-width:5px;"/><path d="M112.5,887.5l0,-12.5l-12.5,-12.5l-37.5,0l0,-12.5l25,-25l0,-50l25,-25l0,-137.5l-50,0" style="fill:none;stroke:#616161;stroke-width:5px;"/><path d="M62.5,662.5l50,0" style="fill:none;stroke:#616161;stroke-width:5px;"/><path d="M112.5,712.5l-50,0" style="fill:none;stroke:#616161;stroke-width:5px;"/><path d="M87.5,787.5l50,0" style="fill:none;stroke:#616161;stroke-width:5px;"/><path d="M75,837.5l62.5,0" style="fill:none;stroke:#616161;stroke-width:5px;"/><path d="M187.5,862.5l0,-100l75,0" style="fill:none;stroke:#616161;stroke-width:5px;"/><path d="M212.5,787.5l50,0" style="fill:none;stroke:#616161;stroke-width:5px;"/><path d="M212.5,862.5l50,0" style="fill:none;stroke:#616161;stroke-width:5px;"/><path d="M212.5,737.5l0,-125" style="fill:none;stroke:#616161;stroke-width:5px;"/><path d="M212.5,712.5l50,0" style="fill:none;stroke:#616161;stroke-width:5px;"/></g></g></g><path d="M300,475l50,-50l150,0l0,450l-200,0l0,-400Z" style="fill:url(#_Linear5);"/></g></g><defs><linearGradient id="_Linear5" x1="0" y1="0" x2="1" y2="0" gradientUnits="userSpaceOnUse" gradientTransform="matrix(2.14313e-14,-350,350,2.14313e-14,400,875)"><stop offset="0" style="stop-color:#666;stop-opacity:1"/><stop offset="1" style="stop-color:#4b4b4b;stop-opacity:1"/></linearGradient></defs></svg>