<?xml version="1.0" encoding="UTF-8" standalone="no"?><!DOCTYPE svg PUBLIC "-//W3C//DTD SVG 1.1//EN" "http://www.w3.org/Graphics/SVG/1.1/DTD/svg11.dtd"><svg width="100%" height="100%" viewBox="0 0 2000 2000" version="1.1" xmlns="http://www.w3.org/2000/svg" xmlns:xlink="http://www.w3.org/1999/xlink" xml:space="preserve" style="fill-rule:evenodd;clip-rule:evenodd;stroke-linejoin:round;stroke-miterlimit:1.41421;"><rect x="1225" y="500" width="81.25" height="1087.5" style="fill:#4b4b4b;"/><g><path d="M1203.13,406.25l31.25,1093.75l-437.5,0l0,-937.5l-62.5,0l187.5,-62.5l0,-31.25l62.5,-62.5l218.75,0Z" style="fill:#666;"/><path d="M1359.38,1625l-250,0l-31.25,-31.25l-156.25,0l-31.25,-31.25l0,-125l31.25,0l156.25,-156.25l0,-781.25l125,-125c0,0 50.245,0 93.75,0l62.5,62.5c0,91.197 0,250 0,250l-31.25,31.25l0,406.25l31.25,31.25l0,250l31.25,31.25l0,156.25l-31.25,31.25Zm-101.563,-62.5l0.001,-15.625l-15.625,0l0,15.625l15.625,0Zm31.25,0l0,-15.625l-15.625,0l0,15.625l15.625,0Zm-31.25,-31.25l0,-15.625l-15.625,0l0,15.625l15.625,0Zm31.25,0l0,-15.625l-15.625,0l0,15.625l15.625,0Zm-31.25,-31.25l0,-15.625l-15.625,0l0,15.625l15.625,0Zm31.25,0l0,-15.625l-15.625,0l0,15.625l15.625,0Zm-31.25,-31.25l0,-15.625l-15.625,0l0,15.625l15.625,0Zm31.25,0l0,-15.625l-15.625,0l0,15.625l15.625,0Zm-31.25,-31.25l0,-15.625l-15.625,0l0,15.625l15.625,0Zm31.25,0l0,-15.625l-15.625,0l0,15.625l15.625,0Zm-31.25,-31.25l0,-15.625l-15.625,0l0,15.625l15.625,0Zm31.25,0l0,-15.625l-15.625,0l0,15.625l15.625,0Zm-31.25,-31.25l0,-15.625l-15.625,0l0,15.625l15.625,0Zm31.25,0l0,-15.625l-15.625,0l0,15.625l15.625,0Zm-31.25,-31.25l0,-15.625l-15.625,0l0,15.625l15.625,0Zm31.25,0l0,-15.625l-15.625,0l0,15.625l15.625,0Zm-31.25,-31.25l0,-15.625l-15.625,0l0,15.625l15.625,0Zm31.25,0l0,-15.625l-15.625,0l0,15.625l15.625,0Zm-31.25,-31.25l0,-15.625l-15.625,0l0,15.625l15.625,0Zm31.25,0l0,-15.625l-15.625,0l0,15.625l15.625,0Zm-31.25,-31.25l0,-15.625l-15.625,0l0,15.625l15.625,0Zm31.25,0l0,-15.625l-15.625,0l0,15.625l15.625,0Zm-31.25,-31.25l0,-15.625l-15.625,0l0,15.625l15.625,0Zm31.25,0l0,-15.625l-15.625,0l0,15.625l15.625,0Zm-31.25,-31.25l0,-15.625l-15.625,0l0,15.625l15.625,0Zm31.25,0l0,-15.625l-15.625,0l0,15.625l15.625,0Zm-31.25,-31.25l0,-15.625l-15.625,0l0,15.625l15.625,0Zm31.25,0l0,-15.625l-15.625,0l0,15.625l15.625,0Zm-31.25,-31.25l0,-15.625l-15.625,0l0,15.625l15.625,0Zm31.25,0l0,-15.625l-15.625,0l0,15.625l15.625,0Zm-31.25,-31.25l0,-15.625l-15.625,0l0,15.625l15.625,0Zm31.25,0l0,-15.625l-15.625,0l0,15.625l15.625,0Zm-31.25,-31.25l0,-15.625l-15.625,0l0,15.625l15.625,0Zm31.25,0l0,-15.625l-15.625,0l0,15.625l15.625,0Zm-31.25,-31.25l0,-15.625l-15.625,0l0,15.625l15.625,0Zm31.25,0l0,-15.625l-15.625,0l0,15.625l15.625,0Zm-31.25,-31.25l0,-15.625l-15.625,0l0,15.625l15.625,0Zm31.25,0l0,-15.625l-15.625,0l0,15.625l15.625,0Zm-31.25,-31.25l0,-15.625l-15.625,0l0,15.625l15.625,0Zm31.25,0l0,-15.625l-15.625,0l0,15.625l15.625,0Zm-31.25,-31.25l0,-15.625l-15.625,0l0,15.625l15.625,0Zm31.25,0l0,-15.625l-15.625,0l0,15.625l15.625,0Zm-31.25,-31.25l0,-15.625l-15.625,0l0,15.625l15.625,0Zm31.25,0l0,-15.625l-15.625,0l0,15.625l15.625,0Zm-31.25,-31.25l0,-15.625l-15.625,0l0,15.625l15.625,0Zm31.25,0l0,-15.625l-15.625,0l0,15.625l15.625,0Zm-31.25,-31.25l0,-15.625l-15.625,0l0,15.625l15.625,0Zm31.25,0l0,-15.625l-15.625,0l0,15.625l15.625,0Zm-31.25,-31.25l0,-15.625l-15.625,0l0,15.625l15.625,0Zm31.25,0l0,-15.625l-15.625,0l0,15.625l15.625,0Zm-31.25,-31.25l0,-15.625l-15.625,0l0,15.625l15.625,0Zm31.25,0l0,-15.625l-15.625,0l0,15.625l15.625,0Zm-31.25,-31.25l0,-15.625l-15.625,0l0,15.625l15.625,0Zm31.25,0l0,-15.625l-15.625,0l0,15.625l15.625,0Zm-31.25,-31.25l0,-15.625l-15.625,0l0,15.625l15.625,0Zm31.25,0l0,-15.625l-15.625,0l0,15.625l15.625,0Zm-31.25,-31.25l0,-15.625l-15.625,0l0,15.625l15.625,0Zm31.25,0l0,-15.625l-15.625,0l0,15.625l15.625,0Zm-31.25,-31.25l0,-15.625l-15.625,0l0,15.625l15.625,0Zm31.25,0l0,-15.625l-15.625,0l0,15.625l15.625,0Zm-31.25,-31.25l0,-15.625l-15.625,0l0,15.625l15.625,0Zm31.25,0l0,-15.625l-15.625,0l0,15.625l15.625,0Zm-31.25,-31.25l0,-15.625l-15.625,0l0,15.625l15.625,0Zm31.25,0l0,-15.625l-15.625,0l0,15.625l15.625,0Zm-31.25,-31.25l0,-15.625l-15.625,0l0,15.625l15.625,0Zm31.25,0l0,-15.625l-15.625,0l0,15.625l15.625,0Zm-31.25,-31.25l0,-15.625l-15.625,0l0,15.625l15.625,0Zm31.25,0l0,-15.625l-15.625,0l0,15.625l15.625,0Z" style="fill:#818181;"/><clipPath id="_clip1"><path d="M1359.38,1625l-250,0l-31.25,-31.25l-156.25,0l-31.25,-31.25l0,-125l31.25,0l156.25,-156.25l0,-781.25l125,-125c0,0 50.245,0 93.75,0l62.5,62.5c0,91.197 0,250 0,250l-31.25,31.25l0,406.25l31.25,31.25l0,250l31.25,31.25l0,156.25l-31.25,31.25Zm-101.563,-62.5l0.001,-15.625l-15.625,0l0,15.625l15.625,0Zm31.25,0l0,-15.625l-15.625,0l0,15.625l15.625,0Zm-31.25,-31.25l0,-15.625l-15.625,0l0,15.625l15.625,0Zm31.25,0l0,-15.625l-15.625,0l0,15.625l15.625,0Zm-31.25,-31.25l0,-15.625l-15.625,0l0,15.625l15.625,0Zm31.25,0l0,-15.625l-15.625,0l0,15.625l15.625,0Zm-31.25,-31.25l0,-15.625l-15.625,0l0,15.625l15.625,0Zm31.25,0l0,-15.625l-15.625,0l0,15.625l15.625,0Zm-31.25,-31.25l0,-15.625l-15.625,0l0,15.625l15.625,0Zm31.25,0l0,-15.625l-15.625,0l0,15.625l15.625,0Zm-31.25,-31.25l0,-15.625l-15.625,0l0,15.625l15.625,0Zm31.25,0l0,-15.625l-15.625,0l0,15.625l15.625,0Zm-31.25,-31.25l0,-15.625l-15.625,0l0,15.625l15.625,0Zm31.25,0l0,-15.625l-15.625,0l0,15.625l15.625,0Zm-31.25,-31.25l0,-15.625l-15.625,0l0,15.625l15.625,0Zm31.25,0l0,-15.625l-15.625,0l0,15.625l15.625,0Zm-31.25,-31.25l0,-15.625l-15.625,0l0,15.625l15.625,0Zm31.25,0l0,-15.625l-15.625,0l0,15.625l15.625,0Zm-31.25,-31.25l0,-15.625l-15.625,0l0,15.625l15.625,0Zm31.25,0l0,-15.625l-15.625,0l0,15.625l15.625,0Zm-31.25,-31.25l0,-15.625l-15.625,0l0,15.625l15.625,0Zm31.25,0l0,-15.625l-15.625,0l0,15.625l15.625,0Zm-31.25,-31.25l0,-15.625l-15.625,0l0,15.625l15.625,0Zm31.25,0l0,-15.625l-15.625,0l0,15.625l15.625,0Zm-31.25,-31.25l0,-15.625l-15.625,0l0,15.625l15.625,0Zm31.25,0l0,-15.625l-15.625,0l0,15.625l15.625,0Zm-31.25,-31.25l0,-15.625l-15.625,0l0,15.625l15.625,0Zm31.25,0l0,-15.625l-15.625,0l0,15.625l15.625,0Zm-31.25,-31.25l0,-15.625l-15.625,0l0,15.625l15.625,0Zm31.25,0l0,-15.625l-15.625,0l0,15.625l15.625,0Zm-31.25,-31.25l0,-15.625l-15.625,0l0,15.625l15.625,0Zm31.25,0l0,-15.625l-15.625,0l0,15.625l15.625,0Zm-31.25,-31.25l0,-15.625l-15.625,0l0,15.625l15.625,0Zm31.25,0l0,-15.625l-15.625,0l0,15.625l15.625,0Zm-31.25,-31.25l0,-15.625l-15.625,0l0,15.625l15.625,0Zm31.25,0l0,-15.625l-15.625,0l0,15.625l15.625,0Zm-31.25,-31.25l0,-15.625l-15.625,0l0,15.625l15.625,0Zm31.25,0l0,-15.625l-15.625,0l0,15.625l15.625,0Zm-31.25,-31.25l0,-15.625l-15.625,0l0,15.625l15.625,0Zm31.25,0l0,-15.625l-15.625,0l0,15.625l15.625,0Zm-31.25,-31.25l0,-15.625l-15.625,0l0,15.625l15.625,0Zm31.25,0l0,-15.625l-15.625,0l0,15.625l15.625,0Zm-31.25,-31.25l0,-15.625l-15.625,0l0,15.625l15.625,0Zm31.25,0l0,-15.625l-15.625,0l0,15.625l15.625,0Zm-31.25,-31.25l0,-15.625l-15.625,0l0,15.625l15.625,0Zm31.25,0l0,-15.625l-15.625,0l0,15.625l15.625,0Zm-31.25,-31.25l0,-15.625l-15.625,0l0,15.625l15.625,0Zm31.25,0l0,-15.625l-15.625,0l0,15.625l15.625,0Zm-31.25,-31.25l0,-15.625l-15.625,0l0,15.625l15.625,0Zm31.25,0l0,-15.625l-15.625,0l0,15.625l15.625,0Zm-31.25,-31.25l0,-15.625l-15.625,0l0,15.625l15.625,0Zm31.25,0l0,-15.625l-15.625,0l0,15.625l15.625,0Zm-31.25,-31.25l0,-15.625l-15.625,0l0,15.625l15.625,0Zm31.25,0l0,-15.625l-15.625,0l0,15.625l15.625,0Zm-31.25,-31.25l0,-15.625l-15.625,0l0,15.625l15.625,0Zm31.25,0l0,-15.625l-15.625,0l0,15.625l15.625,0Zm-31.25,-31.25l0,-15.625l-15.625,0l0,15.625l15.625,0Zm31.25,0l0,-15.625l-15.625,0l0,15.625l15.625,0Zm-31.25,-31.25l0,-15.625l-15.625,0l0,15.625l15.625,0Zm31.25,0l0,-15.625l-15.625,0l0,15.625l15.625,0Zm-31.25,-31.25l0,-15.625l-15.625,0l0,15.625l15.625,0Zm31.25,0l0,-15.625l-15.625,0l0,15.625l15.625,0Zm-31.25,-31.25l0,-15.625l-15.625,0l0,15.625l15.625,0Zm31.25,0l0,-15.625l-15.625,0l0,15.625l15.625,0Zm-31.25,-31.25l0,-15.625l-15.625,0l0,15.625l15.625,0Zm31.25,0l0,-15.625l-15.625,0l0,15.625l15.625,0Zm-31.25,-31.25l0,-15.625l-15.625,0l0,15.625l15.625,0Zm31.25,0l0,-15.625l-15.625,0l0,15.625l15.625,0Z"/></clipPath><g clip-path="url(#_clip1)"><path d="M1421.88,437.5l-31.25,0l-62.5,62.5l0,125l-31.25,31.25l0,500l31.25,31.25l0,343.75l-31.25,31.25l0,125l156.25,0l0,-1250l-31.25,0Z" style="fill:#737373;"/></g><path d="M1234.38,1437.5l0,125l-625,0l0,-125l625,0Zm-625,-156.25l625,0l0,125l-625,0l0,-125Zm0,-156.25l625,0l0,125l-625,0l0,-125Zm0,-156.25l625,0l0,125l-625,0l0,-125Zm0,-156.25l625,0l0,125l-625,0l0,-125Zm0,-156.25l625,0l0,125l-625,0l0,-125Zm0,-156.25l625,0l0,125l-625,0l0,-125Z" style="fill:#737373;"/><clipPath id="_clip2"><path d="M1234.38,1437.5l0,125l-625,0l0,-125l625,0Zm-625,-156.25l625,0l0,125l-625,0l0,-125Zm0,-156.25l625,0l0,125l-625,0l0,-125Zm0,-156.25l625,0l0,125l-625,0l0,-125Zm0,-156.25l625,0l0,125l-625,0l0,-125Zm0,-156.25l625,0l0,125l-625,0l0,-125Zm0,-156.25l625,0l0,125l-625,0l0,-125Z"/></clipPath><g clip-path="url(#_clip2)"><path d="M1234.38,1562.5l-625,0l0,-125l625,0l0,125Zm-31.25,-93.75l-562.5,0l0,62.5l562.5,0l0,-62.5Zm31.25,-62.5l-625,0l0,-125l625,0l0,125Zm-31.25,-93.75l-562.5,0l0,62.5l562.5,0l0,-62.5Zm31.25,-62.5l-625,0l0,-125l625,0l0,125Zm-31.25,-93.75l-562.5,0l0,62.5l562.5,0l0,-62.5Zm31.25,-62.5l-625,0l0,-125l625,0l0,125Zm-31.25,-93.75l-562.5,0l0,62.5l562.5,0l0,-62.5Zm31.25,-62.5l-625,0l0,-125l625,0l0,125Zm-31.25,-93.75l-562.5,0l0,62.5l562.5,0l0,-62.5Zm31.25,-62.5l-625,0l0,-125l625,0l0,125Zm-31.25,-93.75l-562.5,0l0,62.5l562.5,0l0,-62.5Zm31.25,-62.5l-625,0l0,-125l625,0l0,125Zm-31.25,-93.75l-562.5,0l0,62.5l562.5,0l0,-62.5Z" style="fill:#8e8e8e;"/></g></g></svg>