<?xml version="1.0" encoding="UTF-8" standalone="no"?><!DOCTYPE svg PUBLIC "-//W3C//DTD SVG 1.1//EN" "http://www.w3.org/Graphics/SVG/1.1/DTD/svg11.dtd"><svg width="100%" height="100%" viewBox="0 0 2000 2000" version="1.1" xmlns="http://www.w3.org/2000/svg" xmlns:xlink="http://www.w3.org/1999/xlink" xml:space="preserve" style="fill-rule:evenodd;clip-rule:evenodd;stroke-linecap:square;stroke-linejoin:bevel;stroke-miterlimit:1.5;"><path d="M736.667,1433.33l166.666,166.667l500,0l0,-500l0,-333.333l-166.666,-166.667l-500,0l0,833.333Z" style="fill:#9a9a9a;"/><path d="M400,0l400,0l400,400l0,400c0,0 258.695,0 360,0l40,40c0,208.37 0,1160 0,1160l-400,0l-400,-400l0,-800l-400,-400l0,-400Z" style="fill:#a7a7a7;"/><clipPath id="_clip1"><path d="M400,0l400,0l400,400l0,400c0,0 258.695,0 360,0l40,40c0,208.37 0,1160 0,1160l-400,0l-400,-400l0,-800l-400,-400l0,-400Z"/></clipPath><g clip-path="url(#_clip1)"><path d="M800,1000l0,100l100,100l0,500l300,300l400,0l0,-300l-300,0l-100,-100l-100,0l-100,-100l0,-300l-200,-200" style="fill:#a0a0a0;"/><clipPath id="_clip2"><path d="M800,1000l0,100l100,100l0,500l300,300l400,0l0,-300l-300,0l-100,-100l-100,0l-100,-100l0,-300l-200,-200"/></clipPath><g clip-path="url(#_clip2)"><path d="M940,1740l0,-60l20,-20l20,0l280,280l260,0l40,-40l0,-140l40,-40l0,280l-400,0l-260,-260Z" style="fill:#959595;"/><path d="M940,1740l0,-60l20,-20l20,0l280,280l260,0l40,-40l0,-140l40,-40" style="fill:none;stroke:#9a9a9a;stroke-width:10px;"/><path d="M1070,1750l30,0l30,30l70,0l102,-102" style="fill:none;stroke:#9a9a9a;stroke-width:10px;stroke-linecap:butt;"/><path d="M900,1260l40,40l0,280l60,60l0,38" style="fill:none;stroke:#9a9a9a;stroke-width:10px;stroke-linecap:butt;"/></g><path d="M700,0l0,100l400,400l0,300l100,100l400,0l0,-100l-400,0l0,-400l-400,-400l-100,0Z" style="fill:#a0a0a0;"/><g><path d="M1600,900l-400,0l-100,-100l0,-300l-400,-400l0,-100" style="fill:none;stroke:#a5a5a5;stroke-width:10px;"/><path d="M1600,1600l-500,0l-100,-100l0,-300l-200,-200" style="fill:none;stroke:#a5a5a5;stroke-width:10px;"/><path d="M1200,1600l100,100l300,0" style="fill:none;stroke:#a5a5a5;stroke-width:10px;"/><path d="M800,1100l100,100l0,600" style="fill:none;stroke:#a5a5a5;stroke-width:10px;"/><path d="M1260,1320l40,-40l220,0l20,20l60,0" style="fill:none;stroke:#a5a4a5;stroke-width:10px;"/><path d="M900,1100l0,-300l-400,-400l0,-40l100,100l0,-20l-180,-180l0,-270" style="fill:none;stroke:#a5a4a5;stroke-width:10px;"/><path d="M1200,900l40,40l320,0l20,20l0,120l20,20" style="fill:none;stroke:#a5a4a5;stroke-width:10px;"/><path d="M620,407l0,73l220,220l40,0l-60,-60l20,0l80,80l140,0l40,40" style="fill:none;stroke:#a5a4a5;stroke-width:10px;"/></g><g><circle cx="850" cy="1200" r="10" style="fill:#aaa;"/><circle cx="850" cy="1500" r="10" style="fill:#aaa;"/><circle cx="850" cy="1400" r="10" style="fill:#aaa;"/><circle cx="850" cy="1300" r="10" style="fill:#aaa;"/><circle cx="850" cy="1600" r="10" style="fill:#aaa;"/></g><path d="M1623,1320l-463,0l0,120l20,20l0,40l20,20l280,0l20,20l40,0l20,-20l63,0l0,-200Z" style="fill:#a8a8a8;"/><clipPath id="_clip3"><path d="M1623,1320l-463,0l0,120l20,20l0,40l20,20l280,0l20,20l40,0l20,-20l63,0l0,-200Z"/></clipPath><g clip-path="url(#_clip3)"><path d="M1580,1460l0,40l-40,0l40,-40Z" style="fill:#808080;"/><path d="M1520,1500l60,-60l0,-40l-100,100l40,0Z" style="fill:#808080;"/><path d="M1580,1380l-120,120l-40,0l140,-140l20,0l0,20Z" style="fill:#808080;"/><path d="M1540,1360l-140,140l-40,0l140,-140l40,0Z" style="fill:#808080;"/><path d="M1480,1360l-140,140l-40,0l140,-140l40,0Z" style="fill:#808080;"/><path d="M1420,1360l-140,140l-40,0l140,-140l40,0Z" style="fill:#808080;"/><path d="M1360,1360l-140,140l-20,0l0,-20l120,-120l40,0Z" style="fill:#808080;"/><path d="M1200,1460l100,-100l-40,0l-60,60l0,40Z" style="fill:#808080;"/><path d="M1200,1400l40,-40l-40,0l0,40Z" style="fill:#808080;"/><path d="M1200,1320l20,20l180,0l20,-20" style="fill:none;stroke:#a5a4a5;stroke-width:10px;"/></g><path d="M1623,1320l-463,0l0,120l20,20l0,40l20,20l280,0l20,20l40,0l20,-20l63,0l0,-200Z" style="fill:none;stroke:#a5a4a5;stroke-width:10px;"/></g><path d="M1098.5,900l463,0l0,-120l-20,-20l0,-40l-20,-20l-280,0l-20,-20l-40,0l-20,20l-63,0l0,200Z" style="fill:#a8a8a8;"/><clipPath id="_clip4"><path d="M1098.5,900l463,0l0,-120l-20,-20l0,-40l-20,-20l-280,0l-20,-20l-40,0l-20,20l-63,0l0,200Z"/></clipPath><g clip-path="url(#_clip4)"><path d="M1141.5,760l0,-40l40,0l-40,40Z" style="fill:#808080;"/><path d="M1201.5,720l-60,60l0,40l100,-100l-40,0Z" style="fill:#808080;"/><path d="M1141.5,840l120,-120l40,0l-140,140l-20,0l0,-20Z" style="fill:#808080;"/><path d="M1181.5,860l140,-140l40,0l-140,140l-40,0Z" style="fill:#808080;"/><path d="M1241.5,860l140,-140l40,0l-140,140l-40,0Z" style="fill:#808080;"/><path d="M1301.5,860l140,-140l40,0l-140,140l-40,0Z" style="fill:#808080;"/><path d="M1361.5,860l140,-140l20,0l0,20l-120,120l-40,0Z" style="fill:#808080;"/><path d="M1521.5,760l-100,100l40,0l60,-60l0,-40Z" style="fill:#808080;"/><path d="M1521.5,820l-40,40l40,0l0,-40Z" style="fill:#808080;"/><path d="M1521.5,900l-20,-20l-180,0l-20,20" style="fill:none;stroke:#a5a4a5;stroke-width:10px;"/></g><path d="M1098.5,900l463,0l0,-120l-20,-20l0,-40l-20,-20l-280,0l-20,-20l-40,0l-20,20l-63,0l0,200Z" style="fill:none;stroke:#a5a4a5;stroke-width:10px;"/><path d="M880,700l100,0l0,-100l-440,-440l-100,0l0,100l440,440Z" style="fill:#9a9a9a;stroke:#a5a4a5;stroke-width:10px;"/><path d="M909.63,600l70.37,0l0,-70.37l-309.63,-309.63l-70.37,0l0,70.37l309.63,309.63Z" style="fill:#9a9a9a;stroke:#a5a4a5;stroke-width:10px;"/><path d="M1528.15,1240l51.852,0l0,-51.852l-228.148,-228.148l-51.852,0l0,51.852l228.148,228.148Z" style="fill:#9a9a9a;stroke:#a5a4a5;stroke-width:10px;"/><path d="M1411.48,1240l51.852,0l0,-51.852l-228.148,-228.148l-51.852,0l0,51.852l228.148,228.148Z" style="fill:#9a9a9a;stroke:#a5a4a5;stroke-width:10px;"/><path d="M1294.82,1240l51.852,0l0,-51.852l-228.148,-228.148l-51.852,0l0,51.852l228.148,228.148Z" style="fill:#9a9a9a;stroke:#a5a4a5;stroke-width:10px;"/><path d="M1178.15,1240l51.852,0l0,-51.852l-228.148,-228.148l-51.852,0l0,51.852l228.148,228.148Z" style="fill:#9a9a9a;stroke:#a5a4a5;stroke-width:10px;"/></svg>