<?xml version="1.0" encoding="UTF-8" standalone="no"?><!DOCTYPE svg PUBLIC "-//W3C//DTD SVG 1.1//EN" "http://www.w3.org/Graphics/SVG/1.1/DTD/svg11.dtd"><svg width="100%" height="100%" viewBox="0 0 2000 2000" version="1.1" xmlns="http://www.w3.org/2000/svg" xmlns:xlink="http://www.w3.org/1999/xlink" xml:space="preserve" style="fill-rule:evenodd;clip-rule:evenodd;stroke-linecap:round;stroke-linejoin:round;stroke-miterlimit:1.5;"><path d="M0,450l50,-50c107.303,0 350,0 350,0l400,400l400,0l400,-400c0,0 242.697,0 350,0l50,50c0,175.088 0,750 0,750c0,0 -266.866,266.866 -364.645,364.645l-70.71,0c-57.431,-57.431 -164.645,-164.645 -164.645,-164.645l-800,0c0,0 -107.214,107.214 -164.645,164.645l-70.71,0c-97.779,-97.779 -364.645,-364.645 -364.645,-364.645c0,0 0,-574.912 0,-750Z" style="fill:#808080;"/><clipPath id="_clip1"><path d="M0,450l50,-50c107.303,0 350,0 350,0l400,400l400,0l400,-400c0,0 242.697,0 350,0l50,50c0,175.088 0,750 0,750c0,0 -266.866,266.866 -364.645,364.645l-70.71,0c-57.431,-57.431 -164.645,-164.645 -164.645,-164.645l-800,0c0,0 -107.214,107.214 -164.645,164.645l-70.71,0c-97.779,-97.779 -364.645,-364.645 -364.645,-364.645c0,0 0,-574.912 0,-750Z"/></clipPath><g clip-path="url(#_clip1)"><path d="M600,300l0,700l200,200l0,400l-800,0l0,-400l200,-200l0,-700l400,0Zm1200,0l0,700l200,200l0,400l-800,0l0,-400l200,-200l0,-700l400,0Z" style="fill:#757575;"/><path d="M605,997.929l200,200l0,407.071l-810,0l0,-407.071l200,-200l0,-702.929l410,0l0,702.929Zm1200,0l200,200l0,407.071l-810,0l0,-407.071l200,-200l0,-702.929l410,0l0,702.929Zm-1605,-697.929l0,700l-200,200l0,400l800,0l0,-400l-200,-200l0,-700l-400,0Zm1200,0l0,700l-200,200l0,400l800,0l0,-400l-200,-200l0,-700l-400,0Z" style="fill:#7b7b7b;"/><path d="M900,790l0,210l60,60l0,100l20,20l40,0l20,-20l0,-100l60,-60l0,-210l-200,0" style="fill:#757575;"/><path d="M1102.5,787.5l0,213.536l-60,60l0,100l-21.464,21.464l-42.072,0l-21.464,-21.464l0,-100l-60,-60l0,-213.536l205,0Zm-140,271.464l0,100l18.536,18.536l37.928,0l18.536,-18.536l0,-100l60,-60l0,-206.464l-195,0l0,206.464l60,60Z" style="fill:#7b7b7b;"/><g><path d="M1966.67,906.667l-133.334,0l-33.333,-33.334l0,-266.666l33.333,-33.334l133.334,0l33.333,33.334l0,266.666l-33.333,33.334Z" style="fill:#808080;"/><clipPath id="_clip2"><path d="M1966.67,906.667l-133.334,0l-33.333,-33.334l0,-266.666l33.333,-33.334l133.334,0l33.333,33.334l0,266.666l-33.333,33.334Z"/></clipPath><g clip-path="url(#_clip2)"><path d="M1985.71,863.81l-28.571,28.571l-114.286,0l-28.571,-28.571l0,-66.667l-9.524,-9.524l-19.048,0l0,-95.238l19.048,0l9.524,-9.524l0,-66.667l28.571,-28.571l114.286,0l28.571,28.571l0,247.62" style="fill:#757575;stroke:#7b7b7b;stroke-width:2.86px;"/><path d="M1859.1,835.622c0,-7.525 -6.11,-13.634 -13.635,-13.634c-7.525,0 -13.634,6.109 -13.634,13.634c0,7.525 6.109,13.634 13.634,13.634c7.525,0 13.635,-6.109 13.635,-13.634Zm0,-31.85c0,-7.525 -6.11,-13.634 -13.635,-13.634c-7.525,0 -13.634,6.109 -13.634,13.634c0,7.525 6.109,13.635 13.634,13.635c7.525,0 13.635,-6.11 13.635,-13.635Zm0,-31.813c0,-7.525 -6.11,-13.635 -13.635,-13.635c-7.525,0 -13.634,6.11 -13.634,13.635c0,7.525 6.109,13.634 13.634,13.634c7.525,0 13.635,-6.109 13.635,-13.634Zm0,-31.814c0,-7.525 -6.11,-13.634 -13.635,-13.634c-7.525,0 -13.634,6.109 -13.634,13.634c0,7.525 6.109,13.634 13.634,13.634c7.525,0 13.635,-6.109 13.635,-13.634Zm0,-31.813c0,-7.526 -6.11,-13.635 -13.635,-13.635c-7.525,0 -13.634,6.109 -13.634,13.635c0,7.525 6.109,13.634 13.634,13.634c7.525,0 13.635,-6.109 13.635,-13.634Zm0,-31.814c0,-7.525 -6.11,-13.634 -13.635,-13.634c-7.525,0 -13.634,6.109 -13.634,13.634c0,7.525 6.109,13.634 13.634,13.634c7.525,0 13.635,-6.109 13.635,-13.634Zm0,-31.814c0,-7.525 -6.11,-13.634 -13.635,-13.634c-7.525,0 -13.634,6.109 -13.634,13.634c0,7.525 6.109,13.635 13.634,13.635c7.525,0 13.635,-6.11 13.635,-13.635Zm27.269,206.662c0,-7.525 -6.11,-13.635 -13.635,-13.635c-7.525,0 -13.634,6.11 -13.634,13.635c0,7.525 6.109,13.634 13.634,13.634c7.525,0 13.635,-6.109 13.635,-13.634Zm0,-31.814c0,-7.525 -6.11,-13.634 -13.635,-13.634c-7.525,0 -13.634,6.109 -13.634,13.634c0,7.525 6.109,13.634 13.634,13.634c7.525,0 13.635,-6.109 13.635,-13.634Zm0,-31.85c0,-7.525 -6.11,-13.634 -13.635,-13.634c-7.525,0 -13.634,6.109 -13.634,13.634c0,7.525 6.109,13.635 13.634,13.635c7.525,0 13.635,-6.11 13.635,-13.635Zm0,-31.813c0,-7.525 -6.11,-13.635 -13.635,-13.635c-7.525,0 -13.634,6.11 -13.634,13.635c0,7.525 6.109,13.634 13.634,13.634c7.525,0 13.635,-6.109 13.635,-13.634Zm0,-31.814c0,-7.525 -6.11,-13.634 -13.635,-13.634c-7.525,0 -13.634,6.109 -13.634,13.634c0,7.525 6.109,13.635 13.634,13.635c7.525,0 13.635,-6.11 13.635,-13.635Zm0,-31.813c0,-7.525 -6.11,-13.635 -13.635,-13.635c-7.525,0 -13.634,6.11 -13.634,13.635c0,7.525 6.109,13.634 13.634,13.634c7.525,0 13.635,-6.109 13.635,-13.634Zm0,-31.814c0,-7.525 -6.11,-13.634 -13.635,-13.634c-7.525,0 -13.634,6.109 -13.634,13.634c0,7.525 6.109,13.634 13.634,13.634c7.525,0 13.635,-6.109 13.635,-13.634Zm0,-31.814c0,-7.525 -6.11,-13.634 -13.635,-13.634c-7.525,0 -13.634,6.109 -13.634,13.634c0,7.525 6.109,13.635 13.634,13.635c7.525,0 13.635,-6.11 13.635,-13.635Zm27.268,206.988c0,-7.525 -6.109,-13.634 -13.634,-13.634c-7.525,0 -13.634,6.109 -13.634,13.634c0,7.525 6.109,13.634 13.634,13.634c7.525,0 13.634,-6.109 13.634,-13.634Zm0,-31.85c0,-7.525 -6.109,-13.634 -13.634,-13.634c-7.525,0 -13.634,6.109 -13.634,13.634c0,7.525 6.109,13.635 13.634,13.635c7.525,0 13.634,-6.11 13.634,-13.635Zm0,-31.813c0,-7.525 -6.109,-13.635 -13.634,-13.635c-7.525,0 -13.634,6.11 -13.634,13.635c0,7.525 6.109,13.634 13.634,13.634c7.525,0 13.634,-6.109 13.634,-13.634Zm0,-31.814c0,-7.525 -6.109,-13.634 -13.634,-13.634c-7.525,0 -13.634,6.109 -13.634,13.634c0,7.525 6.109,13.634 13.634,13.634c7.525,0 13.634,-6.109 13.634,-13.634Zm0,-63.627c0,-7.525 -6.109,-13.634 -13.634,-13.634c-7.525,0 -13.634,6.109 -13.634,13.634c0,7.525 6.109,13.634 13.634,13.634c7.525,0 13.634,-6.109 13.634,-13.634Zm0,-31.814c0,-7.525 -6.109,-13.634 -13.634,-13.634c-7.525,0 -13.634,6.109 -13.634,13.634c0,7.525 6.109,13.635 13.634,13.635c7.525,0 13.634,-6.11 13.634,-13.635Zm0,63.628c0,-7.526 -6.109,-13.635 -13.634,-13.635c-7.525,0 -13.634,6.109 -13.634,13.635c0,7.525 6.109,13.634 13.634,13.634c7.525,0 13.634,-6.109 13.634,-13.634Zm27.269,143.034c0,-7.525 -6.109,-13.635 -13.634,-13.635c-7.525,0 -13.635,6.11 -13.635,13.635c0,7.525 6.11,13.634 13.635,13.634c7.525,0 13.634,-6.109 13.634,-13.634Zm0,-31.814c0,-7.525 -6.109,-13.634 -13.634,-13.634c-7.525,0 -13.635,6.109 -13.635,13.634c0,7.525 6.11,13.634 13.635,13.634c7.525,0 13.634,-6.109 13.634,-13.634Zm0,-31.85c0,-7.525 -6.109,-13.634 -13.634,-13.634c-7.525,0 -13.635,6.109 -13.635,13.634c0,7.525 6.11,13.635 13.635,13.635c7.525,0 13.634,-6.11 13.634,-13.635Zm0,-31.813c0,-7.525 -6.109,-13.635 -13.634,-13.635c-7.525,0 -13.635,6.11 -13.635,13.635c0,7.525 6.11,13.634 13.635,13.634c7.525,0 13.634,-6.109 13.634,-13.634Zm0,-31.814c0,-7.525 -6.109,-13.634 -13.634,-13.634c-7.525,0 -13.635,6.109 -13.635,13.634c0,7.525 6.11,13.635 13.635,13.635c7.525,0 13.634,-6.11 13.634,-13.635Zm0,-31.813c0,-7.525 -6.109,-13.635 -13.634,-13.635c-7.525,0 -13.635,6.11 -13.635,13.635c0,7.525 6.11,13.634 13.635,13.634c7.525,0 13.634,-6.109 13.634,-13.634Zm0,-31.814c0,-7.525 -6.109,-13.634 -13.634,-13.634c-7.525,0 -13.635,6.109 -13.635,13.634c0,7.525 6.11,13.634 13.635,13.634c7.525,0 13.634,-6.109 13.634,-13.634Zm0,-31.814c0,-7.525 -6.109,-13.634 -13.634,-13.634c-7.525,0 -13.635,6.109 -13.635,13.634c0,7.525 6.11,13.635 13.635,13.635c7.525,0 13.634,-6.11 13.634,-13.635Zm27.269,206.988c0,-7.525 -6.109,-13.634 -13.634,-13.634c-7.525,0 -13.635,6.109 -13.635,13.634c0,7.525 6.11,13.634 13.635,13.634c7.525,0 13.634,-6.109 13.634,-13.634Zm0,-31.85c0,-7.525 -6.109,-13.634 -13.634,-13.634c-7.525,0 -13.635,6.109 -13.635,13.634c0,7.525 6.11,13.635 13.635,13.635c7.525,0 13.634,-6.11 13.634,-13.635Zm0,-31.813c0,-7.525 -6.109,-13.635 -13.634,-13.635c-7.525,0 -13.635,6.11 -13.635,13.635c0,7.525 6.11,13.634 13.635,13.634c7.525,0 13.634,-6.109 13.634,-13.634Zm0,-31.814c0,-7.525 -6.109,-13.634 -13.634,-13.634c-7.525,0 -13.635,6.109 -13.635,13.634c0,7.525 6.11,13.634 13.635,13.634c7.525,0 13.634,-6.109 13.634,-13.634Zm0,-31.813c0,-7.526 -6.109,-13.635 -13.634,-13.635c-7.525,0 -13.635,6.109 -13.635,13.635c0,7.525 6.11,13.634 13.635,13.634c7.525,0 13.634,-6.109 13.634,-13.634Zm0,-31.814c0,-7.525 -6.109,-13.634 -13.634,-13.634c-7.525,0 -13.635,6.109 -13.635,13.634c0,7.525 6.11,13.634 13.635,13.634c7.525,0 13.634,-6.109 13.634,-13.634Zm0,-31.814c0,-7.525 -6.109,-13.634 -13.634,-13.634c-7.525,0 -13.635,6.109 -13.635,13.634c0,7.525 6.11,13.635 13.635,13.635c7.525,0 13.634,-6.11 13.634,-13.635Z" style="fill:#3f3f3f;"/></g><path d="M1966.67,906.667l-133.334,0l-33.333,-33.334l0,-266.666l33.333,-33.334l133.334,0l33.333,33.334l0,266.666l-33.333,33.334Z" style="fill:none;stroke:#757575;stroke-width:2.86px;"/><path d="M1833.92,905.238l132.15,0l32.496,-32.496l0,-265.484l-32.496,-32.496l-132.15,0l-32.496,32.496l0,86.552l-2.858,0l0,-87.735l34.171,-34.17l134.516,0l34.171,34.17l0,267.85l-34.171,34.17l-134.516,0l-34.171,-34.17l0,-87.735l2.858,0l0,86.552l32.496,32.496Z" style="fill:#7b7b7b;"/></g><g><path d="M33.333,906.667l133.334,0l33.333,-33.334l0,-266.666l-33.333,-33.334l-133.334,0l-33.333,33.334l0,266.666l33.333,33.334Z" style="fill:#808080;"/><clipPath id="_clip3"><path d="M33.333,906.667l133.334,0l33.333,-33.334l0,-266.666l-33.333,-33.334l-133.334,0l-33.333,33.334l0,266.666l33.333,33.334Z"/></clipPath><g clip-path="url(#_clip3)"><path d="M14.286,863.81l28.571,28.571l114.286,0l28.571,-28.571l0,-66.667l9.524,-9.524l19.048,0l0,-95.238l-19.048,0l-9.524,-9.524l0,-66.667l-28.571,-28.571l-114.286,0l-28.571,28.571l0,247.62" style="fill:#757575;stroke:#7b7b7b;stroke-width:2.86px;"/><path d="M140.903,835.622c0,-7.525 6.11,-13.634 13.635,-13.634c7.525,0 13.634,6.109 13.634,13.634c0,7.525 -6.109,13.634 -13.634,13.634c-7.525,0 -13.635,-6.109 -13.635,-13.634Zm0,-31.85c0,-7.525 6.11,-13.634 13.635,-13.634c7.525,0 13.634,6.109 13.634,13.634c0,7.525 -6.109,13.635 -13.634,13.635c-7.525,0 -13.635,-6.11 -13.635,-13.635Zm0,-31.813c0,-7.525 6.11,-13.635 13.635,-13.635c7.525,0 13.634,6.11 13.634,13.635c0,7.525 -6.109,13.634 -13.634,13.634c-7.525,0 -13.635,-6.109 -13.635,-13.634Zm0,-31.814c0,-7.525 6.11,-13.634 13.635,-13.634c7.525,0 13.634,6.109 13.634,13.634c0,7.525 -6.109,13.634 -13.634,13.634c-7.525,0 -13.635,-6.109 -13.635,-13.634Zm0,-31.813c0,-7.526 6.11,-13.635 13.635,-13.635c7.525,0 13.634,6.109 13.634,13.635c0,7.525 -6.109,13.634 -13.634,13.634c-7.525,0 -13.635,-6.109 -13.635,-13.634Zm0,-31.814c0,-7.525 6.11,-13.634 13.635,-13.634c7.525,0 13.634,6.109 13.634,13.634c0,7.525 -6.109,13.634 -13.634,13.634c-7.525,0 -13.635,-6.109 -13.635,-13.634Zm0,-31.814c0,-7.525 6.11,-13.634 13.635,-13.634c7.525,0 13.634,6.109 13.634,13.634c0,7.525 -6.109,13.635 -13.634,13.635c-7.525,0 -13.635,-6.11 -13.635,-13.635Zm-27.269,206.662c0,-7.525 6.11,-13.635 13.635,-13.635c7.525,0 13.634,6.11 13.634,13.635c0,7.525 -6.109,13.634 -13.634,13.634c-7.525,0 -13.635,-6.109 -13.635,-13.634Zm0,-31.814c0,-7.525 6.11,-13.634 13.635,-13.634c7.525,0 13.634,6.109 13.634,13.634c0,7.525 -6.109,13.634 -13.634,13.634c-7.525,0 -13.635,-6.109 -13.635,-13.634Zm0,-31.85c0,-7.525 6.11,-13.634 13.635,-13.634c7.525,0 13.634,6.109 13.634,13.634c0,7.525 -6.109,13.635 -13.634,13.635c-7.525,0 -13.635,-6.11 -13.635,-13.635Zm0,-31.813c0,-7.525 6.11,-13.635 13.635,-13.635c7.525,0 13.634,6.11 13.634,13.635c0,7.525 -6.109,13.634 -13.634,13.634c-7.525,0 -13.635,-6.109 -13.635,-13.634Zm0,-31.814c0,-7.525 6.11,-13.634 13.635,-13.634c7.525,0 13.634,6.109 13.634,13.634c0,7.525 -6.109,13.635 -13.634,13.635c-7.525,0 -13.635,-6.11 -13.635,-13.635Zm0,-31.813c0,-7.525 6.11,-13.635 13.635,-13.635c7.525,0 13.634,6.11 13.634,13.635c0,7.525 -6.109,13.634 -13.634,13.634c-7.525,0 -13.635,-6.109 -13.635,-13.634Zm0,-31.814c0,-7.525 6.11,-13.634 13.635,-13.634c7.525,0 13.634,6.109 13.634,13.634c0,7.525 -6.109,13.634 -13.634,13.634c-7.525,0 -13.635,-6.109 -13.635,-13.634Zm0,-31.814c0,-7.525 6.11,-13.634 13.635,-13.634c7.525,0 13.634,6.109 13.634,13.634c0,7.525 -6.109,13.635 -13.634,13.635c-7.525,0 -13.635,-6.11 -13.635,-13.635Zm-27.268,206.988c0,-7.525 6.109,-13.634 13.634,-13.634c7.525,0 13.634,6.109 13.634,13.634c0,7.525 -6.109,13.634 -13.634,13.634c-7.525,0 -13.634,-6.109 -13.634,-13.634Zm0,-31.85c0,-7.525 6.109,-13.634 13.634,-13.634c7.525,0 13.634,6.109 13.634,13.634c0,7.525 -6.109,13.635 -13.634,13.635c-7.525,0 -13.634,-6.11 -13.634,-13.635Zm0,-31.813c0,-7.525 6.109,-13.635 13.634,-13.635c7.525,0 13.634,6.11 13.634,13.635c0,7.525 -6.109,13.634 -13.634,13.634c-7.525,0 -13.634,-6.109 -13.634,-13.634Zm0,-31.814c0,-7.525 6.109,-13.634 13.634,-13.634c7.525,0 13.634,6.109 13.634,13.634c0,7.525 -6.109,13.634 -13.634,13.634c-7.525,0 -13.634,-6.109 -13.634,-13.634Zm0,-63.627c0,-7.525 6.109,-13.634 13.634,-13.634c7.525,0 13.634,6.109 13.634,13.634c0,7.525 -6.109,13.634 -13.634,13.634c-7.525,0 -13.634,-6.109 -13.634,-13.634Zm0,-31.814c0,-7.525 6.109,-13.634 13.634,-13.634c7.525,0 13.634,6.109 13.634,13.634c0,7.525 -6.109,13.635 -13.634,13.635c-7.525,0 -13.634,-6.11 -13.634,-13.635Zm0,63.628c0,-7.526 6.109,-13.635 13.634,-13.635c7.525,0 13.634,6.109 13.634,13.635c0,7.525 -6.109,13.634 -13.634,13.634c-7.525,0 -13.634,-6.109 -13.634,-13.634Zm-27.269,143.034c0,-7.525 6.109,-13.635 13.634,-13.635c7.525,0 13.635,6.11 13.635,13.635c0,7.525 -6.11,13.634 -13.635,13.634c-7.525,0 -13.634,-6.109 -13.634,-13.634Zm0,-31.814c0,-7.525 6.109,-13.634 13.634,-13.634c7.525,0 13.635,6.109 13.635,13.634c0,7.525 -6.11,13.634 -13.635,13.634c-7.525,0 -13.634,-6.109 -13.634,-13.634Zm0,-31.85c0,-7.525 6.109,-13.634 13.634,-13.634c7.525,0 13.635,6.109 13.635,13.634c0,7.525 -6.11,13.635 -13.635,13.635c-7.525,0 -13.634,-6.11 -13.634,-13.635Zm0,-31.813c0,-7.525 6.109,-13.635 13.634,-13.635c7.525,0 13.635,6.11 13.635,13.635c0,7.525 -6.11,13.634 -13.635,13.634c-7.525,0 -13.634,-6.109 -13.634,-13.634Zm0,-31.814c0,-7.525 6.109,-13.634 13.634,-13.634c7.525,0 13.635,6.109 13.635,13.634c0,7.525 -6.11,13.635 -13.635,13.635c-7.525,0 -13.634,-6.11 -13.634,-13.635Zm0,-31.813c0,-7.525 6.109,-13.635 13.634,-13.635c7.525,0 13.635,6.11 13.635,13.635c0,7.525 -6.11,13.634 -13.635,13.634c-7.525,0 -13.634,-6.109 -13.634,-13.634Zm0,-31.814c0,-7.525 6.109,-13.634 13.634,-13.634c7.525,0 13.635,6.109 13.635,13.634c0,7.525 -6.11,13.634 -13.635,13.634c-7.525,0 -13.634,-6.109 -13.634,-13.634Zm0,-31.814c0,-7.525 6.109,-13.634 13.634,-13.634c7.525,0 13.635,6.109 13.635,13.634c0,7.525 -6.11,13.635 -13.635,13.635c-7.525,0 -13.634,-6.11 -13.634,-13.635Zm-27.269,206.988c0,-7.525 6.109,-13.634 13.634,-13.634c7.525,0 13.635,6.109 13.635,13.634c0,7.525 -6.11,13.634 -13.635,13.634c-7.525,0 -13.634,-6.109 -13.634,-13.634Zm0,-31.85c0,-7.525 6.109,-13.634 13.634,-13.634c7.525,0 13.635,6.109 13.635,13.634c0,7.525 -6.11,13.635 -13.635,13.635c-7.525,0 -13.634,-6.11 -13.634,-13.635Zm0,-31.813c0,-7.525 6.109,-13.635 13.634,-13.635c7.525,0 13.635,6.11 13.635,13.635c0,7.525 -6.11,13.634 -13.635,13.634c-7.525,0 -13.634,-6.109 -13.634,-13.634Zm0,-31.814c0,-7.525 6.109,-13.634 13.634,-13.634c7.525,0 13.635,6.109 13.635,13.634c0,7.525 -6.11,13.634 -13.635,13.634c-7.525,0 -13.634,-6.109 -13.634,-13.634Zm0,-31.813c0,-7.526 6.109,-13.635 13.634,-13.635c7.525,0 13.635,6.109 13.635,13.635c0,7.525 -6.11,13.634 -13.635,13.634c-7.525,0 -13.634,-6.109 -13.634,-13.634Zm0,-31.814c0,-7.525 6.109,-13.634 13.634,-13.634c7.525,0 13.635,6.109 13.635,13.634c0,7.525 -6.11,13.634 -13.635,13.634c-7.525,0 -13.634,-6.109 -13.634,-13.634Zm0,-31.814c0,-7.525 6.109,-13.634 13.634,-13.634c7.525,0 13.635,6.109 13.635,13.634c0,7.525 -6.11,13.635 -13.635,13.635c-7.525,0 -13.634,-6.11 -13.634,-13.635Z" style="fill:#3f3f3f;"/></g><path d="M33.333,906.667l133.334,0l33.333,-33.334l0,-266.666l-33.333,-33.334l-133.334,0l-33.333,33.334l0,266.666l33.333,33.334Z" style="fill:none;stroke:#757575;stroke-width:2.86px;"/><path d="M167.258,908.095l-134.516,0l-34.171,-34.17l0,-267.85l34.171,-34.17l134.516,0l34.171,34.17l0,87.735l-2.858,0l0,-86.552l-32.496,-32.496l-132.15,0l-32.496,32.496l0,265.484l32.496,32.496l132.15,0l32.496,-32.496l0,-86.552l2.858,0l0,87.735l-34.171,34.17Z" style="fill:#7b7b7b;"/></g><path d="M640,600l0,100l20,20l0,140l20,20l0,196" style="fill:none;stroke:#7b7b7b;stroke-width:5px;stroke-linecap:butt;"/><path d="M1360,604l0,100l-20,20l0,140l-20,20l0,196" style="fill:none;stroke:#7b7b7b;stroke-width:5px;stroke-linecap:butt;"/><g><path d="M300,400l0,200l80,80l0,220l120,120l80,0l0,-440l-180,-180l-100,0Z" style="fill:#888;"/><clipPath id="_clip4"><path d="M300,400l0,200l80,80l0,220l120,120l80,0l0,-440l-180,-180l-100,0Z"/></clipPath><g clip-path="url(#_clip4)"><path d="M430,510l10,10l20,0l10,-10l0,100l-10,10l0,10l-20,0l0,-10l-10,-10l0,-100Z" style="fill:#8b8b8b;"/><g><path d="M340,400l0,180l220,220l0,220" style="fill:none;stroke:#868686;stroke-width:5px;stroke-linecap:butt;"/><path d="M520,760l0,40l20,20l0,100l20,20" style="fill:none;stroke:#868686;stroke-width:5px;stroke-linecap:butt;"/><path d="M340,520l20,20l0,40l80,80l0,20" style="fill:none;stroke:#868686;stroke-width:5px;stroke-linecap:butt;"/><path d="M440,660l40,40l0,20" style="fill:none;stroke:#868686;stroke-width:5px;stroke-linecap:butt;"/><path d="M360,560l20,-20l0,-120l20,-20" style="fill:none;stroke:#868686;stroke-width:5px;stroke-linecap:butt;"/><path d="M500,740l0,160l20,20l0,60l-20,20l0,20" style="fill:none;stroke:#868686;stroke-width:5px;stroke-linecap:butt;"/><path d="M540,780l0,-80l20,-20l0,-120" style="fill:none;stroke:#868686;stroke-width:5px;stroke-linecap:butt;"/></g><g><path d="M400,900l20,20" style="fill:none;stroke:#868686;stroke-width:5px;stroke-linecap:butt;"/><path d="M400,880l20,20" style="fill:none;stroke:#868686;stroke-width:5px;stroke-linecap:butt;"/><path d="M400,860l20,20" style="fill:none;stroke:#868686;stroke-width:5px;stroke-linecap:butt;"/><path d="M430,920l0,-40" style="fill:none;stroke:#868686;stroke-width:5px;stroke-linecap:butt;"/><path d="M430,860l0,-40" style="fill:none;stroke:#868686;stroke-width:5px;stroke-linecap:butt;"/><path d="M420,860l-20,-20" style="fill:none;stroke:#868686;stroke-width:5px;stroke-linecap:butt;"/><path d="M420,840l-20,-20" style="fill:none;stroke:#868686;stroke-width:5px;stroke-linecap:butt;"/><path d="M420,820l-20,-20" style="fill:none;stroke:#868686;stroke-width:5px;stroke-linecap:butt;"/></g><g><path d="M440,530l20,0" style="fill:none;stroke:#868686;stroke-width:5px;stroke-linecap:butt;"/><path d="M440,540l20,0" style="fill:none;stroke:#868686;stroke-width:5px;stroke-linecap:butt;"/><path d="M440,550l20,0" style="fill:none;stroke:#868686;stroke-width:5px;stroke-linecap:butt;"/><path d="M440,560l20,0" style="fill:none;stroke:#868686;stroke-width:5px;stroke-linecap:butt;"/><path d="M440,570l20,0" style="fill:none;stroke:#868686;stroke-width:5px;stroke-linecap:butt;"/><path d="M440,580l20,0" style="fill:none;stroke:#868686;stroke-width:5px;stroke-linecap:butt;"/><path d="M440,590l20,0" style="fill:none;stroke:#868686;stroke-width:5px;stroke-linecap:butt;"/><path d="M460,600l-20,0" style="fill:none;stroke:#868686;stroke-width:5px;stroke-linecap:butt;"/><path d="M440,610l20,0" style="fill:none;stroke:#868686;stroke-width:5px;stroke-linecap:butt;"/><path d="M430,510l0,100l10,10l0,10l20,0l0,-10l10,-10l0,-100" style="fill:none;stroke:#868686;stroke-width:5px;stroke-linecap:butt;"/></g><g><path d="M470,540l10,-10l0,-30l-20,20l-20,0l-20,-20l0,30l10,10" style="fill:none;stroke:#868686;stroke-width:5px;stroke-linecap:butt;"/><path d="M530,740l0,-60l20,-20l0,-90" style="fill:none;stroke:#868686;stroke-width:5px;stroke-linecap:butt;"/><path d="M530,660l10,-10l0,-80" style="fill:none;stroke:#868686;stroke-width:5px;stroke-linecap:butt;"/><path d="M530,640l0,-70l10,-10" style="fill:none;stroke:#868686;stroke-width:5px;stroke-linecap:butt;"/><path d="M520,740l0,-190l-20,-20l0,30l10,10l0,160" style="fill:none;stroke:#868686;stroke-width:5px;stroke-linecap:butt;"/></g></g><path d="M1700,400l0,200l-80,80l0,220l-120,120l-80,0l0,-440l180,-180l100,0Z" style="fill:#888;"/><clipPath id="_clip5"><path d="M1700,400l0,200l-80,80l0,220l-120,120l-80,0l0,-440l180,-180l100,0Z"/></clipPath><g clip-path="url(#_clip5)"><path d="M1570,510l-10,10l-20,0l-10,-10l0,100l10,10l0,10l20,0l0,-10l10,-10l0,-100Z" style="fill:#8b8b8b;"/><g><path d="M1660,400l0,180l-220,220l0,220" style="fill:none;stroke:#868686;stroke-width:5px;stroke-linecap:butt;"/><path d="M1480,760l0,40l-20,20l0,100l-20,20" style="fill:none;stroke:#868686;stroke-width:5px;stroke-linecap:butt;"/><path d="M1660,520l-20,20l0,40l-80,80l0,20" style="fill:none;stroke:#868686;stroke-width:5px;stroke-linecap:butt;"/><path d="M1560,660l-40,40l0,20" style="fill:none;stroke:#868686;stroke-width:5px;stroke-linecap:butt;"/><path d="M1640,560l-20,-20l0,-120l-20,-20" style="fill:none;stroke:#868686;stroke-width:5px;stroke-linecap:butt;"/><path d="M1500,740l0,160l-20,20l0,60l20,20l0,20" style="fill:none;stroke:#868686;stroke-width:5px;stroke-linecap:butt;"/><path d="M1460,780l0,-80l-20,-20l0,-120" style="fill:none;stroke:#868686;stroke-width:5px;stroke-linecap:butt;"/></g><g><path d="M1600,900l-20,20" style="fill:none;stroke:#868686;stroke-width:5px;stroke-linecap:butt;"/><path d="M1600,880l-20,20" style="fill:none;stroke:#868686;stroke-width:5px;stroke-linecap:butt;"/><path d="M1600,860l-20,20" style="fill:none;stroke:#868686;stroke-width:5px;stroke-linecap:butt;"/><path d="M1570,920l0,-40" style="fill:none;stroke:#868686;stroke-width:5px;stroke-linecap:butt;"/><path d="M1570,860l0,-40" style="fill:none;stroke:#868686;stroke-width:5px;stroke-linecap:butt;"/><path d="M1580,860l20,-20" style="fill:none;stroke:#868686;stroke-width:5px;stroke-linecap:butt;"/><path d="M1580,840l20,-20" style="fill:none;stroke:#868686;stroke-width:5px;stroke-linecap:butt;"/><path d="M1580,820l20,-20" style="fill:none;stroke:#868686;stroke-width:5px;stroke-linecap:butt;"/></g><g><path d="M1560,530l-20,0" style="fill:none;stroke:#868686;stroke-width:5px;stroke-linecap:butt;"/><path d="M1560,540l-20,0" style="fill:none;stroke:#868686;stroke-width:5px;stroke-linecap:butt;"/><path d="M1560,550l-20,0" style="fill:none;stroke:#868686;stroke-width:5px;stroke-linecap:butt;"/><path d="M1560,560l-20,0" style="fill:none;stroke:#868686;stroke-width:5px;stroke-linecap:butt;"/><path d="M1560,570l-20,0" style="fill:none;stroke:#868686;stroke-width:5px;stroke-linecap:butt;"/><path d="M1560,580l-20,0" style="fill:none;stroke:#868686;stroke-width:5px;stroke-linecap:butt;"/><path d="M1560,590l-20,0" style="fill:none;stroke:#868686;stroke-width:5px;stroke-linecap:butt;"/><path d="M1540,600l20,0" style="fill:none;stroke:#868686;stroke-width:5px;stroke-linecap:butt;"/><path d="M1560,610l-20,0" style="fill:none;stroke:#868686;stroke-width:5px;stroke-linecap:butt;"/><path d="M1570,510l0,100l-10,10l0,10l-20,0l0,-10l-10,-10l0,-100" style="fill:none;stroke:#868686;stroke-width:5px;stroke-linecap:butt;"/></g><g><path d="M1530,540l-10,-10l0,-30l20,20l20,0l20,-20l0,30l-10,10" style="fill:none;stroke:#868686;stroke-width:5px;stroke-linecap:butt;"/><path d="M1470,740l0,-60l-20,-20l0,-90" style="fill:none;stroke:#868686;stroke-width:5px;stroke-linecap:butt;"/><path d="M1470,660l-10,-10l0,-80" style="fill:none;stroke:#868686;stroke-width:5px;stroke-linecap:butt;"/><path d="M1470,640l0,-70l-10,-10" style="fill:none;stroke:#868686;stroke-width:5px;stroke-linecap:butt;"/><path d="M1480,740l0,-190l20,-20l0,30l-10,10l0,160" style="fill:none;stroke:#868686;stroke-width:5px;stroke-linecap:butt;"/></g></g></g><g><path d="M760,1300l-160,-160l-60,0l-120,-120l-180,0l-210,210l0,334.645l730,0l0,-264.645" style="fill:#808080;"/><clipPath id="_clip6"><path d="M760,1300l-160,-160l-60,0l-120,-120l-180,0l-210,210l0,334.645l730,0l0,-264.645"/></clipPath><g clip-path="url(#_clip6)"><path d="M340,1100l0,460l-60,0l0,-460l60,0Zm-80,400l-60,0l0,-380l20,-20l40,0l0,400Z" style="fill:#7e7e7e;"/><clipPath id="_clip7"><path d="M340,1100l0,460l-60,0l0,-460l60,0Zm-80,400l-60,0l0,-380l20,-20l40,0l0,400Z"/></clipPath><g clip-path="url(#_clip7)"><path d="M280,1600l0,-510" style="fill:none;stroke:#7e7e7e;stroke-width:5px;stroke-linecap:butt;"/><path d="M260,1600l0,-510" style="fill:none;stroke:#7e7e7e;stroke-width:5px;stroke-linecap:butt;"/><g><path d="M250,1140l-10,0l-10,10l-20,0" style="fill:none;stroke:#7b7b7b;stroke-width:5px;stroke-linecap:butt;"/><path d="M210,1130l10,-10l10,0l0,-10" style="fill:none;stroke:#7b7b7b;stroke-width:5px;stroke-linecap:butt;"/><path d="M210,1170l40,0l0,245" style="fill:none;stroke:#7b7b7b;stroke-width:5px;stroke-linecap:butt;"/><path d="M220,1180l0,130" style="fill:none;stroke:#7b7b7b;stroke-width:5px;stroke-linecap:butt;"/><path d="M240,1180l0,130" style="fill:none;stroke:#7b7b7b;stroke-width:5px;stroke-linecap:butt;"/><path d="M290,1110l10,10l30,0l0,160l20,20" style="fill:none;stroke:#7b7b7b;stroke-width:5px;stroke-linecap:butt;"/><path d="M290,1130l10,10l10,0l0,235" style="fill:none;stroke:#7b7b7b;stroke-width:5px;stroke-linecap:butt;"/><path d="M320,1290l30,30" style="fill:none;stroke:#7b7b7b;stroke-width:5px;stroke-linecap:butt;"/><path d="M250,1130l-10,0l-10,10l-20,0" style="fill:none;stroke:#7b7b7b;stroke-width:5px;stroke-linecap:butt;"/></g></g><g><path d="M380,1540l0,-80" style="fill:none;stroke:#7b7b7b;stroke-width:5px;stroke-linecap:butt;"/><path d="M420,1540l0,-80" style="fill:none;stroke:#7b7b7b;stroke-width:5px;stroke-linecap:butt;"/><path d="M400,1540l0,-20" style="fill:none;stroke:#7b7b7b;stroke-width:5px;stroke-linecap:butt;"/><path d="M400,1500l0,-20" style="fill:none;stroke:#7b7b7b;stroke-width:5px;stroke-linecap:butt;"/></g><g><path d="M400,1200l200,0l80,80" style="fill:none;stroke:#7b7b7b;stroke-width:2px;stroke-linecap:butt;"/><path d="M410,1210l-10,10" style="fill:none;stroke:#7b7b7b;stroke-width:2px;stroke-linecap:butt;"/><path d="M400,1230l20,-20" style="fill:none;stroke:#7b7b7b;stroke-width:2px;stroke-linecap:butt;"/><path d="M430,1210l-30,30" style="fill:none;stroke:#7b7b7b;stroke-width:2px;stroke-linecap:butt;"/><path d="M400,1250l40,-40" style="fill:none;stroke:#7b7b7b;stroke-width:2px;stroke-linecap:butt;"/><path d="M400,1260l50,-50" style="fill:none;stroke:#7b7b7b;stroke-width:2px;stroke-linecap:butt;"/><path d="M460,1210l-60,60" style="fill:none;stroke:#7b7b7b;stroke-width:2px;stroke-linecap:butt;"/><path d="M410,1270l60,-60" style="fill:none;stroke:#7b7b7b;stroke-width:2px;stroke-linecap:butt;"/><path d="M480,1210l-60,60" style="fill:none;stroke:#7b7b7b;stroke-width:2px;stroke-linecap:butt;"/><path d="M490,1210l-60,60" style="fill:none;stroke:#7b7b7b;stroke-width:2px;stroke-linecap:butt;"/><path d="M500,1210l-60,60" style="fill:none;stroke:#7b7b7b;stroke-width:2px;stroke-linecap:butt;"/><path d="M510,1210l-60,60" style="fill:none;stroke:#7b7b7b;stroke-width:2px;stroke-linecap:butt;"/><path d="M520,1210l-60,60" style="fill:none;stroke:#7b7b7b;stroke-width:2px;stroke-linecap:butt;"/><path d="M470,1270l60,-60" style="fill:none;stroke:#7b7b7b;stroke-width:2px;stroke-linecap:butt;"/><path d="M540,1210l-60,60" style="fill:none;stroke:#7b7b7b;stroke-width:2px;stroke-linecap:butt;"/><path d="M490,1270l60,-60" style="fill:none;stroke:#7b7b7b;stroke-width:2px;stroke-linecap:butt;"/><path d="M560,1210l-60,60" style="fill:none;stroke:#7b7b7b;stroke-width:2px;stroke-linecap:butt;"/><path d="M510,1270l60,-60" style="fill:none;stroke:#7b7b7b;stroke-width:2px;stroke-linecap:butt;"/><path d="M580,1210l-60,60" style="fill:none;stroke:#7b7b7b;stroke-width:2px;stroke-linecap:butt;"/><path d="M530,1270l60,-60" style="fill:none;stroke:#7b7b7b;stroke-width:2px;stroke-linecap:butt;"/><path d="M600,1210l-60,60" style="fill:none;stroke:#7b7b7b;stroke-width:2px;stroke-linecap:butt;"/><path d="M605,1215l-55,55" style="fill:none;stroke:#7b7b7b;stroke-width:2px;stroke-linecap:butt;"/><path d="M560,1270l50,-50" style="fill:none;stroke:#7b7b7b;stroke-width:2px;stroke-linecap:butt;"/><path d="M615,1225l-45,45" style="fill:none;stroke:#7b7b7b;stroke-width:2px;stroke-linecap:butt;"/><path d="M620,1230l-40,40" style="fill:none;stroke:#7b7b7b;stroke-width:2px;stroke-linecap:butt;"/><path d="M590,1270l35,-35" style="fill:none;stroke:#7b7b7b;stroke-width:2px;stroke-linecap:butt;"/><path d="M630,1240l-30,30" style="fill:none;stroke:#7b7b7b;stroke-width:2px;stroke-linecap:butt;"/><path d="M610,1270l25,-25" style="fill:none;stroke:#7b7b7b;stroke-width:2px;stroke-linecap:butt;"/><path d="M640,1250l-20,20" style="fill:none;stroke:#7b7b7b;stroke-width:2px;stroke-linecap:butt;"/><path d="M630,1270l15,-15" style="fill:none;stroke:#7b7b7b;stroke-width:2px;stroke-linecap:butt;"/><path d="M650,1260l-10,10" style="fill:none;stroke:#7b7b7b;stroke-width:2px;stroke-linecap:butt;"/><path d="M650,1270l5,-5" style="fill:none;stroke:#7b7b7b;stroke-width:2px;stroke-linecap:butt;"/><path d="M660,1275l-260,0l-5,-5l0,-60" style="fill:none;stroke:#7b7b7b;stroke-width:2px;stroke-linecap:butt;"/><path d="M390,1210l0,60l10,10l270,0" style="fill:none;stroke:#7b7b7b;stroke-width:2px;stroke-linecap:butt;"/><path d="M400,1205l195,0" style="fill:none;stroke:#7b7b7b;stroke-width:2px;stroke-linecap:butt;"/></g></g><path d="M360,1000l80,0l100,100l20,0l20,20l0,40l-80,0l-20,20l-40,0l-100,-100l0,-60l20,-20Z" style="fill:#868686;"/><clipPath id="_clip8"><path d="M360,1000l80,0l100,100l20,0l20,20l0,40l-80,0l-20,20l-40,0l-100,-100l0,-60l20,-20Z"/></clipPath><g clip-path="url(#_clip8)"><path d="M370,1000l0,80l80,80l30,0l10,-10l70,0l20,20" style="fill:none;stroke:#838383;stroke-width:2px;stroke-linecap:butt;"/><path d="M380,1090l10,0l30,30l0,10l10,10l10,0l10,10l0,10" style="fill:none;stroke:#838383;stroke-width:2px;stroke-linecap:butt;"/><path d="M370,1060l-10,-10l0,-20l10,-10" style="fill:none;stroke:#838383;stroke-width:2px;stroke-linecap:butt;"/><path d="M500,1150l10,-10l30,0l10,10" style="fill:none;stroke:#838383;stroke-width:2px;stroke-linecap:butt;"/><path d="M400,1000l0,40l30,30l10,0l20,20l0,10l30,30l50,0l10,10l30,0" style="fill:none;stroke:#838383;stroke-width:2px;stroke-linecap:butt;"/></g></g><g><path d="M1240,1300l160,-160l60,0l120,-120l180,0l210,210l0,334.645l-730,0l0,-264.645" style="fill:#808080;"/><clipPath id="_clip9"><path d="M1240,1300l160,-160l60,0l120,-120l180,0l210,210l0,334.645l-730,0l0,-264.645"/></clipPath><g clip-path="url(#_clip9)"><path d="M1660,1100l0,460l60,0l0,-460l-60,0Zm80,400l60,0l0,-380l-20,-20l-40,0l0,400Z" style="fill:#7e7e7e;"/><clipPath id="_clip10"><path d="M1660,1100l0,460l60,0l0,-460l-60,0Zm80,400l60,0l0,-380l-20,-20l-40,0l0,400Z"/></clipPath><g clip-path="url(#_clip10)"><path d="M1720,1600l0,-510" style="fill:none;stroke:#7e7e7e;stroke-width:5px;stroke-linecap:butt;"/><path d="M1740,1600l0,-510" style="fill:none;stroke:#7e7e7e;stroke-width:5px;stroke-linecap:butt;"/><g><path d="M1750,1140l10,0l10,10l20,0" style="fill:none;stroke:#7b7b7b;stroke-width:5px;stroke-linecap:butt;"/><path d="M1790,1130l-10,-10l-10,0l0,-10" style="fill:none;stroke:#7b7b7b;stroke-width:5px;stroke-linecap:butt;"/><path d="M1790,1170l-40,0l0,245" style="fill:none;stroke:#7b7b7b;stroke-width:5px;stroke-linecap:butt;"/><path d="M1780,1180l0,130" style="fill:none;stroke:#7b7b7b;stroke-width:5px;stroke-linecap:butt;"/><path d="M1760,1180l0,130" style="fill:none;stroke:#7b7b7b;stroke-width:5px;stroke-linecap:butt;"/><path d="M1710,1110l-10,10l-30,0l0,160l-20,20" style="fill:none;stroke:#7b7b7b;stroke-width:5px;stroke-linecap:butt;"/><path d="M1710,1130l-10,10l-10,0l0,235" style="fill:none;stroke:#7b7b7b;stroke-width:5px;stroke-linecap:butt;"/><path d="M1680,1290l-30,30" style="fill:none;stroke:#7b7b7b;stroke-width:5px;stroke-linecap:butt;"/><path d="M1750,1130l10,0l10,10l20,0" style="fill:none;stroke:#7b7b7b;stroke-width:5px;stroke-linecap:butt;"/></g></g><g><path d="M1620,1540l0,-80" style="fill:none;stroke:#7b7b7b;stroke-width:5px;stroke-linecap:butt;"/><path d="M1580,1540l0,-80" style="fill:none;stroke:#7b7b7b;stroke-width:5px;stroke-linecap:butt;"/><path d="M1600,1540l0,-20" style="fill:none;stroke:#7b7b7b;stroke-width:5px;stroke-linecap:butt;"/><path d="M1600,1500l0,-20" style="fill:none;stroke:#7b7b7b;stroke-width:5px;stroke-linecap:butt;"/></g><g><path d="M1600,1200l-200,0l-80,80" style="fill:none;stroke:#7b7b7b;stroke-width:2px;stroke-linecap:butt;"/><path d="M1590,1210l10,10" style="fill:none;stroke:#7b7b7b;stroke-width:2px;stroke-linecap:butt;"/><path d="M1600,1230l-20,-20" style="fill:none;stroke:#7b7b7b;stroke-width:2px;stroke-linecap:butt;"/><path d="M1570,1210l30,30" style="fill:none;stroke:#7b7b7b;stroke-width:2px;stroke-linecap:butt;"/><path d="M1600,1250l-40,-40" style="fill:none;stroke:#7b7b7b;stroke-width:2px;stroke-linecap:butt;"/><path d="M1600,1260l-50,-50" style="fill:none;stroke:#7b7b7b;stroke-width:2px;stroke-linecap:butt;"/><path d="M1540,1210l60,60" style="fill:none;stroke:#7b7b7b;stroke-width:2px;stroke-linecap:butt;"/><path d="M1590,1270l-60,-60" style="fill:none;stroke:#7b7b7b;stroke-width:2px;stroke-linecap:butt;"/><path d="M1520,1210l60,60" style="fill:none;stroke:#7b7b7b;stroke-width:2px;stroke-linecap:butt;"/><path d="M1510,1210l60,60" style="fill:none;stroke:#7b7b7b;stroke-width:2px;stroke-linecap:butt;"/><path d="M1500,1210l60,60" style="fill:none;stroke:#7b7b7b;stroke-width:2px;stroke-linecap:butt;"/><path d="M1490,1210l60,60" style="fill:none;stroke:#7b7b7b;stroke-width:2px;stroke-linecap:butt;"/><path d="M1480,1210l60,60" style="fill:none;stroke:#7b7b7b;stroke-width:2px;stroke-linecap:butt;"/><path d="M1530,1270l-60,-60" style="fill:none;stroke:#7b7b7b;stroke-width:2px;stroke-linecap:butt;"/><path d="M1460,1210l60,60" style="fill:none;stroke:#7b7b7b;stroke-width:2px;stroke-linecap:butt;"/><path d="M1510,1270l-60,-60" style="fill:none;stroke:#7b7b7b;stroke-width:2px;stroke-linecap:butt;"/><path d="M1440,1210l60,60" style="fill:none;stroke:#7b7b7b;stroke-width:2px;stroke-linecap:butt;"/><path d="M1490,1270l-60,-60" style="fill:none;stroke:#7b7b7b;stroke-width:2px;stroke-linecap:butt;"/><path d="M1420,1210l60,60" style="fill:none;stroke:#7b7b7b;stroke-width:2px;stroke-linecap:butt;"/><path d="M1470,1270l-60,-60" style="fill:none;stroke:#7b7b7b;stroke-width:2px;stroke-linecap:butt;"/><path d="M1400,1210l60,60" style="fill:none;stroke:#7b7b7b;stroke-width:2px;stroke-linecap:butt;"/><path d="M1395,1215l55,55" style="fill:none;stroke:#7b7b7b;stroke-width:2px;stroke-linecap:butt;"/><path d="M1440,1270l-50,-50" style="fill:none;stroke:#7b7b7b;stroke-width:2px;stroke-linecap:butt;"/><path d="M1385,1225l45,45" style="fill:none;stroke:#7b7b7b;stroke-width:2px;stroke-linecap:butt;"/><path d="M1380,1230l40,40" style="fill:none;stroke:#7b7b7b;stroke-width:2px;stroke-linecap:butt;"/><path d="M1410,1270l-35,-35" style="fill:none;stroke:#7b7b7b;stroke-width:2px;stroke-linecap:butt;"/><path d="M1370,1240l30,30" style="fill:none;stroke:#7b7b7b;stroke-width:2px;stroke-linecap:butt;"/><path d="M1390,1270l-25,-25" style="fill:none;stroke:#7b7b7b;stroke-width:2px;stroke-linecap:butt;"/><path d="M1360,1250l20,20" style="fill:none;stroke:#7b7b7b;stroke-width:2px;stroke-linecap:butt;"/><path d="M1370,1270l-15,-15" style="fill:none;stroke:#7b7b7b;stroke-width:2px;stroke-linecap:butt;"/><path d="M1350,1260l10,10" style="fill:none;stroke:#7b7b7b;stroke-width:2px;stroke-linecap:butt;"/><path d="M1350,1270l-5,-5" style="fill:none;stroke:#7b7b7b;stroke-width:2px;stroke-linecap:butt;"/><path d="M1340,1275l260,0l5,-5l0,-60" style="fill:none;stroke:#7b7b7b;stroke-width:2px;stroke-linecap:butt;"/><path d="M1610,1210l0,60l-10,10l-270,0" style="fill:none;stroke:#7b7b7b;stroke-width:2px;stroke-linecap:butt;"/><path d="M1600,1205l-195,0" style="fill:none;stroke:#7b7b7b;stroke-width:2px;stroke-linecap:butt;"/></g></g><path d="M1640,1000l-80,0l-100,100l-20,0l-20,20l0,40l80,0l20,20l40,0l100,-100l0,-60l-20,-20Z" style="fill:#868686;"/><clipPath id="_clip11"><path d="M1640,1000l-80,0l-100,100l-20,0l-20,20l0,40l80,0l20,20l40,0l100,-100l0,-60l-20,-20Z"/></clipPath><g clip-path="url(#_clip11)"><path d="M1630,1000l0,80l-80,80l-30,0l-10,-10l-70,0l-20,20" style="fill:none;stroke:#838383;stroke-width:2px;stroke-linecap:butt;"/><path d="M1620,1090l-10,0l-30,30l0,10l-10,10l-10,0l-10,10l0,10" style="fill:none;stroke:#838383;stroke-width:2px;stroke-linecap:butt;"/><path d="M1630,1060l10,-10l0,-20l-10,-10" style="fill:none;stroke:#838383;stroke-width:2px;stroke-linecap:butt;"/><path d="M1500,1150l-10,-10l-30,0l-10,10" style="fill:none;stroke:#838383;stroke-width:2px;stroke-linecap:butt;"/><path d="M1600,1000l0,40l-30,30l-10,0l-20,20l0,10l-30,30l-50,0l-10,10l-30,0" style="fill:none;stroke:#838383;stroke-width:2px;stroke-linecap:butt;"/></g></g></g><g><path d="M823.333,1000l93.334,0l23.333,-23.333l0,-186.667l-23.333,-23.333l-93.334,0l-23.333,23.333l0,186.667l23.333,23.333Z" style="fill:#808080;"/><clipPath id="_clip12"><path d="M823.333,1000l93.334,0l23.333,-23.333l0,-186.667l-23.333,-23.333l-93.334,0l-23.333,23.333l0,186.667l23.333,23.333Z"/></clipPath><g clip-path="url(#_clip12)"><path d="M810,970l20,20l80,0l20,-20l0,-46.667l6.667,-6.666l13.333,0l0,-66.667l-13.333,0l-6.667,-6.667l0,-46.666l-20,-20l-80,0l-20,20l0,173.333" style="fill:#757575;stroke:#7b7b7b;stroke-width:2px;"/><path d="M898.632,950.269c0,-5.268 4.277,-9.544 9.544,-9.544c5.268,0 9.544,4.276 9.544,9.544c0,5.267 -4.276,9.544 -9.544,9.544c-5.267,0 -9.544,-4.277 -9.544,-9.544Zm0,-22.295c0,-5.268 4.277,-9.544 9.544,-9.544c5.268,0 9.544,4.276 9.544,9.544c0,5.267 -4.276,9.544 -9.544,9.544c-5.267,0 -9.544,-4.277 -9.544,-9.544Zm0,-22.27c0,-5.267 4.277,-9.544 9.544,-9.544c5.268,0 9.544,4.277 9.544,9.544c0,5.268 -4.276,9.544 -9.544,9.544c-5.267,0 -9.544,-4.276 -9.544,-9.544Zm0,-22.269c0,-5.268 4.277,-9.544 9.544,-9.544c5.268,0 9.544,4.276 9.544,9.544c0,5.267 -4.276,9.544 -9.544,9.544c-5.267,0 -9.544,-4.277 -9.544,-9.544Zm0,-22.27c0,-5.267 4.277,-9.544 9.544,-9.544c5.268,0 9.544,4.277 9.544,9.544c0,5.268 -4.276,9.544 -9.544,9.544c-5.267,0 -9.544,-4.276 -9.544,-9.544Zm0,-22.269c0,-5.268 4.277,-9.544 9.544,-9.544c5.268,0 9.544,4.276 9.544,9.544c0,5.267 -4.276,9.544 -9.544,9.544c-5.267,0 -9.544,-4.277 -9.544,-9.544Zm0,-22.27c0,-5.267 4.277,-9.544 9.544,-9.544c5.268,0 9.544,4.277 9.544,9.544c0,5.268 -4.276,9.544 -9.544,9.544c-5.267,0 -9.544,-4.276 -9.544,-9.544Zm-19.088,144.663c0,-5.267 4.277,-9.544 9.544,-9.544c5.268,0 9.544,4.277 9.544,9.544c0,5.268 -4.276,9.544 -9.544,9.544c-5.267,0 -9.544,-4.276 -9.544,-9.544Zm0,-22.269c0,-5.268 4.277,-9.544 9.544,-9.544c5.268,0 9.544,4.276 9.544,9.544c0,5.267 -4.276,9.544 -9.544,9.544c-5.267,0 -9.544,-4.277 -9.544,-9.544Zm0,-22.295c0,-5.268 4.277,-9.544 9.544,-9.544c5.268,0 9.544,4.276 9.544,9.544c0,5.267 -4.276,9.544 -9.544,9.544c-5.267,0 -9.544,-4.277 -9.544,-9.544Zm0,-22.27c0,-5.267 4.277,-9.544 9.544,-9.544c5.268,0 9.544,4.277 9.544,9.544c0,5.268 -4.276,9.545 -9.544,9.545c-5.267,0 -9.544,-4.277 -9.544,-9.545Zm0,-22.269c0,-5.268 4.277,-9.544 9.544,-9.544c5.268,0 9.544,4.276 9.544,9.544c0,5.267 -4.276,9.544 -9.544,9.544c-5.267,0 -9.544,-4.277 -9.544,-9.544Zm0,-22.27c0,-5.267 4.277,-9.544 9.544,-9.544c5.268,0 9.544,4.277 9.544,9.544c0,5.268 -4.276,9.545 -9.544,9.545c-5.267,0 -9.544,-4.277 -9.544,-9.545Zm0,-22.269c0,-5.268 4.277,-9.544 9.544,-9.544c5.268,0 9.544,4.276 9.544,9.544c0,5.267 -4.276,9.544 -9.544,9.544c-5.267,0 -9.544,-4.277 -9.544,-9.544Zm0,-22.27c0,-5.267 4.277,-9.544 9.544,-9.544c5.268,0 9.544,4.277 9.544,9.544c0,5.268 -4.276,9.544 -9.544,9.544c-5.267,0 -9.544,-4.276 -9.544,-9.544Zm-19.088,144.892c0,-5.268 4.276,-9.544 9.544,-9.544c5.268,0 9.544,4.276 9.544,9.544c0,5.267 -4.276,9.544 -9.544,9.544c-5.268,0 -9.544,-4.277 -9.544,-9.544Zm0,-22.295c0,-5.268 4.276,-9.544 9.544,-9.544c5.268,0 9.544,4.276 9.544,9.544c0,5.267 -4.276,9.544 -9.544,9.544c-5.268,0 -9.544,-4.277 -9.544,-9.544Zm0,-22.27c0,-5.267 4.276,-9.544 9.544,-9.544c5.268,0 9.544,4.277 9.544,9.544c0,5.268 -4.276,9.544 -9.544,9.544c-5.268,0 -9.544,-4.276 -9.544,-9.544Zm0,-22.269c0,-5.268 4.276,-9.544 9.544,-9.544c5.268,0 9.544,4.276 9.544,9.544c0,5.267 -4.276,9.544 -9.544,9.544c-5.268,0 -9.544,-4.277 -9.544,-9.544Zm0,-44.539c0,-5.268 4.276,-9.544 9.544,-9.544c5.268,0 9.544,4.276 9.544,9.544c0,5.267 -4.276,9.544 -9.544,9.544c-5.268,0 -9.544,-4.277 -9.544,-9.544Zm0,-22.27c0,-5.267 4.276,-9.544 9.544,-9.544c5.268,0 9.544,4.277 9.544,9.544c0,5.268 -4.276,9.544 -9.544,9.544c-5.268,0 -9.544,-4.276 -9.544,-9.544Zm0,44.539c0,-5.267 4.276,-9.544 9.544,-9.544c5.268,0 9.544,4.277 9.544,9.544c0,5.268 -4.276,9.544 -9.544,9.544c-5.268,0 -9.544,-4.276 -9.544,-9.544Zm-19.088,100.124c0,-5.267 4.276,-9.544 9.544,-9.544c5.267,0 9.544,4.277 9.544,9.544c0,5.268 -4.277,9.544 -9.544,9.544c-5.268,0 -9.544,-4.276 -9.544,-9.544Zm0,-22.269c0,-5.268 4.276,-9.544 9.544,-9.544c5.267,0 9.544,4.276 9.544,9.544c0,5.267 -4.277,9.544 -9.544,9.544c-5.268,0 -9.544,-4.277 -9.544,-9.544Zm0,-22.295c0,-5.268 4.276,-9.544 9.544,-9.544c5.267,0 9.544,4.276 9.544,9.544c0,5.267 -4.277,9.544 -9.544,9.544c-5.268,0 -9.544,-4.277 -9.544,-9.544Zm0,-22.27c0,-5.267 4.276,-9.544 9.544,-9.544c5.267,0 9.544,4.277 9.544,9.544c0,5.268 -4.277,9.545 -9.544,9.545c-5.268,0 -9.544,-4.277 -9.544,-9.545Zm0,-22.269c0,-5.268 4.276,-9.544 9.544,-9.544c5.267,0 9.544,4.276 9.544,9.544c0,5.267 -4.277,9.544 -9.544,9.544c-5.268,0 -9.544,-4.277 -9.544,-9.544Zm0,-22.27c0,-5.267 4.276,-9.544 9.544,-9.544c5.267,0 9.544,4.277 9.544,9.544c0,5.268 -4.277,9.545 -9.544,9.545c-5.268,0 -9.544,-4.277 -9.544,-9.545Zm0,-22.269c0,-5.268 4.276,-9.544 9.544,-9.544c5.267,0 9.544,4.276 9.544,9.544c0,5.267 -4.277,9.544 -9.544,9.544c-5.268,0 -9.544,-4.277 -9.544,-9.544Zm0,-22.27c0,-5.267 4.276,-9.544 9.544,-9.544c5.267,0 9.544,4.277 9.544,9.544c0,5.268 -4.277,9.544 -9.544,9.544c-5.268,0 -9.544,-4.276 -9.544,-9.544Zm-19.088,144.892c0,-5.268 4.276,-9.544 9.544,-9.544c5.267,0 9.544,4.276 9.544,9.544c0,5.267 -4.277,9.544 -9.544,9.544c-5.268,0 -9.544,-4.277 -9.544,-9.544Zm0,-22.295c0,-5.268 4.276,-9.544 9.544,-9.544c5.267,0 9.544,4.276 9.544,9.544c0,5.267 -4.277,9.544 -9.544,9.544c-5.268,0 -9.544,-4.277 -9.544,-9.544Zm0,-22.27c0,-5.267 4.276,-9.544 9.544,-9.544c5.267,0 9.544,4.277 9.544,9.544c0,5.268 -4.277,9.544 -9.544,9.544c-5.268,0 -9.544,-4.276 -9.544,-9.544Zm0,-22.269c0,-5.268 4.276,-9.544 9.544,-9.544c5.267,0 9.544,4.276 9.544,9.544c0,5.267 -4.277,9.544 -9.544,9.544c-5.268,0 -9.544,-4.277 -9.544,-9.544Zm0,-22.27c0,-5.267 4.276,-9.544 9.544,-9.544c5.267,0 9.544,4.277 9.544,9.544c0,5.268 -4.277,9.544 -9.544,9.544c-5.268,0 -9.544,-4.276 -9.544,-9.544Zm0,-22.269c0,-5.268 4.276,-9.544 9.544,-9.544c5.267,0 9.544,4.276 9.544,9.544c0,5.267 -4.277,9.544 -9.544,9.544c-5.268,0 -9.544,-4.277 -9.544,-9.544Zm0,-22.27c0,-5.267 4.276,-9.544 9.544,-9.544c5.267,0 9.544,4.277 9.544,9.544c0,5.268 -4.277,9.544 -9.544,9.544c-5.268,0 -9.544,-4.276 -9.544,-9.544Z" style="fill:#3f3f3f;"/></g><path d="M823.333,1000l93.334,0l23.333,-23.333l0,-186.667l-23.333,-23.333l-93.334,0l-23.333,23.333l0,186.667l23.333,23.333Z" style="fill:none;stroke:#757575;stroke-width:2px;"/><path d="M917.081,1001l-94.162,0l-23.919,-23.919l0,-187.495l23.919,-23.919l94.162,0l23.919,23.919l0,61.414l-2,0l0,-60.586l-22.748,-22.747l-92.504,0l-22.748,22.747l0,185.838l22.748,22.748l92.504,0l22.748,-22.748l0,-60.585l2,0l0,61.414l-23.919,23.919Z" style="fill:#7b7b7b;"/></g><g><path d="M1176.67,1000l-93.334,0l-23.333,-23.333l0,-186.667l23.333,-23.333l93.334,0l23.333,23.333l0,186.667l-23.333,23.333Z" style="fill:#808080;"/><clipPath id="_clip13"><path d="M1176.67,1000l-93.334,0l-23.333,-23.333l0,-186.667l23.333,-23.333l93.334,0l23.333,23.333l0,186.667l-23.333,23.333Z"/></clipPath><g clip-path="url(#_clip13)"><path d="M1190,970l-20,20l-80,0l-20,-20l0,-46.667l-6.667,-6.666l-13.333,0l0,-66.667l13.333,0l6.667,-6.667l0,-46.666l20,-20l80,0l20,20l0,173.333" style="fill:#757575;stroke:#7b7b7b;stroke-width:2px;"/><path d="M1101.37,950.269c0,-5.268 -4.277,-9.544 -9.544,-9.544c-5.268,0 -9.544,4.276 -9.544,9.544c0,5.267 4.276,9.544 9.544,9.544c5.267,0 9.544,-4.277 9.544,-9.544Zm0,-22.295c0,-5.268 -4.277,-9.544 -9.544,-9.544c-5.268,0 -9.544,4.276 -9.544,9.544c0,5.267 4.276,9.544 9.544,9.544c5.267,0 9.544,-4.277 9.544,-9.544Zm0,-22.27c0,-5.267 -4.277,-9.544 -9.544,-9.544c-5.268,0 -9.544,4.277 -9.544,9.544c0,5.268 4.276,9.544 9.544,9.544c5.267,0 9.544,-4.276 9.544,-9.544Zm0,-22.269c0,-5.268 -4.277,-9.544 -9.544,-9.544c-5.268,0 -9.544,4.276 -9.544,9.544c0,5.267 4.276,9.544 9.544,9.544c5.267,0 9.544,-4.277 9.544,-9.544Zm0,-22.27c0,-5.267 -4.277,-9.544 -9.544,-9.544c-5.268,0 -9.544,4.277 -9.544,9.544c0,5.268 4.276,9.544 9.544,9.544c5.267,0 9.544,-4.276 9.544,-9.544Zm0,-22.269c0,-5.268 -4.277,-9.544 -9.544,-9.544c-5.268,0 -9.544,4.276 -9.544,9.544c0,5.267 4.276,9.544 9.544,9.544c5.267,0 9.544,-4.277 9.544,-9.544Zm0,-22.27c0,-5.267 -4.277,-9.544 -9.544,-9.544c-5.268,0 -9.544,4.277 -9.544,9.544c0,5.268 4.276,9.544 9.544,9.544c5.267,0 9.544,-4.276 9.544,-9.544Zm19.088,144.663c0,-5.267 -4.277,-9.544 -9.544,-9.544c-5.268,0 -9.544,4.277 -9.544,9.544c0,5.268 4.276,9.544 9.544,9.544c5.267,0 9.544,-4.276 9.544,-9.544Zm0,-22.269c0,-5.268 -4.277,-9.544 -9.544,-9.544c-5.268,0 -9.544,4.276 -9.544,9.544c0,5.267 4.276,9.544 9.544,9.544c5.267,0 9.544,-4.277 9.544,-9.544Zm0,-22.295c0,-5.268 -4.277,-9.544 -9.544,-9.544c-5.268,0 -9.544,4.276 -9.544,9.544c0,5.267 4.276,9.544 9.544,9.544c5.267,0 9.544,-4.277 9.544,-9.544Zm0,-22.27c0,-5.267 -4.277,-9.544 -9.544,-9.544c-5.268,0 -9.544,4.277 -9.544,9.544c0,5.268 4.276,9.545 9.544,9.545c5.267,0 9.544,-4.277 9.544,-9.545Zm0,-22.269c0,-5.268 -4.277,-9.544 -9.544,-9.544c-5.268,0 -9.544,4.276 -9.544,9.544c0,5.267 4.276,9.544 9.544,9.544c5.267,0 9.544,-4.277 9.544,-9.544Zm0,-22.27c0,-5.267 -4.277,-9.544 -9.544,-9.544c-5.268,0 -9.544,4.277 -9.544,9.544c0,5.268 4.276,9.545 9.544,9.545c5.267,0 9.544,-4.277 9.544,-9.545Zm0,-22.269c0,-5.268 -4.277,-9.544 -9.544,-9.544c-5.268,0 -9.544,4.276 -9.544,9.544c0,5.267 4.276,9.544 9.544,9.544c5.267,0 9.544,-4.277 9.544,-9.544Zm0,-22.27c0,-5.267 -4.277,-9.544 -9.544,-9.544c-5.268,0 -9.544,4.277 -9.544,9.544c0,5.268 4.276,9.544 9.544,9.544c5.267,0 9.544,-4.276 9.544,-9.544Zm19.088,144.892c0,-5.268 -4.276,-9.544 -9.544,-9.544c-5.268,0 -9.544,4.276 -9.544,9.544c0,5.267 4.276,9.544 9.544,9.544c5.268,0 9.544,-4.277 9.544,-9.544Zm0,-22.295c0,-5.268 -4.276,-9.544 -9.544,-9.544c-5.268,0 -9.544,4.276 -9.544,9.544c0,5.267 4.276,9.544 9.544,9.544c5.268,0 9.544,-4.277 9.544,-9.544Zm0,-22.27c0,-5.267 -4.276,-9.544 -9.544,-9.544c-5.268,0 -9.544,4.277 -9.544,9.544c0,5.268 4.276,9.544 9.544,9.544c5.268,0 9.544,-4.276 9.544,-9.544Zm0,-22.269c0,-5.268 -4.276,-9.544 -9.544,-9.544c-5.268,0 -9.544,4.276 -9.544,9.544c0,5.267 4.276,9.544 9.544,9.544c5.268,0 9.544,-4.277 9.544,-9.544Zm0,-44.539c0,-5.268 -4.276,-9.544 -9.544,-9.544c-5.268,0 -9.544,4.276 -9.544,9.544c0,5.267 4.276,9.544 9.544,9.544c5.268,0 9.544,-4.277 9.544,-9.544Zm0,-22.27c0,-5.267 -4.276,-9.544 -9.544,-9.544c-5.268,0 -9.544,4.277 -9.544,9.544c0,5.268 4.276,9.544 9.544,9.544c5.268,0 9.544,-4.276 9.544,-9.544Zm0,44.539c0,-5.267 -4.276,-9.544 -9.544,-9.544c-5.268,0 -9.544,4.277 -9.544,9.544c0,5.268 4.276,9.544 9.544,9.544c5.268,0 9.544,-4.276 9.544,-9.544Zm19.088,100.124c0,-5.267 -4.276,-9.544 -9.544,-9.544c-5.267,0 -9.544,4.277 -9.544,9.544c0,5.268 4.277,9.544 9.544,9.544c5.268,0 9.544,-4.276 9.544,-9.544Zm0,-22.269c0,-5.268 -4.276,-9.544 -9.544,-9.544c-5.267,0 -9.544,4.276 -9.544,9.544c0,5.267 4.277,9.544 9.544,9.544c5.268,0 9.544,-4.277 9.544,-9.544Zm0,-22.295c0,-5.268 -4.276,-9.544 -9.544,-9.544c-5.267,0 -9.544,4.276 -9.544,9.544c0,5.267 4.277,9.544 9.544,9.544c5.268,0 9.544,-4.277 9.544,-9.544Zm0,-22.27c0,-5.267 -4.276,-9.544 -9.544,-9.544c-5.267,0 -9.544,4.277 -9.544,9.544c0,5.268 4.277,9.545 9.544,9.545c5.268,0 9.544,-4.277 9.544,-9.545Zm0,-22.269c0,-5.268 -4.276,-9.544 -9.544,-9.544c-5.267,0 -9.544,4.276 -9.544,9.544c0,5.267 4.277,9.544 9.544,9.544c5.268,0 9.544,-4.277 9.544,-9.544Zm0,-22.27c0,-5.267 -4.276,-9.544 -9.544,-9.544c-5.267,0 -9.544,4.277 -9.544,9.544c0,5.268 4.277,9.545 9.544,9.545c5.268,0 9.544,-4.277 9.544,-9.545Zm0,-22.269c0,-5.268 -4.276,-9.544 -9.544,-9.544c-5.267,0 -9.544,4.276 -9.544,9.544c0,5.267 4.277,9.544 9.544,9.544c5.268,0 9.544,-4.277 9.544,-9.544Zm0,-22.27c0,-5.267 -4.276,-9.544 -9.544,-9.544c-5.267,0 -9.544,4.277 -9.544,9.544c0,5.268 4.277,9.544 9.544,9.544c5.268,0 9.544,-4.276 9.544,-9.544Zm19.088,144.892c0,-5.268 -4.276,-9.544 -9.544,-9.544c-5.267,0 -9.544,4.276 -9.544,9.544c0,5.267 4.277,9.544 9.544,9.544c5.268,0 9.544,-4.277 9.544,-9.544Zm0,-22.295c0,-5.268 -4.276,-9.544 -9.544,-9.544c-5.267,0 -9.544,4.276 -9.544,9.544c0,5.267 4.277,9.544 9.544,9.544c5.268,0 9.544,-4.277 9.544,-9.544Zm0,-22.27c0,-5.267 -4.276,-9.544 -9.544,-9.544c-5.267,0 -9.544,4.277 -9.544,9.544c0,5.268 4.277,9.544 9.544,9.544c5.268,0 9.544,-4.276 9.544,-9.544Zm0,-22.269c0,-5.268 -4.276,-9.544 -9.544,-9.544c-5.267,0 -9.544,4.276 -9.544,9.544c0,5.267 4.277,9.544 9.544,9.544c5.268,0 9.544,-4.277 9.544,-9.544Zm0,-22.27c0,-5.267 -4.276,-9.544 -9.544,-9.544c-5.267,0 -9.544,4.277 -9.544,9.544c0,5.268 4.277,9.544 9.544,9.544c5.268,0 9.544,-4.276 9.544,-9.544Zm0,-22.269c0,-5.268 -4.276,-9.544 -9.544,-9.544c-5.267,0 -9.544,4.276 -9.544,9.544c0,5.267 4.277,9.544 9.544,9.544c5.268,0 9.544,-4.277 9.544,-9.544Zm0,-22.27c0,-5.267 -4.276,-9.544 -9.544,-9.544c-5.267,0 -9.544,4.277 -9.544,9.544c0,5.268 4.277,9.544 9.544,9.544c5.268,0 9.544,-4.276 9.544,-9.544Z" style="fill:#3f3f3f;"/></g><path d="M1176.67,1000l-93.334,0l-23.333,-23.333l0,-186.667l23.333,-23.333l93.334,0l23.333,23.333l0,186.667l-23.333,23.333Z" style="fill:none;stroke:#757575;stroke-width:2px;"/><path d="M1083.75,999l92.504,0l22.748,-22.748l0,-185.838l-22.748,-22.747l-92.504,0l-22.748,22.747l0,60.586l-2,0l0,-61.414l23.919,-23.919l94.162,0l23.919,23.919l0,187.495l-23.919,23.919l-94.162,0l-23.919,-23.919l0,-61.414l2,0l0,60.585l22.748,22.748Z" style="fill:#7b7b7b;"/></g><g><g><g><path d="M913.536,1100l-23.536,23.536l-3.536,-3.536l23.536,-23.536l3.536,3.536Z" style="fill:#7e7e7e;"/><path d="M913.536,1160l-3.536,3.536l-23.536,-23.536l3.536,-3.536l23.536,23.536Z" style="fill:#7e7e7e;"/><path d="M873.536,1140l-23.536,23.536l-3.536,-3.536l23.536,-23.536l3.536,3.536Z" style="fill:#7e7e7e;"/><path d="M873.536,1120l-3.536,3.536l-23.536,-23.536l3.536,-3.536l23.536,23.536Z" style="fill:#7e7e7e;"/></g><g><path d="M913.536,1280l-23.536,23.536l-3.536,-3.536l23.536,-23.536l3.536,3.536Z" style="fill:#7e7e7e;"/><path d="M913.536,1340l-3.536,3.536l-23.536,-23.536l3.536,-3.536l23.536,23.536Z" style="fill:#7e7e7e;"/><path d="M873.536,1320l-23.536,23.536l-3.536,-3.536l23.536,-23.536l3.536,3.536Z" style="fill:#7e7e7e;"/><path d="M873.536,1300l-3.536,3.536l-23.536,-23.536l3.536,-3.536l23.536,23.536Z" style="fill:#7e7e7e;"/></g><g><path d="M1153.54,1100l-23.536,23.536l-3.536,-3.536l23.536,-23.536l3.536,3.536Z" style="fill:#7e7e7e;"/><path d="M1153.54,1160l-3.536,3.536l-23.536,-23.536l3.536,-3.536l23.536,23.536Z" style="fill:#7e7e7e;"/><path d="M1113.54,1140l-23.536,23.536l-3.536,-3.536l23.536,-23.536l3.536,3.536Z" style="fill:#7e7e7e;"/><path d="M1113.54,1120l-3.536,3.536l-23.536,-23.536l3.536,-3.536l23.536,23.536Z" style="fill:#7e7e7e;"/></g><g><path d="M1153.54,1280l-23.536,23.536l-3.536,-3.536l23.536,-23.536l3.536,3.536Z" style="fill:#7e7e7e;"/><path d="M1153.54,1340l-3.536,3.536l-23.536,-23.536l3.536,-3.536l23.536,23.536Z" style="fill:#7e7e7e;"/><path d="M1113.54,1320l-23.536,23.536l-3.536,-3.536l23.536,-23.536l3.536,3.536Z" style="fill:#7e7e7e;"/><path d="M1113.54,1300l-3.536,3.536l-23.536,-23.536l3.536,-3.536l23.536,23.536Z" style="fill:#7e7e7e;"/></g></g><g><rect x="868.024" y="1178.02" width="23.953" height="3.953" style="fill:#7e7e7e;"/><rect x="868.024" y="1198.02" width="23.953" height="3.953" style="fill:#7e7e7e;"/><rect x="868.024" y="1218.02" width="23.953" height="3.953" style="fill:#7e7e7e;"/><rect x="868.024" y="1238.02" width="23.953" height="3.953" style="fill:#7e7e7e;"/><rect x="868.024" y="1258.02" width="23.953" height="3.953" style="fill:#7e7e7e;"/></g><g><rect x="1108.02" y="1178.02" width="23.953" height="3.953" style="fill:#7e7e7e;"/><rect x="1108.02" y="1198.02" width="23.953" height="3.953" style="fill:#7e7e7e;"/><rect x="1108.02" y="1218.02" width="23.953" height="3.953" style="fill:#7e7e7e;"/><rect x="1108.02" y="1238.02" width="23.953" height="3.953" style="fill:#7e7e7e;"/><rect x="1108.02" y="1258.02" width="23.953" height="3.953" style="fill:#7e7e7e;"/></g></g><g><path d="M140,560l20,-20" style="fill:none;stroke:#767676;stroke-width:5px;"/><path d="M120,560l40,-40" style="fill:none;stroke:#767676;stroke-width:5px;"/><path d="M160,500l-60,60" style="fill:none;stroke:#767676;stroke-width:5px;"/><path d="M140,500l-60,60" style="fill:none;stroke:#767676;stroke-width:5px;"/><path d="M60,560l60,-60" style="fill:none;stroke:#767676;stroke-width:5px;"/><path d="M100,500l-60,60" style="fill:none;stroke:#767676;stroke-width:5px;"/><path d="M40,540l40,-40" style="fill:none;stroke:#767676;stroke-width:5px;"/><path d="M40,520l20,-20" style="fill:none;stroke:#767676;stroke-width:5px;"/></g><g><path d="M1860,564l-20,-20" style="fill:none;stroke:#767676;stroke-width:5px;"/><path d="M1880,564l-40,-40" style="fill:none;stroke:#767676;stroke-width:5px;"/><path d="M1840,504l60,60" style="fill:none;stroke:#767676;stroke-width:5px;"/><path d="M1860,504l60,60" style="fill:none;stroke:#767676;stroke-width:5px;"/><path d="M1940,564l-60,-60" style="fill:none;stroke:#767676;stroke-width:5px;"/><path d="M1900,504l60,60" style="fill:none;stroke:#767676;stroke-width:5px;"/><path d="M1960,544l-40,-40" style="fill:none;stroke:#767676;stroke-width:5px;"/><path d="M1960,524l-20,-20" style="fill:none;stroke:#767676;stroke-width:5px;"/></g></svg>