<?xml version="1.0" encoding="UTF-8" standalone="no"?><!DOCTYPE svg PUBLIC "-//W3C//DTD SVG 1.1//EN" "http://www.w3.org/Graphics/SVG/1.1/DTD/svg11.dtd"><svg width="100%" height="100%" viewBox="0 0 2000 2000" version="1.1" xmlns="http://www.w3.org/2000/svg" xmlns:xlink="http://www.w3.org/1999/xlink" xml:space="preserve" xmlns:serif="http://www.serif.com/" style="fill-rule:evenodd;clip-rule:evenodd;stroke-linecap:round;stroke-linejoin:round;stroke-miterlimit:1.5;"><path d="M880,1220l40,0l160,160l260,0l40,40l0,20l-500,0l0,-220Z" style="fill:#8a8a8a;"/><path d="M540,1160l320,0l40,40l0,60l20,20l0,100l20,20l330,0l30,30l100,0l0,70l40,40l0,160l-80,80l-320,0l-80,-80l-60,0l-100,-100l-300,0l-40,-40l0,-160l-60,-60l0,-240l20,-20l40,0l80,80Zm300,290l0,-10l-340,0l0,10l340,0Zm0,-20l0,-10l-340,0l0,10l340,0Zm0,-20l0,-10l-340,0l0,10l340,0Zm0,-20l0,-10l-340,0l0,10l340,0Zm0,-20l0,-10l-340,0l0,10l340,0Zm0,-20l0,-10l-340,0l0,10l340,0Zm0,-20l0,-10l-340,0l0,10l340,0Zm0,-20l0,-10l-340,0l0,10l340,0Zm0,-20l0,-10l-340,0l0,10l340,0Zm0,-20l0,-10l-340,0l0,10l340,0Zm0,-20l0,-10l-340,0l0,10l340,0Zm0,-20l0,-10l-340,0l0,10l340,0Zm0,-20l0,-10l-340,0l0,10l340,0Zm400,-910l260,0l0,260l-200,0l-60,60l0,360l-17.5,0l-42.5,42.5l-277.5,0l-42.5,-42.5l-320,0l-40,-40l0,-140l40,-40l0,-220l-40,-40l0,-200l400,0l40,-40l260,0l40,40Zm-80,20l-20,0l220,220l20,0l-220,-220Zm180,220l-220,-220l0,20l200,200l20,0Zm-200,0l-20,-20l0,20l20,0Zm100,-220l-20,0l220,220l20,0l-220,-220Zm-40,0l-20,0l220,220l20,0l-220,-220Zm80,0l-20,0l220,220l0,-20l-200,-200Zm20,220l-180,-180l0,20l160,160l20,0Zm-40,0l-140,-140l0,20l120,120l20,0Zm-40,0l-100,-100l0,20l80,80l20,0Zm-40,0l-60,-60l0,20l40,40l20,0Zm140,-220l-20,0l180,180l0,-20l-160,-160Zm40,0l-20,0l140,140l0,-20l-120,-120Zm40,0l-20,0l100,100l0,-20l-80,-80Zm40,0l-20,0l60,60l0,-20l-40,-40Zm40,0l-20,0l20,20l0,-20Z" style="fill:#8c8c8c;"/><g><clipPath id="_clip1"><path d="M540,1160l320,0l40,40l0,60l20,20l0,100l20,20l330,0l30,30l100,0l0,70l40,40l0,160l-80,80l-320,0l-80,-80l-60,0l-100,-100l-300,0l-40,-40l0,-160l-60,-60l0,-240l20,-20l40,0l80,80Zm300,290l0,-10l-340,0l0,10l340,0Zm0,-20l0,-10l-340,0l0,10l340,0Zm0,-20l0,-10l-340,0l0,10l340,0Zm0,-20l0,-10l-340,0l0,10l340,0Zm0,-20l0,-10l-340,0l0,10l340,0Zm0,-20l0,-10l-340,0l0,10l340,0Zm0,-20l0,-10l-340,0l0,10l340,0Zm0,-20l0,-10l-340,0l0,10l340,0Zm0,-20l0,-10l-340,0l0,10l340,0Zm0,-20l0,-10l-340,0l0,10l340,0Zm0,-20l0,-10l-340,0l0,10l340,0Zm0,-20l0,-10l-340,0l0,10l340,0Zm0,-20l0,-10l-340,0l0,10l340,0Zm400,-910l260,0l0,260l-200,0l-60,60l0,360l-17.5,0l-42.5,42.5l-277.5,0l-42.5,-42.5l-320,0l-40,-40l0,-140l40,-40l0,-220l-40,-40l0,-200l400,0l40,-40l260,0l40,40Zm-80,20l-20,0l220,220l20,0l-220,-220Zm180,220l-220,-220l0,20l200,200l20,0Zm-200,0l-20,-20l0,20l20,0Zm100,-220l-20,0l220,220l20,0l-220,-220Zm-40,0l-20,0l220,220l20,0l-220,-220Zm80,0l-20,0l220,220l0,-20l-200,-200Zm20,220l-180,-180l0,20l160,160l20,0Zm-40,0l-140,-140l0,20l120,120l20,0Zm-40,0l-100,-100l0,20l80,80l20,0Zm-40,0l-60,-60l0,20l40,40l20,0Zm140,-220l-20,0l180,180l0,-20l-160,-160Zm40,0l-20,0l140,140l0,-20l-120,-120Zm40,0l-20,0l100,100l0,-20l-80,-80Zm40,0l-20,0l60,60l0,-20l-40,-40Zm40,0l-20,0l20,20l0,-20Z"/></clipPath><g clip-path="url(#_clip1)"><path d="M1300,580l-60,0l-40,40l0,180l-40,40l0,300l40,40l0,40l120,120l70,0l-90,-760Z" style="fill:#8a8a8a;"/><path d="M500,460l80,80l0,540l-140,140l0,190l-120,-120l0,-830l180,0Z" style="fill:#8a8a8a;"/><path d="M460,1500l20,0l60,60l460,0l200,200l220,0l0,40l-1140,0l0,-300l180,0Z" style="fill:#8a8a8a;"/><path d="M440,1480l50,0l60,60l460,0l200,200l210,0" style="fill:none;stroke:#8a8a8a;stroke-width:2px;"/><path d="M440,1470l60,0l60,60l460,0l180,180l200,0l50,-50" style="fill:none;stroke:#8a8a8a;stroke-width:2px;"/><path d="M460,1460l50,0l60,60l460,0l150,150l80,0l30,30l40,0l80,-80l0,-120" style="fill:none;stroke:#8a8a8a;stroke-width:2px;"/><path d="M1212,1712.5l2,0l0,25l-2,0l0,-25Zm4,0l2,0l0,25l-2,0l0,-25Zm4,0l2,0l0,25l-2,0l0,-25Zm4,0l2,0l0,25l-2,0l0,-25Zm4,0l2,0l0,25l-2,0l0,-25Zm4,0l2,0l0,25l-2,0l0,-25Zm4,0l2,0l0,25l-2,0l0,-25Zm4,0l2,0l0,25l-2,0l0,-25Zm4,0l2,0l0,25l-2,0l0,-25Zm4,0l2,0l0,25l-2,0l0,-25Zm4,0l2,0l0,25l-2,0l0,-25Zm4,0l2,0l0,25l-2,0l0,-25Zm4,0l2,0l0,25l-2,0l0,-25Zm4,0l2,0l0,25l-2,0l0,-25Zm4,0l2,0l0,25l-2,0l0,-25Zm4,0l2,0l0,25l-2,0l0,-25Zm4,0l2,0l0,25l-2,0l0,-25Zm4,0l2,0l0,25l-2,0l0,-25Zm4,0l2,0l0,25l-2,0l0,-25Zm4,0l2,0l0,25l-2,0l0,-25Zm4,0l2,0l0,25l-2,0l0,-25Zm4,0l2,0l0,25l-2,0l0,-25Zm4,0l2,0l0,25l-2,0l0,-25Zm4,0l2,0l0,25l-2,0l0,-25Zm4,0l2,0l0,25l-2,0l0,-25Zm4,0l2,0l0,25l-2,0l0,-25Zm4,0l2,0l0,25l-2,0l0,-25Zm4,0l2,0l0,25l-2,0l0,-25Zm4,0l2,0l0,25l-2,0l0,-25Zm4,0l2,0l0,25l-2,0l0,-25Zm4,0l2,0l0,25l-2,0l0,-25Zm4,0l2,0l0,25l-2,0l0,-25Zm4,0l2,0l0,25l-2,0l0,-25Zm4,0l2,0l0,25l-2,0l0,-25Zm4,0l2,0l0,25l-2,0l0,-25Zm4,0l2,0l0,25l-2,0l0,-25Zm4,0l2,0l0,25l-2,0l0,-25Zm4,0l2,0l0,25l-2,0l0,-25Zm4,0l2,0l0,25l-2,0l0,-25Zm4,0l2,0l0,25l-2,0l0,-25Zm4,0l2,0l0,25l-2,0l0,-25Zm4,0l2,0l0,25l-2,0l0,-25Zm4,0l2,0l0,25l-2,0l0,-25Zm4,0l2,0l0,25l-2,0l0,-25Zm4,0l2,0l0,25l-2,0l0,-25Zm4,0l2,0l0,25l-2,0l0,-25Zm6,0l0,25l-2,0l0,-25l2,0Z" style="fill:#8f8f8f;"/><path d="M1402,1740l0,-26l39.5,-39.5" style="fill:none;stroke:#8a8a8a;stroke-width:2px;"/><path d="M460,1520l100,100l40,-40l210,0l100,100l30,0l20,-20l80,0l120,120l0,40l-730,0l0,-300l30,0Z" style="fill:#878787;"/><path d="M940,1700l20,-20l60,0l100,100l0,20l-180,0l0,-100Z" style="fill:#858585;"/><path d="M1240,300l-120,0l-20,20l0,80l-400,0l-60,-60l-160,0l0,-100l760,0l0,60" style="fill:#8a8a8a;"/><path d="M1100,420l-340,0l-20,20l0,200l160,0l200,-200l0,-20Z" style="fill:#8a8a8a;"/><path d="M480,350l160,0l60,60l410,0l0,-90l10,-10l400,0" style="fill:none;stroke:#8a8a8a;stroke-width:2px;"/><path d="M1110,410l0,40l-200,200l-170,0l0,90l-40,40l-120,0" style="fill:none;stroke:#8a8a8a;stroke-width:2px;"/><path d="M580,770l110,0l40,-40l0,-320" style="fill:none;stroke:#8a8a8a;stroke-width:2px;"/><path d="M760,420l-20,20l0,180l20,0l40,-40l0,-60l60,-60l10,0l0,-10l10,0l0,10l10,0l0,-10l10,0l0,10l10,0l0,-10l10,0l0,10l20,0l10,-10l90,0l20,-20l0,-10l-300,0" style="fill:#8f8f8f;"/><path d="M870,450l10,0l0,10l-10,0l0,-10Zm20,0l10,0l0,10l-10,0l0,-10Zm30,0l0,10l-10,0l0,-10l10,0Z" style="fill:#8c8c8c;"/><path d="M790,590l40,0l30,-30l40,0l110,-110l30,0l-60,60l-20,0l-55,55l-45,0l-30,30l-35,0l-20,20l-10,0l25,-25Z" style="fill:#878787;"/><path d="M1270,1680l-10,0l-10,-10l-5,0l0,5l-40,0l-5,-5" style="fill:none;stroke:#8a8a8a;stroke-width:2px;"/><circle cx="885" cy="795" r="125" style="fill:url(#_Radial2);"/><path d="M885.42,665.001l0.42,0.002l0.419,0.003l0.419,0.005l0.419,0.006l0.418,0.007l0.836,0.018l0.418,0.012l0.417,0.012l0.416,0.014l0.417,0.015l0.416,0.017l0.416,0.018l0.416,0.019l0.415,0.02l0.415,0.022l0.414,0.023l0.415,0.024l0.414,0.026l0.413,0.027l0.413,0.028l0.413,0.029l0.412,0.031l0.412,0.032l0.824,0.068l0.411,0.036l0.411,0.037l0.41,0.039l0.41,0.04l0.41,0.041l0.409,0.042l0.409,0.043l0.409,0.045l0.407,0.046l0.816,0.096l0.407,0.05l0.407,0.051l0.406,0.052l0.406,0.054l0.405,0.055l0.405,0.056l0.405,0.057l0.404,0.059l0.404,0.06l0.403,0.061l0.403,0.062l0.404,0.064l0.402,0.065l0.402,0.066l0.401,0.067l0.401,0.068l0.401,0.07l0.4,0.071l0.4,0.072l0.4,0.073l0.399,0.075l0.398,0.076l0.398,0.077l0.398,0.078l0.397,0.079l0.397,0.081l0.396,0.082l0.397,0.083l0.395,0.084l0.395,0.086l0.394,0.086l0.395,0.088l0.394,0.089l0.786,0.182l0.392,0.093l0.784,0.188l0.391,0.097l0.39,0.097l0.39,0.098l0.39,0.1l0.389,0.101l0.389,0.102l0.388,0.103l0.388,0.105l0.387,0.105l0.387,0.107l0.386,0.108l0.386,0.109l0.385,0.11l0.386,0.112l0.383,0.112l0.385,0.114l0.766,0.23l0.382,0.117l0.382,0.119l0.381,0.119l0.382,0.121l0.38,0.121l0.38,0.123l0.379,0.124l0.379,0.125l0.379,0.126l0.754,0.256l0.377,0.129l0.377,0.131l0.375,0.132l0.375,0.133l0.376,0.134l0.374,0.135l0.373,0.136l0.746,0.276l0.372,0.14l0.742,0.282l0.37,0.143l0.371,0.144l0.369,0.145l0.368,0.146l0.369,0.148l0.367,0.148l0.367,0.149l0.367,0.151l0.366,0.152l0.365,0.152l0.365,0.154l0.365,0.155l0.363,0.156l0.363,0.157l0.363,0.158l0.362,0.159l0.361,0.16l0.361,0.161l0.72,0.326l0.359,0.165l0.358,0.165l0.716,0.334l0.356,0.169l0.712,0.34l0.355,0.172l0.354,0.173l0.354,0.174l0.353,0.175l0.352,0.176l0.352,0.177l0.352,0.178l0.351,0.179l0.349,0.18l0.35,0.181l0.349,0.182l0.348,0.183l0.348,0.185l0.347,0.185l0.346,0.186l0.345,0.187l0.346,0.188l0.688,0.38l0.343,0.191l0.343,0.193l0.342,0.193l0.341,0.194l0.34,0.195l0.34,0.196l0.34,0.198l0.338,0.198l0.338,0.199l0.338,0.2l0.672,0.404l0.336,0.203l0.334,0.204l0.334,0.205l0.334,0.206l0.332,0.207l0.332,0.208l0.332,0.21l0.331,0.209l0.329,0.211l0.33,0.212l0.329,0.213l0.328,0.214l0.327,0.215l0.326,0.215l0.327,0.217l0.325,0.218l0.324,0.218l0.324,0.22l0.646,0.442l0.321,0.222l0.642,0.448l0.319,0.225l0.319,0.226l0.319,0.228l0.317,0.228l0.316,0.228l0.317,0.23l0.315,0.231l0.315,0.232l0.313,0.232l0.314,0.234l0.312,0.234l0.312,0.236l0.311,0.236l0.31,0.237l0.31,0.238l0.308,0.239l0.309,0.24l0.307,0.241l0.612,0.484l0.61,0.488l0.606,0.492l0.302,0.247l0.301,0.248l0.301,0.249l0.3,0.249l0.299,0.251l0.298,0.252l0.297,0.252l0.297,0.253l0.296,0.254l0.296,0.255l0.294,0.256l0.586,0.514l0.584,0.518l0.29,0.26l0.29,0.261l0.289,0.262l0.576,0.526l0.572,0.53l0.285,0.266l0.284,0.267l0.284,0.268l0.282,0.268l0.282,0.27l0.281,0.27l0.28,0.271l0.279,0.272l0.279,0.273l0.554,0.548l0.277,0.275l0.275,0.277l0.548,0.554l0.273,0.279l0.272,0.279l0.271,0.28l0.27,0.281l0.27,0.282l0.268,0.282l0.268,0.284l0.267,0.284l0.266,0.285l0.53,0.572l0.526,0.576l0.262,0.289l0.261,0.29l0.26,0.29l0.518,0.584l0.514,0.586l0.256,0.294l0.255,0.296l0.254,0.296l0.253,0.297l0.252,0.297l0.252,0.298l0.251,0.299l0.249,0.3l0.249,0.301l0.248,0.301l0.247,0.302l0.492,0.606l0.488,0.61l0.484,0.612l0.241,0.307l0.24,0.309l0.239,0.308l0.238,0.31l0.237,0.31l0.236,0.311l0.236,0.312l0.234,0.312l0.234,0.314l0.232,0.313l0.232,0.315l0.231,0.315l0.23,0.317l0.228,0.316l0.228,0.317l0.228,0.319l0.226,0.319l0.225,0.319l0.448,0.642l0.222,0.321l0.442,0.646l0.22,0.324l0.218,0.324l0.218,0.325l0.217,0.327l0.215,0.326l0.215,0.327l0.214,0.328l0.213,0.329l0.212,0.33l0.211,0.329l0.209,0.331l0.21,0.332l0.208,0.332l0.207,0.332l0.206,0.334l0.205,0.334l0.204,0.334l0.203,0.336l0.404,0.672l0.2,0.338l0.199,0.338l0.198,0.338l0.198,0.34l0.196,0.34l0.195,0.34l0.194,0.341l0.193,0.342l0.193,0.343l0.191,0.343l0.38,0.688l0.188,0.346l0.187,0.345l0.186,0.346l0.185,0.347l0.185,0.348l0.183,0.348l0.182,0.349l0.181,0.35l0.18,0.349l0.179,0.351l0.178,0.352l0.177,0.352l0.176,0.352l0.175,0.353l0.174,0.354l0.173,0.354l0.172,0.355l0.34,0.712l0.169,0.356l0.334,0.716l0.165,0.358l0.165,0.359l0.326,0.72l0.161,0.361l0.16,0.361l0.159,0.362l0.158,0.363l0.157,0.363l0.156,0.363l0.155,0.365l0.154,0.365l0.152,0.365l0.152,0.366l0.151,0.367l0.149,0.367l0.148,0.367l0.148,0.369l0.146,0.368l0.145,0.369l0.144,0.371l0.143,0.37l0.282,0.742l0.14,0.372l0.276,0.746l0.136,0.373l0.135,0.374l0.134,0.376l0.133,0.375l0.132,0.375l0.131,0.377l0.129,0.377l0.256,0.754l0.126,0.379l0.125,0.379l0.124,0.379l0.123,0.38l0.121,0.38l0.121,0.382l0.119,0.381l0.119,0.382l0.117,0.382l0.23,0.766l0.114,0.385l0.112,0.383l0.112,0.386l0.11,0.385l0.109,0.386l0.108,0.386l0.107,0.387l0.105,0.387l0.105,0.388l0.103,0.388l0.102,0.389l0.101,0.389l0.1,0.39l0.098,0.39l0.097,0.39l0.097,0.391l0.188,0.784l0.093,0.392l0.182,0.786l0.089,0.394l0.088,0.395l0.086,0.394l0.086,0.395l0.084,0.395l0.083,0.397l0.082,0.396l0.081,0.397l0.079,0.397l0.078,0.398l0.077,0.398l0.076,0.398l0.075,0.399l0.073,0.4l0.072,0.4l0.071,0.4l0.07,0.401l0.068,0.401l0.067,0.401l0.066,0.402l0.065,0.402l0.064,0.404l0.062,0.403l0.061,0.403l0.06,0.404l0.059,0.404l0.057,0.405l0.056,0.405l0.055,0.405l0.054,0.406l0.052,0.406l0.051,0.407l0.05,0.407l0.096,0.816l0.046,0.407l0.045,0.409l0.043,0.409l0.042,0.409l0.041,0.41l0.04,0.41l0.039,0.41l0.037,0.411l0.036,0.411l0.068,0.824l0.032,0.412l0.031,0.412l0.029,0.413l0.028,0.413l0.027,0.413l0.026,0.414l0.024,0.415l0.023,0.414l0.022,0.415l0.02,0.415l0.019,0.416l0.018,0.416l0.017,0.416l0.015,0.417l0.014,0.416l0.012,0.417l0.012,0.418l0.018,0.836l0.007,0.418l0.006,0.419l0.005,0.419l0.003,0.419l0.002,0.42l0.001,0.42l-0.001,0.42l-0.002,0.42l-0.003,0.419l-0.005,0.419l-0.006,0.419l-0.007,0.418l-0.009,0.418l-0.009,0.418l-0.012,0.418l-0.012,0.417l-0.014,0.416l-0.015,0.417l-0.017,0.416l-0.018,0.416l-0.019,0.416l-0.02,0.415l-0.022,0.415l-0.023,0.414l-0.024,0.415l-0.026,0.414l-0.027,0.413l-0.028,0.413l-0.029,0.413l-0.031,0.412l-0.032,0.412l-0.034,0.412l-0.034,0.412l-0.036,0.411l-0.037,0.411l-0.039,0.41l-0.04,0.41l-0.041,0.41l-0.042,0.409l-0.043,0.409l-0.045,0.409l-0.046,0.407l-0.048,0.408l-0.048,0.408l-0.05,0.407l-0.051,0.407l-0.052,0.406l-0.054,0.406l-0.055,0.405l-0.056,0.405l-0.057,0.405l-0.059,0.404l-0.06,0.404l-0.061,0.403l-0.062,0.403l-0.064,0.404l-0.065,0.402l-0.066,0.402l-0.067,0.401l-0.068,0.401l-0.07,0.401l-0.071,0.4l-0.072,0.4l-0.073,0.4l-0.075,0.399l-0.076,0.398l-0.077,0.398l-0.078,0.398l-0.079,0.397l-0.081,0.397l-0.082,0.396l-0.083,0.397l-0.084,0.395l-0.086,0.395l-0.086,0.394l-0.088,0.395l-0.089,0.394l-0.091,0.393l-0.091,0.393l-0.093,0.392l-0.094,0.392l-0.094,0.392l-0.097,0.391l-0.097,0.39l-0.098,0.39l-0.1,0.39l-0.101,0.389l-0.102,0.389l-0.103,0.388l-0.105,0.388l-0.105,0.387l-0.107,0.387l-0.108,0.386l-0.109,0.386l-0.11,0.385l-0.112,0.386l-0.112,0.383l-0.114,0.385l-0.115,0.383l-0.115,0.383l-0.117,0.382l-0.119,0.382l-0.119,0.381l-0.121,0.382l-0.121,0.38l-0.123,0.38l-0.124,0.379l-0.125,0.379l-0.126,0.379l-0.128,0.377l-0.128,0.377l-0.129,0.377l-0.131,0.377l-0.132,0.375l-0.133,0.375l-0.134,0.376l-0.135,0.374l-0.136,0.373l-0.138,0.373l-0.138,0.373l-0.14,0.372l-0.141,0.371l-0.141,0.371l-0.143,0.37l-0.144,0.371l-0.145,0.369l-0.146,0.368l-0.148,0.369l-0.148,0.367l-0.149,0.367l-0.151,0.367l-0.152,0.366l-0.152,0.365l-0.154,0.365l-0.155,0.365l-0.156,0.363l-0.157,0.363l-0.158,0.363l-0.159,0.362l-0.16,0.361l-0.161,0.361l-0.163,0.36l-0.163,0.36l-0.165,0.359l-0.165,0.358l-0.167,0.358l-0.167,0.358l-0.169,0.356l-0.17,0.356l-0.17,0.356l-0.172,0.355l-0.173,0.354l-0.174,0.354l-0.175,0.353l-0.176,0.352l-0.177,0.352l-0.178,0.352l-0.179,0.351l-0.18,0.349l-0.181,0.35l-0.182,0.349l-0.183,0.348l-0.185,0.348l-0.185,0.347l-0.186,0.346l-0.187,0.345l-0.188,0.346l-0.19,0.344l-0.19,0.344l-0.191,0.343l-0.193,0.343l-0.193,0.342l-0.194,0.341l-0.195,0.34l-0.196,0.34l-0.198,0.34l-0.198,0.338l-0.199,0.338l-0.2,0.338l-0.202,0.336l-0.202,0.336l-0.203,0.336l-0.204,0.334l-0.205,0.334l-0.206,0.334l-0.207,0.332l-0.208,0.332l-0.21,0.332l-0.209,0.331l-0.211,0.329l-0.212,0.33l-0.213,0.329l-0.214,0.328l-0.215,0.327l-0.215,0.326l-0.217,0.327l-0.218,0.325l-0.218,0.324l-0.22,0.324l-0.221,0.323l-0.221,0.323l-0.222,0.321l-0.224,0.321l-0.224,0.321l-0.225,0.319l-0.226,0.319l-0.228,0.319l-0.228,0.317l-0.228,0.316l-0.23,0.317l-0.231,0.315l-0.232,0.315l-0.232,0.313l-0.234,0.314l-0.234,0.312l-0.236,0.312l-0.236,0.311l-0.237,0.31l-0.238,0.31l-0.239,0.308l-0.24,0.309l-0.241,0.307l-0.242,0.306l-0.242,0.306l-0.244,0.305l-0.244,0.305l-0.246,0.303l-0.246,0.303l-0.247,0.302l-0.248,0.301l-0.249,0.301l-0.249,0.3l-0.251,0.299l-0.252,0.298l-0.252,0.297l-0.253,0.297l-0.254,0.296l-0.255,0.296l-0.256,0.294l-0.257,0.293l-0.257,0.293l-0.259,0.292l-0.259,0.292l-0.26,0.29l-0.261,0.29l-0.262,0.289l-0.263,0.288l-0.263,0.288l-0.265,0.286l-0.265,0.286l-0.266,0.285l-0.267,0.284l-0.268,0.284l-0.268,0.282l-0.27,0.282l-0.27,0.281l-0.271,0.28l-0.272,0.279l-0.273,0.279l-0.274,0.277l-0.274,0.277l-0.275,0.277l-0.277,0.275l-0.277,0.274l-0.277,0.274l-0.279,0.273l-0.279,0.272l-0.28,0.271l-0.281,0.27l-0.282,0.27l-0.282,0.268l-0.284,0.268l-0.284,0.267l-0.285,0.266l-0.286,0.265l-0.286,0.265l-0.288,0.263l-0.288,0.263l-0.289,0.262l-0.29,0.261l-0.29,0.26l-0.292,0.259l-0.292,0.259l-0.293,0.257l-0.293,0.257l-0.294,0.256l-0.296,0.255l-0.296,0.254l-0.297,0.253l-0.297,0.252l-0.298,0.252l-0.299,0.251l-0.3,0.249l-0.301,0.249l-0.301,0.248l-0.302,0.247l-0.303,0.246l-0.303,0.246l-0.305,0.244l-0.305,0.244l-0.306,0.242l-0.306,0.242l-0.307,0.241l-0.309,0.24l-0.308,0.239l-0.31,0.238l-0.31,0.237l-0.311,0.236l-0.312,0.236l-0.312,0.234l-0.314,0.234l-0.313,0.232l-0.315,0.232l-0.315,0.231l-0.317,0.23l-0.316,0.228l-0.317,0.228l-0.319,0.228l-0.319,0.226l-0.319,0.225l-0.321,0.224l-0.321,0.224l-0.321,0.222l-0.323,0.221l-0.323,0.221l-0.324,0.22l-0.324,0.218l-0.325,0.218l-0.327,0.217l-0.326,0.215l-0.327,0.215l-0.328,0.214l-0.329,0.213l-0.33,0.212l-0.329,0.211l-0.331,0.209l-0.332,0.21l-0.332,0.208l-0.332,0.207l-0.334,0.206l-0.334,0.205l-0.334,0.204l-0.336,0.203l-0.336,0.202l-0.336,0.202l-0.338,0.2l-0.338,0.199l-0.338,0.198l-0.34,0.198l-0.34,0.196l-0.34,0.195l-0.341,0.194l-0.342,0.193l-0.343,0.193l-0.343,0.191l-0.344,0.19l-0.344,0.19l-0.346,0.188l-0.345,0.187l-0.346,0.186l-0.347,0.185l-0.348,0.185l-0.348,0.183l-0.349,0.182l-0.35,0.181l-0.349,0.18l-0.351,0.179l-0.352,0.178l-0.352,0.177l-0.352,0.176l-0.353,0.175l-0.354,0.174l-0.354,0.173l-0.355,0.172l-0.356,0.17l-0.356,0.17l-0.356,0.169l-0.358,0.167l-0.358,0.167l-0.358,0.165l-0.359,0.165l-0.36,0.163l-0.36,0.163l-0.361,0.161l-0.361,0.16l-0.362,0.159l-0.363,0.158l-0.363,0.157l-0.363,0.156l-0.365,0.155l-0.365,0.154l-0.365,0.152l-0.366,0.152l-0.367,0.151l-0.367,0.149l-0.367,0.148l-0.369,0.148l-0.368,0.146l-0.369,0.145l-0.371,0.144l-0.37,0.143l-0.371,0.141l-0.371,0.141l-0.372,0.14l-0.373,0.138l-0.373,0.138l-0.373,0.136l-0.374,0.135l-0.376,0.134l-0.375,0.133l-0.375,0.132l-0.377,0.131l-0.377,0.129l-0.377,0.128l-0.377,0.128l-0.379,0.126l-0.379,0.125l-0.379,0.124l-0.38,0.123l-0.38,0.121l-0.382,0.121l-0.381,0.119l-0.382,0.119l-0.382,0.117l-0.383,0.115l-0.383,0.115l-0.385,0.114l-0.383,0.112l-0.386,0.112l-0.385,0.11l-0.386,0.109l-0.386,0.108l-0.387,0.107l-0.387,0.105l-0.388,0.105l-0.388,0.103l-0.389,0.102l-0.389,0.101l-0.39,0.1l-0.39,0.098l-0.39,0.097l-0.391,0.097l-0.392,0.094l-0.392,0.094l-0.392,0.093l-0.393,0.091l-0.393,0.091l-0.394,0.089l-0.395,0.088l-0.394,0.086l-0.395,0.086l-0.395,0.084l-0.397,0.083l-0.396,0.082l-0.397,0.081l-0.397,0.079l-0.398,0.078l-0.398,0.077l-0.398,0.076l-0.399,0.075l-0.4,0.073l-0.4,0.072l-0.4,0.071l-0.401,0.07l-0.401,0.068l-0.401,0.067l-0.402,0.066l-0.402,0.065l-0.404,0.064l-0.403,0.062l-0.403,0.061l-0.404,0.06l-0.404,0.059l-0.405,0.057l-0.405,0.056l-0.405,0.055l-0.406,0.054l-0.406,0.052l-0.407,0.051l-0.407,0.05l-0.408,0.048l-0.408,0.048l-0.407,0.046l-0.409,0.045l-0.409,0.043l-0.409,0.042l-0.41,0.041l-0.41,0.04l-0.41,0.039l-0.411,0.037l-0.411,0.036l-0.412,0.034l-0.412,0.034l-0.412,0.032l-0.412,0.031l-0.413,0.029l-0.413,0.028l-0.413,0.027l-0.414,0.026l-0.415,0.024l-0.414,0.023l-0.415,0.022l-0.415,0.02l-0.416,0.019l-0.416,0.018l-0.416,0.017l-0.417,0.015l-0.416,0.014l-0.417,0.012l-0.418,0.012l-0.418,0.009l-0.418,0.009l-0.418,0.007l-0.419,0.006l-0.419,0.005l-0.419,0.003l-0.42,0.002l-0.42,0.001l-0.42,-0.001l-0.42,-0.002l-0.419,-0.003l-0.419,-0.005l-0.419,-0.006l-0.418,-0.007l-0.418,-0.009l-0.418,-0.009l-0.418,-0.012l-0.417,-0.012l-0.416,-0.014l-0.417,-0.015l-0.416,-0.017l-0.416,-0.018l-0.416,-0.019l-0.415,-0.02l-0.415,-0.022l-0.414,-0.023l-0.415,-0.024l-0.414,-0.026l-0.413,-0.027l-0.413,-0.028l-0.413,-0.029l-0.412,-0.031l-0.412,-0.032l-0.412,-0.034l-0.412,-0.034l-0.411,-0.036l-0.411,-0.037l-0.41,-0.039l-0.41,-0.04l-0.41,-0.041l-0.409,-0.042l-0.409,-0.043l-0.409,-0.045l-0.407,-0.046l-0.408,-0.048l-0.408,-0.048l-0.407,-0.05l-0.407,-0.051l-0.406,-0.052l-0.406,-0.054l-0.405,-0.055l-0.405,-0.056l-0.405,-0.057l-0.404,-0.059l-0.404,-0.06l-0.403,-0.061l-0.403,-0.062l-0.404,-0.064l-0.402,-0.065l-0.402,-0.066l-0.401,-0.067l-0.401,-0.068l-0.401,-0.07l-0.4,-0.071l-0.4,-0.072l-0.4,-0.073l-0.399,-0.075l-0.398,-0.076l-0.398,-0.077l-0.398,-0.078l-0.397,-0.079l-0.397,-0.081l-0.396,-0.082l-0.397,-0.083l-0.395,-0.084l-0.395,-0.086l-0.394,-0.086l-0.395,-0.088l-0.394,-0.089l-0.393,-0.091l-0.393,-0.091l-0.392,-0.093l-0.392,-0.094l-0.392,-0.094l-0.391,-0.097l-0.39,-0.097l-0.39,-0.098l-0.39,-0.1l-0.389,-0.101l-0.389,-0.102l-0.388,-0.103l-0.388,-0.105l-0.387,-0.105l-0.387,-0.107l-0.386,-0.108l-0.386,-0.109l-0.385,-0.11l-0.386,-0.112l-0.383,-0.112l-0.385,-0.114l-0.383,-0.115l-0.383,-0.115l-0.382,-0.117l-0.382,-0.119l-0.381,-0.119l-0.382,-0.121l-0.38,-0.121l-0.38,-0.123l-0.379,-0.124l-0.379,-0.125l-0.379,-0.126l-0.377,-0.128l-0.377,-0.128l-0.377,-0.129l-0.377,-0.131l-0.375,-0.132l-0.375,-0.133l-0.376,-0.134l-0.374,-0.135l-0.373,-0.136l-0.373,-0.138l-0.373,-0.138l-0.372,-0.14l-0.371,-0.141l-0.371,-0.141l-0.37,-0.143l-0.371,-0.144l-0.369,-0.145l-0.368,-0.146l-0.369,-0.148l-0.367,-0.148l-0.367,-0.149l-0.367,-0.151l-0.366,-0.152l-0.365,-0.152l-0.365,-0.154l-0.365,-0.155l-0.363,-0.156l-0.363,-0.157l-0.363,-0.158l-0.362,-0.159l-0.361,-0.16l-0.361,-0.161l-0.36,-0.163l-0.36,-0.163l-0.359,-0.165l-0.358,-0.165l-0.358,-0.167l-0.358,-0.167l-0.356,-0.169l-0.356,-0.17l-0.356,-0.17l-0.355,-0.172l-0.354,-0.173l-0.354,-0.174l-0.353,-0.175l-0.352,-0.176l-0.352,-0.177l-0.352,-0.178l-0.351,-0.179l-0.349,-0.18l-0.35,-0.181l-0.349,-0.182l-0.348,-0.183l-0.348,-0.185l-0.347,-0.185l-0.346,-0.186l-0.345,-0.187l-0.346,-0.188l-0.344,-0.19l-0.344,-0.19l-0.343,-0.191l-0.343,-0.193l-0.342,-0.193l-0.341,-0.194l-0.34,-0.195l-0.34,-0.196l-0.34,-0.198l-0.338,-0.198l-0.338,-0.199l-0.338,-0.2l-0.336,-0.202l-0.336,-0.202l-0.336,-0.203l-0.334,-0.204l-0.334,-0.205l-0.334,-0.206l-0.332,-0.207l-0.332,-0.208l-0.332,-0.21l-0.331,-0.209l-0.329,-0.211l-0.33,-0.212l-0.329,-0.213l-0.328,-0.214l-0.327,-0.215l-0.326,-0.215l-0.327,-0.217l-0.325,-0.218l-0.324,-0.218l-0.324,-0.22l-0.323,-0.221l-0.323,-0.221l-0.321,-0.222l-0.321,-0.224l-0.321,-0.224l-0.319,-0.225l-0.319,-0.226l-0.319,-0.228l-0.317,-0.228l-0.316,-0.228l-0.317,-0.23l-0.315,-0.231l-0.315,-0.232l-0.313,-0.232l-0.314,-0.234l-0.312,-0.234l-0.312,-0.236l-0.311,-0.236l-0.31,-0.237l-0.31,-0.238l-0.308,-0.239l-0.309,-0.24l-0.307,-0.241l-0.306,-0.242l-0.306,-0.242l-0.305,-0.244l-0.305,-0.244l-0.303,-0.246l-0.303,-0.246l-0.302,-0.247l-0.301,-0.248l-0.301,-0.249l-0.3,-0.249l-0.299,-0.251l-0.298,-0.252l-0.297,-0.252l-0.297,-0.253l-0.296,-0.254l-0.296,-0.255l-0.294,-0.256l-0.293,-0.257l-0.293,-0.257l-0.292,-0.259l-0.292,-0.259l-0.29,-0.26l-0.29,-0.261l-0.289,-0.262l-0.288,-0.263l-0.288,-0.263l-0.286,-0.265l-0.286,-0.265l-0.285,-0.266l-0.284,-0.267l-0.284,-0.268l-0.282,-0.268l-0.282,-0.27l-0.281,-0.27l-0.28,-0.271l-0.279,-0.272l-0.279,-0.273l-0.277,-0.274l-0.277,-0.274l-0.277,-0.275l-0.275,-0.277l-0.274,-0.277l-0.274,-0.277l-0.273,-0.279l-0.272,-0.279l-0.271,-0.28l-0.27,-0.281l-0.27,-0.282l-0.268,-0.282l-0.268,-0.284l-0.267,-0.284l-0.266,-0.285l-0.265,-0.286l-0.265,-0.286l-0.263,-0.288l-0.263,-0.288l-0.262,-0.289l-0.261,-0.29l-0.26,-0.29l-0.259,-0.292l-0.259,-0.292l-0.257,-0.293l-0.257,-0.293l-0.256,-0.294l-0.255,-0.296l-0.254,-0.296l-0.253,-0.297l-0.252,-0.297l-0.252,-0.298l-0.251,-0.299l-0.249,-0.3l-0.249,-0.301l-0.248,-0.301l-0.247,-0.302l-0.246,-0.303l-0.246,-0.303l-0.244,-0.305l-0.244,-0.305l-0.242,-0.306l-0.242,-0.306l-0.241,-0.307l-0.24,-0.309l-0.239,-0.308l-0.238,-0.31l-0.237,-0.31l-0.236,-0.311l-0.236,-0.312l-0.234,-0.312l-0.234,-0.314l-0.232,-0.313l-0.232,-0.315l-0.231,-0.315l-0.23,-0.317l-0.228,-0.316l-0.228,-0.317l-0.228,-0.319l-0.226,-0.319l-0.225,-0.319l-0.224,-0.321l-0.224,-0.321l-0.222,-0.321l-0.221,-0.323l-0.221,-0.323l-0.22,-0.324l-0.218,-0.324l-0.218,-0.325l-0.217,-0.327l-0.215,-0.326l-0.215,-0.327l-0.214,-0.328l-0.213,-0.329l-0.212,-0.33l-0.211,-0.329l-0.209,-0.331l-0.21,-0.332l-0.208,-0.332l-0.207,-0.332l-0.206,-0.334l-0.205,-0.334l-0.204,-0.334l-0.203,-0.336l-0.202,-0.336l-0.202,-0.336l-0.2,-0.338l-0.199,-0.338l-0.198,-0.338l-0.198,-0.34l-0.196,-0.34l-0.195,-0.34l-0.194,-0.341l-0.193,-0.342l-0.193,-0.343l-0.191,-0.343l-0.19,-0.344l-0.19,-0.344l-0.188,-0.346l-0.187,-0.345l-0.186,-0.346l-0.185,-0.347l-0.185,-0.348l-0.183,-0.348l-0.182,-0.349l-0.181,-0.35l-0.18,-0.349l-0.179,-0.351l-0.178,-0.352l-0.177,-0.352l-0.176,-0.352l-0.175,-0.353l-0.174,-0.354l-0.173,-0.354l-0.172,-0.355l-0.17,-0.356l-0.17,-0.356l-0.169,-0.356l-0.167,-0.358l-0.167,-0.358l-0.165,-0.358l-0.165,-0.359l-0.163,-0.36l-0.163,-0.36l-0.161,-0.361l-0.16,-0.361l-0.159,-0.362l-0.158,-0.363l-0.157,-0.363l-0.156,-0.363l-0.155,-0.365l-0.154,-0.365l-0.152,-0.365l-0.152,-0.366l-0.151,-0.367l-0.149,-0.367l-0.148,-0.367l-0.148,-0.369l-0.146,-0.368l-0.145,-0.369l-0.144,-0.371l-0.143,-0.37l-0.141,-0.371l-0.141,-0.371l-0.14,-0.372l-0.138,-0.373l-0.138,-0.373l-0.136,-0.373l-0.135,-0.374l-0.134,-0.376l-0.133,-0.375l-0.132,-0.375l-0.131,-0.377l-0.129,-0.377l-0.128,-0.377l-0.128,-0.377l-0.126,-0.379l-0.125,-0.379l-0.124,-0.379l-0.123,-0.38l-0.121,-0.38l-0.121,-0.382l-0.119,-0.381l-0.119,-0.382l-0.117,-0.382l-0.115,-0.383l-0.115,-0.383l-0.114,-0.385l-0.112,-0.383l-0.112,-0.386l-0.11,-0.385l-0.109,-0.386l-0.108,-0.386l-0.107,-0.387l-0.105,-0.387l-0.105,-0.388l-0.103,-0.388l-0.102,-0.389l-0.101,-0.389l-0.1,-0.39l-0.098,-0.39l-0.097,-0.39l-0.097,-0.391l-0.094,-0.392l-0.094,-0.392l-0.093,-0.392l-0.091,-0.393l-0.091,-0.393l-0.089,-0.394l-0.088,-0.395l-0.086,-0.394l-0.086,-0.395l-0.084,-0.395l-0.083,-0.397l-0.082,-0.396l-0.081,-0.397l-0.079,-0.397l-0.078,-0.398l-0.077,-0.398l-0.076,-0.398l-0.075,-0.399l-0.073,-0.4l-0.072,-0.4l-0.071,-0.4l-0.07,-0.401l-0.068,-0.401l-0.067,-0.401l-0.066,-0.402l-0.065,-0.402l-0.064,-0.404l-0.062,-0.403l-0.061,-0.403l-0.06,-0.404l-0.059,-0.404l-0.057,-0.405l-0.056,-0.405l-0.055,-0.405l-0.054,-0.406l-0.052,-0.406l-0.051,-0.407l-0.05,-0.407l-0.048,-0.408l-0.048,-0.408l-0.046,-0.407l-0.045,-0.409l-0.043,-0.409l-0.042,-0.409l-0.041,-0.41l-0.04,-0.41l-0.039,-0.41l-0.037,-0.411l-0.036,-0.411l-0.034,-0.412l-0.034,-0.412l-0.032,-0.412l-0.031,-0.412l-0.029,-0.413l-0.028,-0.413l-0.027,-0.413l-0.026,-0.414l-0.024,-0.415l-0.023,-0.414l-0.022,-0.415l-0.02,-0.415l-0.019,-0.416l-0.018,-0.416l-0.017,-0.416l-0.015,-0.417l-0.014,-0.416l-0.012,-0.417l-0.012,-0.418l-0.009,-0.418l-0.009,-0.418l-0.007,-0.418l-0.006,-0.419l-0.005,-0.419l-0.003,-0.419l-0.002,-0.42l-0.001,-0.42l0.001,-0.42l0.002,-0.42l0.003,-0.419l0.005,-0.419l0.006,-0.419l0.007,-0.418l0.009,-0.418l0.009,-0.418l0.012,-0.418l0.012,-0.417l0.014,-0.416l0.015,-0.417l0.017,-0.416l0.018,-0.416l0.019,-0.416l0.02,-0.415l0.022,-0.415l0.023,-0.414l0.024,-0.415l0.026,-0.414l0.027,-0.413l0.028,-0.413l0.029,-0.413l0.031,-0.412l0.032,-0.412l0.034,-0.412l0.034,-0.412l0.036,-0.411l0.037,-0.411l0.039,-0.41l0.04,-0.41l0.041,-0.41l0.042,-0.409l0.043,-0.409l0.045,-0.409l0.046,-0.407l0.048,-0.408l0.048,-0.408l0.05,-0.407l0.051,-0.407l0.052,-0.406l0.054,-0.406l0.055,-0.405l0.056,-0.405l0.057,-0.405l0.059,-0.404l0.06,-0.404l0.061,-0.403l0.062,-0.403l0.064,-0.404l0.065,-0.402l0.066,-0.402l0.067,-0.401l0.068,-0.401l0.07,-0.401l0.071,-0.4l0.072,-0.4l0.073,-0.4l0.075,-0.399l0.076,-0.398l0.077,-0.398l0.078,-0.398l0.079,-0.397l0.081,-0.397l0.082,-0.396l0.083,-0.397l0.084,-0.395l0.086,-0.395l0.086,-0.394l0.088,-0.395l0.089,-0.394l0.091,-0.393l0.091,-0.393l0.093,-0.392l0.094,-0.392l0.094,-0.392l0.097,-0.391l0.097,-0.39l0.098,-0.39l0.1,-0.39l0.101,-0.389l0.102,-0.389l0.103,-0.388l0.105,-0.388l0.105,-0.387l0.107,-0.387l0.108,-0.386l0.109,-0.386l0.11,-0.385l0.112,-0.386l0.112,-0.383l0.114,-0.385l0.115,-0.383l0.115,-0.383l0.117,-0.382l0.119,-0.382l0.119,-0.381l0.121,-0.382l0.121,-0.38l0.123,-0.38l0.124,-0.379l0.125,-0.379l0.126,-0.379l0.128,-0.377l0.128,-0.377l0.129,-0.377l0.131,-0.377l0.132,-0.375l0.133,-0.375l0.134,-0.376l0.135,-0.374l0.136,-0.373l0.138,-0.373l0.138,-0.373l0.14,-0.372l0.141,-0.371l0.141,-0.371l0.143,-0.37l0.144,-0.371l0.145,-0.369l0.146,-0.368l0.148,-0.369l0.148,-0.367l0.149,-0.367l0.151,-0.367l0.152,-0.366l0.152,-0.365l0.154,-0.365l0.155,-0.365l0.156,-0.363l0.157,-0.363l0.158,-0.363l0.159,-0.362l0.16,-0.361l0.161,-0.361l0.163,-0.36l0.163,-0.36l0.165,-0.359l0.165,-0.358l0.167,-0.358l0.167,-0.358l0.169,-0.356l0.17,-0.356l0.17,-0.356l0.172,-0.355l0.173,-0.354l0.174,-0.354l0.175,-0.353l0.176,-0.352l0.177,-0.352l0.178,-0.352l0.179,-0.351l0.18,-0.349l0.181,-0.35l0.182,-0.349l0.183,-0.348l0.185,-0.348l0.185,-0.347l0.186,-0.346l0.187,-0.345l0.188,-0.346l0.19,-0.344l0.19,-0.344l0.191,-0.343l0.193,-0.343l0.193,-0.342l0.194,-0.341l0.195,-0.34l0.196,-0.34l0.198,-0.34l0.198,-0.338l0.199,-0.338l0.2,-0.338l0.202,-0.336l0.202,-0.336l0.203,-0.336l0.204,-0.334l0.205,-0.334l0.206,-0.334l0.207,-0.332l0.208,-0.332l0.21,-0.332l0.209,-0.331l0.211,-0.329l0.212,-0.33l0.213,-0.329l0.214,-0.328l0.215,-0.327l0.215,-0.326l0.217,-0.327l0.218,-0.325l0.218,-0.324l0.22,-0.324l0.221,-0.323l0.221,-0.323l0.222,-0.321l0.224,-0.321l0.224,-0.321l0.225,-0.319l0.226,-0.319l0.228,-0.319l0.228,-0.317l0.228,-0.316l0.23,-0.317l0.231,-0.315l0.232,-0.315l0.232,-0.313l0.234,-0.314l0.234,-0.312l0.236,-0.312l0.236,-0.311l0.237,-0.31l0.238,-0.31l0.239,-0.308l0.24,-0.309l0.241,-0.307l0.242,-0.306l0.242,-0.306l0.244,-0.305l0.244,-0.305l0.246,-0.303l0.246,-0.303l0.247,-0.302l0.248,-0.301l0.249,-0.301l0.249,-0.3l0.251,-0.299l0.252,-0.298l0.252,-0.297l0.253,-0.297l0.254,-0.296l0.255,-0.296l0.256,-0.294l0.257,-0.293l0.257,-0.293l0.259,-0.292l0.259,-0.292l0.26,-0.29l0.261,-0.29l0.262,-0.289l0.263,-0.288l0.263,-0.288l0.265,-0.286l0.265,-0.286l0.266,-0.285l0.267,-0.284l0.268,-0.284l0.268,-0.282l0.27,-0.282l0.27,-0.281l0.271,-0.28l0.272,-0.279l0.273,-0.279l0.274,-0.277l0.274,-0.277l0.275,-0.277l0.277,-0.275l0.277,-0.274l0.277,-0.274l0.279,-0.273l0.279,-0.272l0.28,-0.271l0.281,-0.27l0.282,-0.27l0.282,-0.268l0.284,-0.268l0.284,-0.267l0.285,-0.266l0.286,-0.265l0.286,-0.265l0.288,-0.263l0.288,-0.263l0.289,-0.262l0.29,-0.261l0.29,-0.26l0.292,-0.259l0.292,-0.259l0.293,-0.257l0.293,-0.257l0.294,-0.256l0.296,-0.255l0.296,-0.254l0.297,-0.253l0.297,-0.252l0.298,-0.252l0.299,-0.251l0.3,-0.249l0.301,-0.249l0.301,-0.248l0.302,-0.247l0.303,-0.246l0.303,-0.246l0.305,-0.244l0.305,-0.244l0.306,-0.242l0.306,-0.242l0.307,-0.241l0.309,-0.24l0.308,-0.239l0.31,-0.238l0.31,-0.237l0.311,-0.236l0.312,-0.236l0.312,-0.234l0.314,-0.234l0.313,-0.232l0.315,-0.232l0.315,-0.231l0.317,-0.23l0.316,-0.228l0.317,-0.228l0.319,-0.228l0.319,-0.226l0.319,-0.225l0.321,-0.224l0.321,-0.224l0.321,-0.222l0.323,-0.221l0.323,-0.221l0.324,-0.22l0.324,-0.218l0.325,-0.218l0.327,-0.217l0.326,-0.215l0.327,-0.215l0.328,-0.214l0.329,-0.213l0.33,-0.212l0.329,-0.211l0.331,-0.209l0.332,-0.21l0.332,-0.208l0.332,-0.207l0.334,-0.206l0.334,-0.205l0.334,-0.204l0.336,-0.203l0.336,-0.202l0.336,-0.202l0.338,-0.2l0.338,-0.199l0.338,-0.198l0.34,-0.198l0.34,-0.196l0.34,-0.195l0.341,-0.194l0.342,-0.193l0.343,-0.193l0.343,-0.191l0.344,-0.19l0.344,-0.19l0.346,-0.188l0.345,-0.187l0.346,-0.186l0.347,-0.185l0.348,-0.185l0.348,-0.183l0.349,-0.182l0.35,-0.181l0.349,-0.18l0.351,-0.179l0.352,-0.178l0.352,-0.177l0.352,-0.176l0.353,-0.175l0.354,-0.174l0.354,-0.173l0.355,-0.172l0.356,-0.17l0.356,-0.17l0.356,-0.169l0.358,-0.167l0.358,-0.167l0.358,-0.165l0.359,-0.165l0.36,-0.163l0.36,-0.163l0.361,-0.161l0.361,-0.16l0.362,-0.159l0.363,-0.158l0.363,-0.157l0.363,-0.156l0.365,-0.155l0.365,-0.154l0.365,-0.152l0.366,-0.152l0.367,-0.151l0.367,-0.149l0.367,-0.148l0.369,-0.148l0.368,-0.146l0.369,-0.145l0.371,-0.144l0.37,-0.143l0.371,-0.141l0.371,-0.141l0.372,-0.14l0.373,-0.138l0.373,-0.138l0.373,-0.136l0.374,-0.135l0.376,-0.134l0.375,-0.133l0.375,-0.132l0.377,-0.131l0.377,-0.129l0.377,-0.128l0.377,-0.128l0.379,-0.126l0.379,-0.125l0.379,-0.124l0.38,-0.123l0.38,-0.121l0.382,-0.121l0.381,-0.119l0.382,-0.119l0.382,-0.117l0.383,-0.115l0.383,-0.115l0.385,-0.114l0.383,-0.112l0.386,-0.112l0.385,-0.11l0.386,-0.109l0.386,-0.108l0.387,-0.107l0.387,-0.105l0.388,-0.105l0.388,-0.103l0.389,-0.102l0.389,-0.101l0.39,-0.1l0.39,-0.098l0.39,-0.097l0.391,-0.097l0.392,-0.094l0.392,-0.094l0.392,-0.093l0.393,-0.091l0.393,-0.091l0.394,-0.089l0.395,-0.088l0.394,-0.086l0.395,-0.086l0.395,-0.084l0.397,-0.083l0.396,-0.082l0.397,-0.081l0.397,-0.079l0.398,-0.078l0.398,-0.077l0.398,-0.076l0.399,-0.075l0.4,-0.073l0.4,-0.072l0.4,-0.071l0.401,-0.07l0.401,-0.068l0.401,-0.067l0.402,-0.066l0.402,-0.065l0.404,-0.064l0.403,-0.062l0.403,-0.061l0.404,-0.06l0.404,-0.059l0.405,-0.057l0.405,-0.056l0.405,-0.055l0.406,-0.054l0.406,-0.052l0.407,-0.051l0.407,-0.05l0.408,-0.048l0.408,-0.048l0.407,-0.046l0.409,-0.045l0.409,-0.043l0.409,-0.042l0.41,-0.041l0.41,-0.04l0.41,-0.039l0.411,-0.037l0.411,-0.036l0.412,-0.034l0.412,-0.034l0.412,-0.032l0.412,-0.031l0.413,-0.029l0.413,-0.028l0.413,-0.027l0.414,-0.026l0.415,-0.024l0.414,-0.023l0.415,-0.022l0.415,-0.02l0.416,-0.019l0.416,-0.018l0.416,-0.017l0.417,-0.015l0.416,-0.014l0.417,-0.012l0.418,-0.012l0.418,-0.009l0.418,-0.009l0.418,-0.007l0.419,-0.006l0.419,-0.005l0.419,-0.003l0.42,-0.002l0.42,-0.001l0.42,0.001Zm-0.824,5l-0.404,0.002l-0.403,0.003l-0.404,0.004l-0.402,0.006l-0.403,0.007l-0.402,0.008l-0.402,0.01l-0.402,0.011l-0.401,0.012l-0.401,0.013l-0.401,0.015l-0.4,0.016l-0.4,0.017l-0.4,0.018l-0.399,0.02l-0.399,0.021l-0.399,0.022l-0.399,0.023l-0.398,0.025l-0.397,0.026l-0.398,0.027l-0.397,0.028l-0.397,0.03l-0.396,0.031l-0.396,0.032l-0.396,0.033l-0.395,0.034l-0.395,0.036l-0.395,0.037l-0.394,0.038l-0.394,0.04l-0.393,0.041l-0.394,0.041l-0.393,0.043l-0.392,0.045l-0.392,0.045l-0.392,0.047l-0.391,0.048l-0.391,0.049l-0.391,0.05l-0.39,0.052l-0.39,0.053l-0.389,0.054l-0.39,0.055l-0.388,0.056l-0.389,0.058l-0.388,0.058l-0.387,0.06l-0.387,0.061l-0.387,0.063l-0.386,0.063l-0.386,0.065l-0.386,0.066l-0.385,0.067l-0.385,0.068l-0.384,0.069l-0.384,0.071l-0.384,0.071l-0.383,0.073l-0.383,0.074l-0.382,0.076l-0.382,0.076l-0.382,0.077l-0.381,0.079l-0.38,0.08l-0.381,0.081l-0.379,0.082l-0.38,0.083l-0.379,0.085l-0.378,0.085l-0.378,0.087l-0.378,0.088l-0.377,0.089l-0.377,0.09l-0.376,0.092l-0.376,0.092l-0.375,0.094l-0.375,0.094l-0.375,0.096l-0.374,0.097l-0.374,0.098l-0.373,0.099l-0.373,0.101l-0.372,0.101l-0.372,0.103l-0.371,0.104l-0.371,0.104l-0.37,0.106l-0.37,0.107l-0.37,0.108l-0.369,0.11l-0.368,0.11l-0.368,0.111l-0.368,0.113l-0.367,0.114l-0.367,0.114l-0.366,0.116l-0.365,0.117l-0.366,0.118l-0.364,0.119l-0.364,0.121l-0.364,0.121l-0.363,0.122l-0.363,0.124l-0.362,0.124l-0.362,0.126l-0.361,0.127l-0.361,0.127l-0.36,0.129l-0.36,0.13l-0.359,0.131l-0.358,0.132l-0.358,0.133l-0.358,0.134l-0.357,0.136l-0.357,0.136l-0.356,0.137l-0.355,0.139l-0.355,0.139l-0.355,0.141l-0.354,0.141l-0.353,0.143l-0.353,0.144l-0.352,0.144l-0.352,0.146l-0.351,0.147l-0.351,0.148l-0.35,0.148l-0.35,0.15l-0.349,0.151l-0.349,0.152l-0.348,0.153l-0.347,0.154l-0.347,0.155l-0.346,0.156l-0.346,0.157l-0.345,0.158l-0.345,0.16l-0.344,0.16l-0.343,0.161l-0.343,0.162l-0.343,0.163l-0.342,0.164l-0.341,0.165l-0.34,0.167l-0.34,0.167l-0.34,0.168l-0.339,0.169l-0.338,0.17l-0.338,0.171l-0.337,0.173l-0.337,0.173l-0.336,0.174l-0.335,0.175l-0.335,0.176l-0.334,0.177l-0.334,0.178l-0.333,0.179l-0.332,0.18l-0.332,0.181l-0.331,0.182l-0.33,0.183l-0.33,0.184l-0.33,0.185l-0.328,0.186l-0.329,0.186l-0.327,0.188l-0.327,0.189l-0.326,0.189l-0.326,0.191l-0.325,0.192l-0.324,0.192l-0.324,0.194l-0.323,0.194l-0.323,0.195l-0.321,0.197l-0.322,0.197l-0.32,0.198l-0.32,0.199l-0.319,0.2l-0.319,0.201l-0.318,0.202l-0.317,0.203l-0.317,0.204l-0.316,0.205l-0.315,0.205l-0.315,0.207l-0.314,0.207l-0.314,0.209l-0.312,0.209l-0.312,0.21l-0.312,0.211l-0.311,0.212l-0.31,0.213l-0.309,0.214l-0.309,0.215l-0.308,0.216l-0.307,0.216l-0.307,0.218l-0.306,0.218l-0.305,0.219l-0.305,0.221l-0.304,0.221l-0.303,0.222l-0.303,0.222l-0.301,0.224l-0.302,0.225l-0.3,0.225l-0.3,0.226l-0.299,0.228l-0.298,0.228l-0.298,0.229l-0.297,0.23l-0.296,0.23l-0.296,0.232l-0.295,0.232l-0.294,0.234l-0.293,0.234l-0.293,0.235l-0.292,0.236l-0.291,0.237l-0.291,0.237l-0.289,0.239l-0.289,0.239l-0.289,0.24l-0.287,0.241l-0.287,0.242l-0.286,0.243l-0.286,0.244l-0.284,0.244l-0.284,0.245l-0.284,0.246l-0.282,0.247l-0.282,0.248l-0.281,0.248l-0.28,0.25l-0.279,0.25l-0.279,0.251l-0.278,0.252l-0.277,0.253l-0.276,0.253l-0.276,0.254l-0.275,0.256l-0.274,0.256l-0.273,0.256l-0.273,0.258l-0.272,0.258l-0.271,0.259l-0.27,0.26l-0.269,0.261l-0.269,0.262l-0.268,0.262l-0.267,0.263l-0.266,0.264l-0.266,0.265l-0.265,0.266l-0.264,0.266l-0.263,0.267l-0.262,0.268l-0.262,0.269l-0.261,0.269l-0.26,0.27l-0.259,0.271l-0.258,0.272l-0.258,0.273l-0.256,0.273l-0.256,0.274l-0.256,0.275l-0.254,0.276l-0.253,0.276l-0.253,0.277l-0.252,0.278l-0.251,0.279l-0.25,0.279l-0.25,0.28l-0.248,0.281l-0.248,0.282l-0.247,0.282l-0.246,0.284l-0.245,0.284l-0.244,0.284l-0.244,0.286l-0.243,0.286l-0.242,0.287l-0.241,0.287l-0.24,0.289l-0.239,0.289l-0.239,0.289l-0.237,0.291l-0.237,0.291l-0.236,0.292l-0.235,0.293l-0.234,0.293l-0.234,0.294l-0.232,0.295l-0.232,0.296l-0.23,0.296l-0.23,0.297l-0.229,0.298l-0.228,0.298l-0.228,0.299l-0.226,0.3l-0.225,0.3l-0.225,0.302l-0.224,0.301l-0.222,0.303l-0.222,0.303l-0.221,0.304l-0.221,0.305l-0.219,0.305l-0.218,0.306l-0.218,0.307l-0.216,0.307l-0.216,0.308l-0.215,0.309l-0.214,0.309l-0.213,0.31l-0.212,0.311l-0.211,0.312l-0.21,0.312l-0.209,0.312l-0.209,0.314l-0.207,0.314l-0.207,0.315l-0.205,0.315l-0.205,0.316l-0.204,0.317l-0.203,0.317l-0.202,0.318l-0.201,0.319l-0.2,0.319l-0.199,0.32l-0.198,0.32l-0.197,0.322l-0.197,0.321l-0.195,0.323l-0.194,0.323l-0.194,0.324l-0.192,0.324l-0.192,0.325l-0.191,0.326l-0.189,0.326l-0.189,0.327l-0.188,0.327l-0.186,0.329l-0.186,0.328l-0.185,0.33l-0.184,0.33l-0.183,0.33l-0.182,0.331l-0.181,0.332l-0.18,0.332l-0.179,0.333l-0.178,0.334l-0.177,0.334l-0.176,0.335l-0.175,0.335l-0.174,0.336l-0.173,0.337l-0.173,0.337l-0.171,0.338l-0.17,0.338l-0.169,0.339l-0.168,0.34l-0.167,0.34l-0.167,0.34l-0.165,0.341l-0.164,0.342l-0.163,0.343l-0.162,0.343l-0.161,0.343l-0.16,0.344l-0.16,0.345l-0.158,0.345l-0.157,0.346l-0.156,0.346l-0.155,0.347l-0.154,0.347l-0.153,0.348l-0.152,0.349l-0.151,0.349l-0.15,0.35l-0.148,0.35l-0.148,0.351l-0.147,0.351l-0.146,0.352l-0.144,0.352l-0.144,0.353l-0.143,0.353l-0.141,0.354l-0.141,0.355l-0.139,0.355l-0.139,0.355l-0.137,0.356l-0.136,0.357l-0.136,0.357l-0.134,0.358l-0.133,0.358l-0.132,0.358l-0.131,0.359l-0.13,0.36l-0.129,0.36l-0.127,0.361l-0.127,0.361l-0.126,0.362l-0.124,0.362l-0.124,0.363l-0.122,0.363l-0.121,0.364l-0.121,0.364l-0.119,0.364l-0.118,0.366l-0.117,0.365l-0.116,0.366l-0.114,0.367l-0.114,0.367l-0.113,0.368l-0.111,0.368l-0.11,0.368l-0.11,0.369l-0.108,0.37l-0.107,0.37l-0.106,0.37l-0.104,0.371l-0.104,0.371l-0.103,0.372l-0.101,0.372l-0.101,0.373l-0.099,0.373l-0.098,0.374l-0.097,0.374l-0.096,0.375l-0.094,0.375l-0.094,0.375l-0.092,0.376l-0.092,0.376l-0.09,0.377l-0.089,0.377l-0.088,0.378l-0.087,0.378l-0.085,0.378l-0.085,0.379l-0.083,0.38l-0.082,0.379l-0.081,0.381l-0.08,0.38l-0.079,0.381l-0.077,0.382l-0.076,0.382l-0.076,0.382l-0.074,0.383l-0.073,0.383l-0.071,0.384l-0.071,0.384l-0.069,0.384l-0.068,0.385l-0.067,0.385l-0.066,0.386l-0.065,0.386l-0.063,0.386l-0.063,0.387l-0.061,0.387l-0.06,0.387l-0.058,0.388l-0.058,0.389l-0.056,0.388l-0.055,0.39l-0.054,0.389l-0.053,0.39l-0.052,0.39l-0.05,0.391l-0.049,0.391l-0.048,0.391l-0.047,0.392l-0.045,0.392l-0.045,0.392l-0.043,0.393l-0.041,0.394l-0.041,0.393l-0.04,0.394l-0.038,0.394l-0.037,0.395l-0.036,0.395l-0.034,0.395l-0.033,0.396l-0.032,0.396l-0.031,0.396l-0.03,0.397l-0.028,0.397l-0.027,0.398l-0.026,0.397l-0.025,0.398l-0.023,0.399l-0.022,0.399l-0.021,0.399l-0.02,0.399l-0.018,0.4l-0.017,0.4l-0.016,0.4l-0.015,0.401l-0.013,0.401l-0.012,0.401l-0.011,0.402l-0.01,0.402l-0.008,0.402l-0.007,0.403l-0.006,0.402l-0.004,0.404l-0.003,0.403l-0.002,0.404l-0.001,0.404l0.001,0.404l0.002,0.404l0.003,0.403l0.004,0.404l0.006,0.402l0.007,0.403l0.008,0.402l0.01,0.402l0.011,0.402l0.012,0.401l0.013,0.401l0.015,0.401l0.016,0.4l0.017,0.4l0.018,0.4l0.02,0.399l0.021,0.399l0.022,0.399l0.023,0.399l0.025,0.398l0.026,0.397l0.027,0.398l0.028,0.397l0.03,0.397l0.031,0.396l0.032,0.396l0.033,0.396l0.034,0.395l0.036,0.395l0.037,0.395l0.038,0.394l0.04,0.394l0.041,0.393l0.041,0.394l0.043,0.393l0.09,0.784l0.047,0.392l0.048,0.391l0.049,0.391l0.05,0.391l0.052,0.39l0.053,0.39l0.054,0.389l0.055,0.39l0.056,0.388l0.058,0.389l0.058,0.388l0.06,0.387l0.061,0.387l0.063,0.387l0.063,0.386l0.065,0.386l0.066,0.386l0.067,0.385l0.068,0.385l0.069,0.384l0.142,0.768l0.073,0.383l0.074,0.383l0.152,0.764l0.077,0.382l0.079,0.381l0.08,0.38l0.081,0.381l0.082,0.379l0.083,0.38l0.085,0.379l0.085,0.378l0.087,0.378l0.088,0.378l0.089,0.377l0.09,0.377l0.184,0.752l0.188,0.75l0.096,0.375l0.097,0.374l0.098,0.374l0.099,0.373l0.101,0.373l0.101,0.372l0.103,0.372l0.208,0.742l0.106,0.37l0.107,0.37l0.108,0.37l0.11,0.369l0.11,0.368l0.111,0.368l0.113,0.368l0.228,0.734l0.116,0.366l0.117,0.365l0.118,0.366l0.119,0.364l0.242,0.728l0.122,0.363l0.124,0.363l0.124,0.362l0.126,0.362l0.254,0.722l0.129,0.36l0.13,0.36l0.131,0.359l0.132,0.358l0.133,0.358l0.134,0.358l0.272,0.714l0.137,0.356l0.278,0.71l0.141,0.355l0.141,0.354l0.143,0.353l0.144,0.353l0.144,0.352l0.146,0.352l0.147,0.351l0.148,0.351l0.148,0.35l0.15,0.35l0.151,0.349l0.152,0.349l0.153,0.348l0.154,0.347l0.155,0.347l0.156,0.346l0.157,0.346l0.158,0.345l0.16,0.345l0.16,0.344l0.161,0.343l0.162,0.343l0.163,0.343l0.164,0.342l0.165,0.341l0.334,0.68l0.168,0.34l0.169,0.339l0.17,0.338l0.171,0.338l0.346,0.674l0.174,0.336l0.175,0.335l0.176,0.335l0.177,0.334l0.178,0.334l0.179,0.333l0.18,0.332l0.181,0.332l0.182,0.331l0.183,0.33l0.184,0.33l0.185,0.33l0.186,0.328l0.186,0.329l0.188,0.327l0.189,0.327l0.189,0.326l0.191,0.326l0.192,0.325l0.192,0.324l0.194,0.324l0.194,0.323l0.195,0.323l0.197,0.321l0.197,0.322l0.198,0.32l0.199,0.32l0.2,0.319l0.201,0.319l0.202,0.318l0.203,0.317l0.204,0.317l0.205,0.316l0.205,0.315l0.207,0.315l0.207,0.314l0.209,0.314l0.209,0.312l0.21,0.312l0.211,0.312l0.212,0.311l0.213,0.31l0.214,0.309l0.215,0.309l0.216,0.308l0.216,0.307l0.218,0.307l0.218,0.306l0.219,0.305l0.221,0.305l0.221,0.304l0.444,0.606l0.224,0.301l0.225,0.302l0.225,0.3l0.226,0.3l0.228,0.299l0.228,0.298l0.229,0.298l0.23,0.297l0.23,0.296l0.232,0.296l0.232,0.295l0.234,0.294l0.234,0.293l0.235,0.293l0.236,0.292l0.474,0.582l0.478,0.578l0.24,0.289l0.241,0.287l0.242,0.287l0.243,0.286l0.244,0.286l0.244,0.284l0.245,0.284l0.246,0.284l0.247,0.282l0.248,0.282l0.248,0.281l0.25,0.28l0.25,0.279l0.251,0.279l0.252,0.278l0.253,0.277l0.253,0.276l0.254,0.276l0.256,0.275l0.256,0.274l0.256,0.273l0.258,0.273l0.258,0.272l0.259,0.271l0.26,0.27l0.261,0.269l0.262,0.269l0.262,0.268l0.263,0.267l0.264,0.266l0.265,0.266l0.266,0.265l0.266,0.264l0.267,0.263l0.268,0.262l0.269,0.262l0.269,0.261l0.27,0.26l0.271,0.259l0.272,0.258l0.273,0.258l0.273,0.256l0.274,0.256l0.275,0.256l0.276,0.254l0.276,0.253l0.277,0.253l0.278,0.252l0.279,0.251l0.279,0.25l0.28,0.25l0.281,0.248l0.282,0.248l0.282,0.247l0.284,0.246l0.284,0.245l0.284,0.244l0.286,0.244l0.286,0.243l0.287,0.242l0.287,0.241l0.289,0.24l0.578,0.478l0.582,0.474l0.292,0.236l0.293,0.235l0.293,0.234l0.294,0.234l0.295,0.232l0.296,0.232l0.296,0.23l0.297,0.23l0.298,0.229l0.298,0.228l0.299,0.228l0.3,0.226l0.3,0.225l0.302,0.225l0.301,0.224l0.606,0.444l0.304,0.221l0.305,0.221l0.305,0.219l0.306,0.218l0.307,0.218l0.307,0.216l0.308,0.216l0.309,0.215l0.309,0.214l0.31,0.213l0.311,0.212l0.312,0.211l0.312,0.21l0.312,0.209l0.314,0.209l0.314,0.207l0.315,0.207l0.315,0.205l0.316,0.205l0.317,0.204l0.317,0.203l0.318,0.202l0.319,0.201l0.319,0.2l0.32,0.199l0.32,0.198l0.322,0.197l0.321,0.197l0.323,0.195l0.323,0.194l0.324,0.194l0.324,0.192l0.325,0.192l0.326,0.191l0.326,0.189l0.327,0.189l0.327,0.188l0.329,0.186l0.328,0.186l0.33,0.185l0.33,0.184l0.33,0.183l0.331,0.182l0.332,0.181l0.332,0.18l0.333,0.179l0.334,0.178l0.334,0.177l0.335,0.176l0.335,0.175l0.336,0.174l0.674,0.346l0.338,0.171l0.338,0.17l0.339,0.169l0.34,0.168l0.68,0.334l0.341,0.165l0.342,0.164l0.343,0.163l0.343,0.162l0.343,0.161l0.344,0.16l0.345,0.16l0.345,0.158l0.346,0.157l0.346,0.156l0.347,0.155l0.347,0.154l0.348,0.153l0.349,0.152l0.349,0.151l0.35,0.15l0.35,0.148l0.351,0.148l0.351,0.147l0.352,0.146l0.352,0.144l0.353,0.144l0.353,0.143l0.354,0.141l0.355,0.141l0.71,0.278l0.356,0.137l0.714,0.272l0.358,0.134l0.358,0.133l0.358,0.132l0.359,0.131l0.36,0.13l0.36,0.129l0.722,0.254l0.362,0.126l0.362,0.124l0.363,0.124l0.363,0.122l0.728,0.242l0.364,0.119l0.366,0.118l0.365,0.117l0.366,0.116l0.734,0.228l0.368,0.113l0.368,0.111l0.368,0.11l0.369,0.11l0.37,0.108l0.37,0.107l0.37,0.106l0.742,0.208l0.372,0.103l0.372,0.101l0.373,0.101l0.373,0.099l0.374,0.098l0.374,0.097l0.375,0.096l0.75,0.188l0.752,0.184l0.377,0.09l0.377,0.089l0.378,0.088l0.378,0.087l0.378,0.085l0.379,0.085l0.38,0.083l0.379,0.082l0.381,0.081l0.38,0.08l0.381,0.079l0.382,0.077l0.764,0.152l0.383,0.074l0.383,0.073l0.768,0.142l0.384,0.069l0.385,0.068l0.385,0.067l0.386,0.066l0.386,0.065l0.386,0.063l0.387,0.063l0.387,0.061l0.387,0.06l0.388,0.058l0.389,0.058l0.388,0.056l0.39,0.055l0.389,0.054l0.39,0.053l0.39,0.052l0.391,0.05l0.391,0.049l0.391,0.048l0.392,0.047l0.784,0.09l0.393,0.043l0.394,0.041l0.393,0.041l0.394,0.04l0.394,0.038l0.395,0.037l0.395,0.036l0.395,0.034l0.396,0.033l0.396,0.032l0.396,0.031l0.397,0.03l0.397,0.028l0.398,0.027l0.397,0.026l0.398,0.025l0.399,0.023l0.399,0.022l0.399,0.021l0.399,0.02l0.4,0.018l0.4,0.017l0.4,0.016l0.401,0.015l0.401,0.013l0.401,0.012l0.402,0.011l0.402,0.01l0.402,0.008l0.403,0.007l0.402,0.006l0.404,0.004l0.403,0.003l0.404,0.002l0.404,0.001l0.404,-0.001l0.404,-0.002l0.403,-0.003l0.404,-0.004l0.402,-0.006l0.403,-0.007l0.402,-0.008l0.402,-0.01l0.402,-0.011l0.401,-0.012l0.401,-0.013l0.401,-0.015l0.4,-0.016l0.4,-0.017l0.4,-0.018l0.399,-0.02l0.399,-0.021l0.399,-0.022l0.399,-0.023l0.398,-0.025l0.397,-0.026l0.398,-0.027l0.397,-0.028l0.397,-0.03l0.396,-0.031l0.396,-0.032l0.396,-0.033l0.395,-0.034l0.395,-0.036l0.395,-0.037l0.394,-0.038l0.394,-0.04l0.393,-0.041l0.394,-0.041l0.393,-0.043l0.392,-0.045l0.392,-0.045l0.392,-0.047l0.391,-0.048l0.391,-0.049l0.391,-0.05l0.39,-0.052l0.39,-0.053l0.389,-0.054l0.39,-0.055l0.388,-0.056l0.389,-0.058l0.388,-0.058l0.387,-0.06l0.387,-0.061l0.387,-0.063l0.386,-0.063l0.386,-0.065l0.386,-0.066l0.385,-0.067l0.385,-0.068l0.384,-0.069l0.384,-0.071l0.384,-0.071l0.383,-0.073l0.383,-0.074l0.382,-0.076l0.382,-0.076l0.382,-0.077l0.381,-0.079l0.38,-0.08l0.381,-0.081l0.379,-0.082l0.38,-0.083l0.379,-0.085l0.378,-0.085l0.378,-0.087l0.378,-0.088l0.377,-0.089l0.377,-0.09l0.376,-0.092l0.376,-0.092l0.375,-0.094l0.375,-0.094l0.375,-0.096l0.374,-0.097l0.374,-0.098l0.373,-0.099l0.373,-0.101l0.372,-0.101l0.372,-0.103l0.371,-0.104l0.371,-0.104l0.37,-0.106l0.37,-0.107l0.37,-0.108l0.369,-0.11l0.368,-0.11l0.368,-0.111l0.368,-0.113l0.367,-0.114l0.367,-0.114l0.366,-0.116l0.365,-0.117l0.366,-0.118l0.364,-0.119l0.364,-0.121l0.364,-0.121l0.363,-0.122l0.363,-0.124l0.362,-0.124l0.362,-0.126l0.361,-0.127l0.361,-0.127l0.36,-0.129l0.36,-0.13l0.359,-0.131l0.358,-0.132l0.358,-0.133l0.358,-0.134l0.357,-0.136l0.357,-0.136l0.356,-0.137l0.355,-0.139l0.355,-0.139l0.355,-0.141l0.354,-0.141l0.353,-0.143l0.353,-0.144l0.352,-0.144l0.352,-0.146l0.351,-0.147l0.351,-0.148l0.35,-0.148l0.35,-0.15l0.349,-0.151l0.349,-0.152l0.348,-0.153l0.347,-0.154l0.347,-0.155l0.346,-0.156l0.346,-0.157l0.345,-0.158l0.345,-0.16l0.344,-0.16l0.343,-0.161l0.343,-0.162l0.343,-0.163l0.342,-0.164l0.341,-0.165l0.34,-0.167l0.34,-0.167l0.34,-0.168l0.339,-0.169l0.338,-0.17l0.338,-0.171l0.337,-0.173l0.337,-0.173l0.336,-0.174l0.335,-0.175l0.335,-0.176l0.334,-0.177l0.334,-0.178l0.333,-0.179l0.332,-0.18l0.332,-0.181l0.331,-0.182l0.33,-0.183l0.33,-0.184l0.33,-0.185l0.328,-0.186l0.329,-0.186l0.327,-0.188l0.327,-0.189l0.326,-0.189l0.326,-0.191l0.325,-0.192l0.324,-0.192l0.324,-0.194l0.323,-0.194l0.323,-0.195l0.321,-0.197l0.322,-0.197l0.32,-0.198l0.32,-0.199l0.319,-0.2l0.319,-0.201l0.318,-0.202l0.317,-0.203l0.317,-0.204l0.316,-0.205l0.315,-0.205l0.315,-0.207l0.314,-0.207l0.314,-0.209l0.312,-0.209l0.312,-0.21l0.312,-0.211l0.311,-0.212l0.31,-0.213l0.309,-0.214l0.309,-0.215l0.308,-0.216l0.307,-0.216l0.307,-0.218l0.306,-0.218l0.305,-0.219l0.305,-0.221l0.304,-0.221l0.303,-0.222l0.303,-0.222l0.301,-0.224l0.302,-0.225l0.3,-0.225l0.3,-0.226l0.299,-0.228l0.298,-0.228l0.298,-0.229l0.297,-0.23l0.296,-0.23l0.296,-0.232l0.295,-0.232l0.294,-0.234l0.293,-0.234l0.293,-0.235l0.292,-0.236l0.291,-0.237l0.291,-0.237l0.289,-0.239l0.289,-0.239l0.289,-0.24l0.287,-0.241l0.287,-0.242l0.286,-0.243l0.286,-0.244l0.284,-0.244l0.284,-0.245l0.284,-0.246l0.282,-0.247l0.282,-0.248l0.281,-0.248l0.28,-0.25l0.279,-0.25l0.279,-0.251l0.278,-0.252l0.277,-0.253l0.276,-0.253l0.276,-0.254l0.275,-0.256l0.274,-0.256l0.273,-0.256l0.273,-0.258l0.272,-0.258l0.271,-0.259l0.27,-0.26l0.269,-0.261l0.269,-0.262l0.268,-0.262l0.267,-0.263l0.266,-0.264l0.266,-0.265l0.265,-0.266l0.264,-0.266l0.263,-0.267l0.262,-0.268l0.262,-0.269l0.261,-0.269l0.26,-0.27l0.259,-0.271l0.258,-0.272l0.258,-0.273l0.256,-0.273l0.256,-0.274l0.256,-0.275l0.254,-0.276l0.253,-0.276l0.253,-0.277l0.252,-0.278l0.251,-0.279l0.25,-0.279l0.25,-0.28l0.248,-0.281l0.248,-0.282l0.247,-0.282l0.246,-0.284l0.245,-0.284l0.244,-0.284l0.244,-0.286l0.243,-0.286l0.242,-0.287l0.241,-0.287l0.24,-0.289l0.239,-0.289l0.239,-0.289l0.237,-0.291l0.237,-0.291l0.236,-0.292l0.235,-0.293l0.234,-0.293l0.234,-0.294l0.232,-0.295l0.232,-0.296l0.23,-0.296l0.23,-0.297l0.229,-0.298l0.228,-0.298l0.228,-0.299l0.226,-0.3l0.225,-0.3l0.225,-0.302l0.224,-0.301l0.222,-0.303l0.222,-0.303l0.221,-0.304l0.221,-0.305l0.219,-0.305l0.218,-0.306l0.218,-0.307l0.216,-0.307l0.216,-0.308l0.215,-0.309l0.214,-0.309l0.213,-0.31l0.212,-0.311l0.211,-0.312l0.21,-0.312l0.209,-0.312l0.209,-0.314l0.207,-0.314l0.207,-0.315l0.205,-0.315l0.205,-0.316l0.204,-0.317l0.203,-0.317l0.202,-0.318l0.201,-0.319l0.2,-0.319l0.199,-0.32l0.198,-0.32l0.197,-0.322l0.197,-0.321l0.195,-0.323l0.194,-0.323l0.194,-0.324l0.192,-0.324l0.192,-0.325l0.191,-0.326l0.189,-0.326l0.189,-0.327l0.188,-0.327l0.186,-0.329l0.186,-0.328l0.185,-0.33l0.184,-0.33l0.183,-0.33l0.182,-0.331l0.181,-0.332l0.18,-0.332l0.179,-0.333l0.178,-0.334l0.177,-0.334l0.176,-0.335l0.175,-0.335l0.174,-0.336l0.173,-0.337l0.173,-0.337l0.171,-0.338l0.17,-0.338l0.169,-0.339l0.168,-0.34l0.167,-0.34l0.167,-0.34l0.165,-0.341l0.164,-0.342l0.163,-0.343l0.162,-0.343l0.161,-0.343l0.16,-0.344l0.16,-0.345l0.158,-0.345l0.157,-0.346l0.156,-0.346l0.155,-0.347l0.154,-0.347l0.153,-0.348l0.152,-0.349l0.151,-0.349l0.15,-0.35l0.148,-0.35l0.148,-0.351l0.147,-0.351l0.146,-0.352l0.144,-0.352l0.144,-0.353l0.143,-0.353l0.141,-0.354l0.141,-0.355l0.139,-0.355l0.139,-0.355l0.137,-0.356l0.136,-0.357l0.136,-0.357l0.134,-0.358l0.133,-0.358l0.132,-0.358l0.131,-0.359l0.13,-0.36l0.129,-0.36l0.127,-0.361l0.127,-0.361l0.126,-0.362l0.124,-0.362l0.124,-0.363l0.122,-0.363l0.121,-0.364l0.121,-0.364l0.119,-0.364l0.118,-0.366l0.117,-0.365l0.116,-0.366l0.114,-0.367l0.114,-0.367l0.113,-0.368l0.111,-0.368l0.11,-0.368l0.11,-0.369l0.108,-0.37l0.107,-0.37l0.106,-0.37l0.104,-0.371l0.104,-0.371l0.103,-0.372l0.101,-0.372l0.101,-0.373l0.099,-0.373l0.098,-0.374l0.097,-0.374l0.096,-0.375l0.094,-0.375l0.094,-0.375l0.092,-0.376l0.092,-0.376l0.09,-0.377l0.089,-0.377l0.088,-0.378l0.087,-0.378l0.085,-0.378l0.085,-0.379l0.083,-0.38l0.082,-0.379l0.081,-0.381l0.08,-0.38l0.079,-0.381l0.077,-0.382l0.076,-0.382l0.076,-0.382l0.074,-0.383l0.073,-0.383l0.071,-0.384l0.071,-0.384l0.069,-0.384l0.068,-0.385l0.067,-0.385l0.066,-0.386l0.065,-0.386l0.063,-0.386l0.063,-0.387l0.061,-0.387l0.06,-0.387l0.058,-0.388l0.058,-0.389l0.056,-0.388l0.055,-0.39l0.054,-0.389l0.053,-0.39l0.052,-0.39l0.05,-0.391l0.049,-0.391l0.048,-0.391l0.047,-0.392l0.045,-0.392l0.045,-0.392l0.043,-0.393l0.041,-0.394l0.041,-0.393l0.04,-0.394l0.038,-0.394l0.037,-0.395l0.036,-0.395l0.034,-0.395l0.033,-0.396l0.032,-0.396l0.031,-0.396l0.03,-0.397l0.028,-0.397l0.027,-0.398l0.026,-0.397l0.025,-0.398l0.023,-0.399l0.022,-0.399l0.021,-0.399l0.02,-0.399l0.018,-0.4l0.017,-0.4l0.016,-0.4l0.015,-0.401l0.013,-0.401l0.012,-0.401l0.011,-0.402l0.01,-0.402l0.008,-0.402l0.007,-0.403l0.006,-0.402l0.004,-0.404l0.003,-0.403l0.002,-0.404l0.001,-0.404l-0.001,-0.404l-0.002,-0.404l-0.003,-0.403l-0.004,-0.404l-0.006,-0.402l-0.007,-0.403l-0.008,-0.402l-0.01,-0.402l-0.011,-0.402l-0.012,-0.401l-0.013,-0.401l-0.015,-0.401l-0.016,-0.4l-0.017,-0.4l-0.018,-0.4l-0.02,-0.399l-0.021,-0.399l-0.022,-0.399l-0.023,-0.399l-0.025,-0.398l-0.026,-0.397l-0.027,-0.398l-0.028,-0.397l-0.03,-0.397l-0.031,-0.396l-0.032,-0.396l-0.033,-0.396l-0.034,-0.395l-0.036,-0.395l-0.037,-0.395l-0.038,-0.394l-0.04,-0.394l-0.041,-0.393l-0.041,-0.394l-0.043,-0.393l-0.045,-0.392l-0.045,-0.392l-0.047,-0.392l-0.048,-0.391l-0.049,-0.391l-0.05,-0.391l-0.052,-0.39l-0.053,-0.39l-0.054,-0.389l-0.055,-0.39l-0.056,-0.388l-0.058,-0.389l-0.058,-0.388l-0.06,-0.387l-0.061,-0.387l-0.063,-0.387l-0.063,-0.386l-0.065,-0.386l-0.066,-0.386l-0.067,-0.385l-0.068,-0.385l-0.069,-0.384l-0.071,-0.384l-0.071,-0.384l-0.073,-0.383l-0.074,-0.383l-0.076,-0.382l-0.076,-0.382l-0.077,-0.382l-0.079,-0.381l-0.08,-0.38l-0.081,-0.381l-0.082,-0.379l-0.083,-0.38l-0.085,-0.379l-0.085,-0.378l-0.087,-0.378l-0.088,-0.378l-0.089,-0.377l-0.09,-0.377l-0.092,-0.376l-0.092,-0.376l-0.094,-0.375l-0.094,-0.375l-0.096,-0.375l-0.097,-0.374l-0.098,-0.374l-0.099,-0.373l-0.101,-0.373l-0.101,-0.372l-0.103,-0.372l-0.104,-0.371l-0.104,-0.371l-0.106,-0.37l-0.107,-0.37l-0.108,-0.37l-0.11,-0.369l-0.11,-0.368l-0.111,-0.368l-0.113,-0.368l-0.114,-0.367l-0.114,-0.367l-0.116,-0.366l-0.117,-0.365l-0.118,-0.366l-0.119,-0.364l-0.121,-0.364l-0.121,-0.364l-0.122,-0.363l-0.124,-0.363l-0.124,-0.362l-0.126,-0.362l-0.127,-0.361l-0.127,-0.361l-0.129,-0.36l-0.13,-0.36l-0.131,-0.359l-0.132,-0.358l-0.133,-0.358l-0.134,-0.358l-0.136,-0.357l-0.136,-0.357l-0.137,-0.356l-0.139,-0.355l-0.139,-0.355l-0.141,-0.355l-0.141,-0.354l-0.143,-0.353l-0.144,-0.353l-0.144,-0.352l-0.146,-0.352l-0.147,-0.351l-0.148,-0.351l-0.148,-0.35l-0.15,-0.35l-0.151,-0.349l-0.152,-0.349l-0.153,-0.348l-0.154,-0.347l-0.155,-0.347l-0.156,-0.346l-0.157,-0.346l-0.158,-0.345l-0.16,-0.345l-0.16,-0.344l-0.161,-0.343l-0.162,-0.343l-0.163,-0.343l-0.164,-0.342l-0.165,-0.341l-0.167,-0.34l-0.167,-0.34l-0.168,-0.34l-0.169,-0.339l-0.17,-0.338l-0.171,-0.338l-0.173,-0.337l-0.173,-0.337l-0.174,-0.336l-0.175,-0.335l-0.176,-0.335l-0.177,-0.334l-0.178,-0.334l-0.179,-0.333l-0.18,-0.332l-0.181,-0.332l-0.182,-0.331l-0.183,-0.33l-0.184,-0.33l-0.185,-0.33l-0.186,-0.328l-0.186,-0.329l-0.188,-0.327l-0.189,-0.327l-0.189,-0.326l-0.191,-0.326l-0.192,-0.325l-0.192,-0.324l-0.194,-0.324l-0.194,-0.323l-0.195,-0.323l-0.197,-0.321l-0.197,-0.322l-0.198,-0.32l-0.199,-0.32l-0.2,-0.319l-0.201,-0.319l-0.202,-0.318l-0.203,-0.317l-0.204,-0.317l-0.205,-0.316l-0.205,-0.315l-0.207,-0.315l-0.207,-0.314l-0.209,-0.314l-0.209,-0.312l-0.21,-0.312l-0.211,-0.312l-0.212,-0.311l-0.213,-0.31l-0.214,-0.309l-0.215,-0.309l-0.216,-0.308l-0.216,-0.307l-0.218,-0.307l-0.218,-0.306l-0.219,-0.305l-0.221,-0.305l-0.221,-0.304l-0.222,-0.303l-0.222,-0.303l-0.224,-0.301l-0.225,-0.302l-0.225,-0.3l-0.226,-0.3l-0.228,-0.299l-0.228,-0.298l-0.229,-0.298l-0.23,-0.297l-0.23,-0.296l-0.232,-0.296l-0.232,-0.295l-0.234,-0.294l-0.234,-0.293l-0.235,-0.293l-0.236,-0.292l-0.237,-0.291l-0.237,-0.291l-0.239,-0.289l-0.239,-0.289l-0.24,-0.289l-0.241,-0.287l-0.242,-0.287l-0.243,-0.286l-0.244,-0.286l-0.244,-0.284l-0.245,-0.284l-0.246,-0.284l-0.247,-0.282l-0.248,-0.282l-0.248,-0.281l-0.25,-0.28l-0.25,-0.279l-0.251,-0.279l-0.252,-0.278l-0.253,-0.277l-0.253,-0.276l-0.254,-0.276l-0.256,-0.275l-0.256,-0.274l-0.256,-0.273l-0.258,-0.273l-0.258,-0.272l-0.259,-0.271l-0.26,-0.27l-0.261,-0.269l-0.262,-0.269l-0.262,-0.268l-0.263,-0.267l-0.264,-0.266l-0.265,-0.266l-0.266,-0.265l-0.266,-0.264l-0.267,-0.263l-0.268,-0.262l-0.269,-0.262l-0.269,-0.261l-0.27,-0.26l-0.271,-0.259l-0.272,-0.258l-0.273,-0.258l-0.273,-0.256l-0.274,-0.256l-0.275,-0.256l-0.276,-0.254l-0.276,-0.253l-0.277,-0.253l-0.278,-0.252l-0.279,-0.251l-0.279,-0.25l-0.28,-0.25l-0.281,-0.248l-0.282,-0.248l-0.282,-0.247l-0.284,-0.246l-0.284,-0.245l-0.284,-0.244l-0.286,-0.244l-0.286,-0.243l-0.287,-0.242l-0.287,-0.241l-0.289,-0.24l-0.289,-0.239l-0.289,-0.239l-0.291,-0.237l-0.291,-0.237l-0.292,-0.236l-0.293,-0.235l-0.293,-0.234l-0.294,-0.234l-0.295,-0.232l-0.296,-0.232l-0.296,-0.23l-0.297,-0.23l-0.298,-0.229l-0.298,-0.228l-0.299,-0.228l-0.3,-0.226l-0.3,-0.225l-0.302,-0.225l-0.301,-0.224l-0.303,-0.222l-0.303,-0.222l-0.304,-0.221l-0.305,-0.221l-0.305,-0.219l-0.306,-0.218l-0.307,-0.218l-0.307,-0.216l-0.308,-0.216l-0.309,-0.215l-0.309,-0.214l-0.31,-0.213l-0.311,-0.212l-0.312,-0.211l-0.312,-0.21l-0.312,-0.209l-0.314,-0.209l-0.314,-0.207l-0.315,-0.207l-0.315,-0.205l-0.316,-0.205l-0.317,-0.204l-0.317,-0.203l-0.318,-0.202l-0.319,-0.201l-0.319,-0.2l-0.32,-0.199l-0.32,-0.198l-0.322,-0.197l-0.321,-0.197l-0.323,-0.195l-0.323,-0.194l-0.324,-0.194l-0.324,-0.192l-0.325,-0.192l-0.326,-0.191l-0.326,-0.189l-0.327,-0.189l-0.327,-0.188l-0.329,-0.186l-0.328,-0.186l-0.33,-0.185l-0.33,-0.184l-0.33,-0.183l-0.331,-0.182l-0.332,-0.181l-0.332,-0.18l-0.333,-0.179l-0.334,-0.178l-0.334,-0.177l-0.335,-0.176l-0.335,-0.175l-0.336,-0.174l-0.337,-0.173l-0.337,-0.173l-0.338,-0.171l-0.338,-0.17l-0.339,-0.169l-0.34,-0.168l-0.34,-0.167l-0.34,-0.167l-0.341,-0.165l-0.342,-0.164l-0.343,-0.163l-0.343,-0.162l-0.343,-0.161l-0.344,-0.16l-0.345,-0.16l-0.345,-0.158l-0.346,-0.157l-0.346,-0.156l-0.347,-0.155l-0.347,-0.154l-0.348,-0.153l-0.349,-0.152l-0.349,-0.151l-0.35,-0.15l-0.35,-0.148l-0.351,-0.148l-0.351,-0.147l-0.352,-0.146l-0.352,-0.144l-0.353,-0.144l-0.353,-0.143l-0.354,-0.141l-0.355,-0.141l-0.355,-0.139l-0.355,-0.139l-0.356,-0.137l-0.357,-0.136l-0.357,-0.136l-0.358,-0.134l-0.358,-0.133l-0.358,-0.132l-0.359,-0.131l-0.36,-0.13l-0.36,-0.129l-0.361,-0.127l-0.361,-0.127l-0.362,-0.126l-0.362,-0.124l-0.363,-0.124l-0.363,-0.122l-0.364,-0.121l-0.364,-0.121l-0.364,-0.119l-0.366,-0.118l-0.365,-0.117l-0.366,-0.116l-0.367,-0.114l-0.367,-0.114l-0.368,-0.113l-0.368,-0.111l-0.368,-0.11l-0.369,-0.11l-0.37,-0.108l-0.37,-0.107l-0.37,-0.106l-0.371,-0.104l-0.371,-0.104l-0.372,-0.103l-0.372,-0.101l-0.373,-0.101l-0.373,-0.099l-0.374,-0.098l-0.374,-0.097l-0.375,-0.096l-0.375,-0.094l-0.375,-0.094l-0.376,-0.092l-0.376,-0.092l-0.377,-0.09l-0.377,-0.089l-0.378,-0.088l-0.378,-0.087l-0.378,-0.085l-0.379,-0.085l-0.38,-0.083l-0.379,-0.082l-0.381,-0.081l-0.38,-0.08l-0.381,-0.079l-0.382,-0.077l-0.382,-0.076l-0.382,-0.076l-0.383,-0.074l-0.383,-0.073l-0.384,-0.071l-0.384,-0.071l-0.384,-0.069l-0.385,-0.068l-0.385,-0.067l-0.386,-0.066l-0.386,-0.065l-0.386,-0.063l-0.387,-0.063l-0.387,-0.061l-0.387,-0.06l-0.388,-0.058l-0.389,-0.058l-0.388,-0.056l-0.39,-0.055l-0.389,-0.054l-0.39,-0.053l-0.39,-0.052l-0.391,-0.05l-0.391,-0.049l-0.391,-0.048l-0.392,-0.047l-0.392,-0.045l-0.392,-0.045l-0.393,-0.043l-0.394,-0.041l-0.393,-0.041l-0.394,-0.04l-0.394,-0.038l-0.395,-0.037l-0.395,-0.036l-0.395,-0.034l-0.396,-0.033l-0.396,-0.032l-0.396,-0.031l-0.397,-0.03l-0.397,-0.028l-0.398,-0.027l-0.397,-0.026l-0.398,-0.025l-0.399,-0.023l-0.399,-0.022l-0.399,-0.021l-0.399,-0.02l-0.4,-0.018l-0.4,-0.017l-0.4,-0.016l-0.401,-0.015l-0.401,-0.013l-0.401,-0.012l-0.402,-0.011l-0.402,-0.01l-0.402,-0.008l-0.403,-0.007l-0.402,-0.006l-0.404,-0.004l-0.403,-0.003l-0.404,-0.002l-0.404,-0.001l-0.404,0.001Z" style="fill:#8a8a8a;"/><path d="M880,925l0,15l40,0l90,90" style="fill:none;stroke:#8a8a8a;stroke-width:1px;"/><path d="M885,925l0,10l40,0l65,65l90,0l30,30" style="fill:none;stroke:#8a8a8a;stroke-width:1px;"/><path d="M910,920l0,10l20,0l50,50l50,0l15,15l40,0l20,20l30,0l20,20" style="fill:none;stroke:#8a8a8a;stroke-width:1px;"/><path d="M755,800l-5,5l0,35l15,15l0,60l10,10l0,60" style="fill:none;stroke:#8a8a8a;stroke-width:1px;"/><path d="M765,885l10,10l0,20l5,5l0,50l5,5l60,0l10,10" style="fill:none;stroke:#8a8a8a;stroke-width:1px;"/><path d="M805,975l10,10" style="fill:none;stroke:#8a8a8a;stroke-width:1px;"/><path d="M815,975l10,10" style="fill:none;stroke:#8a8a8a;stroke-width:1px;"/><path d="M775,935l-5,5l0,30l-5,5l-45,0l-10,10" style="fill:none;stroke:#8a8a8a;stroke-width:1px;"/><path d="M745,975l-7,7" style="fill:none;stroke:#8a8a8a;stroke-width:1px;"/><path d="M760,770l-10,10l0,15l-5,5l0,40l17.5,17.5l0,52.5l-10,10l-7.5,0l-5,5l0,45l-25,0l-15,15" style="fill:none;stroke:#8a8a8a;stroke-width:1px;"/></g></g><rect x="790" y="1190" width="90" height="270" style="fill:url(#_Linear3);"/><path d="M790,1190l90,0l0,270l-90,0" style="fill:none;stroke:#919191;stroke-width:1px;"/><path d="M880,1220l0,210l-20,0l-20,-20l0,-170l20,-20l20,0" style="fill:#8a8a8a;"/><defs><radialGradient id="_Radial2" cx="0" cy="0" r="1" gradientUnits="userSpaceOnUse" gradientTransform="matrix(125,0,0,125,885,795)"><stop offset="0" style="stop-color:#919191;stop-opacity:1"/><stop offset="0.57" style="stop-color:#909090;stop-opacity:1"/><stop offset="0.79" style="stop-color:#8e8e8e;stop-opacity:1"/><stop offset="1" style="stop-color:#8c8c8c;stop-opacity:1"/></radialGradient><linearGradient id="_Linear3" x1="0" y1="0" x2="1" y2="0" gradientUnits="userSpaceOnUse" gradientTransform="matrix(90,0,0,90,790,1325)"><stop offset="0" style="stop-color:#8c8c8c;stop-opacity:1"/><stop offset="1" style="stop-color:#949494;stop-opacity:1"/></linearGradient></defs></svg>