<?xml version="1.0" encoding="UTF-8" standalone="no"?><!DOCTYPE svg PUBLIC "-//W3C//DTD SVG 1.1//EN" "http://www.w3.org/Graphics/SVG/1.1/DTD/svg11.dtd"><svg width="100%" height="100%" viewBox="0 0 2048 2048" version="1.1" xmlns="http://www.w3.org/2000/svg" xmlns:xlink="http://www.w3.org/1999/xlink" xml:space="preserve" style="fill-rule:evenodd;clip-rule:evenodd;stroke-linecap:round;stroke-linejoin:round;stroke-miterlimit:1.5;"><path d="M463.167,656.748l0,-158.193l28.562,-28.563l0,-79.096l185.657,-185.657l262.557,0l37.9,37.9l102.716,0l141.989,141.989l-651.722,651.723l-107.659,-380.103" style="fill:#7f7f7f;"/><path d="M1460.66,1621.29l0,151.601l-154.898,154.898l-330.667,0l-35.703,-35.704l0,-127.982l521.268,-142.813" style="fill:#999;"/><clipPath id="_clip1"><path d="M1460.66,1621.29l0,151.601l-154.898,154.898l-330.667,0l-35.703,-35.704l0,-127.982l521.268,-142.813"/></clipPath><g clip-path="url(#_clip1)"><path d="M1293.68,1362.03l0,338.357l-72.505,72.505l0,107.659l-140.616,0l-101.068,101.068" style="fill:none;stroke:#7f7f7f;stroke-width:8px;"/></g><path d="M1471.65,162.395l87.885,0l0,384.497l105.462,105.462l0,494.353l-143.912,143.912l0,179.066l-81.843,81.843l-125.785,-125.786l0,-1072.2l158.193,-191.15l0,0.003Z" style="fill:#7f7f7f;"/><clipPath id="_clip2"><path d="M1471.65,162.395l87.885,0l0,384.497l105.462,105.462l0,494.353l-143.912,143.912l0,179.066l-81.843,81.843l-125.785,-125.786l0,-1072.2l158.193,-191.15l0,0.003Z"/></clipPath><g clip-path="url(#_clip2)"><path d="M1605.67,553.483l0,173.573l-42.844,42.844l0,370.216l-43.393,43.393l0,51.083" style="fill:none;stroke:#737373;stroke-width:8px;"/></g><path d="M513.701,544.695l0,-204.333l74.702,-74.702l676.715,0l124.137,-124.138l119.743,0l0,787.67l-75.8,75.801l0,403.172l36.802,36.802l0,182.911l-228.776,228.775l-749.495,0l0,-1289.99l21.972,-21.971l0,0.003Z" style="fill:#8c8c8c;"/><g><clipPath id="_clip3"><path d="M513.701,544.695l0,-204.333l74.702,-74.702l676.715,0l124.137,-124.138l119.743,0l0,787.67l-75.8,75.801l0,403.172l36.802,36.802l0,182.911l-228.776,228.775l-749.495,0l0,-1289.99l21.972,-21.971l0,0.003Z"/></clipPath><g clip-path="url(#_clip3)"><path d="M1247.01,243.769l0,102.281l26.165,0l64.818,-64.817l14.866,0l0,175.424l-48.761,48.762l0,172.45l105.849,0l124.878,-124.878" style="fill:none;stroke:#7f7f7f;stroke-width:8px;"/><path d="M1270.8,244.959l0,64.223l70.169,-70.17l0,-88.009" style="fill:none;stroke:#7f7f7f;stroke-width:8px;"/><path d="M479.901,1075.1l85.035,-85.036l0,-496.538l-63.331,-63.332" style="fill:none;stroke:#7f7f7f;stroke-width:8px;"/></g></g><rect x="606.473" y="351.348" width="48.337" height="1351.23" style="fill:#333;"/><rect x="698.843" y="351.348" width="48.337" height="1351.23" style="fill:#333;"/><rect x="791.212" y="351.348" width="48.337" height="1351.23" style="fill:#333;"/><rect x="883.582" y="351.348" width="48.337" height="1351.23" style="fill:#333;"/><rect x="975.951" y="351.348" width="48.337" height="1351.23" style="fill:#333;"/><rect x="1068.32" y="351.348" width="48.337" height="1351.23" style="fill:#333;"/><rect x="1160.69" y="351.348" width="48.337" height="1351.23" style="fill:#333;"/><path d="M1256.33,1423.55l195.544,-195.544l37.351,0l0,327.372l36.253,36.252l0,60.421l-222.459,222.459l-46.689,0l0,-450.96l0,0Z" style="fill:#999;"/><g><clipPath id="_clip4"><path d="M1256.33,1423.55l195.544,-195.544l37.351,0l0,327.372l36.253,36.252l0,60.421l-222.459,222.459l-46.689,0l0,-450.96l0,0Z"/></clipPath><g clip-path="url(#_clip4)"><path d="M1293.68,1362.03l0,338.357l-72.505,72.505l0,107.659l-140.616,0l-101.068,101.068" style="fill:none;stroke:#7f7f7f;stroke-width:8px;"/><path d="M1513.39,1265.35l-108.758,108.758l0,192.248l146.658,146.659" style="fill:none;stroke:#7f7f7f;stroke-width:8px;"/></g></g><path d="M1584.8,45.947l-121.941,0l-97.772,97.773l0,337.258l-34.605,34.605l0,136.771l68.66,0l185.658,-185.657l0,-420.75" style="fill:#999;"/><g><clipPath id="_clip5"><path d="M1584.8,45.947l-121.941,0l-97.772,97.773l0,337.258l-34.605,34.605l0,136.771l68.66,0l185.658,-185.657l0,-420.75"/></clipPath><g clip-path="url(#_clip5)"><path d="M1506.8,10.793l0,160.391l-65.913,65.913l0,243.881l-125.236,125.236" style="fill:none;stroke:#7f7f7f;stroke-width:8px;"/><path d="M1596.88,190.958l-80.195,80.195l0,284.528" style="fill:none;stroke:#7f7f7f;stroke-width:8px;"/></g></g><path d="M1469.18,744.908l58.498,-58.499l0,398.779l-265.303,265.303l0,-210.375l206.805,-206.805l0,-188.403" style="fill:#999;"/><g><clipPath id="_clip6"><path d="M1469.18,744.908l58.498,-58.499l0,398.779l-265.303,265.303l0,-210.375l206.805,-206.805l0,-188.403"/></clipPath><g clip-path="url(#_clip6)"><path d="M1317.85,1331.27l0,-116.448l134.024,-134.025l0,116.448" style="fill:none;stroke:#7f7f7f;stroke-width:8px;"/><path d="M588.403,643.565l-51.633,-51.632l-60.421,0l-33.506,33.506l0,288.373l-49.16,49.161l0,390.264l78.684,78.685l0,121.254l-37.557,37.557l0,254.66l54.825,54.825l98.768,0l0,-1256.65" style="fill:#999;"/><path d="M1544.15,740.239l-51.633,51.632l0,258.163l111.504,-111.504" style="fill:none;stroke:#7f7f7f;stroke-width:8px;"/></g></g><path d="M540.066,1104.14l0,629.202l59.322,59.322l123.04,0l0,85.688l-92.28,92.279l-147.207,0l-124.138,-124.137l0,-273.542l87.336,-87.336l0,-349.892l31.584,-31.584l62.343,0" style="fill:#999;"/><g><clipPath id="_clip7"><path d="M540.066,1104.14l0,629.202l59.322,59.322l123.04,0l0,85.688l-92.28,92.279l-147.207,0l-124.138,-124.137l0,-273.542l87.336,-87.336l0,-349.892l31.584,-31.584l62.343,0"/></clipPath><g clip-path="url(#_clip7)"><path d="M467.561,1100.57l0,430.636l-56.027,56.027l0,444.918" style="fill:none;stroke:#7f7f7f;stroke-width:8px;"/><path d="M408.239,1946.46l54.928,-54.928l162.587,0l67.012,-67.012l82.393,0" style="fill:none;stroke:#7f7f7f;stroke-width:8px;"/><path d="M555.446,1518.02l-73.604,73.604l0,293.317" style="fill:none;stroke:#7f7f7f;stroke-width:8px;"/><path d="M524.686,1893.73l39.548,39.548l123.039,0" style="fill:none;stroke:#7f7f7f;stroke-width:8px;"/></g></g><path d="M1262.47,1103.64l181.37,-181.37l0,-155.206" style="fill:none;stroke:#7f7f7f;stroke-width:8px;stroke-dasharray:2,40,0,0;"/><path d="M433.517,1880.27l0,-283.057l58.277,-58.277l0,-400.799" style="fill:none;stroke:#7f7f7f;stroke-width:8px;stroke-dasharray:2,40,0,0;"/><path d="M544.124,975.198l0,-241.431" style="fill:none;stroke:#7f7f7f;stroke-width:8px;stroke-dasharray:2,40,0,0;"/><path d="M1533.63,492.336l0,-212.887" style="fill:none;stroke:#7f7f7f;stroke-width:8px;stroke-dasharray:2,40,0,0;"/><path d="M1271.98,1429.52l0,250.946" style="fill:none;stroke:#7f7f7f;stroke-width:8px;stroke-dasharray:2,40,0,0;"/></svg>