<?xml version="1.0" encoding="UTF-8" standalone="no"?><!DOCTYPE svg PUBLIC "-//W3C//DTD SVG 1.1//EN" "http://www.w3.org/Graphics/SVG/1.1/DTD/svg11.dtd"><svg width="100%" height="100%" viewBox="0 0 2048 2048" version="1.1" xmlns="http://www.w3.org/2000/svg" xmlns:xlink="http://www.w3.org/1999/xlink" xml:space="preserve" style="fill-rule:evenodd;clip-rule:evenodd;stroke-linecap:round;stroke-linejoin:round;stroke-miterlimit:1.5;"><path d="M700,200l40,-40l200,0l20,20l60,0l200,200l0,1120l80,80l0,150l-70,70l-130,0l-40,40l-120,0l-40,40l-130,0l0,-440l-90,-90l0,-190l20,-960Z" style="fill:#262626;"/><g><clipPath id="_clip1"><path d="M700,200l40,-40l200,0l20,20l60,0l200,200l0,1120l80,80l0,150l-70,70l-130,0l-40,40l-120,0l-40,40l-130,0l0,-440l-90,-90l0,-190l20,-960Z"/></clipPath><g clip-path="url(#_clip1)"><g><g><g><rect x="853.166" y="516.965" width="25.333" height="25.333" style="fill:#1a1a1a;"/><rect x="898.368" y="572.965" width="25.333" height="25.333" style="fill:#1a1a1a;"/><rect x="946.368" y="480.965" width="25.333" height="25.333" style="fill:#1a1a1a;"/><rect x="885.702" y="674.298" width="25.333" height="25.333" style="fill:#1a1a1a;"/><rect x="840.499" y="516.965" width="25.333" height="137.333" style="fill:#1a1a1a;"/><rect x="921.035" y="598.298" width="25.333" height="137.333" style="fill:#1a1a1a;"/><rect x="1055.04" y="605.631" width="25.333" height="137.333" style="fill:#1a1a1a;"/><rect x="873.035" y="232.298" width="117.333" height="19.333" style="fill:#1a1a1a;"/><rect x="723.166" y="462.298" width="117.333" height="19.333" style="fill:#1a1a1a;"/><rect x="963.035" y="958.298" width="117.333" height="19.333" style="fill:#1a1a1a;"/><rect x="803.702" y="1258.96" width="117.333" height="19.333" style="fill:#1a1a1a;"/><rect x="921.035" y="1560.3" width="117.333" height="19.333" style="fill:#1a1a1a;"/></g><g><rect x="927.039" y="1056.99" width="9.986" height="35.912" style="fill:#1a1a1a;"/><rect x="949.112" y="992.906" width="9.986" height="35.912" style="fill:#1a1a1a;"/><rect x="912.849" y="924.861" width="9.986" height="35.913" style="fill:#1a1a1a;"/><path d="M989.054,1010.86l0,35.912l9.985,0l0,-35.912l-9.985,0l0,0Z" style="fill:#1a1a1a;"/><rect x="927.039" y="1074.94" width="54.132" height="35.912" style="fill:#1a1a1a;"/><rect x="959.099" y="960.774" width="54.131" height="35.912" style="fill:#1a1a1a;"/><rect x="961.988" y="770.816" width="54.132" height="35.912" style="fill:#1a1a1a;"/><rect x="814.835" y="898.399" width="7.62" height="166.331" style="fill:#1a1a1a;"/><rect x="905.492" y="1110.85" width="7.62" height="166.331" style="fill:#1a1a1a;"/><rect x="1101" y="770.816" width="7.62" height="166.331" style="fill:#1a1a1a;"/><rect x="1219.51" y="996.686" width="7.621" height="166.331" style="fill:#1a1a1a;"/><rect x="1338.28" y="830.355" width="7.621" height="166.331" style="fill:#1a1a1a;"/></g><g><rect x="942.147" y="1442.51" width="7.351" height="63.246" style="fill:#1a1a1a;"/><rect x="958.398" y="1329.65" width="7.352" height="63.247" style="fill:#1a1a1a;"/><rect x="931.699" y="1209.82" width="7.352" height="63.247" style="fill:#1a1a1a;"/><rect x="987.805" y="1361.28" width="7.352" height="63.247" style="fill:#1a1a1a;"/><rect x="942.147" y="1474.13" width="39.854" height="63.247" style="fill:#1a1a1a;"/><rect x="965.746" y="1273.07" width="39.854" height="63.246" style="fill:#1a1a1a;"/><rect x="967.876" y="938.524" width="39.854" height="63.247" style="fill:#1a1a1a;"/><rect x="859.536" y="1163.22" width="5.611" height="292.932" style="fill:#1a1a1a;"/><rect x="926.282" y="1537.38" width="5.611" height="292.931" style="fill:#1a1a1a;"/><path d="M1075.83,938.524l0,292.932l-5.611,0l0,-292.932l5.611,0Z" style="fill:#1a1a1a;"/><rect x="1157.48" y="1336.31" width="5.61" height="292.932" style="fill:#1a1a1a;"/><rect x="1244.92" y="1043.38" width="5.61" height="292.932" style="fill:#1a1a1a;"/></g></g><g><g><rect x="1079.2" y="661.534" width="25.333" height="9.877" style="fill:#1a1a1a;"/><rect x="1034" y="639.702" width="25.333" height="9.877" style="fill:#1a1a1a;"/><rect x="985.998" y="675.569" width="25.333" height="9.877" style="fill:#1a1a1a;"/><rect x="1046.66" y="600.195" width="25.333" height="9.877" style="fill:#1a1a1a;"/><rect x="1091.87" y="617.869" width="25.333" height="53.542" style="fill:#1a1a1a;"/><rect x="1011.33" y="586.16" width="25.333" height="53.542" style="fill:#1a1a1a;"/><rect x="877.331" y="583.301" width="25.333" height="53.542" style="fill:#1a1a1a;"/><rect x="967.331" y="774.855" width="117.333" height="7.537" style="fill:#1a1a1a;"/><rect x="1117.2" y="685.186" width="117.333" height="7.537" style="fill:#1a1a1a;"/><rect x="877.331" y="491.812" width="117.333" height="7.537" style="fill:#1a1a1a;"/><rect x="1036.66" y="374.592" width="117.333" height="7.537" style="fill:#1a1a1a;"/><rect x="919.331" y="257.113" width="117.333" height="7.537" style="fill:#1a1a1a;"/></g><g><rect x="1020.68" y="446.874" width="9.985" height="14.001" style="fill:#1a1a1a;"/><rect x="998.605" y="471.856" width="9.985" height="14.001" style="fill:#1a1a1a;"/><rect x="1034.86" y="498.384" width="9.986" height="14.001" style="fill:#1a1a1a;"/><rect x="958.66" y="464.856" width="9.985" height="14.001" style="fill:#1a1a1a;"/><path d="M976.529,453.874l0,-14.001l54.131,0l0,14.001l-54.131,0l0,0Z" style="fill:#1a1a1a;"/><rect x="944.47" y="484.383" width="54.132" height="14.001" style="fill:#1a1a1a;"/><rect x="941.58" y="558.442" width="54.131" height="14.001" style="fill:#1a1a1a;"/><rect x="1135.24" y="457.855" width="7.621" height="64.847" style="fill:#1a1a1a;"/><rect x="1044.59" y="375.027" width="7.621" height="64.846" style="fill:#1a1a1a;"/><rect x="849.083" y="507.596" width="7.62" height="64.847" style="fill:#1a1a1a;"/><rect x="730.572" y="419.536" width="7.62" height="64.847" style="fill:#1a1a1a;"/><rect x="611.798" y="484.383" width="7.62" height="64.847" style="fill:#1a1a1a;"/></g><g><rect x="1008.2" y="285.915" width="7.352" height="24.658" style="fill:#1a1a1a;"/><rect x="991.95" y="329.912" width="7.351" height="24.658" style="fill:#1a1a1a;"/><rect x="1018.65" y="376.632" width="7.352" height="24.658" style="fill:#1a1a1a;"/><rect x="962.543" y="317.583" width="7.351" height="24.658" style="fill:#1a1a1a;"/><rect x="975.698" y="273.586" width="39.855" height="24.658" style="fill:#1a1a1a;"/><rect x="952.095" y="351.974" width="39.855" height="24.658" style="fill:#1a1a1a;"/><rect x="949.967" y="482.401" width="39.855" height="24.658" style="fill:#1a1a1a;"/><rect x="1092.55" y="305.254" width="5.61" height="114.205" style="fill:#1a1a1a;"/><rect x="1025.81" y="159.382" width="5.611" height="114.204" style="fill:#1a1a1a;"/><rect x="881.867" y="392.854" width="5.61" height="114.205" style="fill:#1a1a1a;"/><rect x="794.613" y="237.77" width="5.611" height="114.204" style="fill:#1a1a1a;"/><rect x="707.166" y="351.974" width="5.61" height="114.205" style="fill:#1a1a1a;"/></g></g><g><g><rect x="1001.47" y="1456.49" width="25.333" height="9.877" style="fill:#1a1a1a;"/><rect x="956.268" y="1434.66" width="25.333" height="9.877" style="fill:#1a1a1a;"/><rect x="908.269" y="1470.53" width="25.333" height="9.877" style="fill:#1a1a1a;"/><rect x="968.935" y="1395.15" width="25.333" height="9.877" style="fill:#1a1a1a;"/><rect x="1014.14" y="1412.83" width="25.333" height="53.542" style="fill:#1a1a1a;"/><rect x="933.602" y="1381.12" width="25.333" height="53.542" style="fill:#1a1a1a;"/><rect x="799.602" y="1378.26" width="25.333" height="53.542" style="fill:#1a1a1a;"/><rect x="889.602" y="1569.82" width="117.333" height="7.537" style="fill:#1a1a1a;"/><rect x="1039.47" y="1480.15" width="117.333" height="7.537" style="fill:#1a1a1a;"/><rect x="799.602" y="1286.77" width="117.333" height="7.537" style="fill:#1a1a1a;"/><rect x="958.935" y="1169.55" width="117.333" height="7.537" style="fill:#1a1a1a;"/><rect x="841.602" y="1052.07" width="117.333" height="7.537" style="fill:#1a1a1a;"/></g><g><rect x="942.945" y="1241.84" width="9.986" height="14.001" style="fill:#1a1a1a;"/><rect x="920.872" y="1266.82" width="9.986" height="14.001" style="fill:#1a1a1a;"/><rect x="957.135" y="1293.35" width="9.986" height="14.001" style="fill:#1a1a1a;"/><rect x="880.931" y="1259.82" width="9.985" height="14.001" style="fill:#1a1a1a;"/><rect x="898.799" y="1234.83" width="54.132" height="14.001" style="fill:#1a1a1a;"/><rect x="866.741" y="1279.34" width="54.131" height="14.001" style="fill:#1a1a1a;"/><rect x="863.85" y="1353.4" width="54.132" height="14.001" style="fill:#1a1a1a;"/><rect x="1057.52" y="1252.81" width="7.62" height="64.847" style="fill:#1a1a1a;"/><rect x="966.858" y="1169.98" width="7.62" height="64.847" style="fill:#1a1a1a;"/><rect x="771.354" y="1302.55" width="7.62" height="64.847" style="fill:#1a1a1a;"/><rect x="652.842" y="1214.49" width="7.621" height="64.847" style="fill:#1a1a1a;"/><rect x="534.068" y="1279.34" width="7.621" height="64.847" style="fill:#1a1a1a;"/></g><g><rect x="930.472" y="1080.87" width="7.351" height="24.657" style="fill:#1a1a1a;"/><rect x="914.22" y="1124.87" width="7.352" height="24.658" style="fill:#1a1a1a;"/><rect x="940.919" y="1171.59" width="7.352" height="24.658" style="fill:#1a1a1a;"/><rect x="884.813" y="1112.54" width="7.352" height="24.658" style="fill:#1a1a1a;"/><rect x="897.969" y="1068.54" width="39.854" height="24.658" style="fill:#1a1a1a;"/><rect x="874.366" y="1146.93" width="39.854" height="24.658" style="fill:#1a1a1a;"/><rect x="872.238" y="1277.36" width="39.854" height="24.657" style="fill:#1a1a1a;"/><rect x="1014.82" y="1100.22" width="5.611" height="114.204" style="fill:#1a1a1a;"/><rect x="948.077" y="954.345" width="5.611" height="114.205" style="fill:#1a1a1a;"/><rect x="804.138" y="1187.82" width="5.61" height="114.204" style="fill:#1a1a1a;"/><rect x="716.884" y="1032.73" width="5.61" height="114.204" style="fill:#1a1a1a;"/><rect x="629.437" y="1146.94" width="5.61" height="114.204" style="fill:#1a1a1a;"/></g></g></g><g><g><rect x="794.338" y="521.313" width="195.662" height="72.871" style="fill:#333;"/><rect x="1059.32" y="649.08" width="51.099" height="182.178" style="fill:#333;"/><rect x="794.338" y="890.88" width="171.447" height="75.079" style="fill:#333;"/><rect x="892.169" y="1226.07" width="171.447" height="75.079" style="fill:#333;"/><rect x="794.338" y="1557.3" width="171.447" height="75.079" style="fill:#333;"/><rect x="1000.5" y="385.841" width="23.496" height="746.379" style="fill:#333;"/><rect x="1000.5" y="1009.66" width="23.496" height="746.379" style="fill:#333;"/><rect x="597.946" y="426.693" width="294.223" height="46.373" style="fill:#333;"/><rect x="769.392" y="215.808" width="294.223" height="46.373" style="fill:#333;"/></g><g><rect x="911.343" y="1184.71" width="13.634" height="261.128" style="fill:#333;"/><path d="M935.248,1024l0,68.196l34.085,0l0,-68.196l-34.085,0l0,0Z" style="fill:#333;"/><rect x="980.488" y="1217.03" width="14.047" height="228.81" style="fill:#333;"/><rect x="1043.2" y="1086.47" width="14.047" height="228.81" style="fill:#333;"/><rect x="1105.17" y="1217.03" width="14.048" height="228.81" style="fill:#333;"/><path d="M885.997,1139.34l0,31.358l139.645,0l0,-31.358l-139.645,0l0,0Z" style="fill:#333;"/><rect x="1002.71" y="1139.34" width="139.645" height="31.358" style="fill:#333;"/><rect x="893.64" y="1315.28" width="8.676" height="392.666" style="fill:#333;"/><rect x="854.184" y="1086.47" width="8.676" height="392.666" style="fill:#333;"/></g><g><rect x="901.876" y="437.819" width="47.825" height="41.894" style="fill:#333;"/><rect x="966.646" y="511.273" width="12.49" height="104.736" style="fill:#333;"/><rect x="901.876" y="650.287" width="41.906" height="43.164" style="fill:#333;"/><rect x="925.788" y="842.99" width="41.906" height="43.164" style="fill:#333;"/><rect x="901.876" y="1033.42" width="41.906" height="43.164" style="fill:#333;"/><rect x="952.269" y="359.934" width="5.743" height="429.101" style="fill:#333;"/><rect x="952.269" y="718.576" width="5.743" height="429.101" style="fill:#333;"/><rect x="853.872" y="383.421" width="71.916" height="26.66" style="fill:#333;"/><rect x="895.778" y="262.181" width="71.916" height="26.66" style="fill:#333;"/></g></g><path d="M769.392,498.126l100.759,0l46.353,46.353l0,191.031l-62.632,62.632l62.632,62.632l0,138.619l-24.607,24.607l0,233.755l66.048,66.048l-150.358,150.357l0,172.242l61.542,61.542l241.294,0l0,-112.332l-213.403,0l-26.869,26.869l128.12,0l103.031,-103.031l-231.151,0l78.036,-78.035l239.214,0l0,-30.189l-227.447,0l-82.712,-82.712l61.83,-61.831l102.586,0l0,-308.142l-51.658,0l0,131.389l-76.853,76.853l-81.822,-81.822l235.333,-235.333l-42.658,-42.658l-178.955,178.955l377.688,0l0,-331.015l-624.787,0l22.012,22.013l522.399,0l0,-135.736l-544.411,0l27.532,-27.533l620.441,0l-173.933,-173.933l-439.953,0l34.741,34.741l576.937,0l-158.655,-158.654l-214.905,0l0,1581.86l90.907,0l0,-1581.86" style="fill:none;stroke:#333;stroke-width:4px;"/><path d="M640.499,427.632l259.34,0l82.258,82.258l0,285.075l54.664,54.663l169.071,0" style="fill:none;stroke:#000;stroke-width:8px;"/><path d="M982.097,740.169l-25.53,25.53l0,297.265l-56.728,56.728" style="fill:none;stroke:#000;stroke-width:8px;"/><path d="M907.166,427.632l74.931,0l41.903,-41.904l105.165,0" style="fill:none;stroke:#000;stroke-width:8px;"/><path d="M1003.83,406.68l-80.666,-80.667l-102.667,0" style="fill:none;stroke:#000;stroke-width:8px;"/><path d="M899.839,326.013l0,-66.381l-33.67,-33.67l-117.003,0" style="fill:none;stroke:#000;stroke-width:8px;"/><path d="M765.833,1856.3l108.666,0l52.759,-52.759l116.574,0l131.621,-131.621l0,-369.62l-52.811,-52.81l-118.81,0l0,-123.189l-55.333,-55.334" style="fill:none;stroke:#000;stroke-width:8px;"/><path d="M1143.3,1661.72l-100.759,0l-46.353,-46.353l0,-191.031l62.632,-62.632l-62.632,-62.632l0,-138.619l24.607,-24.607l0,-233.754l-66.048,-66.048l150.358,-150.358l0,-172.241l-61.542,-61.543l-241.294,0l0,112.332l213.403,0l26.869,-26.869l-128.12,0l-103.03,103.031l231.15,0l-78.036,78.036l-239.214,0l0,30.188l227.447,0l82.712,82.713l-61.83,61.83l-102.586,0l0,308.143l51.658,0l0,-131.39l76.853,-76.853l81.822,81.822l-235.333,235.333l42.658,42.658l178.955,-178.955l-377.687,0l0,331.015l624.787,0l-22.013,-22.012l-522.399,0l0,135.735l544.412,0l-27.533,27.533l-620.441,0l173.933,173.933l439.953,0l-34.741,-34.741l-576.937,0l158.655,158.654l214.905,0l0,-1581.86l-90.907,0l0,1581.86" style="fill:none;stroke:#000;stroke-width:4px;"/><path d="M970.643,1802.96l60.261,-60.262l0,-279.071l-112.869,-112.87l-152.202,0" style="fill:none;stroke:#000;stroke-width:8px;"/><path d="M1030.9,1562.3l0,-183.333l38.131,-38.131l0,-88.536" style="fill:none;stroke:#000;stroke-width:8px;"/><path d="M1030.9,1250.3l45.797,-45.797l0,-182.5" style="fill:none;stroke:#000;stroke-width:8px;"/><g><g><rect x="726.012" y="356.364" width="195.662" height="72.871" style="fill:#333;"/><rect x="605.589" y="119.29" width="51.099" height="182.178" style="fill:#333;"/><rect x="750.228" y="-15.412" width="171.447" height="75.079" style="fill:#333;"/><rect x="692.012" y="-181.672" width="23.496" height="746.379" style="fill:#333;"/><rect x="823.843" y="477.482" width="294.223" height="46.373" style="fill:#333;"/><rect x="652.396" y="688.367" width="294.223" height="46.373" style="fill:#333;"/></g><g><rect x="766.311" y="470.835" width="47.825" height="41.894" style="fill:#333;"/><rect x="736.876" y="334.539" width="12.49" height="104.736" style="fill:#333;"/><rect x="772.23" y="257.097" width="41.906" height="43.164" style="fill:#333;"/><rect x="748.317" y="64.394" width="41.906" height="43.164" style="fill:#333;"/><rect x="758" y="161.513" width="5.743" height="429.101" style="fill:#333;"/><rect x="758" y="-197.129" width="5.743" height="429.101" style="fill:#333;"/><rect x="790.223" y="540.467" width="71.916" height="26.66" style="fill:#333;"/><rect x="748.317" y="661.707" width="71.916" height="26.66" style="fill:#333;"/></g></g></g></g><path d="M700,200l40,-40l200,0l20,20l60,0l200,200l0,1120l80,80l0,150l-70,70l-130,0l-40,40l-120,0l-40,40l-130,0l0,-440l-90,-90l0,-190l20,-960Z" style="fill:none;stroke:#000;stroke-width:1px;"/><path d="M831.29,220.236l-41.129,-41.047l-178.226,0l-27.419,27.365l-109.677,0l-54.839,54.73l0,301.013l137.097,136.825l0,68.412l-41.129,41.047l0,259.966l68.548,68.412l0,109.46l54.839,54.73l205.645,0l82.258,-82.095l0,-246.284l-41.129,-41.047l0,-232.601l-82.258,-82.095l0,-218.919l27.419,-27.365l0,-150.507l0,0Z" style="fill:#666;"/><g><clipPath id="_clip2"><path d="M831.29,220.236l-41.129,-41.047l-178.226,0l-27.419,27.365l-109.677,0l-54.839,54.73l0,301.013l137.097,136.825l0,68.412l-41.129,41.047l0,259.966l68.548,68.412l0,109.46l54.839,54.73l205.645,0l82.258,-82.095l0,-246.284l-41.129,-41.047l0,-232.601l-82.258,-82.095l0,-218.919l27.419,-27.365l0,-150.507l0,0Z"/></clipPath><g clip-path="url(#_clip2)"><path d="M533.767,179.189l81.077,81.077l0,285.337l89.747,89.747l0,142.116l-327.764,327.764" style="fill:none;stroke:#595959;stroke-width:8px;"/><path d="M491.811,1024l240.855,-240.855l0,-140.935l-99.172,-99.172l0,-187.342l176.507,-176.507" style="fill:none;stroke:#595959;stroke-width:8px;"/><path d="M789.921,1301.15l-85.33,-85.331l0,-191.818l133.36,-133.361l0,-289.044" style="fill:none;stroke:#595959;stroke-width:8px;"/><path d="M420,298.282l60.748,60.749l0,168.906l73.657,73.658l0,121.77l-101.408,101.408" style="fill:none;stroke:#595959;stroke-width:8px;"/></g></g><path d="M982.097,151.824l0,136.825l82.258,82.094l0,191.554l54.839,54.73l0,164.189l-27.42,27.365l0,54.73l-54.839,54.73l0,109.459l54.839,54.73l0,328.378l-109.677,109.46l0,109.459l54.838,54.73l329.033,0l27.419,-27.365l54.839,0l27.419,27.365l70.424,0l148.931,-148.635l0,-316.568l-82.258,-82.095l0,-164.189l27.419,-27.365l0,-465.202l-54.838,-54.73l0,-136.824l82.258,-82.095l0,-136.824l-54.839,-54.73l-246.774,0l-54.839,54.73l0,54.729l-246.774,0l-27.42,27.365l-54.838,0" style="fill:#666;"/><g><clipPath id="_clip3"><path d="M982.097,151.824l0,136.825l82.258,82.094l0,191.554l54.839,54.73l0,164.189l-27.42,27.365l0,54.73l-54.839,54.73l0,109.459l54.839,54.73l0,328.378l-109.677,109.46l0,109.459l54.838,54.73l329.033,0l27.419,-27.365l54.839,0l27.419,27.365l70.424,0l148.931,-148.635l0,-316.568l-82.258,-82.095l0,-164.189l27.419,-27.365l0,-465.202l-54.838,-54.73l0,-136.824l82.258,-82.095l0,-136.824l-54.839,-54.73l-246.774,0l-54.839,54.73l0,54.729l-246.774,0l-27.42,27.365l-54.838,0"/></clipPath><g clip-path="url(#_clip3)"><path d="M1338.55,15l0,96.688l145.801,145.8l0,325.655l131.97,131.97l0,236.259l45.279,45.279" style="fill:none;stroke:#595959;stroke-width:8px;"/><path d="M1438.03,15l0,97.792l197.084,197.084" style="fill:none;stroke:#595959;stroke-width:8px;"/><path d="M999.702,106.167l97.714,97.714l0,495.194l82.532,82.532l0,242.393l-130.816,130.817l0,328.176l99.497,99.498l406.441,0l203.772,-203.772" style="fill:none;stroke:#595959;stroke-width:8px;"/><g><rect x="1197.69" y="1100.97" width="14.353" height="411.833" style="fill:#333;"/><rect x="1217.69" y="1100.97" width="14.353" height="411.833" style="fill:#333;"/><rect x="1237.69" y="1100.97" width="14.353" height="411.833" style="fill:#333;"/><rect x="1257.69" y="1100.97" width="14.353" height="411.833" style="fill:#333;"/><rect x="1277.69" y="1100.97" width="14.353" height="411.833" style="fill:#333;"/><rect x="1297.69" y="1100.97" width="14.353" height="411.833" style="fill:#333;"/><rect x="1317.69" y="1100.97" width="14.353" height="411.833" style="fill:#333;"/><rect x="1337.69" y="1100.97" width="14.353" height="411.833" style="fill:#333;"/><g><rect x="1158.95" y="1299.71" width="411.833" height="14.353" style="fill:#666;"/><rect x="1158.95" y="1399.71" width="411.833" height="14.353" style="fill:#666;"/><rect x="1158.95" y="1199.71" width="411.833" height="14.353" style="fill:#666;"/></g></g></g></g><path d="M845,1383.24l-54.839,-54.729l-191.935,0l-54.839,54.729l-54.839,0l-54.838,54.73l0,547.297l54.838,54.73l246.775,0l54.838,-54.73l0,-136.824l54.839,-54.73l0,-54.73l54.839,-54.729l0,-191.554l-54.839,-54.73l0,-54.73" style="fill:#666;"/><clipPath id="_clip4"><path d="M845,1383.24l-54.839,-54.729l-191.935,0l-54.839,54.729l-54.839,0l-54.838,54.73l0,547.297l54.838,54.73l246.775,0l54.838,-54.73l0,-136.824l54.839,-54.73l0,-54.73l54.839,-54.729l0,-191.554l-54.839,-54.73l0,-54.73"/></clipPath><g clip-path="url(#_clip4)"><path d="M632.254,1312.08l0,123.66l217.731,217.731l149.717,0l0,226.532l-319.702,0l-158.559,-158.559l-246.919,0l0,225.72" style="fill:none;stroke:#595959;stroke-width:8px;"/></g><path d="M1364.87,1410.08l0,123.969l83.263,83.264l221.057,0l84.029,-84.03l0,-260.687l0,-65.705l-153.138,-153.138l-60.735,0l-26.393,26.392l0,181.852l-148.083,148.083l0,0Z" style="fill:#737373;"/><clipPath id="_clip5"><path d="M1364.87,1410.08l0,123.969l83.263,83.264l221.057,0l84.029,-84.03l0,-260.687l0,-65.705l-153.138,-153.138l-60.735,0l-26.393,26.392l0,181.852l-148.083,148.083l0,0Z"/></clipPath><g clip-path="url(#_clip5)"><path d="M1695,1074.74l-91.044,91.044l0,169.742l-143.269,143.269l0,187.099" style="fill:none;stroke:#666;stroke-width:8px;"/></g><g><path d="M1592.15,1069.23l-33.103,0l-24.15,24.15l0,183.317l-145.77,145.77l0,99.572" style="fill:none;stroke:#636363;stroke-width:8px;stroke-dasharray:0.8,24,0,0;"/><path d="M648.062,1346.8l132.139,0l44.871,44.871l0,54.764l58.121,58.12" style="fill:none;stroke:#636363;stroke-width:8px;stroke-dasharray:0.8,24,0,0;"/><path d="M446.672,1742.51l0,226.828l51.584,51.584l224.002,0" style="fill:none;stroke:#636363;stroke-width:8px;stroke-dasharray:0.8,24,0,0;"/><path d="M836.025,1285.32l75.256,-75.256l0,-221.529" style="fill:none;stroke:#636363;stroke-width:8px;stroke-dasharray:0.8,24,0,0;"/><path d="M433.71,286.144l66.544,66.545l0,168.763" style="fill:none;stroke:#636363;stroke-width:8px;stroke-dasharray:0.8,24,0,0;"/><path d="M526.521,1056.37l80.556,80.555l0,102.462" style="fill:none;stroke:#636363;stroke-width:8px;stroke-dasharray:0.8,24,0,0;"/><path d="M790.801,602.715l0,-214.816l30.032,-30.032" style="fill:none;stroke:#636363;stroke-width:8px;stroke-dasharray:0.8,24,0,0;"/><path d="M992.897,1529.81l0,89.035l50.878,50.878" style="fill:none;stroke:#636363;stroke-width:8px;stroke-dasharray:0.8,24,0,0;"/><path d="M1127.16,710.829l0,-108.114" style="fill:none;stroke:#636363;stroke-width:8px;stroke-dasharray:0.8,24,0,0;"/><path d="M992.897,191.456l0,85.502" style="fill:none;stroke:#636363;stroke-width:8px;stroke-dasharray:0.8,24,0,0;"/><path d="M1623.92,678.324l0,-186.55l-39.924,-39.925" style="fill:none;stroke:#636363;stroke-width:8px;stroke-dasharray:0.8,24,0,0;"/><path d="M1326.43,128.566l134.26,134.259" style="fill:none;stroke:#636363;stroke-width:8px;stroke-dasharray:0.8,24,0,0;"/><path d="M1089,1057.79l-33.785,-33.785l0,-99.062" style="fill:none;stroke:#636363;stroke-width:8px;stroke-dasharray:0.8,24,0,0;"/></g><path d="M1364.87,1335.53l0,-260.786l-180.57,-180.57" style="fill:none;stroke:#595959;stroke-width:8px;"/><path d="M1184.3,822.358l28.179,-28.18l0,-240.119l-112.331,-112.331" style="fill:none;stroke:#595959;stroke-width:8px;"/><path d="M1491.29,590.494l0,163.409l121.452,121.452" style="fill:none;stroke:#595959;stroke-width:8px;"/><path d="M1200.04,849.628l0,-332.562l-75.338,-75.338l0,-121.388l16.47,-16.47l144.229,0l79.463,79.463l0,268.275l-90.285,90.285l0,80.465l-74.583,74.583l0.044,-47.313l0,0Z" style="fill:#737373;"/><g><clipPath id="_clip6"><path d="M1200.04,849.628l0,-332.562l-75.338,-75.338l0,-121.388l16.47,-16.47l144.229,0l79.463,79.463l0,268.275l-90.285,90.285l0,80.465l-74.583,74.583l0.044,-47.313l0,0Z"/></clipPath><g clip-path="url(#_clip6)"><path d="M1203.58,291.582l0,49.334l100.812,100.812l0,351.854" style="fill:none;stroke:#595959;stroke-width:8px;"/><path d="M1244.79,858.916l0,-125.991l-41.205,-41.206" style="fill:none;stroke:#595959;stroke-width:8px;"/></g></g><circle cx="601.753" cy="1613.4" r="70.856" style="fill:#737373;stroke:#595959;stroke-width:8px;"/><circle cx="744.23" cy="1749.21" r="34.167" style="fill:#737373;stroke:#595959;stroke-width:8px;"/><circle cx="1400.06" cy="886.711" r="80" style="fill:#737373;stroke:#595959;stroke-width:8px;"/><circle cx="1400.06" cy="886.711" r="55" style="fill:#737373;stroke:#595959;stroke-width:8px;"/><circle cx="1320.06" cy="311.711" r="80" style="fill:#737373;stroke:#595959;stroke-width:8px;"/></svg>