<?xml version="1.0" encoding="UTF-8" standalone="no"?><!DOCTYPE svg PUBLIC "-//W3C//DTD SVG 1.1//EN" "http://www.w3.org/Graphics/SVG/1.1/DTD/svg11.dtd"><svg width="100%" height="100%" viewBox="0 0 2048 2048" version="1.1" xmlns="http://www.w3.org/2000/svg" xmlns:xlink="http://www.w3.org/1999/xlink" xml:space="preserve" xmlns:serif="http://www.serif.com/" style="fill-rule:evenodd;clip-rule:evenodd;stroke-linecap:round;stroke-linejoin:round;stroke-miterlimit:1.5;"><g><path d="M611.364,1276.14l81.818,81.818l204.545,0l40.909,40.909l429.546,-0.001l81.818,-81.818l0,-163.636l-61.364,-61.364l-777.272,0l0,184.092" style="fill:#7b7b7b;"/><clipPath id="_clip1"><path d="M611.364,1276.14l81.818,81.818l204.545,0l40.909,40.909l429.546,-0.001l81.818,-81.818l0,-163.636l-61.364,-61.364l-777.272,0l0,184.092"/></clipPath><g clip-path="url(#_clip1)"><path d="M672.727,1296.59l40.909,40.909l204.546,-0.001l20.454,20.454l20.455,0l0,-20.454l20.454,-20.455l0,40.909l20.455,0l0,-20.454l20.455,-20.455l0,40.909l20.454,0l0,-20.454l20.455,-20.455l0,40.909l20.454,0l0,-20.454l20.455,-20.455l0,40.909l40.909,0l81.818,-81.818" style="fill:none;stroke:#797979;stroke-width:4px;"/></g><path d="M550,650.228l49.091,-49.091l810,0l0,662.726l-49.091,49.091l-810,0.001l0,-662.728Z" style="fill:#808080;"/><g><clipPath id="_clip2"><path d="M550,650.228l49.091,-49.091l810,0l0,662.726l-49.091,49.091l-810,0.001l0,-662.728Z"/></clipPath><g clip-path="url(#_clip2)"><g><path d="M642.045,654.83c0,-7.057 -5.728,-12.784 -12.784,-12.784l-25.568,0c-7.056,0 -12.784,5.727 -12.784,12.784l0,485.796c0,7.054 5.728,12.784 12.784,12.784l25.568,-0.001c7.056,0 12.784,-5.729 12.784,-12.784l0,-485.795Z" style="fill:#737373;stroke:#838383;stroke-width:8px;"/><path d="M713.636,654.83c0,-7.057 -5.728,-12.784 -12.784,-12.784l-25.568,0c-7.056,0 -12.784,5.727 -12.784,12.784l0,485.796c0,7.054 5.728,12.784 12.784,12.784l25.568,-0.001c7.056,0 12.784,-5.729 12.784,-12.784l0,-485.795Z" style="fill:#737373;stroke:#838383;stroke-width:8px;"/><path d="M785.227,654.83c0,-7.057 -5.728,-12.784 -12.784,-12.784l-25.568,0c-7.056,0 -12.784,5.727 -12.784,12.784l0,485.796c0,7.054 5.728,12.784 12.784,12.784l25.568,-0.001c7.056,0 12.784,-5.729 12.784,-12.784l0,-485.795Z" style="fill:#737373;stroke:#838383;stroke-width:8px;"/><path d="M856.818,654.83c0,-7.057 -5.728,-12.784 -12.784,-12.784l-25.568,0c-7.056,0 -12.784,5.727 -12.784,12.784l0,485.796c0,7.054 5.728,12.784 12.784,12.784l25.568,-0.001c7.056,0 12.784,-5.729 12.784,-12.784l0,-485.795Z" style="fill:#737373;stroke:#838383;stroke-width:8px;"/><path d="M928.409,654.83c0,-7.057 -5.728,-12.784 -12.784,-12.784l-25.568,0c-7.056,0 -12.784,5.727 -12.784,12.784l0,485.796c0,7.054 5.728,12.784 12.784,12.784l25.568,-0.001c7.056,0 12.784,-5.729 12.784,-12.784l0,-485.795Z" style="fill:#737373;stroke:#838383;stroke-width:8px;"/><path d="M1000,654.83c0,-7.057 -5.728,-12.784 -12.784,-12.784l-25.568,0c-7.056,0 -12.784,5.727 -12.784,12.784l0,485.796c0,7.054 5.728,12.784 12.784,12.784l25.568,-0.001c7.056,0 12.784,-5.729 12.784,-12.784l0,-485.795Z" style="fill:#737373;stroke:#838383;stroke-width:8px;"/><path d="M1071.59,654.83c0,-7.057 -5.728,-12.784 -12.784,-12.784l-25.568,0c-7.056,0 -12.784,5.727 -12.784,12.784l0,485.796c0,7.054 5.728,12.784 12.784,12.784l25.568,-0.001c7.056,0 12.784,-5.729 12.784,-12.784l0,-485.795Z" style="fill:#737373;stroke:#838383;stroke-width:8px;"/><path d="M1143.18,654.83c0,-7.057 -5.729,-12.784 -12.784,-12.784l-25.568,0c-7.056,0 -12.785,5.727 -12.785,12.784l0,485.796c0,7.054 5.729,12.784 12.785,12.784l25.568,-0.001c7.055,0 12.784,-5.729 12.784,-12.784l0,-485.795Z" style="fill:#737373;stroke:#838383;stroke-width:8px;"/><path d="M1214.77,654.83c0,-7.057 -5.729,-12.784 -12.784,-12.784l-25.569,0c-7.055,0 -12.784,5.727 -12.784,12.784l0,485.796c0,7.054 5.729,12.784 12.784,12.784l25.569,-0.001c7.055,0 12.784,-5.729 12.784,-12.784l0,-485.795Z" style="fill:#737373;stroke:#838383;stroke-width:8px;"/></g><path d="M550,1337.5l81.818,0l122.727,-122.728l409.091,0l61.364,61.364l81.818,0l117.614,-117.614" style="fill:none;stroke:#7e7e7e;stroke-width:8px;"/><path d="M1184.09,580.682l20.454,0l81.819,81.818l61.363,0l40.909,40.909l0,327.272l61.364,61.364" style="fill:none;stroke:#7e7e7e;stroke-width:8px;"/><path d="M590.909,621.592l613.636,0l40.91,40.909l0,184.091l40.909,40.909l0,225l-61.364,61.363l-634.091,0l-20.454,-20.454l0,-511.364l20.454,-20.454Z" style="fill:none;stroke:#7e7e7e;stroke-width:4px;"/><path d="M1265.91,867.045l0,102.274l-20.454,20.453l0,102.273l20.454,20.456l0,20.454" style="fill:none;stroke:#7e7e7e;stroke-width:4px;"/><path d="M611.364,1173.86l51.136,51.137l61.364,0l20.454,-20.456l71.591,0l30.682,-30.682" style="fill:none;stroke:#7e7e7e;stroke-width:4px;"/><path d="M1163.64,1173.86l40.909,40.909l102.273,-0.001l20.455,-20.454l0,-102.273l-40.909,-40.909" style="fill:none;stroke:#7e7e7e;stroke-width:4px;"/></g></g><g><g><circle cx="775" cy="1255.68" r="20.455" style="fill:url(#_Radial3);"/><circle cx="775" cy="1255.68" r="15.341" style="fill:#838383;"/></g><g><circle cx="856.818" cy="1255.68" r="20.455" style="fill:url(#_Radial4);"/><circle cx="856.818" cy="1255.68" r="15.341" style="fill:#838383;"/></g><g><circle cx="938.636" cy="1255.68" r="20.455" style="fill:url(#_Radial5);"/><circle cx="938.636" cy="1255.68" r="15.341" style="fill:#838383;"/></g><g><circle cx="1020.46" cy="1255.68" r="20.455" style="fill:url(#_Radial6);"/><circle cx="1020.46" cy="1255.68" r="15.341" style="fill:#838383;"/></g><g><circle cx="1102.27" cy="1255.68" r="20.455" style="fill:url(#_Radial7);"/><circle cx="1102.27" cy="1255.68" r="15.341" style="fill:#838383;"/></g><g><circle cx="815.909" cy="1255.68" r="20.455" style="fill:url(#_Radial8);"/><circle cx="815.909" cy="1255.68" r="15.341" style="fill:#838383;"/></g><g><circle cx="897.727" cy="1255.68" r="20.455" style="fill:url(#_Radial9);"/><circle cx="897.727" cy="1255.68" r="15.341" style="fill:#838383;"/></g><g><circle cx="979.545" cy="1255.68" r="20.455" style="fill:url(#_Radial10);"/><circle cx="979.545" cy="1255.68" r="15.341" style="fill:#838383;"/></g><g><circle cx="1061.36" cy="1255.68" r="20.455" style="fill:url(#_Radial11);"/><circle cx="1061.36" cy="1255.68" r="15.341" style="fill:#838383;"/></g><g><circle cx="1143.18" cy="1255.68" r="20.455" style="fill:url(#_Radial12);"/><circle cx="1143.18" cy="1255.68" r="15.341" style="fill:#838383;"/></g></g></g><defs><radialGradient id="_Radial3" cx="0" cy="0" r="1" gradientUnits="userSpaceOnUse" gradientTransform="matrix(20.4545,0,0,20.4545,775,1255.68)"><stop offset="0" style="stop-color:#737373;stop-opacity:1"/><stop offset="0.55" style="stop-color:#767676;stop-opacity:1"/><stop offset="1" style="stop-color:#808080;stop-opacity:1"/></radialGradient><radialGradient id="_Radial4" cx="0" cy="0" r="1" gradientUnits="userSpaceOnUse" gradientTransform="matrix(20.4545,0,0,20.4545,856.818,1255.68)"><stop offset="0" style="stop-color:#737373;stop-opacity:1"/><stop offset="0.55" style="stop-color:#767676;stop-opacity:1"/><stop offset="1" style="stop-color:#808080;stop-opacity:1"/></radialGradient><radialGradient id="_Radial5" cx="0" cy="0" r="1" gradientUnits="userSpaceOnUse" gradientTransform="matrix(20.4545,0,0,20.4545,938.636,1255.68)"><stop offset="0" style="stop-color:#737373;stop-opacity:1"/><stop offset="0.55" style="stop-color:#767676;stop-opacity:1"/><stop offset="1" style="stop-color:#808080;stop-opacity:1"/></radialGradient><radialGradient id="_Radial6" cx="0" cy="0" r="1" gradientUnits="userSpaceOnUse" gradientTransform="matrix(20.4545,0,0,20.4545,1020.46,1255.68)"><stop offset="0" style="stop-color:#737373;stop-opacity:1"/><stop offset="0.55" style="stop-color:#767676;stop-opacity:1"/><stop offset="1" style="stop-color:#808080;stop-opacity:1"/></radialGradient><radialGradient id="_Radial7" cx="0" cy="0" r="1" gradientUnits="userSpaceOnUse" gradientTransform="matrix(20.4545,0,0,20.4545,1102.27,1255.68)"><stop offset="0" style="stop-color:#737373;stop-opacity:1"/><stop offset="0.55" style="stop-color:#767676;stop-opacity:1"/><stop offset="1" style="stop-color:#808080;stop-opacity:1"/></radialGradient><radialGradient id="_Radial8" cx="0" cy="0" r="1" gradientUnits="userSpaceOnUse" gradientTransform="matrix(20.4545,0,0,20.4545,815.909,1255.68)"><stop offset="0" style="stop-color:#737373;stop-opacity:1"/><stop offset="0.55" style="stop-color:#767676;stop-opacity:1"/><stop offset="1" style="stop-color:#808080;stop-opacity:1"/></radialGradient><radialGradient id="_Radial9" cx="0" cy="0" r="1" gradientUnits="userSpaceOnUse" gradientTransform="matrix(20.4545,0,0,20.4545,897.727,1255.68)"><stop offset="0" style="stop-color:#737373;stop-opacity:1"/><stop offset="0.55" style="stop-color:#767676;stop-opacity:1"/><stop offset="1" style="stop-color:#808080;stop-opacity:1"/></radialGradient><radialGradient id="_Radial10" cx="0" cy="0" r="1" gradientUnits="userSpaceOnUse" gradientTransform="matrix(20.4545,0,0,20.4545,979.545,1255.68)"><stop offset="0" style="stop-color:#737373;stop-opacity:1"/><stop offset="0.55" style="stop-color:#767676;stop-opacity:1"/><stop offset="1" style="stop-color:#808080;stop-opacity:1"/></radialGradient><radialGradient id="_Radial11" cx="0" cy="0" r="1" gradientUnits="userSpaceOnUse" gradientTransform="matrix(20.4545,0,0,20.4545,1061.36,1255.68)"><stop offset="0" style="stop-color:#737373;stop-opacity:1"/><stop offset="0.55" style="stop-color:#767676;stop-opacity:1"/><stop offset="1" style="stop-color:#808080;stop-opacity:1"/></radialGradient><radialGradient id="_Radial12" cx="0" cy="0" r="1" gradientUnits="userSpaceOnUse" gradientTransform="matrix(20.4545,0,0,20.4545,1143.18,1255.68)"><stop offset="0" style="stop-color:#737373;stop-opacity:1"/><stop offset="0.55" style="stop-color:#767676;stop-opacity:1"/><stop offset="1" style="stop-color:#808080;stop-opacity:1"/></radialGradient></defs></svg>