<?xml version="1.0" encoding="UTF-8" standalone="no"?><!DOCTYPE svg PUBLIC "-//W3C//DTD SVG 1.1//EN" "http://www.w3.org/Graphics/SVG/1.1/DTD/svg11.dtd"><svg width="100%" height="100%" viewBox="0 0 2048 2048" version="1.1" xmlns="http://www.w3.org/2000/svg" xmlns:xlink="http://www.w3.org/1999/xlink" xml:space="preserve" xmlns:serif="http://www.serif.com/" style="fill-rule:evenodd;clip-rule:evenodd;stroke-linecap:round;stroke-linejoin:round;stroke-miterlimit:1.5;"><g><rect x="565.248" y="147.456" width="917.504" height="1835.01" style="fill:#404040;"/><clipPath id="_clip1"><rect x="565.248" y="147.456" width="917.504" height="1835.01"/></clipPath><g clip-path="url(#_clip1)"><g><path d="M761.856,81.92l0,196.608l65.536,65.536l0,589.824l-196.608,196.608l0,131.072l131.072,0l65.536,65.536l0,327.68l-65.536,65.536l0,327.68" style="fill:none;stroke:#3d3d3d;stroke-width:4px;"/><path d="M1286.14,81.92l0,196.608l-65.536,65.536l0,589.824l196.608,196.608l0,131.072l-131.072,0l-65.536,65.536l0,327.68l65.536,65.536l0,327.68" style="fill:none;stroke:#3d3d3d;stroke-width:4px;"/><path d="M729.088,1032.19l65.536,0l65.536,65.536l0,32.768l327.68,0l0,-32.768l65.536,-65.536l65.536,0" style="fill:none;stroke:#434343;stroke-width:4px;"/><g><path d="M761.856,1064.96l98.304,98.304l327.68,0l98.304,-98.304" style="fill:none;stroke:#434343;stroke-width:4px;"/><path d="M761.856,1130.5l32.768,32.768l0,32.768l458.752,0l0,-32.768l32.768,-32.768" style="fill:none;stroke:#434343;stroke-width:4px;"/><path d="M991.232,1294.34l0,196.608l-131.072,131.072l0,180.224" style="fill:none;stroke:#434343;stroke-width:4px;"/><path d="M892.928,1802.24l0,-212.992" style="fill:none;stroke:#434343;stroke-width:4px;"/><path d="M1056.77,1294.34l0,196.608l131.072,131.072l0,180.224" style="fill:none;stroke:#434343;stroke-width:4px;"/><path d="M1155.07,1802.24l0,-212.992" style="fill:none;stroke:#434343;stroke-width:4px;"/><path d="M958.464,1523.71l0,32.768l-32.768,32.768l0,212.992" style="fill:none;stroke:#434343;stroke-width:4px;"/><path d="M1089.54,1523.71l0,32.768l32.768,32.768l0,212.992" style="fill:none;stroke:#434343;stroke-width:4px;"/><path d="M1056.77,1458.18l98.304,98.304l0,-131.072l32.768,-32.768l0,-98.304" style="fill:none;stroke:#434343;stroke-width:4px;"/><path d="M991.232,1458.18l-98.304,98.304l0,-131.072l-32.768,-32.768l0,-98.304" style="fill:none;stroke:#434343;stroke-width:4px;"/><path d="M991.232,1425.41l-65.536,65.536" style="fill:none;stroke:#434343;stroke-width:4px;"/><path d="M1056.77,1425.41l65.536,65.536" style="fill:none;stroke:#434343;stroke-width:4px;"/><path d="M794.624,114.688l0,98.304l32.768,32.768l393.216,0l32.768,-32.768l0,-98.304" style="fill:none;stroke:#3d3d3d;stroke-width:4px;"/></g><path d="M892.928,1064.96l32.768,-32.768l196.608,0l32.768,32.768l0,196.608l-32.768,32.768l-196.608,0l-32.768,-32.768l0,-196.608Z" style="fill:#464646;"/><path d="M925.696,1097.73l32.768,-32.768l131.072,0l32.768,32.768l0,131.072l-32.768,32.768l-131.072,0l-32.768,-32.768l0,-65.536l98.304,0l0,-32.768l-98.304,0l0,-32.768Z" style="fill:#434343;"/></g></g><g><path d="M335.872,802.816l-16.384,32.768l0,425.984l49.152,0l88.474,-255.59l-55.706,-203.162l-65.536,0" style="fill:#464646;"/><g><circle cx="532.48" cy="81.92" r="81.92" style="fill:#464646;"/><circle cx="532.48" cy="81.92" r="55.706" style="fill:#4b4b4b;"/><path d="M630.784,81.92l65.536,65.536l0,131.072l65.536,65.536l0,262.144l-65.536,65.536l0,131.072l65.536,65.536l0,262.144l-65.536,65.536l0,131.072l65.536,65.536l0,262.144l-65.536,65.536l0,196.608l-131.072,131.072l-131.072,0l-65.536,-65.536l0,-65.536l32.768,0l0,-32.768l-32.768,0l0,-32.768l32.768,0l0,-32.768l-32.768,0l0,-32.768l32.768,0l0,-32.768l-32.768,0l0,-32.768l32.768,0l0,-32.768l-32.768,0l0,-32.768l32.768,0l0,-32.768l-32.768,0l0,-32.768l32.768,0l0,-32.768l-32.768,0l0,-32.768l32.768,0l0,-32.768l-32.768,0l0,-98.304l-65.536,-65.536l0,-655.36l65.536,-65.536l-65.536,-65.536l0,-196.608l65.536,-65.536l0,-131.072l65.536,-65.536l32.768,0c0.001,36.171 29.366,65.536 65.536,65.536c36.17,0 65.536,-29.366 65.536,-65.536l32.768,0Zm-327.68,1179.65l32.768,-32.768l0,-196.608l32.768,-32.768l0,-163.84l-65.536,-65.536l0,491.52Z" style="fill:#4b4b4b;"/><g><clipPath id="_clip2"><path d="M630.784,81.92l65.536,65.536l0,131.072l65.536,65.536l0,262.144l-65.536,65.536l0,131.072l65.536,65.536l0,262.144l-65.536,65.536l0,131.072l65.536,65.536l0,262.144l-65.536,65.536l0,196.608l-131.072,131.072l-131.072,0l-65.536,-65.536l0,-65.536l32.768,0l0,-32.768l-32.768,0l0,-32.768l32.768,0l0,-32.768l-32.768,0l0,-32.768l32.768,0l0,-32.768l-32.768,0l0,-32.768l32.768,0l0,-32.768l-32.768,0l0,-32.768l32.768,0l0,-32.768l-32.768,0l0,-32.768l32.768,0l0,-32.768l-32.768,0l0,-32.768l32.768,0l0,-32.768l-32.768,0l0,-98.304l-65.536,-65.536l0,-655.36l65.536,-65.536l-65.536,-65.536l0,-196.608l65.536,-65.536l0,-131.072l65.536,-65.536l32.768,0c0.001,36.171 29.366,65.536 65.536,65.536c36.17,0 65.536,-29.366 65.536,-65.536l32.768,0Zm-327.68,1179.65l32.768,-32.768l0,-196.608l32.768,-32.768l0,-163.84l-65.536,-65.536l0,491.52Z"/></clipPath><g clip-path="url(#_clip2)"><rect x="368.64" y="1458.18" width="131.072" height="491.52" style="fill:#404040;"/><path d="M466.944,1884.16l0,32.768l-131.072,0l0,-32.768l131.072,0Zm-131.072,-65.536l131.072,0l0,32.768l-131.072,0l0,-32.768Zm0,-65.536l131.072,0l0,32.768l-131.072,0l0,-32.768Zm0,-65.536l131.072,0l0,32.768l-131.072,0l0,-32.768Zm0,-65.536l131.072,0l0,32.768l-131.072,0l0,-32.768Zm0,-65.536l131.072,0l0,32.768l-131.072,0l0,-32.768Zm0,-65.536l131.072,0l0,32.768l-131.072,0l0,-32.768Z" style="fill:#434343;"/><path d="M401.408,2015.23l65.536,0l65.536,-65.536l0,-491.52l65.536,-65.536l0,-196.608l131.072,-131.072l32.768,0" style="fill:none;stroke:#464646;stroke-width:4px;"/><path d="M368.64,606.208l65.536,0l131.072,-131.072l196.608,0" style="fill:none;stroke:#464646;stroke-width:4px;"/><path d="M368.64,278.528l131.072,131.072l262.144,0" style="fill:none;stroke:#464646;stroke-width:4px;"/><path d="M368.64,1392.64l196.608,0l0,-229.376l131.072,-131.072l32.768,0l0,-163.84l-65.536,-65.536l0,-163.84l98.304,-98.304" style="fill:none;stroke:#464646;stroke-width:4px;"/><path d="M696.32,1228.8l-32.768,32.768l0,163.84l-32.768,32.768l0,393.216l32.768,32.768l0,65.536" style="fill:none;stroke:#464646;stroke-width:4px;"/><path d="M499.712,114.688l0,229.376l32.768,32.768l229.376,0" style="fill:none;stroke:#464646;stroke-width:4px;"/><path d="M303.104,1294.34l65.536,-65.536l0,-196.608l65.536,-65.536l0,-131.072l-98.304,-98.304l0,-65.536l65.536,-65.536" style="fill:none;stroke:#464646;stroke-width:4px;"/><path d="M532.48,1392.64l0,-32.768l32.768,0l0,-32.768l-32.768,0l0,-32.768l32.768,0l0,-32.768l-32.768,0l0,-32.768l32.768,0l0,-32.768l-32.768,0l0,-32.768l32.768,0" style="fill:none;stroke:#464646;stroke-width:4px;"/><g><circle cx="368.64" cy="704.512" r="13.107" style="fill:#464646;"/><circle cx="401.408" cy="1064.96" r="13.107" style="fill:#464646;"/><circle cx="401.408" cy="1130.5" r="13.107" style="fill:#464646;"/><circle cx="401.408" cy="1196.03" r="13.107" style="fill:#464646;"/><circle cx="434.176" cy="1982.46" r="13.107" style="fill:#464646;"/><circle cx="696.32" cy="1392.64" r="13.107" style="fill:#464646;"/><circle cx="663.552" cy="1818.62" r="13.107" style="fill:#464646;"/><circle cx="401.408" cy="1425.41" r="13.107" style="fill:#464646;"/><circle cx="729.088" cy="507.904" r="13.107" style="fill:#464646;"/><circle cx="696.32" cy="344.064" r="13.107" style="fill:#464646;"/><circle cx="401.408" cy="180.224" r="13.107" style="fill:#464646;"/><circle cx="466.944" cy="311.296" r="13.107" style="fill:#464646;"/></g></g></g></g></g><g><path d="M1712.13,802.816l16.384,32.768l0,425.984l-49.152,0l-88.474,-255.59l55.706,-203.162l65.536,0" style="fill:#464646;"/><g><circle cx="1515.52" cy="81.92" r="81.92" style="fill:#464646;"/><circle cx="1515.52" cy="81.92" r="55.706" style="fill:#4b4b4b;"/><path d="M1417.22,81.92l-65.536,65.536l0,131.072l-65.536,65.536l0,262.144l65.536,65.536l0,131.072l-65.536,65.536l0,262.144l65.536,65.536l0,131.072l-65.536,65.536l0,262.144l65.536,65.536l0,196.608l131.072,131.072l131.072,0l65.536,-65.536l0,-65.536l-32.768,0l0,-32.768l32.768,0l0,-32.768l-32.768,0l0,-32.768l32.768,0l0,-32.768l-32.768,0l0,-32.768l32.768,0l0,-32.768l-32.768,0l0,-32.768l32.768,0l0,-32.768l-32.768,0l0,-32.768l32.768,0l0,-32.768l-32.768,0l0,-32.768l32.768,0l0,-32.768l-32.768,0l0,-32.768l32.768,0l0,-98.304l65.536,-65.536l0,-655.36l-65.536,-65.536l65.536,-65.536l0,-196.608l-65.536,-65.536l0,-131.072l-65.536,-65.536l-32.768,0c-0.001,36.171 -29.366,65.536 -65.536,65.536c-36.17,0 -65.536,-29.366 -65.536,-65.536l-32.768,0Zm327.68,1179.65l-32.768,-32.768l0,-196.608l-32.768,-32.768l0,-163.84l65.536,-65.536l0,491.52Z" style="fill:#4b4b4b;"/><g><clipPath id="_clip3"><path d="M1417.22,81.92l-65.536,65.536l0,131.072l-65.536,65.536l0,262.144l65.536,65.536l0,131.072l-65.536,65.536l0,262.144l65.536,65.536l0,131.072l-65.536,65.536l0,262.144l65.536,65.536l0,196.608l131.072,131.072l131.072,0l65.536,-65.536l0,-65.536l-32.768,0l0,-32.768l32.768,0l0,-32.768l-32.768,0l0,-32.768l32.768,0l0,-32.768l-32.768,0l0,-32.768l32.768,0l0,-32.768l-32.768,0l0,-32.768l32.768,0l0,-32.768l-32.768,0l0,-32.768l32.768,0l0,-32.768l-32.768,0l0,-32.768l32.768,0l0,-32.768l-32.768,0l0,-32.768l32.768,0l0,-98.304l65.536,-65.536l0,-655.36l-65.536,-65.536l65.536,-65.536l0,-196.608l-65.536,-65.536l0,-131.072l-65.536,-65.536l-32.768,0c-0.001,36.171 -29.366,65.536 -65.536,65.536c-36.17,0 -65.536,-29.366 -65.536,-65.536l-32.768,0Zm327.68,1179.65l-32.768,-32.768l0,-196.608l-32.768,-32.768l0,-163.84l65.536,-65.536l0,491.52Z"/></clipPath><g clip-path="url(#_clip3)"><rect x="1548.29" y="1458.18" width="131.072" height="491.52" style="fill:#404040;"/><path d="M1581.06,1884.16l0,32.768l131.072,0l0,-32.768l-131.072,0Zm131.072,-65.536l-131.072,0l0,32.768l131.072,0l0,-32.768Zm0,-65.536l-131.072,0l0,32.768l131.072,0l0,-32.768Zm0,-65.536l-131.072,0l0,32.768l131.072,0l0,-32.768Zm0,-65.536l-131.072,0l0,32.768l131.072,0l0,-32.768Zm0,-65.536l-131.072,0l0,32.768l131.072,0l0,-32.768Zm0,-65.536l-131.072,0l0,32.768l131.072,0l0,-32.768Z" style="fill:#434343;"/><path d="M1646.59,2015.23l-65.536,0l-65.536,-65.536l0,-491.52l-65.536,-65.536l0,-196.608l-131.072,-131.072l-32.768,0" style="fill:none;stroke:#464646;stroke-width:4px;"/><path d="M1679.36,606.208l-65.536,0l-131.072,-131.072l-196.608,0" style="fill:none;stroke:#464646;stroke-width:4px;"/><path d="M1679.36,278.528l-131.072,131.072l-262.144,0" style="fill:none;stroke:#464646;stroke-width:4px;"/><path d="M1679.36,1392.64l-196.608,0l0,-229.376l-131.072,-131.072l-32.768,0l0,-163.84l65.536,-65.536l0,-163.84l-98.304,-98.304" style="fill:none;stroke:#464646;stroke-width:4px;"/><path d="M1351.68,1228.8l32.768,32.768l0,163.84l32.768,32.768l0,393.216l-32.768,32.768l0,65.536" style="fill:none;stroke:#464646;stroke-width:4px;"/><path d="M1548.29,114.688l0,229.376l-32.768,32.768l-229.376,0" style="fill:none;stroke:#464646;stroke-width:4px;"/><path d="M1744.9,1294.34l-65.536,-65.536l0,-196.608l-65.536,-65.536l0,-131.072l98.304,-98.304l0,-65.536l-65.536,-65.536" style="fill:none;stroke:#464646;stroke-width:4px;"/><path d="M1515.52,1392.64l0,-32.768l-32.768,0l0,-32.768l32.768,0l0,-32.768l-32.768,0l0,-32.768l32.768,0l0,-32.768l-32.768,0l0,-32.768l32.768,0l0,-32.768l-32.768,0" style="fill:none;stroke:#464646;stroke-width:4px;"/><g><circle cx="1679.36" cy="704.512" r="13.107" style="fill:#464646;"/><circle cx="1646.59" cy="1064.96" r="13.107" style="fill:#464646;"/><circle cx="1646.59" cy="1130.5" r="13.107" style="fill:#464646;"/><circle cx="1646.59" cy="1196.03" r="13.107" style="fill:#464646;"/><circle cx="1613.82" cy="1982.46" r="13.107" style="fill:#464646;"/><circle cx="1351.68" cy="1392.64" r="13.107" style="fill:#464646;"/><circle cx="1384.45" cy="1818.62" r="13.107" style="fill:#464646;"/><circle cx="1646.59" cy="1425.41" r="13.107" style="fill:#464646;"/><circle cx="1318.91" cy="507.904" r="13.107" style="fill:#464646;"/><circle cx="1351.68" cy="344.064" r="13.107" style="fill:#464646;"/><circle cx="1646.59" cy="180.224" r="13.107" style="fill:#464646;"/><circle cx="1581.06" cy="311.296" r="13.107" style="fill:#464646;"/></g></g></g></g></g><g><path d="M1024,1589.25l-32.768,0l-65.536,65.536l0,32.768l-32.768,32.768l0,32.768l-65.536,65.536l0,163.84l32.768,32.768l327.68,0l32.768,-32.768l0,-163.84l-65.536,-65.536l0,-32.768l-32.768,-32.768l0,-32.768l-65.536,-65.536l-32.768,0" style="fill:#4b4b4b;"/><clipPath id="_clip4"><path d="M1024,1589.25l-32.768,0l-65.536,65.536l0,32.768l-32.768,32.768l0,32.768l-65.536,65.536l0,163.84l32.768,32.768l327.68,0l32.768,-32.768l0,-163.84l-65.536,-65.536l0,-32.768l-32.768,-32.768l0,-32.768l-65.536,-65.536l-32.768,0"/></clipPath><g clip-path="url(#_clip4)"><path d="M827.392,1851.39l131.072,-131.072l131.072,0l131.072,131.072l0,-262.144l-393.216,0l0,262.144" style="fill:#434343;"/></g><path d="M892.928,2015.23l32.768,-32.768l196.608,0l32.768,32.768l-262.144,0" style="fill:#434343;"/><rect x="969.387" y="1818.62" width="21.845" height="163.84" style="fill:#434343;"/><rect x="1013.08" y="1818.62" width="21.845" height="163.84" style="fill:#434343;"/><rect x="1056.77" y="1818.62" width="21.845" height="163.84" style="fill:#434343;"/><rect x="1100.46" y="1818.62" width="21.845" height="163.84" style="fill:#434343;"/><rect x="925.696" y="1818.62" width="21.845" height="163.84" style="fill:#434343;"/><g><path d="M1187.84,925.696c0,-4.521 -3.671,-8.192 -8.192,-8.192l-311.296,0c-4.521,0 -8.192,3.671 -8.192,8.192l0,16.384c0,4.521 3.671,8.192 8.192,8.192l311.296,0c4.521,0 8.192,-3.671 8.192,-8.192l0,-16.384Z" style="fill:#3b3b3b;"/><path d="M1187.84,860.16c0,-4.521 -3.671,-8.192 -8.192,-8.192l-311.296,0c-4.521,0 -8.192,3.671 -8.192,8.192l0,16.384c0,4.521 3.671,8.192 8.192,8.192l311.296,0c4.521,0 8.192,-3.671 8.192,-8.192l0,-16.384Z" style="fill:#3b3b3b;"/><path d="M1187.84,794.624c0,-4.521 -3.671,-8.192 -8.192,-8.192l-311.296,0c-4.521,0 -8.192,3.671 -8.192,8.192l0,16.384c0,4.521 3.671,8.192 8.192,8.192l311.296,0c4.521,0 8.192,-3.671 8.192,-8.192l0,-16.384Z" style="fill:#3b3b3b;"/><path d="M1187.84,729.088c0,-4.521 -3.671,-8.192 -8.192,-8.192l-311.296,0c-4.521,0 -8.192,3.671 -8.192,8.192l0,16.384c0,4.521 3.671,8.192 8.192,8.192l311.296,0c4.521,0 8.192,-3.671 8.192,-8.192l0,-16.384Z" style="fill:#3b3b3b;"/><path d="M1187.84,663.552c0,-4.521 -3.671,-8.192 -8.192,-8.192l-311.296,0c-4.521,0 -8.192,3.671 -8.192,8.192l0,16.384c0,4.521 3.671,8.192 8.192,8.192l311.296,0c4.521,0 8.192,-3.671 8.192,-8.192l0,-16.384Z" style="fill:#3b3b3b;"/><path d="M1187.84,598.016c0,-4.521 -3.671,-8.192 -8.192,-8.192l-311.296,0c-4.521,0 -8.192,3.671 -8.192,8.192l0,16.384c0,4.521 3.671,8.192 8.192,8.192l311.296,0c4.521,0 8.192,-3.671 8.192,-8.192l0,-16.384Z" style="fill:#3b3b3b;"/><path d="M1187.84,532.48c0,-4.521 -3.671,-8.192 -8.192,-8.192l-311.296,0c-4.521,0 -8.192,3.671 -8.192,8.192l0,16.384c0,4.521 3.671,8.192 8.192,8.192l311.296,0c4.521,0 8.192,-3.671 8.192,-8.192l0,-16.384Z" style="fill:#3b3b3b;"/><path d="M1187.84,466.944c0,-4.521 -3.671,-8.192 -8.192,-8.192l-311.296,0c-4.521,0 -8.192,3.671 -8.192,8.192l0,16.384c0,4.521 3.671,8.192 8.192,8.192l311.296,0c4.521,0 8.192,-3.671 8.192,-8.192l0,-16.384Z" style="fill:#3b3b3b;"/><path d="M1187.84,401.408c0,-4.521 -3.671,-8.192 -8.192,-8.192l-311.296,0c-4.521,0 -8.192,3.671 -8.192,8.192l0,16.384c0,4.521 3.671,8.192 8.192,8.192l311.296,0c4.521,0 8.192,-3.671 8.192,-8.192l0,-16.384Z" style="fill:#3b3b3b;"/><path d="M1187.84,335.872c0,-4.521 -3.671,-8.192 -8.192,-8.192l-311.296,0c-4.521,0 -8.192,3.671 -8.192,8.192l0,16.384c0,4.521 3.671,8.192 8.192,8.192l311.296,0c4.521,0 8.192,-3.671 8.192,-8.192l0,-16.384Z" style="fill:#3b3b3b;"/><circle cx="868.352" cy="991.232" r="8.192" style="fill:#434343;"/><circle cx="1179.65" cy="991.232" r="8.192" style="fill:#434343;"/><circle cx="868.352" cy="286.72" r="8.192" style="fill:#434343;"/><circle cx="1179.65" cy="286.72" r="8.192" style="fill:#434343;"/></g></g></g></svg>