<?xml version="1.0" encoding="UTF-8" standalone="no"?><!DOCTYPE svg PUBLIC "-//W3C//DTD SVG 1.1//EN" "http://www.w3.org/Graphics/SVG/1.1/DTD/svg11.dtd"><svg width="100%" height="100%" viewBox="0 0 2000 2000" version="1.1" xmlns="http://www.w3.org/2000/svg" xmlns:xlink="http://www.w3.org/1999/xlink" xml:space="preserve" xmlns:serif="http://www.serif.com/" style="fill-rule:evenodd;clip-rule:evenodd;stroke-linejoin:round;stroke-miterlimit:1.41421;"><g><path d="M100,562.857l0,257.143l514.286,514.286l257.143,0l257.142,-257.143l257.143,0l257.143,-257.143l102.857,0l154.286,-154.286l0,-102.857l-1800,0Z" style="fill:#696969;"/><path d="M202.857,562.857l0,102.857l154.286,154.286l0,154.286l205.714,205.714l308.572,0l462.857,-462.857l411.428,0l51.429,-51.429l0,-102.857l-1594.29,0Z" style="fill:#707070;"/><clipPath id="_clip1"><path d="M202.857,562.857l0,102.857l154.286,154.286l0,154.286l205.714,205.714l308.572,0l462.857,-462.857l411.428,0l51.429,-51.429l0,-102.857l-1594.29,0Z"/></clipPath><g clip-path="url(#_clip1)"><path d="M485.714,614.286l0,360l-25.714,0l0,-360l25.714,0Zm51.429,0l0,360l-25.714,0l0,-360l25.714,0Zm51.428,0l0,360l-25.714,0l0,-360l25.714,0Zm51.429,0l0,360l-25.714,0l0,-360l25.714,0Zm51.429,0l0,360l-25.715,0l0,-360l25.715,0Zm51.428,0l0,360l-25.714,0l0,-360l25.714,0Z" style="fill:url(#_Linear2);"/><path d="M826.429,565.52l-51.429,51.429l0,350.908l248.051,0l304.806,-304.806l0,-151.622l12.857,0l0,156.948l-312.337,312.337l-266.234,0l0,-369.091l51.428,-51.429l0,-48.765l12.858,0l0,54.091Z" style="fill:#666;"/></g><path d="M1906.43,668.377l-158.052,158.052l-102.857,0l-257.143,257.142l-257.143,0l-257.143,257.143l-262.468,0l-518.052,-518.051l0,-266.234l1812.86,0l0,111.948Zm-1800,-99.091l0,248.051l510.52,510.52l251.817,0l257.143,-257.143l257.142,0l257.143,-257.143l102.857,0l150.52,-150.52l0,-93.765l-1787.14,0Z" style="fill:#595959;"/><path d="M682.632,1437.14l0,-203.007l-33.835,0l0,203.007l33.835,0Z" style="fill:url(#_Linear3);"/><path d="M675.861,1423.63c0,5.601 -4.548,10.149 -10.149,10.149c-5.602,0 -10.15,-4.548 -10.15,-10.149c0,-5.602 4.548,-10.15 10.15,-10.15c5.601,0 10.149,4.548 10.149,10.15Z" style="fill:#666;"/><path d="M675.861,1247.66c0,5.602 -4.548,10.149 -10.149,10.149c-5.602,0 -10.15,-4.547 -10.15,-10.149c0,-5.602 4.548,-10.149 10.15,-10.149c5.601,0 10.149,4.547 10.149,10.149Z" style="fill:#666;"/><path d="M836.917,1437.14l0,-203.007l-33.834,0l0,203.007l33.834,0Z" style="fill:url(#_Linear4);"/><path d="M830.147,1423.63c0,5.601 -4.548,10.149 -10.15,10.149c-5.601,0 -10.149,-4.548 -10.149,-10.149c0,-5.602 4.548,-10.15 10.149,-10.15c5.602,0 10.15,4.548 10.15,10.15Z" style="fill:#666;"/><path d="M830.147,1247.66c0,5.602 -4.548,10.149 -10.15,10.149c-5.601,0 -10.149,-4.547 -10.149,-10.149c0,-5.602 4.548,-10.149 10.149,-10.149c5.602,0 10.15,4.547 10.15,10.149Z" style="fill:#666;"/></g><g><rect x="800" y="617.5" width="100" height="5" style="fill:#6e6e6e;"/><rect x="800" y="627.5" width="100" height="5" style="fill:#6e6e6e;"/><rect x="800" y="637.5" width="100" height="5" style="fill:#6e6e6e;"/><rect x="800" y="647.5" width="100" height="5" style="fill:#6e6e6e;"/><rect x="800" y="657.5" width="100" height="5" style="fill:#6e6e6e;"/><rect x="800" y="667.5" width="100" height="5" style="fill:#6e6e6e;"/><rect x="800" y="677.5" width="100" height="5" style="fill:#6e6e6e;"/><rect x="800" y="687.5" width="100" height="5" style="fill:#6e6e6e;"/><rect x="800" y="697.5" width="100" height="5" style="fill:#6e6e6e;"/><rect x="800" y="707.5" width="100" height="5" style="fill:#6e6e6e;"/><rect x="800" y="717.5" width="100" height="5" style="fill:#6e6e6e;"/><rect x="800" y="727.5" width="100" height="5" style="fill:#6e6e6e;"/><rect x="800" y="737.5" width="100" height="5" style="fill:#6e6e6e;"/><rect x="800" y="747.5" width="100" height="5" style="fill:#6e6e6e;"/><rect x="800" y="757.5" width="100" height="5" style="fill:#6e6e6e;"/><rect x="800" y="767.5" width="100" height="5" style="fill:#6e6e6e;"/><rect x="800" y="777.5" width="100" height="5" style="fill:#6e6e6e;"/><rect x="800" y="787.5" width="100" height="5" style="fill:#6e6e6e;"/><rect x="800" y="797.5" width="100" height="5" style="fill:#6e6e6e;"/><rect x="800" y="807.5" width="100" height="5" style="fill:#6e6e6e;"/><rect x="800" y="817.5" width="100" height="5" style="fill:#6e6e6e;"/><rect x="800" y="827.5" width="100" height="5" style="fill:#6e6e6e;"/><rect x="800" y="837.5" width="100" height="5" style="fill:#6e6e6e;"/><rect x="800" y="847.5" width="100" height="5" style="fill:#6e6e6e;"/><rect x="800" y="857.5" width="100" height="5" style="fill:#6e6e6e;"/><rect x="800" y="867.5" width="100" height="5" style="fill:#6e6e6e;"/><rect x="800" y="877.5" width="100" height="5" style="fill:#6e6e6e;"/><rect x="800" y="887.5" width="100" height="5" style="fill:#6e6e6e;"/><rect x="800" y="897.5" width="100" height="5" style="fill:#6e6e6e;"/><rect x="800" y="907.5" width="100" height="5" style="fill:#6e6e6e;"/><rect x="800" y="917.5" width="100" height="5" style="fill:#6e6e6e;"/><rect x="800" y="927.5" width="100" height="5" style="fill:#6e6e6e;"/><rect x="800" y="937.5" width="100" height="5" style="fill:#6e6e6e;"/><rect x="800" y="947.5" width="100" height="5" style="fill:#6e6e6e;"/></g><defs><linearGradient id="_Linear2" x1="0" y1="0" x2="1" y2="0" gradientUnits="userSpaceOnUse" gradientTransform="matrix(2.20436e-14,360,-360,2.20436e-14,575.714,614.286)"><stop offset="0" style="stop-color:#333;stop-opacity:1"/><stop offset="0.25" style="stop-color:#1a1a1a;stop-opacity:1"/><stop offset="0.75" style="stop-color:#1a1a1a;stop-opacity:1"/><stop offset="1" style="stop-color:#333;stop-opacity:1"/></linearGradient><linearGradient id="_Linear3" x1="0" y1="0" x2="1" y2="0" gradientUnits="userSpaceOnUse" gradientTransform="matrix(-3.72919e-14,-203.008,203.008,-3.72919e-14,665.712,1437.15)"><stop offset="0" style="stop-color:#737373;stop-opacity:1"/><stop offset="0.13" style="stop-color:#747474;stop-opacity:1"/><stop offset="0.17" style="stop-color:#777;stop-opacity:1"/><stop offset="0.2" style="stop-color:#7b7b7b;stop-opacity:1"/><stop offset="0.8" style="stop-color:#7b7b7b;stop-opacity:1"/><stop offset="0.83" style="stop-color:#777;stop-opacity:1"/><stop offset="0.87" style="stop-color:#747474;stop-opacity:1"/><stop offset="1" style="stop-color:#737373;stop-opacity:1"/></linearGradient><linearGradient id="_Linear4" x1="0" y1="0" x2="1" y2="0" gradientUnits="userSpaceOnUse" gradientTransform="matrix(-3.72919e-14,-203.008,203.008,-3.72919e-14,819.997,1437.15)"><stop offset="0" style="stop-color:#737373;stop-opacity:1"/><stop offset="0.13" style="stop-color:#747474;stop-opacity:1"/><stop offset="0.17" style="stop-color:#777;stop-opacity:1"/><stop offset="0.2" style="stop-color:#7b7b7b;stop-opacity:1"/><stop offset="0.8" style="stop-color:#7b7b7b;stop-opacity:1"/><stop offset="0.83" style="stop-color:#777;stop-opacity:1"/><stop offset="0.87" style="stop-color:#747474;stop-opacity:1"/><stop offset="1" style="stop-color:#737373;stop-opacity:1"/></linearGradient></defs></svg>