<?xml version="1.0" encoding="UTF-8" standalone="no"?><!DOCTYPE svg PUBLIC "-//W3C//DTD SVG 1.1//EN" "http://www.w3.org/Graphics/SVG/1.1/DTD/svg11.dtd"><svg width="100%" height="100%" viewBox="0 0 2000 2000" version="1.1" xmlns="http://www.w3.org/2000/svg" xmlns:xlink="http://www.w3.org/1999/xlink" xml:space="preserve" xmlns:serif="http://www.serif.com/" style="fill-rule:evenodd;clip-rule:evenodd;stroke-linecap:round;stroke-linejoin:round;stroke-miterlimit:1.5;"><g><path d="M685.714,57.143l-57.143,57.143l0,457.143l114.286,114.285l0,171.429l-28.571,28.571l0,200l28.571,28.572l0,314.285l514.286,0l0,-314.285l28.571,-28.572l0,-200l-28.571,-28.571l0,-171.429l114.286,-114.285l0,-457.143l-57.143,-57.143l-628.572,0Z" style="fill:#949494;"/><clipPath id="_clip1"><path d="M685.714,57.143l-57.143,57.143l0,457.143l114.286,114.285l0,171.429l-28.571,28.571l0,200l28.571,28.572l0,314.285l514.286,0l0,-314.285l28.571,-28.572l0,-200l-28.571,-28.571l0,-171.429l114.286,-114.285l0,-457.143l-57.143,-57.143l-628.572,0Z"/></clipPath><g clip-path="url(#_clip1)"><g><rect x="685.714" y="142.857" width="14.286" height="142.857" style="fill:#666;"/><rect x="685.714" y="300" width="14.286" height="57.143" style="fill:#666;"/><rect x="1300" y="142.857" width="14.286" height="142.857" style="fill:#666;"/><rect x="1300" y="300" width="14.286" height="57.143" style="fill:#666;"/></g></g><path d="M1285.71,0l-571.428,0l0,428.571l57.143,57.143l0,657.143l-142.858,142.857l0,714.286l742.858,0l0,-714.286l-142.858,-142.857l0,-657.143l57.143,-57.143l0,-428.571Z" style="fill:#999;"/><clipPath id="_clip2"><path d="M1285.71,0l-571.428,0l0,428.571l57.143,57.143l0,657.143l-142.858,142.857l0,714.286l742.858,0l0,-714.286l-142.858,-142.857l0,-657.143l57.143,-57.143l0,-428.571Z"/></clipPath><g clip-path="url(#_clip2)"><path d="M857.143,0l0,714.286l57.143,57.143l0,657.142l-114.286,114.286l0,457.143l400,0l0,-457.143l-114.286,-114.286l0,-657.142l57.143,-57.143l0,-714.286l-285.714,0Z" style="fill:#949494;"/></g><g><rect x="657.143" y="1928.57" width="14.286" height="42.857"/><rect x="1328.57" y="1928.57" width="14.286" height="42.857"/><rect x="657.143" y="1857.14" width="14.286" height="42.857"/><rect x="1328.57" y="1857.14" width="14.286" height="42.857"/></g><g><rect x="778.571" y="28.571" width="14.286" height="114.286" style="fill:#1a1a1a;"/><rect x="1192.86" y="28.571" width="14.286" height="114.286" style="fill:#1a1a1a;"/></g><g><path d="M871.429,0c0,0 0,41.874 0,71.429c0,7.577 3.01,14.844 8.368,20.203c5.358,5.358 12.625,8.368 20.203,8.368c49.473,0 150.527,0 200,0c7.578,0 14.845,-3.01 20.203,-8.368c5.358,-5.359 8.368,-12.626 8.368,-20.203c0,-29.555 0,-71.429 0,-71.429l-257.142,0Z" style="fill:#8f8f8f;"/><clipPath id="_clip3"><path d="M871.429,0c0,0 0,41.874 0,71.429c0,7.577 3.01,14.844 8.368,20.203c5.358,5.358 12.625,8.368 20.203,8.368c49.473,0 150.527,0 200,0c7.578,0 14.845,-3.01 20.203,-8.368c5.358,-5.359 8.368,-12.626 8.368,-20.203c0,-29.555 0,-71.429 0,-71.429l-257.142,0Z"/></clipPath><g clip-path="url(#_clip3)"><path d="M1042.86,28.571c0,-3.944 -3.198,-7.142 -7.143,-7.142c-16.142,0 -55.286,0 -71.428,0c-3.945,0 -7.143,3.198 -7.143,7.142c0,0 0,0 0,0c0,3.945 3.198,7.143 7.143,7.143c16.142,0 55.286,0 71.428,0c3.945,0 7.143,-3.198 7.143,-7.143c0,0 0,0 0,0Z" style="fill:#858585;"/><g><rect x="885.714" y="57.143" width="14.286" height="14.286" style="fill:#666;"/><rect x="1100" y="57.143" width="14.286" height="14.286" style="fill:#666;"/></g></g><path d="M871.429,2000c0,0 0,-41.874 0,-71.429c0,-7.577 3.01,-14.844 8.368,-20.203c5.358,-5.358 12.625,-8.368 20.203,-8.368c49.473,0 150.527,0 200,0c7.578,0 14.845,3.01 20.203,8.368c5.358,5.359 8.368,12.626 8.368,20.203c0,29.555 0,71.429 0,71.429l-257.142,0Z" style="fill:#8f8f8f;"/><clipPath id="_clip4"><path d="M871.429,2000c0,0 0,-41.874 0,-71.429c0,-7.577 3.01,-14.844 8.368,-20.203c5.358,-5.358 12.625,-8.368 20.203,-8.368c49.473,0 150.527,0 200,0c7.578,0 14.845,3.01 20.203,8.368c5.358,5.359 8.368,12.626 8.368,20.203c0,29.555 0,71.429 0,71.429l-257.142,0Z"/></clipPath><g clip-path="url(#_clip4)"><path d="M1042.86,1971.43c0,3.944 -3.198,7.142 -7.143,7.142c-16.142,0 -55.286,0 -71.428,0c-3.945,0 -7.143,-3.198 -7.143,-7.142c0,0 0,0 0,0c0,-3.945 3.198,-7.143 7.143,-7.143c16.142,0 55.286,0 71.428,0c3.945,0 7.143,3.198 7.143,7.143c0,0 0,0 0,0Z" style="fill:#858585;"/><g><rect x="885.714" y="1928.57" width="14.286" height="14.286" style="fill:#666;"/><rect x="1100" y="1928.57" width="14.286" height="14.286" style="fill:#666;"/></g></g></g><g><circle cx="742.857" cy="500" r="14.286" style="fill:#8f8f8f;"/><circle cx="742.857" cy="628.571" r="14.286" style="fill:#8f8f8f;"/><circle cx="1257.14" cy="500" r="14.286" style="fill:#8f8f8f;"/><circle cx="1257.14" cy="628.571" r="14.286" style="fill:#8f8f8f;"/></g><g><g><circle cx="1000" cy="935.714" r="142.857" style="fill:#949494;"/><circle cx="1000" cy="935.714" r="114.286" style="fill:#9e9e9e;"/><circle cx="1000" cy="935.714" r="107.143" style="fill:none;stroke:#8f8f8f;stroke-width:1px;"/><circle cx="1000" cy="935.714" r="50" style="fill:none;stroke:#8f8f8f;stroke-width:1px;"/><path d="M957.143,935.714l28.571,0" style="fill:none;stroke:#8f8f8f;stroke-width:3px;"/><path d="M1042.86,935.714l-28.571,0" style="fill:none;stroke:#8f8f8f;stroke-width:3px;"/><path d="M1000,978.571l0,-28.571" style="fill:none;stroke:#8f8f8f;stroke-width:3px;"/><path d="M1000,921.429l0,-28.572" style="fill:none;stroke:#8f8f8f;stroke-width:3px;"/></g><g><circle cx="1000" cy="1250" r="142.857" style="fill:#949494;"/><circle cx="1000" cy="1250" r="114.286" style="fill:#9e9e9e;"/><circle cx="1000" cy="1250" r="107.143" style="fill:none;stroke:#8f8f8f;stroke-width:1px;"/><circle cx="1000" cy="1250" r="50" style="fill:none;stroke:#8f8f8f;stroke-width:1px;"/><path d="M957.143,1250l28.571,0" style="fill:none;stroke:#8f8f8f;stroke-width:3px;"/><path d="M1042.86,1250l-28.571,0" style="fill:none;stroke:#8f8f8f;stroke-width:3px;"/><path d="M1000,1292.86l0,-28.571" style="fill:none;stroke:#8f8f8f;stroke-width:3px;"/><path d="M1000,1235.71l0,-28.571" style="fill:none;stroke:#8f8f8f;stroke-width:3px;"/></g></g><g><path d="M628.571,1785.71l71.429,-71.428l0,-171.429l-42.857,-42.857l0,-142.857l-28.572,-28.572l0,457.143Z" style="fill:#8c8c8c;"/><path d="M1371.43,1785.71l-71.429,-71.428l0,-171.429l42.857,-42.857l0,-142.857l28.572,-28.572l0,457.143Z" style="fill:#8c8c8c;"/></g><path d="M785.714,1373.29c0,-3.85 -1.29,-7.542 -3.586,-10.265c-6.281,-7.445 -19.199,-22.76 -25.48,-30.206c-2.297,-2.722 -5.411,-4.252 -8.659,-4.252c-2.528,0 -4.95,0 -7.173,0c-6.762,0 -12.245,6.5 -12.245,14.517c0,74.703 0,417.088 0,540.761c0,3.85 1.291,7.542 3.587,10.264c6.281,7.446 19.199,22.761 25.48,30.207c2.296,2.722 5.411,4.251 8.659,4.251c2.528,0 4.949,0 7.172,0c6.763,0 12.245,-6.499 12.245,-14.516c0,-74.703 0,-417.089 0,-540.761Z" style="fill:#949494;"/><clipPath id="_clip5"><path d="M785.714,1373.29c0,-3.85 -1.29,-7.542 -3.586,-10.265c-6.281,-7.445 -19.199,-22.76 -25.48,-30.206c-2.297,-2.722 -5.411,-4.252 -8.659,-4.252c-2.528,0 -4.95,0 -7.173,0c-6.762,0 -12.245,6.5 -12.245,14.517c0,74.703 0,417.088 0,540.761c0,3.85 1.291,7.542 3.587,10.264c6.281,7.446 19.199,22.761 25.48,30.207c2.296,2.722 5.411,4.251 8.659,4.251c2.528,0 4.949,0 7.172,0c6.763,0 12.245,-6.499 12.245,-14.516c0,-74.703 0,-417.089 0,-540.761Z"/></clipPath><g clip-path="url(#_clip5)"><path d="M742.507,1889.45c-1.531,-1.815 -2.391,-4.277 -2.391,-6.843c0,-2.567 0.86,-5.028 2.391,-6.843c5.467,-6.481 13.89,-16.467 21.108,-25.024c2.335,-2.768 5.846,-3.596 8.897,-2.098c3.05,1.498 5.039,5.027 5.039,8.941c0,15.173 0,34.875 0,50.047c0,3.915 -1.989,7.443 -5.039,8.941c-3.051,1.498 -6.562,0.67 -8.897,-2.098c-7.218,-8.557 -15.641,-18.543 -21.108,-25.023Zm-5.772,-104.448c0,-3.914 1.989,-7.443 5.039,-8.94c3.05,-1.498 6.562,-0.67 8.896,2.097c7.219,8.558 15.642,18.543 21.109,25.024c1.531,1.815 2.391,4.276 2.391,6.843c0,2.567 -0.86,5.028 -2.391,6.843c-5.467,6.481 -13.89,16.467 -21.109,25.024c-2.334,2.767 -5.846,3.595 -8.896,2.098c-3.05,-1.498 -5.039,-5.027 -5.039,-8.941c0,-15.173 0,-34.875 0,-50.048Zm5.772,-40.714c-1.531,-1.814 -2.391,-4.276 -2.391,-6.843c0,-2.566 0.86,-5.028 2.391,-6.843c5.467,-6.48 13.89,-16.466 21.108,-25.023c2.335,-2.768 5.846,-3.596 8.897,-2.098c3.05,1.498 5.039,5.027 5.039,8.941c0,15.172 0,34.874 0,50.047c0,3.914 -1.989,7.443 -5.039,8.941c-3.051,1.498 -6.562,0.67 -8.897,-2.098c-7.218,-8.557 -15.641,-18.543 -21.108,-25.024Zm-5.772,-104.447c0,-3.914 1.989,-7.443 5.039,-8.941c3.05,-1.498 6.562,-0.67 8.896,2.098c7.219,8.557 15.642,18.543 21.109,25.024c1.531,1.815 2.391,4.276 2.391,6.843c0,2.566 -0.86,5.028 -2.391,6.843c-5.467,6.481 -13.89,16.466 -21.109,25.023c-2.334,2.768 -5.846,3.596 -8.896,2.098c-3.05,-1.498 -5.039,-5.026 -5.039,-8.941c0,-15.172 0,-34.874 0,-50.047Zm5.772,-40.714c-1.531,-1.815 -2.391,-4.276 -2.391,-6.843c0,-2.567 0.86,-5.028 2.391,-6.843c5.467,-6.481 13.89,-16.466 21.108,-25.024c2.335,-2.767 5.846,-3.595 8.897,-2.097c3.05,1.497 5.039,5.026 5.039,8.94c0,15.173 0,34.875 0,50.048c0,3.914 -1.989,7.443 -5.039,8.941c-3.051,1.498 -6.562,0.67 -8.897,-2.098c-7.218,-8.557 -15.641,-18.543 -21.108,-25.024Zm-5.772,-104.447c0,-3.914 1.989,-7.443 5.039,-8.941c3.05,-1.498 6.562,-0.67 8.896,2.098c7.219,8.557 15.642,18.543 21.109,25.023c1.531,1.815 2.391,4.277 2.391,6.843c0,2.567 -0.86,5.029 -2.391,6.843c-5.467,6.481 -13.89,16.467 -21.109,25.024c-2.334,2.768 -5.846,3.596 -8.896,2.098c-3.05,-1.498 -5.039,-5.027 -5.039,-8.941c0,-15.173 0,-34.874 0,-50.047Zm5.772,-40.714c-1.531,-1.815 -2.391,-4.277 -2.391,-6.843c0,-2.567 0.86,-5.028 2.391,-6.843c5.467,-6.481 13.89,-16.467 21.108,-25.024c2.335,-2.768 5.846,-3.596 8.897,-2.098c3.05,1.498 5.039,5.027 5.039,8.941c0,15.173 0,34.875 0,50.047c0,3.915 -1.989,7.443 -5.039,8.941c-3.051,1.498 -6.562,0.67 -8.897,-2.098c-7.218,-8.557 -15.641,-18.542 -21.108,-25.023Zm-5.772,-104.447c0,-3.915 1.989,-7.443 5.039,-8.941c3.05,-1.498 6.562,-0.67 8.896,2.098c7.219,8.557 15.642,18.542 21.109,25.023c1.531,1.815 2.391,4.277 2.391,6.843c0,2.567 -0.86,5.028 -2.391,6.843c-5.467,6.481 -13.89,16.467 -21.109,25.024c-2.334,2.768 -5.846,3.596 -8.896,2.098c-3.05,-1.498 -5.039,-5.027 -5.039,-8.941c0,-15.173 0,-34.875 0,-50.047Z" style="fill:#4d4d4d;"/></g><path d="M1214.29,1373.29c0,-3.85 1.29,-7.542 3.586,-10.265c6.281,-7.445 19.199,-22.76 25.48,-30.206c2.297,-2.722 5.411,-4.252 8.659,-4.252c2.528,0 4.95,0 7.173,0c6.762,0 12.245,6.5 12.245,14.517c0,74.703 0,417.088 0,540.761c0,3.85 -1.291,7.542 -3.587,10.264c-6.281,7.446 -19.199,22.761 -25.48,30.207c-2.296,2.722 -5.411,4.251 -8.659,4.251c-2.528,0 -4.949,0 -7.172,0c-6.763,0 -12.245,-6.499 -12.245,-14.516c0,-74.703 0,-417.089 0,-540.761Z" style="fill:#949494;"/><clipPath id="_clip6"><path d="M1214.29,1373.29c0,-3.85 1.29,-7.542 3.586,-10.265c6.281,-7.445 19.199,-22.76 25.48,-30.206c2.297,-2.722 5.411,-4.252 8.659,-4.252c2.528,0 4.95,0 7.173,0c6.762,0 12.245,6.5 12.245,14.517c0,74.703 0,417.088 0,540.761c0,3.85 -1.291,7.542 -3.587,10.264c-6.281,7.446 -19.199,22.761 -25.48,30.207c-2.296,2.722 -5.411,4.251 -8.659,4.251c-2.528,0 -4.949,0 -7.172,0c-6.763,0 -12.245,-6.499 -12.245,-14.516c0,-74.703 0,-417.089 0,-540.761Z"/></clipPath><g clip-path="url(#_clip6)"><path d="M1257.49,1889.45c1.531,-1.815 2.391,-4.277 2.391,-6.843c0,-2.567 -0.86,-5.028 -2.391,-6.843c-5.467,-6.481 -13.89,-16.467 -21.108,-25.024c-2.335,-2.768 -5.846,-3.596 -8.897,-2.098c-3.05,1.498 -5.039,5.027 -5.039,8.941c0,15.173 0,34.875 0,50.047c0,3.915 1.989,7.443 5.039,8.941c3.051,1.498 6.562,0.67 8.897,-2.098c7.218,-8.557 15.641,-18.543 21.108,-25.023Zm5.772,-104.448c0,-3.914 -1.989,-7.443 -5.039,-8.94c-3.05,-1.498 -6.562,-0.67 -8.896,2.097c-7.219,8.558 -15.642,18.543 -21.109,25.024c-1.531,1.815 -2.391,4.276 -2.391,6.843c0,2.567 0.86,5.028 2.391,6.843c5.467,6.481 13.89,16.467 21.109,25.024c2.334,2.767 5.846,3.595 8.896,2.098c3.05,-1.498 5.039,-5.027 5.039,-8.941c0,-15.173 0,-34.875 0,-50.048Zm-5.772,-40.714c1.531,-1.814 2.391,-4.276 2.391,-6.843c0,-2.566 -0.86,-5.028 -2.391,-6.843c-5.467,-6.48 -13.89,-16.466 -21.108,-25.023c-2.335,-2.768 -5.846,-3.596 -8.897,-2.098c-3.05,1.498 -5.039,5.027 -5.039,8.941c0,15.172 0,34.874 0,50.047c0,3.914 1.989,7.443 5.039,8.941c3.051,1.498 6.562,0.67 8.897,-2.098c7.218,-8.557 15.641,-18.543 21.108,-25.024Zm5.772,-104.447c0,-3.914 -1.989,-7.443 -5.039,-8.941c-3.05,-1.498 -6.562,-0.67 -8.896,2.098c-7.219,8.557 -15.642,18.543 -21.109,25.024c-1.531,1.815 -2.391,4.276 -2.391,6.843c0,2.566 0.86,5.028 2.391,6.843c5.467,6.481 13.89,16.466 21.109,25.023c2.334,2.768 5.846,3.596 8.896,2.098c3.05,-1.498 5.039,-5.026 5.039,-8.941c0,-15.172 0,-34.874 0,-50.047Zm-5.772,-40.714c1.531,-1.815 2.391,-4.276 2.391,-6.843c0,-2.567 -0.86,-5.028 -2.391,-6.843c-5.467,-6.481 -13.89,-16.466 -21.108,-25.024c-2.335,-2.767 -5.846,-3.595 -8.897,-2.097c-3.05,1.497 -5.039,5.026 -5.039,8.94c0,15.173 0,34.875 0,50.048c0,3.914 1.989,7.443 5.039,8.941c3.051,1.498 6.562,0.67 8.897,-2.098c7.218,-8.557 15.641,-18.543 21.108,-25.024Zm5.772,-104.447c0,-3.914 -1.989,-7.443 -5.039,-8.941c-3.05,-1.498 -6.562,-0.67 -8.896,2.098c-7.219,8.557 -15.642,18.543 -21.109,25.023c-1.531,1.815 -2.391,4.277 -2.391,6.843c0,2.567 0.86,5.029 2.391,6.843c5.467,6.481 13.89,16.467 21.109,25.024c2.334,2.768 5.846,3.596 8.896,2.098c3.05,-1.498 5.039,-5.027 5.039,-8.941c0,-15.173 0,-34.874 0,-50.047Zm-5.772,-40.714c1.531,-1.815 2.391,-4.277 2.391,-6.843c0,-2.567 -0.86,-5.028 -2.391,-6.843c-5.467,-6.481 -13.89,-16.467 -21.108,-25.024c-2.335,-2.768 -5.846,-3.596 -8.897,-2.098c-3.05,1.498 -5.039,5.027 -5.039,8.941c0,15.173 0,34.875 0,50.047c0,3.915 1.989,7.443 5.039,8.941c3.051,1.498 6.562,0.67 8.897,-2.098c7.218,-8.557 15.641,-18.542 21.108,-25.023Zm5.772,-104.447c0,-3.915 -1.989,-7.443 -5.039,-8.941c-3.05,-1.498 -6.562,-0.67 -8.896,2.098c-7.219,8.557 -15.642,18.542 -21.109,25.023c-1.531,1.815 -2.391,4.277 -2.391,6.843c0,2.567 0.86,5.028 2.391,6.843c5.467,6.481 13.89,16.467 21.109,25.024c2.334,2.768 5.846,3.596 8.896,2.098c3.05,-1.498 5.039,-5.027 5.039,-8.941c0,-15.173 0,-34.875 0,-50.047Z" style="fill:#4d4d4d;"/></g><g><path d="M828.571,728.571l14.286,14.286" style="fill:none;stroke:#8c8c8c;stroke-width:3px;"/><path d="M828.571,857.143l14.286,-14.286" style="fill:none;stroke:#8c8c8c;stroke-width:3px;"/><path d="M1171.43,728.571l-14.286,14.286" style="fill:none;stroke:#8c8c8c;stroke-width:3px;"/><path d="M1171.43,857.143l-14.286,-14.286" style="fill:none;stroke:#8c8c8c;stroke-width:3px;"/></g><g><path d="M828.571,1328.57l14.286,14.286" style="fill:none;stroke:#8c8c8c;stroke-width:3px;"/><path d="M828.571,1457.14l14.286,-14.286" style="fill:none;stroke:#8c8c8c;stroke-width:3px;"/><path d="M1171.43,1328.57l-14.286,14.286" style="fill:none;stroke:#8c8c8c;stroke-width:3px;"/><path d="M1171.43,1457.14l-14.286,-14.286" style="fill:none;stroke:#8c8c8c;stroke-width:3px;"/></g><g><g><rect x="728.573" y="700" width="42.856" height="14.286" style="fill:url(#_Linear7);"/><circle cx="734.285" cy="707.143" r="4.285" style="fill:#666;"/></g><g><rect x="1228.57" y="700" width="42.856" height="14.286" style="fill:url(#_Linear8);"/><circle cx="1265.72" cy="707.143" r="4.285" style="fill:#666;"/></g><g><rect x="728.573" y="742.857" width="42.856" height="14.286" style="fill:url(#_Linear9);"/><circle cx="734.285" cy="750" r="4.285" style="fill:#666;"/></g><g><rect x="1228.57" y="742.857" width="42.856" height="14.286" style="fill:url(#_Linear10);"/><circle cx="1265.72" cy="750" r="4.285" style="fill:#666;"/></g><g><rect x="728.573" y="785.714" width="42.856" height="14.286" style="fill:url(#_Linear11);"/><circle cx="734.285" cy="792.857" r="4.285" style="fill:#666;"/></g><g><rect x="1228.57" y="785.714" width="42.856" height="14.286" style="fill:url(#_Linear12);"/><circle cx="1265.72" cy="792.857" r="4.285" style="fill:#666;"/></g><g><rect x="728.573" y="828.571" width="42.856" height="14.286" style="fill:url(#_Linear13);"/><circle cx="734.285" cy="835.714" r="4.285" style="fill:#666;"/></g><g><rect x="1228.57" y="828.571" width="42.856" height="14.286" style="fill:url(#_Linear14);"/><circle cx="1265.72" cy="835.714" r="4.285" style="fill:#666;"/></g></g></g><defs><linearGradient id="_Linear7" x1="0" y1="0" x2="1" y2="0" gradientUnits="userSpaceOnUse" gradientTransform="matrix(-85.7134,1.04969e-14,-1.04969e-14,-85.7134,814.286,707.143)"><stop offset="0" style="stop-color:#737373;stop-opacity:1"/><stop offset="0.13" style="stop-color:#747474;stop-opacity:1"/><stop offset="0.17" style="stop-color:#777;stop-opacity:1"/><stop offset="0.2" style="stop-color:#7b7b7b;stop-opacity:1"/><stop offset="0.8" style="stop-color:#7b7b7b;stop-opacity:1"/><stop offset="0.83" style="stop-color:#777;stop-opacity:1"/><stop offset="0.87" style="stop-color:#747474;stop-opacity:1"/><stop offset="1" style="stop-color:#737373;stop-opacity:1"/></linearGradient><linearGradient id="_Linear8" x1="0" y1="0" x2="1" y2="0" gradientUnits="userSpaceOnUse" gradientTransform="matrix(85.7134,1.04969e-14,1.04969e-14,-85.7134,1185.72,707.143)"><stop offset="0" style="stop-color:#737373;stop-opacity:1"/><stop offset="0.13" style="stop-color:#747474;stop-opacity:1"/><stop offset="0.17" style="stop-color:#777;stop-opacity:1"/><stop offset="0.2" style="stop-color:#7b7b7b;stop-opacity:1"/><stop offset="0.8" style="stop-color:#7b7b7b;stop-opacity:1"/><stop offset="0.83" style="stop-color:#777;stop-opacity:1"/><stop offset="0.87" style="stop-color:#747474;stop-opacity:1"/><stop offset="1" style="stop-color:#737373;stop-opacity:1"/></linearGradient><linearGradient id="_Linear9" x1="0" y1="0" x2="1" y2="0" gradientUnits="userSpaceOnUse" gradientTransform="matrix(-85.7134,1.04969e-14,-1.04969e-14,-85.7134,814.286,750)"><stop offset="0" style="stop-color:#737373;stop-opacity:1"/><stop offset="0.13" style="stop-color:#747474;stop-opacity:1"/><stop offset="0.17" style="stop-color:#777;stop-opacity:1"/><stop offset="0.2" style="stop-color:#7b7b7b;stop-opacity:1"/><stop offset="0.8" style="stop-color:#7b7b7b;stop-opacity:1"/><stop offset="0.83" style="stop-color:#777;stop-opacity:1"/><stop offset="0.87" style="stop-color:#747474;stop-opacity:1"/><stop offset="1" style="stop-color:#737373;stop-opacity:1"/></linearGradient><linearGradient id="_Linear10" x1="0" y1="0" x2="1" y2="0" gradientUnits="userSpaceOnUse" gradientTransform="matrix(85.7134,1.04969e-14,1.04969e-14,-85.7134,1185.72,750)"><stop offset="0" style="stop-color:#737373;stop-opacity:1"/><stop offset="0.13" style="stop-color:#747474;stop-opacity:1"/><stop offset="0.17" style="stop-color:#777;stop-opacity:1"/><stop offset="0.2" style="stop-color:#7b7b7b;stop-opacity:1"/><stop offset="0.8" style="stop-color:#7b7b7b;stop-opacity:1"/><stop offset="0.83" style="stop-color:#777;stop-opacity:1"/><stop offset="0.87" style="stop-color:#747474;stop-opacity:1"/><stop offset="1" style="stop-color:#737373;stop-opacity:1"/></linearGradient><linearGradient id="_Linear11" x1="0" y1="0" x2="1" y2="0" gradientUnits="userSpaceOnUse" gradientTransform="matrix(-85.7134,1.04969e-14,-1.04969e-14,-85.7134,814.286,792.857)"><stop offset="0" style="stop-color:#737373;stop-opacity:1"/><stop offset="0.13" style="stop-color:#747474;stop-opacity:1"/><stop offset="0.17" style="stop-color:#777;stop-opacity:1"/><stop offset="0.2" style="stop-color:#7b7b7b;stop-opacity:1"/><stop offset="0.8" style="stop-color:#7b7b7b;stop-opacity:1"/><stop offset="0.83" style="stop-color:#777;stop-opacity:1"/><stop offset="0.87" style="stop-color:#747474;stop-opacity:1"/><stop offset="1" style="stop-color:#737373;stop-opacity:1"/></linearGradient><linearGradient id="_Linear12" x1="0" y1="0" x2="1" y2="0" gradientUnits="userSpaceOnUse" gradientTransform="matrix(85.7134,1.04969e-14,1.04969e-14,-85.7134,1185.72,792.857)"><stop offset="0" style="stop-color:#737373;stop-opacity:1"/><stop offset="0.13" style="stop-color:#747474;stop-opacity:1"/><stop offset="0.17" style="stop-color:#777;stop-opacity:1"/><stop offset="0.2" style="stop-color:#7b7b7b;stop-opacity:1"/><stop offset="0.8" style="stop-color:#7b7b7b;stop-opacity:1"/><stop offset="0.83" style="stop-color:#777;stop-opacity:1"/><stop offset="0.87" style="stop-color:#747474;stop-opacity:1"/><stop offset="1" style="stop-color:#737373;stop-opacity:1"/></linearGradient><linearGradient id="_Linear13" x1="0" y1="0" x2="1" y2="0" gradientUnits="userSpaceOnUse" gradientTransform="matrix(-85.7134,1.04969e-14,-1.04969e-14,-85.7134,814.286,835.714)"><stop offset="0" style="stop-color:#737373;stop-opacity:1"/><stop offset="0.13" style="stop-color:#747474;stop-opacity:1"/><stop offset="0.17" style="stop-color:#777;stop-opacity:1"/><stop offset="0.2" style="stop-color:#7b7b7b;stop-opacity:1"/><stop offset="0.8" style="stop-color:#7b7b7b;stop-opacity:1"/><stop offset="0.83" style="stop-color:#777;stop-opacity:1"/><stop offset="0.87" style="stop-color:#747474;stop-opacity:1"/><stop offset="1" style="stop-color:#737373;stop-opacity:1"/></linearGradient><linearGradient id="_Linear14" x1="0" y1="0" x2="1" y2="0" gradientUnits="userSpaceOnUse" gradientTransform="matrix(85.7134,1.04969e-14,1.04969e-14,-85.7134,1185.72,835.714)"><stop offset="0" style="stop-color:#737373;stop-opacity:1"/><stop offset="0.13" style="stop-color:#747474;stop-opacity:1"/><stop offset="0.17" style="stop-color:#777;stop-opacity:1"/><stop offset="0.2" style="stop-color:#7b7b7b;stop-opacity:1"/><stop offset="0.8" style="stop-color:#7b7b7b;stop-opacity:1"/><stop offset="0.83" style="stop-color:#777;stop-opacity:1"/><stop offset="0.87" style="stop-color:#747474;stop-opacity:1"/><stop offset="1" style="stop-color:#737373;stop-opacity:1"/></linearGradient></defs></svg>