<?xml version="1.0" encoding="UTF-8" standalone="no"?><!DOCTYPE svg PUBLIC "-//W3C//DTD SVG 1.1//EN" "http://www.w3.org/Graphics/SVG/1.1/DTD/svg11.dtd"><svg width="100%" height="100%" viewBox="0 0 2000 2000" version="1.1" xmlns="http://www.w3.org/2000/svg" xmlns:xlink="http://www.w3.org/1999/xlink" xml:space="preserve" xmlns:serif="http://www.serif.com/" style="fill-rule:evenodd;clip-rule:evenodd;stroke-linejoin:round;stroke-miterlimit:1.41421;"><path d="M559.211,0l-131.579,0l0,644.737l184.21,184.21l368.421,0l13.158,-13.158l210.526,0l92.106,92.106l105.263,0l52.631,52.631l0,103.948l26.316,26.315l0,882.895l26.316,26.316l65.789,0l0,-355.263l-13.157,-13.158l0,-710.526l-184.211,-184.211l-105.263,0l-26.316,-26.316l-157.895,0l-52.631,-52.631l-447.369,0l-52.631,-52.632l0,-342.105l26.316,-26.316l0,-236.842Z" style="fill:#616161;"/><clipPath id="_clip1"><path d="M559.211,0l-131.579,0l0,644.737l184.21,184.21l368.421,0l13.158,-13.158l210.526,0l92.106,92.106l105.263,0l52.631,52.631l0,103.948l26.316,26.315l0,882.895l26.316,26.316l65.789,0l0,-355.263l-13.157,-13.158l0,-710.526l-184.211,-184.211l-105.263,0l-26.316,-26.316l-157.895,0l-52.631,-52.631l-447.369,0l-52.631,-52.632l0,-342.105l26.316,-26.316l0,-236.842Z"/></clipPath><g clip-path="url(#_clip1)"><path d="M980.263,819.079l-342.105,0l-1.259,-0.25l-1.067,-0.714l-25.352,-25.352l-24.954,0l-1.259,-0.25l-1.067,-0.713l-131.579,-131.579l-0.713,-1.067l-0.25,-1.259l0,-657.895l6.579,0l0,656.532l129.652,129.652l788.111,0c1.25,0.249 1.266,0.255 2.326,0.964l131.579,131.579c0.708,1.06 0.715,1.075 0.963,2.326l0,1052.63l-6.579,0l0,-1051.27l-129.652,-129.652l-122.274,0l36.842,36.842l86.795,0l1.259,0.251l1.067,0.713l114.474,114.473c0.708,1.06 0.714,1.076 0.963,2.326l0,1024.95l15.178,15.178l47.98,0l0,-276.974l6.579,0l0,280.263c-0.249,1.251 -0.255,1.266 -0.963,2.326l-1.068,0.714l-1.258,0.25l-52.632,0c-1.25,-0.249 -1.266,-0.255 -2.326,-0.964l-17.105,-17.105c-0.709,-1.06 -0.715,-1.075 -0.964,-2.326l0,-1024.95l-112.547,-112.547l-86.795,0c-1.25,-0.249 -1.266,-0.255 -2.326,-0.963l-42.457,-42.458l-43.328,0l72.368,72.369l117.059,0c0.015,0.001 1.41,0.18 2.326,0.963l92.105,92.105c0.566,0.663 0.894,1.442 0.964,2.326l0,92.106l-6.579,0l0,-90.743l-90.179,-90.178l-117.058,0c-0.869,-0.069 -1.652,-0.388 -2.326,-0.964l-77.984,-77.984l-181.486,0l-25.352,25.352c-1.06,0.709 -1.075,0.715 -2.326,0.964Zm542.763,1154.61l-6.579,0l0,-1051.27l-142.81,-142.81l-788.111,0l-1.259,-0.25l-1.067,-0.713l-118.421,-118.421l-0.713,-1.067l-0.25,-1.259l0,-657.895l6.579,0l0,656.532l116.494,116.494l788.111,0c1.25,0.249 1.266,0.256 2.326,0.964l144.737,144.737c0.708,1.06 0.715,1.075 0.963,2.326l0,1052.63Zm13.158,0l-6.579,0l0,-1051.27l-155.968,-155.968l-788.111,0l-1.259,-0.25l-1.067,-0.713l-105.263,-105.263l-0.713,-1.067l-0.25,-1.259l0,-657.895l6.579,0l0,656.532l103.336,103.336l788.111,0c1.25,0.249 1.266,0.256 2.326,0.964l157.895,157.895c0.708,1.06 0.714,1.075 0.963,2.326l0,1052.63Zm13.158,0l-6.579,0l0,-1051.27l-169.126,-169.126l-788.111,0l-1.259,-0.25l-1.067,-0.713l-92.105,-92.105l-0.713,-1.067l-0.25,-1.259l0,-657.895l6.579,0l0,656.532l90.178,90.179l135.433,0l-6.579,-6.579l-130.217,0l-1.259,-0.251l-1.067,-0.713l-78.947,-78.947l-0.713,-1.067l-0.251,-1.259l0,-657.895l6.579,0l0,255.216l19.737,-19.736l0,-235.48l6.579,0l0,215.743l6.579,-6.579l0,-209.164l6.579,0l0,210.526c-0.068,0.869 -0.387,1.652 -0.963,2.326l-12.195,12.195l0,11.795c-0.068,0.869 -0.387,1.652 -0.963,2.326l-25.353,25.352l0,392.012l77.021,77.021l130.216,0l1.259,0.25l1.067,0.713l12.195,12.195l643.374,0c1.25,0.248 1.266,0.255 2.326,0.963l171.053,171.053c0.708,1.06 0.714,1.075 0.963,2.326l0,1052.63Zm-912.547,-1180.92l-17.011,0l19.736,19.737l339.381,0l19.736,-19.737l-135.432,0l-12.195,12.195c-0.662,0.565 -1.441,0.893 -2.326,0.963l-197.368,0c-0.869,-0.068 -1.652,-0.387 -2.326,-0.963l-12.195,-12.195Zm217.106,0l-207.802,0l6.579,6.579l194.644,0l6.579,-6.579Z" style="fill:#595959;fill-rule:nonzero;"/></g><rect x="440.789" y="302.632" width="78.947" height="13.158" style="fill:url(#_Linear2);"/><circle cx="446.053" cy="309.211" r="3.947" style="fill:#666;"/><circle cx="514.474" cy="309.211" r="3.947" style="fill:#666;"/><path d="M881.579,809.211l0,-78.948l-13.158,0l0,78.948l13.158,0Z" style="fill:url(#_Linear3);"/><path d="M878.947,735.526c0,2.179 -1.768,3.948 -3.947,3.948c-2.179,0 -3.947,-1.769 -3.947,-3.948c0,-2.178 1.768,-3.947 3.947,-3.947c2.179,0 3.947,1.769 3.947,3.947Z" style="fill:#666;"/><path d="M878.947,803.947c0,2.179 -1.768,3.948 -3.947,3.948c-2.179,0 -3.947,-1.769 -3.947,-3.948c0,-2.178 1.768,-3.947 3.947,-3.947c2.179,0 3.947,1.769 3.947,3.947Z" style="fill:#666;"/><path d="M973.684,809.211l0,-78.948l-13.158,0l0,78.948l13.158,0Z" style="fill:url(#_Linear4);"/><path d="M971.053,735.526c0,2.179 -1.769,3.948 -3.948,3.948c-2.178,0 -3.947,-1.769 -3.947,-3.948c0,-2.178 1.769,-3.947 3.947,-3.947c2.179,0 3.948,1.769 3.948,3.947Z" style="fill:#666;"/><path d="M971.053,803.947c0,2.179 -1.769,3.948 -3.948,3.948c-2.178,0 -3.947,-1.769 -3.947,-3.948c0,-2.178 1.769,-3.947 3.947,-3.947c2.179,0 3.948,1.769 3.948,3.947Z" style="fill:#666;"/><rect x="1477.63" y="1059.21" width="78.947" height="13.158" style="fill:url(#_Linear5);"/><circle cx="1551.32" cy="1065.79" r="3.947" style="fill:#666;"/><circle cx="1482.89" cy="1065.79" r="3.947" style="fill:#666;"/><rect x="1480.26" y="1618.42" width="78.947" height="13.158" style="fill:url(#_Linear6);"/><circle cx="1553.95" cy="1625" r="3.947" style="fill:#666;"/><circle cx="1485.53" cy="1625" r="3.947" style="fill:#666;"/><rect x="1480.26" y="1440.79" width="78.947" height="13.158" style="fill:url(#_Linear7);"/><circle cx="1553.95" cy="1447.37" r="3.947" style="fill:#666;"/><circle cx="1485.53" cy="1447.37" r="3.947" style="fill:#666;"/><defs><linearGradient id="_Linear2" x1="0" y1="0" x2="1" y2="0" gradientUnits="userSpaceOnUse" gradientTransform="matrix(78.9474,0,0,13.1579,440.789,309.211)"><stop offset="0" style="stop-color:#737373;stop-opacity:1"/><stop offset="0.13" style="stop-color:#747474;stop-opacity:1"/><stop offset="0.17" style="stop-color:#777;stop-opacity:1"/><stop offset="0.2" style="stop-color:#7b7b7b;stop-opacity:1"/><stop offset="0.8" style="stop-color:#7b7b7b;stop-opacity:1"/><stop offset="0.83" style="stop-color:#777;stop-opacity:1"/><stop offset="0.87" style="stop-color:#747474;stop-opacity:1"/><stop offset="1" style="stop-color:#737373;stop-opacity:1"/></linearGradient><linearGradient id="_Linear3" x1="0" y1="0" x2="1" y2="0" gradientUnits="userSpaceOnUse" gradientTransform="matrix(4.83413e-15,78.9474,-13.1579,8.05689e-16,875,730.263)"><stop offset="0" style="stop-color:#737373;stop-opacity:1"/><stop offset="0.13" style="stop-color:#747474;stop-opacity:1"/><stop offset="0.17" style="stop-color:#777;stop-opacity:1"/><stop offset="0.2" style="stop-color:#7b7b7b;stop-opacity:1"/><stop offset="0.8" style="stop-color:#7b7b7b;stop-opacity:1"/><stop offset="0.83" style="stop-color:#777;stop-opacity:1"/><stop offset="0.87" style="stop-color:#747474;stop-opacity:1"/><stop offset="1" style="stop-color:#737373;stop-opacity:1"/></linearGradient><linearGradient id="_Linear4" x1="0" y1="0" x2="1" y2="0" gradientUnits="userSpaceOnUse" gradientTransform="matrix(4.83413e-15,78.9474,-13.1579,8.05689e-16,967.105,730.263)"><stop offset="0" style="stop-color:#737373;stop-opacity:1"/><stop offset="0.13" style="stop-color:#747474;stop-opacity:1"/><stop offset="0.17" style="stop-color:#777;stop-opacity:1"/><stop offset="0.2" style="stop-color:#7b7b7b;stop-opacity:1"/><stop offset="0.8" style="stop-color:#7b7b7b;stop-opacity:1"/><stop offset="0.83" style="stop-color:#777;stop-opacity:1"/><stop offset="0.87" style="stop-color:#747474;stop-opacity:1"/><stop offset="1" style="stop-color:#737373;stop-opacity:1"/></linearGradient><linearGradient id="_Linear5" x1="0" y1="0" x2="1" y2="0" gradientUnits="userSpaceOnUse" gradientTransform="matrix(-78.9474,-9.66826e-15,1.61138e-15,-13.1579,1556.58,1065.79)"><stop offset="0" style="stop-color:#737373;stop-opacity:1"/><stop offset="0.13" style="stop-color:#747474;stop-opacity:1"/><stop offset="0.17" style="stop-color:#777;stop-opacity:1"/><stop offset="0.2" style="stop-color:#7b7b7b;stop-opacity:1"/><stop offset="0.8" style="stop-color:#7b7b7b;stop-opacity:1"/><stop offset="0.83" style="stop-color:#777;stop-opacity:1"/><stop offset="0.87" style="stop-color:#747474;stop-opacity:1"/><stop offset="1" style="stop-color:#737373;stop-opacity:1"/></linearGradient><linearGradient id="_Linear6" x1="0" y1="0" x2="1" y2="0" gradientUnits="userSpaceOnUse" gradientTransform="matrix(-78.9474,-9.66826e-15,1.61138e-15,-13.1579,1559.21,1625)"><stop offset="0" style="stop-color:#737373;stop-opacity:1"/><stop offset="0.13" style="stop-color:#747474;stop-opacity:1"/><stop offset="0.17" style="stop-color:#777;stop-opacity:1"/><stop offset="0.2" style="stop-color:#7b7b7b;stop-opacity:1"/><stop offset="0.8" style="stop-color:#7b7b7b;stop-opacity:1"/><stop offset="0.83" style="stop-color:#777;stop-opacity:1"/><stop offset="0.87" style="stop-color:#747474;stop-opacity:1"/><stop offset="1" style="stop-color:#737373;stop-opacity:1"/></linearGradient><linearGradient id="_Linear7" x1="0" y1="0" x2="1" y2="0" gradientUnits="userSpaceOnUse" gradientTransform="matrix(-78.9474,-9.66826e-15,1.61138e-15,-13.1579,1559.21,1447.37)"><stop offset="0" style="stop-color:#737373;stop-opacity:1"/><stop offset="0.13" style="stop-color:#747474;stop-opacity:1"/><stop offset="0.17" style="stop-color:#777;stop-opacity:1"/><stop offset="0.2" style="stop-color:#7b7b7b;stop-opacity:1"/><stop offset="0.8" style="stop-color:#7b7b7b;stop-opacity:1"/><stop offset="0.83" style="stop-color:#777;stop-opacity:1"/><stop offset="0.87" style="stop-color:#747474;stop-opacity:1"/><stop offset="1" style="stop-color:#737373;stop-opacity:1"/></linearGradient></defs></svg>