<?xml version="1.0" encoding="UTF-8" standalone="no"?><!DOCTYPE svg PUBLIC "-//W3C//DTD SVG 1.1//EN" "http://www.w3.org/Graphics/SVG/1.1/DTD/svg11.dtd"><svg width="100%" height="100%" viewBox="0 0 2000 2000" version="1.1" xmlns="http://www.w3.org/2000/svg" xmlns:xlink="http://www.w3.org/1999/xlink" xml:space="preserve" xmlns:serif="http://www.serif.com/" style="fill-rule:evenodd;clip-rule:evenodd;stroke-linejoin:round;stroke-miterlimit:1.41421;"><g><path d="M1443.48,643.478l17.392,0l17.391,17.392l0,191.304l-52.174,52.174l0,208.695l-121.739,0l-34.783,-34.782l-69.565,0l-17.391,-17.391l-121.739,0l-17.392,-17.392l-260.869,0l-34.783,34.783l-313.043,0l-86.957,86.956l-104.348,0l-34.782,34.783l-191.305,0l0,-8.696l-8.695,-8.695l-8.696,0l0,-69.566l17.391,-17.391l0,-34.782l-17.391,-17.392l0,-104.348l34.783,-34.782l69.565,0l17.391,17.391l278.261,0l34.783,-34.782l104.347,0l34.783,-34.783l330.435,0l86.956,86.956l52.174,0l34.783,-34.782l139.13,0l34.783,-34.783l0,-226.087l-17.391,-17.391l-521.74,0l-104.347,-104.348l0,-17.391l434.782,0l52.174,52.174l121.739,0l52.174,-52.174l34.783,0l52.174,-52.174l0,-34.783l34.782,-34.782l52.174,0l0,260.869Z" style="fill:#7a7a7a;"/><g><path d="M1430.43,436.584l-34.783,34.782l0,382.609l-141.677,141.677l-1253.98,0l0,-8.695l1250.37,0l136.584,-136.584l0,-382.609l34.782,-34.782l0,-32.982l8.696,0l0,36.584Z" style="fill:#808080;"/><path d="M1413.04,641.677l0,212.298l-159.068,159.068l-782.609,0l-121.739,121.74l-349.627,0l0,-8.696l346.025,0l121.739,-121.739l782.609,0l153.975,-153.975l0,-205.094l-16.118,-16.118l6.149,-6.148l18.664,18.664Z" style="fill:#808080;"/><path d="M1326.09,1093.85l0,417.392l103.074,103.074l-6.148,6.149l-105.622,-105.622l0,-417.391l-67.018,-67.018l-485.186,0l-32.951,32.951l-311.212,0l-71.397,71.397l-104.348,0l-34.782,34.782l-210.497,0l0,-8.695l206.895,0l34.782,-34.783l104.348,0l71.397,-71.397l311.212,0l32.951,-32.951l492.39,0l72.112,72.112Z" style="fill:#808080;"/><path d="M1256.52,885.156l0,55.775l-19.938,19.939l-713.044,0l-33.509,33.509l-6.149,-6.149l36.056,-36.056l713.044,0l14.844,-14.844l0,-48.573l-85.683,-85.683l6.149,-6.148l88.23,88.23Z" style="fill:#808080;"/><path d="M732.236,604.348l591.304,0l37.33,37.329l0,212.298l-124.286,124.286l-696.568,0l-15.202,15.202l-6.149,-6.149l17.749,-17.749l696.568,0l119.192,-119.192l0,-205.094l-32.236,-32.236l-591.304,0l-70.839,-70.838l6.149,-6.149l68.292,68.292Z" style="fill:#808080;"/><path d="M1043.48,752.174l-50.373,0l-67.018,67.018l0,86.957l-37.33,37.329l-382.608,0l-34.783,34.783l-471.366,0l0,-8.696l467.764,0l34.783,-34.782l382.609,0l32.235,-32.236l0,-86.957l72.112,-72.112l53.975,0l0,8.696Z" style="fill:#808080;"/><path d="M1098.73,605.621l-6.149,6.149l-50.901,-50.9l-222.485,0l-34.782,34.782l-71.367,0l0,-8.695l67.765,0l34.782,-34.783l229.689,0l53.448,53.447Z" style="fill:#808080;"/><path d="M1273.91,693.851l34.783,34.783l0,175.714l-8.696,0l0,-172.112l-34.783,-34.783l0,-88.757l8.696,0l0,85.155Z" style="fill:#808080;"/><path d="M1013.04,888.757l-37.329,37.33l-71.366,0l0,-8.696l67.764,0l32.236,-32.235l0,-137.33l8.695,0l0,140.931Z" style="fill:#808080;"/><path d="M921.739,873.913l-337.329,0l-43.479,43.478l-34.782,0l-43.479,43.479l-462.67,0l0,-8.696l459.069,0l43.478,-43.478l34.783,0l43.478,-43.479l340.931,0l0,8.696Z" style="fill:#808080;"/><path d="M855.248,872.64l-36.056,36.056l-160.123,0l-36.056,-36.056l6.148,-6.149l33.51,33.509l152.919,0l33.51,-33.509l6.148,6.149Z" style="fill:#808080;"/><path d="M316.118,1133.51l-18.665,18.665l-71.366,0l0,-8.696l67.764,0l16.118,-16.118l6.149,6.149Z" style="fill:#808080;"/><path d="M1778.26,836.584l-37.33,37.329l-313.043,0l-121.739,121.739l-36.584,0l0,-8.695l32.982,0l121.739,-121.74l313.044,0l32.235,-32.235l0,-241.678l8.696,0l0,245.28Z" style="fill:#808080;"/><path d="M1514.84,1108.7l222.486,0l17.391,-17.392l245.279,0l0,8.696l-241.677,0l-17.392,17.391l-229.688,0l-69.566,-69.565l-172.112,0l0,-8.696l175.714,0l69.565,69.566Z" style="fill:#808080;"/><path d="M1845.28,1108.7l102.547,0l0,8.695l-106.149,0l-18.664,-18.664l6.148,-6.149l16.118,16.118Z" style="fill:#808080;"/><path d="M1413.04,436.584l-34.782,34.782l0,260.87l-18.665,18.664l-6.149,-6.148l16.118,-16.118l0,-260.87l34.783,-34.782l0,-32.982l8.695,0l0,36.584Z" style="fill:#808080;"/><path d="M1600,578.261l-85.156,0l-84.409,84.409l0,191.305l-139.488,139.488l-6.149,-6.149l136.941,-136.941l0,-191.304l89.504,-89.504l88.757,0l0,8.696Z" style="fill:#808080;"/><path d="M1514.84,1134.78l224.286,0l0,8.695l-227.887,0l-78.261,-78.261l-146.025,0l0,-8.695l149.627,0l78.26,78.261Z" style="fill:#808080;"/><path d="M403.074,994.379l-36.056,36.056l-367.018,0l0,-8.696l363.416,0l33.51,-33.509l6.148,6.149Z" style="fill:#808080;"/></g><g><g><path d="M1228.83,1059.04l0,-137.299l-22.883,0l0,137.299l22.883,0Z" style="fill:url(#_Linear1);"/><path d="M1224.26,930.894c0,3.788 -3.076,6.864 -6.865,6.864c-3.788,0 -6.864,-3.076 -6.864,-6.864c0,-3.789 3.076,-6.864 6.864,-6.864c3.789,0 6.865,3.075 6.865,6.864Z" style="fill:#737373;"/><path d="M1224.26,1049.89c0,3.788 -3.076,6.864 -6.865,6.864c-3.788,0 -6.864,-3.076 -6.864,-6.864c0,-3.789 3.076,-6.864 6.864,-6.864c3.789,0 6.865,3.075 6.865,6.864Z" style="fill:#737373;"/></g><g><path d="M602.746,1041.65l0,-137.299l-22.883,0l0,137.299l22.883,0Z" style="fill:url(#_Linear2);"/><path d="M598.169,913.503c0,3.788 -3.076,6.864 -6.865,6.864c-3.788,0 -6.864,-3.076 -6.864,-6.864c0,-3.789 3.076,-6.865 6.864,-6.865c3.789,0 6.865,3.076 6.865,6.865Z" style="fill:#737373;"/><path d="M598.169,1032.5c0,3.788 -3.076,6.864 -6.865,6.864c-3.788,0 -6.864,-3.076 -6.864,-6.864c0,-3.789 3.076,-6.865 6.864,-6.865c3.789,0 6.865,3.076 6.865,6.865Z" style="fill:#737373;"/></g><g><path d="M81.007,1060.87l0,-137.3l-22.884,0l0,137.3l22.884,0Z" style="fill:url(#_Linear3);"/><path d="M76.43,932.725c0,3.789 -3.076,6.865 -6.865,6.865c-3.788,0 -6.864,-3.076 -6.864,-6.865c0,-3.788 3.076,-6.864 6.864,-6.864c3.789,0 6.865,3.076 6.865,6.864Z" style="fill:#737373;"/><path d="M76.43,1051.72c0,3.789 -3.076,6.865 -6.865,6.865c-3.788,0 -6.864,-3.076 -6.864,-6.865c0,-3.788 3.076,-6.864 6.864,-6.864c3.789,0 6.865,3.076 6.865,6.864Z" style="fill:#737373;"/></g><g><rect x="1322.65" y="686.957" width="137.299" height="22.883" style="fill:url(#_Linear4);"/><circle cx="1331.81" cy="698.398" r="6.864" style="fill:#737373;"/><circle cx="1450.8" cy="698.398" r="6.864" style="fill:#737373;"/></g></g></g><defs><linearGradient id="_Linear1" x1="0" y1="0" x2="1" y2="0" gradientUnits="userSpaceOnUse" gradientTransform="matrix(8.40719e-15,137.3,-137.3,8.40719e-15,1217.39,921.739)"><stop offset="0" style="stop-color:#808080;stop-opacity:1"/><stop offset="0.13" style="stop-color:#808080;stop-opacity:1"/><stop offset="0.17" style="stop-color:#858585;stop-opacity:1"/><stop offset="0.2" style="stop-color:#878787;stop-opacity:1"/><stop offset="0.8" style="stop-color:#878787;stop-opacity:1"/><stop offset="0.83" style="stop-color:#858585;stop-opacity:1"/><stop offset="0.87" style="stop-color:#808080;stop-opacity:1"/><stop offset="1" style="stop-color:#808080;stop-opacity:1"/></linearGradient><linearGradient id="_Linear2" x1="0" y1="0" x2="1" y2="0" gradientUnits="userSpaceOnUse" gradientTransform="matrix(8.40719e-15,137.3,-137.3,8.40719e-15,591.304,904.348)"><stop offset="0" style="stop-color:#808080;stop-opacity:1"/><stop offset="0.13" style="stop-color:#808080;stop-opacity:1"/><stop offset="0.17" style="stop-color:#858585;stop-opacity:1"/><stop offset="0.2" style="stop-color:#878787;stop-opacity:1"/><stop offset="0.8" style="stop-color:#878787;stop-opacity:1"/><stop offset="0.83" style="stop-color:#858585;stop-opacity:1"/><stop offset="0.87" style="stop-color:#808080;stop-opacity:1"/><stop offset="1" style="stop-color:#808080;stop-opacity:1"/></linearGradient><linearGradient id="_Linear3" x1="0" y1="0" x2="1" y2="0" gradientUnits="userSpaceOnUse" gradientTransform="matrix(8.40719e-15,137.3,-137.3,8.40719e-15,69.5652,923.57)"><stop offset="0" style="stop-color:#808080;stop-opacity:1"/><stop offset="0.13" style="stop-color:#808080;stop-opacity:1"/><stop offset="0.17" style="stop-color:#858585;stop-opacity:1"/><stop offset="0.2" style="stop-color:#878787;stop-opacity:1"/><stop offset="0.8" style="stop-color:#878787;stop-opacity:1"/><stop offset="0.83" style="stop-color:#858585;stop-opacity:1"/><stop offset="0.87" style="stop-color:#808080;stop-opacity:1"/><stop offset="1" style="stop-color:#808080;stop-opacity:1"/></linearGradient><linearGradient id="_Linear4" x1="0" y1="0" x2="1" y2="0" gradientUnits="userSpaceOnUse" gradientTransform="matrix(137.3,0,0,137.3,1322.65,698.398)"><stop offset="0" style="stop-color:#808080;stop-opacity:1"/><stop offset="0.13" style="stop-color:#808080;stop-opacity:1"/><stop offset="0.17" style="stop-color:#858585;stop-opacity:1"/><stop offset="0.2" style="stop-color:#878787;stop-opacity:1"/><stop offset="0.8" style="stop-color:#878787;stop-opacity:1"/><stop offset="0.83" style="stop-color:#858585;stop-opacity:1"/><stop offset="0.87" style="stop-color:#808080;stop-opacity:1"/><stop offset="1" style="stop-color:#808080;stop-opacity:1"/></linearGradient></defs></svg>