<?xml version="1.0" encoding="UTF-8" standalone="no"?><!DOCTYPE svg PUBLIC "-//W3C//DTD SVG 1.1//EN" "http://www.w3.org/Graphics/SVG/1.1/DTD/svg11.dtd"><svg width="100%" height="100%" viewBox="0 0 2000 2000" version="1.1" xmlns="http://www.w3.org/2000/svg" xmlns:xlink="http://www.w3.org/1999/xlink" xml:space="preserve" xmlns:serif="http://www.serif.com/" style="fill-rule:evenodd;clip-rule:evenodd;stroke-linejoin:round;stroke-miterlimit:1.41421;"><path d="M1347.37,1892.11l-7.894,7.895l-7.895,-7.895l-134.211,0l-7.894,7.895c0,0 -40.119,0 -63.158,0c-4.188,0 -8.204,-1.664 -11.165,-4.625c-2.961,-2.961 -4.625,-6.977 -4.625,-11.164l-31.579,0l0,-31.579l-94.736,0l-442.106,-442.106l0,-157.894l-15.789,-15.79l0,-31.579l15.789,0l0,-31.579l-15.789,0l0,-31.579l15.789,0l0,-31.579l-15.789,0l0,-31.579l15.789,0l0,-31.579l-15.789,0l0,-47.368l15.789,-15.789l0,-205.264l710.527,0l0,31.579l47.368,0l126.316,126.316l63.158,0l0,947.369l-47.369,0l0,15.789l-78.947,0l0,-7.895l-15.79,0Z" style="fill:#757575;"/><clipPath id="_clip1"><path d="M1347.37,1892.11l-7.894,7.895l-7.895,-7.895l-134.211,0l-7.894,7.895c0,0 -40.119,0 -63.158,0c-4.188,0 -8.204,-1.664 -11.165,-4.625c-2.961,-2.961 -4.625,-6.977 -4.625,-11.164l-31.579,0l0,-31.579l-94.736,0l-442.106,-442.106l0,-157.894l-15.789,-15.79l0,-31.579l15.789,0l0,-31.579l-15.789,0l0,-31.579l15.789,0l0,-31.579l-15.789,0l0,-31.579l15.789,0l0,-31.579l-15.789,0l0,-47.368l15.789,-15.789l0,-205.264l710.527,0l0,31.579l47.368,0l126.316,126.316l63.158,0l0,947.369l-47.369,0l0,15.789l-78.947,0l0,-7.895l-15.79,0Z"/></clipPath><g clip-path="url(#_clip1)"><rect x="1112.11" y="1475.26" width="31.579" height="78.947" style="fill:url(#_Linear2);"/><rect x="1112.11" y="1172.11" width="31.579" height="78.947" style="fill:url(#_Linear3);"/><path d="M701.579,966.842l0,31.579l91.579,0l0,-31.579l-91.579,0Z" style="fill:url(#_Linear4);"/><path d="M701.579,998.421l91.579,0l0,-31.579l191.707,0l127.24,127.241l0,156.97l31.579,0l0,224.21l-31.579,0l0,155.662l30.654,30.654l364.083,0l0,3.158l-365.391,0l-32.504,-32.504l0,-160.128l31.579,0l0,-217.894l-31.579,0l0,-158.82l-125.39,-125.391l-187.241,0l0,31.579l-97.895,0l0,-31.579l-189.474,0l0,-3.158l192.632,0l0,31.579Z" style="fill:#717171;"/><path d="M1191.05,840.526l15.789,0l0,64.083l93.812,93.812l64.083,0l0,64.083l78.022,78.022l48.294,0l0,3.158l-49.602,0l-79.872,-79.872l0,-62.233l-62.233,0l-95.662,-95.662l0,-62.233l-15.789,0l0,-66.316l3.158,0l0,63.158Z" style="fill:#717171;"/></g><path d="M542.105,763.158l0,-157.895l-31.579,0l0,-378.947l94.737,-94.737l252.632,0l284.21,284.21l94.737,0l0,205.264l15.79,15.789l0,126.316l-710.527,0Z" style="fill:#757575;"/><clipPath id="_clip5"><path d="M542.105,763.158l0,-157.895l-31.579,0l0,-378.947l94.737,-94.737l252.632,0l284.21,284.21l94.737,0l0,205.264l15.79,15.789l0,126.316l-710.527,0Z"/></clipPath><g clip-path="url(#_clip5)"><path d="M970,729.346l0,16.443l15.789,0l0,26.843l-3.157,0l0,-23.685l-15.79,0l0,-18.293l-30.654,-30.654l-233.955,0l-33.158,33.158l-128.549,0l0,-3.158l127.241,0l33.158,-33.158l236.571,0l32.504,32.504Z" style="fill:#717171;"/><path d="M1172.11,772.632l0,-23.685l-28.421,0l0,23.685l-34.737,0l0,-23.685l-28.421,0l0,23.685l-34.736,0l0,-23.685l-28.422,0l0,15.79l-3.157,0l0,-18.948l34.736,0l0,23.685l28.421,0l0,-23.685l34.737,0l0,23.685l28.421,0l0,-23.685l34.737,0l0,26.843l-3.158,0Z" style="fill:#717171;"/><path d="M984.211,368.421l0,-31.579l-252.632,0l0,31.579l252.632,0Z" style="fill:url(#_Linear6);"/><path d="M731.579,589.474l0,31.579l252.632,0l0,-31.579l-252.632,0Z" style="fill:url(#_Linear7);"/><path d="M970,604.609l0,16.444l-3.158,0l0,-15.136l-30.654,-30.654l-156.587,0l-30.654,30.654l0,15.136l-3.158,0l0,-16.444l32.504,-32.504l159.203,0l32.504,32.504Z" style="fill:#717171;"/><path d="M921.707,385.789l-127.624,0l-32.504,-32.503l0,-16.444l3.158,0l0,15.136l30.654,30.654l125.008,0l30.654,-30.654l0,-15.136l3.158,0l0,16.444l-32.504,32.503Z" style="fill:#717171;"/><path d="M906.38,383.094l-2.233,2.233l-15.327,-15.327l-61.85,0l-15.327,15.327l-2.233,-2.233l16.252,-16.252l64.466,0l16.252,16.252Z" style="fill:#717171;"/><path d="M842.759,433.158l-17.097,0l-16.715,-16.714l0,-32.233l3.158,0l0,30.924l14.865,14.865l14.481,0l14.865,-14.865l0,-30.924l3.158,0l0,32.233l-16.715,16.714Z" style="fill:#717171;"/><path d="M890.128,433.158l-17.098,0l-16.714,-16.714l0,-32.233l3.158,0l0,30.924l14.864,14.865l14.482,0l14.864,-14.865l0,-30.924l3.158,0l0,32.233l-16.714,16.714Z" style="fill:#717171;"/><rect x="824.737" y="400" width="3.158" height="15.789" style="fill:#717171;"/><rect x="840.526" y="401.579" width="3.158" height="14.211" style="fill:#717171;"/><rect x="872.105" y="400" width="3.158" height="15.789" style="fill:#717171;"/><rect x="887.895" y="400" width="3.158" height="15.789" style="fill:#717171;"/></g><path d="M1173.68,115.789l-221.052,0l-15.79,-15.789l-63.158,0l-15.789,15.789l-157.895,0l-31.579,31.579l0,126.316l63.158,63.158l252.632,0l0,31.579l94.736,94.737l142.106,0l31.579,-31.579l0,-236.842l-78.948,-78.948Z" style="fill:#757575;"/><clipPath id="_clip8"><path d="M1173.68,115.789l-221.052,0l-15.79,-15.789l-63.158,0l-15.789,15.789l-157.895,0l-31.579,31.579l0,126.316l63.158,63.158l252.632,0l0,31.579l94.736,94.737l142.106,0l31.579,-31.579l0,-236.842l-78.948,-78.948Z"/></clipPath><g clip-path="url(#_clip8)"><g><g><path d="M1333.16,67.767l0,17.098l-15.79,15.789l0,14.481l15.79,15.79l0,17.097l-15.79,15.79l0,16.714l-3.158,0l0,-18.022l15.79,-15.79l0,-14.481l-15.79,-15.79l0,-17.097l15.79,-15.789l0,-14.482l-16.444,-16.443l2.233,-2.233l17.369,17.368Z" style="fill:#717171;"/><path d="M1333.16,194.083l0,17.097l-15.79,15.79l0,14.481l15.79,15.79l0,17.097l-15.79,15.79l0,16.714l-3.158,0l0,-18.022l15.79,-15.79l0,-14.481l-15.79,-15.79l0,-17.097l15.79,-15.79l0,-14.481l-16.444,-16.444l2.233,-2.233l17.369,17.369Z" style="fill:#717171;"/><path d="M1333.16,320.399l0,17.097l-15.79,15.79l0,14.481l15.79,15.789l0,17.098l-15.79,15.79l0,16.714l-3.158,0l0,-18.023l15.79,-15.789l0,-14.481l-15.79,-15.79l0,-17.097l15.79,-15.79l0,-14.481l-16.444,-16.444l2.233,-2.233l17.369,17.369Z" style="fill:#717171;"/><path d="M1333.16,446.714l0,17.098l-15.79,15.789l0,14.482l15.79,15.789l0,17.098l-15.79,15.789l0,16.715l-3.158,0l0,-18.023l15.79,-15.789l0,-14.482l-15.79,-15.789l0,-17.098l15.79,-15.789l0,-14.482l-16.444,-16.443l2.233,-2.233l17.369,17.368Z" style="fill:#717171;"/><path d="M1301.58,67.767l0,17.098l-15.79,15.789l0,14.481l15.79,15.79l0,17.097l-15.79,15.79l0,16.714l-3.157,0l0,-18.022l15.789,-15.79l0,-14.481l-15.789,-15.79l0,-17.097l15.789,-15.789l0,-14.482l-16.443,-16.443l2.232,-2.233l17.369,17.368Z" style="fill:#717171;"/><path d="M1301.58,194.083l0,17.097l-15.79,15.79l0,14.481l15.79,15.79l0,17.097l-15.79,15.79l0,16.714l-3.157,0l0,-18.022l15.789,-15.79l0,-14.481l-15.789,-15.79l0,-17.097l15.789,-15.79l0,-14.481l-16.443,-16.444l2.232,-2.233l17.369,17.369Z" style="fill:#717171;"/><path d="M1301.58,320.399l0,17.097l-15.79,15.79l0,14.481l15.79,15.789l0,17.098l-15.79,15.79l0,16.714l-3.157,0l0,-18.023l15.789,-15.789l0,-14.481l-15.789,-15.79l0,-17.097l15.789,-15.79l0,-14.481l-16.443,-16.444l2.232,-2.233l17.369,17.369Z" style="fill:#717171;"/><path d="M1301.58,446.714l0,17.098l-15.79,15.789l0,14.482l15.79,15.789l0,17.098l-15.79,15.789l0,16.715l-3.157,0l0,-18.023l15.789,-15.789l0,-14.482l-15.789,-15.789l0,-17.098l15.789,-15.789l0,-14.482l-16.443,-16.443l2.232,-2.233l17.369,17.368Z" style="fill:#717171;"/><path d="M1270,67.767l0,17.098l-15.79,15.789l0,14.481l15.79,15.79l0,17.097l-15.79,15.79l0,16.714l-3.157,0l0,-18.022l15.789,-15.79l0,-14.481l-15.789,-15.79l0,-17.097l15.789,-15.789l0,-14.482l-16.443,-16.443l2.233,-2.233l17.368,17.368Z" style="fill:#717171;"/><path d="M1270,194.083l0,17.097l-15.79,15.79l0,14.481l15.79,15.79l0,17.097l-15.79,15.79l0,16.714l-3.157,0l0,-18.022l15.789,-15.79l0,-14.481l-15.789,-15.79l0,-17.097l15.789,-15.79l0,-14.481l-16.443,-16.444l2.233,-2.233l17.368,17.369Z" style="fill:#717171;"/><path d="M1270,320.399l0,17.097l-15.79,15.79l0,14.481l15.79,15.789l0,17.098l-15.79,15.79l0,16.714l-3.157,0l0,-18.023l15.789,-15.789l0,-14.481l-15.789,-15.79l0,-17.097l15.789,-15.79l0,-14.481l-16.443,-16.444l2.233,-2.233l17.368,17.369Z" style="fill:#717171;"/><path d="M1270,446.714l0,17.098l-15.79,15.789l0,14.482l15.79,15.789l0,17.098l-15.79,15.789l0,16.715l-3.157,0l0,-18.023l15.789,-15.789l0,-14.482l-15.789,-15.789l0,-17.098l15.789,-15.789l0,-14.482l-16.443,-16.443l2.233,-2.233l17.368,17.368Z" style="fill:#717171;"/><path d="M1238.42,67.767l0,17.098l-15.789,15.789l0,14.481l15.789,15.79l0,17.097l-15.789,15.79l0,16.714l-3.158,0l0,-18.022l15.789,-15.79l0,-14.481l-15.789,-15.79l0,-17.097l15.789,-15.789l0,-14.482l-16.443,-16.443l2.233,-2.233l17.368,17.368Z" style="fill:#717171;"/><path d="M1238.42,194.083l0,17.097l-15.789,15.79l0,14.481l15.789,15.79l0,17.097l-15.789,15.79l0,16.714l-3.158,0l0,-18.022l15.789,-15.79l0,-14.481l-15.789,-15.79l0,-17.097l15.789,-15.79l0,-14.481l-16.443,-16.444l2.233,-2.233l17.368,17.369Z" style="fill:#717171;"/><path d="M1238.42,320.399l0,17.097l-15.789,15.79l0,14.481l15.789,15.789l0,17.098l-15.789,15.79l0,16.714l-3.158,0l0,-18.023l15.789,-15.789l0,-14.481l-15.789,-15.79l0,-17.097l15.789,-15.79l0,-14.481l-16.443,-16.444l2.233,-2.233l17.368,17.369Z" style="fill:#717171;"/><path d="M1238.42,446.714l0,17.098l-15.789,15.789l0,14.482l15.789,15.789l0,17.098l-15.789,15.789l0,16.715l-3.158,0l0,-18.023l15.789,-15.789l0,-14.482l-15.789,-15.789l0,-17.098l15.789,-15.789l0,-14.482l-16.443,-16.443l2.233,-2.233l17.368,17.368Z" style="fill:#717171;"/><path d="M1206.84,67.767l0,17.098l-15.789,15.789l0,14.481l15.789,15.79l0,17.097l-15.789,15.79l0,16.714l-3.158,0l0,-18.022l15.789,-15.79l0,-14.481l-15.789,-15.79l0,-17.097l15.789,-15.789l0,-14.482l-16.443,-16.443l2.233,-2.233l17.368,17.368Z" style="fill:#717171;"/><path d="M1206.84,194.083l0,17.097l-15.789,15.79l0,14.481l15.789,15.79l0,17.097l-15.789,15.79l0,16.714l-3.158,0l0,-18.022l15.789,-15.79l0,-14.481l-15.789,-15.79l0,-17.097l15.789,-15.79l0,-14.481l-16.443,-16.444l2.233,-2.233l17.368,17.369Z" style="fill:#717171;"/><path d="M1206.84,320.399l0,17.097l-15.789,15.79l0,14.481l15.789,15.789l0,17.098l-15.789,15.79l0,16.714l-3.158,0l0,-18.023l15.789,-15.789l0,-14.481l-15.789,-15.79l0,-17.097l15.789,-15.79l0,-14.481l-16.443,-16.444l2.233,-2.233l17.368,17.369Z" style="fill:#717171;"/><path d="M1206.84,446.714l0,17.098l-15.789,15.789l0,14.482l15.789,15.789l0,17.098l-15.789,15.789l0,16.715l-3.158,0l0,-18.023l15.789,-15.789l0,-14.482l-15.789,-15.789l0,-17.098l15.789,-15.789l0,-14.482l-16.443,-16.443l2.233,-2.233l17.368,17.368Z" style="fill:#717171;"/><path d="M1175.26,67.767l0,17.098l-15.789,15.789l0,14.481l15.789,15.79l0,17.097l-15.789,15.79l0,16.714l-3.158,0l0,-18.022l15.789,-15.79l0,-14.481l-15.789,-15.79l0,-17.097l15.789,-15.789l0,-14.482l-16.443,-16.443l2.233,-2.233l17.368,17.368Z" style="fill:#717171;"/><path d="M1175.26,194.083l0,17.097l-15.789,15.79l0,14.481l15.789,15.79l0,17.097l-15.789,15.79l0,16.714l-3.158,0l0,-18.022l15.789,-15.79l0,-14.481l-15.789,-15.79l0,-17.097l15.789,-15.79l0,-14.481l-16.443,-16.444l2.233,-2.233l17.368,17.369Z" style="fill:#717171;"/><path d="M1175.26,320.399l0,17.097l-15.789,15.79l0,14.481l15.789,15.789l0,17.098l-15.789,15.79l0,16.714l-3.158,0l0,-18.023l15.789,-15.789l0,-14.481l-15.789,-15.79l0,-17.097l15.789,-15.79l0,-14.481l-16.443,-16.444l2.233,-2.233l17.368,17.369Z" style="fill:#717171;"/><path d="M1175.26,446.714l0,17.098l-15.789,15.789l0,14.482l15.789,15.789l0,17.098l-15.789,15.789l0,16.715l-3.158,0l0,-18.023l15.789,-15.789l0,-14.482l-15.789,-15.789l0,-17.098l15.789,-15.789l0,-14.482l-16.443,-16.443l2.233,-2.233l17.368,17.368Z" style="fill:#717171;"/><path d="M1143.68,67.767l0,17.098l-15.789,15.789l0,14.481l15.789,15.79l0,17.097l-15.789,15.79l0,16.714l-3.158,0l0,-18.022l15.789,-15.79l0,-14.481l-15.789,-15.79l0,-17.097l15.789,-15.789l0,-14.482l-16.443,-16.443l2.233,-2.233l17.368,17.368Z" style="fill:#717171;"/><path d="M1143.68,194.083l0,17.097l-15.789,15.79l0,14.481l15.789,15.79l0,17.097l-15.789,15.79l0,16.714l-3.158,0l0,-18.022l15.789,-15.79l0,-14.481l-15.789,-15.79l0,-17.097l15.789,-15.79l0,-14.481l-16.443,-16.444l2.233,-2.233l17.368,17.369Z" style="fill:#717171;"/><path d="M1143.68,320.399l0,17.097l-15.789,15.79l0,14.481l15.789,15.789l0,17.098l-15.789,15.79l0,16.714l-3.158,0l0,-18.023l15.789,-15.789l0,-14.481l-15.789,-15.79l0,-17.097l15.789,-15.79l0,-14.481l-16.443,-16.444l2.233,-2.233l17.368,17.369Z" style="fill:#717171;"/><path d="M1143.68,446.714l0,17.098l-15.789,15.789l0,14.482l15.789,15.789l0,17.098l-15.789,15.789l0,16.715l-3.158,0l0,-18.023l15.789,-15.789l0,-14.482l-15.789,-15.789l0,-17.098l15.789,-15.789l0,-14.482l-16.443,-16.443l2.233,-2.233l17.368,17.368Z" style="fill:#717171;"/><path d="M1112.11,67.767l0,17.098l-15.789,15.789l0,14.481l15.789,15.79l0,17.097l-15.789,15.79l0,16.714l-3.158,0l0,-18.022l15.789,-15.79l0,-14.481l-15.789,-15.79l0,-17.097l15.789,-15.789l0,-14.482l-16.443,-16.443l2.233,-2.233l17.368,17.368Z" style="fill:#717171;"/><path d="M1112.11,194.083l0,17.097l-15.789,15.79l0,14.481l15.789,15.79l0,17.097l-15.789,15.79l0,16.714l-3.158,0l0,-18.022l15.789,-15.79l0,-14.481l-15.789,-15.79l0,-17.097l15.789,-15.79l0,-14.481l-16.443,-16.444l2.233,-2.233l17.368,17.369Z" style="fill:#717171;"/><path d="M1112.11,320.399l0,17.097l-15.789,15.79l0,14.481l15.789,15.789l0,17.098l-15.789,15.79l0,16.714l-3.158,0l0,-18.023l15.789,-15.789l0,-14.481l-15.789,-15.79l0,-17.097l15.789,-15.79l0,-14.481l-16.443,-16.444l2.233,-2.233l17.368,17.369Z" style="fill:#717171;"/><path d="M1112.11,446.714l0,17.098l-15.789,15.789l0,14.482l15.789,15.789l0,17.098l-15.789,15.789l0,16.715l-3.158,0l0,-18.023l15.789,-15.789l0,-14.482l-15.789,-15.789l0,-17.098l15.789,-15.789l0,-14.482l-16.443,-16.443l2.233,-2.233l17.368,17.368Z" style="fill:#717171;"/><path d="M1317.37,36.188l0,17.098l-15.789,15.789l0,14.482l15.789,15.789l0,17.097l-15.789,15.79l0,16.714l-3.158,0l0,-18.022l15.789,-15.79l0,-14.481l-15.789,-15.789l0,-17.098l15.789,-15.789l0,-14.482l-16.443,-16.443l2.233,-2.233l17.368,17.368Z" style="fill:#717171;"/><path d="M1317.37,162.504l0,17.097l-15.789,15.79l0,14.481l15.789,15.79l0,17.097l-15.789,15.79l0,16.714l-3.158,0l0,-18.022l15.789,-15.79l0,-14.481l-15.789,-15.79l0,-17.097l15.789,-15.79l0,-14.481l-16.443,-16.444l2.233,-2.233l17.368,17.369Z" style="fill:#717171;"/><path d="M1317.37,288.82l0,17.097l-15.789,15.79l0,14.481l15.789,15.79l0,17.097l-15.789,15.79l0,16.714l-3.158,0l0,-18.023l15.789,-15.789l0,-14.481l-15.789,-15.79l0,-17.097l15.789,-15.79l0,-14.481l-16.443,-16.444l2.233,-2.233l17.368,17.369Z" style="fill:#717171;"/><path d="M1317.37,415.135l0,17.098l-15.789,15.789l0,14.482l15.789,15.789l0,17.098l-15.789,15.789l0,16.715l-3.158,0l0,-18.023l15.789,-15.789l0,-14.482l-15.789,-15.789l0,-17.098l15.789,-15.789l0,-14.481l-16.443,-16.444l2.233,-2.233l17.368,17.368Z" style="fill:#717171;"/><path d="M1285.79,36.188l0,17.098l-15.789,15.789l0,14.482l15.789,15.789l0,17.097l-15.789,15.79l0,16.714l-3.158,0l0,-18.022l15.79,-15.79l0,-14.481l-15.79,-15.789l0,-17.098l15.79,-15.789l0,-14.482l-16.444,-16.443l2.233,-2.233l17.368,17.368Z" style="fill:#717171;"/><path d="M1285.79,162.504l0,17.097l-15.789,15.79l0,14.481l15.789,15.79l0,17.097l-15.789,15.79l0,16.714l-3.158,0l0,-18.022l15.79,-15.79l0,-14.481l-15.79,-15.79l0,-17.097l15.79,-15.79l0,-14.481l-16.444,-16.444l2.233,-2.233l17.368,17.369Z" style="fill:#717171;"/><path d="M1285.79,288.82l0,17.097l-15.789,15.79l0,14.481l15.789,15.79l0,17.097l-15.789,15.79l0,16.714l-3.158,0l0,-18.023l15.79,-15.789l0,-14.481l-15.79,-15.79l0,-17.097l15.79,-15.79l0,-14.481l-16.444,-16.444l2.233,-2.233l17.368,17.369Z" style="fill:#717171;"/><path d="M1285.79,415.135l0,17.098l-15.789,15.789l0,14.482l15.789,15.789l0,17.098l-15.789,15.789l0,16.715l-3.158,0l0,-18.023l15.79,-15.789l0,-14.482l-15.79,-15.789l0,-17.098l15.79,-15.789l0,-14.481l-16.444,-16.444l2.233,-2.233l17.368,17.368Z" style="fill:#717171;"/><path d="M1254.21,36.188l0,17.098l-15.789,15.789l0,14.482l15.789,15.789l0,17.097l-15.789,15.79l0,16.714l-3.158,0l0,-18.022l15.79,-15.79l0,-14.481l-15.79,-15.789l0,-17.098l15.79,-15.789l0,-14.482l-16.444,-16.443l2.233,-2.233l17.368,17.368Z" style="fill:#717171;"/><path d="M1254.21,162.504l0,17.097l-15.789,15.79l0,14.481l15.789,15.79l0,17.097l-15.789,15.79l0,16.714l-3.158,0l0,-18.022l15.79,-15.79l0,-14.481l-15.79,-15.79l0,-17.097l15.79,-15.79l0,-14.481l-16.444,-16.444l2.233,-2.233l17.368,17.369Z" style="fill:#717171;"/><path d="M1254.21,288.82l0,17.097l-15.789,15.79l0,14.481l15.789,15.79l0,17.097l-15.789,15.79l0,16.714l-3.158,0l0,-18.023l15.79,-15.789l0,-14.481l-15.79,-15.79l0,-17.097l15.79,-15.79l0,-14.481l-16.444,-16.444l2.233,-2.233l17.368,17.369Z" style="fill:#717171;"/><path d="M1254.21,415.135l0,17.098l-15.789,15.789l0,14.482l15.789,15.789l0,17.098l-15.789,15.789l0,16.715l-3.158,0l0,-18.023l15.79,-15.789l0,-14.482l-15.79,-15.789l0,-17.098l15.79,-15.789l0,-14.481l-16.444,-16.444l2.233,-2.233l17.368,17.368Z" style="fill:#717171;"/><path d="M1222.63,36.188l0,17.098l-15.79,15.789l0,14.482l15.79,15.789l0,17.097l-15.79,15.79l0,16.714l-3.158,0l0,-18.022l15.79,-15.79l0,-14.481l-15.79,-15.789l0,-17.098l15.79,-15.789l0,-14.482l-16.444,-16.443l2.233,-2.233l17.369,17.368Z" style="fill:#717171;"/><path d="M1222.63,162.504l0,17.097l-15.79,15.79l0,14.481l15.79,15.79l0,17.097l-15.79,15.79l0,16.714l-3.158,0l0,-18.022l15.79,-15.79l0,-14.481l-15.79,-15.79l0,-17.097l15.79,-15.79l0,-14.481l-16.444,-16.444l2.233,-2.233l17.369,17.369Z" style="fill:#717171;"/><path d="M1222.63,288.82l0,17.097l-15.79,15.79l0,14.481l15.79,15.79l0,17.097l-15.79,15.79l0,16.714l-3.158,0l0,-18.023l15.79,-15.789l0,-14.481l-15.79,-15.79l0,-17.097l15.79,-15.79l0,-14.481l-16.444,-16.444l2.233,-2.233l17.369,17.369Z" style="fill:#717171;"/><path d="M1222.63,415.135l0,17.098l-15.79,15.789l0,14.482l15.79,15.789l0,17.098l-15.79,15.789l0,16.715l-3.158,0l0,-18.023l15.79,-15.789l0,-14.482l-15.79,-15.789l0,-17.098l15.79,-15.789l0,-14.481l-16.444,-16.444l2.233,-2.233l17.369,17.368Z" style="fill:#717171;"/><path d="M1191.05,36.188l0,17.098l-15.79,15.789l0,14.482l15.79,15.789l0,17.097l-15.79,15.79l0,16.714l-3.158,0l0,-18.022l15.79,-15.79l0,-14.481l-15.79,-15.789l0,-17.098l15.79,-15.789l0,-14.482l-16.444,-16.443l2.233,-2.233l17.369,17.368Z" style="fill:#717171;"/><path d="M1191.05,162.504l0,17.097l-15.79,15.79l0,14.481l15.79,15.79l0,17.097l-15.79,15.79l0,16.714l-3.158,0l0,-18.022l15.79,-15.79l0,-14.481l-15.79,-15.79l0,-17.097l15.79,-15.79l0,-14.481l-16.444,-16.444l2.233,-2.233l17.369,17.369Z" style="fill:#717171;"/><path d="M1191.05,288.82l0,17.097l-15.79,15.79l0,14.481l15.79,15.79l0,17.097l-15.79,15.79l0,16.714l-3.158,0l0,-18.023l15.79,-15.789l0,-14.481l-15.79,-15.79l0,-17.097l15.79,-15.79l0,-14.481l-16.444,-16.444l2.233,-2.233l17.369,17.369Z" style="fill:#717171;"/><path d="M1191.05,415.135l0,17.098l-15.79,15.789l0,14.482l15.79,15.789l0,17.098l-15.79,15.789l0,16.715l-3.158,0l0,-18.023l15.79,-15.789l0,-14.482l-15.79,-15.789l0,-17.098l15.79,-15.789l0,-14.481l-16.444,-16.444l2.233,-2.233l17.369,17.368Z" style="fill:#717171;"/><path d="M1159.47,36.188l0,17.098l-15.79,15.789l0,14.482l15.79,15.789l0,17.097l-15.79,15.79l0,16.714l-3.158,0l0,-18.022l15.79,-15.79l0,-14.481l-15.79,-15.789l0,-17.098l15.79,-15.789l0,-14.482l-16.444,-16.443l2.233,-2.233l17.369,17.368Z" style="fill:#717171;"/><path d="M1159.47,162.504l0,17.097l-15.79,15.79l0,14.481l15.79,15.79l0,17.097l-15.79,15.79l0,16.714l-3.158,0l0,-18.022l15.79,-15.79l0,-14.481l-15.79,-15.79l0,-17.097l15.79,-15.79l0,-14.481l-16.444,-16.444l2.233,-2.233l17.369,17.369Z" style="fill:#717171;"/><path d="M1159.47,288.82l0,17.097l-15.79,15.79l0,14.481l15.79,15.79l0,17.097l-15.79,15.79l0,16.714l-3.158,0l0,-18.023l15.79,-15.789l0,-14.481l-15.79,-15.79l0,-17.097l15.79,-15.79l0,-14.481l-16.444,-16.444l2.233,-2.233l17.369,17.369Z" style="fill:#717171;"/><path d="M1159.47,415.135l0,17.098l-15.79,15.789l0,14.482l15.79,15.789l0,17.098l-15.79,15.789l0,16.715l-3.158,0l0,-18.023l15.79,-15.789l0,-14.482l-15.79,-15.789l0,-17.098l15.79,-15.789l0,-14.481l-16.444,-16.444l2.233,-2.233l17.369,17.368Z" style="fill:#717171;"/><path d="M1127.89,36.188l0,17.098l-15.79,15.789l0,14.482l15.79,15.789l0,17.097l-15.79,15.79l0,16.714l-3.158,0l0,-18.022l15.79,-15.79l0,-14.481l-15.79,-15.789l0,-17.098l15.79,-15.789l0,-14.482l-16.444,-16.443l2.233,-2.233l17.369,17.368Z" style="fill:#717171;"/><path d="M1127.89,162.504l0,17.097l-15.79,15.79l0,14.481l15.79,15.79l0,17.097l-15.79,15.79l0,16.714l-3.158,0l0,-18.022l15.79,-15.79l0,-14.481l-15.79,-15.79l0,-17.097l15.79,-15.79l0,-14.481l-16.444,-16.444l2.233,-2.233l17.369,17.369Z" style="fill:#717171;"/><path d="M1127.89,288.82l0,17.097l-15.79,15.79l0,14.481l15.79,15.79l0,17.097l-15.79,15.79l0,16.714l-3.158,0l0,-18.023l15.79,-15.789l0,-14.481l-15.79,-15.79l0,-17.097l15.79,-15.79l0,-14.481l-16.444,-16.444l2.233,-2.233l17.369,17.369Z" style="fill:#717171;"/><path d="M1127.89,415.135l0,17.098l-15.79,15.789l0,14.482l15.79,15.789l0,17.098l-15.79,15.789l0,16.715l-3.158,0l0,-18.023l15.79,-15.789l0,-14.482l-15.79,-15.789l0,-17.098l15.79,-15.789l0,-14.481l-16.444,-16.444l2.233,-2.233l17.369,17.368Z" style="fill:#717171;"/><path d="M1096.32,36.188l0,17.098l-15.79,15.789l0,14.482l15.79,15.789l0,17.097l-15.79,15.79l0,16.714l-3.158,0l0,-18.022l15.79,-15.79l0,-14.481l-15.79,-15.789l0,-17.098l15.79,-15.789l0,-14.482l-16.444,-16.443l2.233,-2.233l17.369,17.368Z" style="fill:#717171;"/><path d="M1096.32,162.504l0,17.097l-15.79,15.79l0,14.481l15.79,15.79l0,17.097l-15.79,15.79l0,16.714l-3.158,0l0,-18.022l15.79,-15.79l0,-14.481l-15.79,-15.79l0,-17.097l15.79,-15.79l0,-14.481l-16.444,-16.444l2.233,-2.233l17.369,17.369Z" style="fill:#717171;"/><path d="M1096.32,288.82l0,17.097l-15.79,15.79l0,14.481l15.79,15.79l0,17.097l-15.79,15.79l0,16.714l-3.158,0l0,-18.023l15.79,-15.789l0,-14.481l-15.79,-15.79l0,-17.097l15.79,-15.79l0,-14.481l-16.444,-16.444l2.233,-2.233l17.369,17.369Z" style="fill:#717171;"/><path d="M1096.32,415.135l0,17.098l-15.79,15.789l0,14.482l15.79,15.789l0,17.098l-15.79,15.789l0,16.715l-3.158,0l0,-18.023l15.79,-15.789l0,-14.482l-15.79,-15.789l0,-17.098l15.79,-15.789l0,-14.481l-16.444,-16.444l2.233,-2.233l17.369,17.368Z" style="fill:#717171;"/></g><g><path d="M1080.53,67.767l0,17.098l-15.789,15.789l0,14.481l15.789,15.79l0,17.097l-15.789,15.79l0,16.714l-3.158,0l0,-18.022l15.789,-15.79l0,-14.481l-15.789,-15.79l0,-17.097l15.789,-15.789l0,-14.482l-16.443,-16.443l2.233,-2.233l17.368,17.368Z" style="fill:#717171;"/><path d="M1080.53,194.083l0,17.097l-15.789,15.79l0,14.481l15.789,15.79l0,17.097l-15.789,15.79l0,16.714l-3.158,0l0,-18.022l15.789,-15.79l0,-14.481l-15.789,-15.79l0,-17.097l15.789,-15.79l0,-14.481l-16.443,-16.444l2.233,-2.233l17.368,17.369Z" style="fill:#717171;"/><path d="M1080.53,320.399l0,17.097l-15.789,15.79l0,14.481l15.789,15.789l0,17.098l-15.789,15.79l0,16.714l-3.158,0l0,-18.023l15.789,-15.789l0,-14.481l-15.789,-15.79l0,-17.097l15.789,-15.79l0,-14.481l-16.443,-16.444l2.233,-2.233l17.368,17.369Z" style="fill:#717171;"/><path d="M1080.53,446.714l0,17.098l-15.789,15.789l0,14.482l15.789,15.789l0,17.098l-15.789,15.789l0,16.715l-3.158,0l0,-18.023l15.789,-15.789l0,-14.482l-15.789,-15.789l0,-17.098l15.789,-15.789l0,-14.482l-16.443,-16.443l2.233,-2.233l17.368,17.368Z" style="fill:#717171;"/><path d="M1048.95,67.767l0,17.098l-15.789,15.789l0,14.481l15.789,15.79l0,17.097l-15.789,15.79l0,16.714l-3.158,0l0,-18.022l15.789,-15.79l0,-14.481l-15.789,-15.79l0,-17.097l15.789,-15.789l0,-14.482l-16.443,-16.443l2.233,-2.233l17.368,17.368Z" style="fill:#717171;"/><path d="M1048.95,194.083l0,17.097l-15.789,15.79l0,14.481l15.789,15.79l0,17.097l-15.789,15.79l0,16.714l-3.158,0l0,-18.022l15.789,-15.79l0,-14.481l-15.789,-15.79l0,-17.097l15.789,-15.79l0,-14.481l-16.443,-16.444l2.233,-2.233l17.368,17.369Z" style="fill:#717171;"/><path d="M1048.95,320.399l0,17.097l-15.789,15.79l0,14.481l15.789,15.789l0,17.098l-15.789,15.79l0,16.714l-3.158,0l0,-18.023l15.789,-15.789l0,-14.481l-15.789,-15.79l0,-17.097l15.789,-15.79l0,-14.481l-16.443,-16.444l2.233,-2.233l17.368,17.369Z" style="fill:#717171;"/><path d="M1048.95,446.714l0,17.098l-15.789,15.789l0,14.482l15.789,15.789l0,17.098l-15.789,15.789l0,16.715l-3.158,0l0,-18.023l15.789,-15.789l0,-14.482l-15.789,-15.789l0,-17.098l15.789,-15.789l0,-14.482l-16.443,-16.443l2.233,-2.233l17.368,17.368Z" style="fill:#717171;"/><path d="M1017.37,67.767l0,17.098l-15.789,15.789l0,14.481l15.789,15.79l0,17.097l-15.789,15.79l0,16.714l-3.158,0l0,-18.022l15.789,-15.79l0,-14.481l-15.789,-15.79l0,-17.097l15.789,-15.789l0,-14.482l-16.443,-16.443l2.233,-2.233l17.368,17.368Z" style="fill:#717171;"/><path d="M1017.37,194.083l0,17.097l-15.789,15.79l0,14.481l15.789,15.79l0,17.097l-15.789,15.79l0,16.714l-3.158,0l0,-18.022l15.789,-15.79l0,-14.481l-15.789,-15.79l0,-17.097l15.789,-15.79l0,-14.481l-16.443,-16.444l2.233,-2.233l17.368,17.369Z" style="fill:#717171;"/><path d="M1017.37,320.399l0,17.097l-15.789,15.79l0,14.481l15.789,15.789l0,17.098l-15.789,15.79l0,16.714l-3.158,0l0,-18.023l15.789,-15.789l0,-14.481l-15.789,-15.79l0,-17.097l15.789,-15.79l0,-14.481l-16.443,-16.444l2.233,-2.233l17.368,17.369Z" style="fill:#717171;"/><path d="M1017.37,446.714l0,17.098l-15.789,15.789l0,14.482l15.789,15.789l0,17.098l-15.789,15.789l0,16.715l-3.158,0l0,-18.023l15.789,-15.789l0,-14.482l-15.789,-15.789l0,-17.098l15.789,-15.789l0,-14.482l-16.443,-16.443l2.233,-2.233l17.368,17.368Z" style="fill:#717171;"/><path d="M985.789,67.767l0,17.098l-15.789,15.789l0,14.481l15.789,15.79l0,17.097l-15.789,15.79l0,16.714l-3.158,0l0,-18.022l15.79,-15.79l0,-14.481l-15.79,-15.79l0,-17.097l15.79,-15.789l0,-14.482l-16.444,-16.443l2.233,-2.233l17.368,17.368Z" style="fill:#717171;"/><path d="M985.789,194.083l0,17.097l-15.789,15.79l0,14.481l15.789,15.79l0,17.097l-15.789,15.79l0,16.714l-3.158,0l0,-18.022l15.79,-15.79l0,-14.481l-15.79,-15.79l0,-17.097l15.79,-15.79l0,-14.481l-16.444,-16.444l2.233,-2.233l17.368,17.369Z" style="fill:#717171;"/><path d="M985.789,320.399l0,17.097l-15.789,15.79l0,14.481l15.789,15.789l0,17.098l-15.789,15.79l0,16.714l-3.158,0l0,-18.023l15.79,-15.789l0,-14.481l-15.79,-15.79l0,-17.097l15.79,-15.79l0,-14.481l-16.444,-16.444l2.233,-2.233l17.368,17.369Z" style="fill:#717171;"/><path d="M985.789,446.714l0,17.098l-15.789,15.789l0,14.482l15.789,15.789l0,17.098l-15.789,15.789l0,16.715l-3.158,0l0,-18.023l15.79,-15.789l0,-14.482l-15.79,-15.789l0,-17.098l15.79,-15.789l0,-14.482l-16.444,-16.443l2.233,-2.233l17.368,17.368Z" style="fill:#717171;"/><path d="M954.21,67.767l0,17.098l-15.789,15.789l0,14.481l15.789,15.79l0,17.097l-15.789,15.79l0,16.714l-3.158,0l0,-18.022l15.79,-15.79l0,-14.481l-15.79,-15.79l0,-17.097l15.79,-15.789l0,-14.482l-16.444,-16.443l2.233,-2.233l17.368,17.368Z" style="fill:#717171;"/><path d="M954.21,194.083l0,17.097l-15.789,15.79l0,14.481l15.789,15.79l0,17.097l-15.789,15.79l0,16.714l-3.158,0l0,-18.022l15.79,-15.79l0,-14.481l-15.79,-15.79l0,-17.097l15.79,-15.79l0,-14.481l-16.444,-16.444l2.233,-2.233l17.368,17.369Z" style="fill:#717171;"/><path d="M954.21,320.399l0,17.097l-15.789,15.79l0,14.481l15.789,15.789l0,17.098l-15.789,15.79l0,16.714l-3.158,0l0,-18.023l15.79,-15.789l0,-14.481l-15.79,-15.79l0,-17.097l15.79,-15.79l0,-14.481l-16.444,-16.444l2.233,-2.233l17.368,17.369Z" style="fill:#717171;"/><path d="M954.21,446.714l0,17.098l-15.789,15.789l0,14.482l15.789,15.789l0,17.098l-15.789,15.789l0,16.715l-3.158,0l0,-18.023l15.79,-15.789l0,-14.482l-15.79,-15.789l0,-17.098l15.79,-15.789l0,-14.482l-16.444,-16.443l2.233,-2.233l17.368,17.368Z" style="fill:#717171;"/><path d="M922.632,67.767l0,17.098l-15.79,15.789l0,14.481l15.79,15.79l0,17.097l-15.79,15.79l0,16.714l-3.158,0l0,-18.022l15.79,-15.79l0,-14.481l-15.79,-15.79l0,-17.097l15.79,-15.789l0,-14.482l-16.444,-16.443l2.233,-2.233l17.369,17.368Z" style="fill:#717171;"/><path d="M922.632,194.083l0,17.097l-15.79,15.79l0,14.481l15.79,15.79l0,17.097l-15.79,15.79l0,16.714l-3.158,0l0,-18.022l15.79,-15.79l0,-14.481l-15.79,-15.79l0,-17.097l15.79,-15.79l0,-14.481l-16.444,-16.444l2.233,-2.233l17.369,17.369Z" style="fill:#717171;"/><path d="M922.632,320.399l0,17.097l-15.79,15.79l0,14.481l15.79,15.789l0,17.098l-15.79,15.79l0,16.714l-3.158,0l0,-18.023l15.79,-15.789l0,-14.481l-15.79,-15.79l0,-17.097l15.79,-15.79l0,-14.481l-16.444,-16.444l2.233,-2.233l17.369,17.369Z" style="fill:#717171;"/><path d="M922.632,446.714l0,17.098l-15.79,15.789l0,14.482l15.79,15.789l0,17.098l-15.79,15.789l0,16.715l-3.158,0l0,-18.023l15.79,-15.789l0,-14.482l-15.79,-15.789l0,-17.098l15.79,-15.789l0,-14.482l-16.444,-16.443l2.233,-2.233l17.369,17.368Z" style="fill:#717171;"/><path d="M891.053,67.767l0,17.098l-15.79,15.789l0,14.481l15.79,15.79l0,17.097l-15.79,15.79l0,16.714l-3.158,0l0,-18.022l15.79,-15.79l0,-14.481l-15.79,-15.79l0,-17.097l15.79,-15.789l0,-14.482l-16.444,-16.443l2.233,-2.233l17.369,17.368Z" style="fill:#717171;"/><path d="M891.053,194.083l0,17.097l-15.79,15.79l0,14.481l15.79,15.79l0,17.097l-15.79,15.79l0,16.714l-3.158,0l0,-18.022l15.79,-15.79l0,-14.481l-15.79,-15.79l0,-17.097l15.79,-15.79l0,-14.481l-16.444,-16.444l2.233,-2.233l17.369,17.369Z" style="fill:#717171;"/><path d="M891.053,320.399l0,17.097l-15.79,15.79l0,14.481l15.79,15.789l0,17.098l-15.79,15.79l0,16.714l-3.158,0l0,-18.023l15.79,-15.789l0,-14.481l-15.79,-15.79l0,-17.097l15.79,-15.79l0,-14.481l-16.444,-16.444l2.233,-2.233l17.369,17.369Z" style="fill:#717171;"/><path d="M891.053,446.714l0,17.098l-15.79,15.789l0,14.482l15.79,15.789l0,17.098l-15.79,15.789l0,16.715l-3.158,0l0,-18.023l15.79,-15.789l0,-14.482l-15.79,-15.789l0,-17.098l15.79,-15.789l0,-14.482l-16.444,-16.443l2.233,-2.233l17.369,17.368Z" style="fill:#717171;"/><path d="M859.474,67.767l0,17.098l-15.79,15.789l0,14.481l15.79,15.79l0,17.097l-15.79,15.79l0,16.714l-3.158,0l0,-18.022l15.79,-15.79l0,-14.481l-15.79,-15.79l0,-17.097l15.79,-15.789l0,-14.482l-16.444,-16.443l2.233,-2.233l17.369,17.368Z" style="fill:#717171;"/><path d="M859.474,194.083l0,17.097l-15.79,15.79l0,14.481l15.79,15.79l0,17.097l-15.79,15.79l0,16.714l-3.158,0l0,-18.022l15.79,-15.79l0,-14.481l-15.79,-15.79l0,-17.097l15.79,-15.79l0,-14.481l-16.444,-16.444l2.233,-2.233l17.369,17.369Z" style="fill:#717171;"/><path d="M859.474,320.399l0,17.097l-15.79,15.79l0,14.481l15.79,15.789l0,17.098l-15.79,15.79l0,16.714l-3.158,0l0,-18.023l15.79,-15.789l0,-14.481l-15.79,-15.79l0,-17.097l15.79,-15.79l0,-14.481l-16.444,-16.444l2.233,-2.233l17.369,17.369Z" style="fill:#717171;"/><path d="M859.474,446.714l0,17.098l-15.79,15.789l0,14.482l15.79,15.789l0,17.098l-15.79,15.789l0,16.715l-3.158,0l0,-18.023l15.79,-15.789l0,-14.482l-15.79,-15.789l0,-17.098l15.79,-15.789l0,-14.482l-16.444,-16.443l2.233,-2.233l17.369,17.368Z" style="fill:#717171;"/><path d="M1064.74,36.188l0,17.098l-15.79,15.789l0,14.482l15.79,15.789l0,17.097l-15.79,15.79l0,16.714l-3.158,0l0,-18.022l15.79,-15.79l0,-14.481l-15.79,-15.789l0,-17.098l15.79,-15.789l0,-14.482l-16.444,-16.443l2.233,-2.233l17.369,17.368Z" style="fill:#717171;"/><path d="M1064.74,162.504l0,17.097l-15.79,15.79l0,14.481l15.79,15.79l0,17.097l-15.79,15.79l0,16.714l-3.158,0l0,-18.022l15.79,-15.79l0,-14.481l-15.79,-15.79l0,-17.097l15.79,-15.79l0,-14.481l-16.444,-16.444l2.233,-2.233l17.369,17.369Z" style="fill:#717171;"/><path d="M1064.74,288.82l0,17.097l-15.79,15.79l0,14.481l15.79,15.79l0,17.097l-15.79,15.79l0,16.714l-3.158,0l0,-18.023l15.79,-15.789l0,-14.481l-15.79,-15.79l0,-17.097l15.79,-15.79l0,-14.481l-16.444,-16.444l2.233,-2.233l17.369,17.369Z" style="fill:#717171;"/><path d="M1064.74,415.135l0,17.098l-15.79,15.789l0,14.482l15.79,15.789l0,17.098l-15.79,15.789l0,16.715l-3.158,0l0,-18.023l15.79,-15.789l0,-14.482l-15.79,-15.789l0,-17.098l15.79,-15.789l0,-14.481l-16.444,-16.444l2.233,-2.233l17.369,17.368Z" style="fill:#717171;"/><path d="M1033.16,36.188l0,17.098l-15.79,15.789l0,14.482l15.79,15.789l0,17.097l-15.79,15.79l0,16.714l-3.158,0l0,-18.022l15.79,-15.79l0,-14.481l-15.79,-15.789l0,-17.098l15.79,-15.789l0,-14.482l-16.444,-16.443l2.233,-2.233l17.369,17.368Z" style="fill:#717171;"/><path d="M1033.16,162.504l0,17.097l-15.79,15.79l0,14.481l15.79,15.79l0,17.097l-15.79,15.79l0,16.714l-3.158,0l0,-18.022l15.79,-15.79l0,-14.481l-15.79,-15.79l0,-17.097l15.79,-15.79l0,-14.481l-16.444,-16.444l2.233,-2.233l17.369,17.369Z" style="fill:#717171;"/><path d="M1033.16,288.82l0,17.097l-15.79,15.79l0,14.481l15.79,15.79l0,17.097l-15.79,15.79l0,16.714l-3.158,0l0,-18.023l15.79,-15.789l0,-14.481l-15.79,-15.79l0,-17.097l15.79,-15.79l0,-14.481l-16.444,-16.444l2.233,-2.233l17.369,17.369Z" style="fill:#717171;"/><path d="M1033.16,415.135l0,17.098l-15.79,15.789l0,14.482l15.79,15.789l0,17.098l-15.79,15.789l0,16.715l-3.158,0l0,-18.023l15.79,-15.789l0,-14.482l-15.79,-15.789l0,-17.098l15.79,-15.789l0,-14.481l-16.444,-16.444l2.233,-2.233l17.369,17.368Z" style="fill:#717171;"/><path d="M1001.58,36.188l0,17.098l-15.79,15.789l0,14.482l15.79,15.789l0,17.097l-15.79,15.79l0,16.714l-3.157,0l0,-18.022l15.789,-15.79l0,-14.481l-15.789,-15.789l0,-17.098l15.789,-15.789l0,-14.482l-16.443,-16.443l2.232,-2.233l17.369,17.368Z" style="fill:#717171;"/><path d="M1001.58,162.504l0,17.097l-15.79,15.79l0,14.481l15.79,15.79l0,17.097l-15.79,15.79l0,16.714l-3.157,0l0,-18.022l15.789,-15.79l0,-14.481l-15.789,-15.79l0,-17.097l15.789,-15.79l0,-14.481l-16.443,-16.444l2.232,-2.233l17.369,17.369Z" style="fill:#717171;"/><path d="M1001.58,288.82l0,17.097l-15.79,15.79l0,14.481l15.79,15.79l0,17.097l-15.79,15.79l0,16.714l-3.157,0l0,-18.023l15.789,-15.789l0,-14.481l-15.789,-15.79l0,-17.097l15.789,-15.79l0,-14.481l-16.443,-16.444l2.232,-2.233l17.369,17.369Z" style="fill:#717171;"/><path d="M1001.58,415.135l0,17.098l-15.79,15.789l0,14.482l15.79,15.789l0,17.098l-15.79,15.789l0,16.715l-3.157,0l0,-18.023l15.789,-15.789l0,-14.482l-15.789,-15.789l0,-17.098l15.789,-15.789l0,-14.481l-16.443,-16.444l2.232,-2.233l17.369,17.368Z" style="fill:#717171;"/><path d="M970,36.188l0,17.098l-15.79,15.789l0,14.482l15.79,15.789l0,17.097l-15.79,15.79l0,16.714l-3.157,0l0,-18.022l15.789,-15.79l0,-14.481l-15.789,-15.789l0,-17.098l15.789,-15.789l0,-14.482l-16.443,-16.443l2.233,-2.233l17.368,17.368Z" style="fill:#717171;"/><path d="M970,162.504l0,17.097l-15.79,15.79l0,14.481l15.79,15.79l0,17.097l-15.79,15.79l0,16.714l-3.157,0l0,-18.022l15.789,-15.79l0,-14.481l-15.789,-15.79l0,-17.097l15.789,-15.79l0,-14.481l-16.443,-16.444l2.233,-2.233l17.368,17.369Z" style="fill:#717171;"/><path d="M970,288.82l0,17.097l-15.79,15.79l0,14.481l15.79,15.79l0,17.097l-15.79,15.79l0,16.714l-3.157,0l0,-18.023l15.789,-15.789l0,-14.481l-15.789,-15.79l0,-17.097l15.789,-15.79l0,-14.481l-16.443,-16.444l2.233,-2.233l17.368,17.369Z" style="fill:#717171;"/><path d="M970,415.135l0,17.098l-15.79,15.789l0,14.482l15.79,15.789l0,17.098l-15.79,15.789l0,16.715l-3.157,0l0,-18.023l15.789,-15.789l0,-14.482l-15.789,-15.789l0,-17.098l15.789,-15.789l0,-14.481l-16.443,-16.444l2.233,-2.233l17.368,17.368Z" style="fill:#717171;"/><path d="M938.421,36.188l0,17.098l-15.789,15.789l0,14.482l15.789,15.789l0,17.097l-15.789,15.79l0,16.714l-3.158,0l0,-18.022l15.789,-15.79l0,-14.481l-15.789,-15.789l0,-17.098l15.789,-15.789l0,-14.482l-16.443,-16.443l2.233,-2.233l17.368,17.368Z" style="fill:#717171;"/><path d="M938.421,162.504l0,17.097l-15.789,15.79l0,14.481l15.789,15.79l0,17.097l-15.789,15.79l0,16.714l-3.158,0l0,-18.022l15.789,-15.79l0,-14.481l-15.789,-15.79l0,-17.097l15.789,-15.79l0,-14.481l-16.443,-16.444l2.233,-2.233l17.368,17.369Z" style="fill:#717171;"/><path d="M938.421,288.82l0,17.097l-15.789,15.79l0,14.481l15.789,15.79l0,17.097l-15.789,15.79l0,16.714l-3.158,0l0,-18.023l15.789,-15.789l0,-14.481l-15.789,-15.79l0,-17.097l15.789,-15.79l0,-14.481l-16.443,-16.444l2.233,-2.233l17.368,17.369Z" style="fill:#717171;"/><path d="M938.421,415.135l0,17.098l-15.789,15.789l0,14.482l15.789,15.789l0,17.098l-15.789,15.789l0,16.715l-3.158,0l0,-18.023l15.789,-15.789l0,-14.482l-15.789,-15.789l0,-17.098l15.789,-15.789l0,-14.481l-16.443,-16.444l2.233,-2.233l17.368,17.368Z" style="fill:#717171;"/><path d="M906.842,36.188l0,17.098l-15.789,15.789l0,14.482l15.789,15.789l0,17.097l-15.789,15.79l0,16.714l-3.158,0l0,-18.022l15.789,-15.79l0,-14.481l-15.789,-15.789l0,-17.098l15.789,-15.789l0,-14.482l-16.443,-16.443l2.233,-2.233l17.368,17.368Z" style="fill:#717171;"/><path d="M906.842,162.504l0,17.097l-15.789,15.79l0,14.481l15.789,15.79l0,17.097l-15.789,15.79l0,16.714l-3.158,0l0,-18.022l15.789,-15.79l0,-14.481l-15.789,-15.79l0,-17.097l15.789,-15.79l0,-14.481l-16.443,-16.444l2.233,-2.233l17.368,17.369Z" style="fill:#717171;"/><path d="M906.842,288.82l0,17.097l-15.789,15.79l0,14.481l15.789,15.79l0,17.097l-15.789,15.79l0,16.714l-3.158,0l0,-18.023l15.789,-15.789l0,-14.481l-15.789,-15.79l0,-17.097l15.789,-15.79l0,-14.481l-16.443,-16.444l2.233,-2.233l17.368,17.369Z" style="fill:#717171;"/><path d="M906.842,415.135l0,17.098l-15.789,15.789l0,14.482l15.789,15.789l0,17.098l-15.789,15.789l0,16.715l-3.158,0l0,-18.023l15.789,-15.789l0,-14.482l-15.789,-15.789l0,-17.098l15.789,-15.789l0,-14.481l-16.443,-16.444l2.233,-2.233l17.368,17.368Z" style="fill:#717171;"/><path d="M875.263,36.188l0,17.098l-15.789,15.789l0,14.482l15.789,15.789l0,17.097l-15.789,15.79l0,16.714l-3.158,0l0,-18.022l15.789,-15.79l0,-14.481l-15.789,-15.789l0,-17.098l15.789,-15.789l0,-14.482l-16.443,-16.443l2.233,-2.233l17.368,17.368Z" style="fill:#717171;"/><path d="M875.263,162.504l0,17.097l-15.789,15.79l0,14.481l15.789,15.79l0,17.097l-15.789,15.79l0,16.714l-3.158,0l0,-18.022l15.789,-15.79l0,-14.481l-15.789,-15.79l0,-17.097l15.789,-15.79l0,-14.481l-16.443,-16.444l2.233,-2.233l17.368,17.369Z" style="fill:#717171;"/><path d="M875.263,288.82l0,17.097l-15.789,15.79l0,14.481l15.789,15.79l0,17.097l-15.789,15.79l0,16.714l-3.158,0l0,-18.023l15.789,-15.789l0,-14.481l-15.789,-15.79l0,-17.097l15.789,-15.79l0,-14.481l-16.443,-16.444l2.233,-2.233l17.368,17.369Z" style="fill:#717171;"/><path d="M875.263,415.135l0,17.098l-15.789,15.789l0,14.482l15.789,15.789l0,17.098l-15.789,15.789l0,16.715l-3.158,0l0,-18.023l15.789,-15.789l0,-14.482l-15.789,-15.789l0,-17.098l15.789,-15.789l0,-14.481l-16.443,-16.444l2.233,-2.233l17.368,17.368Z" style="fill:#717171;"/><path d="M843.684,36.188l0,17.098l-15.789,15.789l0,14.482l15.789,15.789l0,17.097l-15.789,15.79l0,16.714l-3.158,0l0,-18.022l15.789,-15.79l0,-14.481l-15.789,-15.789l0,-17.098l15.789,-15.789l0,-14.482l-16.443,-16.443l2.233,-2.233l17.368,17.368Z" style="fill:#717171;"/><path d="M843.684,162.504l0,17.097l-15.789,15.79l0,14.481l15.789,15.79l0,17.097l-15.789,15.79l0,16.714l-3.158,0l0,-18.022l15.789,-15.79l0,-14.481l-15.789,-15.79l0,-17.097l15.789,-15.79l0,-14.481l-16.443,-16.444l2.233,-2.233l17.368,17.369Z" style="fill:#717171;"/><path d="M843.684,288.82l0,17.097l-15.789,15.79l0,14.481l15.789,15.79l0,17.097l-15.789,15.79l0,16.714l-3.158,0l0,-18.023l15.789,-15.789l0,-14.481l-15.789,-15.79l0,-17.097l15.789,-15.79l0,-14.481l-16.443,-16.444l2.233,-2.233l17.368,17.369Z" style="fill:#717171;"/><path d="M843.684,415.135l0,17.098l-15.789,15.789l0,14.482l15.789,15.789l0,17.098l-15.789,15.789l0,16.715l-3.158,0l0,-18.023l15.789,-15.789l0,-14.482l-15.789,-15.789l0,-17.098l15.789,-15.789l0,-14.481l-16.443,-16.444l2.233,-2.233l17.368,17.368Z" style="fill:#717171;"/></g><g><path d="M827.895,67.767l0,17.098l-15.79,15.789l0,14.481l15.79,15.79l0,17.097l-15.79,15.79l0,16.714l-3.158,0l0,-18.022l15.79,-15.79l0,-14.481l-15.79,-15.79l0,-17.097l15.79,-15.789l0,-14.482l-16.444,-16.443l2.233,-2.233l17.369,17.368Z" style="fill:#717171;"/><path d="M827.895,194.083l0,17.097l-15.79,15.79l0,14.481l15.79,15.79l0,17.097l-15.79,15.79l0,16.714l-3.158,0l0,-18.022l15.79,-15.79l0,-14.481l-15.79,-15.79l0,-17.097l15.79,-15.79l0,-14.481l-16.444,-16.444l2.233,-2.233l17.369,17.369Z" style="fill:#717171;"/><path d="M827.895,320.399l0,17.097l-15.79,15.79l0,14.481l15.79,15.789l0,17.098l-15.79,15.79l0,16.714l-3.158,0l0,-18.023l15.79,-15.789l0,-14.481l-15.79,-15.79l0,-17.097l15.79,-15.79l0,-14.481l-16.444,-16.444l2.233,-2.233l17.369,17.369Z" style="fill:#717171;"/><path d="M827.895,446.714l0,17.098l-15.79,15.789l0,14.482l15.79,15.789l0,17.098l-15.79,15.789l0,16.715l-3.158,0l0,-18.023l15.79,-15.789l0,-14.482l-15.79,-15.789l0,-17.098l15.79,-15.789l0,-14.482l-16.444,-16.443l2.233,-2.233l17.369,17.368Z" style="fill:#717171;"/><path d="M796.316,67.767l0,17.098l-15.79,15.789l0,14.481l15.79,15.79l0,17.097l-15.79,15.79l0,16.714l-3.158,0l0,-18.022l15.79,-15.79l0,-14.481l-15.79,-15.79l0,-17.097l15.79,-15.789l0,-14.482l-16.444,-16.443l2.233,-2.233l17.369,17.368Z" style="fill:#717171;"/><path d="M796.316,194.083l0,17.097l-15.79,15.79l0,14.481l15.79,15.79l0,17.097l-15.79,15.79l0,16.714l-3.158,0l0,-18.022l15.79,-15.79l0,-14.481l-15.79,-15.79l0,-17.097l15.79,-15.79l0,-14.481l-16.444,-16.444l2.233,-2.233l17.369,17.369Z" style="fill:#717171;"/><path d="M796.316,320.399l0,17.097l-15.79,15.79l0,14.481l15.79,15.789l0,17.098l-15.79,15.79l0,16.714l-3.158,0l0,-18.023l15.79,-15.789l0,-14.481l-15.79,-15.79l0,-17.097l15.79,-15.79l0,-14.481l-16.444,-16.444l2.233,-2.233l17.369,17.369Z" style="fill:#717171;"/><path d="M796.316,446.714l0,17.098l-15.79,15.789l0,14.482l15.79,15.789l0,17.098l-15.79,15.789l0,16.715l-3.158,0l0,-18.023l15.79,-15.789l0,-14.482l-15.79,-15.789l0,-17.098l15.79,-15.789l0,-14.482l-16.444,-16.443l2.233,-2.233l17.369,17.368Z" style="fill:#717171;"/><path d="M764.737,67.767l0,17.098l-15.79,15.789l0,14.481l15.79,15.79l0,17.097l-15.79,15.79l0,16.714l-3.158,0l0,-18.022l15.79,-15.79l0,-14.481l-15.79,-15.79l0,-17.097l15.79,-15.789l0,-14.482l-16.444,-16.443l2.233,-2.233l17.369,17.368Z" style="fill:#717171;"/><path d="M764.737,194.083l0,17.097l-15.79,15.79l0,14.481l15.79,15.79l0,17.097l-15.79,15.79l0,16.714l-3.158,0l0,-18.022l15.79,-15.79l0,-14.481l-15.79,-15.79l0,-17.097l15.79,-15.79l0,-14.481l-16.444,-16.444l2.233,-2.233l17.369,17.369Z" style="fill:#717171;"/><path d="M764.737,320.399l0,17.097l-15.79,15.79l0,14.481l15.79,15.789l0,17.098l-15.79,15.79l0,16.714l-3.158,0l0,-18.023l15.79,-15.789l0,-14.481l-15.79,-15.79l0,-17.097l15.79,-15.79l0,-14.481l-16.444,-16.444l2.233,-2.233l17.369,17.369Z" style="fill:#717171;"/><path d="M764.737,446.714l0,17.098l-15.79,15.789l0,14.482l15.79,15.789l0,17.098l-15.79,15.789l0,16.715l-3.158,0l0,-18.023l15.79,-15.789l0,-14.482l-15.79,-15.789l0,-17.098l15.79,-15.789l0,-14.482l-16.444,-16.443l2.233,-2.233l17.369,17.368Z" style="fill:#717171;"/><path d="M733.158,67.767l0,17.098l-15.79,15.789l0,14.481l15.79,15.79l0,17.097l-15.79,15.79l0,16.714l-3.157,0l0,-18.022l15.789,-15.79l0,-14.481l-15.789,-15.79l0,-17.097l15.789,-15.789l0,-14.482l-16.443,-16.443l2.232,-2.233l17.369,17.368Z" style="fill:#717171;"/><path d="M733.158,194.083l0,17.097l-15.79,15.79l0,14.481l15.79,15.79l0,17.097l-15.79,15.79l0,16.714l-3.157,0l0,-18.022l15.789,-15.79l0,-14.481l-15.789,-15.79l0,-17.097l15.789,-15.79l0,-14.481l-16.443,-16.444l2.232,-2.233l17.369,17.369Z" style="fill:#717171;"/><path d="M733.158,320.399l0,17.097l-15.79,15.79l0,14.481l15.79,15.789l0,17.098l-15.79,15.79l0,16.714l-3.157,0l0,-18.023l15.789,-15.789l0,-14.481l-15.789,-15.79l0,-17.097l15.789,-15.79l0,-14.481l-16.443,-16.444l2.232,-2.233l17.369,17.369Z" style="fill:#717171;"/><path d="M733.158,446.714l0,17.098l-15.79,15.789l0,14.482l15.79,15.789l0,17.098l-15.79,15.789l0,16.715l-3.157,0l0,-18.023l15.789,-15.789l0,-14.482l-15.789,-15.789l0,-17.098l15.789,-15.789l0,-14.482l-16.443,-16.443l2.232,-2.233l17.369,17.368Z" style="fill:#717171;"/><path d="M701.579,67.767l0,17.098l-15.79,15.789l0,14.481l15.79,15.79l0,17.097l-15.79,15.79l0,16.714l-3.157,0l0,-18.022l15.789,-15.79l0,-14.481l-15.789,-15.79l0,-17.097l15.789,-15.789l0,-14.482l-16.443,-16.443l2.233,-2.233l17.368,17.368Z" style="fill:#717171;"/><path d="M701.579,194.083l0,17.097l-15.79,15.79l0,14.481l15.79,15.79l0,17.097l-15.79,15.79l0,16.714l-3.157,0l0,-18.022l15.789,-15.79l0,-14.481l-15.789,-15.79l0,-17.097l15.789,-15.79l0,-14.481l-16.443,-16.444l2.233,-2.233l17.368,17.369Z" style="fill:#717171;"/><path d="M701.579,320.399l0,17.097l-15.79,15.79l0,14.481l15.79,15.789l0,17.098l-15.79,15.79l0,16.714l-3.157,0l0,-18.023l15.789,-15.789l0,-14.481l-15.789,-15.79l0,-17.097l15.789,-15.79l0,-14.481l-16.443,-16.444l2.233,-2.233l17.368,17.369Z" style="fill:#717171;"/><path d="M701.579,446.714l0,17.098l-15.79,15.789l0,14.482l15.79,15.789l0,17.098l-15.79,15.789l0,16.715l-3.157,0l0,-18.023l15.789,-15.789l0,-14.482l-15.789,-15.789l0,-17.098l15.789,-15.789l0,-14.482l-16.443,-16.443l2.233,-2.233l17.368,17.368Z" style="fill:#717171;"/><path d="M670,67.767l0,17.098l-15.789,15.789l0,14.481l15.789,15.79l0,17.097l-15.789,15.79l0,16.714l-3.158,0l0,-18.022l15.789,-15.79l0,-14.481l-15.789,-15.79l0,-17.097l15.789,-15.789l0,-14.482l-16.443,-16.443l2.233,-2.233l17.368,17.368Z" style="fill:#717171;"/><path d="M670,194.083l0,17.097l-15.789,15.79l0,14.481l15.789,15.79l0,17.097l-15.789,15.79l0,16.714l-3.158,0l0,-18.022l15.789,-15.79l0,-14.481l-15.789,-15.79l0,-17.097l15.789,-15.79l0,-14.481l-16.443,-16.444l2.233,-2.233l17.368,17.369Z" style="fill:#717171;"/><path d="M670,320.399l0,17.097l-15.789,15.79l0,14.481l15.789,15.789l0,17.098l-15.789,15.79l0,16.714l-3.158,0l0,-18.023l15.789,-15.789l0,-14.481l-15.789,-15.79l0,-17.097l15.789,-15.79l0,-14.481l-16.443,-16.444l2.233,-2.233l17.368,17.369Z" style="fill:#717171;"/><path d="M670,446.714l0,17.098l-15.789,15.789l0,14.482l15.789,15.789l0,17.098l-15.789,15.789l0,16.715l-3.158,0l0,-18.023l15.789,-15.789l0,-14.482l-15.789,-15.789l0,-17.098l15.789,-15.789l0,-14.482l-16.443,-16.443l2.233,-2.233l17.368,17.368Z" style="fill:#717171;"/><path d="M638.421,67.767l0,17.098l-15.789,15.789l0,14.481l15.789,15.79l0,17.097l-15.789,15.79l0,16.714l-3.158,0l0,-18.022l15.789,-15.79l0,-14.481l-15.789,-15.79l0,-17.097l15.789,-15.789l0,-14.482l-16.443,-16.443l2.233,-2.233l17.368,17.368Z" style="fill:#717171;"/><path d="M638.421,194.083l0,17.097l-15.789,15.79l0,14.481l15.789,15.79l0,17.097l-15.789,15.79l0,16.714l-3.158,0l0,-18.022l15.789,-15.79l0,-14.481l-15.789,-15.79l0,-17.097l15.789,-15.79l0,-14.481l-16.443,-16.444l2.233,-2.233l17.368,17.369Z" style="fill:#717171;"/><path d="M638.421,320.399l0,17.097l-15.789,15.79l0,14.481l15.789,15.789l0,17.098l-15.789,15.79l0,16.714l-3.158,0l0,-18.023l15.789,-15.789l0,-14.481l-15.789,-15.79l0,-17.097l15.789,-15.79l0,-14.481l-16.443,-16.444l2.233,-2.233l17.368,17.369Z" style="fill:#717171;"/><path d="M638.421,446.714l0,17.098l-15.789,15.789l0,14.482l15.789,15.789l0,17.098l-15.789,15.789l0,16.715l-3.158,0l0,-18.023l15.789,-15.789l0,-14.482l-15.789,-15.789l0,-17.098l15.789,-15.789l0,-14.482l-16.443,-16.443l2.233,-2.233l17.368,17.368Z" style="fill:#717171;"/><path d="M606.842,67.767l0,17.098l-15.789,15.789l0,14.481l15.789,15.79l0,17.097l-15.789,15.79l0,16.714l-3.158,0l0,-18.022l15.789,-15.79l0,-14.481l-15.789,-15.79l0,-17.097l15.789,-15.789l0,-14.482l-16.443,-16.443l2.233,-2.233l17.368,17.368Z" style="fill:#717171;"/><path d="M606.842,194.083l0,17.097l-15.789,15.79l0,14.481l15.789,15.79l0,17.097l-15.789,15.79l0,16.714l-3.158,0l0,-18.022l15.789,-15.79l0,-14.481l-15.789,-15.79l0,-17.097l15.789,-15.79l0,-14.481l-16.443,-16.444l2.233,-2.233l17.368,17.369Z" style="fill:#717171;"/><path d="M606.842,320.399l0,17.097l-15.789,15.79l0,14.481l15.789,15.789l0,17.098l-15.789,15.79l0,16.714l-3.158,0l0,-18.023l15.789,-15.789l0,-14.481l-15.789,-15.79l0,-17.097l15.789,-15.79l0,-14.481l-16.443,-16.444l2.233,-2.233l17.368,17.369Z" style="fill:#717171;"/><path d="M606.842,446.714l0,17.098l-15.789,15.789l0,14.482l15.789,15.789l0,17.098l-15.789,15.789l0,16.715l-3.158,0l0,-18.023l15.789,-15.789l0,-14.482l-15.789,-15.789l0,-17.098l15.789,-15.789l0,-14.482l-16.443,-16.443l2.233,-2.233l17.368,17.368Z" style="fill:#717171;"/><path d="M812.105,36.188l0,17.098l-15.789,15.789l0,14.482l15.789,15.789l0,17.097l-15.789,15.79l0,16.714l-3.158,0l0,-18.022l15.789,-15.79l0,-14.481l-15.789,-15.789l0,-17.098l15.789,-15.789l0,-14.482l-16.443,-16.443l2.233,-2.233l17.368,17.368Z" style="fill:#717171;"/><path d="M812.105,162.504l0,17.097l-15.789,15.79l0,14.481l15.789,15.79l0,17.097l-15.789,15.79l0,16.714l-3.158,0l0,-18.022l15.789,-15.79l0,-14.481l-15.789,-15.79l0,-17.097l15.789,-15.79l0,-14.481l-16.443,-16.444l2.233,-2.233l17.368,17.369Z" style="fill:#717171;"/><path d="M812.105,288.82l0,17.097l-15.789,15.79l0,14.481l15.789,15.79l0,17.097l-15.789,15.79l0,16.714l-3.158,0l0,-18.023l15.789,-15.789l0,-14.481l-15.789,-15.79l0,-17.097l15.789,-15.79l0,-14.481l-16.443,-16.444l2.233,-2.233l17.368,17.369Z" style="fill:#717171;"/><path d="M812.105,415.135l0,17.098l-15.789,15.789l0,14.482l15.789,15.789l0,17.098l-15.789,15.789l0,16.715l-3.158,0l0,-18.023l15.789,-15.789l0,-14.482l-15.789,-15.789l0,-17.098l15.789,-15.789l0,-14.481l-16.443,-16.444l2.233,-2.233l17.368,17.368Z" style="fill:#717171;"/><path d="M780.526,36.188l0,17.098l-15.789,15.789l0,14.482l15.789,15.789l0,17.097l-15.789,15.79l0,16.714l-3.158,0l0,-18.022l15.789,-15.79l0,-14.481l-15.789,-15.789l0,-17.098l15.789,-15.789l0,-14.482l-16.443,-16.443l2.233,-2.233l17.368,17.368Z" style="fill:#717171;"/><path d="M780.526,162.504l0,17.097l-15.789,15.79l0,14.481l15.789,15.79l0,17.097l-15.789,15.79l0,16.714l-3.158,0l0,-18.022l15.789,-15.79l0,-14.481l-15.789,-15.79l0,-17.097l15.789,-15.79l0,-14.481l-16.443,-16.444l2.233,-2.233l17.368,17.369Z" style="fill:#717171;"/><path d="M780.526,288.82l0,17.097l-15.789,15.79l0,14.481l15.789,15.79l0,17.097l-15.789,15.79l0,16.714l-3.158,0l0,-18.023l15.789,-15.789l0,-14.481l-15.789,-15.79l0,-17.097l15.789,-15.79l0,-14.481l-16.443,-16.444l2.233,-2.233l17.368,17.369Z" style="fill:#717171;"/><path d="M780.526,415.135l0,17.098l-15.789,15.789l0,14.482l15.789,15.789l0,17.098l-15.789,15.789l0,16.715l-3.158,0l0,-18.023l15.789,-15.789l0,-14.482l-15.789,-15.789l0,-17.098l15.789,-15.789l0,-14.481l-16.443,-16.444l2.233,-2.233l17.368,17.368Z" style="fill:#717171;"/><path d="M748.947,36.188l0,17.098l-15.789,15.789l0,14.482l15.789,15.789l0,17.097l-15.789,15.79l0,16.714l-3.158,0l0,-18.022l15.789,-15.79l0,-14.481l-15.789,-15.789l0,-17.098l15.789,-15.789l0,-14.482l-16.443,-16.443l2.233,-2.233l17.368,17.368Z" style="fill:#717171;"/><path d="M748.947,162.504l0,17.097l-15.789,15.79l0,14.481l15.789,15.79l0,17.097l-15.789,15.79l0,16.714l-3.158,0l0,-18.022l15.789,-15.79l0,-14.481l-15.789,-15.79l0,-17.097l15.789,-15.79l0,-14.481l-16.443,-16.444l2.233,-2.233l17.368,17.369Z" style="fill:#717171;"/><path d="M748.947,288.82l0,17.097l-15.789,15.79l0,14.481l15.789,15.79l0,17.097l-15.789,15.79l0,16.714l-3.158,0l0,-18.023l15.789,-15.789l0,-14.481l-15.789,-15.79l0,-17.097l15.789,-15.79l0,-14.481l-16.443,-16.444l2.233,-2.233l17.368,17.369Z" style="fill:#717171;"/><path d="M748.947,415.135l0,17.098l-15.789,15.789l0,14.482l15.789,15.789l0,17.098l-15.789,15.789l0,16.715l-3.158,0l0,-18.023l15.789,-15.789l0,-14.482l-15.789,-15.789l0,-17.098l15.789,-15.789l0,-14.481l-16.443,-16.444l2.233,-2.233l17.368,17.368Z" style="fill:#717171;"/><path d="M717.368,36.188l0,17.098l-15.789,15.789l0,14.482l15.789,15.789l0,17.097l-15.789,15.79l0,16.714l-3.158,0l0,-18.022l15.79,-15.79l0,-14.481l-15.79,-15.789l0,-17.098l15.79,-15.789l0,-14.482l-16.444,-16.443l2.233,-2.233l17.368,17.368Z" style="fill:#717171;"/><path d="M717.368,162.504l0,17.097l-15.789,15.79l0,14.481l15.789,15.79l0,17.097l-15.789,15.79l0,16.714l-3.158,0l0,-18.022l15.79,-15.79l0,-14.481l-15.79,-15.79l0,-17.097l15.79,-15.79l0,-14.481l-16.444,-16.444l2.233,-2.233l17.368,17.369Z" style="fill:#717171;"/><path d="M717.368,288.82l0,17.097l-15.789,15.79l0,14.481l15.789,15.79l0,17.097l-15.789,15.79l0,16.714l-3.158,0l0,-18.023l15.79,-15.789l0,-14.481l-15.79,-15.79l0,-17.097l15.79,-15.79l0,-14.481l-16.444,-16.444l2.233,-2.233l17.368,17.369Z" style="fill:#717171;"/><path d="M717.368,415.135l0,17.098l-15.789,15.789l0,14.482l15.789,15.789l0,17.098l-15.789,15.789l0,16.715l-3.158,0l0,-18.023l15.79,-15.789l0,-14.482l-15.79,-15.789l0,-17.098l15.79,-15.789l0,-14.481l-16.444,-16.444l2.233,-2.233l17.368,17.368Z" style="fill:#717171;"/><path d="M685.789,36.188l0,17.098l-15.789,15.789l0,14.482l15.789,15.789l0,17.097l-15.789,15.79l0,16.714l-3.158,0l0,-18.022l15.79,-15.79l0,-14.481l-15.79,-15.789l0,-17.098l15.79,-15.789l0,-14.482l-16.444,-16.443l2.233,-2.233l17.368,17.368Z" style="fill:#717171;"/><path d="M685.789,162.504l0,17.097l-15.789,15.79l0,14.481l15.789,15.79l0,17.097l-15.789,15.79l0,16.714l-3.158,0l0,-18.022l15.79,-15.79l0,-14.481l-15.79,-15.79l0,-17.097l15.79,-15.79l0,-14.481l-16.444,-16.444l2.233,-2.233l17.368,17.369Z" style="fill:#717171;"/><path d="M685.789,288.82l0,17.097l-15.789,15.79l0,14.481l15.789,15.79l0,17.097l-15.789,15.79l0,16.714l-3.158,0l0,-18.023l15.79,-15.789l0,-14.481l-15.79,-15.79l0,-17.097l15.79,-15.79l0,-14.481l-16.444,-16.444l2.233,-2.233l17.368,17.369Z" style="fill:#717171;"/><path d="M685.789,415.135l0,17.098l-15.789,15.789l0,14.482l15.789,15.789l0,17.098l-15.789,15.789l0,16.715l-3.158,0l0,-18.023l15.79,-15.789l0,-14.482l-15.79,-15.789l0,-17.098l15.79,-15.789l0,-14.481l-16.444,-16.444l2.233,-2.233l17.368,17.368Z" style="fill:#717171;"/><path d="M654.211,36.188l0,17.098l-15.79,15.789l0,14.482l15.79,15.789l0,17.097l-15.79,15.79l0,16.714l-3.158,0l0,-18.022l15.79,-15.79l0,-14.481l-15.79,-15.789l0,-17.098l15.79,-15.789l0,-14.482l-16.444,-16.443l2.233,-2.233l17.369,17.368Z" style="fill:#717171;"/><path d="M654.211,162.504l0,17.097l-15.79,15.79l0,14.481l15.79,15.79l0,17.097l-15.79,15.79l0,16.714l-3.158,0l0,-18.022l15.79,-15.79l0,-14.481l-15.79,-15.79l0,-17.097l15.79,-15.79l0,-14.481l-16.444,-16.444l2.233,-2.233l17.369,17.369Z" style="fill:#717171;"/><path d="M654.211,288.82l0,17.097l-15.79,15.79l0,14.481l15.79,15.79l0,17.097l-15.79,15.79l0,16.714l-3.158,0l0,-18.023l15.79,-15.789l0,-14.481l-15.79,-15.79l0,-17.097l15.79,-15.79l0,-14.481l-16.444,-16.444l2.233,-2.233l17.369,17.369Z" style="fill:#717171;"/><path d="M654.211,415.135l0,17.098l-15.79,15.789l0,14.482l15.79,15.789l0,17.098l-15.79,15.789l0,16.715l-3.158,0l0,-18.023l15.79,-15.789l0,-14.482l-15.79,-15.789l0,-17.098l15.79,-15.789l0,-14.481l-16.444,-16.444l2.233,-2.233l17.369,17.368Z" style="fill:#717171;"/><path d="M622.632,36.188l0,17.098l-15.79,15.789l0,14.482l15.79,15.789l0,17.097l-15.79,15.79l0,16.714l-3.158,0l0,-18.022l15.79,-15.79l0,-14.481l-15.79,-15.789l0,-17.098l15.79,-15.789l0,-14.482l-16.444,-16.443l2.233,-2.233l17.369,17.368Z" style="fill:#717171;"/><path d="M622.632,162.504l0,17.097l-15.79,15.79l0,14.481l15.79,15.79l0,17.097l-15.79,15.79l0,16.714l-3.158,0l0,-18.022l15.79,-15.79l0,-14.481l-15.79,-15.79l0,-17.097l15.79,-15.79l0,-14.481l-16.444,-16.444l2.233,-2.233l17.369,17.369Z" style="fill:#717171;"/><path d="M622.632,288.82l0,17.097l-15.79,15.79l0,14.481l15.79,15.79l0,17.097l-15.79,15.79l0,16.714l-3.158,0l0,-18.023l15.79,-15.789l0,-14.481l-15.79,-15.79l0,-17.097l15.79,-15.79l0,-14.481l-16.444,-16.444l2.233,-2.233l17.369,17.369Z" style="fill:#717171;"/><path d="M622.632,415.135l0,17.098l-15.79,15.789l0,14.482l15.79,15.789l0,17.098l-15.79,15.789l0,16.715l-3.158,0l0,-18.023l15.79,-15.789l0,-14.482l-15.79,-15.789l0,-17.098l15.79,-15.789l0,-14.481l-16.444,-16.444l2.233,-2.233l17.369,17.368Z" style="fill:#717171;"/><path d="M591.053,36.188l0,17.098l-15.79,15.789l0,14.482l15.79,15.789l0,17.097l-15.79,15.79l0,16.714l-3.158,0l0,-18.022l15.79,-15.79l0,-14.481l-15.79,-15.789l0,-17.098l15.79,-15.789l0,-14.482l-16.444,-16.443l2.233,-2.233l17.369,17.368Z" style="fill:#717171;"/><path d="M591.053,162.504l0,17.097l-15.79,15.79l0,14.481l15.79,15.79l0,17.097l-15.79,15.79l0,16.714l-3.158,0l0,-18.022l15.79,-15.79l0,-14.481l-15.79,-15.79l0,-17.097l15.79,-15.79l0,-14.481l-16.444,-16.444l2.233,-2.233l17.369,17.369Z" style="fill:#717171;"/><path d="M591.053,288.82l0,17.097l-15.79,15.79l0,14.481l15.79,15.79l0,17.097l-15.79,15.79l0,16.714l-3.158,0l0,-18.023l15.79,-15.789l0,-14.481l-15.79,-15.79l0,-17.097l15.79,-15.79l0,-14.481l-16.444,-16.444l2.233,-2.233l17.369,17.369Z" style="fill:#717171;"/><path d="M591.053,415.135l0,17.098l-15.79,15.789l0,14.482l15.79,15.789l0,17.098l-15.79,15.789l0,16.715l-3.158,0l0,-18.023l15.79,-15.789l0,-14.482l-15.79,-15.789l0,-17.098l15.79,-15.789l0,-14.481l-16.444,-16.444l2.233,-2.233l17.369,17.368Z" style="fill:#717171;"/></g></g></g><defs><linearGradient id="_Linear2" x1="0" y1="0" x2="1" y2="0" gradientUnits="userSpaceOnUse" gradientTransform="matrix(31.5789,0,0,31.5789,1112.11,1517.89)"><stop offset="0" style="stop-color:#717171;stop-opacity:1"/><stop offset="1" style="stop-color:#757575;stop-opacity:1"/></linearGradient><linearGradient id="_Linear3" x1="0" y1="0" x2="1" y2="0" gradientUnits="userSpaceOnUse" gradientTransform="matrix(31.5789,0,0,31.5789,1112.11,1214.74)"><stop offset="0" style="stop-color:#717171;stop-opacity:1"/><stop offset="1" style="stop-color:#757575;stop-opacity:1"/></linearGradient><linearGradient id="_Linear4" x1="0" y1="0" x2="1" y2="0" gradientUnits="userSpaceOnUse" gradientTransform="matrix(1.93365e-15,-31.5789,36.6316,2.24304e-15,751.032,998.421)"><stop offset="0" style="stop-color:#717171;stop-opacity:1"/><stop offset="1" style="stop-color:#757575;stop-opacity:1"/></linearGradient><linearGradient id="_Linear6" x1="0" y1="0" x2="1" y2="0" gradientUnits="userSpaceOnUse" gradientTransform="matrix(1.93365e-15,31.5789,-101.053,6.18769e-15,847.789,336.842)"><stop offset="0" style="stop-color:#717171;stop-opacity:1"/><stop offset="1" style="stop-color:#757575;stop-opacity:1"/></linearGradient><linearGradient id="_Linear7" x1="0" y1="0" x2="1" y2="0" gradientUnits="userSpaceOnUse" gradientTransform="matrix(1.93365e-15,-31.5789,101.053,6.18769e-15,868,621.053)"><stop offset="0" style="stop-color:#717171;stop-opacity:1"/><stop offset="1" style="stop-color:#757575;stop-opacity:1"/></linearGradient></defs></svg>