<?xml version="1.0" encoding="UTF-8" standalone="no"?><!DOCTYPE svg PUBLIC "-//W3C//DTD SVG 1.1//EN" "http://www.w3.org/Graphics/SVG/1.1/DTD/svg11.dtd"><svg width="100%" height="100%" viewBox="0 0 2000 2000" version="1.1" xmlns="http://www.w3.org/2000/svg" xmlns:xlink="http://www.w3.org/1999/xlink" xml:space="preserve" xmlns:serif="http://www.serif.com/" style="fill-rule:evenodd;clip-rule:evenodd;stroke-linecap:round;stroke-linejoin:round;stroke-miterlimit:1.5;"><path d="M1952.94,1423.53c0,0 0,-674.027 0,-1019.12c0,-109.645 -88.884,-198.53 -198.529,-198.53c-37.984,0 -66.177,0 -66.177,0l-105.882,-105.882l-1323.53,0l-158.824,158.824l0,211.764c0,0 -13.235,0 -26.471,0c-14.619,0 -26.47,11.852 -26.47,26.471c0,16.168 0,36.772 0,52.941c0,14.619 11.851,26.471 26.47,26.471c13.236,0 26.471,0 26.471,0l0,105.882c0,0 -13.235,0 -26.471,0c-14.619,0 -26.47,11.851 -26.47,26.471c0,16.168 0,36.772 0,52.941c0,14.619 11.851,26.47 26.47,26.47c13.236,0 26.471,0 26.471,0l0,52.941c0,0 -13.235,0 -26.471,0c-14.619,0 -26.47,11.852 -26.47,26.471c0,29.377 0,76.506 0,105.882c0,14.62 11.851,26.471 26.47,26.471c13.236,0 26.471,0 26.471,0l0,52.941c0,0 -13.235,0 -26.471,0c-14.619,0 -26.47,11.851 -26.47,26.471c0,29.377 0,76.505 0,105.882c0,14.619 11.851,26.471 26.47,26.471c13.236,0 26.471,0 26.471,0l0,52.941c0,0 -13.235,0 -26.471,0c-14.619,0 -26.47,11.851 -26.47,26.47c0,29.377 0,76.506 0,105.883c0,14.619 11.851,26.47 26.47,26.47c13.236,0 26.471,0 26.471,0l0,238.236l132.353,132.353c156.811,0 397.059,0 397.059,0l105.882,105.882c0,0 608.731,0 794.118,0c14.041,0 27.506,-5.578 37.435,-15.506c9.928,-9.929 15.506,-23.394 15.506,-37.435c0,-26.471 0,-52.941 0,-52.941l370.588,-370.589Z" style="fill:#8c8c8c;"/><clipPath id="_clip1"><path d="M1952.94,1423.53c0,0 0,-674.027 0,-1019.12c0,-109.645 -88.884,-198.53 -198.529,-198.53c-37.984,0 -66.177,0 -66.177,0l-105.882,-105.882l-1323.53,0l-158.824,158.824l0,211.764c0,0 -13.235,0 -26.471,0c-14.619,0 -26.47,11.852 -26.47,26.471c0,16.168 0,36.772 0,52.941c0,14.619 11.851,26.471 26.47,26.471c13.236,0 26.471,0 26.471,0l0,105.882c0,0 -13.235,0 -26.471,0c-14.619,0 -26.47,11.851 -26.47,26.471c0,16.168 0,36.772 0,52.941c0,14.619 11.851,26.47 26.47,26.47c13.236,0 26.471,0 26.471,0l0,52.941c0,0 -13.235,0 -26.471,0c-14.619,0 -26.47,11.852 -26.47,26.471c0,29.377 0,76.506 0,105.882c0,14.62 11.851,26.471 26.47,26.471c13.236,0 26.471,0 26.471,0l0,52.941c0,0 -13.235,0 -26.471,0c-14.619,0 -26.47,11.851 -26.47,26.471c0,29.377 0,76.505 0,105.882c0,14.619 11.851,26.471 26.47,26.471c13.236,0 26.471,0 26.471,0l0,52.941c0,0 -13.235,0 -26.471,0c-14.619,0 -26.47,11.851 -26.47,26.47c0,29.377 0,76.506 0,105.883c0,14.619 11.851,26.47 26.47,26.47c13.236,0 26.471,0 26.471,0l0,238.236l132.353,132.353c156.811,0 397.059,0 397.059,0l105.882,105.882c0,0 608.731,0 794.118,0c14.041,0 27.506,-5.578 37.435,-15.506c9.928,-9.929 15.506,-23.394 15.506,-37.435c0,-26.471 0,-52.941 0,-52.941l370.588,-370.589Z"/></clipPath><g clip-path="url(#_clip1)"><path d="M364.706,100c0,0 0,66.176 0,132.353c0,35.102 13.944,68.767 38.765,93.588c24.821,24.821 58.486,38.765 93.588,38.765c80.843,0 183.863,0 264.706,0c35.102,0 68.766,-13.944 93.587,-38.765c24.821,-24.821 38.766,-58.486 38.766,-93.588c0,-66.177 0,-132.353 0,-132.353l-529.412,0Z" style="fill:#858585;"/><path d="M33.824,1450c0,0 289.801,0 423.529,0c17.551,0 34.383,-6.972 46.794,-19.383c12.41,-12.41 19.382,-29.242 19.382,-46.793c0,-93.09 0,-251.471 0,-251.471l238.236,0l132.353,132.353l52.941,0l26.47,26.47l105.883,0l79.412,79.412l291.176,0l132.353,132.353l52.941,0l0,-26.47l140.294,140.294l0,336.176l-1741.76,0l0,-502.941Z" style="fill:#858585;"/><g><path d="M1900,1344.12c0,-7.021 -2.789,-13.754 -7.753,-18.718c-4.964,-4.964 -11.697,-7.753 -18.718,-7.753c0,0 0,0 0,0c-7.02,0 -13.753,2.789 -18.717,7.753c-4.964,4.964 -7.753,11.697 -7.753,18.718c0,16.168 0,36.772 0,52.941c0,7.02 2.789,13.753 7.753,18.717c4.964,4.965 11.697,7.753 18.717,7.753c0,0 0,0 0,0c7.021,0 13.754,-2.788 18.718,-7.753c4.964,-4.964 7.753,-11.697 7.753,-18.717c0,-16.169 0,-36.773 0,-52.941Z" style="fill:#858585;"/><path d="M1900,1185.29c0,-7.02 -2.789,-13.753 -7.753,-18.717c-4.964,-4.965 -11.697,-7.753 -18.718,-7.753c0,0 0,0 0,0c-7.02,0 -13.753,2.788 -18.717,7.753c-4.964,4.964 -7.753,11.697 -7.753,18.717c0,16.169 0,36.773 0,52.941c0,7.021 2.789,13.754 7.753,18.718c4.964,4.964 11.697,7.753 18.717,7.753c0,0 0,0 0,0c7.021,0 13.754,-2.789 18.718,-7.753c4.964,-4.964 7.753,-11.697 7.753,-18.718c0,-16.168 0,-36.772 0,-52.941Z" style="fill:#858585;"/><path d="M1900,1026.47c0,-7.021 -2.789,-13.754 -7.753,-18.718c-4.964,-4.964 -11.697,-7.753 -18.718,-7.753c0,0 0,0 0,0c-7.02,0 -13.753,2.789 -18.717,7.753c-4.964,4.964 -7.753,11.697 -7.753,18.718c0,16.168 0,36.772 0,52.941c0,7.02 2.789,13.753 7.753,18.717c4.964,4.964 11.697,7.753 18.717,7.753c0,0 0,0 0,0c7.021,0 13.754,-2.789 18.718,-7.753c4.964,-4.964 7.753,-11.697 7.753,-18.717c0,-16.169 0,-36.773 0,-52.941Z" style="fill:#858585;"/><path d="M1900,867.647c0,-7.02 -2.789,-13.753 -7.753,-18.717c-4.964,-4.965 -11.697,-7.754 -18.718,-7.754c0,0 0,0 0,0c-7.02,0 -13.753,2.789 -18.717,7.754c-4.964,4.964 -7.753,11.697 -7.753,18.717c0,16.169 0,36.773 0,52.941c0,7.021 2.789,13.754 7.753,18.718c4.964,4.964 11.697,7.753 18.717,7.753c0,0 0,0 0,0c7.021,0 13.754,-2.789 18.718,-7.753c4.964,-4.964 7.753,-11.697 7.753,-18.718c0,-16.168 0,-36.772 0,-52.941Z" style="fill:#858585;"/><path d="M1900,708.824c0,-7.021 -2.789,-13.754 -7.753,-18.718c-4.964,-4.964 -11.697,-7.753 -18.718,-7.753c0,0 0,0 0,0c-7.02,0 -13.753,2.789 -18.717,7.753c-4.964,4.964 -7.753,11.697 -7.753,18.718c0,16.168 0,36.772 0,52.941c0,7.02 2.789,13.753 7.753,18.717c4.964,4.964 11.697,7.753 18.717,7.753c0,0 0,0 0,0c7.021,0 13.754,-2.789 18.718,-7.753c4.964,-4.964 7.753,-11.697 7.753,-18.717c0,-16.169 0,-36.773 0,-52.941Z" style="fill:#858585;"/><path d="M1900,550c0,-7.02 -2.789,-13.753 -7.753,-18.718c-4.964,-4.964 -11.697,-7.753 -18.718,-7.753c0,0 0,0 0,0c-7.02,0 -13.753,2.789 -18.717,7.753c-4.964,4.965 -7.753,11.698 -7.753,18.718c0,16.169 0,36.773 0,52.941c0,7.021 2.789,13.754 7.753,18.718c4.964,4.964 11.697,7.753 18.717,7.753c0,0 0,0 0,0c7.021,0 13.754,-2.789 18.718,-7.753c4.964,-4.964 7.753,-11.697 7.753,-18.718c0,-16.168 0,-36.772 0,-52.941Z" style="fill:#858585;"/><path d="M1900,391.176c0,-7.02 -2.789,-13.753 -7.753,-18.717c-4.964,-4.964 -11.697,-7.753 -18.718,-7.753c0,0 0,0 0,0c-7.02,0 -13.753,2.789 -18.717,7.753c-4.964,4.964 -7.753,11.697 -7.753,18.717c0,16.169 0,36.773 0,52.942c0,7.02 2.789,13.753 7.753,18.717c4.964,4.964 11.697,7.753 18.717,7.753c0,0 0,0 0,0c7.021,0 13.754,-2.789 18.718,-7.753c4.964,-4.964 7.753,-11.697 7.753,-18.717c0,-16.169 0,-36.773 0,-52.942Z" style="fill:#858585;"/></g><g><path d="M1820.59,1264.71c0,-7.021 -2.789,-13.753 -7.753,-18.718c-4.964,-4.964 -11.697,-7.753 -18.717,-7.753c0,0 0,0 0,0c-7.021,0 -13.754,2.789 -18.718,7.753c-4.964,4.965 -7.753,11.697 -7.753,18.718c0,16.169 0,36.772 0,52.941c0,7.02 2.789,13.753 7.753,18.718c4.964,4.964 11.697,7.753 18.718,7.753c0,0 0,0 0,0c7.02,0 13.753,-2.789 18.717,-7.753c4.964,-4.965 7.753,-11.698 7.753,-18.718c0,-16.169 0,-36.772 0,-52.941Z" style="fill:#858585;"/><path d="M1820.59,1105.88c0,-7.02 -2.789,-13.753 -7.753,-18.717c-4.964,-4.964 -11.697,-7.753 -18.717,-7.753c0,0 0,0 0,0c-7.021,0 -13.754,2.789 -18.718,7.753c-4.964,4.964 -7.753,11.697 -7.753,18.717c0,16.169 0,36.773 0,52.942c0,7.02 2.789,13.753 7.753,18.717c4.964,4.964 11.697,7.753 18.718,7.753c0,0 0,0 0,0c7.02,0 13.753,-2.789 18.717,-7.753c4.964,-4.964 7.753,-11.697 7.753,-18.717c0,-16.169 0,-36.773 0,-52.942Z" style="fill:#858585;"/><path d="M1820.59,947.059c0,-7.021 -2.789,-13.754 -7.753,-18.718c-4.964,-4.964 -11.697,-7.753 -18.717,-7.753c0,0 0,0 0,0c-7.021,0 -13.754,2.789 -18.718,7.753c-4.964,4.964 -7.753,11.697 -7.753,18.718c0,16.168 0,36.772 0,52.941c0,7.02 2.789,13.753 7.753,18.718c4.964,4.964 11.697,7.753 18.718,7.753c0,0 0,0 0,0c7.02,0 13.753,-2.789 18.717,-7.753c4.964,-4.965 7.753,-11.698 7.753,-18.718c0,-16.169 0,-36.773 0,-52.941Z" style="fill:#858585;"/><path d="M1820.59,788.235c0,-7.02 -2.789,-13.753 -7.753,-18.717c-4.964,-4.964 -11.697,-7.753 -18.717,-7.753c0,0 0,0 0,0c-7.021,0 -13.754,2.789 -18.718,7.753c-4.964,4.964 -7.753,11.697 -7.753,18.717c0,16.169 0,36.773 0,52.941c0,7.021 2.789,13.754 7.753,18.718c4.964,4.964 11.697,7.753 18.718,7.753c0,0 0,0 0,0c7.02,0 13.753,-2.789 18.717,-7.753c4.964,-4.964 7.753,-11.697 7.753,-18.718c0,-16.168 0,-36.772 0,-52.941Z" style="fill:#858585;"/><path d="M1820.59,629.412c0,-7.021 -2.789,-13.754 -7.753,-18.718c-4.964,-4.964 -11.697,-7.753 -18.717,-7.753c0,0 0,0 0,0c-7.021,0 -13.754,2.789 -18.718,7.753c-4.964,4.964 -7.753,11.697 -7.753,18.718c0,16.168 0,36.772 0,52.941c0,7.02 2.789,13.753 7.753,18.717c4.964,4.965 11.697,7.754 18.718,7.754c0,0 0,0 0,0c7.02,0 13.753,-2.789 18.717,-7.754c4.964,-4.964 7.753,-11.697 7.753,-18.717c0,-16.169 0,-36.773 0,-52.941Z" style="fill:#858585;"/><path d="M1820.59,470.588c0,-7.02 -2.789,-13.753 -7.753,-18.717c-4.964,-4.964 -11.697,-7.753 -18.717,-7.753c0,0 0,0 0,0c-7.021,0 -13.754,2.789 -18.718,7.753c-4.964,4.964 -7.753,11.697 -7.753,18.717c0,16.169 0,36.773 0,52.941c0,7.021 2.789,13.754 7.753,18.718c4.964,4.964 11.697,7.753 18.718,7.753c0,0 0,0 0,0c7.02,0 13.753,-2.789 18.717,-7.753c4.964,-4.964 7.753,-11.697 7.753,-18.718c0,-16.168 0,-36.772 0,-52.941Z" style="fill:#858585;"/><path d="M1820.59,311.765c0,-7.021 -2.789,-13.754 -7.753,-18.718c-4.964,-4.964 -11.697,-7.753 -18.717,-7.753c0,0 0,0 0,0c-7.021,0 -13.754,2.789 -18.718,7.753c-4.964,4.964 -7.753,11.697 -7.753,18.718c0,16.168 0,36.772 0,52.941c0,7.02 2.789,13.753 7.753,18.717c4.964,4.965 11.697,7.753 18.718,7.753c0,0 0,0 0,0c7.02,0 13.753,-2.788 18.717,-7.753c4.964,-4.964 7.753,-11.697 7.753,-18.717c0,-16.169 0,-36.773 0,-52.941Z" style="fill:#858585;"/></g><path d="M523.529,510.294c0,-17.551 -6.972,-34.383 -19.382,-46.794c-12.411,-12.41 -29.243,-19.382 -46.794,-19.382c-136.528,0 -436.765,0 -436.765,0l0,1005.88c0,0 300.237,0 436.765,0c17.551,0 34.383,-6.972 46.794,-19.383c12.41,-12.41 19.382,-29.242 19.382,-46.794c0,-182.434 0,-691.094 0,-873.529Z" style="fill:#878787;"/><clipPath id="_clip2"><path d="M523.529,510.294c0,-17.551 -6.972,-34.383 -19.382,-46.794c-12.411,-12.41 -29.243,-19.382 -46.794,-19.382c-136.528,0 -436.765,0 -436.765,0l0,1005.88c0,0 300.237,0 436.765,0c17.551,0 34.383,-6.972 46.794,-19.383c12.41,-12.41 19.382,-29.242 19.382,-46.794c0,-182.434 0,-691.094 0,-873.529Z"/></clipPath><g clip-path="url(#_clip2)"><path d="M444.46,1291.18c29.081,0.184 52.599,23.815 52.599,52.94c0,0 0,0 0,0c0,29.238 -23.703,52.941 -52.941,52.941l-317.647,0c-29.239,0 -52.942,-23.703 -52.942,-52.941c0,0 0,0 0,0c0,-29.239 23.703,-52.942 52.942,-52.942c81.37,0 236.276,0 317.647,0l0.342,0.002Zm52.599,-158.825c0,-29.239 -23.703,-52.941 -52.941,-52.941c-81.371,0 -236.277,0 -317.647,0c-29.239,0 -52.942,23.702 -52.942,52.941c0,0 0,0 0,0c0,29.239 23.703,52.941 52.942,52.941c81.37,0 236.276,0 317.647,0c29.238,0 52.941,-23.702 52.941,-52.941c0,0 0,0 0,0Zm0,-211.765c0,-29.238 -23.703,-52.941 -52.941,-52.941c-81.371,0 -236.277,0 -317.647,0c-29.239,0 -52.942,23.703 -52.942,52.941c0,0 0,0 0,0c0,29.239 23.703,52.941 52.942,52.941c81.37,0 236.276,0 317.647,0c29.238,0 52.941,-23.702 52.941,-52.941c0,0 0,0 0,0Zm-26.471,-211.764c7.021,0 13.754,2.789 18.718,7.753c4.964,4.964 7.753,11.697 7.753,18.717c0,0 0,0 0,0c0,7.021 -2.789,13.753 -7.753,18.718c-4.964,4.964 -11.697,7.753 -18.718,7.753l-370.588,0c-7.02,0 -13.753,-2.789 -18.718,-7.753c-4.964,-4.965 -7.753,-11.697 -7.753,-18.718c0,0 0,0 0,0c0,-7.02 2.789,-13.753 7.753,-18.717c4.965,-4.964 11.697,-7.753 18.718,-7.753l370.588,0Zm26.471,-185.295c0,-7.02 -2.789,-13.753 -7.753,-18.717c-4.964,-4.964 -11.697,-7.753 -18.718,-7.753c-76.043,0 -294.545,0 -370.588,0c-7.02,0 -13.753,2.789 -18.718,7.753c-4.964,4.964 -7.753,11.697 -7.753,18.717c0,0 0,0 0,0c0,7.021 2.789,13.754 7.753,18.718c4.965,4.964 11.698,7.753 18.718,7.753c76.043,0 294.545,0 370.588,0c7.021,0 13.754,-2.789 18.718,-7.753c4.964,-4.964 7.753,-11.697 7.753,-18.718c0,0 0,0 0,0Z" style="fill:#8f8f8f;"/><clipPath id="_clip3"><path d="M444.46,1291.18c29.081,0.184 52.599,23.815 52.599,52.94c0,0 0,0 0,0c0,29.238 -23.703,52.941 -52.941,52.941l-317.647,0c-29.239,0 -52.942,-23.703 -52.942,-52.941c0,0 0,0 0,0c0,-29.239 23.703,-52.942 52.942,-52.942c81.37,0 236.276,0 317.647,0l0.342,0.002Zm52.599,-158.825c0,-29.239 -23.703,-52.941 -52.941,-52.941c-81.371,0 -236.277,0 -317.647,0c-29.239,0 -52.942,23.702 -52.942,52.941c0,0 0,0 0,0c0,29.239 23.703,52.941 52.942,52.941c81.37,0 236.276,0 317.647,0c29.238,0 52.941,-23.702 52.941,-52.941c0,0 0,0 0,0Zm0,-211.765c0,-29.238 -23.703,-52.941 -52.941,-52.941c-81.371,0 -236.277,0 -317.647,0c-29.239,0 -52.942,23.703 -52.942,52.941c0,0 0,0 0,0c0,29.239 23.703,52.941 52.942,52.941c81.37,0 236.276,0 317.647,0c29.238,0 52.941,-23.702 52.941,-52.941c0,0 0,0 0,0Zm-26.471,-211.764c7.021,0 13.754,2.789 18.718,7.753c4.964,4.964 7.753,11.697 7.753,18.717c0,0 0,0 0,0c0,7.021 -2.789,13.753 -7.753,18.718c-4.964,4.964 -11.697,7.753 -18.718,7.753l-370.588,0c-7.02,0 -13.753,-2.789 -18.718,-7.753c-4.964,-4.965 -7.753,-11.697 -7.753,-18.718c0,0 0,0 0,0c0,-7.02 2.789,-13.753 7.753,-18.717c4.965,-4.964 11.697,-7.753 18.718,-7.753l370.588,0Zm26.471,-185.295c0,-7.02 -2.789,-13.753 -7.753,-18.717c-4.964,-4.964 -11.697,-7.753 -18.718,-7.753c-76.043,0 -294.545,0 -370.588,0c-7.02,0 -13.753,2.789 -18.718,7.753c-4.964,4.964 -7.753,11.697 -7.753,18.717c0,0 0,0 0,0c0,7.021 2.789,13.754 7.753,18.718c4.965,4.964 11.698,7.753 18.718,7.753c76.043,0 294.545,0 370.588,0c7.021,0 13.754,-2.789 18.718,-7.753c4.964,-4.964 7.753,-11.697 7.753,-18.718c0,0 0,0 0,0Z"/></clipPath><g clip-path="url(#_clip3)"><rect x="80.147" y="470.588" width="13.235" height="926.471" style="fill:url(#_Linear4);"/><rect x="106.618" y="470.588" width="13.235" height="926.471" style="fill:url(#_Linear5);"/><rect x="133.088" y="470.588" width="13.235" height="926.471" style="fill:url(#_Linear6);"/><rect x="159.559" y="470.588" width="13.235" height="926.471" style="fill:url(#_Linear7);"/><rect x="186.029" y="470.588" width="13.235" height="926.471" style="fill:url(#_Linear8);"/><rect x="212.5" y="470.588" width="13.235" height="926.471" style="fill:url(#_Linear9);"/><rect x="238.971" y="470.588" width="13.235" height="926.471" style="fill:url(#_Linear10);"/><rect x="265.441" y="470.588" width="13.235" height="926.471" style="fill:url(#_Linear11);"/><rect x="291.912" y="470.588" width="13.235" height="926.471" style="fill:url(#_Linear12);"/><rect x="318.382" y="470.588" width="13.235" height="926.471" style="fill:url(#_Linear13);"/><rect x="344.853" y="470.588" width="13.235" height="926.471" style="fill:url(#_Linear14);"/><rect x="371.324" y="470.588" width="13.235" height="926.471" style="fill:url(#_Linear15);"/><rect x="397.794" y="470.588" width="13.235" height="926.471" style="fill:url(#_Linear16);"/><rect x="424.265" y="470.588" width="13.235" height="926.471" style="fill:url(#_Linear17);"/><rect x="450.735" y="470.588" width="13.235" height="926.471" style="fill:url(#_Linear18);"/><rect x="477.206" y="470.588" width="13.235" height="926.471" style="fill:url(#_Linear19);"/></g></g><path d="M716.577,1809.62c-5.169,-5.169 -13.549,-5.169 -18.718,0c0,0 0,0 0,0c-5.169,5.168 -5.169,13.549 0,18.717c14.384,14.385 41.768,41.768 56.153,56.153c5.168,5.169 13.548,5.169 18.717,0c0,0 0,0 0,0c5.169,-5.169 5.169,-13.549 0,-18.718c-14.384,-14.384 -41.768,-41.768 -56.152,-56.152Zm52.941,0c-5.169,-5.169 -13.549,-5.169 -18.718,0c0,0 0,0 0,0c-5.168,5.168 -5.168,13.549 0,18.717c14.385,14.385 41.768,41.768 56.153,56.153c5.169,5.169 13.549,5.169 18.717,0c0,0 0,0 0,0c5.169,-5.169 5.169,-13.549 0,-18.718c-14.384,-14.384 -41.768,-41.768 -56.152,-56.152Zm423.529,0c-5.169,-5.169 -13.549,-5.169 -18.717,0c0,0 0,0 0,0c-5.169,5.168 -5.169,13.549 0,18.717c14.384,14.385 41.768,41.768 56.152,56.153c5.169,5.169 13.549,5.169 18.718,0c0,0 0,0 0,0c5.168,-5.169 5.168,-13.549 0,-18.718c-14.385,-14.384 -41.768,-41.768 -56.153,-56.152Zm-317.647,0c-5.169,-5.169 -13.549,-5.169 -18.717,0c0,0 0,0 0,0c-5.169,5.168 -5.169,13.549 0,18.717c14.384,14.385 41.768,41.768 56.152,56.153c5.169,5.169 13.549,5.169 18.718,0c0,0 0,0 0,0c5.168,-5.169 5.168,-13.549 0,-18.718c-14.385,-14.384 -41.768,-41.768 -56.153,-56.152Zm105.882,0c-5.168,-5.169 -13.548,-5.169 -18.717,0c0,0 0,0 0,0c-5.169,5.168 -5.169,13.549 0,18.717c14.384,14.385 41.768,41.768 56.153,56.153c5.168,5.169 13.548,5.169 18.717,0c0,0 0,0 0,0c5.169,-5.169 5.169,-13.549 0,-18.718c-14.384,-14.384 -41.768,-41.768 -56.153,-56.152Zm370.589,0c-5.169,-5.169 -13.549,-5.169 -18.718,0c0,0 0,0 0,0c-5.169,5.168 -5.169,13.549 0,18.717c14.385,14.385 41.768,41.768 56.153,56.153c5.168,5.169 13.549,5.169 18.717,0c0,0 0,0 0,0c5.169,-5.169 5.169,-13.549 0,-18.718c-14.384,-14.384 -41.768,-41.768 -56.152,-56.152Zm-264.706,0c-5.169,-5.169 -13.549,-5.169 -18.718,0c0,0 0,0 0,0c-5.168,5.168 -5.168,13.549 0,18.717c14.385,14.385 41.768,41.768 56.153,56.153c5.169,5.169 13.549,5.169 18.717,0c0,0 0,0 0,0c5.169,-5.169 5.169,-13.549 0,-18.718c-14.384,-14.384 -41.768,-41.768 -56.152,-56.152Zm370.588,0c-5.169,-5.169 -13.549,-5.169 -18.717,0c0,0 0,0 0,0c-5.169,5.168 -5.169,13.549 0,18.717c14.384,14.385 41.768,41.768 56.152,56.153c5.169,5.169 13.549,5.169 18.718,0c0,0 0,0 0,0c5.168,-5.169 5.168,-13.549 0,-18.718c-14.385,-14.384 -41.768,-41.768 -56.153,-56.152Zm-635.294,0c-5.169,-5.169 -13.549,-5.169 -18.718,0c0,0 0,0 0,0c-5.168,5.168 -5.168,13.549 0,18.717c14.385,14.385 41.769,41.768 56.153,56.153c5.169,5.169 13.549,5.169 18.718,0c0,0 0,0 0,0c5.168,-5.169 5.168,-13.549 0,-18.718c-14.385,-14.384 -41.769,-41.768 -56.153,-56.152Zm105.882,0c-5.168,-5.169 -13.549,-5.169 -18.717,0c0,0 0,0 0,0c-5.169,5.168 -5.169,13.549 0,18.717c14.384,14.385 41.768,41.768 56.152,56.153c5.169,5.169 13.549,5.169 18.718,0c0,0 0,0 0,0c5.169,-5.169 5.169,-13.549 0,-18.718c-14.385,-14.384 -41.768,-41.768 -56.153,-56.152Zm317.647,0c-5.168,-5.169 -13.548,-5.169 -18.717,0c0,0 0,0 0,0c-5.169,5.168 -5.169,13.549 0,18.717c14.384,14.385 41.768,41.768 56.152,56.153c5.169,5.169 13.549,5.169 18.718,0c0,0 0,0 0,0c5.169,-5.169 5.169,-13.549 0,-18.718c-14.384,-14.384 -41.768,-41.768 -56.153,-56.152Zm158.824,0c-5.169,-5.169 -13.549,-5.169 -18.718,0c0,0 0,0 0,0c-5.168,5.168 -5.168,13.549 0,18.717c14.385,14.385 41.768,41.768 56.153,56.153c5.169,5.169 13.549,5.169 18.717,0c0,0 0,0 0,0c5.169,-5.169 5.169,-13.549 0,-18.718c-14.384,-14.384 -41.768,-41.768 -56.152,-56.152Zm-370.588,0c-5.169,-5.169 -13.549,-5.169 -18.718,0c0,0 0,0 0,0c-5.169,5.168 -5.169,13.549 0,18.717c14.385,14.385 41.768,41.768 56.153,56.153c5.168,5.169 13.549,5.169 18.717,0c0,0 0,0 0,0c5.169,-5.169 5.169,-13.549 0,-18.718c-14.384,-14.384 -41.768,-41.768 -56.152,-56.152Zm105.882,0c-5.169,-5.169 -13.549,-5.169 -18.718,0c0,0 0,0 0,0c-5.168,5.168 -5.168,13.549 0,18.717c14.385,14.385 41.769,41.768 56.153,56.153c5.169,5.169 13.549,5.169 18.718,0c0,0 0,0 0,0c5.168,-5.169 5.168,-13.549 0,-18.718c-14.385,-14.384 -41.769,-41.768 -56.153,-56.152Zm158.824,0c-5.169,-5.169 -13.549,-5.169 -18.718,0c0,0 0,0 0,0c-5.169,5.168 -5.169,13.549 0,18.717c14.384,14.385 41.768,41.768 56.153,56.153c5.168,5.169 13.548,5.169 18.717,0c0,0 0,0 0,0c5.169,-5.169 5.169,-13.549 0,-18.718c-14.384,-14.384 -41.768,-41.768 -56.152,-56.152Z" style="fill:#808080;"/><path d="M523.529,1132.35l238.236,0l132.353,132.353l52.941,0l26.47,26.47l105.883,0l26.47,-26.47l317.647,0l344.118,344.118" style="fill:none;stroke:#808080;stroke-width:5.29px;"/><path d="M100,1450c0,0 238.235,0 357.353,0c17.551,0 34.383,-6.972 46.794,-19.383c12.41,-12.41 19.382,-29.242 19.382,-46.794c0,-182.434 0,-691.094 0,-873.529c0,-17.551 -6.972,-34.383 -19.382,-46.794c-12.411,-12.41 -29.243,-19.382 -46.794,-19.382c-119.118,0 -357.353,0 -357.353,0" style="fill:none;stroke:#8f8f8f;stroke-width:13.24px;"/><path d="M523.529,629.412l158.824,0l26.471,26.47l132.352,0l26.471,-26.47l26.471,0l158.823,-158.824l105.883,0l105.882,-105.882l26.47,0l52.942,-52.941l0,-26.471l185.294,-185.294" style="fill:none;stroke:#808080;stroke-width:5.29px;"/><path d="M1079.41,1291.18l79.412,79.412l291.176,0l132.353,132.353l52.941,0l0,-26.47" style="fill:none;stroke:#808080;stroke-width:5.29px;"/><g><path d="M550,1158.82l185.294,0" style="fill:none;stroke:#808080;stroke-width:5.29px;"/><path d="M550,1185.29l185.294,0" style="fill:none;stroke:#808080;stroke-width:5.29px;"/><path d="M550,1211.77l185.294,0" style="fill:none;stroke:#808080;stroke-width:5.29px;"/><path d="M550,1238.24l185.294,0" style="fill:none;stroke:#808080;stroke-width:5.29px;"/><path d="M550,1264.71l79.412,0" style="fill:none;stroke:#808080;stroke-width:5.29px;"/><path d="M655.882,1264.71l79.412,0" style="fill:none;stroke:#808080;stroke-width:5.29px;"/><path d="M550,1291.18l0,26.471" style="fill:none;stroke:#808080;stroke-width:5.29px;"/><path d="M563.235,1291.18l0,26.471" style="fill:none;stroke:#808080;stroke-width:5.29px;"/><path d="M576.471,1291.18l0,26.471" style="fill:none;stroke:#808080;stroke-width:5.29px;"/><path d="M589.706,1291.18l0,26.471" style="fill:none;stroke:#808080;stroke-width:5.29px;"/><path d="M602.941,1291.18l0,26.471" style="fill:none;stroke:#808080;stroke-width:5.29px;"/><path d="M616.176,1291.18l0,26.471" style="fill:none;stroke:#808080;stroke-width:5.29px;"/><path d="M629.412,1291.18l0,26.471" style="fill:none;stroke:#808080;stroke-width:5.29px;"/><path d="M655.882,1291.18l0,26.471" style="fill:none;stroke:#808080;stroke-width:5.29px;"/><path d="M669.118,1291.18l0,26.471" style="fill:none;stroke:#808080;stroke-width:5.29px;"/><path d="M682.353,1291.18l0,26.471" style="fill:none;stroke:#808080;stroke-width:5.29px;"/><path d="M695.588,1291.18l0,26.471" style="fill:none;stroke:#808080;stroke-width:5.29px;"/><path d="M708.824,1291.18l0,26.471" style="fill:none;stroke:#808080;stroke-width:5.29px;"/><path d="M722.059,1291.18l0,26.471" style="fill:none;stroke:#808080;stroke-width:5.29px;"/><path d="M735.294,1291.18l0,26.471" style="fill:none;stroke:#808080;stroke-width:5.29px;"/></g></g><defs><linearGradient id="_Linear4" x1="0" y1="0" x2="1" y2="0" gradientUnits="userSpaceOnUse" gradientTransform="matrix(13.2353,0,0,926.471,80.1471,933.824)"><stop offset="0" style="stop-color:#8f8f8f;stop-opacity:1"/><stop offset="0.5" style="stop-color:#8a8a8a;stop-opacity:1"/><stop offset="1" style="stop-color:#8f8f8f;stop-opacity:1"/></linearGradient><linearGradient id="_Linear5" x1="0" y1="0" x2="1" y2="0" gradientUnits="userSpaceOnUse" gradientTransform="matrix(13.2353,0,0,926.471,106.618,933.824)"><stop offset="0" style="stop-color:#8f8f8f;stop-opacity:1"/><stop offset="0.5" style="stop-color:#8a8a8a;stop-opacity:1"/><stop offset="1" style="stop-color:#8f8f8f;stop-opacity:1"/></linearGradient><linearGradient id="_Linear6" x1="0" y1="0" x2="1" y2="0" gradientUnits="userSpaceOnUse" gradientTransform="matrix(13.2353,0,0,926.471,133.088,933.824)"><stop offset="0" style="stop-color:#8f8f8f;stop-opacity:1"/><stop offset="0.5" style="stop-color:#8a8a8a;stop-opacity:1"/><stop offset="1" style="stop-color:#8f8f8f;stop-opacity:1"/></linearGradient><linearGradient id="_Linear7" x1="0" y1="0" x2="1" y2="0" gradientUnits="userSpaceOnUse" gradientTransform="matrix(13.2353,0,0,926.471,159.559,933.824)"><stop offset="0" style="stop-color:#8f8f8f;stop-opacity:1"/><stop offset="0.5" style="stop-color:#8a8a8a;stop-opacity:1"/><stop offset="1" style="stop-color:#8f8f8f;stop-opacity:1"/></linearGradient><linearGradient id="_Linear8" x1="0" y1="0" x2="1" y2="0" gradientUnits="userSpaceOnUse" gradientTransform="matrix(13.2353,0,0,926.471,186.029,933.824)"><stop offset="0" style="stop-color:#8f8f8f;stop-opacity:1"/><stop offset="0.5" style="stop-color:#8a8a8a;stop-opacity:1"/><stop offset="1" style="stop-color:#8f8f8f;stop-opacity:1"/></linearGradient><linearGradient id="_Linear9" x1="0" y1="0" x2="1" y2="0" gradientUnits="userSpaceOnUse" gradientTransform="matrix(13.2353,0,0,926.471,212.5,933.824)"><stop offset="0" style="stop-color:#8f8f8f;stop-opacity:1"/><stop offset="0.5" style="stop-color:#8a8a8a;stop-opacity:1"/><stop offset="1" style="stop-color:#8f8f8f;stop-opacity:1"/></linearGradient><linearGradient id="_Linear10" x1="0" y1="0" x2="1" y2="0" gradientUnits="userSpaceOnUse" gradientTransform="matrix(13.2353,0,0,926.471,238.971,933.824)"><stop offset="0" style="stop-color:#8f8f8f;stop-opacity:1"/><stop offset="0.5" style="stop-color:#8a8a8a;stop-opacity:1"/><stop offset="1" style="stop-color:#8f8f8f;stop-opacity:1"/></linearGradient><linearGradient id="_Linear11" x1="0" y1="0" x2="1" y2="0" gradientUnits="userSpaceOnUse" gradientTransform="matrix(13.2353,0,0,926.471,265.441,933.824)"><stop offset="0" style="stop-color:#8f8f8f;stop-opacity:1"/><stop offset="0.5" style="stop-color:#8a8a8a;stop-opacity:1"/><stop offset="1" style="stop-color:#8f8f8f;stop-opacity:1"/></linearGradient><linearGradient id="_Linear12" x1="0" y1="0" x2="1" y2="0" gradientUnits="userSpaceOnUse" gradientTransform="matrix(13.2353,0,0,926.471,291.912,933.824)"><stop offset="0" style="stop-color:#8f8f8f;stop-opacity:1"/><stop offset="0.5" style="stop-color:#8a8a8a;stop-opacity:1"/><stop offset="1" style="stop-color:#8f8f8f;stop-opacity:1"/></linearGradient><linearGradient id="_Linear13" x1="0" y1="0" x2="1" y2="0" gradientUnits="userSpaceOnUse" gradientTransform="matrix(13.2353,0,0,926.471,318.382,933.824)"><stop offset="0" style="stop-color:#8f8f8f;stop-opacity:1"/><stop offset="0.5" style="stop-color:#8a8a8a;stop-opacity:1"/><stop offset="1" style="stop-color:#8f8f8f;stop-opacity:1"/></linearGradient><linearGradient id="_Linear14" x1="0" y1="0" x2="1" y2="0" gradientUnits="userSpaceOnUse" gradientTransform="matrix(13.2353,0,0,926.471,344.853,933.824)"><stop offset="0" style="stop-color:#8f8f8f;stop-opacity:1"/><stop offset="0.5" style="stop-color:#8a8a8a;stop-opacity:1"/><stop offset="1" style="stop-color:#8f8f8f;stop-opacity:1"/></linearGradient><linearGradient id="_Linear15" x1="0" y1="0" x2="1" y2="0" gradientUnits="userSpaceOnUse" gradientTransform="matrix(13.2353,0,0,926.471,371.324,933.824)"><stop offset="0" style="stop-color:#8f8f8f;stop-opacity:1"/><stop offset="0.5" style="stop-color:#8a8a8a;stop-opacity:1"/><stop offset="1" style="stop-color:#8f8f8f;stop-opacity:1"/></linearGradient><linearGradient id="_Linear16" x1="0" y1="0" x2="1" y2="0" gradientUnits="userSpaceOnUse" gradientTransform="matrix(13.2353,0,0,926.471,397.794,933.824)"><stop offset="0" style="stop-color:#8f8f8f;stop-opacity:1"/><stop offset="0.5" style="stop-color:#8a8a8a;stop-opacity:1"/><stop offset="1" style="stop-color:#8f8f8f;stop-opacity:1"/></linearGradient><linearGradient id="_Linear17" x1="0" y1="0" x2="1" y2="0" gradientUnits="userSpaceOnUse" gradientTransform="matrix(13.2353,0,0,926.471,424.265,933.824)"><stop offset="0" style="stop-color:#8f8f8f;stop-opacity:1"/><stop offset="0.5" style="stop-color:#8a8a8a;stop-opacity:1"/><stop offset="1" style="stop-color:#8f8f8f;stop-opacity:1"/></linearGradient><linearGradient id="_Linear18" x1="0" y1="0" x2="1" y2="0" gradientUnits="userSpaceOnUse" gradientTransform="matrix(13.2353,0,0,926.471,450.735,933.824)"><stop offset="0" style="stop-color:#8f8f8f;stop-opacity:1"/><stop offset="0.5" style="stop-color:#8a8a8a;stop-opacity:1"/><stop offset="1" style="stop-color:#8f8f8f;stop-opacity:1"/></linearGradient><linearGradient id="_Linear19" x1="0" y1="0" x2="1" y2="0" gradientUnits="userSpaceOnUse" gradientTransform="matrix(13.2353,0,0,926.471,477.206,933.824)"><stop offset="0" style="stop-color:#8f8f8f;stop-opacity:1"/><stop offset="0.5" style="stop-color:#8a8a8a;stop-opacity:1"/><stop offset="1" style="stop-color:#8f8f8f;stop-opacity:1"/></linearGradient></defs></svg>