<?xml version="1.0" encoding="UTF-8" standalone="no"?><!DOCTYPE svg PUBLIC "-//W3C//DTD SVG 1.1//EN" "http://www.w3.org/Graphics/SVG/1.1/DTD/svg11.dtd"><svg width="100%" height="100%" viewBox="0 0 2000 2000" version="1.1" xmlns="http://www.w3.org/2000/svg" xmlns:xlink="http://www.w3.org/1999/xlink" xml:space="preserve" xmlns:serif="http://www.serif.com/" style="fill-rule:evenodd;clip-rule:evenodd;stroke-linecap:round;stroke-linejoin:round;stroke-miterlimit:1.5;"><g><path d="M742.213,946.721c13.261,0 25.979,-5.268 35.355,-14.644c9.377,-9.377 14.645,-22.095 14.645,-35.356c0,-13.569 0,-24.59 0,-24.59c0,-70.62 66.79,-127.868 149.18,-127.869l0,0c82.391,0.001 149.181,57.249 149.181,127.869c0,0 0,0 0,0c0,23.54 19.082,42.623 42.623,42.623l0,0c23.54,0.001 42.623,19.083 42.623,42.623c0,26.035 0,59.211 0,85.246c0,23.54 -19.083,42.623 -42.623,42.623c0,0 0,0 0,0c-23.54,0 -42.623,19.083 -42.623,42.623c0,0 0,0 0,0c0,70.62 -66.791,127.869 -149.181,127.869c0,0 0,0 0,0c-82.39,0 -149.18,-57.249 -149.18,-127.869c0,0 0,-11.021 0,-24.59c0,-13.261 -5.268,-25.979 -14.645,-35.356c-9.376,-9.376 -22.094,-14.644 -35.355,-14.644c-5.701,0 -11.512,0 -17.213,0c-13.261,0 -25.979,-5.268 -35.355,-14.645c-9.377,-9.377 -14.645,-22.094 -14.645,-35.355c0,-2.184 0,-4.374 0,-6.558c0,-13.261 5.268,-25.978 14.645,-35.355c9.376,-9.377 22.094,-14.645 35.355,-14.645c5.701,0 11.512,0 17.213,0Z" style="fill:#9e9e9e;"/><clipPath id="_clip1"><path d="M742.213,946.721c13.261,0 25.979,-5.268 35.355,-14.644c9.377,-9.377 14.645,-22.095 14.645,-35.356c0,-13.569 0,-24.59 0,-24.59c0,-70.62 66.79,-127.868 149.18,-127.869l0,0c82.391,0.001 149.181,57.249 149.181,127.869c0,0 0,0 0,0c0,23.54 19.082,42.623 42.623,42.623l0,0c23.54,0.001 42.623,19.083 42.623,42.623c0,26.035 0,59.211 0,85.246c0,23.54 -19.083,42.623 -42.623,42.623c0,0 0,0 0,0c-23.54,0 -42.623,19.083 -42.623,42.623c0,0 0,0 0,0c0,70.62 -66.791,127.869 -149.181,127.869c0,0 0,0 0,0c-82.39,0 -149.18,-57.249 -149.18,-127.869c0,0 0,-11.021 0,-24.59c0,-13.261 -5.268,-25.979 -14.645,-35.356c-9.376,-9.376 -22.094,-14.644 -35.355,-14.644c-5.701,0 -11.512,0 -17.213,0c-13.261,0 -25.979,-5.268 -35.355,-14.645c-9.377,-9.377 -14.645,-22.094 -14.645,-35.355c0,-2.184 0,-4.374 0,-6.558c0,-13.261 5.268,-25.978 14.645,-35.355c9.376,-9.377 22.094,-14.645 35.355,-14.645c5.701,0 11.512,0 17.213,0Z"/></clipPath><g clip-path="url(#_clip1)"><path d="M1047.95,893.443c0,-58.85 -47.708,-106.558 -106.558,-106.558c0,0 0,0 0,0c-58.85,0 -106.557,47.708 -106.557,106.558c0,65.086 0,148.028 0,213.114c0,58.85 47.707,106.558 106.557,106.558c0,0 0,0 0,0c58.85,0 106.558,-47.708 106.558,-106.558c0,-65.086 0,-148.028 0,-213.114Z" style="fill:#999;"/><circle cx="941.393" cy="893.443" r="63.934" style="fill:#919191;"/><circle cx="941.393" cy="1106.56" r="63.934" style="fill:#919191;"/><path d="M1175.82,1031.97l0,10.656l-42.623,0l0,-10.656l42.623,0Zm0,-37.295l0,10.656l-42.623,0l0,-10.656l42.623,0Zm0,-37.295l0,10.656l-42.623,0l0,-10.656l42.623,0Z" style="fill:#949494;"/></g><path d="M1325,968.033c0,-14.131 -5.613,-27.682 -15.605,-37.674c-9.992,-9.992 -23.543,-15.605 -37.674,-15.605c-7.044,0 -14.267,0 -21.311,0c-14.131,0 -27.682,5.613 -37.674,15.605c-9.992,9.992 -15.605,23.543 -15.605,37.674c0,20.363 0,43.571 0,63.934c0,14.131 5.613,27.682 15.605,37.674c9.992,9.992 23.543,15.605 37.674,15.605c7.044,0 14.267,0 21.311,0c14.131,0 27.682,-5.613 37.674,-15.605c9.992,-9.992 15.605,-23.543 15.605,-37.674c0,-20.363 0,-43.571 0,-63.934Z" style="fill:#9e9e9e;"/><path d="M845.492,1000l21.311,-12.304l0,24.608l-21.311,-12.304Z" style="fill:#919191;"/><path d="M1207.79,1000l21.311,-12.304l0,24.608l-21.311,-12.304Z" style="fill:#919191;"/><circle cx="728.279" cy="1000" r="21.311" style="fill:#999;"/><clipPath id="_clip2"><circle cx="728.279" cy="1000" r="21.311"/></clipPath><g clip-path="url(#_clip2)"><path d="M735.813,992.465l-15.069,15.07" style="fill:none;stroke:#949494;stroke-width:5.33px;"/><path d="M720.744,992.465l15.069,15.07" style="fill:none;stroke:#949494;stroke-width:5.33px;"/></g><circle cx="1090.57" cy="1000" r="21.311" style="fill:#999;"/><clipPath id="_clip3"><circle cx="1090.57" cy="1000" r="21.311"/></clipPath><g clip-path="url(#_clip3)"><path d="M1098.11,992.465l-15.07,15.07" style="fill:none;stroke:#949494;stroke-width:5.33px;"/><path d="M1083.04,992.465l15.07,15.07" style="fill:none;stroke:#949494;stroke-width:5.33px;"/></g><circle cx="1261.07" cy="946.721" r="21.311" style="fill:#999;"/><clipPath id="_clip4"><circle cx="1261.07" cy="946.721" r="21.311"/></clipPath><g clip-path="url(#_clip4)"><path d="M1268.6,939.187l-15.069,15.069" style="fill:none;stroke:#949494;stroke-width:5.33px;"/><path d="M1253.53,939.187l15.069,15.069" style="fill:none;stroke:#949494;stroke-width:5.33px;"/></g><circle cx="1261.07" cy="1053.28" r="21.311" style="fill:#999;"/><clipPath id="_clip5"><circle cx="1261.07" cy="1053.28" r="21.311"/></clipPath><g clip-path="url(#_clip5)"><path d="M1268.6,1045.74l-15.069,15.069" style="fill:none;stroke:#949494;stroke-width:5.33px;"/><path d="M1253.53,1045.74l15.069,15.069" style="fill:none;stroke:#949494;stroke-width:5.33px;"/></g></g></svg>