<?xml version="1.0" encoding="UTF-8" standalone="no"?><!DOCTYPE svg PUBLIC "-//W3C//DTD SVG 1.1//EN" "http://www.w3.org/Graphics/SVG/1.1/DTD/svg11.dtd"><svg width="100%" height="100%" viewBox="0 0 2000 2000" version="1.1" xmlns="http://www.w3.org/2000/svg" xmlns:xlink="http://www.w3.org/1999/xlink" xml:space="preserve" xmlns:serif="http://www.serif.com/" style="fill-rule:evenodd;clip-rule:evenodd;stroke-linejoin:round;stroke-miterlimit:1.41421;"><path d="M1391.12,656.618c44.514,0.412 87.402,30.167 102.483,73.103c4.008,11.412 6.064,23.534 6.177,35.555c0.492,156.444 0.002,312.89 0.002,469.335c-0.142,45.035 -30.067,87.994 -73.102,103.113c-11.413,4.009 -23.536,6.064 -35.557,6.177c-67.561,0.213 -135.122,0.002 -202.683,0.002c-28.467,-0.089 -56.439,-11.57 -76.786,-31.546c-37.164,-36.928 -73.975,-74.209 -111.139,-111.136c-8.619,-8.462 -20.531,-13.404 -32.64,-13.518c-82.679,-0.26 -165.36,-0.001 -248.04,-0.001c-28.467,-0.09 -56.439,-11.57 -76.785,-31.547c-37.107,-36.87 -73.979,-73.976 -110.968,-110.965c-20.1,-20.229 -31.725,-48.092 -31.988,-76.602c-0.212,-67.559 -0.002,-135.12 -0.002,-202.679c0.141,-44.968 30.154,-88.023 73.1,-103.112c11.395,-4.004 23.454,-6.067 35.562,-6.179c260.787,-0.819 521.578,-0.819 782.366,0Z" style="fill:#333;fill-rule:nonzero;"/><path d="M1391.12,656.618c44.514,0.412 87.402,30.167 102.483,73.103c4.008,11.412 6.064,23.534 6.177,35.555c0.492,156.444 0.002,312.89 0.002,469.335c-0.142,45.035 -30.067,87.994 -73.102,103.113c-11.413,4.009 -23.536,6.064 -35.557,6.177c-67.561,0.213 -135.122,0.002 -202.683,0.002c-28.467,-0.089 -56.439,-11.57 -76.786,-31.546c-37.164,-36.928 -73.975,-74.209 -111.139,-111.136c-8.619,-8.462 -20.531,-13.404 -32.64,-13.518c-82.679,-0.26 -165.36,-0.001 -248.04,-0.001c-28.467,-0.09 -56.439,-11.57 -76.785,-31.547c-37.107,-36.87 -73.979,-73.976 -110.968,-110.965c-20.1,-20.229 -31.725,-48.092 -31.988,-76.602c-0.212,-67.559 -0.002,-135.12 -0.002,-202.679c0.141,-44.968 30.154,-88.023 73.1,-103.112c11.395,-4.004 23.454,-6.067 35.562,-6.179c260.787,-0.819 521.578,-0.819 782.366,0Zm77.422,359.002c0,0 -163.608,0 -227.27,0c-13.373,0 -25.815,6.843 -32.977,18.136c-6.831,10.739 -16.714,19.517 -28.529,24.351c-8.944,3.659 -18.733,5.045 -28.39,4.264c-11.459,-0.973 -22.764,3.159 -30.896,11.291c-26.772,26.739 -82.09,82.057 -97.67,97.637c-2.218,2.219 -2.218,5.816 0.001,8.035c0,0.002 0.001,0.002 0.001,0.003c29.595,29.595 80.856,80.856 110.451,110.451c14.647,14.647 34.512,22.875 55.226,22.875c47.314,0 136.827,0 201.952,0c20.713,0 40.579,-8.228 55.225,-22.875c14.647,-14.647 22.876,-34.512 22.876,-55.226l0,-218.942Zm-898.159,-93.461c-10.357,0 -20.29,4.114 -27.613,11.438c-7.324,7.323 -11.438,17.256 -11.438,27.613c0,4.038 0,6.7 0,6.7c0,20.713 8.229,40.578 22.875,55.225c29.596,29.595 80.856,80.856 110.452,110.451c14.646,14.647 34.512,22.876 55.225,22.876c59.97,0 187.733,0 247.703,0c2.116,0 4.223,0.085 6.316,0.255c11.3,0.843 22.405,-3.28 30.417,-11.292c21.02,-20.837 60.143,-59.96 84.116,-83.933c10.604,-10.604 14.198,-26.343 9.25,-40.499c-0.754,-1.797 -1.307,-3.664 -1.778,-5.553c-3.307,-13.621 -13.676,-24.416 -27.154,-28.266c-38.18,-11.007 -109.98,-31.522 -147.464,-42.231c-12.932,-3.695 -26.855,-0.475 -36.851,8.523c-4.981,4.615 -10.752,8.333 -17.076,10.92c-21.754,8.9 -48.504,4.352 -66.192,-12.115c-3.782,-3.521 -7.053,-7.534 -9.782,-11.892c-7.145,-11.305 -19.585,-18.16 -32.959,-18.16c-44.119,-0.06 -135.66,-0.06 -188.047,-0.06Zm585.554,46.861c-14.355,0.137 -27.858,11.182 -30.516,25.521c-2.593,13.996 5.691,29.243 18.914,34.649c16.474,6.736 38.017,-3.59 42.243,-21.878c4.11,-17.787 -9.914,-37.719 -29.634,-38.282c-0.336,-0.008 -0.671,-0.011 -1.007,-0.01Zm-68.03,-281.163c-4.883,0 -9.354,2.74 -11.57,7.091c-0.002,0 -0.002,0 -0.002,0c-0.594,1.167 -115.951,116.875 -161.143,162.182c-9.439,9.463 -13.382,23.096 -10.453,36.136c0.35,1.373 0.609,2.771 0.816,4.183c0,0.001 0,0.001 0,0.002c0.978,6.674 5.776,12.156 12.263,14.009c32.202,9.201 122.455,34.987 164.648,47.042c12.035,3.439 24.988,0.9 34.835,-6.827c10.801,-8.534 24.317,-13.671 38.04,-13.891c0.399,-0.003 0.797,-0.005 1.196,-0.003c20.762,0.191 40.536,11.84 51.962,29.044c7.224,10.951 19.466,17.54 32.585,17.54c63.357,0.015 227.458,0.015 227.458,0.015c0,0 0,-218.422 0,-218.422c0,-20.714 -8.229,-40.579 -22.876,-55.226c-14.646,-14.647 -34.512,-22.875 -55.225,-22.875c0,0 -249.352,0 -302.534,0Zm-244.374,187.442c-14.354,0.137 -27.858,11.183 -30.515,25.521c-2.593,13.996 5.691,29.243 18.914,34.649c16.474,6.736 38.017,-3.59 42.243,-21.878c4.11,-17.786 -9.914,-37.719 -29.634,-38.282c-0.336,-0.008 -0.672,-0.011 -1.008,-0.01Zm130.131,-120.779c11.168,-11.168 14.509,-27.965 8.465,-42.557c-6.044,-14.592 -20.283,-24.106 -36.078,-24.106c-126.811,0 -336.618,0 -336.618,0c-20.714,0 -40.579,8.228 -55.226,22.875c-14.646,14.647 -22.875,34.512 -22.875,55.226c0,0 0,49.248 0,85.91c0,21.567 17.484,39.051 39.051,39.051c57.707,0 162.907,0 199.76,0c7.273,0 13.889,-4.212 16.967,-10.801c0.001,0 0.001,0 0.002,-0.001c9.895,-21.178 32.562,-35.681 55.826,-36.054c0.399,-0.003 0.797,-0.005 1.196,-0.003c4.272,0.039 8.502,0.563 12.626,1.521c13.079,2.979 26.772,-0.969 36.257,-10.455c19.386,-19.345 51.403,-51.361 80.647,-80.606Z" style="fill:#404040;fill-rule:nonzero;"/></svg>