<?xml version="1.0" encoding="UTF-8" standalone="no"?><!DOCTYPE svg PUBLIC "-//W3C//DTD SVG 1.1//EN" "http://www.w3.org/Graphics/SVG/1.1/DTD/svg11.dtd"><svg width="100%" height="100%" viewBox="0 0 2000 2000" version="1.1" xmlns="http://www.w3.org/2000/svg" xmlns:xlink="http://www.w3.org/1999/xlink" xml:space="preserve" xmlns:serif="http://www.serif.com/" style="fill-rule:evenodd;clip-rule:evenodd;stroke-linecap:square;stroke-miterlimit:1.5;"><g><rect x="800" y="500" width="400" height="1000" style="fill:url(#_Linear1);"/><rect x="866.667" y="533.333" width="266.667" height="933.333" style="fill:#1a1a1a;"/><g><path d="M866.667,533.333l0,933.334" style="fill:none;stroke:#9c9c9c;stroke-width:1.67px;"/><path d="M875,533.333l0,933.334" style="fill:none;stroke:#9c9c9c;stroke-width:1.67px;"/><path d="M883.333,533.333l0,933.334" style="fill:none;stroke:#9c9c9c;stroke-width:1.67px;"/><path d="M891.667,533.333l0,933.334" style="fill:none;stroke:#9c9c9c;stroke-width:1.67px;"/><path d="M900,533.333l0,933.334" style="fill:none;stroke:#9c9c9c;stroke-width:1.67px;"/><path d="M908.333,533.333l0,933.334" style="fill:none;stroke:#9c9c9c;stroke-width:1.67px;"/><path d="M916.667,533.333l0,933.334" style="fill:none;stroke:#9c9c9c;stroke-width:1.67px;"/><path d="M925,533.333l0,933.334" style="fill:none;stroke:#9c9c9c;stroke-width:1.67px;"/><path d="M933.333,533.333l0,933.334" style="fill:none;stroke:#9c9c9c;stroke-width:1.67px;"/><path d="M941.667,533.333l0,933.334" style="fill:none;stroke:#9c9c9c;stroke-width:1.67px;"/><path d="M950,533.333l0,933.334" style="fill:none;stroke:#9c9c9c;stroke-width:1.67px;"/><path d="M958.333,533.333l0,933.334" style="fill:none;stroke:#9c9c9c;stroke-width:1.67px;"/><path d="M966.667,533.333l0,933.334" style="fill:none;stroke:#9c9c9c;stroke-width:1.67px;"/><path d="M975,533.333l0,933.334" style="fill:none;stroke:#9c9c9c;stroke-width:1.67px;"/><path d="M983.333,533.333l0,933.334" style="fill:none;stroke:#9c9c9c;stroke-width:1.67px;"/><path d="M991.667,533.333l0,933.334" style="fill:none;stroke:#9c9c9c;stroke-width:1.67px;"/><path d="M1000,533.333l0,933.334" style="fill:none;stroke:#9c9c9c;stroke-width:1.67px;"/><path d="M1008.33,533.333l0,933.334" style="fill:none;stroke:#9c9c9c;stroke-width:1.67px;"/><path d="M1016.67,533.333l0,933.334" style="fill:none;stroke:#9c9c9c;stroke-width:1.67px;"/><path d="M1025,533.333l0,933.334" style="fill:none;stroke:#9c9c9c;stroke-width:1.67px;"/><path d="M1033.33,533.333l0,933.334" style="fill:none;stroke:#9c9c9c;stroke-width:1.67px;"/><path d="M1041.67,533.333l0,933.334" style="fill:none;stroke:#9c9c9c;stroke-width:1.67px;"/><path d="M1050,533.333l0,933.334" style="fill:none;stroke:#9c9c9c;stroke-width:1.67px;"/><path d="M1058.33,533.333l0,933.334" style="fill:none;stroke:#9c9c9c;stroke-width:1.67px;"/><path d="M1066.67,533.333l0,933.334" style="fill:none;stroke:#9c9c9c;stroke-width:1.67px;"/><path d="M1075,533.333l0,933.334" style="fill:none;stroke:#9c9c9c;stroke-width:1.67px;"/><path d="M1083.33,533.333l0,933.334" style="fill:none;stroke:#9c9c9c;stroke-width:1.67px;"/><path d="M1091.67,533.333l0,933.334" style="fill:none;stroke:#9c9c9c;stroke-width:1.67px;"/><path d="M1100,533.333l0,933.334" style="fill:none;stroke:#9c9c9c;stroke-width:1.67px;"/><path d="M1108.33,533.333l0,933.334" style="fill:none;stroke:#9c9c9c;stroke-width:1.67px;"/><path d="M1116.67,533.333l0,933.334" style="fill:none;stroke:#9c9c9c;stroke-width:1.67px;"/><path d="M1125,533.333l0,933.334" style="fill:none;stroke:#9c9c9c;stroke-width:1.67px;"/><path d="M1133.33,533.333l0,933.334" style="fill:none;stroke:#9c9c9c;stroke-width:1.67px;"/></g><path d="M1151.28,546.92l1.081,0.723l0.723,1.081l0.253,1.276l-0.253,1.276l-0.723,1.081l-1.081,0.723l-1.276,0.253l-300,0l-1.276,-0.253l-1.081,-0.723l-0.723,-1.081l-0.253,-1.276l0.253,-1.276l0.723,-1.081l1.081,-0.723l1.276,-0.253l300,0l1.276,0.253Z" style="fill:#9e9e9e;"/><path d="M1151.28,596.92l1.081,0.723l0.723,1.081l0.253,1.276l-0.253,1.276l-0.723,1.081l-1.081,0.723l-1.276,0.253l-300,0l-1.276,-0.253l-1.081,-0.723l-0.723,-1.081l-0.253,-1.276l0.253,-1.276l0.723,-1.081l1.081,-0.723l1.276,-0.253l300,0l1.276,0.253Z" style="fill:#9e9e9e;"/><path d="M1151.28,646.92l1.081,0.723l0.723,1.081l0.253,1.276l-0.253,1.276l-0.723,1.081l-1.081,0.723l-1.276,0.253l-300,0l-1.276,-0.253l-1.081,-0.723l-0.723,-1.081l-0.253,-1.276l0.253,-1.276l0.723,-1.081l1.081,-0.723l1.276,-0.253l300,0l1.276,0.253Z" style="fill:#9e9e9e;"/><path d="M1151.28,696.92l1.081,0.723l0.723,1.081l0.253,1.276l-0.253,1.276l-0.723,1.081l-1.081,0.723l-1.276,0.253l-300,0l-1.276,-0.253l-1.081,-0.723l-0.723,-1.081l-0.253,-1.276l0.253,-1.276l0.723,-1.081l1.081,-0.723l1.276,-0.253l300,0l1.276,0.253Z" style="fill:#9e9e9e;"/><path d="M1151.28,746.92l1.081,0.723l0.723,1.081l0.253,1.276l-0.253,1.276l-0.723,1.081l-1.081,0.723l-1.276,0.253l-300,0l-1.276,-0.253l-1.081,-0.723l-0.723,-1.081l-0.253,-1.276l0.253,-1.276l0.723,-1.081l1.081,-0.723l1.276,-0.253l300,0l1.276,0.253Z" style="fill:#9e9e9e;"/><path d="M1151.28,796.92l1.081,0.723l0.723,1.081l0.253,1.276l-0.253,1.276l-0.723,1.081l-1.081,0.723l-1.276,0.253l-300,0l-1.276,-0.253l-1.081,-0.723l-0.723,-1.081l-0.253,-1.276l0.253,-1.276l0.723,-1.081l1.081,-0.723l1.276,-0.253l300,0l1.276,0.253Z" style="fill:#9e9e9e;"/><path d="M1151.28,846.92l1.081,0.723l0.723,1.081l0.253,1.276l-0.253,1.276l-0.723,1.081l-1.081,0.723l-1.276,0.253l-300,0l-1.276,-0.253l-1.081,-0.723l-0.723,-1.081l-0.253,-1.276l0.253,-1.276l0.723,-1.081l1.081,-0.723l1.276,-0.253l300,0l1.276,0.253Z" style="fill:#9e9e9e;"/><path d="M1151.28,896.92l1.081,0.723l0.723,1.081l0.253,1.276l-0.253,1.276l-0.723,1.081l-1.081,0.723l-1.276,0.253l-300,0l-1.276,-0.253l-1.081,-0.723l-0.723,-1.081l-0.253,-1.276l0.253,-1.276l0.723,-1.081l1.081,-0.723l1.276,-0.253l300,0l1.276,0.253Z" style="fill:#9e9e9e;"/><path d="M1151.28,946.92l1.081,0.723l0.723,1.081l0.253,1.276l-0.253,1.276l-0.723,1.081l-1.081,0.723l-1.276,0.253l-300,0l-1.276,-0.253l-1.081,-0.723l-0.723,-1.081l-0.253,-1.276l0.253,-1.276l0.723,-1.081l1.081,-0.723l1.276,-0.253l300,0l1.276,0.253Z" style="fill:#9e9e9e;"/><path d="M1151.28,996.92l1.081,0.723l0.723,1.081l0.253,1.276l-0.253,1.276l-0.723,1.081l-1.081,0.723l-1.276,0.253l-300,0l-1.276,-0.253l-1.081,-0.723l-0.723,-1.081l-0.253,-1.276l0.253,-1.276l0.723,-1.081l1.081,-0.723l1.276,-0.253l300,0l1.276,0.253Z" style="fill:#9e9e9e;"/><path d="M1151.28,1046.92l1.081,0.723l0.723,1.081l0.253,1.276l-0.253,1.276l-0.723,1.081l-1.081,0.723l-1.276,0.253l-300,0l-1.276,-0.253l-1.081,-0.723l-0.723,-1.081l-0.253,-1.276l0.253,-1.276l0.723,-1.081l1.081,-0.723l1.276,-0.253l300,0l1.276,0.253Z" style="fill:#9e9e9e;"/><path d="M1151.28,1096.92l1.081,0.723l0.723,1.081l0.253,1.276l-0.253,1.276l-0.723,1.081l-1.081,0.723l-1.276,0.253l-300,0l-1.276,-0.253l-1.081,-0.723l-0.723,-1.081l-0.253,-1.276l0.253,-1.276l0.723,-1.081l1.081,-0.723l1.276,-0.253l300,0l1.276,0.253Z" style="fill:#9e9e9e;"/><path d="M1151.28,1146.92l1.081,0.723l0.723,1.081l0.253,1.276l-0.253,1.276l-0.723,1.081l-1.081,0.723l-1.276,0.253l-300,0l-1.276,-0.253l-1.081,-0.723l-0.723,-1.081l-0.253,-1.276l0.253,-1.276l0.723,-1.081l1.081,-0.723l1.276,-0.253l300,0l1.276,0.253Z" style="fill:#9e9e9e;"/><path d="M1151.28,1196.92l1.081,0.723l0.723,1.081l0.253,1.276l-0.253,1.276l-0.723,1.081l-1.081,0.723l-1.276,0.253l-300,0l-1.276,-0.253l-1.081,-0.723l-0.723,-1.081l-0.253,-1.276l0.253,-1.276l0.723,-1.081l1.081,-0.723l1.276,-0.253l300,0l1.276,0.253Z" style="fill:#9e9e9e;"/><path d="M1151.28,1246.92l1.081,0.723l0.723,1.081l0.253,1.276l-0.253,1.276l-0.723,1.081l-1.081,0.723l-1.276,0.253l-300,0l-1.276,-0.253l-1.081,-0.723l-0.723,-1.081l-0.253,-1.276l0.253,-1.276l0.723,-1.081l1.081,-0.723l1.276,-0.253l300,0l1.276,0.253Z" style="fill:#9e9e9e;"/><path d="M1151.28,1296.92l1.081,0.723l0.723,1.081l0.253,1.276l-0.253,1.276l-0.723,1.081l-1.081,0.723l-1.276,0.253l-300,0l-1.276,-0.253l-1.081,-0.723l-0.723,-1.081l-0.253,-1.276l0.253,-1.276l0.723,-1.081l1.081,-0.723l1.276,-0.253l300,0l1.276,0.253Z" style="fill:#9e9e9e;"/><path d="M1151.28,1346.92l1.081,0.723l0.723,1.081l0.253,1.276l-0.253,1.276l-0.723,1.081l-1.081,0.723l-1.276,0.253l-300,0l-1.276,-0.253l-1.081,-0.723l-0.723,-1.081l-0.253,-1.276l0.253,-1.276l0.723,-1.081l1.081,-0.723l1.276,-0.253l300,0l1.276,0.253Z" style="fill:#9e9e9e;"/><path d="M1151.28,1396.92l1.081,0.723l0.723,1.081l0.253,1.276l-0.253,1.276l-0.723,1.081l-1.081,0.723l-1.276,0.253l-300,0l-1.276,-0.253l-1.081,-0.723l-0.723,-1.081l-0.253,-1.276l0.253,-1.276l0.723,-1.081l1.081,-0.723l1.276,-0.253l300,0l1.276,0.253Z" style="fill:#9e9e9e;"/><path d="M1151.28,1446.92l1.081,0.723l0.723,1.081l0.253,1.276l-0.253,1.276l-0.723,1.081l-1.081,0.723l-1.276,0.253l-300,0l-1.276,-0.253l-1.081,-0.723l-0.723,-1.081l-0.253,-1.276l0.253,-1.276l0.723,-1.081l1.081,-0.723l1.276,-0.253l300,0l1.276,0.253Z" style="fill:#9e9e9e;"/></g><defs><linearGradient id="_Linear1" x1="0" y1="0" x2="1" y2="0" gradientUnits="userSpaceOnUse" gradientTransform="matrix(400,0,0,400,800,716.667)"><stop offset="0" style="stop-color:#8c8c8c;stop-opacity:1"/><stop offset="0.08" style="stop-color:#999;stop-opacity:1"/><stop offset="0.92" style="stop-color:#999;stop-opacity:1"/><stop offset="1" style="stop-color:#8c8c8c;stop-opacity:1"/></linearGradient></defs></svg>